<svg xmlns="http://www.w3.org/2000/svg" xmlns:xlink="http://www.w3.org/1999/xlink" width="450" height="450"><defs><linearGradient id="b"><stop offset="0" stop-color="gray"/><stop offset="1" stop-color="#fff"/></linearGradient><linearGradient id="a"><stop offset="0" stop-color="#fff"/><stop offset="1" stop-color="gray"/></linearGradient><linearGradient xlink:href="#a" id="c" x1="185" y1="817.362" x2="245" y2="757.362" gradientUnits="userSpaceOnUse"/><linearGradient xlink:href="#b" id="d" x1="367.416" y1="163.288" x2="430.505" y2="163.288" gradientUnits="userSpaceOnUse"/></defs><g transform="translate(25 -627.362)"><path d="M239.754 832.385c8.845 8.845 21.124 17.887 34.825 17.928 19.414 0 38.828 7.406 53.64 22.219 14.813 14.812 22.22 34.226 21.997 53.7-.275 36.972-2.997 57.36 6.502 81.72a81.392 81.392 0 00-18.06-5.274c-6.012-1.035-12.146-1.457-18.793-1.6-6.646-.144-13.803-.01-21.862.074l.188-32.312-27.492.804-.18 31.38c-5.855-.136-8.26-.617-13.465-1.606-4.398-.851-8.643-2.08-12.76-3.75a65.142 65.142 0 01-11.987-6.402c-3.885-2.621-7.666-5.75-11.369-9.453-14.812-14.813-22.219-34.227-22.219-53.64-.77-14.923-10.734-26.431-18.458-34.155" fill="#1a1a1a" stroke="#1a1a1a" stroke-width="10"/><path fill="#1a1a1a" d="M159.383 865.568l60.491-60.49 27.376 27.375-60.491 60.49z"/><path d="M162.03 869.802c-8.845-8.845-21.124-17.887-34.825-17.928-19.414 0-38.828-7.406-53.64-22.219-14.813-14.812-22.22-34.226-21.997-53.7.274-36.971 2.996-57.36-6.503-81.72a81.388 81.388 0 0018.06 5.274c6.012 1.035 12.147 1.458 18.793 1.601 6.646.143 13.804.007 21.862-.076l-.187 32.312 27.492-.803.179-31.381c5.855.136 8.26.618 13.465 1.607 4.399.851 8.644 2.079 12.76 3.749a65.137 65.137 0 0111.988 6.403c3.884 2.62 7.665 5.75 11.368 9.453 14.813 14.812 22.22 34.226 22.22 53.64.77 14.923 10.734 26.43 18.458 34.155" fill="#1a1a1a" stroke="#1a1a1a" stroke-width="10"/><circle cx="-459.573" cy="515.207" r="15.371" transform="rotate(-45)" fill="#1a1a1a" stroke="#1a1a1a" stroke-width="10"/><path d="M111.799 865.1l103.255-103.255c14.517-.171 24.485 9.817 24.456 24.455L136.254 889.556c-14.758-2.506-23.107-9.5-24.455-24.455z" fill="url(#c)" stroke="#1a1a1a" stroke-width="20" stroke-linejoin="round"/><g transform="rotate(135 272.856 472.24) scale(1.34497)" stroke="#1a1a1a"><circle r="11.429" cy="19.778" cx="440.154" fill="#1a1a1a" stroke-width="7.435"/><path d="M385.81 150.312h108.57c7.723 7.542 7.712 18.034 0 25.715H385.81c-6.441-9.077-7.154-17.143 0-25.715z" fill="url(#d)" stroke-width="14.87" stroke-linejoin="round"/></g><path d="M155.94 872.334c13.485 1.997 22.723 8.896 24.455 24.455m45.545-94.456c1.997 13.486 8.896 22.724 24.455 24.456" fill="none" stroke="#191919" stroke-width="10"/></g></svg>