<svg xmlns="http://www.w3.org/2000/svg" xmlns:xlink="http://www.w3.org/1999/xlink" width="450" height="450"><defs><linearGradient id="d"><stop offset="0" stop-color="#fff"/><stop offset="1" stop-color="#b3b3b3"/></linearGradient><linearGradient id="c"><stop offset="0" stop-color="#fff"/><stop offset="1" stop-color="#b3b3b3"/></linearGradient><linearGradient id="b"><stop offset="0" stop-color="#fff"/><stop offset="1" stop-color="#b3b3b3"/></linearGradient><linearGradient id="a"><stop offset="0" stop-color="#fff"/><stop offset="1" stop-color="#b3b3b3"/></linearGradient><linearGradient xlink:href="#a" id="f" x1="17.905" y1="917.573" x2="66.717" y2="958.511" gradientUnits="userSpaceOnUse"/><linearGradient xlink:href="#b" id="e" x1="285" y1="777.362" x2="333.812" y2="818.299" gradientUnits="userSpaceOnUse"/><linearGradient xlink:href="#c" id="h" x1="285" y1="927.362" x2="333.812" y2="886.425" gradientUnits="userSpaceOnUse"/><linearGradient xlink:href="#d" id="g" x1="285" y1="777.362" x2="333.812" y2="818.299" gradientUnits="userSpaceOnUse"/></defs><path d="M201.702 343.645l23.823-42.542 23.337 43.028zm-.692-238.473l23.824 42.542 23.337-43.029z" fill="#fff" fill-rule="evenodd"/><path d="M198.203 108.538a24.366 24.366 0 010-20.619c1.473-3.169 3.605-6.022 6.238-8.419 2.634-2.396 5.77-4.336 9.253-5.676a31.513 31.513 0 0111.33-2.081c4.019 0 7.848.741 11.33 2.081 3.483 1.34 6.619 3.28 9.252 5.676 2.634 2.397 4.766 5.25 6.239 8.42a24.366 24.366 0 010 20.618" fill="#fff" stroke="#1a1a1a" stroke-width="15"/><path d="M71.698 855.022c0-22.628-14-37.754-28.476-50.018-7.077-6.083-12.804-13.326-16.762-21.37-3.958-8.042-6.147-16.886-6.147-26.168s2.19-18.126 6.147-26.169c3.958-8.043 9.685-15.286 16.762-21.37 7.077-6.083 15.503-11.005 24.86-14.407 9.358-3.402 19.646-5.284 30.445-5.284s21.087 1.882 30.444 5.284 17.784 8.324 24.861 14.408c7.077 6.083 12.804 13.326 16.762 21.37 3.958 8.042 17.669 26.59 29.726 51.704 13.338-25.458 25.128-43.744 29.086-51.788 3.958-8.043 9.685-15.286 16.762-21.37 7.077-6.082 15.504-11.005 24.86-14.407 9.358-3.402 19.646-5.283 30.445-5.283 10.8 0 21.087 1.881 30.444 5.283 9.358 3.402 17.784 8.325 24.861 14.408 7.077 6.083 12.804 13.326 16.762 21.37 3.958 8.043 6.146 16.886 6.146 26.168 0 9.283-2.188 18.126-6.146 26.169-3.958 8.043-9.685 15.287-16.762 21.37-14.477 12.264-27.406 28.594-27.406 51.221" fill="url(#e)" stroke="#000" stroke-width="15" transform="translate(25 -627.362)"/><path d="M116.16 190.134c-6.77-9.943-12.54-19.776-28.777-30.771-4.45-3.703-8.05-8.113-10.538-13.009-2.489-4.896-3.865-10.28-3.865-15.93s1.376-11.034 3.865-15.93c2.488-4.896 6.088-9.305 10.538-13.009 4.449-3.702 9.747-6.7 15.63-8.77 5.883-2.071 12.35-3.216 19.14-3.216 6.79 0 13.257 1.145 19.14 3.216 5.883 2.07 11.18 5.068 15.63 8.77 4.45 3.704 11.171 12.3 14.006 17.055 6.804 9.71 17.747 30.288 17.747 30.288l17.026 33.061" fill="#1a1a1a" stroke="#1a1a1a" stroke-width="8.406"/><path d="M216.039 98.69a7.8 7.8 0 01.704-3.242 8.338 8.338 0 011.92-2.647 9.043 9.043 0 012.85-1.785A9.523 9.523 0 01225 90.36c1.238 0 2.417.233 3.489.655a9.043 9.043 0 012.849 1.785 8.337 8.337 0 011.92 2.647 7.8 7.8 0 01.704 3.242c0 5.127-6.955 13.455-8.962 17.31-2.184-3.821-8.961-12.424-8.961-17.31z" fill="#1a1a1a" stroke="#1a1a1a" stroke-width="4.723"/><path d="M97.302 206.008c87.655-23.723 172.844-24.199 258.775.004l.642 26.646H96.167z" fill="#1a1a1a"/><path d="M198.203 341.46a24.366 24.366 0 000 20.62c1.473 3.168 3.605 6.022 6.239 8.418 2.633 2.397 5.77 4.336 9.252 5.677a31.513 31.513 0 0011.33 2.08c4.02 0 7.848-.74 11.33-2.08 3.483-1.34 6.619-3.28 9.253-5.677 2.633-2.396 4.765-5.25 6.238-8.418a24.366 24.366 0 000-20.62" fill="#fff" stroke="#1a1a1a" stroke-width="15"/><path d="M-195.396 995.233c0-22.627-14-37.753-28.477-50.017-7.077-6.083-12.804-13.327-16.762-21.37-3.958-8.043-6.146-16.886-6.146-26.169 0-9.282 2.188-18.125 6.146-26.168 3.958-8.044 9.685-15.287 16.762-21.37s15.504-11.006 24.861-14.408c9.357-3.402 19.645-5.283 30.444-5.283 10.8 0 21.087 1.881 30.444 5.283 9.358 3.402 17.784 8.325 24.861 14.408 7.077 6.083 12.804 13.326 16.762 21.37 3.958 8.043 17.669 26.59 29.726 51.704 13.338-25.457 25.129-43.744 29.086-51.787 3.958-8.043 9.685-15.287 16.762-21.37s15.504-11.006 24.861-14.408c9.358-3.402 19.645-5.283 30.444-5.283 10.8 0 21.087 1.881 30.445 5.283 9.357 3.402 17.784 8.325 24.86 14.408 7.078 6.083 12.805 13.327 16.762 21.37 3.958 8.043 6.147 16.886 6.147 26.169 0 9.282-2.189 18.125-6.147 26.168-3.957 8.044-9.684 15.287-16.761 21.37-14.477 12.264-27.406 28.594-27.406 51.221" fill="url(#f)" stroke="#000" stroke-width="15" transform="matrix(1 0 0 -1 292.095 1217.573)"/><path d="M97.303 243.491c87.654 23.724 172.843 24.2 258.774-.004l.642-26.645H96.168z" fill="#1a1a1a"/><path d="M225 250l-15-25 15-25 15 25zm-53-5l-12-20 12-20 12 20zm-45-5l-9-15 9-15 9 15zm151 5l12-20-12-20-12 20zm45-5l9-15-9-15-9 15z" fill="#fff"/><path d="M216.038 351.31a7.8 7.8 0 00.704 3.241 8.337 8.337 0 001.92 2.648 9.042 9.042 0 002.85 1.785 9.522 9.522 0 003.488.654 9.522 9.522 0 003.488-.654 9.042 9.042 0 002.849-1.785 8.337 8.337 0 001.92-2.648 7.8 7.8 0 00.705-3.241c0-5.128-6.955-13.455-8.962-17.31-2.184 3.82-8.962 12.424-8.962 17.31z" fill="#1a1a1a" stroke="#1a1a1a" stroke-width="4.723"/><path d="M225 71.5v-60" fill="none" stroke="#1a1a1a" stroke-width="15"/><path d="M202.5 36.885h45" fill="none" stroke="#1a1a1a" stroke-width="15.891"/><path d="M225 378.5v60" fill="none" stroke="#1a1a1a" stroke-width="15"/><path d="M202.5 413.114h45" fill="none" stroke="#1a1a1a" stroke-width="15.891"/><path d="M116.16 258.365c-6.77 9.944-12.54 19.776-28.778 30.772-4.449 3.703-8.05 8.112-10.538 13.008-2.488 4.897-3.864 10.28-3.864 15.93 0 5.651 1.376 11.034 3.864 15.93 2.489 4.897 6.09 9.306 10.538 13.009 4.45 3.703 9.748 6.7 15.63 8.77 5.883 2.072 12.351 3.217 19.14 3.217 6.79 0 13.258-1.145 19.14-3.216 5.884-2.071 11.182-5.068 15.63-8.771 4.45-3.703 11.172-12.3 14.007-17.055 6.804-9.709 17.747-30.287 17.747-30.287l17.026-33.062m128.144-76.476c6.77-9.944 12.541-19.776 28.778-30.772 4.45-3.703 8.05-8.112 10.538-13.008 2.489-4.897 3.865-10.28 3.865-15.93s-1.376-11.034-3.865-15.93c-2.488-4.896-6.088-9.306-10.538-13.009-4.449-3.703-9.747-6.7-15.63-8.77-5.883-2.071-12.35-3.217-19.14-3.217-6.79 0-13.257 1.146-19.14 3.217-5.883 2.07-11.18 5.067-15.63 8.77-4.45 3.703-11.171 12.3-14.006 17.055-6.804 9.709-17.747 30.287-17.747 30.287l-17.026 33.062" fill="#1a1a1a" stroke="#1a1a1a" stroke-width="8.406"/><path d="M69.382 827.434c96.187-24.252 193.12-24.88 261.82.611" fill="none" stroke="url(#g)" stroke-width="15" transform="translate(25 -627.362)"/><path d="M333.846 258.365c6.77 9.944 12.541 19.776 28.778 30.772 4.45 3.703 8.05 8.112 10.538 13.008 2.489 4.897 3.865 10.28 3.865 15.93 0 5.651-1.376 11.034-3.865 15.93-2.488 4.897-6.088 9.306-10.538 13.009-4.449 3.703-9.747 6.7-15.63 8.77-5.883 2.072-12.35 3.217-19.14 3.217-6.79 0-13.257-1.145-19.14-3.216-5.883-2.071-11.18-5.068-15.63-8.771-4.45-3.703-11.171-12.3-14.006-17.055-6.804-9.709-17.747-30.287-17.747-30.287l-17.026-33.062" fill="#1a1a1a" stroke="#1a1a1a" stroke-width="8.406"/><path d="M69.382 877.29c96.187 24.251 193.12 24.88 261.82-.611" fill="none" stroke="url(#h)" stroke-width="15" transform="translate(25 -627.362)"/><path d="M96.699 227.66c0-22.628-14-37.754-28.477-50.018-7.077-6.083-12.804-13.326-16.762-21.37-3.957-8.043-6.146-16.886-6.146-26.168 0-9.283 2.189-18.126 6.146-26.169 3.958-8.043 9.685-15.287 16.762-21.37S83.726 71.56 93.083 68.158c9.358-3.402 19.645-5.284 30.444-5.284 10.8 0 21.087 1.882 30.445 5.284 9.357 3.402 17.784 8.324 24.86 14.407 7.077 6.083 12.804 13.327 16.762 21.37 3.958 8.043 17.67 26.59 29.727 51.705 13.337-25.458 25.128-43.744 29.086-51.788 3.957-8.043 9.684-15.286 16.761-21.37 7.077-6.082 15.504-11.005 24.861-14.407 9.358-3.402 19.646-5.283 30.445-5.283s21.086 1.88 30.444 5.283c9.357 3.402 17.784 8.325 24.86 14.408 7.078 6.083 12.805 13.326 16.763 21.37 3.957 8.043 6.146 16.886 6.146 26.168 0 9.283-2.189 18.126-6.146 26.169-3.958 8.043-9.685 15.286-16.762 21.37-14.477 12.264-27.406 28.593-27.406 51.221" fill="none" stroke="#1a1a1a" stroke-width="15"/><path d="M96.7 222.34c0 22.627-14 37.753-28.478 50.017-7.076 6.083-12.804 13.327-16.761 21.37-3.958 8.043-6.147 16.886-6.147 26.169 0 9.282 2.189 18.125 6.147 26.168 3.958 8.044 9.685 15.287 16.761 21.37 7.077 6.083 15.504 11.006 24.862 14.408 9.357 3.402 19.645 5.283 30.444 5.283s21.087-1.881 30.444-5.283 17.784-8.325 24.86-14.408c7.078-6.083 12.805-13.326 16.763-21.37 3.957-8.043 17.669-26.59 29.726-51.704 13.337 25.458 25.128 43.744 29.086 51.787 3.958 8.043 9.685 15.287 16.762 21.37s15.503 11.006 24.86 14.408c9.358 3.402 19.646 5.283 30.445 5.283s21.087-1.881 30.444-5.283 17.784-8.325 24.861-14.408c7.077-6.083 12.804-13.327 16.762-21.37 3.958-8.043 6.146-16.886 6.146-26.169 0-9.282-2.188-18.125-6.146-26.168-3.958-8.044-9.685-15.287-16.762-21.37-14.477-12.264-27.406-28.594-27.406-51.221" fill="none" stroke="#1a1a1a" stroke-width="15"/></svg>