<svg xmlns="http://www.w3.org/2000/svg" xmlns:xlink="http://www.w3.org/1999/xlink" width="450" height="450"><defs><linearGradient id="a"><stop offset="0" stop-color="#fff"/><stop offset="1" stop-color="gray"/></linearGradient><linearGradient id="b"><stop offset="0" stop-color="#fff"/><stop offset="1" stop-color="gray"/></linearGradient><linearGradient xlink:href="#a" id="c" x1="268.482" y1="959.21" x2="336.924" y2="959.21" gradientUnits="userSpaceOnUse"/><linearGradient xlink:href="#b" id="d" gradientUnits="userSpaceOnUse" x1="502.036" y1="262.947" x2="554.863" y2="262.947"/></defs><path fill="#1a1a1a" d="M48.248 155.875h324.72v64.177H48.248z"/><path d="M176.155 888.117c-9.527 21.082-22.751 35.517-42.947 47.398-40.629 22.668-50.293 47.625-65.244 91.847h241.098c15.218-34.461 20.874-67.723 22.868-107.867" fill="url(#c)" fill-rule="evenodd" stroke="#1a1a1a" stroke-width="10" transform="translate(25 -627.362)"/><path d="M45.982 187.979c.066 22.628 6.807 54.526 20.84 57.468 79.143 5.139 79.722-18.725 139.476 14.257 31.424 23.67 71.47 26.01 105.79 25.785 4.199 2.514 10.45 7.867 16.677 13.131 2.834-7.23 1.859-11.102 2.29-14.329 6.337.836 11.297 5.56 13.817 7.104 3.94-6.577.197-11.874-1.365-19.792 14.202 24.468 25.642 32.486 47.957 44.628 12.256-43.876 13.931-55.979-23.177-101.77" fill="#1a1a1a" fill-rule="evenodd" stroke="#1a1a1a" stroke-width="10"/><path d="M348.793 277.338c15.073-13.157 27.612-47.144 27.617-47.159" fill="none"/><path d="M45.982 189.627c.066-22.628 6.807-54.526 20.84-57.468 79.143-5.139 79.723 18.726 139.476-14.257 31.425-23.67 71.471-26.01 105.79-23.785 4.199-.514 10.45-5.867 16.678-11.13 2.833 7.229 1.858 11.101 2.29 14.328 6.336-.835 11.296-5.56 13.817-7.104 3.94 6.578.196 11.875-1.365 17.793 14.201-26.468 25.64-34.487 47.957-46.629 12.255 43.877 15.323 54.354-21.785 100.145" fill="#1a1a1a" fill-rule="evenodd" stroke="#1a1a1a" stroke-width="10"/><path d="M348.793 100.269c15.073 13.157 27.612 47.144 27.617 47.158" fill="none"/><path d="M126.23 360.587c7.936-11.801 13.696-21.704 27.143-29.888 2.727-1.66 13.821-7.548 16.158-9.253 16.737-12.218 27.527-20.657 36.964-36.392a75.953 75.953 0 002.144-3.83c11.854 7.582 21.526 10.892 33.756 14.421 15.762 4.455 46.327 5.627 46.327 5.627l17.958-.167 12.103 8.906c2.27 1.67 6.65 5.356 9.84 8.055 3.189 2.698 5.929 4.757 6.089 4.576.68-.771 3.711-9.328 4.22-11.91.305-1.547.414-1.857.688-2.998 1.769 1.06 2.257 1.232 4.85 2.964 2.594 1.733 5.043 3.174 5.442 3.204.435.032 1.46-1.211 2.56-3.108 2.802-4.827 3.094-3.97 2.34 6.875-1.545 22.233-7.255 35.402-11.639 52.811-2.043 8.116-7.55 20.549-10.407 27.521-38.454.9-72.707 1.999-112.171 1.153l-109.485-1.102c-.404 4.68 10.348-29.904 15.12-37.465z" fill="#1a1a1a" stroke="#1a1a1a" stroke-width="2.321"/><g transform="translate(-23.77 -1004.014)" fill="#fff"><path d="M93.53 1206.467c8.695 13.63 0 21.62 0 21.62" fill-rule="evenodd" stroke="#fff" stroke-width="10" stroke-linecap="round"/><path d="M256.011 1235.988c16.536-5.284 28.96 2.966 33.215 15.664-17.846.68-20.115-10.907-20.115-10.907" fill-rule="evenodd" stroke="#fff" stroke-width="15" stroke-linecap="round" stroke-linejoin="round"/><path d="M93.53 1179.167c8.695-13.63 0-21.62 0-21.62" fill-rule="evenodd" stroke="#fff" stroke-width="10" stroke-linecap="round"/><path d="M256.011 1149.646c16.536 5.283 28.96-2.966 33.215-15.665-17.846-.68-20.115 10.908-20.115 10.908" fill-rule="evenodd" stroke="#fff" stroke-width="15" stroke-linecap="round" stroke-linejoin="round"/><path d="M389.935 1132.164c8.883-7.778 10.055-17.417 9.36-25.825" fill-rule="evenodd" stroke="#fff" stroke-width="10" stroke-linecap="round" stroke-linejoin="round"/><circle r="5.786" cy="1244.157" cx="277.801"/><circle cx="277.865" cy="1143.587" r="5.786"/><path d="M389.934 1254.793c8.884 7.778 10.056 17.417 9.36 25.825" fill-rule="evenodd" stroke="#fff" stroke-width="10" stroke-linecap="round" stroke-linejoin="round"/></g><path d="M535.364 228.749c-1.381 7.38-4.696 16.783-10.484 21.519 4.38 4.38 6.561 4.816 19.983 12.565-12.828 7.406-15.895 8.477-19.984 12.565 5.79 4.736 9.104 14.138 10.485 21.519l-24.967-5.51c-5.287 9.159-14.018 16.154-26.967 19.624 1.381-7.38 2.526-20.663 6.484-27.519-5.568 0-14.322-.41-21.983-2.463 6.54-8.408 11.169-14.232 17.872-18.102-7.49-4.325-11.333-9.694-17.872-18.101 9.435-2.529 16.416-2.464 21.983-2.464-4.18-7.24-5.103-20.138-6.484-27.519 13.146 3.523 19.462 10.782 26.967 17.509z" fill="url(#d)" fill-rule="evenodd" stroke="#1a1a1a" stroke-width="10" stroke-linecap="square" transform="translate(-139.886 -71.868)"/></svg>