<svg xmlns="http://www.w3.org/2000/svg" xmlns:xlink="http://www.w3.org/1999/xlink" width="450" height="450"><defs><linearGradient id="b"><stop offset="0" stop-color="#fff"/><stop offset="1" stop-color="gray"/></linearGradient><linearGradient id="a"><stop offset="0" stop-color="#fff"/><stop offset="1" stop-color="gray"/></linearGradient><linearGradient xlink:href="#a" id="d" x1="225" y1="796.122" x2="269.031" y2="796.122" gradientUnits="userSpaceOnUse"/><linearGradient xlink:href="#b" id="c" x1="225" y1="904.389" x2="269.031" y2="904.389" gradientUnits="userSpaceOnUse"/></defs><path d="M183 264.97c13.254-22.956 16.482-52.418 0-80.967m0 0h82.822m0 0c-18.235 31.584-14.566 55.738 0 80.968" stroke="#1a1a1a" stroke-width="10" stroke-linecap="round" fill="none"/><path d="M181.96 288.306c-8.33 10.098-12.772 22.852-12.797 35.65 0 15.476 6.273 29.487 16.415 39.629S209.731 380 225.208 380c15.476 0 29.487-6.273 39.629-16.415s16.415-24.153 16.415-39.63c-.006-13.093-4.66-25.751-12.798-35.649M181.96 161.514c-8.33-10.098-12.772-22.852-12.797-35.65 0-15.476 6.273-29.487 16.415-39.629s24.153-16.415 39.63-16.415c15.476 0 29.487 6.273 39.629 16.415s16.415 24.153 16.415 39.63c-.006 13.093-4.66 25.752-12.798 35.649" fill="#1a1a1a" stroke="#1a1a1a" stroke-width="10" stroke-linecap="round"/><path d="M138.5 918.318h123.031V890.46H138.5z" fill="url(#c)" stroke="#1a1a1a" stroke-width="15" stroke-linecap="round" stroke-linejoin="round" transform="translate(25 -627.362)"/><path d="M138.5 782.193h123.031v27.858H138.5z" fill="url(#d)" stroke="#1a1a1a" stroke-width="15" stroke-linecap="round" stroke-linejoin="round" transform="translate(25 -627.362)"/><path d="M187.45 261.585c0-.13.749-2.471 1.664-5.202 6.932-20.692 6.805-42.871-.367-63.752l-2.705-7.881c-.302-.885 1.75-.935 38.212-.935 21.192 0 38.532.096 38.532.214s-1.101 2.944-2.446 6.278c-8.526 21.136-9.34 42.05-2.438 62.544 1.119 3.32 2.314 6.56 2.657 7.201.343.64.624 1.301.624 1.468 0 .166-16.59.302-36.867.302-20.276 0-36.866-.107-36.866-.237z" fill="#1a1a1a"/></svg>