<svg xmlns="http://www.w3.org/2000/svg" xmlns:xlink="http://www.w3.org/1999/xlink" width="450" height="450"><defs><linearGradient id="b"><stop offset="0" stop-color="#fff"/><stop offset="1" stop-color="gray"/></linearGradient><linearGradient id="a"><stop offset="0" stop-color="gray"/><stop offset="1" stop-color="#fff"/></linearGradient><linearGradient xlink:href="#a" id="c" x1="-37.844" y1="683.504" x2="36.999" y2="683.504" gradientUnits="userSpaceOnUse"/><linearGradient xlink:href="#b" id="d" x1="285" y1="871.672" x2="356.412" y2="871.672" gradientUnits="userSpaceOnUse"/></defs><g transform="translate(0 -602.362)"><g fill="#1a1a1a" fill-rule="evenodd"><path d="M81.006 713.805c3.69 6.705 18.015 34.106 21.29 42.237a251.274 251.274 0 018.734 25.615c2.484 8.824-4.006 17.81-2.689 26.594 1.318 8.784 10.443 17.364 10.217 25.375l111.79-.653-.654-166.705c-24.402 31.709-42.494 58.335-56.614 95.185-19.26-19.444-53.836-43.506-76.482-56.178z"/><path d="M368.976 714.157c-3.69 6.706-12.924 36.369-16.199 44.5a251.274 251.274 0 00-8.733 25.615c-2.485 8.824 1.177 14.982-.14 23.766-1.317 8.784-7.614 20.192-7.388 28.203l-111.79-.653.654-166.705c24.402 31.709 42.494 58.335 56.614 95.185 19.26-19.444 49.876-52.363 72.522-65.035z"/><path d="M83.943 938.247c3.69-6.706 14.62-28.45 17.896-36.58a251.274 251.274 0 008.733-25.616c2.485-8.824-2.309-18.942-.991-27.726 1.317-8.783 8.745-16.232 8.52-24.243l111.79.653-.654 166.705c-24.403-31.709-42.495-58.335-56.615-95.185-19.26 19.444-50.344 45.3-72.99 57.972z"/><path d="M371.347 941.422c-3.69-6.706-15.752-32.41-19.028-40.54a251.275 251.275 0 01-8.733-25.615c-2.484-8.824 8.494-20.417 4.386-28.292-3.972-7.613-15.64-15.867-15.414-23.878l-108.29.854.654 166.704c24.402-31.708 42.494-58.335 56.614-95.185 19.26 19.444 49.407 43.604 72.054 56.276z"/></g><path d="M31.643 620.517c35.16 20.465 83.023 67.48 122.437 100.943 26.909-58.136 54.052-105.303 82.042-138.08M21.965 626.539c15.343 37.483 45.39 105.499 54.31 143.84m5.996 29.83c.82 7.581.818 17.395.828 23.774-.01 6.38-.007 16.192-.828 23.774" transform="matrix(.7273 0 0 .66425 58.832 280.67)" stroke-width="21.581" fill="none" stroke="#1a1a1a"/><circle cx="74.272" cy="688.64" r="27.817" fill="#1a1a1a" stroke="#1a1a1a" stroke-width="15"/><path d="M225.118 851.056l-15.101-22.88 15.101-22.882 15.102 22.882zm-58.318-5.892l-11.44-17.161 11.44-17.16 11.44 17.16z" fill="#fff"/><g transform="matrix(.91524 0 0 -.91524 136.312 1493.345)" stroke="#1a1a1a"><path d="M31.643 620.517c35.16 20.465 83.023 67.48 122.437 100.943 26.909-58.136 46.502-97.036 74.491-129.812M21.965 626.539c15.343 37.483 45.39 105.499 54.31 143.84" transform="matrix(.79465 0 0 .72576 -84.655 128.95)" stroke-width="21.581" fill="none"/><circle r="30.393" cy="574.701" cx="-67.785" fill="#1a1a1a" stroke-width="16.389"/></g><g transform="rotate(180 158.237 746.672) scale(.91524)"><path d="M31.643 620.517c35.16 20.465 83.023 67.48 122.437 100.943 26.909-58.136 52.001-97.036 79.991-129.812M21.965 626.539c15.343 37.483 45.39 105.499 54.31 143.84" transform="matrix(.79465 0 0 .72576 -84.655 128.95)" stroke-width="21.581" fill="none" stroke="#1a1a1a"/><circle r="30.393" cy="574.701" cx="-67.785" fill="#1a1a1a" stroke="#1a1a1a" stroke-width="16.389"/><path d="M35.812 745.656l-12.5-18.75 12.5-18.75 12.5 18.75z" fill="#fff"/><circle r="30.393" cy="538.769" cx="99.423" fill="#1a1a1a" stroke="#1a1a1a" stroke-width="16.389"/></g><g transform="matrix(-.95414 0 0 .95414 320.303 130.365)" stroke="#1a1a1a"><path d="M31.643 620.517c35.16 20.465 83.023 67.48 122.437 100.943 26.909-58.136 52.001-97.036 79.991-129.812M21.965 626.539c15.343 37.483 45.39 105.499 54.31 143.84m5.996 29.83c.82 7.581.818 17.395.828 23.776-.01 6.382-.007 16.195-.828 23.777" transform="matrix(.76225 0 0 .69617 -77.19 153.333)" stroke-width="21.581" fill="none"/><circle r="29.154" cy="580.91" cx="-61.008" fill="#1a1a1a" stroke-width="15.721"/><circle r="29.154" cy="548.539" cx="99.383" fill="#1a1a1a" stroke-width="15.721"/><path d="M98.423 653.982c38.11-.233 75.504 8.602 116.184 29.356 22.968 11.406 12.936 32.606-5.597 29.387-39.033-19.34-74.43-27.703-110.587-27.482-36.156-.224-71.554 8.139-110.598 27.48-18.546 3.221-28.578-17.979-5.598-29.387 40.693-20.756 78.086-29.591 116.196-29.354z" fill="url(#c)" fill-rule="evenodd" stroke-width="13.625"/></g><path d="M337.26 871.819c-38.826 19.834-74.505 28.263-110.867 28.039-36.362.224-72.041-8.205-110.856-28.04-21.915-10.914-12.343-31.142 5.34-28.039 37.243 18.484 71.017 26.464 105.516 26.251 34.498.213 68.272-7.767 105.526-26.25 17.696-3.104 27.268 17.124 5.342 28.039z" fill="url(#d)" fill-rule="evenodd" stroke="#1a1a1a" stroke-width="13"/></g></svg>