<svg xmlns="http://www.w3.org/2000/svg" xmlns:xlink="http://www.w3.org/1999/xlink" width="450" height="450"><defs><linearGradient id="d"><stop offset="0" stop-color="#fff"/><stop offset="1" stop-color="gray"/></linearGradient><linearGradient id="c"><stop offset="0" stop-color="#fff"/><stop offset="1" stop-color="gray"/></linearGradient><linearGradient id="b"><stop offset="0" stop-color="#fff"/><stop offset="1" stop-color="gray"/></linearGradient><linearGradient id="a"><stop offset="0" stop-color="#fff"/><stop offset="1" stop-color="gray"/></linearGradient><linearGradient xlink:href="#a" id="f" x1="231.371" y1="784.862" x2="289.813" y2="784.862" gradientUnits="userSpaceOnUse"/><linearGradient xlink:href="#b" id="h" x1="428.775" y1="895.442" x2="487.217" y2="895.442" gradientUnits="userSpaceOnUse"/><linearGradient xlink:href="#c" id="g" x1="400.588" y1="859.511" x2="516.657" y2="859.511" gradientUnits="userSpaceOnUse"/><linearGradient xlink:href="#d" id="e" x1="203.184" y1="748.931" x2="319.253" y2="748.931" gradientUnits="userSpaceOnUse"/></defs><path d="M107 350h237.253l-39.18-36.862H144.83z" fill="#fff"/><path d="M82 730.5h237.253l-39.18 36.862H119.83z" fill="url(#e)" transform="translate(25 -627.362)"/><g stroke="#1a1a1a" stroke-width="10" fill="none"><path d="M200 77.5v-25h50v25" stroke-linecap="round"/><path d="M300 77.5v-25h50v50H100v-50h50v25" stroke-linecap="round"/><path d="M248.438 77.5H300m-150 0h51.563"/></g><path fill="#1a1a1a" stroke="#1a1a1a" stroke-width="10" stroke-linecap="round" d="M150 152.5h150v150H150z"/><path d="M105.653 77.66V58.063h39.194v11.072c0 7.305.4 11.472 1.176 12.248.859.86 8.629 1.176 28.835 1.176 23.84 0 27.873-.213 29.2-1.54 1.212-1.212 1.54-3.82 1.54-12.248V58.063h39.194v11.072c0 7.305.4 11.472 1.176 12.248.859.86 8.629 1.176 28.835 1.176 23.84 0 27.873-.213 29.2-1.54 1.212-1.212 1.54-3.82 1.54-12.248V58.063h39.194v39.194H105.653V77.66z" fill="#1a1a1a" stroke="#1a1a1a" stroke-width="4.899"/><path stroke="#1a1a1a" stroke-width="10" d="M123.475 98.5h204.406v10.058H123.475z"/><path d="M98.67 103.654l49.467 47.507m153.533.084l49.467-47.507" fill="none" stroke="#1a1a1a" stroke-width="10"/><path d="M115.187 770.05h169.626v29.625H115.187z" fill="url(#f)" stroke="#1a1a1a" stroke-width="10" stroke-linejoin="round" transform="translate(25 -627.362)"/><path d="M101.07 96.472l49.467 47.507m148.625.081l49.467-47.507" fill="none" stroke="#1a1a1a" stroke-width="10"/><path stroke="#1a1a1a" stroke-width="7.701" d="M143.817 133.85h167.021v7.3H143.817z"/><path stroke="#1a1a1a" stroke-width="6.891" d="M139.995 164.675h167.83v5.818h-167.83z"/><path fill="#1a1a1a" stroke="#1a1a1a" stroke-width="3.427" d="M139.733 147.715h14.518v16.63h-14.518zm155.306-.49h14.518v16.63h-14.518z"/><g stroke="#1a1a1a"><path d="M279.404 841.08h237.253l-39.18 36.862H317.233z" fill="url(#g)" transform="matrix(1 0 0 -1 -172.404 1190.442)" stroke="none"/><g stroke-width="10" fill="none"><path d="M200 375v25h50v-25" stroke-linecap="round"/><path d="M300 375v25h50v-50H100v50h50v-25" stroke-linecap="round"/><path d="M248.437 375H300m-150 0h51.562"/></g><path d="M105.653 374.84v19.597h39.194v-11.072c0-7.305.4-11.472 1.176-12.248.859-.86 8.629-1.176 28.835-1.176 23.84 0 27.873.213 29.2 1.54 1.212 1.212 1.54 3.82 1.54 12.248v10.708h39.194v-11.072c0-7.305.4-11.472 1.176-12.248.859-.86 8.629-1.176 28.835-1.176 23.84 0 27.873.213 29.2 1.54 1.212 1.212 1.54 3.82 1.54 12.248v10.708h39.194v-39.194H105.653v19.597z" fill="#1a1a1a" stroke-width="4.899"/><path stroke-width="10" d="M123.475 354h204.406v-10.058H123.475z"/><path d="M98.67 348.846l49.467-47.507m153.533-.084l49.467 47.507" fill="none" stroke-width="10"/><path d="M312.59 880.63h169.627v29.625H312.59z" fill="url(#h)" stroke-width="10" stroke-linejoin="round" transform="matrix(1 0 0 -1 -172.404 1190.442)"/><path d="M101.07 356.028l49.467-47.507m148.625-.081l49.467 47.507" fill="none" stroke-width="10"/><path stroke-width="7.701" d="M143.816 318.65h167.021v-7.3h-167.02z"/><path stroke-width="6.891" d="M139.995 287.825h167.83v-5.818h-167.83z"/><path fill="#1a1a1a" stroke-width="3.427" d="M139.732 304.785h14.518v-16.63h-14.518zm155.308.49h14.517v-16.63H295.04z"/></g></svg>