<svg xmlns="http://www.w3.org/2000/svg" xmlns:xlink="http://www.w3.org/1999/xlink" width="450" height="450"><defs><linearGradient id="d"><stop offset="0" stop-color="gray"/><stop offset="1" stop-color="#fff"/></linearGradient><linearGradient id="c"><stop offset="0" stop-color="#fff"/><stop offset="1" stop-color="gray"/></linearGradient><linearGradient id="b"><stop offset="0" stop-color="gray"/><stop offset="1" stop-color="#fff"/></linearGradient><linearGradient id="a"><stop offset="0" stop-color="#fff"/><stop offset="1" stop-color="gray"/></linearGradient><linearGradient xlink:href="#a" id="e" x1="135" y1="747.362" x2="195" y2="687.362" gradientUnits="userSpaceOnUse"/><linearGradient xlink:href="#b" id="g" x1="362.668" y1="94.942" x2="425.757" y2="94.942" gradientUnits="userSpaceOnUse"/><linearGradient xlink:href="#c" id="f" x1="195" y1="807.362" x2="255" y2="747.587" gradientUnits="userSpaceOnUse"/><linearGradient xlink:href="#d" id="h" x1="357.529" y1="163.169" x2="421.626" y2="163.169" gradientUnits="userSpaceOnUse"/></defs><g transform="translate(25 -627.362)"><path fill="#fff" d="M159.868 865.084l60.49-60.491 27.376 27.375-60.49 60.491z"/><path d="M162.514 869.318c-8.845-8.845-21.124-17.887-34.825-17.928-19.414 0-38.828-7.407-53.64-22.219-14.813-14.812-22.22-34.227-21.997-53.7.275-36.972 2.996-57.36-6.502-81.72a81.388 81.388 0 0018.06 5.273c6.012 1.035 12.146 1.458 18.792 1.602 6.647.143 13.804.007 21.863-.076l-.188 32.312 23.492-.804.179-31.38c1.242.033 2.503.071 3.784.116 4.731.164 9.283.64 13.682 1.49 4.398.852 8.643 2.08 12.759 3.75a65.137 65.137 0 0111.988 6.403c3.884 2.62 7.666 5.75 11.369 9.453 14.812 14.812 22.218 34.226 22.218 53.64.77 14.922 10.735 26.43 18.459 34.154" fill="url(#e)" stroke="#1a1a1a" stroke-width="15"/><circle cx="-458.888" cy="515.207" r="15.371" transform="rotate(-45)" fill="#fff" stroke="#1a1a1a" stroke-width="15"/><path d="M112.283 864.617L215.539 761.36c14.516-.172 24.485 9.817 24.455 24.455L136.738 889.072c-14.757-2.507-23.106-9.5-24.455-24.455z" fill="url(#f)" stroke="#1a1a1a" stroke-width="15" stroke-linejoin="round"/><g transform="rotate(135 273.199 472.098) scale(1.34497)" stroke="#1a1a1a" stroke-width="11.153"><path d="M409.746 179.193c0-9.3-1.702-20.51-8.883-27.735-10.207-10.207-16.52-24.307-16.52-39.882s6.313-29.676 16.669-39.797c19.58-19.293 31.73-28.58 39.544-46.382a60.512 60.512 0 006.722 12.267c2.617 3.705 5.62 7.153 9.039 10.722 3.418 3.57 7.253 7.261 11.533 11.455L450.764 76.73l12.773 11.928 16.592-16.404c.636.67 1.278 1.353 1.929 2.05 2.4 2.574 4.544 5.217 6.409 7.977a50.845 50.845 0 014.737 8.679 48.43 48.43 0 012.936 9.67c.665 3.42 1.007 7.052 1.007 10.946 0 15.575-6.313 29.675-16.52 39.882-7.44 8.25-8.251 19.54-8.251 27.66" fill="url(#g)"/><circle r="11.429" cy="19.778" cx="440.154" fill="#fff"/><path d="M385.81 150.312h108.57c7.723 7.542 7.712 18.034 0 25.715H385.81c-6.441-9.077-7.154-17.143 0-25.715z" fill="url(#h)" stroke-linejoin="round"/></g><path d="M156.423 871.85c13.486 1.997 22.724 8.895 24.456 24.455m45.545-94.455c1.998 13.485 8.896 22.722 24.456 24.454" fill="none" stroke="#1a1a1a" stroke-width="15"/></g></svg>