<svg xmlns="http://www.w3.org/2000/svg" xmlns:xlink="http://www.w3.org/1999/xlink" width="450" height="450"><defs><linearGradient id="a"><stop offset="0" stop-color="#fff"/><stop offset="1" stop-color="#b3b3b3"/></linearGradient><linearGradient xlink:href="#a" id="b" x1="215" y1="852.362" x2="415" y2="852.362" gradientUnits="userSpaceOnUse"/></defs><path d="M198.203 341.46a24.366 24.366 0 000 20.62c1.473 3.168 3.605 6.022 6.239 8.419 2.633 2.396 5.77 4.335 9.252 5.676a31.514 31.514 0 0011.33 2.08c4.02 0 7.848-.74 11.33-2.08 3.483-1.34 6.619-3.28 9.253-5.676 2.633-2.397 4.765-5.25 6.238-8.42a24.366 24.366 0 000-20.618" fill="#fff" stroke="#1a1a1a" stroke-width="15"/><path d="M201.702 343.645l23.823-42.542 23.337 43.028zm-.692-238.473l23.824 42.542 23.337-43.029z" fill="#fff" fill-rule="evenodd"/><path d="M198.203 108.538a24.366 24.366 0 010-20.619c1.473-3.169 3.605-6.022 6.238-8.419 2.634-2.396 5.77-4.336 9.253-5.676a31.513 31.513 0 0111.33-2.081c4.019 0 7.848.741 11.33 2.081 3.483 1.34 6.619 3.28 9.252 5.676 2.634 2.397 4.766 5.25 6.239 8.42a24.366 24.366 0 010 20.618" fill="#fff" stroke="#1a1a1a" stroke-width="15"/><path d="M356.778 804.922c7.077-6.083 12.804-13.327 16.762-21.37 3.958-8.043 6.146-16.886 6.146-26.169 0-9.282-2.188-18.125-6.146-26.169-3.958-8.043-9.685-15.286-16.762-21.37-7.077-6.082-15.503-11.005-24.86-14.407-9.358-3.402-19.646-5.283-30.445-5.283s-21.087 1.881-30.444 5.283-17.784 8.325-24.861 14.408c-7.077 6.083-12.804 13.326-16.762 21.37-3.958 8.043-15.748 28.33-29.086 53.787-12.057-25.115-25.768-45.662-29.726-53.705-3.958-8.043-9.685-15.286-16.762-21.37-7.077-6.083-15.504-11.005-24.861-14.407-9.357-3.402-19.645-5.284-30.444-5.284-10.8 0-21.087 1.882-30.444 5.284-9.358 3.402-17.784 8.324-24.861 14.408-7.077 6.083-12.804 13.326-16.762 21.37-3.958 8.042-6.147 16.886-6.147 26.168s2.19 18.126 6.147 26.169c3.958 8.043 9.656 15.32 16.762 21.37 14.448 12.298 28.476 27.39 28.476 47.357 0 19.968-14 35.093-28.476 47.357-7.077 6.083-12.804 13.327-16.762 21.37-3.958 8.043-6.146 16.886-6.146 26.169 0 9.282 2.188 18.125 6.146 26.169 3.958 8.043 9.685 15.286 16.762 21.37 7.077 6.082 15.504 11.005 24.861 14.407 9.357 3.402 19.645 5.283 30.444 5.283 10.8 0 21.087-1.88 30.444-5.283 9.358-3.402 17.784-8.325 24.861-14.408 7.077-6.083 12.804-13.326 16.762-21.37 3.958-8.043 17.67-28.59 29.726-53.704 13.338 25.458 25.129 45.744 29.086 53.787 3.958 8.044 9.685 15.287 16.762 21.37s15.504 11.006 24.861 14.408c9.358 3.402 19.645 5.283 30.444 5.283 10.8 0 21.087-1.881 30.445-5.283 9.357-3.402 17.784-8.325 24.86-14.408 7.078-6.083 12.805-13.326 16.762-21.37 3.958-8.043 6.147-16.886 6.147-26.168 0-9.283-2.189-18.126-6.147-26.17-3.957-8.042-9.684-15.286-16.761-21.369-14.477-12.264-27.406-28.594-27.406-47.44 0-18.846 12.928-35.176 27.405-47.44z" fill="url(#b)" stroke="#1a1a1a" stroke-width="15" transform="translate(25 -627.362)"/><path d="M225 250l-15-25 15-25 15 25zm-53-5l-12-20 12-20 12 20zm-45-5l-9-15 9-15 9 15zm151 5l12-20-12-20-12 20zm45-5l9-15-9-15-9 15z" fill="#1a1a1a"/><path d="M225 71.5v-60" fill="none" stroke="#1a1a1a" stroke-width="15"/><path d="M202.5 36.885h45" fill="none" stroke="#1a1a1a" stroke-width="15.891"/><path d="M225 378.5v60" fill="none" stroke="#1a1a1a" stroke-width="15"/><path d="M202.5 413.114h45" fill="none" stroke="#1a1a1a" stroke-width="15.891"/><path d="M94.382 200.072c96.187-24.252 193.12-24.881 261.82.611m-261.82 49.244c96.187 24.252 193.12 24.882 261.82-.61" fill="none" stroke="#1a1a1a" stroke-width="15"/></svg>