<?xml version="1.0" encoding="UTF-8" standalone="no"?>
<!-- Created with Inkscape (http://www.inkscape.org/) -->

<svg
   xmlns:dc="http://purl.org/dc/elements/1.1/"
   xmlns:cc="http://creativecommons.org/ns#"
   xmlns:rdf="http://www.w3.org/1999/02/22-rdf-syntax-ns#"
   xmlns:svg="http://www.w3.org/2000/svg"
   xmlns="http://www.w3.org/2000/svg"
   xmlns:xlink="http://www.w3.org/1999/xlink"
   xmlns:sodipodi="http://sodipodi.sourceforge.net/DTD/sodipodi-0.dtd"
   xmlns:inkscape="http://www.inkscape.org/namespaces/inkscape"
   width="450"
   height="450"
   viewBox="0 0 449.99998 449.99998"
   id="svg5366"
   version="1.1"
   inkscape:version="0.91 r13725"
   sodipodi:docname="wking_2.svg"
   inkscape:export-filename="C:\Users\Alex\Google Drive\alila_home\alila (1)\alila_shadow_lighterblack\wking.png"
   inkscape:export-xdpi="90"
   inkscape:export-ydpi="90">
  <defs
     id="defs5368">
    <linearGradient
       inkscape:collect="always"
       id="linearGradient4164">
      <stop
         style="stop-color:#ffffff;stop-opacity:1;"
         offset="0"
         id="stop4166" />
      <stop
         style="stop-color:#b3b3b3;stop-opacity:1"
         offset="1"
         id="stop4168" />
    </linearGradient>
    <linearGradient
       inkscape:collect="always"
       xlink:href="#linearGradient4164"
       id="linearGradient4170"
       x1="214.99997"
       y1="852.36194"
       x2="414.99994"
       y2="852.36194"
       gradientUnits="userSpaceOnUse" />
  </defs>
  <sodipodi:namedview
     id="base"
     pagecolor="#ffffff"
     bordercolor="#666666"
     borderopacity="1.0"
     inkscape:pageopacity="0.0"
     inkscape:pageshadow="2"
     inkscape:zoom="0.5141983"
     inkscape:cx="78.847285"
     inkscape:cy="12.490112"
     inkscape:document-units="px"
     inkscape:current-layer="layer8"
     showgrid="true"
     inkscape:window-width="848"
     inkscape:window-height="690"
     inkscape:window-x="235"
     inkscape:window-y="133"
     inkscape:window-maximized="0"
     units="px"
     showguides="true"
     fit-margin-top="25"
     fit-margin-bottom="25"
     fit-margin-right="25"
     fit-margin-left="25">
    <inkscape:grid
       type="xygrid"
       id="grid3360" />
  </sodipodi:namedview>
  <metadata
     id="metadata5371">
    <rdf:RDF>
      <cc:Work
         rdf:about="">
        <dc:format>image/svg+xml</dc:format>
        <dc:type
           rdf:resource="http://purl.org/dc/dcmitype/StillImage" />
        <dc:title></dc:title>
      </cc:Work>
    </rdf:RDF>
  </metadata>
  <g
     inkscape:label="Layer 1"
     inkscape:groupmode="layer"
     id="layer1"
     transform="translate(24.999997,-627.36218)" />
  <g
     inkscape:groupmode="layer"
     id="layer8"
     inkscape:label="Layer 2"
     transform="translate(24.999997,-627.36218)">
    <path
       sodipodi:nodetypes="csssssssssc"
       inkscape:connector-curvature="0"
       id="path10975-5-2-2-1-5"
       d="m 173.20348,968.82287 c -1.47298,3.16872 -2.2875,6.65255 -2.2875,10.30946 0,3.657 0.81452,7.1408 2.2875,10.3095 1.47293,3.1687 3.60431,6.0224 6.23808,8.4189 2.63377,2.39647 5.76993,4.33577 9.25237,5.67607 3.48243,1.3402 7.3112,2.0813 11.33019,2.0813 4.019,0 7.84774,-0.7411 11.33017,-2.0813 3.48246,-1.3403 6.61861,-3.2796 9.25237,-5.67607 2.63377,-2.3965 4.76514,-5.2502 6.23808,-8.4189 1.47297,-3.1687 2.28749,-6.6525 2.28749,-10.3095 0,-3.65691 -0.81451,-7.14074 -2.28749,-10.30946"
       style="opacity:1;fill:#ffffff;fill-opacity:1;stroke:#1a1a1a;stroke-width:14.99999809;stroke-linecap:butt;stroke-miterlimit:4;stroke-dasharray:none;stroke-opacity:1" />
    <path
       style="fill:#ffffff;fill-opacity:1;fill-rule:evenodd;stroke:#1a1a1a;stroke-width:0;stroke-linecap:butt;stroke-linejoin:miter;stroke-miterlimit:4;stroke-dasharray:none;stroke-opacity:1"
       d="m 176.70167,971.00725 23.8235,-42.54194 23.3373,43.02814 z"
       id="path4160"
       inkscape:connector-curvature="0" />
    <path
       style="fill:#ffffff;fill-opacity:1;fill-rule:evenodd;stroke:#1a1a1a;stroke-width:0;stroke-linecap:butt;stroke-linejoin:miter;stroke-miterlimit:4;stroke-dasharray:none;stroke-opacity:1"
       d="m 176.01067,732.53387 23.8235,42.54193 23.3373,-43.02813 z"
       id="path4160-3"
       inkscape:connector-curvature="0" />
    <path
       style="opacity:1;fill:#ffffff;fill-opacity:1;stroke:#1a1a1a;stroke-width:14.99999809;stroke-linecap:butt;stroke-miterlimit:4;stroke-dasharray:none;stroke-opacity:1"
       d="m 173.20329,735.90035 c -1.47298,-3.16872 -2.2875,-6.65255 -2.2875,-10.30947 0,-3.65694 0.81452,-7.14079 2.2875,-10.30951 1.47293,-3.1687 3.60431,-6.02233 6.23808,-8.41884 2.63377,-2.39649 5.76993,-4.33587 9.25237,-5.67612 3.48243,-1.34026 7.3112,-2.08138 11.33019,-2.08138 4.019,0 7.84774,0.74112 11.33017,2.08136 3.48246,1.34027 6.61861,3.27965 9.25237,5.67614 2.63377,2.39651 4.76515,5.25012 6.23809,8.41884 1.47297,3.16872 2.28749,6.65257 2.28749,10.30951 0,3.65692 -0.81451,7.14075 -2.28749,10.30947"
       id="path10975-5-2-2"
       inkscape:connector-curvature="0"
       sodipodi:nodetypes="csssssssssc" />
    <path
       style="opacity:1;fill:url(#linearGradient4170);fill-opacity:1;stroke:#1a1a1a;stroke-width:14.99999809;stroke-linecap:butt;stroke-miterlimit:4;stroke-dasharray:none;stroke-opacity:1"
       d="m 356.77833,804.92171 c 7.07692,-6.08306 12.80398,-13.32645 16.76178,-21.36968 3.95781,-8.04324 6.14639,-16.88631 6.14639,-26.16879 0,-9.28244 -2.18858,-18.12553 -6.14639,-26.16875 -3.95781,-8.04322 -9.68486,-15.28659 -16.76178,-21.36968 -7.07691,-6.08307 -15.5037,-11.00584 -24.86103,-14.40782 -9.35732,-3.40201 -19.64514,-5.28325 -30.44417,-5.28325 -10.79899,0 -21.08684,1.88124 -30.44418,5.28325 -9.35729,3.40198 -17.7841,8.32475 -24.86102,14.40782 -7.07691,6.08309 -12.80396,13.32647 -16.76176,21.36968 -3.95782,8.04322 -15.74849,28.32972 -29.0861,53.78724 -12.05732,-25.11438 -25.76843,-45.66126 -29.72625,-53.70448 -3.95781,-8.04322 -9.68485,-15.2866 -16.76177,-21.36968 -7.07691,-6.08307 -15.50371,-11.00584 -24.86102,-14.40783 -9.35733,-3.402 -19.64518,-5.28324 -30.444152,-5.28324 -10.79905,0 -21.08686,1.88124 -30.44419,5.28324 -9.35731,3.40199 -17.78411,8.32476 -24.86103,14.40783 -7.07692,6.08308 -12.80397,13.32645 -16.76177,21.36968 -3.95781,8.04322 -6.14639,16.88631 -6.14639,26.16876 0,9.28247 2.18858,18.12554 6.14639,26.16878 3.95779,8.04323 9.655616,15.32081 16.76177,21.36969 14.447849,12.29826 28.47667,27.38982 28.476826,47.35746 1.56e-4,19.96765 -13.999554,35.09349 -28.476514,47.35747 -7.07692,6.08306 -12.80398,13.32646 -16.76177,21.36969 -3.95781,8.04323 -6.14639,16.8863 -6.14639,26.16877 0,9.28245 2.18858,18.12554 6.14639,26.16876 3.9578,8.04323 9.68485,15.2866 16.76177,21.36968 7.07692,6.08309 15.50372,11.00579 24.86103,14.40779 9.35733,3.402 19.64514,5.2833 30.44419,5.2833 10.79897,0 21.08683,-1.8813 30.44416,-5.2833 9.35731,-3.402 17.7841,-8.3247 24.86101,-14.40779 7.07692,-6.08308 12.80396,-13.32646 16.76177,-21.36968 3.95782,-8.04322 17.66893,-28.59012 29.72625,-53.70449 13.33761,25.45751 25.12827,45.74403 29.08609,53.78725 3.9578,8.04321 9.68485,15.28659 16.76176,21.36968 7.07692,6.08303 15.50373,11.00583 24.86102,14.40783 9.35734,3.402 19.64519,5.2832 30.44418,5.2832 10.79902,0 21.08684,-1.8812 30.44416,-5.2832 9.35733,-3.402 17.78412,-8.3248 24.86103,-14.40783 7.07692,-6.08309 12.80397,-13.32646 16.76178,-21.36968 3.95781,-8.04322 6.14639,-16.88631 6.14639,-26.16875 0,-9.28248 -2.18858,-18.12555 -6.14639,-26.16878 -3.9578,-8.04323 -9.68486,-15.28662 -16.76178,-21.36968 -14.47695,-12.26398 -27.40592,-28.59394 -27.40607,-47.44024 -1.4e-4,-18.84629 12.92883,-35.17625 27.40578,-47.44023 z"
       id="path10972-6-7-9-7"
       inkscape:connector-curvature="0"
       sodipodi:nodetypes="cssssssssscssssssssssccssssssssscsssssssssccc" />
    <g
       id="g4481"
       transform="matrix(1,0,0,-1,267.09503,1844.9352)"
       style="stroke:#1a1a1a;stroke-opacity:1" />
    <path
       style="opacity:1;fill:#1a1a1a;fill-opacity:1;stroke:#1a1a1a;stroke-width:0;stroke-linecap:butt;stroke-miterlimit:4;stroke-dasharray:none;stroke-opacity:1"
       d="m 199.99996,877.36214 -14.99999,-24.99994 14.99999,-25.00002 14.99998,25.00002 z"
       id="path11638-0-60-0-1"
       inkscape:connector-curvature="0" />
    <path
       style="opacity:1;fill:#1a1a1a;fill-opacity:1;stroke:#1a1a1a;stroke-width:0;stroke-linecap:butt;stroke-miterlimit:4;stroke-dasharray:none;stroke-opacity:1"
       d="m 146.99998,872.36214 -12,-19.99995 12,-20.00002 11.99999,20.00002 z"
       id="path11638-0-60-0-0"
       inkscape:connector-curvature="0" />
    <path
       style="opacity:1;fill:#1a1a1a;fill-opacity:1;stroke:#1a1a1a;stroke-width:0;stroke-linecap:butt;stroke-miterlimit:4;stroke-dasharray:none;stroke-opacity:1"
       d="M 102,867.36215 92.999995,852.36219 102,837.36217 l 8.99998,15.00002 z"
       id="path11638-0-60-0-0-1"
       inkscape:connector-curvature="0" />
    <path
       style="opacity:1;fill:#1a1a1a;fill-opacity:1;stroke:#1a1a1a;stroke-width:0;stroke-linecap:butt;stroke-miterlimit:4;stroke-dasharray:none;stroke-opacity:1"
       d="m 252.99994,872.36214 12,-19.99995 -12,-20.00002 -11.99998,20.00002 z"
       id="path11638-0-60-0-0-8"
       inkscape:connector-curvature="0" />
    <path
       style="opacity:1;fill:#1a1a1a;fill-opacity:1;stroke:#1a1a1a;stroke-width:0;stroke-linecap:butt;stroke-miterlimit:4;stroke-dasharray:none;stroke-opacity:1"
       d="m 297.99992,867.36215 9.00001,-14.99996 -9.00001,-15.00002 -8.99999,15.00002 z"
       id="path11638-0-60-0-0-1-5"
       inkscape:connector-curvature="0" />
    <path
       style="fill:none;fill-rule:evenodd;stroke:#1a1a1a;stroke-width:14.99999809;stroke-linecap:butt;stroke-linejoin:miter;stroke-miterlimit:4;stroke-dasharray:none;stroke-opacity:1"
       d="m 199.99998,698.86217 c 0,-58.88885 0,-59.99998 0,-59.99998"
       id="path10995-95-5-6"
       inkscape:connector-curvature="0" />
    <path
       style="fill:none;fill-rule:evenodd;stroke:#1a1a1a;stroke-width:15.89114571;stroke-linecap:butt;stroke-linejoin:miter;stroke-miterlimit:4;stroke-dasharray:none;stroke-opacity:1"
       d="m 177.49998,664.24723 c 43.84611,0 44.99996,0 44.99996,0"
       id="path11539-2-2-3"
       inkscape:connector-curvature="0" />
    <path
       inkscape:connector-curvature="0"
       id="path10995-95-5-6-4"
       d="m 199.99998,1005.8621 c 0,58.8889 0,60 0,60"
       style="fill:none;fill-rule:evenodd;stroke:#1a1a1a;stroke-width:14.99999809;stroke-linecap:butt;stroke-linejoin:miter;stroke-miterlimit:4;stroke-dasharray:none;stroke-opacity:1" />
    <path
       inkscape:connector-curvature="0"
       id="path11539-2-2-3-4"
       d="m 177.49998,1040.4766 c 43.84611,0 44.99997,0 44.99997,0"
       style="fill:none;fill-rule:evenodd;stroke:#1a1a1a;stroke-width:15.89114571;stroke-linecap:butt;stroke-linejoin:miter;stroke-miterlimit:4;stroke-dasharray:none;stroke-opacity:1" />
    <path
       style="fill:none;fill-rule:evenodd;stroke:#1a1a1a;stroke-width:14.99999809;stroke-linecap:butt;stroke-linejoin:miter;stroke-miterlimit:4;stroke-dasharray:none;stroke-opacity:1"
       d="m 69.381599,827.43448 c 96.187681,-24.252 193.120111,-24.88139 261.821131,0.6108"
       id="path13242-8"
       inkscape:connector-curvature="0"
       sodipodi:nodetypes="cc" />
    <path
       style="fill:none;fill-rule:evenodd;stroke:#1a1a1a;stroke-width:14.99999809;stroke-linecap:butt;stroke-linejoin:miter;stroke-miterlimit:4;stroke-dasharray:none;stroke-opacity:1"
       d="m 69.381599,877.28941 c 96.187681,24.252 193.120101,24.88139 261.821111,-0.6108"
       id="path13242-8-4"
       inkscape:connector-curvature="0"
       sodipodi:nodetypes="cc" />
  </g>
</svg>
