<svg xmlns="http://www.w3.org/2000/svg" xmlns:xlink="http://www.w3.org/1999/xlink" width="450" height="450"><defs><linearGradient id="c"><stop offset="0" stop-color="#fff"/><stop offset="1" stop-color="gray"/></linearGradient><linearGradient id="b"><stop offset="0" stop-color="#fff"/><stop offset="1" stop-color="gray"/></linearGradient><linearGradient id="a"><stop offset="0" stop-color="#fff"/><stop offset="1" stop-color="#b3b3b3"/></linearGradient><linearGradient xlink:href="#a" id="e" x1="267.29" y1="818.328" x2="436.308" y2="817.218" gradientUnits="userSpaceOnUse"/><linearGradient xlink:href="#b" id="d" x1="265.213" y1="955.264" x2="374.638" y2="983.809" gradientUnits="userSpaceOnUse"/><linearGradient xlink:href="#c" id="f" x1="499.371" y1="262.947" x2="554.863" y2="262.947" gradientUnits="userSpaceOnUse"/></defs><g transform="translate(25 -627.362)"><path fill="#fff" d="M23.248 782.682h319.214v71.944H23.248z"/><path d="M176.155 888.117c-9.527 21.082-22.752 35.517-42.947 47.398-40.63 22.668-50.293 47.625-65.244 91.847h241.097c15.218-34.461 20.875-67.723 22.87-107.867" fill="url(#d)" fill-rule="evenodd" stroke="#1a1a1a" stroke-width="15"/><path d="M343.286 843.823c37.11 45.791 35.434 55.894 23.178 99.77-22.316-12.142-33.755-20.16-47.957-44.628 1.562 7.918 5.305 13.215 1.365 19.793-2.52-1.544-7.48-6.27-13.817-7.104-.432 3.226.544 7.099-2.29 14.328-6.228-5.263-12.479-10.616-16.678-13.13-34.318.225-74.365-2.116-105.79-25.786-59.753-32.982-60.333-9.114-139.475-14.252-14.033-2.942-20.774-34.845-20.84-56.649.066-21.804 6.807-53.702 20.84-56.644 79.143-5.138 79.722 18.726 139.476-14.257 31.424-23.67 71.47-26.01 105.79-23.785 4.199-.514 10.45-5.867 16.677-11.13 2.834 7.229 1.858 11.101 2.29 14.328 6.337-.835 11.297-5.56 13.817-7.104 3.94 6.578.197 11.875-1.365 17.793 14.202-26.468 25.641-34.487 47.957-46.628 12.256 43.876 15.324 54.353-21.785 100.144" fill="url(#e)" fill-rule="evenodd" stroke="#1a1a1a" stroke-width="15"/><path d="M44.76 829.816c8.695 13.629 0 21.619 0 21.619" fill="none" stroke="#1a1a1a" stroke-width="10" stroke-linecap="round"/><path d="M207.24 859.336c16.536-5.283 28.96 2.966 33.215 15.665-17.846.68-20.114-10.908-20.114-10.908" fill="none" stroke="#1a1a1a" stroke-width="15" stroke-linecap="round" stroke-linejoin="round"/><path d="M323.792 904.7c15.074-13.157 27.613-47.144 27.618-47.159" fill="none"/><path d="M207.24 772.994c16.536 5.284 28.96-2.965 33.215-15.664-17.846-.68-20.114 10.908-20.114 10.908" fill="none" stroke="#1a1a1a" stroke-width="15" stroke-linecap="round" stroke-linejoin="round"/><path d="M535.364 228.749c-1.381 7.38-4.696 16.783-10.484 21.519 4.38 4.38 6.561 4.816 19.983 12.565-12.828 7.406-15.895 8.477-19.984 12.565 5.79 4.736 9.104 14.138 10.485 21.519l-24.967-5.51c-5.287 9.159-14.018 16.154-26.967 19.624 1.381-7.38 2.526-20.663 6.484-27.519-5.568 0-14.322-.41-21.983-2.463 6.54-8.408 11.169-14.232 17.872-18.102-7.49-4.325-11.333-9.694-17.872-18.101 9.435-2.529 16.416-2.464 21.983-2.464-4.18-7.24-5.103-20.138-6.484-27.519 13.146 3.523 19.462 10.782 26.967 17.509z" fill="url(#f)" fill-rule="evenodd" stroke-width="10" stroke-linecap="square" transform="translate(-164.887 555.495)" stroke="#1a1a1a"/><path d="M323.793 727.63c15.073 13.158 27.612 47.145 27.617 47.16" fill="none"/><path d="M341.164 755.513c8.883-7.778 10.056-17.418 9.36-25.825" fill="none" stroke="#1a1a1a" stroke-width="10" stroke-linecap="round" stroke-linejoin="round"/><circle cx="229.03" cy="867.505" r="5.786" fill="#1a1a1a"/><circle cx="229.095" cy="766.936" r="5.786" fill="#1a1a1a"/><path d="M341.164 878.141c8.883 7.778 10.055 17.417 9.36 25.825" fill="none" stroke="#1a1a1a" stroke-width="10" stroke-linecap="round" stroke-linejoin="round"/><path d="M44.76 780.908s8.024 7.522 0 21.62" fill="none" stroke="#1a1a1a" stroke-width="10" stroke-linecap="round"/></g></svg>