<svg xmlns="http://www.w3.org/2000/svg" xmlns:xlink="http://www.w3.org/1999/xlink" width="450" height="450"><defs><linearGradient id="a"><stop offset="0" stop-color="#fff"/><stop offset="1" stop-color="#b3b3b3"/></linearGradient><linearGradient id="c"><stop offset="0" stop-color="#fff"/><stop offset="1" stop-color="#b3b3b3"/></linearGradient><linearGradient id="b"><stop offset="0" stop-color="#fff" stop-opacity="0"/><stop offset="1" stop-color="gray" stop-opacity="0"/></linearGradient><linearGradient id="d"><stop offset="0" stop-color="#fff"/><stop offset="1" stop-color="#b3b3b3"/></linearGradient><linearGradient id="e"><stop offset="0" stop-color="#fff"/><stop offset="1" stop-color="#b3b3b3"/></linearGradient><linearGradient xlink:href="#a" id="h" x1="61.005" y1="843.325" x2="130.7" y2="843.325" gradientUnits="userSpaceOnUse"/><linearGradient xlink:href="#b" id="f" x1="218.73" y1="852.049" x2="248.429" y2="852.049" gradientUnits="userSpaceOnUse"/><linearGradient xlink:href="#c" id="j" x1="199.337" y1="796.322" x2="269.031" y2="796.322" gradientUnits="userSpaceOnUse"/><linearGradient xlink:href="#d" id="i" x1="205" y1="743.271" x2="275" y2="743.271" gradientUnits="userSpaceOnUse"/><linearGradient xlink:href="#e" id="g" x1="66.669" y1="786.24" x2="136.669" y2="786.24" gradientUnits="userSpaceOnUse"/></defs><path d="M185.343 183.851h75.304c-7.16 26.1-14.25 52.214 0 82.756h-75.304c14.08-38.38 5.962-59.742 0-82.756z" fill="#fff"/><path d="M158 892.533c13.254-22.957 16.482-52.42 0-80.967m0 0h82.822m0 0c-18.235 31.583-14.566 55.738 0 80.967" fill="url(#f)" stroke="#1a1a1a" stroke-width="15" stroke-linecap="round" transform="translate(25 -627.362)"/><g stroke="#1a1a1a" stroke-width="15" stroke-linecap="round"><path d="M18.63 832.046c-8.33-10.098-12.774-22.852-12.798-35.65 0-15.476 6.273-29.487 16.415-39.629s24.153-16.415 39.629-16.415c15.476 0 29.487 6.273 39.63 16.415 10.141 10.142 16.414 24.153 16.414 39.63-.006 13.093-4.66 25.751-12.797 35.649" fill="url(#g)" transform="matrix(1 0 0 -1 163.331 1120.552)"/><path d="M.169 829.396h123.03v27.858H.169z" fill="url(#h)" stroke-linejoin="round" transform="matrix(1 0 0 -1 163.331 1120.552)"/></g><path d="M156.96 789.076c-8.33-10.097-12.772-22.852-12.797-35.65 0-15.475 6.273-29.486 16.415-39.629 10.142-10.142 24.153-16.415 39.63-16.415 15.476 0 29.487 6.273 39.629 16.415 10.142 10.143 16.415 24.154 16.415 39.63-.006 13.094-4.66 25.752-12.798 35.65" fill="url(#i)" stroke="#1a1a1a" stroke-width="15" stroke-linecap="round" transform="translate(25 -627.362)"/><path d="M138.5 782.393h123.031v27.858H138.5z" fill="url(#j)" stroke="#1a1a1a" stroke-width="15" stroke-linecap="round" stroke-linejoin="round" transform="translate(25 -627.362)"/></svg>