<svg xmlns="http://www.w3.org/2000/svg" xmlns:xlink="http://www.w3.org/1999/xlink" width="450" height="450"><defs><linearGradient id="e"><stop offset="0" stop-color="#fff"/><stop offset="1" stop-color="#999"/></linearGradient><linearGradient id="d"><stop offset="0" stop-color="gray"/><stop offset="1" stop-color="#fff"/></linearGradient><linearGradient id="c"><stop offset="0" stop-color="gray"/><stop offset="1" stop-color="#fff"/></linearGradient><linearGradient id="b"><stop offset="0" stop-color="gray"/><stop offset="1" stop-color="#fff"/></linearGradient><linearGradient id="a"><stop offset="0" stop-color="#fff"/><stop offset="1" stop-color="gray"/></linearGradient><linearGradient xlink:href="#a" id="l" x1="280" y1="871.672" x2="395" y2="871.672" gradientUnits="userSpaceOnUse"/><linearGradient xlink:href="#b" id="k" x1="-78.287" y1="683.504" x2="42.239" y2="683.504" gradientUnits="userSpaceOnUse"/><linearGradient xlink:href="#c" id="i" x1="-106.372" y1="574.701" x2="-63.946" y2="574.701" gradientUnits="userSpaceOnUse"/><linearGradient xlink:href="#d" id="j" x1="-98.022" y1="580.91" x2="-57.326" y2="580.91" gradientUnits="userSpaceOnUse"/><linearGradient xlink:href="#e" id="f" x1="312.28" y1="832.434" x2="384.771" y2="832.434" gradientUnits="userSpaceOnUse"/><linearGradient xlink:href="#e" id="h" gradientUnits="userSpaceOnUse" x1="312.28" y1="832.434" x2="416.078" y2="832.434"/><linearGradient xlink:href="#e" id="g" gradientUnits="userSpaceOnUse" x1="312.28" y1="832.434" x2="416.078" y2="832.434"/></defs><g transform="translate(0 -602.362)"><g fill="red" fill-rule="evenodd"><path d="M81.006 713.805c3.69 6.705 18.015 34.106 21.29 42.237a251.274 251.274 0 018.734 25.615c2.484 8.824-4.006 17.81-2.689 26.594 1.318 8.784 10.443 17.364 10.217 25.375l111.79-.653-.654-166.705c-24.402 31.709-42.494 58.335-56.614 95.185-19.26-19.444-53.836-43.506-76.482-56.178z" fill="#fff"/><path d="M83.943 938.247c3.69-6.706 14.62-28.45 17.896-36.58a251.274 251.274 0 008.733-25.616c2.485-8.824-2.309-18.942-.991-27.726 1.317-8.783 8.745-16.232 8.52-24.243l111.79.653-.654 166.705c-24.403-31.709-42.495-58.335-56.615-95.185-19.26 19.444-50.344 45.3-72.99 57.972z" fill="#fff"/><g fill="url(#f)" transform="translate(19.189 67.893) scale(.91524)"><path d="M382.18 706.114c-4.031 7.327-14.12 39.737-17.699 48.621a274.544 274.544 0 00-9.542 27.988c-2.714 9.64 1.287 16.37-.152 25.967-1.44 9.597-8.32 22.062-8.073 30.815l-122.143-.714.715-182.143c26.662 34.645 46.43 63.737 61.857 104 21.044-21.245 54.495-57.213 79.239-71.058z" fill="url(#g)"/><path d="M384.771 954.426c-4.032-7.326-17.211-35.41-20.79-44.294a274.545 274.545 0 01-9.542-27.988c-2.714-9.64 9.281-22.307 4.792-30.911-4.34-8.318-17.087-17.337-16.84-26.09l-118.32.933.715 182.143c26.662-34.645 46.43-63.737 61.857-104 21.044 21.245 53.983 47.642 78.727 61.487z" fill="url(#h)"/></g></g><path d="M21.965 626.539c15.343 37.483 45.39 105.499 54.31 143.84m5.996 29.83c.82 7.581.818 17.395.828 23.774-.01 6.38-.007 16.192-.828 23.774m-50.628-227.24c35.16 20.465 83.023 67.48 122.437 100.943 26.909-58.136 54.052-105.303 82.042-138.08" transform="matrix(.7273 0 0 .66425 58.832 280.67)" stroke-width="21.581" stroke="#1a1a1a" fill="none"/><circle cx="74.272" cy="688.64" r="27.817" fill="#fff" stroke="#1a1a1a" stroke-width="15"/><path d="M225.118 851.056l-15.101-22.88 15.101-22.882 15.102 22.882zm-58.318-5.892l-11.44-17.161 11.44-17.16 11.44 17.16z" fill="#1a1a1a"/><g transform="matrix(.91524 0 0 -.91524 136.312 1493.345)" stroke="#1a1a1a"><path d="M31.643 620.517c35.16 20.465 83.023 67.48 122.437 100.943 26.909-58.136 46.502-97.036 74.491-129.812M21.965 626.539c15.343 37.483 45.39 105.499 54.31 143.84" transform="matrix(.79465 0 0 .72576 -84.655 128.95)" stroke-width="21.581" fill="none"/><circle r="30.393" cy="574.701" cx="-67.785" fill="#fff" stroke-width="16.389"/></g><g transform="rotate(180 158.237 746.672) scale(.91524)" stroke="#1a1a1a"><path d="M31.643 620.517c35.16 20.465 83.023 67.48 122.437 100.943 26.909-58.136 52.001-97.036 79.991-129.812M21.965 626.539c15.343 37.483 45.39 105.499 54.31 143.84" transform="matrix(.79465 0 0 .72576 -84.655 128.95)" stroke-width="21.581" fill="none"/><circle r="30.393" cy="574.701" cx="-67.785" fill="url(#i)" stroke-width="16.389"/><path d="M35.812 745.656l-12.5-18.75 12.5-18.75 12.5 18.75z" fill="#1a1a1a" stroke="none"/><circle r="30.393" cy="538.769" cx="99.423" fill="#fff" stroke-width="16.389"/></g><g transform="matrix(-.95414 0 0 .95414 320.303 130.365)" stroke="#1a1a1a"><path d="M31.643 620.517c35.16 20.465 83.023 67.48 122.437 100.943 26.909-58.136 52.001-97.036 79.991-129.812M21.965 626.539c15.343 37.483 45.39 105.499 54.31 143.84m5.996 29.83c.82 7.581.818 17.395.828 23.776-.01 6.382-.007 16.195-.828 23.777" transform="matrix(.76225 0 0 .69617 -77.19 153.333)" stroke-width="21.581" fill="none"/><circle r="29.154" cy="580.91" cx="-61.008" fill="url(#j)" stroke-width="15.721"/><circle r="29.154" cy="548.539" cx="99.383" fill="#fff" stroke-width="15.721"/><path d="M98.423 653.982c38.11-.233 75.504 8.602 116.184 29.356 22.968 11.406 12.936 32.606-5.597 29.387-39.033-19.34-74.43-27.703-110.587-27.482-36.156-.224-71.554 8.139-110.598 27.48-18.546 3.221-28.578-17.979-5.598-29.387 40.693-20.756 78.086-29.591 116.196-29.354z" fill="url(#k)" fill-rule="evenodd" stroke-width="13.625"/></g><path d="M337.26 871.819c-38.826 19.834-74.505 28.263-110.867 28.039-36.362.224-72.041-8.205-110.856-28.04-21.915-10.914-12.343-31.142 5.34-28.039 37.243 18.484 71.017 26.464 105.516 26.251 34.498.213 68.272-7.767 105.526-26.25 17.696-3.104 27.268 17.124 5.342 28.039z" fill="url(#l)" fill-rule="evenodd" stroke="#1a1a1a" stroke-width="13"/></g></svg>