<svg xmlns="http://www.w3.org/2000/svg" xmlns:xlink="http://www.w3.org/1999/xlink" width="450" height="450"><defs><linearGradient id="c"><stop offset="0" stop-color="#fff"/><stop offset="1" stop-color="gray"/></linearGradient><linearGradient id="a"><stop offset="0" stop-color="#fff"/><stop offset="1" stop-color="gray"/></linearGradient><linearGradient id="d"><stop offset="0" stop-color="#fff"/><stop offset="1" stop-color="gray"/></linearGradient><linearGradient id="b"><stop offset="0" stop-color="#fff"/><stop offset="1" stop-color="gray"/></linearGradient><linearGradient id="e"><stop offset="0" stop-color="#fff"/><stop offset="1" stop-color="gray"/></linearGradient><linearGradient xlink:href="#a" id="j" x1="512.951" y1="857.872" x2="607.508" y2="857.872" gradientUnits="userSpaceOnUse"/><linearGradient xlink:href="#b" id="h" x1="235.585" y1="784.862" x2="326.539" y2="784.862" gradientUnits="userSpaceOnUse"/><linearGradient xlink:href="#c" id="i" x1="538.765" y1="797.391" x2="651.911" y2="797.391" gradientUnits="userSpaceOnUse"/><linearGradient xlink:href="#d" id="g" x1="213.373" y1="854.862" x2="343.386" y2="854.862" gradientUnits="userSpaceOnUse"/><linearGradient xlink:href="#e" id="f" x1="261.08" y1="724.381" x2="374.945" y2="724.381" gradientUnits="userSpaceOnUse"/></defs><g stroke="#1a1a1a"><path d="M116.557 770.255l-41.263-38.061.495-52.332h48.403l.808 23.169 50-.318V678.51l50.955.318-.637 24.202 49.364.318v-22.927l50.955-.319-.507 51.033-38.85 38.913z" fill="url(#f)" fill-rule="evenodd" transform="translate(25 -627.362)"/><g fill="none" stroke-width="15"><path d="M200 77.5v-25h50v25" stroke-linecap="round"/><path d="M300 77.5v-25h50v55H100v-55h50v25" stroke-linecap="round"/><path d="M248.438 77.5H300m-150 0h51.563"/></g><path style="isolation:auto;mix-blend-mode:normal;solid-color:#000;solid-opacity:1;filter-blend-mode:normal;filter-gaussianBlur-deviation:0" fill="url(#g)" stroke-width="15" stroke-linecap="round" color="#000" overflow="visible" d="M125 779.862h150v150H125z" transform="translate(25 -627.362)"/><path d="M97.17 108.738l50.967 42.423m153.533.084l51.267-42.507" fill="none" stroke-width="15"/><path d="M115.187 770.05h169.626v29.625H115.187z" fill="url(#h)" stroke-width="15" stroke-linejoin="round" transform="translate(25 -627.362)"/><path d="M393.923 843.265l-41.263-38.061.495-52.332h48.404l.807 23.169 50-.319v-24.201l50.955.318-.636 24.202 49.681.318v-22.928l50.637-.318-.507 51.033-38.85 38.913z" fill="url(#i)" fill-rule="evenodd" transform="matrix(1 0 0 -1 -252.366 1152.872)"/><g fill="none" stroke-width="15"><path d="M200 375v25h50v-25" stroke-linecap="round"/><path d="M300 375v25h50v-55H100v55h50v-25" stroke-linecap="round"/><path d="M248.438 375H300m-150 0h51.563"/></g><path d="M97.17 343.846l50.967-42.507m153.533-.084l51.267 42.507" fill="none" stroke-width="15"/><path d="M392.553 843.059H562.18v29.626H392.553z" fill="url(#j)" stroke-width="15" stroke-linejoin="round" transform="matrix(1 0 0 -1 -252.366 1152.872)"/></g></svg>