<?xml version="1.0" encoding="UTF-8" standalone="no"?>
<svg
   xmlns:dc="http://purl.org/dc/elements/1.1/"
   xmlns:cc="http://creativecommons.org/ns#"
   xmlns:rdf="http://www.w3.org/1999/02/22-rdf-syntax-ns#"
   xmlns:svg="http://www.w3.org/2000/svg"
   xmlns="http://www.w3.org/2000/svg"
   xmlns:sodipodi="http://sodipodi.sourceforge.net/DTD/sodipodi-0.dtd"
   xmlns:inkscape="http://www.inkscape.org/namespaces/inkscape"
   width="68"
   height="68"
   id="svg4591"
   version="1.1"
   inkscape:version="0.91 r13725"
   sodipodi:docname="bB.svg">
  <metadata
     id="metadata4623">
    <rdf:RDF>
      <cc:Work
         rdf:about="">
        <dc:format>image/svg+xml</dc:format>
        <dc:type
           rdf:resource="http://purl.org/dc/dcmitype/StillImage" />
        <dc:title></dc:title>
      </cc:Work>
    </rdf:RDF>
  </metadata>
  <defs
     id="defs4621" />
  <sodipodi:namedview
     pagecolor="#ffffff"
     bordercolor="#666666"
     borderopacity="1"
     objecttolerance="10"
     gridtolerance="10"
     guidetolerance="10"
     inkscape:pageopacity="0"
     inkscape:pageshadow="2"
     inkscape:window-width="1920"
     inkscape:window-height="1039"
     id="namedview4619"
     showgrid="false"
     inkscape:zoom="3.4705882"
     inkscape:cx="34"
     inkscape:cy="34"
     inkscape:window-x="0"
     inkscape:window-y="20"
     inkscape:window-maximized="0"
     inkscape:current-layer="svg4591" />
  <g
     id="g4593"
     transform="matrix(1,0,0,-1,0,68)">
    <g
       id="g4595">
      <g
         style="font-size:64px;line-height:125%;font-family:Chess-7;-inkscape-font-specification:Chess-7;letter-spacing:0;word-spacing:0"
         font-size="64"
         letter-spacing="0"
         word-spacing="0"
         id="g4597">
        <path
           d="m 27.984,55.472 q -2.752,-0.064 -4.544,-0.064 -1.792,-0.064 -1.92,-0.256 -0.832,-0.768 -0.896,-1.856 -0.064,-1.088 0.768,-1.792 0.064,-0.128 1.088,-1.536 1.024,-1.472 2.432,-3.584 -2.432,-3.072 -4.608,-6.016 -2.176,-3.008 -2.624,-3.52 -1.408,-1.216 -1.408,-3.008 0,-1.856 1.408,-3.264 0.384,-0.384 2.304,-2.944 1.984,-2.56 4.224,-5.568 2.304,-3.008 4.224,-5.568 1.984,-2.624 2.24,-2.88 0.256,-0.256 0.384,-0.448 -0.704,-0.768 -1.472,-1.472 -0.704,-0.704 -0.832,-0.96 -2.048,-1.792 0,-3.584 0.192,-0.32 1.728,-1.792 1.6,-1.472 1.856,-1.856 1.728,-1.664 3.328,0 L 37.52,5.36 q 1.472,1.472 1.856,1.792 1.792,1.792 0,3.584 -0.256,0.256 -1.024,0.96 -0.768,0.704 -1.408,1.472 0.064,0 0.32,0.192 0.448,0.512 2.368,3.136 1.92,2.56 4.096,5.568 2.24,3.008 4.096,5.568 1.92,2.56 2.304,2.944 1.344,1.408 1.344,3.264 0,1.792 -1.344,3.008 -0.448,0.512 -2.56,3.392 -2.048,2.816 -4.352,5.888 1.6,2.112 2.688,3.712 1.152,1.536 1.344,1.664 1.728,1.792 -0.192,3.648 -0.128,0.192 -2.112,0.256 -1.92,0 -4.8,0.064 -0.192,1.408 -0.128,1.408 0.32,0.32 2.176,0.32 1.856,-0.064 4.096,-0.128 2.24,-0.064 4.288,-0.064 2.112,-0.064 2.944,0.192 2.112,0.704 2.944,3.264 0.832,2.496 1.408,4.864 l -17.088,0 q -1.344,0 -2.56,-0.064 -1.152,-0.128 -2.368,-0.704 -1.152,-0.576 -1.472,-0.832 -0.32,-0.32 -0.384,-0.704 0,0.384 -0.256,0.704 -0.256,0.256 -1.408,0.832 -1.344,0.576 -2.56,0.704 -1.216,0.064 -2.368,0.064 l -17.28,0 q 0.704,-2.368 1.664,-4.864 1.024,-2.56 3.136,-3.264 0.768,-0.256 2.752,-0.192 2.048,0 4.16,0.064 2.176,0.064 3.904,0.128 1.792,0 2.112,-0.32 0.32,-0.192 0.192,-0.384 -0.064,-0.256 -0.064,-1.024 z m 7.552,-20.416 3.52,0 0,-2.944 -3.52,0 0,-4.288 -2.944,0 0,4.288 -3.52,0 0,2.944 3.52,0 0,11.072 2.944,0 0,-11.072 z M 34,5.616 Q 33.744,6 32.4,7.344 31.12,8.688 30.928,8.88 q 0.192,0.384 1.472,1.728 1.344,1.28 1.6,1.472 0.192,-0.192 1.536,-1.472 L 37.264,8.88 Q 36.88,8.688 35.536,7.344 34.192,6 34,5.616 Z m -2.944,49.728 5.888,0 0.576,-2.496 -7.04,0 0.576,2.496 z"
           id="path4599"
           inkscape:connector-curvature="0" />
      </g>
      <path
         d="M 30.887,54.443 C 30.481,52.685 30.217,52.82 34.06,52.82 l 3.386,0 -0.116,0.58 c -0.064,0.32 -0.2,0.894 -0.302,1.274 l -0.186,0.692 -5.742,0 -0.213,-0.923 z"
         id="path4601"
         inkscape:connector-curvature="0"
         style="fill:#ffffff;fill-rule:evenodd" />
      <path
         d="m 32.674,40.548 0,-5.546 -3.454,0 0,-2.909 3.453,0 0,-4.183 2.727,0 0,4.182 3.637,0 0,2.898 -1.772,0.05 -1.773,0.053 -0.048,5.5 -0.048,5.5 -2.722,0 0,-5.545 z"
         id="path4603"
         inkscape:connector-curvature="0"
         style="fill:#ffffff;fill-rule:evenodd" />
      <path
         d="M 32.417,10.46 31,9.006 31.91,7.959 c 0.503,-0.576 1.186,-1.295 1.52,-1.598 l 0.607,-0.55 1.572,1.6 1.57,1.6 -1.54,1.405 c -0.847,0.773 -1.6,1.427 -1.673,1.454 -0.073,0.026 -0.77,-0.607 -1.55,-1.41 z"
         id="path4605"
         inkscape:connector-curvature="0"
         style="fill:#ffffff;fill-rule:evenodd" />
      <g
         id="g4607">
        <g
           style="font-size:64px;line-height:125%;font-family:Chess-7;-inkscape-font-specification:Chess-7;letter-spacing:0;word-spacing:0"
           font-size="64"
           letter-spacing="0"
           word-spacing="0"
           id="g4609">
          <path
             d="m 27.984,55.472 q -2.752,-0.064 -4.544,-0.064 -1.792,-0.064 -1.92,-0.256 -0.832,-0.768 -0.896,-1.856 -0.064,-1.088 0.768,-1.792 0.064,-0.128 1.088,-1.536 1.024,-1.472 2.432,-3.584 -2.432,-3.072 -4.608,-6.016 -2.176,-3.008 -2.624,-3.52 -1.408,-1.216 -1.408,-3.008 0,-1.856 1.408,-3.264 0.384,-0.384 2.304,-2.944 1.984,-2.56 4.224,-5.568 2.304,-3.008 4.224,-5.568 1.984,-2.624 2.24,-2.88 0.256,-0.256 0.384,-0.448 -0.704,-0.768 -1.472,-1.472 -0.704,-0.704 -0.832,-0.96 -2.048,-1.792 0,-3.584 0.192,-0.32 1.728,-1.792 1.6,-1.472 1.856,-1.856 1.728,-1.664 3.328,0 L 37.52,5.36 q 1.472,1.472 1.856,1.792 1.792,1.792 0,3.584 -0.256,0.256 -1.024,0.96 -0.768,0.704 -1.408,1.472 0.064,0 0.32,0.192 0.448,0.512 2.368,3.136 1.92,2.56 4.096,5.568 2.24,3.008 4.096,5.568 1.92,2.56 2.304,2.944 1.344,1.408 1.344,3.264 0,1.792 -1.344,3.008 -0.448,0.512 -2.56,3.392 -2.048,2.816 -4.352,5.888 1.6,2.112 2.688,3.712 1.152,1.536 1.344,1.664 1.728,1.792 -0.192,3.648 -0.128,0.192 -2.112,0.256 -1.92,0 -4.8,0.064 -0.192,1.408 -0.128,1.408 0.32,0.32 2.176,0.32 1.856,-0.064 4.096,-0.128 2.24,-0.064 4.288,-0.064 2.112,-0.064 2.944,0.192 2.112,0.704 2.944,3.264 0.832,2.496 1.408,4.864 l -17.088,0 q -1.344,0 -2.56,-0.064 -1.152,-0.128 -2.368,-0.704 -1.152,-0.576 -1.472,-0.832 -0.32,-0.32 -0.384,-0.704 0,0.384 -0.256,0.704 -0.256,0.256 -1.408,0.832 -1.344,0.576 -2.56,0.704 -1.216,0.064 -2.368,0.064 l -17.28,0 q 0.704,-2.368 1.664,-4.864 1.024,-2.56 3.136,-3.264 0.768,-0.256 2.752,-0.192 2.048,0 4.16,0.064 2.176,0.064 3.904,0.128 1.792,0 2.112,-0.32 0.32,-0.192 0.192,-0.384 -0.064,-0.256 -0.064,-1.024 z m 7.552,-20.416 3.52,0 0,-2.944 -3.52,0 0,-4.288 -2.944,0 0,4.288 -3.52,0 0,2.944 3.52,0 0,11.072 2.944,0 0,-11.072 z M 34,5.616 Q 33.744,6 32.4,7.344 31.12,8.688 30.928,8.88 q 0.192,0.384 1.472,1.728 1.344,1.28 1.6,1.472 0.192,-0.192 1.536,-1.472 L 37.264,8.88 Q 36.88,8.688 35.536,7.344 34.192,6 34,5.616 Z m -2.944,49.728 5.888,0 0.576,-2.496 -7.04,0 0.576,2.496 z"
             id="path4611"
             inkscape:connector-curvature="0" />
        </g>
        <path
           d="M 30.887,54.443 C 30.481,52.685 30.217,52.82 34.06,52.82 l 3.386,0 -0.116,0.58 c -0.064,0.32 -0.2,0.894 -0.302,1.274 l -0.186,0.692 -5.742,0 -0.213,-0.923 z"
           id="path4613"
           inkscape:connector-curvature="0"
           style="fill:#ffffff;fill-rule:evenodd" />
        <path
           d="m 32.674,40.548 0,-5.546 -3.454,0 0,-2.909 3.453,0 0,-4.183 2.727,0 0,4.182 3.637,0 0,2.898 -1.772,0.05 -1.773,0.053 -0.048,5.5 -0.048,5.5 -2.722,0 0,-5.545 z"
           id="path4615"
           inkscape:connector-curvature="0"
           style="fill:#ffffff;fill-rule:evenodd" />
        <path
           d="M 32.417,10.46 31,9.006 31.91,7.959 c 0.503,-0.576 1.186,-1.295 1.52,-1.598 l 0.607,-0.55 1.572,1.6 1.57,1.6 -1.54,1.405 c -0.847,0.773 -1.6,1.427 -1.673,1.454 -0.073,0.026 -0.77,-0.607 -1.55,-1.41 z"
           id="path4617"
           inkscape:connector-curvature="0"
           style="fill:#ffffff;fill-rule:evenodd" />
      </g>
    </g>
  </g>
</svg>
