<?xml version="1.0" encoding="UTF-8" standalone="no"?>
<svg
   xmlns:dc="http://purl.org/dc/elements/1.1/"
   xmlns:cc="http://creativecommons.org/ns#"
   xmlns:rdf="http://www.w3.org/1999/02/22-rdf-syntax-ns#"
   xmlns:svg="http://www.w3.org/2000/svg"
   xmlns="http://www.w3.org/2000/svg"
   xmlns:sodipodi="http://sodipodi.sourceforge.net/DTD/sodipodi-0.dtd"
   xmlns:inkscape="http://www.inkscape.org/namespaces/inkscape"
   width="68"
   height="68"
   id="svg4559"
   version="1.1"
   inkscape:version="0.91 r13725"
   sodipodi:docname="bK.svg">
  <metadata
     id="metadata4589">
    <rdf:RDF>
      <cc:Work
         rdf:about="">
        <dc:format>image/svg+xml</dc:format>
        <dc:type
           rdf:resource="http://purl.org/dc/dcmitype/StillImage" />
        <dc:title></dc:title>
      </cc:Work>
    </rdf:RDF>
  </metadata>
  <defs
     id="defs4587" />
  <sodipodi:namedview
     pagecolor="#ffffff"
     bordercolor="#666666"
     borderopacity="1"
     objecttolerance="10"
     gridtolerance="10"
     guidetolerance="10"
     inkscape:pageopacity="0"
     inkscape:pageshadow="2"
     inkscape:window-width="1920"
     inkscape:window-height="1039"
     id="namedview4585"
     showgrid="false"
     inkscape:zoom="3.4705882"
     inkscape:cx="34"
     inkscape:cy="34"
     inkscape:window-x="0"
     inkscape:window-y="20"
     inkscape:window-maximized="0"
     inkscape:current-layer="svg4559" />
  <g
     id="g4561"
     transform="matrix(1,0,0,-1,0,68)">
    <g
       id="g4563">
      <g
         style="font-size:64px;line-height:125%;font-family:Chess-7;-inkscape-font-specification:Chess-7;letter-spacing:0;word-spacing:0"
         font-size="64"
         letter-spacing="0"
         word-spacing="0"
         id="g4565">
        <path
           d="m 23.915,54.384 0.32,2.88 q 1.152,0 2.176,-0.064 1.025,-0.064 2.113,-0.192 l 0,-2.944 q -2.048,0 -4.608,0.32 z m 19.968,0 q -0.96,0 -2.112,-0.128 -1.087,-0.192 -1.983,-0.192 l 0,3.072 q 0.96,0 1.856,0.064 0.896,0.064 1.984,0.064 l 0.256,-2.88 z m -23.68,-4.608 q 0.704,-0.384 1.728,-0.768 1.025,-0.448 2.753,-0.96 2.304,-0.768 4.352,-1.152 2.112,-0.384 3.648,-0.512 l 0,-11.392 q -1.28,-5.952 -2.688,-11.2 -1.408,-5.248 -3.904,-6.016 -2.88,-0.768 -6.72,-0.448 -3.775,0.32 -4.99,0.896 -1.345,0.704 -3.393,2.624 -1.984,1.856 -2.752,4.16 -0.832,2.432 -1.088,4.352 -0.192,1.92 -0.32,3.136 0,2.496 1.088,7.104 0.64,2.304 1.728,3.968 1.152,1.664 3.328,3.392 1.92,1.664 3.713,2.176 1.792,0.448 3.52,0.64 z m 13.888,-21.44 q 0.577,-2.688 1.217,-5.12 0.704,-2.496 1.664,-4.416 0,-0.64 -0.575,-1.792 -0.512,-0.96 -1.152,-1.792 -0.576,-0.832 -1.024,-1.792 -1.6,2.176 -2.305,3.584 -0.576,1.024 -0.704,1.472 -0.063,0.448 -0.063,0.832 1.728,3.52 2.944,9.024 z m 16.257,24.192 q 0.512,5.504 1.28,12.16 l -35.585,0 q 0.384,-3.328 0.704,-6.464 0.32,-3.136 0.704,-5.696 -1.535,-0.32 -3.07,-0.96 -1.537,-0.704 -3.393,-2.112 -2.56,-2.112 -3.904,-4.16 -1.344,-2.048 -2.112,-4.928 -1.215,-4.736 -1.215,-8 0.064,-1.344 0.32,-3.52 0.32,-2.176 1.408,-4.928 0.896,-2.88 3.456,-5.248 2.56,-2.368 4.223,-3.072 1.472,-0.768 5.952,-1.216 4.48,-0.448 7.744,0.448 1.535,0.64 1.983,1.216 0.768,-1.344 1.792,-2.816 1.088,-1.536 2.048,-2.88 l 0,-1.088 -2.943,0 0,-3.072 2.943,0 0,-2.88 2.944,0 0,2.88 2.752,0 0,3.072 -2.753,0 0,1.088 q 0.896,1.344 1.856,2.816 1.024,1.408 1.792,2.752 0.448,-0.32 0.896,-0.576 0.513,-0.256 0.96,-0.512 3.33,-0.896 7.745,-0.448 4.48,0.448 6.144,1.216 1.47,0.704 4.03,3.072 2.56,2.368 3.65,5.248 0.895,2.752 1.215,4.928 0.32,2.176 0.32,3.52 0.128,3.2 -1.216,8 -0.77,2.88 -2.113,4.928 -1.28,2.048 -3.904,4.16 -1.92,1.536 -3.52,2.24 -1.6,0.64 -3.136,0.832 z m -16.128,-0.32 -1.73,1.728 q -1.28,1.344 -1.47,1.536 0.19,0.384 1.47,1.728 1.345,1.28 1.73,1.472 0.063,-0.192 1.343,-1.472 l 1.728,-1.728 Q 36.908,55.28 35.564,53.936 34.284,52.592 34.22,52.208 Z m 1.215,-5.824 q 1.6,0 4.16,0.256 2.56,0.256 3.84,0.832 l 2.048,1.024 q 1.152,0.576 2.304,1.28 1.728,-0.128 3.456,-0.576 1.792,-0.512 3.904,-2.24 3.904,-3.264 4.928,-7.36 1.216,-4.544 1.088,-7.104 0,-1.216 -0.256,-3.136 -0.256,-1.92 -1.152,-4.352 -0.832,-2.304 -2.88,-4.16 -2.048,-1.92 -3.264,-2.624 -1.343,-0.576 -4.99,-0.896 -3.65,-0.32 -6.53,0.448 -2.56,0.768 -3.967,6.016 -1.344,5.248 -2.688,11.2 l 0,11.392 z M 19.115,46.192 16.939,45.296 Q 14.826,44.4 13.929,42.992 12.586,41.712 11.306,38.832 10.218,36.4 10.09,32.496 9.835,30.448 10.603,27.76 q 0.768,-2.688 1.6,-3.84 1.92,-2.688 5.888,-3.392 2.05,-0.192 4.16,-0.064 2.177,0.064 2.88,0.832 0.385,0.448 1.025,2.496 0.64,2.048 1.28,4.48 0.704,2.432 1.216,4.736 0.513,2.24 0.64,3.072 0.32,1.728 0.257,3.712 -0.064,1.92 -0.064,3.52 l -10.368,2.88 z m 30.016,0.32 -10.303,-2.752 q 0,-1.6 -0.128,-3.52 -0.065,-1.984 0.32,-3.904 0.063,-0.832 0.575,-3.072 0.512,-2.24 1.152,-4.608 0.64,-2.432 1.28,-4.416 0.704,-2.048 1.088,-2.496 0.704,-0.768 2.88,-0.896 2.24,-0.192 4.224,0.128 4.095,0.512 5.823,3.392 0.768,1.152 1.536,3.84 0.83,2.688 0.64,4.8 -0.193,3.84 -1.217,6.144 -0.512,1.408 -1.344,2.56 -0.833,1.152 -1.28,1.728 -0.96,1.28 -3.137,2.176 l -2.112,0.896 z m -27.07,11.52 -0.577,-3.072 -2.176,0.64 -0.192,3.392 2.944,-0.96 z m 23.55,-0.128 3.073,0.896 -0.32,-3.2 -2.112,-0.64 -0.64,2.944 z"
           id="path4567"
           inkscape:connector-curvature="0" />
      </g>
      <path
         d="m 19.277,57.286 0,-1.626 1.043,-0.29 c 0.573,-0.16 1.063,-0.27 1.09,-0.245 0.136,0.138 0.544,2.766 0.442,2.862 -0.066,0.062 -0.57,0.258 -1.12,0.435 -0.55,0.177 -1.103,0.36 -1.228,0.406 -0.17,0.063 -0.227,-0.318 -0.227,-1.542 z"
         id="path4569"
         inkscape:connector-curvature="0"
         style="fill:#ffffff;fill-rule:evenodd" />
      <path
         d="m 24.295,57.034 c -0.044,-0.14 -0.13,-0.754 -0.192,-1.367 -0.09,-0.885 -0.057,-1.135 0.155,-1.216 0.147,-0.056 1.172,-0.16 2.28,-0.23 l 2.012,-0.126 0,1.378 c 0,0.76 -0.063,1.418 -0.14,1.466 -0.078,0.048 -1.017,0.145 -2.088,0.217 -1.583,0.106 -1.96,0.083 -2.027,-0.12 z"
         id="path4571"
         inkscape:connector-curvature="0"
         style="fill:#ffffff;fill-rule:evenodd" />
      <path
         d="m 32.482,57.04 -1.443,-1.467 1.524,-1.533 c 0.84,-0.843 1.568,-1.512 1.62,-1.486 0.05,0.025 0.744,0.723 1.54,1.55 l 1.444,1.506 -1.44,1.45 c -0.794,0.797 -1.524,1.45 -1.623,1.45 -0.1,0 -0.83,-0.662 -1.623,-1.47 z"
         id="path4573"
         inkscape:connector-curvature="0"
         style="fill:#ffffff;fill-rule:evenodd" />
      <path
         d="m 40.595,57.103 -0.772,-0.07 0,-2.933 1.318,0.125 c 0.726,0.07 1.635,0.173 2.02,0.232 0.69,0.105 0.7,0.117 0.593,0.762 -0.06,0.36 -0.11,0.963 -0.11,1.338 l -0.002,0.68 -1.136,-0.03 c -0.625,-0.018 -1.484,-0.063 -1.91,-0.102 z"
         id="path4575"
         inkscape:connector-curvature="0"
         style="fill:#ffffff;fill-rule:evenodd" />
      <path
         d="m 46.95,58.282 c -0.953,-0.272 -1.3,-0.447 -1.23,-0.627 0.053,-0.137 0.193,-0.78 0.313,-1.427 0.17,-0.927 0.278,-1.16 0.503,-1.096 1.798,0.51 1.832,0.528 1.832,0.925 0,0.22 0.053,0.902 0.117,1.516 0.065,0.625 0.045,1.11 -0.046,1.102 -0.09,-0.01 -0.76,-0.186 -1.49,-0.393 z"
         id="path4577"
         inkscape:connector-curvature="0"
         style="fill:#ffffff;fill-rule:evenodd" />
      <path
         d="m 46.004,48.754 c -2.917,-1.647 -4.438,-2.06 -8.59,-2.34 l -1.955,-0.13 0,-11.191 0.823,-3.52 c 2.294,-9.8 3.24,-12.283 5.072,-13.328 0.903,-0.514 1.252,-0.598 3.41,-0.823 1.87,-0.195 5.16,0.014 7.325,0.465 1.616,0.337 2.747,1.086 4.917,3.255 1.844,1.844 2.49,2.965 3.253,5.66 1.222,4.308 1.042,8.942 -0.532,13.65 -0.637,1.904 -1.784,3.69 -3.393,5.28 -2.168,2.145 -3.755,3.12 -5.83,3.578 -2.434,0.54 -2.596,0.52 -4.5,-0.556 z m 4.812,-2.88 c 2.104,-0.92 2.965,-1.58 4.23,-3.25 1.898,-2.506 2.787,-4.94 3.147,-8.612 0.237,-2.41 0.052,-4.006 -0.743,-6.44 -0.945,-2.89 -2.07,-4.56 -3.723,-5.53 -1.71,-1.002 -5.724,-1.58 -8.24,-1.187 -1.695,0.264 -2.302,0.582 -2.732,1.43 -0.885,1.748 -3.195,10.226 -3.753,13.78 -0.195,1.242 -0.268,2.74 -0.232,4.79 l 0.053,2.98 4.91,1.325 c 2.7,0.73 5.07,1.33 5.27,1.335 0.2,0.005 1.016,-0.275 1.813,-0.622 z"
         id="path4579"
         inkscape:connector-curvature="0"
         style="fill:#ffffff;fill-rule:evenodd" />
      <path
         d="m 18.186,49.396 c -0.95,-0.2 -2.136,-0.55 -2.636,-0.78 -1.94,-0.893 -5.003,-3.69 -6.164,-5.63 -1.14,-1.905 -2.18,-5.88 -2.406,-9.204 -0.19,-2.775 0.704,-7.742 1.775,-9.877 0.88,-1.75 3.235,-4.17 5.184,-5.325 2.012,-1.192 8.77,-1.637 11.933,-0.785 0.39,0.106 1.074,0.527 1.52,0.938 1.517,1.4 2.336,3.7 4.24,11.92 l 0.917,3.964 0,11.693 -0.682,0.105 c -4.102,0.63 -8.748,1.89 -10.812,2.933 -0.472,0.24 -0.922,0.428 -1,0.42 -0.078,-0.006 -0.92,-0.174 -1.87,-0.372 z m 6.248,-4.604 c 2.686,-0.744 4.928,-1.398 4.984,-1.454 0.212,-0.212 0.258,-4.83 0.062,-6.285 -0.416,-3.097 -2.898,-12.678 -3.865,-14.928 -0.305,-0.71 -0.536,-0.954 -1.22,-1.29 -0.763,-0.375 -1.103,-0.416 -3.48,-0.416 -2.907,0 -3.993,0.193 -5.77,1.026 -2.35,1.104 -3.75,3.127 -4.702,6.792 -0.434,1.673 -0.463,2.017 -0.366,4.362 0.065,1.593 0.242,3.114 0.472,4.064 0.682,2.82 3.132,6.803 4.83,7.852 0.975,0.603 3.74,1.79 3.968,1.705 0.11,-0.04 2.4,-0.684 5.086,-1.428 z"
         id="path4581"
         inkscape:connector-curvature="0"
         style="fill:#ffffff;fill-rule:evenodd" />
      <path
         d="m 33.93,27.418 c -0.343,-1.59 -1.283,-4.614 -1.95,-6.273 -0.53,-1.317 -0.71,-1.994 -0.65,-2.46 0.09,-0.693 1.22,-2.828 2.243,-4.236 l 0.638,-0.88 0.59,0.97 1.15,1.878 c 1.045,1.706 1.075,2.038 0.35,3.857 -0.59,1.478 -1.344,4.037 -1.975,6.69 l -0.26,1.09 -0.136,-0.637 z"
         id="path4583"
         inkscape:connector-curvature="0"
         style="fill:#ffffff;fill-rule:evenodd" />
    </g>
  </g>
</svg>
