<?xml version="1.0" encoding="UTF-8" standalone="no"?>
<svg
   xmlns:dc="http://purl.org/dc/elements/1.1/"
   xmlns:cc="http://creativecommons.org/ns#"
   xmlns:rdf="http://www.w3.org/1999/02/22-rdf-syntax-ns#"
   xmlns:svg="http://www.w3.org/2000/svg"
   xmlns="http://www.w3.org/2000/svg"
   xmlns:sodipodi="http://sodipodi.sourceforge.net/DTD/sodipodi-0.dtd"
   xmlns:inkscape="http://www.inkscape.org/namespaces/inkscape"
   width="68"
   height="68"
   id="svg4527"
   version="1.1"
   inkscape:version="0.91 r13725"
   sodipodi:docname="bN.svg">
  <metadata
     id="metadata4557">
    <rdf:RDF>
      <cc:Work
         rdf:about="">
        <dc:format>image/svg+xml</dc:format>
        <dc:type
           rdf:resource="http://purl.org/dc/dcmitype/StillImage" />
        <dc:title></dc:title>
      </cc:Work>
    </rdf:RDF>
  </metadata>
  <defs
     id="defs4555" />
  <sodipodi:namedview
     pagecolor="#ffffff"
     bordercolor="#666666"
     borderopacity="1"
     objecttolerance="10"
     gridtolerance="10"
     guidetolerance="10"
     inkscape:pageopacity="0"
     inkscape:pageshadow="2"
     inkscape:window-width="1920"
     inkscape:window-height="1039"
     id="namedview4553"
     showgrid="false"
     inkscape:zoom="3.4705882"
     inkscape:cx="34"
     inkscape:cy="34"
     inkscape:window-x="0"
     inkscape:window-y="20"
     inkscape:window-maximized="0"
     inkscape:current-layer="svg4527" />
  <g
     id="g4529"
     transform="matrix(1,0,0,-1,0,68)">
    <g
       id="g4531">
      <path
         d="m 42,50.727 c -0.07,1.972 0.343,3.9 0.727,5.818 0.12,0.546 0.243,1.09 0.364,1.637 0.062,0.06 0.144,0.105 0.183,0.182 0.027,0.054 -0.054,0.154 0,0.18 0.108,0.056 0.242,0 0.363,0 l 7.636,0 c 0.303,0 0.607,0.03 0.91,0 0.366,-0.032 0.724,-0.135 1.09,-0.18 0.12,-0.015 0.244,0.02 0.363,0 0.247,-0.04 0.48,-0.147 0.728,-0.182 0.247,-0.036 1.084,0.047 1.272,0 0.06,-0.015 -0.06,-0.182 0,-0.182 0.06,0 0,0.242 0,0.182 l 0,-2.364 c 0,-0.06 0.034,-0.13 0,-0.182 -0.095,-0.142 -0.268,-0.22 -0.363,-0.363 -0.034,-0.05 0,-0.12 0,-0.182 -0.12,-0.12 -0.27,-0.22 -0.364,-0.363 -0.035,-0.05 0,-0.12 0,-0.182 l 0,-0.18 0,0.362 0,-1.272 c 0,-0.122 0.028,-0.246 0,-0.364 -0.034,-0.13 -0.15,-0.23 -0.183,-0.363 -0.03,-0.117 0.054,-0.255 0,-0.363 -0.027,-0.055 -0.182,0.06 -0.182,0 0,-0.055 0.603,0.12 0,-0.182 -0.054,-0.027 -0.14,0.043 -0.18,0 -0.044,-0.043 -0.062,-0.182 0,-0.182 0.11,0 0.667,0.973 0,-0.364 -0.04,-0.076 -0.244,-0.12 -0.183,-0.18 0.06,-0.062 0.182,0.266 0.182,0.18 0,-0.19 -0.076,-0.386 -0.182,-0.545 -0.034,-0.05 -0.12,0 -0.182,0 l -0.182,0 c 0.12,0 0.472,0.055 0.364,0 -0.224,-0.11 -0.49,-0.102 -0.727,-0.18 -0.13,-0.044 -0.243,-0.122 -0.364,-0.183 -0.545,-0.06 -1.094,-0.09 -1.635,-0.182 -0.19,-0.03 -0.355,-0.16 -0.546,-0.18 -0.362,-0.042 -0.728,0 -1.092,0 l -1.817,0 c -0.182,0 -0.365,0.024 -0.545,0 -1.788,-0.257 0.45,-0.183 -1.637,-0.183 -0.93,0 0.36,0.02 -1.454,-0.182 -0.18,-0.02 -0.364,0 -0.546,0 -0.06,0 -0.127,-0.027 -0.182,0 -0.195,0.098 -0.345,0.275 -0.545,0.364 -0.35,0.155 -0.9,0.03 -1.09,0.363 -0.162,0.284 0.31,0.587 0.364,0.91 0.014,0.084 -0.182,0.095 -0.182,0.18 0,0.062 0.12,0 0.182,0"
         id="path4533"
         inkscape:connector-curvature="0"
         style="fill:#ffffff;stroke:#000000" />
      <g
         id="g4535">
        <g
           style="font-size:64px;line-height:125%;font-family:Chess-7;-inkscape-font-specification:Chess-7;letter-spacing:0;word-spacing:0"
           font-size="64"
           letter-spacing="0"
           word-spacing="0"
           id="g4537">
          <path
             d="m 24.848,39.728 q -0.384,0.704 0.192,1.28 0.576,0.576 -0.192,1.472 -0.704,1.024 -2.624,2.752 -1.856,1.728 -3.2,2.304 -2.176,1.28 -4.48,0.192 -1.152,-0.576 -2.88,-2.24 Q 10,43.824 9.36,42.8 8.592,41.776 8.784,41.072 8.976,40.368 8.848,39.408 8.848,38.64 8.464,38.32 8.08,37.936 8.848,35.824 q 0.768,-1.92 3.264,-6.336 2.496,-4.416 3.2,-6.528 0.704,-1.92 -0.256,-1.728 -0.896,0.128 -0.512,-0.896 0.384,-1.152 1.408,-3.072 1.024,-1.984 1.856,-2.944 0.896,-0.896 1.856,-0.704 1.024,0.128 1.792,-1.152 0.704,-1.216 1.344,-3.776 0.704,-2.56 1.472,-4.672 0.96,1.984 2.048,3.776 1.088,1.792 2.24,2.24 2.88,-1.088 6.912,-0.512 5.76,0.768 8.512,2.304 2.752,1.472 6.592,6.208 1.472,1.856 2.368,3.968 0.896,2.048 1.6,4.48 0.704,2.432 1.088,5.568 0.448,3.136 0.64,5.632 0,2.688 -0.192,4.992 -0.128,2.24 0,4.544 l 0,3.776 q 0,1.408 0.512,3.776 0.32,1.984 1.28,4.416 0.96,2.432 1.792,4.8 l -40.192,0 q -0.832,-1.664 -0.576,-3.648 0,-1.28 0.32,-3.136 0.32,-1.856 1.024,-3.52 0.576,-1.472 1.536,-2.816 0.96,-1.408 2.048,-2.688 2.048,-3.2 3.84,-5.12 1.536,-1.728 3.328,-3.264 1.856,-1.6 3.392,-3.456 1.28,-1.856 1.728,-3.392 0.32,-1.024 -0.064,-2.752 -0.384,-1.792 -0.704,-1.728 -0.256,0.128 -1.024,2.368 -0.768,2.24 -1.472,3.008 -0.704,1.088 -1.536,1.536 -0.768,0.384 -1.344,0.768 -0.768,0.384 -1.216,0.384 -0.384,0 -0.96,0.384 -0.704,0.512 -1.664,1.344 -0.896,0.768 -1.28,1.472 z m -2.304,16.256 q 1.6,0.384 4.928,0.384 3.392,-0.064 4.48,-0.064 l 0.128,-3.2 q -0.96,0 -3.968,-0.128 -2.944,-0.128 -4.288,-0.384 l -1.28,3.392 z m 21.568,0.512 q 2.048,-0.128 4.864,-0.384 2.88,-0.256 4.992,-0.384 l -0.64,-3.264 q -1.728,0.384 -5.056,0.576 -3.328,0.128 -4.352,0.192 l 0.192,3.264 z m -6.144,-5.12 -3.392,3.392 3.392,3.52 3.392,-3.52 -3.392,-3.392 z M 22.736,23.088 Q 21.968,22.96 20.24,22.96 q -0.448,0 -0.896,0.512 -0.384,0.512 -0.448,0.832 l 0,0.896 q 0.064,0.64 0.448,0.96 0.128,0.128 1.344,0.128 0.384,-0.064 0.96,-0.32 0.576,-0.32 1.088,-0.576 1.344,-0.704 1.344,-1.216 0.128,-0.704 -0.32,-0.768 -0.384,-0.064 -1.024,-0.32 z m -12.16,13.696 q 1.088,1.088 1.088,2.304 0.064,0.256 -0.128,1.28 -0.192,0.96 -0.192,1.024 0.192,0.256 1.344,-1.088 1.216,-1.344 1.088,-1.856 0,-0.384 -1.28,-1.088 -1.28,-0.704 -1.92,-0.576 z m 19.2,-25.088 q 3.84,0.576 8,1.728 4.16,1.088 6.912,3.84 2.496,2.88 3.392,4.224 0.896,1.28 2.048,3.904 0.896,3.008 1.344,6.336 0.512,3.328 0.768,6.272 0.192,2.496 0.192,4.928 0,2.368 1.536,6.784 -0.192,-3.264 0,-6.016 0.256,-2.816 0.128,-5.824 -0.128,-3.328 -0.832,-7.488 -0.704,-4.16 -1.472,-6.08 -0.96,-2.368 -2.56,-4.416 Q 47.696,17.84 45.776,15.728 44.048,13.872 42,13.04 39.952,12.144 36.688,11.568 34.512,11.12 33.04,11.376 q -1.408,0.256 -3.264,0.32 z"
             id="path4539"
             inkscape:connector-curvature="0" />
        </g>
        <path
           d="m 23.78,56.16 c -0.47,-0.067 -0.91,-0.173 -0.973,-0.237 -0.064,-0.065 0.15,-0.825 0.476,-1.69 l 0.594,-1.57 0.577,0.107 c 0.475,0.09 6.123,0.45 7.227,0.463 0.273,0.003 0.32,0.186 0.32,1.26 0,1.982 0.3,1.838 -3.793,1.81 -1.964,-0.013 -3.957,-0.078 -4.427,-0.144 z"
           id="path4541"
           inkscape:connector-curvature="0"
           style="fill:#ffffff;fill-rule:evenodd" />
        <path
           d="m 36.272,56.51 -1.63,-1.64 1.677,-1.678 1.677,-1.678 1.63,1.622 1.63,1.623 -1.506,1.636 c -0.828,0.9 -1.582,1.663 -1.676,1.694 -0.094,0.032 -0.905,-0.68 -1.802,-1.58 z"
           id="path4543"
           inkscape:connector-curvature="0"
           style="fill:#ffffff;fill-rule:evenodd" />
        <path
           d="m 47.04,56.208 c 0.124,-0.05 0.37,-0.053 0.547,-0.007 0.177,0.047 0.076,0.088 -0.224,0.092 -0.3,0.004 -0.445,-0.034 -0.322,-0.084 z"
           id="path4545"
           inkscape:connector-curvature="0"
           style="fill:#ffffff;fill-rule:evenodd" />
        <path
           d="M 53.204,47.055 C 52.772,45.48 52.652,44.572 52.516,41.873 52.168,34.929 51.134,28.025 50.001,25.087 c -0.687,-1.783 -1.854,-3.68 -3.55,-5.77 -2.283,-2.81 -3.94,-4.136 -6.486,-5.186 -1.333,-0.55 -5.32,-1.6 -7.562,-1.994 -0.728,-0.128 -1.255,-0.302 -1.17,-0.387 0.084,-0.085 1.05,-0.203 2.142,-0.262 2.236,-0.12 4.37,0.226 7.422,1.207 2.822,0.908 4.37,2.175 7.584,6.21 2.693,3.38 3.77,5.796 4.6,10.33 0.985,5.37 1.19,9.443 0.86,17.092 l -0.113,2.637 -0.523,-1.91 z"
           id="path4547"
           inkscape:connector-curvature="0"
           style="fill:#ffffff;fill-rule:evenodd" />
        <path
           d="m 19.642,26.166 c -0.812,-0.226 -0.966,-1.717 -0.263,-2.552 0.432,-0.514 0.56,-0.56 1.59,-0.556 1.67,0.005 2.924,0.374 2.998,0.88 0.087,0.6 -0.26,0.912 -1.868,1.69 -1.474,0.713 -1.673,0.757 -2.458,0.538 z"
           id="path4549"
           inkscape:connector-curvature="0"
           style="fill:#ffffff;fill-rule:evenodd" />
        <path
           d="m 11.584,39.87 c 0.084,-1.532 0.06,-1.676 -0.378,-2.315 -0.375,-0.546 -0.41,-0.682 -0.18,-0.682 0.408,0 2.45,1.116 2.558,1.4 0.185,0.483 -0.16,1.16 -1.112,2.183 l -0.978,1.05 0.09,-1.635 z"
           id="path4551"
           inkscape:connector-curvature="0"
           style="fill:#ffffff;fill-rule:evenodd" />
      </g>
    </g>
  </g>
</svg>
