<?xml version="1.0" encoding="UTF-8" standalone="no"?>
<svg
   xmlns:dc="http://purl.org/dc/elements/1.1/"
   xmlns:cc="http://creativecommons.org/ns#"
   xmlns:rdf="http://www.w3.org/1999/02/22-rdf-syntax-ns#"
   xmlns:svg="http://www.w3.org/2000/svg"
   xmlns="http://www.w3.org/2000/svg"
   xmlns:sodipodi="http://sodipodi.sourceforge.net/DTD/sodipodi-0.dtd"
   xmlns:inkscape="http://www.inkscape.org/namespaces/inkscape"
   width="68"
   height="68"
   id="svg4471"
   version="1.1"
   inkscape:version="0.91 r13725"
   sodipodi:docname="bQ.svg">
  <metadata
     id="metadata4507">
    <rdf:RDF>
      <cc:Work
         rdf:about="">
        <dc:format>image/svg+xml</dc:format>
        <dc:type
           rdf:resource="http://purl.org/dc/dcmitype/StillImage" />
        <dc:title></dc:title>
      </cc:Work>
    </rdf:RDF>
  </metadata>
  <defs
     id="defs4505" />
  <sodipodi:namedview
     pagecolor="#ffffff"
     bordercolor="#666666"
     borderopacity="1"
     objecttolerance="10"
     gridtolerance="10"
     guidetolerance="10"
     inkscape:pageopacity="0"
     inkscape:pageshadow="2"
     inkscape:window-width="1920"
     inkscape:window-height="1039"
     id="namedview4503"
     showgrid="false"
     inkscape:zoom="3.4705882"
     inkscape:cx="34"
     inkscape:cy="34"
     inkscape:window-x="0"
     inkscape:window-y="20"
     inkscape:window-maximized="0"
     inkscape:current-layer="svg4471" />
  <g
     id="g4473"
     transform="matrix(1,0,0,-1,0,68)">
    <g
       id="g4475">
      <g
         style="font-size:64px;line-height:125%;font-family:Chess-7;-inkscape-font-specification:Chess-7;letter-spacing:0;word-spacing:0"
         font-size="64"
         letter-spacing="0"
         word-spacing="0"
         id="g4477">
        <path
           d="m 21.088,51.312 -1.664,5.184 3.648,-3.328 -1.984,-1.856 z M 46.176,51.44 44,53.296 47.264,56.048 46.176,51.44 Z M 28,50.672 l -2.624,0.64 0.32,2.88 L 28.32,53.744 28,50.672 Z m 14.144,0.64 -2.56,-0.64 -0.512,3.072 2.496,0.32 0.576,-2.752 z M 19.104,48.048 8.352,23.728 Q 6.944,24.112 6.048,23.152 L 4.64,21.616 q -1.92,-1.664 0,-3.584 l 1.408,-1.344 q 1.664,-2.048 3.52,0 l 1.536,1.344 q 1.536,1.92 0,3.584 L 10.336,22.384 21.28,30.96 20.32,17.136 Q 19.488,16.944 18.912,16.368 L 17.568,14.96 q -1.984,-1.792 0,-3.52 l 1.344,-1.536 q 1.792,-1.664 3.584,0 l 1.536,1.536 q 1.536,1.728 0,3.52 l -1.536,1.408 6.592,11.264 3.52,-12.928 -0.576,-0.32 -1.408,-1.536 q -1.728,-1.792 0,-3.584 l 1.408,-1.536 q 1.728,-1.408 3.52,0 l 1.408,1.536 q 1.984,1.792 0,3.584 l -1.408,1.536 -0.64,0.32 3.584,13.056 6.592,-11.072 -1.536,-1.536 q -1.536,-1.856 0,-3.712 l 1.408,-1.408 q 1.856,-1.536 3.648,0 l 1.408,1.408 q 1.856,1.856 0,3.712 l -1.408,1.344 -1.216,0.768 -0.768,13.568 11.264,-9.984 -0.96,-0.768 q -1.536,-1.856 0,-3.712 l 1.536,-1.408 q 1.792,-1.664 3.584,0 l 1.344,1.408 q 1.856,1.856 0,3.712 l -1.344,1.344 q -1.088,1.088 -2.368,0.768 l -11.2,26.304 3.072,12.48 -36.928,0 4.48,-12.928 z m 14.784,0.64 -3.264,3.2 3.264,3.264 3.072,-3.264 -3.072,-3.2 z m -13.568,-5.056 1.216,2.56 q 2.688,-1.216 5.824,-2.304 3.2,-1.088 6.656,-1.088 3.328,0 5.824,0.832 2.496,0.832 6.336,2.752 l 1.088,-2.624 q -3.456,-1.92 -6.528,-2.88 -3.072,-0.96 -6.72,-0.96 -3.584,0 -7.296,0.96 -3.648,0.896 -6.4,2.752 z M 7.712,18.672 6.304,19.888 7.712,21.296 8.928,19.888 7.712,18.672 Z m 13.056,-6.784 -1.344,1.28 1.344,1.344 1.28,-1.344 -1.28,-1.28 z m 13.12,-2.304 -1.536,1.536 1.536,1.536 1.344,-1.536 -1.344,-1.536 z m 12.928,2.304 -1.408,1.408 1.408,1.408 1.216,-1.408 -1.216,-1.408 z m 13.376,4.928 -1.28,1.28 1.28,1.344 1.28,-1.344 -1.28,-1.28 z"
           id="path4479"
           inkscape:connector-curvature="0" />
      </g>
      <path
         d="m 19.748,55.858 c 0,-0.064 0.298,-1.08 0.663,-2.26 l 0.663,-2.143 0.975,0.84 0.974,0.842 -1.5,1.41 c -1.41,1.323 -1.774,1.594 -1.774,1.31 z"
         id="path4481"
         inkscape:connector-curvature="0"
         style="fill:#ffffff;fill-rule:evenodd" />
      <path
         d="m 25.66,53.125 c -0.065,-0.582 -0.133,-1.216 -0.15,-1.41 -0.03,-0.287 0.182,-0.404 1.184,-0.66 l 1.22,-0.308 0.104,0.84 c 0.058,0.464 0.143,1.14 0.19,1.504 l 0.083,0.662 -1.027,0.128 c -0.565,0.07 -1.13,0.168 -1.256,0.217 -0.162,0.06 -0.265,-0.227 -0.347,-0.972 z"
         id="path4483"
         inkscape:connector-curvature="0"
         style="fill:#ffffff;fill-rule:evenodd" />
      <path
         d="m 32.232,53.465 -1.606,-1.62 1.568,-1.434 c 0.863,-0.79 1.657,-1.435 1.765,-1.435 0.107,0 0.806,0.67 1.553,1.492 l 1.357,1.49 -1.516,1.564 -1.515,1.564 -1.608,-1.62 z"
         id="path4485"
         inkscape:connector-curvature="0"
         style="fill:#ffffff;fill-rule:evenodd" />
      <path
         d="m 39.884,53.843 c -0.774,-0.08 -0.772,-0.07 -0.478,-1.852 l 0.205,-1.236 1.205,0.308 c 0.815,0.208 1.195,0.39 1.172,0.565 -0.018,0.142 -0.126,0.728 -0.24,1.303 -0.228,1.15 -0.116,1.096 -1.863,0.913 z"
         id="path4487"
         inkscape:connector-curvature="0"
         style="fill:#ffffff;fill-rule:evenodd" />
      <path
         d="m 45.512,54.553 -1.418,-1.214 0.958,-0.855 c 0.527,-0.47 1,-0.81 1.054,-0.758 0.152,0.15 1.052,4.068 0.932,4.053 -0.06,-0.007 -0.747,-0.56 -1.526,-1.227 z"
         id="path4489"
         inkscape:connector-curvature="0"
         style="fill:#ffffff;fill-rule:evenodd" />
      <path
         d="m 44.02,45.334 c -4.423,-2.153 -8.086,-2.907 -11.986,-2.468 -2.563,0.288 -4.194,0.737 -7.627,2.1 l -2.886,1.143 -0.53,-1.175 c -0.403,-0.885 -0.484,-1.233 -0.33,-1.416 0.314,-0.382 3.03,-1.662 4.595,-2.168 3.73,-1.206 8.52,-1.648 12.103,-1.118 2.695,0.398 4.49,0.974 7.435,2.382 2.287,1.094 2.4,1.175 2.245,1.574 -0.352,0.902 -0.916,2.148 -0.966,2.133 -0.028,-0.01 -0.952,-0.454 -2.052,-0.99 z"
         id="path4491"
         inkscape:connector-curvature="0"
         style="fill:#ffffff;fill-rule:evenodd" />
      <path
         d="m 59.495,18.66 -0.46,-0.59 0.574,-0.594 0.574,-0.593 0.588,0.57 0.59,0.57 -0.49,0.613 c -0.268,0.337 -0.584,0.612 -0.702,0.612 -0.118,0 -0.422,-0.265 -0.675,-0.59 z"
         id="path4493"
         inkscape:connector-curvature="0"
         style="fill:#ffffff;fill-rule:evenodd" />
      <path
         d="m 46.11,13.884 -0.616,-0.636 0.627,-0.647 0.628,-0.646 0.597,0.65 0.597,0.652 -0.483,0.632 c -0.266,0.348 -0.54,0.633 -0.607,0.633 -0.07,0 -0.402,-0.286 -0.742,-0.636 z"
         id="path4495"
         inkscape:connector-curvature="0"
         style="fill:#ffffff;fill-rule:evenodd" />
      <path
         d="m 33.148,11.83 -0.674,-0.69 0.736,-0.718 0.735,-0.718 0.61,0.726 0.61,0.725 -0.573,0.668 c -0.314,0.367 -0.616,0.674 -0.67,0.682 -0.056,0.01 -0.404,-0.295 -0.774,-0.674 z"
         id="path4497"
         inkscape:connector-curvature="0"
         style="fill:#ffffff;fill-rule:evenodd" />
      <path
         d="m 20.073,13.718 -0.493,-0.594 0.59,-0.572 0.59,-0.572 0.572,0.572 0.572,0.572 -0.464,0.608 c -0.254,0.334 -0.555,0.6 -0.668,0.594 -0.114,-0.007 -0.428,-0.28 -0.7,-0.608 z"
         id="path4499"
         inkscape:connector-curvature="0"
         style="fill:#ffffff;fill-rule:evenodd" />
      <path
         d="M 7.03,20.626 6.405,19.976 6.929,19.431 C 7.574,18.757 7.734,18.753 8.351,19.398 L 8.841,19.91 8.249,20.592 7.656,21.275 7.03,20.625 Z"
         id="path4501"
         inkscape:connector-curvature="0"
         style="fill:#ffffff;fill-rule:evenodd" />
    </g>
  </g>
</svg>
