<?xml version="1.0" encoding="UTF-8" standalone="no"?>
<svg
   xmlns:dc="http://purl.org/dc/elements/1.1/"
   xmlns:cc="http://creativecommons.org/ns#"
   xmlns:rdf="http://www.w3.org/1999/02/22-rdf-syntax-ns#"
   xmlns:svg="http://www.w3.org/2000/svg"
   xmlns="http://www.w3.org/2000/svg"
   xmlns:sodipodi="http://sodipodi.sourceforge.net/DTD/sodipodi-0.dtd"
   xmlns:inkscape="http://www.inkscape.org/namespaces/inkscape"
   width="68"
   height="68"
   id="svg4449"
   version="1.1"
   inkscape:version="0.91 r13725"
   sodipodi:docname="bR.svg">
  <metadata
     id="metadata4469">
    <rdf:RDF>
      <cc:Work
         rdf:about="">
        <dc:format>image/svg+xml</dc:format>
        <dc:type
           rdf:resource="http://purl.org/dc/dcmitype/StillImage" />
        <dc:title></dc:title>
      </cc:Work>
    </rdf:RDF>
  </metadata>
  <defs
     id="defs4467" />
  <sodipodi:namedview
     pagecolor="#ffffff"
     bordercolor="#666666"
     borderopacity="1"
     objecttolerance="10"
     gridtolerance="10"
     guidetolerance="10"
     inkscape:pageopacity="0"
     inkscape:pageshadow="2"
     inkscape:window-width="1920"
     inkscape:window-height="1039"
     id="namedview4465"
     showgrid="false"
     showguides="false"
     inkscape:zoom="3.4705882"
     inkscape:cx="34"
     inkscape:cy="34"
     inkscape:window-x="0"
     inkscape:window-y="20"
     inkscape:window-maximized="0"
     inkscape:current-layer="svg4449" />
  <g
     id="g4451"
     transform="matrix(1,0,0,-1,0,68)">
    <g
       id="g4453">
      <g
         style="font-size:64px;line-height:125%;font-family:Chess-7;-inkscape-font-specification:Chess-7;letter-spacing:0;word-spacing:0"
         font-size="64"
         letter-spacing="0"
         word-spacing="0"
         id="g4455">
        <path
           d="m 30.288,35.312 3.52,3.712 3.712,-3.712 -3.712,-3.52 -3.52,3.52 z m 18.176,-10.304 2.432,19.52 2.816,6.016 0,12.928 -39.552,0 0,-12.928 2.624,-6.016 2.432,-19.52 -4.928,-10.752 3.072,-9.728 8.64,0 0,8.32 3.712,0 0,-8.32 8.768,0 0,8.32 3.648,0 0,-8.32 8.64,0 3.072,9.728 -5.376,10.752 z m -29.376,21.376 -1.408,3.072 32.32,0 -1.536,-3.072 -29.376,0 z m 27.2,-22.784 -24.576,0 0.576,2.944 23.68,0 0.32,-2.944 z"
           id="path4457"
           inkscape:connector-curvature="0" />
      </g>
      <path
         d="m 22.132,25.464 c -0.11,-0.575 -0.24,-1.23 -0.29,-1.455 l -0.086,-0.41 24.371,0 0,0.61 c 0,0.337 -0.052,0.992 -0.115,1.456 l -0.115,0.843 -23.56,0 -0.203,-1.046 z"
         id="path4459"
         inkscape:connector-curvature="0"
         style="fill:#ffffff;fill-rule:evenodd" />
      <path
         d="m 32,37.076 -1.67,-1.78 1.71,-1.702 1.712,-1.704 0.505,0.44 c 0.278,0.243 1.1,1.015 1.824,1.715 l 1.32,1.274 -1.77,1.776 c -0.973,0.977 -1.812,1.773 -1.864,1.768 -0.052,-0.005 -0.846,-0.81 -1.765,-1.788 z"
         id="path4461"
         inkscape:connector-curvature="0"
         style="fill:#ffffff;fill-rule:evenodd" />
      <path
         d="m 18.196,48.464 c 0.236,-0.525 0.534,-1.18 0.663,-1.455 l 0.234,-0.5 29.392,0 0.73,1.454 0.733,1.454 -32.181,0 0.428,-0.954 z"
         id="path4463"
         inkscape:connector-curvature="0"
         style="fill:#ffffff;fill-rule:evenodd" />
    </g>
  </g>
</svg>
