<?xml version="1.0" encoding="UTF-8" standalone="no"?>
<svg
   xmlns:dc="http://purl.org/dc/elements/1.1/"
   xmlns:cc="http://creativecommons.org/ns#"
   xmlns:rdf="http://www.w3.org/1999/02/22-rdf-syntax-ns#"
   xmlns:svg="http://www.w3.org/2000/svg"
   xmlns="http://www.w3.org/2000/svg"
   xmlns:sodipodi="http://sodipodi.sourceforge.net/DTD/sodipodi-0.dtd"
   xmlns:inkscape="http://www.inkscape.org/namespaces/inkscape"
   width="68"
   height="68"
   id="svg4425"
   version="1.1"
   inkscape:version="0.91 r13725"
   sodipodi:docname="wB.svg">
  <metadata
     id="metadata4447">
    <rdf:RDF>
      <cc:Work
         rdf:about="">
        <dc:format>image/svg+xml</dc:format>
        <dc:type
           rdf:resource="http://purl.org/dc/dcmitype/StillImage" />
        <dc:title></dc:title>
      </cc:Work>
    </rdf:RDF>
  </metadata>
  <defs
     id="defs4445" />
  <sodipodi:namedview
     pagecolor="#ffffff"
     bordercolor="#666666"
     borderopacity="1"
     objecttolerance="10"
     gridtolerance="10"
     guidetolerance="10"
     inkscape:pageopacity="0"
     inkscape:pageshadow="2"
     inkscape:window-width="1920"
     inkscape:window-height="1039"
     id="namedview4443"
     showgrid="false"
     inkscape:zoom="3.4705882"
     inkscape:cx="34"
     inkscape:cy="34"
     inkscape:window-x="0"
     inkscape:window-y="20"
     inkscape:window-maximized="0"
     inkscape:current-layer="svg4425" />
  <g
     id="g4427"
     transform="matrix(1,0,0,-1,0,68)">
    <g
       id="g4429">
      <g
         style="font-size:64px;line-height:125%;font-family:Chess-7;-inkscape-font-specification:Chess-7;letter-spacing:0;word-spacing:0"
         font-size="64"
         letter-spacing="0"
         word-spacing="0"
         id="g4431">
        <path
           d="m 27.984,55.472 q -2.752,-0.064 -4.544,-0.064 -1.792,-0.064 -1.92,-0.256 -0.832,-0.768 -0.896,-1.856 -0.064,-1.088 0.768,-1.792 0.064,-0.128 1.088,-1.536 1.024,-1.472 2.432,-3.584 -2.432,-3.072 -4.608,-6.016 -2.176,-3.008 -2.624,-3.52 -1.408,-1.216 -1.408,-3.008 0,-1.856 1.408,-3.264 0.384,-0.384 2.304,-2.944 1.984,-2.56 4.224,-5.568 2.304,-3.008 4.224,-5.568 1.984,-2.624 2.24,-2.88 0.256,-0.256 0.384,-0.448 -0.704,-0.768 -1.472,-1.472 -0.704,-0.704 -0.832,-0.96 -2.048,-1.792 0,-3.584 0.192,-0.32 1.728,-1.792 1.6,-1.472 1.856,-1.856 1.728,-1.664 3.328,0 L 37.52,5.36 q 1.472,1.472 1.856,1.792 1.792,1.792 0,3.584 -0.256,0.256 -1.024,0.96 -0.768,0.704 -1.408,1.472 0.064,0 0.064,0.128 0.064,0.064 0.256,0.064 0.448,0.512 2.368,3.136 1.92,2.56 4.096,5.568 2.24,3.008 4.096,5.568 1.92,2.56 2.304,2.944 1.344,1.408 1.344,3.264 0,1.792 -1.344,3.008 -0.448,0.512 -2.56,3.392 -2.048,2.816 -4.352,5.888 1.6,2.112 2.688,3.712 1.152,1.536 1.344,1.664 1.728,1.792 -0.192,3.648 -0.128,0.192 -2.112,0.256 -1.92,0 -4.8,0.064 -0.192,1.408 -0.128,1.408 0.32,0.32 2.176,0.32 1.856,-0.064 4.096,-0.128 2.24,-0.064 4.288,-0.064 2.112,-0.064 2.944,0.192 2.112,0.704 2.944,3.264 0.832,2.496 1.408,4.864 l -17.088,0 q -1.344,0 -2.56,-0.064 -1.152,-0.128 -2.368,-0.704 -1.152,-0.576 -1.472,-0.832 -0.32,-0.32 -0.384,-0.704 0,0.384 -0.256,0.704 -0.256,0.256 -1.408,0.832 -1.344,0.576 -2.56,0.704 -1.216,0.064 -2.368,0.064 l -17.28,0 q 0.704,-2.368 1.664,-4.864 1.024,-2.56 3.136,-3.264 0.768,-0.256 2.752,-0.192 2.048,0 4.16,0.064 2.176,0.064 3.904,0.128 1.792,0 2.112,-0.32 0.32,-0.192 0.192,-0.384 -0.064,-0.256 -0.064,-1.024 z m 6.912,-0.128 q 0,3.968 1.088,5.056 0.576,0.832 0.576,0.96 0,0.128 0.512,0.448 2.048,0.768 3.52,0.768 l 13.248,0 q -0.128,-0.32 -0.384,-1.28 -0.256,-0.96 -1.152,-1.344 -0.704,-0.192 -2.816,-0.128 -2.048,0 -4.352,0.128 -2.304,0.064 -4.288,0.064 -1.92,-0.064 -2.368,-0.512 -1.088,-0.896 -1.088,-1.92 0,-1.088 0.128,-2.24 l -2.624,0 z m -1.792,1.92 q 0,-1.92 -0.064,-1.92 l -2.56,0 q 0.064,1.152 0.064,2.176 0,0.96 -1.152,1.984 -0.448,0.448 -2.368,0.512 -1.92,0 -4.224,-0.064 -2.304,-0.128 -4.416,-0.128 -2.112,-0.064 -2.816,0.128 -0.832,0.384 -1.152,1.344 -0.32,0.96 -0.384,1.28 l 13.376,0 q 1.6,0 3.52,-0.768 0.576,-0.32 0.512,-0.448 0,-0.128 0.704,-0.96 0.96,-1.216 0.96,-3.136 z m 2.432,-22.208 0,11.072 -2.944,0 0,-11.072 -3.52,0 0,-2.944 3.52,0 0,-4.288 2.944,0 0,4.288 3.52,0 0,2.944 -3.52,0 z m -6.912,11.328 q -1.984,2.944 -3.52,4.864 -1.472,1.856 -1.536,1.92 0.064,0.128 3.392,0.192 3.328,0.064 7.296,0.064 3.968,0 7.296,-0.064 3.392,-0.064 3.52,-0.192 -0.128,-0.064 -1.792,-2.048 -1.6,-1.984 -3.712,-4.992 2.624,-3.648 5.248,-7.232 2.688,-3.584 3.2,-4.16 1.088,-0.832 0,-1.984 -0.512,-0.448 -2.432,-3.008 -1.92,-2.624 -4.16,-5.568 -2.176,-3.008 -4.096,-5.568 -1.856,-2.624 -2.24,-3.136 -0.448,-0.448 -0.96,-0.448 -0.704,0 -1.024,0.448 -0.512,0.512 -2.496,3.136 -1.92,2.56 -4.224,5.568 -2.24,2.944 -4.16,5.568 -1.92,2.56 -2.368,3.008 -1.28,1.152 0,1.984 0.384,0.576 3.136,4.224 2.816,3.648 5.632,7.424 z M 34,5.616 Q 33.744,6 32.4,7.344 31.12,8.688 30.928,8.88 q 0.192,0.384 1.472,1.728 1.344,1.28 1.6,1.472 0.192,-0.192 1.536,-1.472 L 37.264,8.88 Q 36.88,8.688 35.536,7.344 34.192,6 34,5.616 Z"
           id="path4433"
           inkscape:connector-curvature="0" />
      </g>
      <path
         d="m 14.23,62.048 c 0.31,-1.024 0.63,-1.586 1.057,-1.866 0.414,-0.27 1.133,-0.296 6.88,-0.24 7.21,0.068 7.163,0.075 7.99,-1.254 0.354,-0.57 0.42,-0.906 0.398,-2.004 l -0.03,-1.318 2.56,0 -0.084,1.774 c -0.088,1.847 -0.176,2.122 -1.12,3.533 -1.113,1.665 -1.8,1.78 -10.537,1.783 l -7.24,0 0.126,-0.408 z"
         id="path4435"
         inkscape:connector-curvature="0"
         style="fill:#ffffff;fill-rule:evenodd" />
      <path
         d="m 39.128,62.365 c -0.1,-0.035 -0.65,-0.194 -1.224,-0.354 -0.96,-0.266 -1.096,-0.372 -1.71,-1.33 -0.813,-1.27 -1.152,-2.468 -1.154,-4.087 l -0.003,-1.227 2.363,0 0.002,1.41 c 0,1.626 0.335,2.367 1.31,2.9 0.55,0.3 1.114,0.32 7.07,0.265 l 6.47,-0.06 0.49,0.425 c 0.27,0.233 0.606,0.813 0.747,1.288 l 0.257,0.864 -7.218,-0.015 c -3.972,-0.008 -7.302,-0.042 -7.402,-0.077 z"
         id="path4437"
         inkscape:connector-curvature="0"
         style="fill:#ffffff;fill-rule:evenodd" />
      <path
         d="m 24.81,53.24 c -0.575,-0.04 -1.045,-0.117 -1.045,-0.17 0,-0.053 0.48,-0.684 1.067,-1.403 1.035,-1.266 3.345,-4.445 3.674,-5.058 0.128,-0.237 -0.75,-1.508 -4.014,-5.82 -2.298,-3.033 -4.424,-5.816 -4.725,-6.185 -0.3,-0.368 -0.548,-0.756 -0.548,-0.863 0,-0.106 0.272,-0.5 0.606,-0.876 0.333,-0.375 1.617,-2.032 2.853,-3.682 4.067,-5.433 9.13,-12.075 9.927,-13.023 0.43,-0.51 0.937,-0.97 1.124,-1.02 0.787,-0.206 1.325,0.363 4.69,4.953 5.102,6.963 8.46,11.444 9.31,12.42 0.75,0.86 0.973,1.61 0.557,1.867 -0.197,0.122 -6.09,7.977 -7.864,10.482 -0.525,0.74 -0.814,1.314 -0.732,1.454 0.44,0.76 2.55,3.57 3.767,5.02 0.784,0.936 1.37,1.754 1.306,1.82 -0.13,0.13 -18.233,0.205 -19.953,0.084 z m 10.73,-12.556 0.048,-5.5 3.449,0 0,-3.092 -3.454,0 0,-4.362 -3.091,0 0,4.362 -3.455,0 0,3.09 3.455,0 0,5.424 c 0,2.984 0.058,5.482 0.128,5.553 0.07,0.07 0.746,0.105 1.5,0.076 l 1.372,-0.052 0.048,-5.5 z"
         id="path4439"
         inkscape:connector-curvature="0"
         style="fill:#ffffff;fill-rule:evenodd" />
      <path
         d="M 32.417,10.46 31,9.006 31.91,7.959 c 0.503,-0.576 1.186,-1.295 1.52,-1.598 l 0.607,-0.55 1.572,1.6 1.57,1.6 -1.54,1.405 c -0.847,0.773 -1.6,1.427 -1.673,1.454 -0.073,0.026 -0.77,-0.607 -1.55,-1.41 z"
         id="path4441"
         inkscape:connector-curvature="0"
         style="fill:#ffffff;fill-rule:evenodd" />
    </g>
  </g>
</svg>
