<?xml version="1.0" encoding="UTF-8" standalone="no"?>
<svg
   xmlns:dc="http://purl.org/dc/elements/1.1/"
   xmlns:cc="http://creativecommons.org/ns#"
   xmlns:rdf="http://www.w3.org/1999/02/22-rdf-syntax-ns#"
   xmlns:svg="http://www.w3.org/2000/svg"
   xmlns="http://www.w3.org/2000/svg"
   xmlns:sodipodi="http://sodipodi.sourceforge.net/DTD/sodipodi-0.dtd"
   xmlns:inkscape="http://www.inkscape.org/namespaces/inkscape"
   width="68"
   height="68"
   id="svg4301"
   version="1.1"
   inkscape:version="0.91 r13725"
   sodipodi:docname="wQ.svg">
  <metadata
     id="metadata4341">
    <rdf:RDF>
      <cc:Work
         rdf:about="">
        <dc:format>image/svg+xml</dc:format>
        <dc:type
           rdf:resource="http://purl.org/dc/dcmitype/StillImage" />
        <dc:title></dc:title>
      </cc:Work>
    </rdf:RDF>
  </metadata>
  <defs
     id="defs4339" />
  <sodipodi:namedview
     pagecolor="#ffffff"
     bordercolor="#666666"
     borderopacity="1"
     objecttolerance="10"
     gridtolerance="10"
     guidetolerance="10"
     inkscape:pageopacity="0"
     inkscape:pageshadow="2"
     inkscape:window-width="1920"
     inkscape:window-height="1039"
     id="namedview4337"
     showgrid="false"
     inkscape:zoom="3.4705882"
     inkscape:cx="34"
     inkscape:cy="34"
     inkscape:window-x="0"
     inkscape:window-y="20"
     inkscape:window-maximized="0"
     inkscape:current-layer="svg4301" />
  <g
     id="g4303"
     transform="matrix(1,0,0,-1,0,68)">
    <g
       id="g4305">
      <g
         style="font-size:64px;line-height:125%;font-family:Chess-7;-inkscape-font-specification:Chess-7;letter-spacing:0;word-spacing:0"
         font-size="64"
         letter-spacing="0"
         word-spacing="0"
         id="g4307">
        <path
           d="m 21.088,51.312 -1.664,5.184 3.648,-3.328 -1.984,-1.856 z M 46.176,51.44 44,53.296 47.264,56.048 46.176,51.44 Z m -17.728,2.176 -2.752,0.576 -3.392,4.16 22.464,0 q -0.704,-0.64 -3.392,-4.16 l -2.304,-0.448 -3.52,3.52 q -1.792,1.792 -3.52,0 L 28.448,53.616 Z M 19.104,48.048 Q 16.288,41.968 13.6,35.888 10.976,29.744 8.352,23.728 6.944,24.112 6.048,23.152 L 4.64,21.616 q -1.92,-1.664 0,-3.584 l 1.408,-1.344 q 1.664,-2.048 3.52,0 l 1.536,1.344 q 1.536,1.92 0,3.584 L 10.336,22.384 21.28,30.96 20.32,17.136 Q 19.488,16.944 18.912,16.368 L 17.568,14.96 q -1.984,-1.792 0,-3.52 l 1.344,-1.536 q 1.792,-1.664 3.584,0 l 1.536,1.536 q 1.536,1.728 0,3.52 l -1.536,1.408 6.592,11.264 3.52,-12.928 q 0.192,0 -0.576,-0.32 l -1.408,-1.536 q -1.728,-1.792 0,-3.584 l 1.408,-1.536 q 1.728,-1.408 3.52,0 l 1.408,1.536 q 1.984,1.792 0,3.584 l -1.408,1.536 q -0.32,0.32 -0.64,0.32 l 3.584,13.056 6.592,-11.072 -1.536,-1.536 q -1.536,-1.856 0,-3.712 l 1.408,-1.408 q 1.856,-1.536 3.648,0 l 1.408,1.408 q 1.856,1.856 0,3.712 l -1.408,1.344 -1.216,0.768 -0.768,13.568 11.264,-9.984 -0.96,-0.768 q -1.536,-1.856 0,-3.712 l 1.536,-1.408 q 1.792,-1.664 3.584,0 l 1.344,1.408 q 1.856,1.856 0,3.712 l -1.344,1.344 q -1.088,1.088 -2.368,0.768 l -11.2,26.304 3.072,12.48 -36.928,0 4.48,-12.928 z m 0,-7.36 q 6.592,-3.84 14.912,-3.84 7.552,0 14.336,4.16 l 5.376,-12.352 -9.216,6.848 -0.64,-10.816 -6.336,7.872 -3.648,-10.624 -4.352,10.624 -5.696,-7.872 -0.512,10.816 -9.28,-6.208 5.056,11.392 z m 14.784,8 -3.264,3.2 3.264,3.264 3.072,-3.264 -3.072,-3.2 z M 20.32,43.632 q 0.32,0.704 0.64,1.344 0.384,0.64 0.576,1.216 2.688,-1.216 5.824,-2.304 3.2,-1.088 6.656,-1.088 3.328,0 5.824,0.832 2.496,0.832 6.336,2.752 l 1.088,-2.624 q -3.456,-1.92 -6.528,-2.88 -3.072,-0.96 -6.72,-0.96 -3.584,0 -7.296,0.96 -3.648,0.896 -6.4,2.752 z M 7.84,18.8 6.816,19.888 7.84,20.976 8.928,19.888 7.84,18.8 Z m 12.928,-6.72 -1.088,1.088 1.088,1.024 1.088,-1.024 -1.088,-1.088 z m 13.12,-2.048 -1.088,1.088 1.088,1.088 0.896,-1.088 -0.896,-1.088 z m 12.928,2.176 -1.088,1.088 1.088,1.088 1.024,-1.088 -1.024,-1.088 z m 13.376,4.928 -1.088,1.088 1.088,1.088 1.088,-1.088 -1.088,-1.088 z M 44.32,49.008 q -3.008,-1.6 -5.184,-2.432 -2.112,-0.832 -5.12,-0.832 -3.008,0 -5.888,1.088 -2.88,1.024 -5.184,2.176 l 2.304,2.304 2.944,-0.64 3.84,-4.16 q 1.728,-1.408 3.52,0 l 4.032,4.16 2.56,0.64 2.176,-2.304 z"
           id="path4309"
           inkscape:connector-curvature="0" />
      </g>
      <path
         d="m 19.748,55.858 c 0,-0.064 0.298,-1.08 0.663,-2.26 l 0.663,-2.143 0.975,0.84 0.974,0.842 -1.5,1.41 c -1.41,1.323 -1.774,1.594 -1.774,1.31 z"
         id="path4311"
         inkscape:connector-curvature="0"
         style="fill:#ffffff;fill-rule:evenodd" />
      <path
         d="m 22.816,57.84 c 0.202,-0.276 0.937,-1.195 1.635,-2.044 l 1.27,-1.543 1.332,-0.294 1.332,-0.295 2.288,2.246 c 2.102,2.064 2.344,2.247 2.967,2.247 0.977,0 1.253,-0.188 3.47,-2.37 l 2,-1.97 1.114,0.216 c 1.1,0.212 1.127,0.233 2.252,1.67 0.626,0.8 1.39,1.72 1.696,2.045 l 0.556,0.59 -22.278,0 0.366,-0.5 z"
         id="path4313"
         inkscape:connector-curvature="0"
         style="fill:#ffffff;fill-rule:evenodd" />
      <path
         d="m 32.232,53.465 -1.606,-1.62 1.568,-1.434 c 0.863,-0.79 1.657,-1.435 1.765,-1.435 0.107,0 0.806,0.67 1.553,1.492 l 1.357,1.49 -1.516,1.564 -1.515,1.564 -1.608,-1.62 z"
         id="path4315"
         inkscape:connector-curvature="0"
         style="fill:#ffffff;fill-rule:evenodd" />
      <path
         d="m 45.512,54.553 -1.418,-1.214 0.958,-0.855 c 0.527,-0.47 1,-0.81 1.054,-0.758 0.152,0.15 1.052,4.068 0.932,4.053 -0.06,-0.007 -0.747,-0.56 -1.526,-1.227 z"
         id="path4317"
         inkscape:connector-curvature="0"
         style="fill:#ffffff;fill-rule:evenodd" />
      <path
         d="m 40.69,50.92 c -1.117,-0.278 -1.2,-0.342 -3.134,-2.41 -1.093,-1.168 -2.254,-2.256 -2.58,-2.416 l -0.592,-0.292 0.545,0.002 c 0.975,0.004 3.244,0.485 4.454,0.945 0.99,0.375 4.485,2.038 4.703,2.237 0.113,0.103 -1.874,2.254 -2.067,2.236 -0.1,-0.008 -0.698,-0.145 -1.33,-0.302 z"
         id="path4319"
         inkscape:connector-curvature="0"
         style="fill:#ffffff;fill-rule:evenodd" />
      <path
         d="m 24.213,50.17 c -0.595,-0.602 -1.045,-1.127 -1,-1.167 0.197,-0.178 1.39,-0.724 3.213,-1.47 2.043,-0.837 4.203,-1.448 5.776,-1.634 l 0.91,-0.108 -0.546,0.336 c -0.3,0.185 -1.42,1.276 -2.49,2.424 -1.88,2.02 -1.978,2.095 -3,2.317 -0.58,0.124 -1.22,0.265 -1.42,0.31 -0.262,0.06 -0.663,-0.22 -1.443,-1.01 z"
         id="path4321"
         inkscape:connector-curvature="0"
         style="fill:#ffffff;fill-rule:evenodd" />
      <path
         d="m 44.02,45.334 c -4.423,-2.153 -8.086,-2.907 -11.986,-2.468 -2.56,0.288 -4.194,0.737 -7.603,2.09 l -2.86,1.134 -0.55,-1.173 c -0.403,-0.862 -0.497,-1.235 -0.354,-1.407 0.31,-0.373 3.04,-1.657 4.59,-2.158 3.73,-1.206 8.52,-1.648 12.102,-1.118 2.695,0.398 4.49,0.974 7.435,2.382 2.287,1.094 2.4,1.175 2.245,1.574 -0.352,0.902 -0.916,2.148 -0.966,2.133 -0.028,-0.01 -0.952,-0.454 -2.052,-0.99 z"
         id="path4323"
         inkscape:connector-curvature="0"
         style="fill:#ffffff;fill-rule:evenodd" />
      <path
         d="m 46.202,39.81 c -2.177,-1.125 -4.583,-1.986 -7,-2.504 -2.204,-0.472 -8.86,-0.475 -11.09,-0.005 -2.45,0.517 -5.027,1.366 -7.075,2.33 -1.04,0.492 -1.92,0.867 -1.952,0.835 -0.127,-0.128 -4.787,-10.737 -4.737,-10.787 0.03,-0.03 2.034,1.266 4.455,2.88 2.42,1.61 4.44,2.89 4.49,2.84 0.05,-0.047 0.2,-2.354 0.338,-5.124 0.138,-2.77 0.287,-5.074 0.33,-5.118 0.046,-0.045 1.296,1.592 2.78,3.636 1.484,2.044 2.755,3.682 2.825,3.64 0.07,-0.045 1.06,-2.368 2.2,-5.164 1.14,-2.796 2.125,-4.988 2.19,-4.87 0.062,0.117 0.878,2.444 1.812,5.17 0.933,2.726 1.753,4.935 1.82,4.91 0.067,-0.027 1.442,-1.685 3.054,-3.685 1.614,-2 2.996,-3.658 3.074,-3.684 0.078,-0.028 0.272,2.247 0.43,5.055 0.16,2.807 0.337,5.15 0.393,5.206 0.057,0.057 2.044,-1.337 4.418,-3.097 2.373,-1.76 4.35,-3.165 4.393,-3.122 0.096,0.097 -4.927,11.73 -5.055,11.71 -0.05,-0.008 -0.99,-0.48 -2.09,-1.05 z"
         id="path4325"
         inkscape:connector-curvature="0"
         style="fill:#ffffff;fill-rule:evenodd" />
      <path
         d="m 7.327,20.374 -0.49,-0.51 0.512,-0.49 0.51,-0.49 0.49,0.51 0.49,0.512 -0.51,0.49 -0.513,0.49 -0.49,-0.512 z"
         id="path4327"
         inkscape:connector-curvature="0"
         style="fill:#ffffff;fill-rule:evenodd" />
      <path
         d="m 20.236,13.647 -0.49,-0.51 0.512,-0.49 0.51,-0.49 0.49,0.51 0.49,0.512 -0.51,0.49 -0.512,0.49 -0.49,-0.513 z"
         id="path4329"
         inkscape:connector-curvature="0"
         style="fill:#ffffff;fill-rule:evenodd" />
      <path
         d="m 33.323,11.643 -0.486,-0.507 0.513,-0.492 0.512,-0.49 0.413,0.44 c 0.327,0.346 0.374,0.51 0.225,0.788 -0.397,0.743 -0.66,0.8 -1.177,0.26 z"
         id="path4331"
         inkscape:connector-curvature="0"
         style="fill:#ffffff;fill-rule:evenodd" />
      <path
         d="m 46.327,13.92 c -0.5,-0.533 -0.498,-0.696 0.023,-1.186 0.53,-0.498 0.525,-0.5 0.988,0.127 l 0.387,0.524 -0.5,0.48 -0.5,0.48 -0.398,-0.424 z"
         id="path4333"
         inkscape:connector-curvature="0"
         style="fill:#ffffff;fill-rule:evenodd" />
      <path
         d="m 59.69,18.738 -0.49,-0.51 0.512,-0.49 0.512,-0.49 0.49,0.51 0.49,0.51 -0.512,0.49 -0.51,0.49 -0.49,-0.51 z"
         id="path4335"
         inkscape:connector-curvature="0"
         style="fill:#ffffff;fill-rule:evenodd" />
    </g>
  </g>
</svg>
