<?xml version="1.0" encoding="UTF-8" standalone="no"?>
<svg
   xmlns:dc="http://purl.org/dc/elements/1.1/"
   xmlns:cc="http://creativecommons.org/ns#"
   xmlns:rdf="http://www.w3.org/1999/02/22-rdf-syntax-ns#"
   xmlns:svg="http://www.w3.org/2000/svg"
   xmlns="http://www.w3.org/2000/svg"
   xmlns:sodipodi="http://sodipodi.sourceforge.net/DTD/sodipodi-0.dtd"
   xmlns:inkscape="http://www.inkscape.org/namespaces/inkscape"
   width="68"
   height="68"
   id="svg4273"
   version="1.1"
   inkscape:version="0.91 r13725"
   sodipodi:docname="wR.svg">
  <metadata
     id="metadata4299">
    <rdf:RDF>
      <cc:Work
         rdf:about="">
        <dc:format>image/svg+xml</dc:format>
        <dc:type
           rdf:resource="http://purl.org/dc/dcmitype/StillImage" />
        <dc:title></dc:title>
      </cc:Work>
    </rdf:RDF>
  </metadata>
  <defs
     id="defs4297" />
  <sodipodi:namedview
     pagecolor="#ffffff"
     bordercolor="#666666"
     borderopacity="1"
     objecttolerance="10"
     gridtolerance="10"
     guidetolerance="10"
     inkscape:pageopacity="0"
     inkscape:pageshadow="2"
     inkscape:window-width="1920"
     inkscape:window-height="1039"
     id="namedview4295"
     showgrid="false"
     inkscape:zoom="13.264706"
     inkscape:cx="34"
     inkscape:cy="34"
     inkscape:window-x="0"
     inkscape:window-y="20"
     inkscape:window-maximized="0"
     inkscape:current-layer="svg4273" />
  <g
     id="g4275"
     transform="matrix(1,0,0,-1,0,68)">
    <g
       id="g4277">
      <g
         style="font-size:64px;line-height:125%;font-family:Chess-7;-inkscape-font-specification:Chess-7;letter-spacing:0;word-spacing:0"
         font-size="64"
         letter-spacing="0"
         word-spacing="0"
         id="g4279">
        <path
           d="m 48.464,25.008 2.432,19.52 2.624,6.016 0,12.928 -39.36,0 0,-12.928 2.624,-6.016 2.432,-19.52 -4.928,-10.752 3.072,-9.728 8.64,0 0,8.32 3.712,0 0,-8.32 8.768,0 0,8.32 3.648,0 0,-8.32 8.64,0 3.072,9.728 -5.376,10.752 z m -31.552,27.2 0,8.64 33.984,0 0,-8.64 -33.984,0 z m 0.768,-2.752 32.32,0 -1.408,-3.392 -29.504,0 -1.408,3.392 z m 17.856,-19.52 4.16,4.16 7.232,0 -0.96,-7.872 -24,0 -1.024,7.872 6.912,0 4.416,-4.16 q 1.408,-1.792 3.264,0 z m -7.36,6.912 -7.552,0 -0.96,6.784 28.352,0 -0.768,-6.784 -7.744,0 -3.968,3.968 q -1.856,1.856 -3.264,0 L 28.176,36.848 Z M 17.04,14.064 l 4.672,9.536 24.576,0 4.8,-9.536 -2.176,-6.912 -4.16,0 0,8.448 -8.896,0 0,-8.448 -3.584,0 0,8.448 -8.896,0 0,-8.448 -4.032,0 -2.304,6.912 z m 13.248,21.248 3.52,3.712 3.712,-3.712 -3.712,-3.52 -3.52,3.52 z"
           id="path4281"
           inkscape:connector-curvature="0" />
      </g>
      <path
         d="m 17.035,56.6 0,-4.273 33.82,0 0,8.546 -33.82,0 0,-4.273 z"
         id="path4283"
         inkscape:connector-curvature="0"
         style="fill:#ffffff;fill-rule:evenodd" />
      <path
         d="m 18.153,48.464 c 0.21,-0.525 0.51,-1.262 0.66,-1.637 l 0.278,-0.682 14.746,0 14.745,0.002 0.67,1.635 0.67,1.636 -32.152,0 0.385,-0.954 z"
         id="path4285"
         inkscape:connector-curvature="0"
         style="fill:#ffffff;fill-rule:evenodd" />
      <path
         d="m 19.763,43.435 c 0,-0.09 0.204,-1.57 0.454,-3.29 0.25,-1.718 0.455,-3.158 0.455,-3.198 0,-0.04 1.688,-0.074 3.752,-0.074 l 3.753,0 2.495,2.454 c 2.655,2.612 2.91,2.753 3.963,2.195 0.27,-0.143 1.472,-1.248 2.67,-2.455 l 2.18,-2.194 3.866,0 c 2.972,0 3.867,0.052 3.868,0.227 0,0.125 0.164,1.577 0.363,3.227 0.2,1.65 0.363,3.062 0.363,3.137 0,0.075 -6.34,0.136 -14.09,0.136 -8.31,0 -14.09,-0.068 -14.09,-0.165 z"
         id="path4287"
         inkscape:connector-curvature="0"
         style="fill:#ffffff;fill-rule:evenodd" />
      <path
         d="m 32,37.076 -1.67,-1.78 1.71,-1.702 1.712,-1.704 0.505,0.44 c 0.278,0.243 1.1,1.015 1.824,1.715 l 1.32,1.274 -1.77,1.776 c -0.973,0.977 -1.812,1.773 -1.864,1.768 -0.052,-0.005 -0.846,-0.81 -1.765,-1.788 z"
         id="path4289"
         inkscape:connector-curvature="0"
         style="fill:#ffffff;fill-rule:evenodd" />
      <path
         d="m 21.095,33.373 c 0.056,-0.325 0.283,-2.043 0.505,-3.818 l 0.405,-3.228 11.97,0 c 6.583,0 11.97,0.047 11.97,0.105 0,0.2 0.726,6.172 0.833,6.85 l 0.108,0.682 -7.22,0 -1.907,-1.93 c -2.385,-2.412 -3.136,-2.98 -3.945,-2.98 -0.664,0 -0.935,0.218 -4.256,3.405 l -1.57,1.504 -6.995,0 0.1,-0.59 z"
         id="path4291"
         inkscape:connector-curvature="0"
         style="fill:#ffffff;fill-rule:evenodd" />
      <path
         d="m 19.425,18.827 -2.325,-4.772 1.12,-3.364 1.12,-3.363 2.03,-0.05 2.03,-0.053 0,8.375 8.908,0 0,-8.364 3.455,0 0,8.364 9.091,0 0,-8.376 2.026,0.052 2.026,0.05 1.052,3.344 1.052,3.343 -2.395,4.793 -2.395,4.794 -24.47,0 -2.325,-4.773 z"
         id="path4293"
         inkscape:connector-curvature="0"
         style="fill:#ffffff;fill-rule:evenodd" />
    </g>
  </g>
</svg>
