<?xml version="1.0" encoding="utf-8"?>
<!-- Generator: Adobe Illustrator 16.0.3, SVG Export Plug-In . SVG Version: 6.00 Build 0)  -->
<!DOCTYPE svg PUBLIC "-//W3C//DTD SVG 1.1//EN" "http://www.w3.org/Graphics/SVG/1.1/DTD/svg11.dtd">
<svg version="1.1" id="Layer_1" image-rendering="optimizeQuality" shape-rendering="geometricPrecision"
	 xmlns="http://www.w3.org/2000/svg" xmlns:xlink="http://www.w3.org/1999/xlink" x="0px" y="0px" width="177.17px"
	 height="177.17px" viewBox="0 0 177.17 177.17" enable-background="new 0 0 177.17 177.17" xml:space="preserve">
<g>
	<path fill="#1F1A17" d="M85.294,136.622h6.239v11.52h7.321c1.98,0,2.969,0.961,2.969,2.91v0.088c0,1.921-0.988,2.881-2.969,2.881
		h-7.321v7.47c0,2.069-1.049,3.09-3.149,3.09c-2.041,0-3.09-1.021-3.09-3.09v-7.47l-7.562,0.001c-1.92,0-2.881-0.961-2.881-2.881
		v-0.089c0-1.949,0.961-2.909,2.881-2.909l7.502-0.089L85.294,136.622"/>
	<path fill="#1F1A17" d="M137.704,45.472l2.881,16.441c0.061,0,0.148,0.12,0.27,0.361c0.301,0.419,1.141,0.96,2.52,1.62
		c1.35,0.69,2.969,1.828,4.769,3.479c2.58,2.162,4.589,3.93,6.031,5.28c1.438,1.321,2.732,2.788,3.901,4.38
		c3.579,4.922,5.581,10.86,5.971,17.858c0.599,6.723-2.13,13.44-8.16,20.131c-6.092,6.661-14.341,9.812-24.69,9.39
		c-3.87-0.241-8.43-1.169-13.621-2.82c-1.712-0.69-3.451-1.382-5.251-2.041c-1.772-0.69-3.54-1.378-5.313-2.069
		c-0.928-0.479-1.771-0.96-2.459-1.41c0.302,1.229,0.45,2.459,0.45,3.688c0,4.561-1.619,8.462-4.89,11.7
		c-3.238,3.211-7.172,4.861-11.732,4.922c-4.56,0-8.462-1.651-11.701-4.891c-3.21-3.238-4.83-7.157-4.83-11.639
		c0-0.929,0.121-2.162,0.362-3.689c-0.812,0.511-1.62,0.961-2.37,1.318c-2.701,1.169-6.24,2.552-10.666,4.11
		c-5.039,1.712-9.57,2.672-13.621,2.909c-10.35,0.481-18.57-2.672-24.602-9.39c-5.91-6.69-8.671-13.412-8.25-20.131
		c0.451-6.991,2.492-12.929,6.061-17.859c1.169-1.591,2.49-3.061,3.961-4.439c1.438-1.382,3.42-3.122,5.882-5.22
		c1.921-1.651,3.579-2.82,4.922-3.479c1.351-0.659,2.13-1.229,2.37-1.619c0.061-0.121,0.121-0.209,0.182-0.27
		c0.06-0.061,0.088-0.12,0.088-0.181l2.82-16.53l-5.821-21.689c2.94-2.639,9.511-4.801,19.681-6.509
		c10.201-1.712,21.99-2.551,35.341-2.551c13.588,0,25.562,0.899,35.852,2.671c10.318,1.801,16.799,4.051,19.438,6.723l-5.789,21.438
		"/>
</g>
<linearGradient id="SVGID_1_" gradientUnits="userSpaceOnUse" x1="-134.5293" y1="370.0957" x2="-77.9" y2="369.8467" gradientTransform="matrix(-3.5434 0 0 3.5434 -374.9127 -1232.7222)">
	<stop  offset="0" style="stop-color:#FFFFFF"/>
	<stop  offset="1" style="stop-color:#FFFFFF;stop-opacity:0"/>
</linearGradient>
<path fill="url(#SVGID_1_)" d="M88.384,105.955c0.121,0.57,0.27,1.08,0.45,1.499c0.329,1.169,0.63,2.009,0.868,2.551
	c0.181,0.39,0.421,0.9,0.69,1.531c0.302,0.599,0.599,1.261,0.9,1.98c0.181,0.422,0.39,0.96,0.659,1.619
	c0.24,0.691,0.481,1.321,0.659,1.889c0.148,0.539,0.24,1.081,0.24,1.68c0,3.09-1.471,4.648-4.471,4.648
	c-3.123,0-4.649-1.53-4.649-4.56c0-0.78,0.12-1.322,0.329-1.68c0.84-2.222,1.262-3.42,1.318-3.601c0.9-1.771,1.439-2.909,1.68-3.419
	c0.422-0.961,0.691-1.8,0.779-2.552c0.181-0.361,0.301-0.659,0.362-0.928c0.06-0.27,0.12-0.482,0.181-0.659 M98.22,75.624
	c7.321-0.121,14.011-0.479,20.102-1.142c6.06-0.63,10.737-1.56,14.1-2.729c1.74,2.19,3.781,4.352,6.091,6.569
	c2.339,2.19,4.352,4.26,6.12,6.18c2.94,3.002,4.379,6.272,4.379,9.84c0,4.412-0.719,7.622-2.189,9.659
	c-1.559,2.37-4.021,4.11-7.289,5.251c-3.271,1.142-6.601,1.712-9.932,1.712c-4.231,0-8.249-0.928-12.118-2.82
	c-3.81-1.98-6.332-3.579-7.563-4.741c-3.989-4.05-7.122-8.43-9.329-13.171c-0.751-1.771-1.318-4.231-1.712-7.349
	C98.489,79.733,98.28,77.334,98.22,75.624 M88.38,90.924c-0.422,1.651-0.751,2.788-1.048,3.419c-0.6,2.278-1.262,4.231-2.041,5.822
	c-0.33,0.988-0.84,2.13-1.531,3.451c-0.659,1.321-1.379,2.849-2.162,4.532c-0.449,0.988-0.959,2.222-1.47,3.66
	c-0.539,1.438-1.081,2.849-1.591,4.259c-0.479,1.17-0.72,2.431-0.72,3.781c0,2.881,1.049,5.312,3.09,7.32
	c2.041,2.041,4.532,3.062,7.47,3.062c6.959,0,10.471-3.512,10.471-10.471c0-1.35-0.241-2.611-0.72-3.78
	c-1.29-3.81-2.278-6.449-2.97-7.92c-0.779-1.68-1.47-3.21-2.129-4.532c-0.631-1.318-1.201-2.459-1.651-3.451
	c-0.779-1.948-1.41-3.869-1.949-5.821C89.309,93.925,88.979,92.784,88.38,90.924 M91.53,68.874c0,2.338,0.061,5.58,0.181,9.69
	c0.12,4.139,0.57,7.59,1.318,10.351c2.398,7.831,6.03,14.16,10.921,18.96c2.519,2.46,6.36,4.77,11.579,6.871
	c5.971,2.339,11.641,3.511,16.98,3.511c9.241,0,16.111-3.299,20.552-9.932c2.52-3.512,3.78-7.92,3.78-13.171
	c0-5.761-1.41-10.47-4.198-14.16c-1.471-2.102-4.291-4.709-8.462-7.83c-4.139-3.09-7.683-5.971-10.531-8.611
	c-5.099,1.109-10.86,2.069-17.281,2.909C109.948,68.274,101.668,68.752,91.53,68.874 M42.688,27.292L45.3,37.669
	c11.431,2.612,25.8,3.93,43.081,3.93c17.1,0,31.412-1.321,42.911-3.93l2.788-10.471c-11.13,3.392-26.37,5.099-45.78,5.099
	c-9.301,0-17.973-0.481-25.92-1.41c-7.98-0.928-14.549-2.129-19.68-3.6 M44.977,53.569c10.772,2.97,25.141,4.472,43.053,4.472
	c18.061,0,32.581-1.53,43.591-4.56l-1.321-8.881c-11.07,2.881-25.141,4.32-42.273,4.32c-17.04,0-30.93-1.41-41.642-4.231l-1.41,8.88
	 M85.234,68.781C75.152,68.6,66.872,68.09,60.43,67.282c-6.42-0.812-12.238-1.8-17.401-2.909c-3.21,3.183-6.778,6.18-10.701,9.061
	c-3.93,2.881-6.69,5.34-8.28,7.381c-2.789,3.81-4.199,8.55-4.199,14.245c0,5.191,1.262,9.571,3.78,13.083
	c4.501,6.629,11.399,9.932,20.641,9.932c5.399,0,11.009-1.169,16.892-3.512c5.34-2.101,9.181-4.38,11.611-6.839
	c4.979-4.829,8.61-11.161,10.889-18.989c0.869-2.7,1.351-6.12,1.439-10.29c0.088-4.171,0.148-7.381,0.148-9.66 M78.827,75.624
	c0,1.711-0.209,4.109-0.57,7.26c-0.39,3.122-0.989,5.581-1.8,7.349c-2.189,4.741-5.279,9.121-9.33,13.171
	c-1.17,1.17-3.688,2.761-7.562,4.741c-3.81,1.889-7.892,2.82-12.21,2.82c-3.3,0-6.542-0.57-9.813-1.711
	c-3.238-1.142-5.701-2.881-7.32-5.252c-1.471-1.98-2.222-5.19-2.222-9.659c0-3.511,1.438-6.778,4.319-9.84
	c1.86-1.92,3.901-3.869,6.059-5.85c2.162-1.949,4.26-4.26,6.24-6.899c3.391,1.169,8.129,2.102,14.174,2.729
	c6.059,0.659,12.721,1.021,20.01,1.142"/>
</svg>
