<?xml version="1.0" encoding="utf-8"?>
<!-- Generator: Adobe Illustrator 16.0.3, SVG Export Plug-In . SVG Version: 6.00 Build 0)  -->
<!DOCTYPE svg PUBLIC "-//W3C//DTD SVG 1.1//EN" "http://www.w3.org/Graphics/SVG/1.1/DTD/svg11.dtd">
<svg version="1.1" id="Layer_1" image-rendering="optimizeQuality" shape-rendering="geometricPrecision"
	 xmlns="http://www.w3.org/2000/svg" xmlns:xlink="http://www.w3.org/1999/xlink" x="0px" y="0px" width="177.17px"
	 height="177.17px" viewBox="0 0 177.17 177.17" enable-background="new 0 0 177.17 177.17" xml:space="preserve">
<path fill="#1F1A17" d="M90.184,36.158c0.812-3.33,1.832-5.641,3.001-6.931s2.7-2.64,4.649-4.05c2.101-1.471,4.588-2.7,7.469-3.721
	s6.06-1.29,9.571-0.752l24.69,3.42c1.021,0.121,1.889,0.121,2.7,0c0.779-0.121,1.53-0.181,2.25-0.181c1.229,0,2.788-0.27,4.681-0.84
	c1.92-0.538,3.391-1.351,4.439-2.399l8.522,13.982c-1.049,1.17-1.981,1.98-2.789,2.459c-0.84,0.451-1.8,0.961-2.909,1.471
	c-3.391,1.592-7.02,2.552-10.889,2.909c-1.651,0.12-3.271,0.149-4.83,0.089c-1.591-0.061-3.238,0-4.95,0.181
	c-3.149-0.538-6.328-1.021-9.51-1.438c-3.211-0.45-6.421-0.9-9.631-1.379c-3.512,0-5.883,0.361-7.123,1.049
	c-0.658,0.361-1.679,1.021-3.09,1.949c-1.41,0.929-2.82,2.311-4.23,4.139c3.122,0.33,6.271,0.929,9.511,1.801
	c3.21,0.839,6.059,1.739,8.519,2.671l-9.149,22.682c4.589,2.64,7.771,4.741,9.599,6.36c1.801,1.619,3.239,3.479,4.291,5.58
	c1.531,2.701,2.52,5.313,2.941,7.832c0.45,2.52,0.631,4.77,0.57,6.778c-0.06,3.512-0.868,7.381-2.491,11.64
	c-1.619,4.231-4.648,8.04-9.089,11.371c-3.688,2.82-7.32,5.729-10.832,8.698c-3.511,3.002-6.991,6.481-10.438,10.472
	c4.319,2.222,6.481,5.761,6.481,10.619c0,3.299-1.141,6.091-3.451,8.462c-2.311,2.338-5.16,3.512-8.49,3.512
	c-3.271,0-6.091-1.17-8.431-3.512c-2.338-2.37-3.511-5.159-3.511-8.462c0-4.802,2.161-8.341,6.481-10.619
	c-3.392-3.99-6.84-7.47-10.322-10.472c-3.48-2.969-7.158-5.881-10.949-8.698c-4.38-3.331-7.381-7.157-8.939-11.371
	c-1.592-4.259-2.46-8.128-2.552-11.64c0-2.009,0.181-4.259,0.599-6.778s1.35-5.131,2.82-7.832c1.17-2.101,2.641-3.961,4.439-5.58
	c1.772-1.619,4.922-3.721,9.451-6.36l-9.149-22.682c2.579-0.932,5.489-1.831,8.699-2.671c3.239-0.872,6.332-1.471,9.329-1.801
	c-1.35-1.832-2.729-3.21-4.139-4.139c-1.41-0.932-2.459-1.591-3.182-1.949c-1.229-0.69-3.6-1.049-7.122-1.049
	c-3.149,0.482-6.329,0.933-9.538,1.379c-3.183,0.418-6.39,0.9-9.632,1.438c-1.56-0.181-3.149-0.241-4.769-0.181
	c-1.62,0.061-3.271,0.028-4.979-0.089c-3.75-0.361-7.381-1.321-10.89-2.909c-1.049-0.51-2.009-1.02-2.849-1.471
	c-0.868-0.479-1.801-1.289-2.85-2.459l8.611-13.982c1.049,1.049,2.52,1.861,4.439,2.399c1.889,0.57,3.42,0.84,4.589,0.84
	c0.779,0,1.56,0.06,2.339,0.181s1.68,0.121,2.672,0l24.63-3.42c3.511-0.538,6.778-0.301,9.78,0.691
	c3.029,0.988,5.52,2.311,7.44,3.961c1.921,1.592,3.479,2.941,4.62,4.079c1.142,1.142,2.102,3.392,2.85,6.722"/>
<linearGradient id="SVGID_1_" gradientUnits="userSpaceOnUse" x1="-134.5918" y1="372.3311" x2="-78.0826" y2="372.454" gradientTransform="matrix(-3.5434 0 0 3.5434 -371.3463 -1226.9175)">
	<stop  offset="0" style="stop-color:#FFFFFF"/>
	<stop  offset="1" style="stop-color:#FFFFFF;stop-opacity:0"/>
</linearGradient>
<path fill="url(#SVGID_1_)" d="M87.09,46.115c0-3.869-0.867-7.172-2.668-9.9c-1.771-2.729-3.688-4.861-5.762-6.36
	c-3.21-2.37-7.919-3.54-14.131-3.54c-1.531,0-4.531,0.33-8.972,0.988c-3.632,0.571-6.569,0.989-8.791,1.262
	c-2.222,0.27-3.721,0.479-4.501,0.66c-2.221,0.301-4.56,0.24-7.02-0.182c-0.928-0.24-1.98-0.449-3.117-0.658
	c-1.141-0.209-2.102-0.66-2.85-1.351l-4.23,6.839c2.398,1.229,4.95,2.102,7.65,2.551c4.439,0.779,8.341,0.932,11.7,0.539
	c0.989-0.121,2.278-0.418,3.901-0.868c1.619-0.481,3.781-0.933,6.541-1.321c5.938-0.961,9.061-1.41,9.422-1.41
	c2.281,0,4.26,0.269,5.971,0.871c1.711,0.599,3.211,1.229,4.561,1.92c3.121,1.41,6.271,4.742,9.51,9.961h2.789 M93.333,46.115h2.821
	c3.299-5.279,6.42-8.61,9.422-9.961c1.41-0.69,2.94-1.321,4.648-1.92c1.712-0.599,3.66-0.871,5.882-0.871
	c0.422,0,3.54,0.449,9.423,1.41c2.788,0.389,5.038,0.84,6.661,1.321c1.651,0.45,2.941,0.751,3.869,0.868
	c3.359,0.39,7.229,0.24,11.7-0.539c2.7-0.449,5.22-1.321,7.562-2.551l-4.23-6.839c-0.69,0.69-1.619,1.141-2.76,1.351
	c-1.142,0.209-2.19,0.418-3.119,0.658c-2.459,0.422-4.801,0.482-7.019,0.182c-0.78-0.182-2.279-0.391-4.501-0.66
	s-5.19-0.69-8.879-1.262c-4.38-0.658-7.381-0.988-8.973-0.988c-6.151,0-10.86,1.17-14.131,3.54c-2.009,1.499-3.901,3.632-5.669,6.36
	c-1.801,2.729-2.7,6.031-2.7,9.9 M90.191,79.235c-5.67,0-11.131-0.45-16.35-1.321c-5.73,2.041-9.9,5.251-12.48,9.57
	c-2.221,3.749-3.33,7.891-3.33,12.392c0,2.7,0.658,5.67,2.009,8.94c1.351,3.238,3.54,6.18,6.601,8.819
	c3.452,2.881,7.229,6.03,11.34,9.45c4.078,3.419,8.16,7.44,12.211,12.001c4.109-4.561,8.188-8.582,12.298-12.001
	c4.11-3.42,7.859-6.569,11.251-9.45c3.121-2.64,5.312-5.581,6.629-8.819c1.318-3.271,1.981-6.24,1.981-8.94
	c0-4.501-1.081-8.64-3.239-12.392c-2.519-4.319-6.722-7.529-12.571-9.57C101.381,78.785,95.92,79.235,90.191,79.235 M90.191,63.244
	c-6.871,0-13.441-0.691-19.77-2.041l4.199,10.832c5.159,0.812,10.35,1.229,15.57,1.229c5.339,0,10.559-0.421,15.629-1.229
	l4.23-10.832C103.779,62.553,97.149,63.244,90.191,63.244 M90.191,146.646c-3.99,0-5.971,1.98-5.971,5.971
	c0,3.989,1.98,5.998,5.971,5.998c3.989,0,5.97-2.009,5.97-5.998C96.161,148.626,94.181,146.646,90.191,146.646 M90.191,50.938
	c-3.99,0-7.859,0.33-11.641,0.989c-3.781,0.69-7.441,1.499-10.949,2.431c6.871,1.8,14.4,2.729,22.59,2.729
	c8.309,0,15.838-0.932,22.588-2.729c-3.391-0.932-6.991-1.74-10.8-2.431C98.17,51.268,94.24,50.938,90.191,50.938 M93.341,101.729
	l7.32,0.088c1.98,0,2.97,0.989,2.97,3.002c0,1.98-0.989,2.969-2.97,2.969h-7.32v7.562c0,2.041-1.049,3.09-3.149,3.09
	c-2.041,0-3.09-1.049-3.09-3.09v-7.562h-7.563c-1.92,0-2.881-0.988-2.881-2.969c0-2.01,0.961-3.002,2.881-3.002h7.563v-7.2
	c0-2.129,1.049-3.182,3.09-3.182c2.101,0,3.149,1.049,3.149,3.182v7.123"/>
</svg>
