<?xml version="1.0" encoding="utf-8"?>
<!-- Generator: Adobe Illustrator 16.0.3, SVG Export Plug-In . SVG Version: 6.00 Build 0)  -->
<!DOCTYPE svg PUBLIC "-//W3C//DTD SVG 1.1//EN" "http://www.w3.org/Graphics/SVG/1.1/DTD/svg11.dtd">
<svg version="1.1" id="Layer_1" image-rendering="optimizeQuality" shape-rendering="geometricPrecision"
	 xmlns="http://www.w3.org/2000/svg" xmlns:xlink="http://www.w3.org/1999/xlink" x="0px" y="0px" width="177.17px"
	 height="177.17px" viewBox="0 0 177.17 177.17" enable-background="new 0 0 177.17 177.17" xml:space="preserve">
<path fill="#1F1A17" d="M83.259,148.146c-9.209-0.599-17.717-2.969-25.59-7.157c-7.831-4.139-14.521-9.479-20.041-15.991
	c-3.87-4.561-7.502-10.081-10.922-16.53c-3.451-6.42-6.18-13.259-8.221-20.459c-2.338-8.401-3.84-17.189-4.439-26.43
	c-0.631-9.21-0.932-17.753-0.932-25.619V16.817c0,0,4.561,0,13.681,0c9.089,0,20.909,0,35.47,0h58.951
	c0.539,0,0.779,1.438,0.751,4.291c-0.028,2.881-0.209,5.19-0.57,6.959c-0.209,1.41-0.779,3.392-1.651,5.971
	c-0.899,2.579-2.339,5.701-4.411,9.39c-0.929,1.889-3.15,4.621-6.662,8.221c-3.539,3.601-7.562,7.799-12.15,12.541
	c-2.64,2.699-4.681,6.091-6.18,10.201c-1.498,4.078-2.129,7.799-1.888,11.162c2.162-1.772,4.532-3.211,7.123-4.32
	c12.419-4.439,21.438-10.889,26.969-19.318c0.421-0.539,1.739-2.909,3.961-7.158c1.17-2.221,2.19-3.748,3.002-4.56
	c1.108-1.109,2.731-1.74,4.829-1.86c3.271-0.148,5.822,1.41,7.65,4.77c2.459-0.72,4.648-1.021,6.602-0.9
	c3.271,1.229,5.641,2.551,7.122,3.961c3.001,3.002,4.922,5.971,5.85,8.973c0.9,3.001,1.351,6.211,1.351,9.659
	c0,4.922-3.029,11.431-9.148,19.532c-7.158,9.301-10.949,16.409-11.399,21.26c0,2.102-0.21,4.473-0.631,7.123
	c-0.361,1.832-1.081,3.578-2.19,5.279c-0.779,1.169-1.289,1.98-1.53,2.398c-0.269,0.45-0.751,1.109-1.47,1.98
	c-0.511,0.72-0.961,1.262-1.322,1.619c-0.33,0.391-0.779,0.9-1.322,1.56c-0.631,0.751-1.438,1.62-2.459,2.64
	c3.119,8.551,4.38,17.37,3.781,26.431c-11.641-4.139-21.438-10.665-29.34-19.591c-1.949,6.629-5.762,12-11.431,16.079
	c-4.681-3.271-8.401-7.622-11.161-12.989"/>
<linearGradient id="SVGID_1_" gradientUnits="userSpaceOnUse" x1="-134.2935" y1="372.4521" x2="-78.0585" y2="372.4521" gradientTransform="matrix(-3.5434 0 0 3.5434 -375.6744 -1230.4995)">
	<stop  offset="0" style="stop-color:#FFFFFF"/>
	<stop  offset="1" style="stop-color:#FFFFFF;stop-opacity:0"/>
</linearGradient>
<path fill="url(#SVGID_1_)" d="M23.744,23.071c0.061,0,0,1.591-0.149,4.77c-0.18,3.21-0.269,6.661-0.269,10.351
	c-0.061,7.32-0.061,14.882,0,22.709c0.06,7.831,1.108,15.631,3.149,23.433c2.01,7.501,4.199,13.89,6.602,19.203
	c2.399,5.312,5.011,9.871,7.831,13.741c4.199,6.328,9.961,11.7,17.222,16.079c7.26,4.412,14.85,7.289,22.77,8.64
	c-0.539-2.881-0.779-5.702-0.719-8.463c0.119-2.101,1.108-3.149,3-3.149c2.162,0,3.122,1.049,2.91,3.149
	c-0.182,7.739,2.579,14.373,8.248,19.861c4.44-4.681,6.871-10.109,7.2-16.32c0.121-2.07,1.17-2.971,3.179-2.732
	c1.86,0.061,2.789,1.141,2.789,3.238c0,0-0.061,0.241-0.148,0.72c2.398-0.78,4.922-1.86,7.561-3.271
	c1.68-1.17,3.063-0.868,4.111,0.871c1.049,1.769,0.598,3.15-1.41,4.139c-2.52,1.29-4.412,2.25-5.702,2.91
	c5.039,5.158,10.772,9.301,17.222,12.479c-0.691-8.16-2.941-15.838-6.69-23.131c-0.989-1.498-0.751-2.849,0.72-4.021
	c1.65-1.289,3.029-1.109,4.139,0.599c0.389,0.599,0.988,1.651,1.739,3.179c1.229-1.229,2.069-2.162,2.46-2.729
	c0.418-0.539,1.141-1.711,2.16-3.512c1.021-1.828,1.769-3.33,2.25-4.5c0.511-1.471,0.752-2.64,0.66-3.578
	c-0.089-0.9-0.182-1.889-0.241-3.03c0.538-3.451,1.739-6.69,3.579-9.751c1.859-3.029,4.199-6.75,7.079-11.162
	c2.761-4.199,4.862-7.38,6.329-9.478c1.47-2.13,2.579-4.802,3.33-8.101c0.539-1.981,0.539-4.411,0-7.232
	c-0.51-2.849-1.68-5.07-3.419-6.661c-2.7-2.729-5.312-3.99-7.831-3.781c-0.812,0-1.921,0.33-3.299,0.988
	c-1.379,0.631-2.431,1.861-3.211,3.689c-1.499,3.33-2.76,5.01-3.78,5.01c-1.438,0-2.25-0.84-2.371-2.459
	c0-0.361,0.482-1.832,1.41-4.411c0.539-1.169,1.23-2.399,2.102-3.688c1.141-1.531,1.619-2.162,1.499-1.921
	c-0.929-3.359-2.491-3.93-4.649-1.769c-0.63,0.631-1.378,1.86-2.189,3.601c-0.84,1.769-2.13,4.139-3.869,7.122
	c-2.069,3.479-4.26,6.271-6.602,8.461c-2.339,2.162-4.411,3.93-6.24,5.252c-1.049,0.779-2.338,1.651-3.869,2.64
	c-1.53,1.021-3.579,2.041-6.151,3.09c-2.041,0.812-4.319,1.829-6.811,3.03s-4.709,2.729-6.63,4.621
	c-2.699,2.64-4.769,5.878-6.239,9.751c-0.779,2.162-1.049,4.83-0.868,8.012c0.511,1.981-0.481,2.97-3.001,2.97
	c-1.889,0-2.941-0.96-3.182-2.909c0-6.602,1.889-12.629,5.641-18.089c-1.229-3.75-1.559-7.86-0.961-12.3
	c0.511-3.578,1.772-7.408,3.721-11.49c1.981-4.051,5.938-8.582,11.909-13.561c12.15-10.082,17.895-20.46,17.222-31.111
	c0,0-4.979,0-14.972,0c-9.988,0-19.382,0-28.169,0H23.751 M142.944,76.499c1.711-1.05,2.729-2.46,3.09-4.231
	c-0.061-1.92,0.84-2.969,2.699-3.15c2.069-0.24,3.122,0.631,3.183,2.641c-0.241,3.869-1.949,6.931-5.191,9.209
	c-1.53,1.229-2.94,1.141-4.23-0.329C141.204,79.046,141.353,77.667,142.944,76.499 M116.844,118.409
	c-0.751-1.169-1.05-2.398-0.872-3.688c0.57-3.749,2.672-5.313,6.24-4.741c1.049,0.181,1.889,0.538,2.551,1.049
	c0.209-0.27,0.57-0.929,1.049-1.921c0.631-1.889,1.86-2.52,3.689-1.949c1.8,0.72,2.52,2.041,2.101,3.962
	c-2.64,6.75-7.409,11.37-14.315,13.89c-2.009,0.6-3.33,0-3.961-1.74c-0.72-1.889-0.182-3.182,1.591-3.869
	c0.329-0.18,0.659-0.361,0.96-0.481c0.301-0.149,0.6-0.329,0.961-0.511"/>
</svg>
