<?xml version="1.0" encoding="utf-8"?>
<!-- Generator: Adobe Illustrator 16.0.3, SVG Export Plug-In . SVG Version: 6.00 Build 0)  -->
<!DOCTYPE svg PUBLIC "-//W3C//DTD SVG 1.1//EN" "http://www.w3.org/Graphics/SVG/1.1/DTD/svg11.dtd">
<svg version="1.1" id="Layer_1" image-rendering="optimizeQuality" shape-rendering="geometricPrecision"
	 xmlns="http://www.w3.org/2000/svg" xmlns:xlink="http://www.w3.org/1999/xlink" x="0px" y="0px" width="177.17px"
	 height="177.17px" viewBox="0 0 177.17 177.17" enable-background="new 0 0 177.17 177.17" xml:space="preserve">
<g>
	<path fill="#1F1A17" stroke="#1F1A17" stroke-width="0.076" d="M19.162,126.517c3.332,0,6.18,1.17,8.522,3.479
		c2.339,2.311,3.512,5.131,3.512,8.49c0,3.271-1.169,6.091-3.512,8.462c-2.339,2.398-5.19,3.579-8.522,3.579
		c-3.299,0-6.119-1.17-8.461-3.579c-2.339-2.371-3.512-5.191-3.512-8.462c0-3.359,1.17-6.18,3.512-8.49
		C13.039,127.687,15.86,126.517,19.162,126.517z M34.435,22.978c2.881-2.52,9.33-4.62,19.351-6.328
		c10.021-1.68,21.568-2.551,34.619-2.551c13.291,0,24.98,0.899,35.072,2.639c10.081,1.769,16.441,3.963,19.081,6.602l-5.549,21.091
		l2.459,13.802l7.739,13.439l7.47,54.662l-4.291,1.679l-24.092-40.589l-0.539,48.333l-5.971,1.049l-18.361-48.602l-9.84,52.29
		h-6.091l-9.841-52.113L57.471,136.8l-6.06-1.049l-0.538-48.333l-24.181,40.682l-4.11-1.92l7.289-54.423l7.83-13.44l2.459-13.982
		l-5.729-21.366L34.435,22.978z M125.485,136.2c3.359,0,6.213,1.142,8.551,3.451c2.339,2.311,3.512,5.16,3.512,8.49
		c0,3.271-1.17,6.092-3.512,8.43c-2.338,2.339-5.191,3.512-8.551,3.512c-3.27,0-6.09-1.169-8.43-3.512
		c-2.338-2.338-3.511-5.158-3.511-8.43c0-3.33,1.169-6.18,3.511-8.49C119.396,137.342,122.216,136.2,125.485,136.2z
		 M157.858,126.509c3.331,0,6.151,1.17,8.462,3.48c2.31,2.311,3.479,5.131,3.479,8.49c0,3.27-1.17,6.091-3.479,8.461
		c-2.311,2.398-5.131,3.579-8.462,3.579c-3.359,0-6.18-1.169-8.551-3.579c-2.338-2.37-3.511-5.191-3.511-8.461
		c0-3.359,1.169-6.18,3.511-8.49C151.679,127.679,154.499,126.509,157.858,126.509z M88.585,140.581c3.331,0,6.18,1.168,8.49,3.511
		c2.311,2.339,3.451,5.19,3.451,8.522c0,3.299-1.141,6.119-3.451,8.461c-2.311,2.339-5.159,3.512-8.49,3.512
		c-3.271,0-6.12-1.169-8.489-3.512c-2.371-2.338-3.541-5.159-3.541-8.461c0-3.331,1.17-6.18,3.541-8.522
		C82.465,141.753,85.314,140.581,88.585,140.581z M51.684,136.201c3.331,0,6.152,1.141,8.462,3.451
		c2.311,2.311,3.479,5.159,3.479,8.49c0,3.271-1.169,6.091-3.479,8.43c-2.31,2.338-5.131,3.511-8.462,3.511
		c-3.359,0-6.211-1.169-8.55-3.511c-2.339-2.339-3.512-5.159-3.512-8.43c0-3.331,1.169-6.18,3.512-8.49
		C45.473,137.342,48.324,136.201,51.684,136.201z"/>
	
		<linearGradient id="SVGID_1_" gradientUnits="userSpaceOnUse" x1="-134.4185" y1="373.2236" x2="-78.0308" y2="373.0936" gradientTransform="matrix(-3.5434 0 0 3.5434 -374.7134 -1233.2495)">
		<stop  offset="0" style="stop-color:#FFFFFF"/>
		<stop  offset="1" style="stop-color:#FFFFFF;stop-opacity:0"/>
	</linearGradient>
	<path fill="url(#SVGID_1_)" stroke="#1F1A17" stroke-width="0.076" d="M41.561,26.178c10.701,4.44,26.281,6.661,46.652,6.661
		c20.82,0,36.539-2.278,47.223-6.838c-10.262-4.051-25.92-6.06-46.95-6.06c-10.082,0-19.291,0.538-27.631,1.651
		c-8.37,1.109-14.79,2.64-19.29,4.588L41.561,26.178z M88.571,146.761c-3.93,0-5.881,1.98-5.881,5.878
		c0,3.869,1.948,5.821,5.881,5.821c3.87,0,5.79-1.949,5.79-5.821C94.36,148.737,92.44,146.761,88.571,146.761z M43.839,58.256
		c11.311,2.881,26.101,4.291,44.371,4.291c18.751,0,33.722-1.438,44.913-4.38l-1.322-8.43c-11.398,2.7-25.951,4.051-43.59,4.051
		c-17.518,0-31.802-1.322-42.875-3.962l-1.498,8.43H43.839z M41.648,63.537L35.92,73.646c2.82-1.142,5.701-1.68,8.609-1.68
		c7.859,0,14.132,3.178,18.813,9.57c3.512-2.909,7.441-4.38,11.789-4.38c5.609,0,10.109,2.19,13.44,6.602
		c3.749-4.11,8.22-6.18,13.44-6.18c4.23,0,8.101,1.438,11.611,4.319c4.922-6.271,11.279-9.39,19.082-9.39
		c2.969,0,5.938,0.538,8.879,1.651l-6.151-10.531c-11.37,3.271-27,4.922-46.861,4.922c-20.219,0-35.852-1.68-46.922-5.011V63.537z
		 M81.016,84.539l7.47,42.992l7.469-42.482c-0.181,0.12-0.57,0.422-1.229,0.9c-1.351,2.639-3.392,3.961-6.151,3.961
		c-3.001,0-4.922-1.319-5.79-3.961c-0.361-0.361-0.96-0.84-1.771-1.41H81.016z M56.684,82.859v40.709l14.489-39.902
		c-1.109,0.39-2.041,0.929-2.821,1.559c-1.169,1.471-2.76,2.222-4.74,2.222c-2.339,0-4.23-1.049-5.641-3.09
		c-0.149-0.24-0.362-0.481-0.6-0.751c-0.24-0.27-0.482-0.511-0.691-0.751L56.684,82.859z M106.064,84.087l14.4,39.481V83.397
		c-0.149,0.241-0.422,0.511-0.779,0.868c-1.17,2.459-3.09,3.688-5.79,3.688c-2.222,0-4.051-0.929-5.461-2.82
		c-1.591-0.69-2.37-1.049-2.37-1.049V84.087z M128.384,79.166l18.901,32.611l-4.83-29.701c-3.331-2.339-6.601-3.512-9.751-3.512
		c-1.23,0-2.672,0.209-4.32,0.599V79.166z M49.033,78.745c-1.35-0.422-2.849-0.631-4.5-0.631c-3.578,0-6.898,1.108-10.021,3.331
		l-4.829,30.42L49.033,78.745z M43.754,34.253l2.64,9.929c11.491,2.52,25.53,3.78,42.181,3.78c16.47,0,30.512-1.261,42.092-3.78
		l2.732-10.021c-10.89,3.299-25.86,4.922-44.913,4.922C69.914,39.083,55.004,37.492,43.754,34.253z M125.465,142.377
		c-3.841,0-5.79,1.921-5.79,5.79s1.949,5.789,5.79,5.789c3.93,0,5.91-1.92,5.91-5.789S129.395,142.377,125.465,142.377z
		 M51.662,142.377c-3.93,0-5.91,1.921-5.91,5.79s1.98,5.79,5.91,5.79c3.842,0,5.791-1.921,5.791-5.79S55.504,142.377,51.662,142.377
		z M157.837,132.686c-3.93,0-5.91,1.948-5.91,5.821c0,3.93,1.98,5.879,5.91,5.879c3.842,0,5.79-1.949,5.79-5.879
		C163.627,134.638,161.679,132.686,157.837,132.686z M19.148,132.686c-3.869,0-5.818,1.949-5.818,5.822
		c0,3.93,1.949,5.878,5.818,5.878c3.901,0,5.883-1.948,5.883-5.878C25.031,134.639,23.05,132.686,19.148,132.686z"/>
</g>
</svg>
