<svg width="50mm" height="50mm" clip-rule="evenodd" fill-rule="evenodd" image-rendering="optimizeQuality" shape-rendering="geometricPrecision" text-rendering="geometricPrecision" viewBox="0 0 50 50" xmlns="http://www.w3.org/2000/svg"><defs><linearGradient id="a" x1="174.21" x2="211.59" y1="44.774" y2="44.774" gradientTransform="translate(-171.06 -20.508) scale(1.0164)" gradientUnits="userSpaceOnUse"><stop stop-color="#968270" offset="0"/><stop stop-color="#342c22" offset="1"/></linearGradient></defs><g stroke="#000" stroke-linecap="round" stroke-linejoin="round"><path d="M25.004 6.4c-1.691 0-3.063 1.297-3.063 2.896 0 1.6 1.372 2.896 3.063 2.896 1.69 0 3.06-1.297 3.06-2.896 0-1.6-1.37-2.896-3.06-2.896zm-2.016 29.611c-.012 1.186-1.317 1.615-2.326 2.103-4.299 2.078-9.233-3.354-14.263 1.353l2.051 4.122c5.867-5.464 12.526 3.426 16.55-3.185v.01c4.022 6.61 10.682-2.278 16.548 3.186l2.051-4.123c-5.03-4.707-9.963.725-14.263-1.353-1.008-.488-2.313-.918-2.326-2.103m3.222-6.297l4.489-5.504-9.123-12.017h-.594v-.01H24.4l-9.123 12.016 4.489 5.504-2.816 4.508c-.026.357 4.132 1.883 8.049 1.883 3.916 0 8.075-1.526 8.048-1.883z" fill="url(#a)" stroke-width=".8"/><g fill="none"><path d="M16.952 34.222c3.85-2.34 11.869-2.434 16.097 0M19.749 29.744c4.027-1.148 6.455-1.184 10.484-.02" stroke-width=".8"/><path d="M22.195 22.953h5.62m-2.81-2.81v5.62"/></g></g><path d="M16.952 34.221s9.256 3.028 7.007 2.035c-6.035-2.667 2.713-3.01 8.48-2.281-6.694-2.17-8.583-2.018-15.487.246z" opacity=".2" stroke="#000" stroke-width=".265"/><path d="M25.004 6.4c-.48 0-.933.107-1.338.294 4.025 1.299 3.885 4.095 0 5.203.405.187.858.294 1.338.294 1.69 0 3.06-1.297 3.06-2.896S26.695 6.4 25.005 6.4zm-.603 5.793c2.71 3.894 5.125 8.005 7.646 12.027l-4.213 4.92 2.585 4.265 2.63.816-2.817-4.497 4.49-5.504-9.124-12.017h-.594v-.01zM25.309 36.291c2.818 8.122 14.522-1.72 17.618 4.538l.673-1.351s-.846-1.34-3.75-1.906c-3.422-.207-12.202 2.615-12.84-1.362z" opacity=".2"/></svg>