<svg width="50mm" height="50mm" clip-rule="evenodd" fill-rule="evenodd" image-rendering="optimizeQuality" shape-rendering="geometricPrecision" text-rendering="geometricPrecision" viewBox="0 0 50 50" xmlns="http://www.w3.org/2000/svg" xmlns:xlink="http://www.w3.org/1999/xlink"><defs><linearGradient id="b" x1="14.558" x2="35.921" y1="25.93" y2="25.93" gradientTransform="matrix(1.0739 0 0 1.0269 -2.26 -.38)" gradientUnits="userSpaceOnUse" xlink:href="#a"/><linearGradient id="a" x1="9.241" x2="40.761" y1="27.266" y2="27.266" gradientTransform="matrix(1.0155 0 0 1.0103 -.389 .482)" gradientUnits="userSpaceOnUse"><stop stop-color="#737373" offset="0"/><stop stop-color="#303030" offset="1"/></linearGradient><linearGradient id="c" x1="21.347" x2="29.141" y1="10.312" y2="10.312" gradientTransform="matrix(.83475 0 0 .90883 3.752 1.094)" gradientUnits="userSpaceOnUse" xlink:href="#a"/><filter id="d" x="-.081" y="-.034" width="1.162" height="1.068" color-interpolation-filters="sRGB"><feGaussianBlur stdDeviation=".407"/></filter><filter id="e" x="-.152" y="-.084" width="1.304" height="1.167" color-interpolation-filters="sRGB"><feGaussianBlur stdDeviation=".617"/></filter><linearGradient id="f" x1="5.612" x2="25.919" y1="42.295" y2="42.295" gradientTransform="matrix(1.0856 0 0 .94062 -2.555 2.942)" gradientUnits="userSpaceOnUse" xlink:href="#a"/><linearGradient id="g" x1="24.848" x2="45.155" y1="42.295" y2="42.295" gradientTransform="matrix(1.0856 0 0 .94062 -2.555 2.942)" gradientUnits="userSpaceOnUse" xlink:href="#a"/><filter id="h" x="-.11" y="-.222" width="1.22" height="1.444" color-interpolation-filters="sRGB"><feGaussianBlur stdDeviation=".417"/></filter><filter id="i" x="-.143" y="-.292" width="1.286" height="1.583" color-interpolation-filters="sRGB"><feGaussianBlur stdDeviation=".346"/></filter><filter id="j" x="-.195" y="-.075" width="1.389" height="1.149" color-interpolation-filters="sRGB"><feGaussianBlur stdDeviation=".124"/></filter><filter id="k" x="-.215" y="-.173" width="1.43" height="1.346" color-interpolation-filters="sRGB"><feGaussianBlur stdDeviation=".27"/></filter></defs><path d="M31.016 32.267l4.726-5.943-10.19-12.975h-.7v-.01h-.712L13.95 26.312l4.726 5.943-1.543 4.867c-.03.386 3.095 2.034 7.713 2.034s7.745-1.648 7.714-2.034z" fill="url(#b)" stroke-linecap="round" stroke="#000"/><path d="M24.826 7.698c-1.55 0-2.807 1.239-2.807 2.767s1.257 2.767 2.807 2.767 2.805-1.239 2.805-2.767c0-1.528-1.255-2.767-2.805-2.767z" fill="url(#c)" stroke-linejoin="round" stroke-linecap="round" stroke="#000"/><path d="M22.096 24.66h5.5m-2.75-2.75v5.5" fill="none" stroke-linejoin="round" stroke-linecap="round" stroke="#000"/><path transform="matrix(1.0334 0 0 1.0218 592.95 439.08)" d="M-549.75-422.16c3.412 1.813.501 4.931-1.526 5.206.462.197.978.31 1.526.31 5.528-1.76 1.318-5.644 0-5.516zm-.688 5.518c3.092 4.115 5.848 8.46 8.724 12.71l-4.806 5.199 1.09 4.422 3 .863-1.354-4.67 4.573-5.815-9.86-12.698h-.678v-.01z" filter="url(#d)" opacity=".2" style="mix-blend-mode:normal"/><path d="M26.073 35.618c-3.087.012-6.397.504-8.369 1.768 2.182 1.501 5.798 1.826 8.885 1.77-7.14-1.445 2.03-2.966 4.844-3.001-1.522-.368-3.71-.544-5.36-.537z" opacity=".15"/><path d="M17.134 37.123s1.925-1.566 7.714-1.566 7.713 1.566 7.713 1.566M18.676 32.256s1.863-1.021 6.175-1.022c4.312 0 6.175 1.022 6.175 1.022" fill="none" stroke="#000"/><path d="M18.872 31.579s.003.008 0 0l-4.17-5.259 9.735-12.43-8.076 12.384z" fill="#fff" opacity=".3" filter="url(#e)"/><path d="M25 39.156c-5.617 0-7.296-1.77-7.296-1.77s1.679-1.77 7.296-1.77 7.296 1.77 7.296 1.77-1.679 1.77-7.296 1.77z" opacity=".2"/><path d="M22.65 39.156c-5.193 6.258-11.79-2.915-18.533 3.487l1.968 3.653C10.483 40.624 25 51.51 25 39.156z" fill="url(#f)" stroke-linecap="round" stroke-linejoin="round" stroke="#000"/><path d="M27.35 39.156c5.193 6.258 11.79-2.915 18.532 3.487l-1.968 3.653C39.516 40.624 25 51.51 25 39.156z" fill="url(#g)" stroke-linecap="round" stroke-linejoin="round" stroke="#000"/><path d="M4.834 42.735l1.403 2.59-.346-2.333c3.12-2.388 5.958-1.62 8.041-1.599 0 0-5.852-1.955-9.098 1.342z" fill="#fff" filter="url(#h)" opacity=".3"/><path d="M45.242 42.769l-.49.889c-1.905-2.325-3.739-2.756-5.319-2.76 0 0 3.018-.718 5.809 1.871z" fill="#fff" filter="url(#i)" opacity=".2"/><path d="M23.672 12.366c-.25.066-2.603-2.42.418-3.975-.09-.01-1.758 2.142-.418 3.975z" fill="#fff" filter="url(#j)" opacity=".2"/><path transform="matrix(1.0007 0 0 .98931 -586.04 102.79)" d="M603.76-67.566l1.05-3.309s.37-.256 1.454-.433c0 0-.745 2.224.508 3.042-2.154.336-2.536.554-3.012.7z" fill="#fff" filter="url(#k)" opacity=".1"/></svg>