<svg width="50mm" height="50mm" clip-rule="evenodd" fill-rule="evenodd" image-rendering="optimizeQuality" shape-rendering="geometricPrecision" text-rendering="geometricPrecision" viewBox="0 0 50 50" xmlns="http://www.w3.org/2000/svg" xmlns:xlink="http://www.w3.org/1999/xlink"><defs><linearGradient id="a" x1="-497.87" x2="-466.88" y1="13.855" y2="13.855" gradientTransform="matrix(1.011 0 0 1.052 512.68 12.69)" gradientUnits="userSpaceOnUse"><stop stop-color="#978672" offset="0"/><stop stop-color="#342c22" offset="1"/></linearGradient><linearGradient id="b" x1="272.22" x2="294.03" y1="-517.16" y2="-517.16" gradientTransform="matrix(.94693 0 0 .9696 -252.93 543)" gradientUnits="userSpaceOnUse" xlink:href="#a"/><linearGradient id="c" x1="314.87" x2="272.15" y1="-516.97" y2="-516.97" gradientTransform="matrix(-.94693 0 0 .9696 302.93 543.01)" gradientUnits="userSpaceOnUse" xlink:href="#a"/><linearGradient id="d" x1="272.88" x2="293.31" y1="-482.76" y2="-482.76" gradientTransform="matrix(1.098 0 0 1.0515 -285.59 533.53)" gradientUnits="userSpaceOnUse" xlink:href="#a"/><linearGradient id="e" x1="279.55" x2="286.66" y1="-497.61" y2="-497.61" gradientTransform="matrix(1.098 0 0 1.0515 -285.59 533.53)" gradientUnits="userSpaceOnUse"><stop stop-color="#968270" offset="0"/><stop stop-color="#342c22" offset="1"/></linearGradient></defs><g stroke="#000" stroke-linecap="round" stroke-linejoin="round"><path d="M22.665 38.406c-5.16 6.013-11.715-2.801-18.415 3.35l1.955 3.51c4.37-5.45 18.795 5.01 18.795-6.86z" fill="url(#b)"/><path d="M27.335 38.406c5.16 6.013 11.715-2.801 18.415 3.35l-1.955 3.51C39.425 39.816 25 50.276 25 38.406z" fill="url(#c)"/><path d="M30.985 31.791l4.4-5.787-9.488-12.635h-.653v-.01h-.662l-9.489 12.634 4.4 5.788-1.929 4.74c-.029.375 3.375 1.98 7.675 1.98s7.705-1.605 7.676-1.98z" fill="url(#d)"/><path d="M25.245 7.267c-1.857 0-3.362 1.363-3.362 3.045 0 1.681 1.506 3.045 3.362 3.045s3.36-1.364 3.36-3.045c0-1.682-1.504-3.045-3.36-3.045z" fill="url(#e)"/><path d="M22.159 24.671h6.17m-3.085-2.954v5.908" fill="none"/></g><path d="M25.245 7.266c-.527 0-1.025.114-1.469.31 4.42 1.365 4.266 4.305 0 5.47.445.197.942.31 1.469.31 1.857 0 3.36-1.364 3.36-3.045 0-1.681-1.504-3.044-3.36-3.045zm-.662 6.092c2.975 4.094 5.627 8.417 8.395 12.646l-4.625 5.173 1.54 4.4 2.888.86-1.795-4.647 4.928-5.787-10.016-12.635h-.652v-.01z" opacity=".15"/><path d="M24.903 35.055c-2.875.012-5.502.233-7.337 1.464 2.03 1.462 4.944 2.036 7.818 1.98-6.648-1.406 1.89-2.887 4.51-2.922-1.417-.357-3.454-.528-4.991-.522z" opacity=".15"/><path d="M17.566 36.519s2.316-1.523 7.675-1.523c5.36 0 7.675 1.523 7.675 1.523M19.494 31.781s1.735-.994 5.75-.994 5.75.994 5.75.994" fill="none" stroke="#000"/></svg>