<svg width="50mm" height="50mm" clip-rule="evenodd" fill-rule="evenodd" image-rendering="optimizeQuality" shape-rendering="geometricPrecision" text-rendering="geometricPrecision" viewBox="0 0 50 50" xmlns="http://www.w3.org/2000/svg" xmlns:xlink="http://www.w3.org/1999/xlink"><defs><linearGradient id="b" x1="-736.5" x2="-696.5" y1="-367.96" y2="-367.96" gradientTransform="matrix(.99995 0 0 .99606 740.69 393.31)" gradientUnits="userSpaceOnUse" xlink:href="#a"/><linearGradient id="a" x1="9.241" x2="40.761" y1="27.266" y2="27.266" gradientTransform="matrix(1.0155 0 0 1.0103 -.389 .482)" gradientUnits="userSpaceOnUse"><stop stop-color="#737373" offset="0"/><stop stop-color="#303030" offset="1"/></linearGradient><linearGradient id="c" x1="-116.32" x2="-77.199" y1="299.9" y2="299.9" gradientTransform="matrix(1.1045 0 0 1.0827 130.81 -314.94)" gradientUnits="userSpaceOnUse" xlink:href="#a"/></defs><path d="M10.393 35.883c2.887 2.407 4.157-.702 5.178-3.053 1.398-3.953 7.128-1.826 8.733-6.795 2.83 11.085-9.865 8.393-9.264 20.26h28.386c1.913-22.102-5.002-37.42-25.957-35.287-2.083-2.176-4.992-3.558-4.992-3.558-1.13 2.085-1.012 4.716.667 5.722.439.4-3.527 2.078-2.996 7.892 0 0-3.192 5.317-5.055 8.811-1.356 2.732 1.074 6.265 4.536 6.59" fill="url(#b)" stroke="#000" stroke-dashoffset="1.852" stroke-linecap="round"/><path d="M16.859 17.328a.472.472 0 00-.053.006c-2.943.479-3.352 3.258-3.352 3.258a.55.55 0 001.079.218s.172-2.023 2.451-2.393a.549.549 0 00-.125-1.089z" color="#000" style="font-feature-settings:normal;font-variant-alternates:normal;font-variant-caps:normal;font-variant-east-asian:normal;font-variant-ligatures:normal;font-variant-numeric:normal;font-variant-position:normal;font-variation-settings:normal;inline-size:0;isolation:auto;mix-blend-mode:normal;shape-margin:0;shape-padding:0;text-decoration-color:#000;text-decoration-line:none;text-decoration-style:solid;text-indent:0;text-orientation:mixed;text-transform:none;white-space:normal"/><path d="M16.7 19.572a1.117 1.204 69.395 01-.943 1.366 1.117 1.204 69.395 01-1.401-.825 1.117 1.204 69.395 01.943-1.366 1.117 1.204 69.395 011.401.825z" paint-order="markers fill stroke"/><path d="M8.419 29.95a.55.55 0 00-.384.16c-.438.436-.669.85-.78 1.172-.11.323-.093.617-.093.617a.55.55 0 00.597.495c.304-.027.715-.248.687-.55 0 0-.014 0 .04-.162.056-.16.184-.42.514-.749.215-.214.028-.609-.188-.823a.552.552 0 00-.393-.16z" color="#000" style="font-feature-settings:normal;font-variant-alternates:normal;font-variant-caps:normal;font-variant-east-asian:normal;font-variant-ligatures:normal;font-variant-numeric:normal;font-variant-position:normal;font-variation-settings:normal;inline-size:0;isolation:auto;mix-blend-mode:normal;shape-margin:0;shape-padding:0;text-decoration-color:#000;text-decoration-line:none;text-decoration-style:solid;text-indent:0;text-orientation:mixed;text-transform:none;white-space:normal"/><path d="M22.306 11.958c17.098.643 19.297 14.932 17.594 34.338h3.526c1.753-20.261-3.914-34.82-21.01-35.462z" opacity=".2"/><path d="M17.454 12.38s.652-4.143 3.9-4.848c0 0 2.08 1.085 1.664 5.969" fill="url(#c)" stroke="#000" stroke-linecap="round" paint-order="markers fill stroke"/><path d="M12.206 33.765c-.306.526-1.452 1.747-2.575 2.701" fill="none" stroke="#000" stroke-linecap="round"/><path d="M5.427 30.42l4.195-7.324 1.172-1.892s-.797-4.414 2.719-7.38c0 0 .554-.615.003-1.107-.553-.492-1.936-2.128-.753-4.336-.077-.022.274 4.806 4.353 4.864-3.919 1.25-6.11 4.99-5.15 8.582-.736 1.173-1.458 2.08-2.375 3.208-.82 1.01-1.796 2.196-3.078 3.907-.34.454-.7.944-1.085 1.478z" style="mix-blend-mode:normal" fill="#fff" opacity=".3"/><path d="M15.757 45.676c-.744-9.435 10.084-8.795 9.438-17.61 1.104 10.971-7.883 9.13-9.438 17.61z" fill="#fff" opacity=".2"/><path d="M6.757 30.495c-.015.57 1.587-1.88 3.06-.437-.598-1.424-2.218-1.894-3.06.437z" fill="#fff" opacity=".2"/><path d="M18.027 12.578s.58-3.7 3.249-4.46c-1.554 1.972-1.745 5.155-3.249 4.46z" fill="#fff" opacity=".2"/><path d="M24.696 25.126c.404-1.18.325-3.04-.031-3.598-2.958 8.638-8.244 5.47-9.1 11.303 1.639-3.693 7.812-2.41 9.13-7.704z" opacity=".2"/><path d="M16.856 17.327c-3.216.613-3.405 3.264-3.405 3.264s-.498.21-.49-.326c-.23-.686 1.215-3.461 3.895-2.938z" opacity=".2" fill="#fff"/><path d="M22.062 21.753c-4.997-.762-5.8 5.38-5.8 5.38.85-1.903 3.286-4.408 5.8-5.38z" fill="#fff" opacity=".1"/><path d="M24.304 26.035s.399-.909.744-3.487" fill="none" stroke="#000" stroke-linecap="round" stroke-linejoin="round"/><path d="M23.987 32.169c.364-.026 5.37-6.215 1.061-9.62l-.51 4.556c.107 1.682.437 3.359-.551 5.064z" opacity=".2"/></svg>