<svg width="50mm" height="50mm" clip-rule="evenodd" fill-rule="evenodd" image-rendering="optimizeQuality" shape-rendering="geometricPrecision" text-rendering="geometricPrecision" viewBox="0 0 50 50" xmlns="http://www.w3.org/2000/svg"><defs><linearGradient id="b" x1="-116.32" x2="-78.639" y1="299.9" y2="299.97" gradientTransform="matrix(1.0617 0 0 1.0316 127.44 -298.92)" gradientUnits="userSpaceOnUse"><stop stop-color="#968270" offset="0"/><stop stop-color="#342c22" offset="1"/></linearGradient><linearGradient id="a" x1="-115.84" x2="-78.433" y1="315.71" y2="315.71" gradientTransform="matrix(1.0617 0 0 1.0316 127.44 -298.92)" gradientUnits="userSpaceOnUse"><stop stop-color="#978672" offset="0"/><stop stop-color="#342c22" offset="1"/></linearGradient></defs><path d="M11.697 35.351c2.775 2.293 3.678-1.014 4.66-3.254 1.568-3.396 6.665-2.077 8.712-6.13 2.586 10.03-7.895 7.998-8.396 19.306H43.45c1.838-21.06-4.808-35.655-24.951-33.623-2.003-2.074-4.8-3.39-4.8-3.39-1.085 1.986-.972 4.493.642 5.451.422.382-3.39 1.98-2.88 7.52 0 0-3.068 5.066-4.859 8.396-.836 1.67-.014 3.89 1.436 5.102.396.596 2.924 1.428 2.924 1.176" fill="url(#a)" stroke="#000" stroke-dashoffset="1.852" stroke-linecap="round" stroke-linejoin="round"/><path d="M14.368 20.752s.494-2.41 3.004-2.815" fill="none" stroke="#040404" stroke-linecap="round" stroke-linejoin="round"/><ellipse transform="matrix(.97477 -.2232 .20615 .97852 0 0)" cx="11.685" cy="22.771" rx="1.156" ry="1.067" paint-order="markers fill stroke"/><g stroke="#000" stroke-linecap="round"><g stroke-linejoin="round"><path d="M9.117 31.506s-.053-.558.686-1.286" fill="#fff"/><path d="M25.068 25.968s.716-1.296.985-2.575c.27-1.28.17-2.551.17-2.551" fill="none"/><path d="M18.484 12.957s.627-3.947 3.75-4.62c0 0 2.22.846 1.09 5.688" fill="url(#b)" paint-order="markers fill stroke"/></g><path d="M13.439 33.333c-.295.501-1.396 1.664-2.476 2.574" fill="none"/></g><path d="M23.149 12.558c16.435.612 18.549 14.227 16.912 32.717h3.39c1.685-19.305-3.763-33.176-20.197-33.788z" opacity=".15"/></svg>