<svg width="50mm" height="50mm" clip-rule="evenodd" fill-rule="evenodd" image-rendering="optimizeQuality" shape-rendering="geometricPrecision" text-rendering="geometricPrecision" viewBox="0 0 50 50" xmlns="http://www.w3.org/2000/svg" xmlns:xlink="http://www.w3.org/1999/xlink"><defs><linearGradient id="a" x1="9.241" x2="40.761" y1="27.266" y2="27.266" gradientTransform="matrix(1.0155 0 0 1.0103 -.389 .482)" gradientUnits="userSpaceOnUse"><stop stop-color="#6e6e6e" offset="0"/><stop stop-color="#262626" offset="1"/></linearGradient><linearGradient x1="777.73" x2="795.93" y1="63.423" y2="63.423" gradientTransform="matrix(.98131 0 0 .97235 -747.13 -35.846)" gradientUnits="userSpaceOnUse" xlink:href="#a"/><linearGradient x1="772.83" x2="800.83" y1="74.581" y2="74.581" gradientTransform="matrix(.98131 0 0 .97235 -747.13 -35.846)" gradientUnits="userSpaceOnUse" xlink:href="#a"/><linearGradient id="c" x1="779.03" x2="794.63" y1="54.449" y2="54.449" gradientTransform="matrix(.98131 0 0 .97235 -747.13 -34.817)" gradientUnits="userSpaceOnUse" xlink:href="#b"/><linearGradient id="b" x1="9.241" x2="40.761" y1="27.266" y2="27.266" gradientTransform="matrix(1.0155 0 0 1.0103 -.389 .482)" gradientUnits="userSpaceOnUse"><stop stop-color="#737373" offset="0"/><stop stop-color="#303030" offset="1"/></linearGradient><linearGradient id="d" x1="777.73" x2="795.93" y1="63.423" y2="63.423" gradientTransform="matrix(.98131 0 0 .97235 -747.13 -34.817)" gradientUnits="userSpaceOnUse" xlink:href="#b"/><linearGradient id="e" x1="772.83" x2="800.83" y1="74.581" y2="74.581" gradientTransform="matrix(.98131 0 0 .97235 -747.13 -34.817)" gradientUnits="userSpaceOnUse" xlink:href="#b"/></defs><ellipse cx="25" cy="18.126" rx="7.161" ry="6.834" fill="url(#c)" stroke-linejoin="round" paint-order="markers fill stroke" stroke="#000"/><path d="M25 24.598c-5.228.044-7.985-.028-8.394 4.508h16.788c-.41-4.536-3.165-4.464-8.394-4.508z" fill="url(#d)" stroke="#000"/><path d="M20.484 29.106c.496 6.787-9.303 7.996-8.706 17.19h26.444c.597-9.194-9.202-10.403-8.706-17.19H25z" fill="url(#e)" stroke="#000"/><path d="M19.884 21.629c-.528.225-4.585-7.628 4.867-9.772.717-.119 1.252.64.008 1.04 0 0-7.74 3.346-4.875 8.732z" fill="#fff" opacity=".25"/><path d="M12.504 45.701c-.324-1.24-.204-3.973 3.513-8.008-.37 2.437-3.065 5.393-.9 8.024z" fill="#fff" opacity=".2"/><path d="M17.282 28.557s-.026-2.905 3.106-3.142c-1.079 1.212-1.462 1.906-.933 3.174z" fill="#fff" opacity=".2"/><path d="M21.981 29.111c.224 5.87 18.377 9.055 16.237 17.19 1.262-7.658-9.104-9.808-8.706-17.19z" opacity=".15" style="mix-blend-mode:normal"/><path d="M25.009 11.29c4.88.644 6.47 10.209 1.883 13.08 0 0 3.344.497 3.891 2.613.166.642.46 2.12.46 2.12l2.16.001s-.193-1.497-.46-2.105c-.873-1.978-4.597-2.693-4.597-2.693 1.835-1.147 3.824-4.135 3.824-6.182.38-4.424-5.404-7.337-7.161-6.834z" opacity=".2" style="mix-blend-mode:normal"/></svg>