<svg width="50mm" height="50mm" clip-rule="evenodd" fill-rule="evenodd" image-rendering="optimizeQuality" shape-rendering="geometricPrecision" text-rendering="geometricPrecision" viewBox="0 0 50 50" xmlns="http://www.w3.org/2000/svg" xmlns:xlink="http://www.w3.org/1999/xlink"><defs><linearGradient id="b" x1="-25.017" x2="14.084" y1="-249.82" y2="-249.82" gradientTransform="matrix(.99988 0 0 .97754 30.455 272.6)" gradientUnits="userSpaceOnUse" xlink:href="#a"/><linearGradient id="a" x1="9.241" x2="40.761" y1="27.266" y2="27.266" gradientTransform="matrix(1.0155 0 0 1.0103 -.389 .482)" gradientUnits="userSpaceOnUse"><stop stop-color="#737373" offset="0"/><stop stop-color="#303030" offset="1"/></linearGradient><linearGradient id="c" x1="-27.911" x2="-21.13" y1="-264.3" y2="-264.3" gradientTransform="matrix(.99988 0 0 .97754 29.927 272.6)" gradientUnits="userSpaceOnUse" xlink:href="#a"/><filter id="d" x="-.095" y="-.032" width="1.19" height="1.064" color-interpolation-filters="sRGB"><feGaussianBlur stdDeviation=".388"/></filter><linearGradient id="e" x1="-18.928" x2="-12.147" y1="-267.53" y2="-267.53" gradientTransform="matrix(.99988 0 0 .97754 30.455 272.6)" gradientUnits="userSpaceOnUse" xlink:href="#a"/><linearGradient id="f" x1="-8.857" x2="-2.076" y1="-268.55" y2="-268.55" gradientTransform="matrix(.99988 0 0 .97754 30.455 272.6)" gradientUnits="userSpaceOnUse" xlink:href="#a"/><linearGradient id="g" x1="1.214" x2="7.995" y1="-267.53" y2="-267.53" gradientTransform="matrix(.99988 0 0 .97754 30.455 272.6)" gradientUnits="userSpaceOnUse" xlink:href="#a"/><linearGradient id="h" x1="10.196" x2="16.978" y1="-264.3" y2="-264.3" gradientTransform="matrix(.99988 0 0 .97754 30.983 272.6)" gradientUnits="userSpaceOnUse" xlink:href="#a"/><filter id="i" x="-.104" y="-.031" width="1.208" height="1.062" color-interpolation-filters="sRGB"><feGaussianBlur stdDeviation=".216"/></filter><filter id="j" x="-.202" y="-.027" width="1.403" height="1.054" color-interpolation-filters="sRGB"><feGaussianBlur stdDeviation=".197"/></filter><filter id="k" x="-.164" y="-.028" width="1.327" height="1.056" color-interpolation-filters="sRGB"><feGaussianBlur stdDeviation=".206"/></filter><filter id="l" x="-.082" y="-.034" width="1.165" height="1.068" color-interpolation-filters="sRGB"><feGaussianBlur stdDeviation=".233"/></filter><filter id="m" x="-.062" y="-.039" width="1.124" height="1.079" color-interpolation-filters="sRGB"><feGaussianBlur stdDeviation=".237"/></filter><filter id="n" x="-.164" y="-.08" width="1.329" height="1.161" color-interpolation-filters="sRGB"><feGaussianBlur stdDeviation=".14"/></filter><filter id="o" x="-.164" y="-.08" width="1.329" height="1.161" color-interpolation-filters="sRGB"><feGaussianBlur stdDeviation=".14"/></filter><filter id="p" x="-.165" y="-.08" width="1.329" height="1.161" color-interpolation-filters="sRGB"><feGaussianBlur stdDeviation=".14"/></filter><filter id="q" x="-.165" y="-.08" width="1.329" height="1.161" color-interpolation-filters="sRGB"><feGaussianBlur stdDeviation=".14"/></filter><filter id="r" x="-.165" y="-.08" width="1.329" height="1.161" color-interpolation-filters="sRGB"><feGaussianBlur stdDeviation=".14"/></filter><filter id="s" x="-.228" y="-.166" width="1.455" height="1.332" color-interpolation-filters="sRGB"><feGaussianBlur stdDeviation=".338"/></filter><filter id="t" x="-.193" y="-.191" width="1.386" height="1.382" color-interpolation-filters="sRGB"><feGaussianBlur stdDeviation=".4"/></filter></defs><path d="M37.159 38.874l3.17-4.809 4.239-19.826-9.653 14.798.144-17.439-6.903 16.413-3.167-17.929-3.167 17.927-6.902-16.413.144 17.44L5.41 14.236 9.65 34.063l3.36 4.809-1.41 5.385s4.397 2.039 13.4 2.039c9.005 0 13.39-2.038 13.39-2.038z" fill="url(#b)" stroke-linecap="round" stroke-width="1.001" stroke="#000"/><path d="M9.747 34.064c1.347.18 1.645-.355 2.056-1.906 0 0 2.488 1.343 3.762 1.062 1.365-.301 2.474-2.172 2.474-2.172s2.113 1.559 3.38 1.454c1.475-.122 3.504-1.98 3.504-1.98s2.029 1.858 3.503 1.98c1.268.105 3.38-1.454 3.38-1.454s1.11 1.87 2.475 2.172c1.274.281 3.762-1.062 3.762-1.062.411 1.551.84 2.088 2.187 1.907" fill="none" stroke-linecap="round" stroke-width="1.001" stroke="#000"/><ellipse cx="5.41" cy="14.238" rx="2.894" ry="2.799" fill="url(#c)" stroke-linejoin="round" stroke-linecap="round" stroke-width="1.001" stroke="#000"/><path transform="matrix(.99988 0 0 .97754 30.455 272.6)" d="M13.559-262.78c-1.191 4.726-4.701 13.531-6.049 18.221l-3.738 4.819 1.08 4.99 3.08 1.16-1.227-5.51 2.961-4.677z" filter="url(#d)" opacity=".2" style="mix-blend-mode:normal"/><path d="M24.496 41.69c-4.835 0-9.67.857-12.894 2.57 3.226 1.714 8.068 1.746 12.908 1.745-11.917-1.877 1.961-3.693 6.74-3.726-2.135-.391-4.443-.589-6.753-.589z" opacity=".15"/><path d="M11.601 44.26s4.388-2.136 13.392-2.136 13.392 2.136 13.392 2.136M12.857 38.874s3.666-2.04 12.151-2.04 12.151 2.04 12.151 2.04" fill="none" stroke-width="1.001" stroke="#000"/><ellipse cx="14.92" cy="11.08" rx="2.894" ry="2.799" fill="url(#e)" stroke-linecap="round" stroke-linejoin="round" stroke-width="1.002" stroke="#000"/><ellipse cx="24.989" cy="10.082" rx="2.894" ry="2.799" fill="url(#f)" stroke-linecap="round" stroke-linejoin="round" stroke-width="1.002" stroke="#000"/><ellipse cx="35.059" cy="11.082" rx="2.894" ry="2.799" fill="url(#g)" stroke-linecap="round" stroke-linejoin="round" stroke-width="1.002" stroke="#000"/><ellipse cx="44.568" cy="14.239" rx="2.894" ry="2.799" fill="url(#h)" stroke-linecap="round" stroke-linejoin="round" stroke-width="1.002" stroke="#000"/><path d="M6.386 16.873l3.733 16.641s.794.057 1.273-2.295z" fill="#fff" filter="url(#i)" opacity=".3"/><path d="M15.522 14.499l2.34 15.169c-.625 1.087-1.471 2-2.163 2.17z" fill="#fff" filter="url(#j)" opacity=".25"/><path d="M21.986 31.027l3.027-17.612-.139 15.757c-1.066.913-2.15 1.858-2.888 1.855z" fill="#fff" filter="url(#k)" opacity=".2"/><path d="M34.459 14.605l-6.78 16.182c.016-.092.467 1.394 3.83-1.244z" fill="#fff" filter="url(#l)" opacity=".15"/><path d="M33.921 31.807l9.219-14.326-5.598 13.346s-3.153 1.734-3.621.98z" fill="#fff" filter="url(#m)" opacity=".1"/><path d="M4.184 16.16s-3.017-2.692.934-4.17c.088.013-1.833 2.155-.934 4.17z" fill="#fff" filter="url(#n)" opacity=".25"/><path d="M13.831 13.031s-3.018-2.692.934-4.17c.09 0-1.796 2.054-.934 4.17z" fill="#fff" filter="url(#o)" opacity=".2"/><path d="M23.849 12.006s-3.018-2.692.934-4.17c.059 0-1.927 2.09-.934 4.17z" fill="#fff" filter="url(#p)" opacity=".2"/><path d="M33.935 12.992s-3.018-2.692.934-4.17c.044-.004-1.919 2.093-.934 4.17z" fill="#fff" filter="url(#q)" opacity=".15"/><path d="M43.431 16.15s-3.018-2.692.934-4.17c.046.017-1.882 2.19-.934 4.17z" fill="#fff" filter="url(#r)" opacity=".1"/><path d="M24.993 46.396c-9.004 0-13.392-2.136-13.392-2.136s4.387-2.137 13.392-2.137c9.004 0 13.392 2.137 13.392 2.137s-4.388 2.136-13.392 2.136zM6.771 12.412c.08.026 2.315 1.75-.147 3.864-.074-.124 1.162-2.001.147-3.864zM16.336 9.246c.08.026 2.314 1.75-.148 3.863-.074-.124 1.162-2 .148-3.863zM26.425 8.276c.08.026 2.314 1.75-.148 3.864-.074-.124 1.162-2.001.148-3.864zM36.515 9.268c.08.027 2.314 1.751-.148 3.864-.074-.124 1.162-2 .148-3.864zM46.059 12.565c.08.026 2.314 1.75-.148 3.864-.074-.124 1.162-2.001.148-3.864z" opacity=".2"/><path d="M13.514 39.223c.848-.45 1.7-.66 2.571-.878-.587.84-.616 2.64-.34 3.978 0 0-.89.125-3.224.905z" fill="#fff" opacity=".1" filter="url(#s)"/><path d="M13.146 38.084c.11-.016.33-.29 2.591-.951-2.014-1.585-3.55-4.075-3.55-4.075-.329.914-.773 1.514-1.415 1.58z" fill="#fff" opacity=".15" filter="url(#t)"/></svg>