<svg width="50mm" height="50mm" clip-rule="evenodd" fill-rule="evenodd" image-rendering="optimizeQuality" shape-rendering="geometricPrecision" text-rendering="geometricPrecision" viewBox="0 0 50 50" xmlns="http://www.w3.org/2000/svg"><defs><linearGradient id="a" x1="9.241" x2="40.761" y1="27.266" y2="27.266" gradientTransform="matrix(.98495 0 0 .98605 .376 .641)" gradientUnits="userSpaceOnUse"><stop stop-color="#978672" offset="0"/><stop stop-color="#342c22" offset="1"/></linearGradient></defs><path d="M13.335 40.26h23.396m-23.402-4.266h23.342M17.213 32.04h15.575M17.3 20.7h15.402m-19.903-4.326h24.404M12.799 9.266v7.109L17.3 20.7l-.087 11.339-3.883 3.954v4.266H10.5v5.007h29V40.26h-2.828v-4.266l-3.884-3.954-.087-11.34 4.502-4.325V9.266H32.28v2.947h-4.475V9.266h-5.608v2.947h-4.475V9.266z" fill="url(#a)" stroke="#000" stroke-linecap="round" stroke-linejoin="round"/><path d="M35.099 9.267v7.108l-5.031 3.805.086 12.382 4.413 3.953h.001v4.267h2.828v4.485H39.5v-4.485H36.67v-4.266l-3.883-3.954L32.7 20.7l4.501-4.326V9.267z" opacity=".15"/></svg>