<svg width="50mm" height="50mm" clip-rule="evenodd" fill-rule="evenodd" image-rendering="optimizeQuality" shape-rendering="geometricPrecision" text-rendering="geometricPrecision" viewBox="0 0 50 50" xmlns="http://www.w3.org/2000/svg"><defs><linearGradient id="a" x1="9.747" x2="40.253" y1="26" y2="26" gradientTransform="translate(0 .003)" gradientUnits="userSpaceOnUse"><stop stop-color="#968270" offset="0"/><stop stop-color="#342c22" offset="1"/></linearGradient></defs><path d="M12.949 39.284h24.168m-24.174-4.105h24.114m-19.753-3.805h15.392M17.39 19.46h15.22m-20.192-4.19h25.164M12.418 8.405v6.865l4.972 4.19-.086 11.914-4.361 3.805v4.105h-2.796V43.6h29.706v-4.316h-2.796V35.18l-4.361-3.805-.086-11.914 4.972-4.19V8.405h-4.567v2.638h-5.158V8.405h-5.713v2.638h-5.159V8.405z" fill="url(#a)" stroke-linecap="round" stroke-linejoin="round" stroke-width=".8" stroke="#000"/><path d="M34.458 8.406V15.8l-4.972 3.661.086 11.914 4.36 3.805h.001v4.105h2.796V43.6h3.124v-4.315h-2.795V35.18h-.001l-4.361-3.805-.086-11.914 4.972-3.66V8.406z" opacity=".2"/></svg>