<svg width="50mm" height="50mm" clip-rule="evenodd" fill-rule="evenodd" image-rendering="optimizeQuality" shape-rendering="geometricPrecision" text-rendering="geometricPrecision" viewBox="0 0 50 50" xmlns="http://www.w3.org/2000/svg" xmlns:xlink="http://www.w3.org/1999/xlink"><defs><linearGradient id="b" x1="1337.9" x2="1359.7" y1="-118.94" y2="-118.94" gradientTransform="matrix(1.0002 0 0 .99995 -1334.5 160.77)" gradientUnits="userSpaceOnUse" xlink:href="#a"/><linearGradient id="a"><stop stop-color="#fbf5d1" offset="0"/><stop stop-color="#d7ca8e" offset="1"/></linearGradient><linearGradient id="c" x1="1358.7" x2="1380.4" y1="-118.94" y2="-118.94" gradientTransform="matrix(1.0002 0 0 .99995 -1334.5 160.77)" gradientUnits="userSpaceOnUse" xlink:href="#a"/><linearGradient id="d" x1="1348.8" x2="1370" y1="-134.85" y2="-134.85" gradientTransform="matrix(1.0002 0 0 .99995 -1334.5 160.77)" gradientUnits="userSpaceOnUse" xlink:href="#a"/><linearGradient id="e" x1="1355.5" x2="1363.3" y1="-150.47" y2="-150.47" gradientTransform="matrix(1.0002 0 0 .99995 -1334.5 160.77)" gradientUnits="userSpaceOnUse" xlink:href="#a"/></defs><g stroke="#000" stroke-linecap="round" stroke-linejoin="round"><path d="M22.665 38.406c-5.16 6.013-11.715-2.801-18.415 3.35l1.955 3.51c4.37-5.45 18.795 5.01 18.795-6.86z" fill="url(#b)"/><path d="M27.335 38.406c5.16 6.013 11.715-2.801 18.415 3.35l-1.955 3.51C39.425 39.816 25 50.276 25 38.406z" fill="url(#c)"/><path d="M30.985 31.791l4.4-5.787-9.488-12.635h-.653v-.01h-.662l-9.489 12.634 4.4 5.788-1.929 4.74c-.029.375 3.375 1.98 7.675 1.98s7.705-1.605 7.676-1.98z" fill="url(#d)"/><path d="M25.245 7.267c-1.857 0-3.362 1.363-3.362 3.045 0 1.681 1.506 3.045 3.362 3.045s3.36-1.364 3.36-3.045c0-1.682-1.504-3.045-3.36-3.045z" fill="url(#e)"/></g><path d="M22.159 24.671h6.17m-3.085-2.954v5.908" fill="none" stroke="#000" stroke-linecap="round" stroke-linejoin="round"/><path d="M25.245 7.266c-.527 0-1.025.114-1.469.31 4.42 1.365 4.266 4.305 0 5.47.445.197.942.31 1.469.31 1.857 0 3.36-1.364 3.36-3.045 0-1.681-1.504-3.044-3.36-3.045zm-.662 6.092c2.975 4.094 5.627 8.417 8.395 12.646l-4.625 5.173 1.54 4.4 2.888.86-1.795-4.647 4.928-5.787-10.016-12.635h-.652v-.01z" opacity=".15"/><path d="M24.903 35.055c-2.875.012-5.502.233-7.337 1.464 2.03 1.462 4.944 2.036 7.818 1.98-6.648-1.406 1.89-2.887 4.51-2.922-1.417-.357-3.454-.528-4.991-.522z" opacity=".15"/><path d="M17.566 36.519s2.316-1.523 7.675-1.523c5.36 0 7.675 1.523 7.675 1.523M19.494 31.781s1.735-.994 5.75-.994 5.75.994 5.75.994" fill="none" stroke="#000"/></svg>