<svg width="50mm" height="50mm" clip-rule="evenodd" fill-rule="evenodd" image-rendering="optimizeQuality" shape-rendering="geometricPrecision" text-rendering="geometricPrecision" viewBox="0 0 50 50" xmlns="http://www.w3.org/2000/svg" xmlns:xlink="http://www.w3.org/1999/xlink"><defs><linearGradient id="a" x1="9.241" x2="40.761" y1="27.266" y2="27.266" gradientTransform="matrix(.98495 0 0 .98605 .376 .641)" gradientUnits="userSpaceOnUse"><stop stop-color="#ece9df" offset="0"/><stop stop-color="#f4e0c8" offset="1"/></linearGradient><linearGradient id="b" x1="14.558" x2="35.921" y1="25.93" y2="25.93" gradientTransform="matrix(1.0739 0 0 1.0269 -2.26 -.38)" gradientUnits="userSpaceOnUse" xlink:href="#a"/><linearGradient id="c" x1="21.347" x2="29.141" y1="10.312" y2="10.312" gradientTransform="matrix(.83475 0 0 .90883 3.752 1.094)" gradientUnits="userSpaceOnUse" xlink:href="#a"/><linearGradient x1="5.612" x2="25.919" y1="42.295" y2="42.295" gradientTransform="matrix(1.0856 0 0 .94062 -2.555 2.413)" gradientUnits="userSpaceOnUse" xlink:href="#a"/><linearGradient x1="24.848" x2="45.155" y1="42.295" y2="42.295" gradientTransform="matrix(1.0856 0 0 .94062 -2.555 2.413)" gradientUnits="userSpaceOnUse" xlink:href="#a"/><linearGradient id="d" x1="5.612" x2="25.919" y1="42.295" y2="42.295" gradientTransform="matrix(1.0856 0 0 .94062 -2.716 2.942)" gradientUnits="userSpaceOnUse" xlink:href="#a"/><linearGradient id="e" x1="24.848" x2="45.155" y1="42.295" y2="42.295" gradientTransform="matrix(1.0856 0 0 .94062 -2.716 2.942)" gradientUnits="userSpaceOnUse" xlink:href="#a"/></defs><path d="M31.016 32.267l4.726-5.943-10.19-12.975h-.7v-.01h-.712L13.95 26.312l4.726 5.943-1.543 4.867c-.03.386 3.095 2.034 7.713 2.034s7.745-1.648 7.714-2.034z" fill="url(#b)" stroke-linecap="round" stroke="#000"/><path d="M24.826 7.698c-1.55 0-2.807 1.239-2.807 2.767s1.257 2.767 2.807 2.767 2.805-1.239 2.805-2.767c0-1.528-1.255-2.767-2.805-2.767z" fill="url(#c)" stroke-linejoin="round" stroke-linecap="round" stroke="#000"/><path d="M22.096 24.66h5.5m-2.75-2.75v5.5" fill="none" stroke-linejoin="round" stroke-linecap="round" stroke="#000"/><path d="M24.838 7.717c3.526 1.852.518 5.039-1.577 5.32.478.2 1.011.317 1.577.317 5.713-1.799 1.362-5.768 0-5.637zm-.71 5.639c3.194 4.204 6.043 8.643 9.015 12.986l-4.967 5.312 1.126 4.52 3.1.88-1.398-4.77 4.725-5.942L25.54 13.367h-.7v-.011z" opacity=".15" style="mix-blend-mode:normal"/><path d="M26.073 35.618c-3.087.012-6.397.504-8.369 1.768 2.182 1.501 5.798 1.826 8.885 1.77-7.14-1.445 2.03-2.966 4.844-3.001-1.522-.368-3.71-.544-5.36-.537z" opacity=".15"/><path d="M17.134 37.123s1.925-1.566 7.714-1.566 7.713 1.566 7.713 1.566" fill="none" stroke="#000"/><path d="M18.676 32.256s1.863-1.021 6.175-1.022c4.312 0 6.175 1.022 6.175 1.022" fill="none" stroke="#000"/><path d="M18.872 31.579s.003.008 0 0l-4.17-5.259 9.735-12.43-8.076 12.384z" fill="#fff" opacity=".8"/><path d="M25 39.156c-5.617 0-7.296-1.77-7.296-1.77s1.679-1.77 7.296-1.77 7.296 1.77 7.296 1.77-1.679 1.77-7.296 1.77z" opacity=".15"/><path d="M22.488 39.156c-5.193 6.258-11.79-2.915-18.533 3.487l1.968 3.653c4.398-5.672 18.915 5.213 18.915-7.14z" fill="url(#d)" stroke-linecap="round" stroke-linejoin="round" stroke="#000"/><path d="M27.188 39.156c5.193 6.258 11.79-2.915 18.532 3.487l-1.968 3.653c-4.398-5.672-18.915 5.213-18.915-7.14z" fill="url(#e)" stroke-linecap="round" stroke-linejoin="round" stroke="#000"/><path d="M4.672 42.735l1.404 2.59-.346-2.333c3.12-2.388 5.957-1.62 8.04-1.599 0 0-5.851-1.955-9.098 1.342zm40.408.034l-.49.889c-1.905-2.325-3.739-2.756-5.319-2.76 0 0 3.018-.718 5.809 1.871zM23.672 12.366c-.25.066-2.603-2.42.418-3.975-.09-.01-1.758 2.142-.418 3.975z" fill="#fff"/><path d="M18.143 35.946l1.051-3.273s.37-.253 1.455-.429c0 0-.747 2.2.508 3.01-2.156.332-2.538.548-3.014.692z" fill="#fff" opacity=".7"/></svg>