<svg width="50mm" height="50mm" clip-rule="evenodd" fill-rule="evenodd" image-rendering="optimizeQuality" shape-rendering="geometricPrecision" text-rendering="geometricPrecision" viewBox="0 0 50 50" xmlns="http://www.w3.org/2000/svg"><defs><linearGradient id="a" x1="174.21" x2="211.59" y1="44.774" y2="44.774" gradientTransform="translate(-171.07 -20.498) scale(1.0165)" gradientUnits="userSpaceOnUse"><stop stop-color="#fbf5d1" offset="0"/><stop stop-color="#d8cc92" offset="1"/></linearGradient></defs><g stroke="#000" stroke-linecap="round" stroke-linejoin="round"><path d="M25.007 6.412c-1.691 0-3.063 1.296-3.063 2.896 0 1.6 1.372 2.896 3.063 2.896s3.06-1.297 3.06-2.896c0-1.6-1.369-2.896-3.06-2.896zm-2.016 29.614c-.012 1.186-1.317 1.615-2.326 2.103-4.3 2.078-9.234-3.354-14.264 1.353l2.051 4.123c5.867-5.465 12.527 3.425 16.55-3.186v.01c4.024 6.611 10.684-2.278 16.55 3.186l2.052-4.123c-5.03-4.707-9.964.725-14.264-1.353-1.01-.488-2.314-.918-2.327-2.103m3.222-6.298l4.49-5.504L25.6 12.216h-.594v-.01h-.603L15.28 24.224l4.49 5.505-2.816 4.508c-.026.357 4.132 1.883 8.049 1.883 3.916 0 8.076-1.526 8.049-1.883z" fill="url(#a)" stroke-width=".8"/><g fill="none"><path d="M16.957 34.235c3.85-2.34 11.87-2.434 16.098 0M19.752 29.758c4.027-1.148 6.456-1.184 10.485-.02" stroke-width=".8"/><path d="M22.202 22.966h5.62m-2.81-2.81v5.62"/></g></g><path d="M16.952 34.232s9.257 3.028 7.007 2.035c-6.035-2.667 2.713-3.01 8.48-2.281-6.693-2.17-8.583-2.018-15.487.246z" opacity=".2" stroke="#000" stroke-width=".265"/><path d="M25.005 6.412c-.48 0-.933.108-1.338.294 4.026 1.3 3.885 4.095 0 5.204.405.186.858.294 1.338.294 1.69 0 3.06-1.297 3.06-2.896 0-1.6-1.37-2.895-3.06-2.896zm-.603 5.794c2.71 3.894 5.125 8.005 7.646 12.028l-4.212 4.92 2.584 4.265 2.63.816-2.816-4.498 4.489-5.504-9.124-12.018h-.594v-.01zM25.31 36.305c2.818 8.122 14.523-1.72 17.619 4.539l.673-1.352s-.846-1.34-3.75-1.906c-3.422-.207-12.203 2.616-12.84-1.362z" opacity=".2"/></svg>