<svg width="50mm" height="50mm" clip-rule="evenodd" fill-rule="evenodd" image-rendering="optimizeQuality" shape-rendering="geometricPrecision" text-rendering="geometricPrecision" viewBox="0 0 50 50" xmlns="http://www.w3.org/2000/svg" xmlns:xlink="http://www.w3.org/1999/xlink"><defs><linearGradient id="b" x1="1605.2" x2="1614.2" y1="-88.617" y2="-88.617" gradientTransform="matrix(1.0153 0 0 1.0209 -1609.3 112.08)" gradientUnits="userSpaceOnUse" xlink:href="#a"/><linearGradient id="a"><stop stop-color="#fbf5d1" offset="0"/><stop stop-color="#d7ca8e" offset="1"/></linearGradient><linearGradient id="c" x1="1672.9" x2="1714.8" y1="-168.86" y2="-168.86" gradientTransform="matrix(1.0153 0 0 1.0209 -1694.7 202.17)" gradientUnits="userSpaceOnUse" xlink:href="#a"/></defs><g stroke="#000"><path d="M20.916 17.473L25 29.779l4.084-12.306s-.647-4.04-4.084-4.04c-3.438 0-4.084 4.04-4.084 4.04z" fill="url(#b)" stroke-linejoin="round"/><path d="M39.625 42.997l-1.29-5.57.987-5.304s5.729-1.686 6.4-7.966c.9-12.616-18.495-14.154-20.721 1.398C22.774 10.003 3.379 11.541 4.28 24.157c.671 6.28 6.4 7.966 6.4 7.966l.986 5.304-1.29 5.57S14.649 45.265 25 45.265s14.625-2.268 14.625-2.268z" fill="url(#c)"/><g fill="none"><path d="M10.375 42.997s4.273-2.268 14.626-2.268 14.626 2.268 14.626 2.268M11.664 37.428s3.892-2.268 13.37-2.268c9.477 0 13.369 2.268 13.369 2.268M10.679 32.124s4.32-2.268 14.322-2.268c10.001 0 14.322 2.268 14.322 2.268"/></g><path d="M21.671 8.414h6.658M25 4.768v8.666" fill="#59917a" stroke-linecap="round" stroke-linejoin="round"/></g><path d="M25 25.556v4.3" fill="none" stroke="#000"/><path d="M24.777 40.776c-10.197 0-14.403 2.221-14.403 2.221s4.206 2.222 14.403 2.222h.021c-15.27-2.026 7.234-3.87 8.192-3.879-2.149-.322-4.862-.563-8.213-.563zM36.412 14.299a11.45 11.45 0 0 0-1.732.148c9.089-.227 13.98 12.18 1.93 16.791l-1.272 5.05 1.526 5.585 2.961 1.125-1.489-5.57.987-5.304s5.738-1.815 6.399-7.966c.506-4.71-2.548-9.907-9.31-9.86zM25 13.434c2.095 1.061 1.993 3.977 1.42 6.686 0 0 .215-.855 2.616-2.877C28.191 13.326 25 13.434 25 13.434zM14.398 14.405c4.127.66 9.007 6.912 8.52 15.415L25 29.78c1-6.552-3.43-15.657-10.602-15.375z" opacity=".15"/></svg>