<svg width="50mm" height="50mm" clip-rule="evenodd" fill-rule="evenodd" image-rendering="optimizeQuality" shape-rendering="geometricPrecision" text-rendering="geometricPrecision" viewBox="0 0 50 50" xmlns="http://www.w3.org/2000/svg" xmlns:xlink="http://www.w3.org/1999/xlink"><defs><linearGradient id="b" x1="-505.97" x2="-484.22" y1="-408.5" y2="-408.5" gradientTransform="matrix(1.0113 0 0 1.0008 536.22 433.79)" gradientUnits="userSpaceOnUse" xlink:href="#a"/><linearGradient id="a" x1="9.241" x2="40.761" y1="27.266" y2="27.266" gradientTransform="matrix(.98495 0 0 .98605 .376 .641)" gradientUnits="userSpaceOnUse"><stop stop-color="#ece9df" offset="0"/><stop stop-color="#f4e0c8" offset="1"/></linearGradient><linearGradient id="c" x1="-520.15" x2="-490.84" y1="-394.44" y2="-394.44" gradientTransform="matrix(1.0113 0 0 1.0008 536.22 433.79)" gradientUnits="userSpaceOnUse" xlink:href="#a"/><linearGradient id="d" x1="-526.74" x2="-504.98" y1="-408.5" y2="-408.5" gradientTransform="matrix(1.0113 0 0 1.0008 536.22 433.79)" gradientUnits="userSpaceOnUse" xlink:href="#a"/><linearGradient id="e" x1="-510.08" x2="-500.85" y1="-412.72" y2="-412.72" gradientTransform="matrix(1.0113 0 0 1.0008 536.22 433.79)" gradientUnits="userSpaceOnUse" xlink:href="#a"/></defs><path d="M29.132 18.792c6.387-5.74 17.544-2.606 16.851 6.813-.679 6.17-7.013 8.347-7.013 8.347s-3.827-2.228-13.94-2.228l-.014-3.993z" fill="url(#b)" stroke="#000"/><path d="M37.942 38.831l1.304 5.276S35.468 46.335 25 46.335c-10.468 0-14.247-2.228-14.247-2.228l1.304-5.276-.996-4.878s3.645-2.229 13.94-2.229c10.296 0 13.94 2.228 13.94 2.228z" fill="url(#c)" stroke="#000"/><path d="M10.754 44.106s3.779-2.228 14.248-2.228 14.248 2.228 14.248 2.228m-27.192-5.275s3.394-2.228 12.978-2.228 12.977 2.228 12.977 2.228" fill="none" stroke="#000"/><path d="M20.9 18.792c-6.387-5.74-17.544-2.606-16.851 6.813.679 6.17 7.013 8.347 7.013 8.347s3.827-2.228 13.94-2.228l.014-3.993z" fill="url(#d)" stroke="#000"/><path d="M21.65 9.911h6.733M25.016 6.33v7.98" fill="#59917a" stroke="#000" stroke-linecap="round" stroke-linejoin="round"/><path d="M36.557 15.926c-.562.004-1.146.051-1.751.146 9.19-.224 13.595 11.967 1.41 16.498l-1.287 4.962 1.543 5.487 2.995 1.105-1.506-5.473.997-5.21s6.344-1.784 7.013-7.828c.512-4.627-2.576-9.735-9.414-9.687z" opacity=".15" style="mix-blend-mode:normal"/><path d="M20.9 18.792l4.13 8.653 4.13-8.653s.702-4.768-4.13-4.768c-4.833 0-4.13 4.768-4.13 4.768z" fill="url(#e)" stroke="#000" stroke-linejoin="round"/><path d="M25.028 14.255c4.811.97.877 10.528.016 13.196.024.025 3.113-5.408 4.066-8.92.09-4.508-3.911-4.396-4.082-4.277zm-.01 16.953l-.001-.075c.001.075.016-3.398.016-3.398s-2.711-6.901-4.098-8.921c-1.348-1.966-3.82-2.932-6.639-2.787 4.018 1.767 9.039 10.037 10.722 15.181z" opacity=".15" style="mix-blend-mode:normal"/><path d="M6.314 29.527c-1.196-1.647-2.01-3.85-1.445-6.636 1.436-7.074 9.457-6.296 9.457-6.296C2.73 20.063 6.454 29.557 6.314 29.527z" fill="#fff" opacity=".8"/><path d="M23.57 23.025l-2.114-4.402s-.69-4.12 3.54-4.056c-4.212 1.33-1.426 8.458-1.426 8.458zm3.456 1.934l2.752-5.929s2.447-2.223 6.116-2.571c-3.947 1.032-6.33 4.875-8.868 8.5z" fill="#fff"/><path d="M25.318 41.924c-10.311 0-14.564 2.183-14.564 2.183s4.253 2.182 14.564 2.182h.021c-15.44-1.99 7.315-3.803 8.284-3.81-2.173-.317-4.917-.554-8.305-.554z" opacity=".15"/><path d="M25 46.296c-9.241 0-13.744-2.209-13.744-2.209S15.759 41.878 25 41.878s13.744 2.21 13.744 2.21S34.241 46.295 25 46.295z" opacity=".15"/><path d="M12.528 39.169c.85-.45 1.729-.643 2.593-.962-.587.841-.634 2.724-.357 4.062 0 0-.892.125-3.232.905z" fill="#fff" opacity=".7"/><path d="M12.464 38.021s.3-.288 2.416-.877c-1.59-1.601-1.4-3.446-1.575-3.516-.566.168-1.111.39-1.65.628z" fill="#fff" opacity=".8"/></svg>