<svg width="50mm" height="50mm" clip-rule="evenodd" fill-rule="evenodd" image-rendering="optimizeQuality" shape-rendering="geometricPrecision" text-rendering="geometricPrecision" viewBox="0 0 50 50" xmlns="http://www.w3.org/2000/svg" xmlns:xlink="http://www.w3.org/1999/xlink"><defs><linearGradient id="a"><stop stop-color="#fbf5d1" offset="0"/><stop stop-color="#d8cc92" offset="1"/></linearGradient><linearGradient id="b" x1="-66.027" x2="-28.022" y1="319.14" y2="319.14" gradientTransform="matrix(1.0267 0 0 1.027 73.282 -298.2)" gradientUnits="userSpaceOnUse" xlink:href="#a"/><linearGradient id="c" x1="-51.119" x2="-42.93" y1="306.88" y2="306.88" gradientTransform="matrix(1.0267 0 0 1.027 73.282 -298.2)" gradientUnits="userSpaceOnUse" xlink:href="#a"/></defs><path d="M6.672 19.615c-3.437 6.9 5.725 11.5 5.728 11.501l1.69 4.164-2.302 5.723c-.045.72 6.907 2.591 13.454 2.591s13.498-1.87 13.454-2.59l-2.303-5.724 1.212-4.164s9.165-4.6 5.728-11.501c-3.436-7.476-14.32-4.025-18.33 4.6-3.604-6.979-14.512-12.497-18.332-4.6z" fill="url(#b)" stroke="#000" stroke-linecap="round" stroke-linejoin="round" stroke-width=".8"/><g fill="none" stroke="#000" stroke-linecap="round" stroke-linejoin="round" stroke-width=".8"><path d="M11.788 41.008c6.727-3.605 20.18-3.605 26.907 0M14.089 35.277c6.76-2.416 15.608-2.446 22.303 0M12.4 31.118c6.301-3.45 18.903-3.45 25.204 0"/></g><path d="M25.001 11.882V5.407m-2.864 2.3h5.728m-2.864 20.827s5.155-10.325 3.437-13.776c0 0-1.146-2.875-3.437-2.875s-3.437 2.875-3.437 2.875c-1.718 3.45 3.437 13.776 3.437 13.776" fill="url(#c)" stroke="#000" stroke-linecap="round" stroke-linejoin="round" stroke-width=".8"/><path d="M11.788 41.008s13.695 3.544 11.411 2.534c-6.13-2.708 1.47-5.64 7.327-4.899-7.458-.855-11.675.502-18.737 2.365z" opacity=".2" stroke="#000" stroke-width=".265"/><path d="M25.001 11.882c-.631 0-1.173.222-1.63.539 5.556.591 2.918 12.263 1.92 15.51 1.267-1.039 2.803-7.584 3.127-8.519.02-.804.287-4.118.02-4.655 0 0-1.146-2.875-3.437-2.875zm11.718 3.638c-.47.013-.948.068-1.43.157 7.41 2.652 7.601 10.817-.283 14.325l-1.712 4.361 1.901 5.248 3.499 1.399-2.303-5.724 1.212-4.164s9.165-4.6 5.728-11.501c-1.347-2.931-3.839-4.182-6.612-4.1zm-24.234.228c-.485.009-.959.066-1.418.169 5.793 1.014 11.727 7.404 12.389 9.012-.24-.946-2.246-4.654-2.308-5.487-1.327-1.723-6.696-4.027-8.664-3.694z" opacity=".2"/></svg>