<svg width="50mm" height="50mm" clip-rule="evenodd" fill-rule="evenodd" image-rendering="optimizeQuality" shape-rendering="geometricPrecision" text-rendering="geometricPrecision" viewBox="0 0 50 50" xmlns="http://www.w3.org/2000/svg" xmlns:xlink="http://www.w3.org/1999/xlink"><defs><linearGradient id="b" x1="-505.97" x2="-484.22" y1="-408.5" y2="-408.5" gradientTransform="matrix(1.0113 0 0 1.0008 536.22 433.79)" gradientUnits="userSpaceOnUse" xlink:href="#a"/><linearGradient id="a" x1="9.241" x2="40.761" y1="27.266" y2="27.266" gradientTransform="matrix(.98495 0 0 .98605 .376 .641)" gradientUnits="userSpaceOnUse"><stop stop-color="#ece9df" offset="0"/><stop stop-color="#f4e0c8" offset="1"/></linearGradient><linearGradient id="c" x1="-520.15" x2="-490.84" y1="-394.44" y2="-394.44" gradientTransform="matrix(1.0113 0 0 1.0008 536.22 433.79)" gradientUnits="userSpaceOnUse" xlink:href="#a"/><linearGradient id="d" x1="-526.74" x2="-504.98" y1="-408.5" y2="-408.5" gradientTransform="matrix(1.0113 0 0 1.0008 536.22 433.79)" gradientUnits="userSpaceOnUse" xlink:href="#a"/><linearGradient id="f" x1="-510.08" x2="-500.85" y1="-412.72" y2="-412.72" gradientTransform="matrix(1.0113 0 0 1.0008 536.22 433.79)" gradientUnits="userSpaceOnUse" xlink:href="#a"/><filter id="e" x="-.085" y="-.033" width="1.169" height="1.067" color-interpolation-filters="sRGB"><feGaussianBlur stdDeviation=".392"/></filter><filter id="g" x="-.102" y="-.031" width="1.205" height="1.063" color-interpolation-filters="sRGB"><feGaussianBlur stdDeviation=".172"/></filter><filter id="h" x="-.058" y="-.041" width="1.117" height="1.081" color-interpolation-filters="sRGB"><feGaussianBlur stdDeviation=".258"/></filter></defs><path d="M29.132 18.792c6.387-5.74 17.544-2.606 16.851 6.813-.679 6.17-7.013 8.347-7.013 8.347s-3.827-2.228-13.94-2.228l-.014-3.993z" fill="url(#b)" stroke="#000"/><path d="M37.942 38.831l1.304 5.276S35.468 46.335 25 46.335c-10.468 0-14.247-2.228-14.247-2.228l1.304-5.276-.996-4.878s3.645-2.229 13.94-2.229c10.296 0 13.94 2.228 13.94 2.228z" fill="url(#c)" stroke="#000"/><path d="M10.754 44.106s3.779-2.228 14.248-2.228 14.248 2.228 14.248 2.228M12.058 38.831s3.394-2.228 12.978-2.228 12.977 2.228 12.977 2.228" fill="none" stroke="#000"/><path d="M20.9 18.792c-6.387-5.74-17.544-2.606-16.851 6.813.679 6.17 7.013 8.347 7.013 8.347s3.827-2.228 13.94-2.228l.014-3.993z" fill="url(#d)" stroke="#000"/><path d="M21.65 9.911h6.733M25.016 6.33v7.98" fill="#59917a" stroke="#000" stroke-linecap="round" stroke-linejoin="round"/><path transform="matrix(1.0113 0 0 1.0008 536.22 433.79)" d="M-494.08-417.53a11.67 11.67 0 0 0-1.732.146c9.088-.224 13.443 11.958 1.394 16.485l-1.272 4.958 1.526 5.482 2.961 1.105-1.489-5.469.987-5.207s6.273-1.781 6.934-7.82c.506-4.624-2.547-9.727-9.309-9.68z" filter="url(#e)" opacity=".15" style="mix-blend-mode:normal"/><path d="M20.9 18.792l4.13 8.653 4.13-8.653s.702-4.768-4.13-4.768c-4.833 0-4.13 4.768-4.13 4.768z" fill="url(#f)" stroke="#000" stroke-linejoin="round"/><path transform="matrix(1.0113 0 0 1.0008 536.22 433.79)" d="M-505.48-419.2c4.757.97.867 10.52.016 13.186.024.025 3.078-5.404 4.02-8.913.09-4.504-3.867-4.392-4.036-4.273z" filter="url(#g)" opacity=".15" style="mix-blend-mode:normal"/><path transform="matrix(1.0113 0 0 1.0008 536.22 433.79)" d="M-505.49-402.26v-.075l.015-3.396s-2.681-6.895-4.052-8.914c-1.333-1.963-3.778-2.93-6.565-2.784 3.972 1.765 8.937 10.029 10.602 15.169z" filter="url(#h)" opacity=".15" style="mix-blend-mode:normal"/><path d="M6.314 29.527c-1.196-1.647-2.01-3.85-1.445-6.636 1.436-7.074 9.457-6.296 9.457-6.296C2.73 20.063 6.454 29.557 6.314 29.527z" fill="#fff" opacity=".8"/><path d="M23.57 23.025l-2.114-4.402s-.69-4.12 3.54-4.056c-4.212 1.33-1.426 8.458-1.426 8.458zM27.026 24.959l2.752-5.929s2.447-2.223 6.116-2.571c-3.947 1.032-6.33 4.875-8.868 8.5z" fill="#fff"/><path d="M25.318 41.924c-10.311 0-14.564 2.183-14.564 2.183s4.253 2.182 14.564 2.182h.021c-15.44-1.99 7.315-3.803 8.284-3.81-2.173-.317-4.917-.554-8.305-.554z" opacity=".15"/><path d="M25 46.296c-9.241 0-13.744-2.209-13.744-2.209S15.759 41.878 25 41.878s13.744 2.21 13.744 2.21S34.241 46.295 25 46.295z" opacity=".15"/><path d="M12.528 39.169c.85-.45 1.729-.643 2.593-.962-.587.841-.634 2.724-.357 4.062 0 0-.892.125-3.232.905z" fill="#fff" opacity=".7"/><path d="M12.464 38.021s.3-.288 2.416-.877c-1.59-1.601-1.4-3.446-1.575-3.516-.566.168-1.111.39-1.65.628z" fill="#fff" opacity=".8"/></svg>