<svg width="50mm" height="50mm" clip-rule="evenodd" fill-rule="evenodd" image-rendering="optimizeQuality" shape-rendering="geometricPrecision" text-rendering="geometricPrecision" viewBox="0 0 50 50" xmlns="http://www.w3.org/2000/svg" xmlns:xlink="http://www.w3.org/1999/xlink"><defs><linearGradient id="a"><stop stop-color="#fbf5d1" offset="0"/><stop stop-color="#d8cc92" offset="1"/></linearGradient><linearGradient id="b" x1="-115.84" x2="-78.433" y1="315.71" y2="315.71" gradientTransform="matrix(.99989 0 0 1.0089 121.48 -293.01)" gradientUnits="userSpaceOnUse" xlink:href="#a"/><linearGradient id="c" x1="-116.32" x2="-78.639" y1="299.9" y2="299.97" gradientTransform="matrix(.99989 0 0 1.0089 121.48 -293.01)" gradientUnits="userSpaceOnUse" xlink:href="#a"/></defs><path d="M12.476 33.891c2.613 2.243 3.464-.991 4.388-3.183 1.477-3.32 6.278-2.03 8.205-5.993 2.436 9.807-7.435 7.82-7.907 18.88H42.38C44.11 23 37.852 8.727 18.882 10.715c-1.886-2.028-4.52-3.316-4.52-3.316-1.022 1.943-.916 4.395.604 5.332.398.374-3.193 1.937-2.712 7.353 0 0-2.89 4.955-4.576 8.21-.788 1.635-.014 3.805 1.352 4.99.373.583 2.754 1.397 2.754 1.15" fill="url(#b)" stroke="#000" stroke-dashoffset="1.852" stroke-linecap="round" stroke-linejoin="round" stroke-width=".8"/><path d="M14.986 19.616s.465-2.357 2.829-2.753" fill="none" stroke="#040404" stroke-linecap="round" stroke-linejoin="round"/><ellipse transform="matrix(.97288 -.23132 .19884 .98003 0 0)" cx="12.588" cy="21.907" rx="1.091" ry="1.042" paint-order="markers fill stroke"/><g stroke="#000" stroke-linecap="round"><g stroke-linejoin="round"><path d="M10.046 30.128s-.05-.545.646-1.258" fill="#fff" stroke-width="1.2"/><path d="M25.068 24.71s.674-1.267.928-2.519c.253-1.25.16-2.494.16-2.494" fill="none" stroke-width=".8"/><path d="M18.865 11.989s.59-3.86 3.531-4.517c0 0 2.091.826 1.027 5.562" fill="url(#c)" stroke-width=".8" paint-order="markers fill stroke"/></g><path d="M14.116 31.914c-.277.49-1.314 1.627-2.332 2.517" fill="none" stroke-width=".8"/></g><path d="M23.255 11.592c15.478.598 17.487 13.912 15.945 31.993h3.175c1.587-18.878-3.543-32.443-19.021-33.041z" opacity=".2"/></svg>