<svg width="50mm" height="50mm" clip-rule="evenodd" fill-rule="evenodd" image-rendering="optimizeQuality" shape-rendering="geometricPrecision" text-rendering="geometricPrecision" viewBox="0 0 50 50" xmlns="http://www.w3.org/2000/svg" xmlns:xlink="http://www.w3.org/1999/xlink"><defs><linearGradient id="a"><stop stop-color="#fbf5d1" offset="0"/><stop stop-color="#d8cc92" offset="1"/></linearGradient><linearGradient id="b" x1="-395.88" x2="-368.87" y1="69.058" y2="69.058" gradientTransform="matrix(.98261 0 0 .99826 400.72 -33.772)" gradientUnits="userSpaceOnUse" xlink:href="#a"/><linearGradient id="c" x1="-388.65" x2="-372.34" y1="4.609" y2="4.609" gradientTransform="matrix(.9842 0 0 1.0447 399.48 14.278)" gradientUnits="userSpaceOnUse" xlink:href="#a"/></defs><path d="M21.549 26.733c0 8.692-10.487 9.79-8.7 16.867h24.297c1.787-7.077-8.7-8.175-8.7-16.867h-3.449z" fill="url(#b)" stroke-linejoin="round" stroke-width=".8" stroke="#000"/><path d="M21.549 26.733c-.465 8.186 17.383 9.79 15.597 16.867 2.073-6.4-9.223-9.033-8.7-16.867z" opacity=".2"/><path d="M24.997 10.9c-3.557 0-6.44 2.73-6.44 6.099 0 2.024 1.063 3.917 2.834 5.05 0 0-3.232.872-3.76 2.965-.16.635.074 2.247.074 2.247H32.29s.234-1.612.073-2.247c-.528-2.093-3.76-2.965-3.76-2.965 1.771-1.134 2.833-3.026 2.833-5.05 0-3.369-2.883-6.099-6.44-6.099z" fill="url(#c)" stroke-width=".8" stroke="#000"/><path d="M24.997 10.9c-.539 0-1.062.063-1.562.181 6.653-.122 7.753 7.627 2.044 10.968 0 0 4.273.872 4.801 2.965.16.635-.073 2.272-.073 2.272h2.083s.234-1.637.074-2.272c-.529-2.093-3.76-2.965-3.76-2.965 1.77-1.134 2.833-3.026 2.833-5.05 0-3.369-2.883-6.099-6.44-6.099z" opacity=".2"/><path d="M28.73 22.049c-1.218.11-2.44.161-3.67.159-1.228 0-2.45-.048-3.669-.159" fill="none" stroke-width=".8" stroke="#000"/></svg>