<svg width="50mm" height="50mm" clip-rule="evenodd" fill-rule="evenodd" image-rendering="optimizeQuality" shape-rendering="geometricPrecision" text-rendering="geometricPrecision" viewBox="0 0 50 50" xmlns="http://www.w3.org/2000/svg" xmlns:xlink="http://www.w3.org/1999/xlink"><defs><linearGradient id="b" x1="-394.89" x2="-369.86" y1="69.058" y2="69.058" gradientTransform="translate(421.95 -35.191) scale(1.0381)" gradientUnits="userSpaceOnUse" xlink:href="#a"/><linearGradient id="a"><stop stop-color="#fbf5d1" offset="0"/><stop stop-color="#d7ca8e" offset="1"/></linearGradient><linearGradient id="c" x1="-390.48" x2="-375.7" y1="47.695" y2="47.695" gradientTransform="matrix(1.0517 0 0 1.0868 427.92 -32.34)" gradientUnits="userSpaceOnUse" xlink:href="#a"/></defs><path d="M21.357 27.729c0 9.04-10.519 10.181-8.633 17.54h24.55c1.888-7.36-8.632-8.501-8.632-17.54h-3.643z" fill="url(#b)" stroke="#000" stroke-linejoin="round"/><path d="M21.883 27.729c.228 6.037 17.573 9.172 15.392 17.54 1.262-7.878-10.141-9.947-8.633-17.54z" opacity=".15"/><path d="M25.001 11.264c-3.757 0-6.803 2.84-6.803 6.342 0 2.105 1.122 4.073 2.993 5.252 0 0-2.855.906-3.413 3.083-.17.66.079 1.786.079 1.786h14.29s.247-1.126.077-1.786c-.558-2.177-3.412-3.083-3.412-3.083 1.87-1.179 2.993-3.147 2.993-5.252 0-3.503-3.046-6.342-6.803-6.342z" fill="url(#c)" stroke="#000" stroke-linejoin="round"/><path d="M25.001 11.264c-.57 0-1.122.066-1.65.189 7.029-.128 8.19 7.93 2.159 11.405 0 0 3.954.33 4.512 2.506.17.66-.078 2.363-.078 2.363h2.202s.247-1.703.077-2.363c-.558-2.177-3.412-2.506-3.412-2.506 1.871-1.18 2.993-3.147 2.993-5.253 0-3.502-3.045-6.341-6.802-6.342z" opacity=".15"/><path d="M28.811 22.858c-1.32.108-2.647.158-3.98.155-1.332 0-2.32-.047-3.641-.155" fill="none" stroke="#000"/></svg>