<svg width="50mm" height="50mm" clip-rule="evenodd" fill-rule="evenodd" image-rendering="optimizeQuality" shape-rendering="geometricPrecision" text-rendering="geometricPrecision" viewBox="0 0 50 50" xmlns="http://www.w3.org/2000/svg" xmlns:xlink="http://www.w3.org/1999/xlink"><defs><linearGradient id="c" x1="1390.3" x2="1429.6" y1="-134.08" y2="-134.08" gradientTransform="matrix(1.0005 0 0 1.0135 -1385.7 162.34)" gradientUnits="userSpaceOnUse" xlink:href="#a"/><linearGradient id="a"><stop stop-color="#fbf5d1" offset="0"/><stop stop-color="#d7ca8e" offset="1"/></linearGradient><linearGradient id="d" x1="34.738" x2="69.657" y1="257.05" y2="257.05" gradientTransform="matrix(1.1016 0 0 1.0187 -32.5 -234.16)" gradientUnits="userSpaceOnUse" xlink:href="#b"/><linearGradient id="b" x1="-497.87" x2="-466.88" y1="13.855" y2="13.855" gradientTransform="matrix(1.011 0 0 1.052 512.68 12.69)" gradientUnits="userSpaceOnUse"><stop stop-color="#978672" offset="0"/><stop stop-color="#342c22" offset="1"/></linearGradient><linearGradient id="e" x1="1387.7" x2="1393.9" y1="-147.86" y2="-147.86" gradientTransform="matrix(1.0005 0 0 1.0135 -1385.7 162.34)" gradientUnits="userSpaceOnUse" xlink:href="#a"/><linearGradient id="f" x1="1396.8" x2="1403" y1="-151.09" y2="-151.09" gradientTransform="matrix(1.0005 0 0 1.0135 -1385.7 162.34)" gradientUnits="userSpaceOnUse" xlink:href="#a"/><linearGradient id="g" x1="1406.9" x2="1413.1" y1="-152.69" y2="-152.69" gradientTransform="matrix(1.0005 0 0 1.0135 -1385.7 162.34)" gradientUnits="userSpaceOnUse" xlink:href="#a"/><linearGradient id="h" x1="1417" x2="1423.2" y1="-151.09" y2="-151.09" gradientTransform="matrix(1.0005 0 0 1.0135 -1385.7 162.34)" gradientUnits="userSpaceOnUse" xlink:href="#a"/><linearGradient id="i" x1="1426" x2="1432.2" y1="-147.86" y2="-147.86" gradientTransform="matrix(1.0005 0 0 1.0135 -1385.7 162.34)" gradientUnits="userSpaceOnUse" xlink:href="#a"/></defs><g stroke="#000" stroke-linecap="round" stroke-linejoin="round"><path d="M37.135 37.265l3.281-4.71 3.728-20.6-9.17 16.455.146-19.2-6.937 18.134-3.182-19.708-3.183 19.706-6.935-18.133.144 19.199-9.17-16.455 3.73 20.6 3.28 4.71-1.32 5.881s4.417 2.119 13.465 2.119 13.454-2.118 13.454-2.118z" fill="url(#c)"/><path d="M9.585 32.553c1.354.187 1.753-.368 2.166-1.98 0 0 2.5 1.395 3.78 1.103 1.372-.313 2.486-2.257 2.486-2.257s2.124 1.823 3.398 1.714c1.481-.127 3.52-2.26 3.52-2.26s2.039 2.133 3.52 2.26c1.274.109 3.397-1.714 3.397-1.714s1.115 1.944 2.486 2.257c1.28.292 3.78-1.104 3.78-1.104.414 1.613.812 2.168 2.166 1.981" fill="none"/><ellipse cx="5.857" cy="12.487" rx="2.611" ry="2.319" fill="url(#e)"/></g><path d="M43.586 13.502c-1.197 4.8-4.193 13.744-5.547 18.507l-3.852 4.322.682 5.122 3.093 1.179-.828-5.65 3.071-4.179z" opacity=".15"/><g stroke="#000" stroke-linecap="round" stroke-linejoin="round"><ellipse cx="14.881" cy="9.209" rx="2.611" ry="2.319" fill="url(#f)"/><ellipse cx="25" cy="7.588" rx="2.611" ry="2.319" fill="url(#g)"/><ellipse cx="35.119" cy="9.21" rx="2.611" ry="2.319" fill="url(#h)"/><ellipse cx="44.143" cy="12.489" rx="2.611" ry="2.319" fill="url(#i)"/></g><path d="M25.006 40.477c-4.859 0-9.718.89-12.957 2.67 3.242 1.781 8.107 1.815 12.971 1.813-11.974-1.95 1.971-3.836 6.772-3.871-2.145-.407-4.464-.612-6.785-.612z" opacity=".15"/><path d="M11.548 43.147s4.409-2.22 13.457-2.22c9.048 0 13.457 2.22 13.457 2.22M12.81 37.632s3.683-2.12 12.21-2.12c8.526 0 12.21 2.12 12.21 2.12" fill="none" stroke="#000"/></svg>