<svg width="50mm" height="50mm" clip-rule="evenodd" fill-rule="evenodd" image-rendering="optimizeQuality" shape-rendering="geometricPrecision" text-rendering="geometricPrecision" viewBox="0 0 50 50" xmlns="http://www.w3.org/2000/svg"><defs><linearGradient id="a" x1="-234.85" x2="-201.95" y1="313.98" y2="313.98" gradientTransform="matrix(1.0555 0 0 1.0121 255.51 -290.29)" gradientUnits="userSpaceOnUse"><stop stop-color="#fbf5d1" offset="0"/><stop stop-color="#d8cc92" offset="1"/></linearGradient></defs><path d="M21.485 27.099l-5.55-17.334-.39 18.381L7.38 12.461l3.006 18.724 3.11 3.826-2.373 6.077c6.792 3.427 20.685 3.296 27.747.002l-.098-.209-2.274-5.868 3.11-3.826 3.005-18.724-8.163 15.685-.39-18.382L28.51 27.1 24.997 9.232z" fill="url(#a)" stroke="#000" stroke-linecap="round" stroke-linejoin="round" stroke-width=".8"/><g fill="none" stroke="#000" stroke-linecap="round" stroke-linejoin="round" stroke-width=".8"><path d="M39.484 31.184c-1.722.193-1.292-1.592-1.811-2.476 0 0-2.539 1.93-3.825 1.614-1.296-.319-2.356-2.747-2.356-2.747s-2.012 2.32-3.22 2.213c-1.404-.124-3.336-3.114-3.336-3.114s-1.932 2.99-3.336 3.114c-1.208.107-3.22-2.213-3.22-2.213s-1.057 2.44-2.356 2.747c-1.214.287-3.584-1.614-3.584-1.614-.391 1.585-.77 2.66-2.052 2.476M11.134 41.086c6.934-3.498 20.803-3.498 27.737 0M13.497 35.009c6.968-2.344 16.09-2.374 22.99 0"/></g><ellipse cx="7.381" cy="12.462" rx="2.474" ry="2.279" fill="#f8f1cb" stroke="#000" stroke-linecap="round" stroke-linejoin="round" stroke-width=".8"/><path d="M11.124 41.096s14.196-3.182 11.729-2.498c-8.71 2.419 1.25 5.531 7.532 4.829-7.667.843-12-.495-19.262-2.331z" opacity=".2" stroke="#000" stroke-width=".265"/><path d="M42.372 12.922c-1.134 4.717-3.732 13.043-5.015 17.723l-3.651 3.723 2.233 5.559 2.932 1.158-2.373-6.078 3.11-3.826z" opacity=".2"/><g stroke="#000" stroke-linecap="round" stroke-linejoin="round" stroke-width=".8"><ellipse cx="15.935" cy="9.758" rx="2.474" ry="2.279" fill="#f1eac0"/><ellipse cx="24.997" cy="8.167" rx="2.474" ry="2.279" fill="#eae1b2"/><ellipse cx="34.06" cy="9.768" rx="2.474" ry="2.279" fill="#e3d8a5"/><ellipse cx="42.614" cy="12.462" rx="2.474" ry="2.279" fill="#ddd19a"/></g></svg>