<svg width="50mm" height="50mm" clip-rule="evenodd" fill-rule="evenodd" image-rendering="optimizeQuality" shape-rendering="geometricPrecision" text-rendering="geometricPrecision" viewBox="0 0 50 50" xmlns="http://www.w3.org/2000/svg"><defs><linearGradient id="a" x1="9.005" x2="40.995" y1="26.762" y2="26.762" gradientTransform="translate(0 1.029)" gradientUnits="userSpaceOnUse"><stop stop-color="#ece9df" offset="0"/><stop stop-color="#f4e0c8" offset="1"/></linearGradient><filter id="b" x="-.112" y="-.03" width="1.223" height="1.061" color-interpolation-filters="sRGB"><feGaussianBlur stdDeviation=".463"/></filter><linearGradient id="c" x1="-36.133" x2="-9.938" y1="-313.97" y2="-313.97" gradientTransform="matrix(-1 0 0 1 1.964 333.28)" gradientUnits="userSpaceOnUse"><stop offset="0"/><stop offset="1" stop-opacity="0"/></linearGradient></defs><path d="M12.973 41.57h24.121m-24.127-4.371h24.066m-20.061-4.052H33.03M17.062 21.53h15.879m-21.038-4.432h26.196m-26.196-7.81v7.81l5.158 4.433-.09 11.618-4.003 4.051v4.371H9.505v4.726h30.99V41.57h-3.462V37.2l-4.004-4.052-.09-11.618 5.159-4.433v-7.81h-5.593v3.347h-4.613V9.286h-5.783v3.348h-4.613V9.286z" fill="url(#a)" stroke="#000" stroke-linecap="round"/><path transform="matrix(1.031 0 0 1.0112 -12.232 280.67)" d="M46.199-268.38v7.725l-5.02 4.386.089 11.489 4.413 4.006v4.323h2.829v4.673h2.632v-4.673h-3.358v-4.322L43.9-244.78l-.088-11.492 5.002-4.383v-7.725z" filter="url(#b)" opacity=".15" style="mix-blend-mode:normal"/><path d="M12.466 16.525l-.041-6.675 3.328-.095-1.997.711v5.356l4.704.667zM17.596 22.031h7.58l-6.467 1v8.598l-1.161.922z" style="mix-blend-mode:normal" fill="#fff" opacity=".8"/><path d="M14.358 36.582l2.86-2.83h1.479l-2.4 2.83zM13.518 37.794l.005 3.214h1.524l-.003-3.225zM10.067 42.104h1.015v2.66l3.872.987h-4.887z" opacity=".7" style="mix-blend-mode:normal" fill="#fff"/><path d="M22.651 9.794l-.017 2.433c.658-1.23 1.363-2.176 3.026-2.424z" style="mix-blend-mode:normal" fill="#fff" opacity=".8"/><path d="M33.051 9.807l-.017 2.433c.388-1.52 1.111-2.39 3.026-2.425z" style="mix-blend-mode:normal" fill="#fff" opacity=".7"/><path d="M38.098 17.097H11.903l5.16 4.433H32.94z" fill="url(#c)" opacity=".15"/></svg>