<?xml version="1.0" encoding="UTF-8" standalone="no"?>
<!-- Creator: CorelDRAW X5 -->

<svg
   xmlns:dc="http://purl.org/dc/elements/1.1/"
   xmlns:cc="http://creativecommons.org/ns#"
   xmlns:rdf="http://www.w3.org/1999/02/22-rdf-syntax-ns#"
   xmlns:svg="http://www.w3.org/2000/svg"
   xmlns="http://www.w3.org/2000/svg"
   xmlns:sodipodi="http://sodipodi.sourceforge.net/DTD/sodipodi-0.dtd"
   xmlns:inkscape="http://www.inkscape.org/namespaces/inkscape"
   xml:space="preserve"
   width="38.1mm"
   height="38.1mm"
   style="shape-rendering:geometricPrecision; text-rendering:geometricPrecision; image-rendering:optimizeQuality; fill-rule:evenodd; clip-rule:evenodd"
   viewBox="0 0 3810 3810"
   id="svg2"
   version="1.1"
   inkscape:version="0.91 r13725"
   sodipodi:docname="bK.svg"><metadata
     id="metadata50"><rdf:RDF><cc:Work
         rdf:about=""><dc:format>image/svg+xml</dc:format><dc:type
           rdf:resource="http://purl.org/dc/dcmitype/StillImage" /></cc:Work></rdf:RDF></metadata><sodipodi:namedview
     pagecolor="#ffffff"
     bordercolor="#666666"
     borderopacity="1"
     objecttolerance="10"
     gridtolerance="10"
     guidetolerance="10"
     inkscape:pageopacity="0"
     inkscape:pageshadow="2"
     inkscape:window-width="640"
     inkscape:window-height="480"
     id="namedview48"
     showgrid="false"
     inkscape:zoom="1.7481482"
     inkscape:cx="67.499997"
     inkscape:cy="67.499997"
     inkscape:window-x="0"
     inkscape:window-y="0"
     inkscape:window-maximized="0"
     inkscape:current-layer="svg2" /><defs
     id="defs4"><style
       type="text/css"
       id="style6"><![CDATA[
    .fil1 {fill:#111111}
    .fil0 {fill:#383838}
   ]]></style></defs><g
     id="Warstwa_x0020_1"
     transform="matrix(-1,0,0,-1,3810,3810)"><metadata
       id="CorelCorpID_0Corel-Layer" /><polygon
       class="fil0"
       points="2756,3294 1068,3270 1342,1632 2440,1641 "
       id="polygon10"
       style="fill:#383838" /><rect
       class="fil0"
       x="798"
       y="3241"
       width="2217"
       height="204"
       id="rect12"
       style="fill:#383838" /><rect
       class="fil0"
       x="967"
       y="3388"
       width="1885"
       height="153"
       id="rect14"
       style="fill:#383838" /><rect
       class="fil0"
       x="794"
       y="3507"
       width="2217"
       height="204"
       id="rect16"
       style="fill:#383838" /><path
       class="fil1"
       d="m 1401,1751 1061,0 288,1489 266,0 0,204 -161,-3 0,63 157,3 0,204 -316,0 c 0,0 -26,-149 -71,-267 -45,-117 -85,-80 -135,-448 -49,-368 -150,-1101 -150,-1101 l -939,-145 z"
       id="path18"
       inkscape:connector-curvature="0"
       style="fill:#111111" /><polygon
       class="fil1"
       points="2854,3505 970,3505 970,3442 2854,3442 "
       id="polygon20"
       style="fill:#111111" /><rect
       class="fil0"
       x="1088"
       y="1531"
       width="1638"
       height="220"
       id="rect22"
       style="fill:#383838" /><path
       class="fil0"
       d="m 1278,1611 c 0,0 -241,-328 -199,-572 50,-285 382,-408 875,-435 148,-8 98,1007 98,1007 l -774,0 z"
       id="path24"
       inkscape:connector-curvature="0"
       style="fill:#383838" /><path
       class="fil0"
       d="m 2515,1611 c 0,0 241,-328 199,-572 -50,-285 -382,-408 -875,-435 -148,-8 -98,1007 -98,1007 l 774,0 z"
       id="path26"
       inkscape:connector-curvature="0"
       style="fill:#383838" /><path
       class="fil0"
       d="m 1560,655 c 0,0 253,-63 226,-169 -27,-106 114,-19 114,-19 l 10,146 -350,43 z"
       id="path28"
       inkscape:connector-curvature="0"
       style="fill:#383838" /><path
       class="fil0"
       d="m 2172,647 c 0,0 -154,-75 -158,-161 -5,-86 -114,-19 -114,-19 l -10,147 282,34 z"
       id="path30"
       inkscape:connector-curvature="0"
       style="fill:#383838" /><ellipse
       class="fil0"
       cx="1755"
       cy="279"
       rx="91"
       ry="89"
       id="ellipse32"
       style="fill:#383838" /><ellipse
       class="fil0"
       cx="1784"
       cy="417"
       rx="64"
       ry="62"
       id="ellipse34"
       style="fill:#383838" /><ellipse
       class="fil0"
       cx="2039"
       cy="279"
       rx="91"
       ry="89"
       id="ellipse36"
       style="fill:#383838" /><ellipse
       class="fil0"
       cx="2010"
       cy="417"
       rx="64"
       ry="62"
       id="ellipse38"
       style="fill:#383838" /><ellipse
       class="fil0"
       cx="1900"
       cy="200"
       rx="97"
       ry="101"
       id="ellipse40"
       style="fill:#383838" /><polygon
       class="fil0"
       points="1900,200 2039,279 1964,530 1836,526 1755,279 "
       id="polygon42"
       style="fill:#383838" /><path
       class="fil1"
       d="m 2014,486 c 0,0 -49,94 18,144 66,50 231,81 319,139 89,58 240,120 241,284 2,164 -33,236 -139,351 -107,116 -175,126 -175,126 l 288,0 c 0,0 87,-152 110,-226 23,-74 52,-167 36,-267 -16,-100 -90,-225 -206,-280 -116,-56 -86,-51 -170,-75 -83,-24 -94,-26 -103,-28 -9,-2 -95,-27 -95,-27 0,0 -45,-25 -70,-51 -25,-26 -55,-91 -55,-91 z"
       id="path44"
       inkscape:connector-curvature="0"
       style="fill:#111111" /><polygon
       class="fil1"
       points="2726,1751 2726,1531 2278,1531 2312,1751 "
       id="polygon46"
       style="fill:#111111" /></g></svg>