<?xml version="1.0" encoding="UTF-8" standalone="no"?>
<!-- Creator: CorelDRAW X5 -->

<svg
   xmlns:dc="http://purl.org/dc/elements/1.1/"
   xmlns:cc="http://creativecommons.org/ns#"
   xmlns:rdf="http://www.w3.org/1999/02/22-rdf-syntax-ns#"
   xmlns:svg="http://www.w3.org/2000/svg"
   xmlns="http://www.w3.org/2000/svg"
   xmlns:sodipodi="http://sodipodi.sourceforge.net/DTD/sodipodi-0.dtd"
   xmlns:inkscape="http://www.inkscape.org/namespaces/inkscape"
   xml:space="preserve"
   width="38.1mm"
   height="38.1mm"
   style="shape-rendering:geometricPrecision; text-rendering:geometricPrecision; image-rendering:optimizeQuality; fill-rule:evenodd; clip-rule:evenodd"
   viewBox="0 0 3810 3810"
   id="svg2"
   version="1.1"
   inkscape:version="0.91 r13725"
   sodipodi:docname="bN.svg"><metadata
     id="metadata26"><rdf:RDF><cc:Work
         rdf:about=""><dc:format>image/svg+xml</dc:format><dc:type
           rdf:resource="http://purl.org/dc/dcmitype/StillImage" /></cc:Work></rdf:RDF></metadata><sodipodi:namedview
     pagecolor="#ffffff"
     bordercolor="#666666"
     borderopacity="1"
     objecttolerance="10"
     gridtolerance="10"
     guidetolerance="10"
     inkscape:pageopacity="0"
     inkscape:pageshadow="2"
     inkscape:window-width="640"
     inkscape:window-height="480"
     id="namedview24"
     showgrid="false"
     inkscape:zoom="1.7481482"
     inkscape:cx="67.499996"
     inkscape:cy="67.499996"
     inkscape:window-x="0"
     inkscape:window-y="0"
     inkscape:window-maximized="0"
     inkscape:current-layer="svg2"
     showguides="true"
     inkscape:guide-bbox="true"><sodipodi:guide
       position="3664.7032,3713.1354"
       orientation="0,1"
       id="guide3342" /></sodipodi:namedview><defs
     id="defs4"><style
       type="text/css"
       id="style6"><![CDATA[
    .fil1 {fill:#111111}
    .fil0 {fill:#383838}
   ]]></style></defs><g
     id="Warstwa_x0020_1"
     transform="matrix(-1,0,0,-1,3809.6623,3827.8779)"><metadata
       id="CorelCorpID_0Corel-Layer" /><path
       class="fil0"
       d="m 829,1378 c -165,151 -145,140 -72,271 72,131 241,188 400,142 158,-46 506,-183 633,-154 127,30 159,91 167,157 8,66 -186,227 -400,433 -214,205 -402,243 -373,671 30,428 19,525 -42,592 -61,67 1074,263 1221,196 147,-68 543,-55 465,-460 -78,-406 -208,-900 -10,-1238 198,-338 398,-1042 -527,-1423 -925,-381 -558,35 -648,83 -90,47 -121,57 -175,83 -98,47 -462,486 -639,647 z"
       id="path10"
       inkscape:connector-curvature="0"
       style="fill:#383838" /><rect
       class="fil0"
       x="890"
       y="3239"
       width="2217"
       height="204"
       id="rect12"
       style="fill:#383838" /><rect
       class="fil0"
       x="1059"
       y="3386"
       width="1885"
       height="153"
       id="rect14"
       style="fill:#383838" /><rect
       class="fil0"
       x="886"
       y="3506"
       width="2217"
       height="204"
       id="rect16"
       style="fill:#383838" /><path
       class="fil1"
       d="m 1615,1644 c 0,0 85,-124 262,-131 176,-7 75,-331 75,-331 0,0 227,293 227,444 0,151 -239,217 -239,217 0,0 -30,-182 -324,-200 z"
       id="path18"
       inkscape:connector-curvature="0"
       style="fill:#111111" /><path
       class="fil1"
       d="m 2619,744 c 0,0 425,238 221,842 -204,604 -560,915 -498,1226 62,311 9,364 31,391 22,27 93,27 195,-4 102,-31 84,44 93,89 9,44 72,421 72,421 l 369,0 0,-204 -159,0 0,-63 163,0 0,-204 -277,0 c 0,0 -95,-448 -116,-728 -21,-280 58,-454 170,-653 111,-200 231,-777 -265,-1113 z"
       id="path20"
       inkscape:connector-curvature="0"
       style="fill:#111111" /><polygon
       class="fil1"
       points="2945,3443 2945,3506 1060,3506 1060,3443 "
       id="polygon22"
       style="fill:#111111" /></g></svg>