<?xml version="1.0" encoding="UTF-8" standalone="no"?>
<!-- Creator: CorelDRAW X5 -->

<svg
   xmlns:dc="http://purl.org/dc/elements/1.1/"
   xmlns:cc="http://creativecommons.org/ns#"
   xmlns:rdf="http://www.w3.org/1999/02/22-rdf-syntax-ns#"
   xmlns:svg="http://www.w3.org/2000/svg"
   xmlns="http://www.w3.org/2000/svg"
   xmlns:sodipodi="http://sodipodi.sourceforge.net/DTD/sodipodi-0.dtd"
   xmlns:inkscape="http://www.inkscape.org/namespaces/inkscape"
   xml:space="preserve"
   width="38.1mm"
   height="38.1mm"
   style="shape-rendering:geometricPrecision; text-rendering:geometricPrecision; image-rendering:optimizeQuality; fill-rule:evenodd; clip-rule:evenodd"
   viewBox="0 0 3810 3810"
   id="svg2"
   version="1.1"
   inkscape:version="0.91 r13725"
   sodipodi:docname="bR.svg"><metadata
     id="metadata28"><rdf:RDF><cc:Work
         rdf:about=""><dc:format>image/svg+xml</dc:format><dc:type
           rdf:resource="http://purl.org/dc/dcmitype/StillImage" /></cc:Work></rdf:RDF></metadata><sodipodi:namedview
     pagecolor="#ffffff"
     bordercolor="#666666"
     borderopacity="1"
     objecttolerance="10"
     gridtolerance="10"
     guidetolerance="10"
     inkscape:pageopacity="0"
     inkscape:pageshadow="2"
     inkscape:window-width="640"
     inkscape:window-height="480"
     id="namedview26"
     showgrid="false"
     inkscape:zoom="1.7481482"
     inkscape:cx="67.499997"
     inkscape:cy="67.499997"
     inkscape:window-x="0"
     inkscape:window-y="0"
     inkscape:window-maximized="0"
     inkscape:current-layer="svg2" /><defs
     id="defs4"><style
       type="text/css"
       id="style6"><![CDATA[
    .fil1 {fill:#111111}
    .fil0 {fill:#383838}
   ]]></style></defs><g
     id="Warstwa_x0020_1"
     transform="matrix(-1,0,0,-1,3810,4302)"><metadata
       id="CorelCorpID_0Corel-Layer" /><polygon
       class="fil0"
       points="2751,3288 1063,3266 1259,1694 2542,1698 "
       id="polygon10"
       style="fill:#383838" /><polygon
       class="fil0"
       points="3021,596 2497,627 2497,909 2190,909 2190,636 1641,636 1641,909 1321,909 1318,637 797,596 1002,1747 2804,1747 "
       id="polygon12"
       style="fill:#383838" /><rect
       class="fil0"
       x="793"
       y="3235"
       width="2217"
       height="204"
       id="rect14"
       style="fill:#383838" /><rect
       class="fil0"
       x="962"
       y="3382"
       width="1885"
       height="153"
       id="rect16"
       style="fill:#383838" /><rect
       class="fil0"
       x="789"
       y="3502"
       width="2217"
       height="204"
       id="rect18"
       style="fill:#383838" /><path
       class="fil1"
       d="m 2852,606 c 0,0 -146,919 -168,986 -22,67 -94,155 -94,155 l 213,0 217,-1151 -169,10 z"
       id="path20"
       inkscape:connector-curvature="0"
       style="fill:#111111" /><path
       class="fil1"
       d="m 1386,1747 1162,0 195,1488 266,0 0,204 -161,-3 0,63 157,3 0,204 -316,0 c 0,0 -24,-171 -67,-269 -42,-99 -90,-78 -139,-445 -49,-368 -153,-1020 -153,-1020 l -945,-223 z"
       id="path22"
       inkscape:connector-curvature="0"
       style="fill:#111111" /><polygon
       class="fil1"
       points="2849,3499 964,3499 964,3436 2849,3436 "
       id="polygon24"
       style="fill:#111111" /></g></svg>