<?xml version="1.0" encoding="UTF-8" standalone="no"?>
<!-- Creator: CorelDRAW X5 -->

<svg
   xmlns:dc="http://purl.org/dc/elements/1.1/"
   xmlns:cc="http://creativecommons.org/ns#"
   xmlns:rdf="http://www.w3.org/1999/02/22-rdf-syntax-ns#"
   xmlns:svg="http://www.w3.org/2000/svg"
   xmlns="http://www.w3.org/2000/svg"
   xmlns:sodipodi="http://sodipodi.sourceforge.net/DTD/sodipodi-0.dtd"
   xmlns:inkscape="http://www.inkscape.org/namespaces/inkscape"
   xml:space="preserve"
   width="38.1mm"
   height="38.1mm"
   style="shape-rendering:geometricPrecision; text-rendering:geometricPrecision; image-rendering:optimizeQuality; fill-rule:evenodd; clip-rule:evenodd"
   viewBox="0 0 3810 3810"
   id="svg2"
   version="1.1"
   inkscape:version="0.91 r13725"
   sodipodi:docname="wB.svg"><metadata
     id="metadata36"><rdf:RDF><cc:Work
         rdf:about=""><dc:format>image/svg+xml</dc:format><dc:type
           rdf:resource="http://purl.org/dc/dcmitype/StillImage" /></cc:Work></rdf:RDF></metadata><sodipodi:namedview
     pagecolor="#ffffff"
     bordercolor="#666666"
     borderopacity="1"
     objecttolerance="10"
     gridtolerance="10"
     guidetolerance="10"
     inkscape:pageopacity="0"
     inkscape:pageshadow="2"
     inkscape:window-width="640"
     inkscape:window-height="480"
     id="namedview34"
     showgrid="false"
     inkscape:zoom="1.7481482"
     inkscape:cx="67.499997"
     inkscape:cy="67.499997"
     inkscape:window-x="0"
     inkscape:window-y="0"
     inkscape:window-maximized="0"
     inkscape:current-layer="svg2" /><defs
     id="defs4"><style
       type="text/css"
       id="style6"><![CDATA[
    .fil1 {fill:#D1D1D1}
    .fil0 {fill:white}
   ]]></style></defs><g
     id="Warstwa_x0020_1"
     transform="matrix(-1,0,0,-1,3810,4014)"><metadata
       id="CorelCorpID_0Corel-Layer" /><path
       class="fil0"
       d="m 1870,482 c 0,0 621,269 458,883 -163,614 -570,260 -570,260 l 113,-1142 0,0 z"
       id="path10"
       inkscape:connector-curvature="0"
       style="fill:#ffffff" /><rect
       class="fil0"
       x="798"
       y="3238"
       width="2217"
       height="204"
       id="rect12"
       style="fill:#ffffff" /><rect
       class="fil0"
       x="967"
       y="3385"
       width="1885"
       height="153"
       id="rect14"
       style="fill:#ffffff" /><rect
       class="fil0"
       x="794"
       y="3505"
       width="2217"
       height="204"
       id="rect16"
       style="fill:#ffffff" /><polygon
       class="fil0"
       points="2679,3257 1124,3257 1580,1553 2178,1553 "
       id="polygon18"
       style="fill:#ffffff" /><rect
       class="fil0"
       x="1286"
       y="1511"
       width="1200"
       height="152"
       id="rect20"
       style="fill:#ffffff" /><path
       class="fil0"
       d="m 1885,483 c 0,0 -623,269 -459,883 164,614 572,260 572,260 l -113,-1142 0,0 z"
       id="path22"
       inkscape:connector-curvature="0"
       style="fill:#ffffff" /><ellipse
       class="fil0"
       cx="1880"
       cy="448"
       rx="174"
       ry="143"
       id="ellipse24"
       style="fill:#ffffff" /><path
       class="fil1"
       d="m 1970,325 c 0,0 38,51 38,113 0,61 -14,118 -14,118 0,0 162,-115 -24,-231 z"
       id="path26"
       inkscape:connector-curvature="0"
       style="fill:#d1d1d1" /><polygon
       class="fil1"
       points="2852,3505 967,3505 967,3442 2852,3442 "
       id="polygon28"
       style="fill:#d1d1d1" /><path
       class="fil1"
       d="m 1994,556 c 0,0 221,144 300,333 79,189 66,259 50,397 -16,138 -68,224 -68,224 l 209,0 0,152 -321,0 -17,-152 c 0,0 -2,-42 -12,-77 -10,-36 93,-85 104,-240 10,-155 1,-253 -53,-368 -53,-116 -194,-269 -194,-269 z"
       id="path30"
       inkscape:connector-curvature="0"
       style="fill:#d1d1d1" /><polygon
       class="fil1"
       points="2675,3238 3016,3238 3016,3442 2852,3442 2852,3505 3012,3505 3012,3709 2531,3709 2531,3505 2531,3442 2447,3238 2135,1809 1541,1663 2210,1663 "
       id="polygon32"
       style="fill:#d1d1d1" /></g></svg>