<?xml version="1.0" encoding="UTF-8" standalone="no"?>
<!-- Creator: CorelDRAW X5 -->

<svg
   xmlns:dc="http://purl.org/dc/elements/1.1/"
   xmlns:cc="http://creativecommons.org/ns#"
   xmlns:rdf="http://www.w3.org/1999/02/22-rdf-syntax-ns#"
   xmlns:svg="http://www.w3.org/2000/svg"
   xmlns="http://www.w3.org/2000/svg"
   xmlns:sodipodi="http://sodipodi.sourceforge.net/DTD/sodipodi-0.dtd"
   xmlns:inkscape="http://www.inkscape.org/namespaces/inkscape"
   xml:space="preserve"
   width="38.1mm"
   height="38.1mm"
   style="shape-rendering:geometricPrecision; text-rendering:geometricPrecision; image-rendering:optimizeQuality; fill-rule:evenodd; clip-rule:evenodd"
   viewBox="0 0 3810 3810"
   id="svg2"
   version="1.1"
   inkscape:version="0.91 r13725"
   sodipodi:docname="wQ.svg"><metadata
     id="metadata42"><rdf:RDF><cc:Work
         rdf:about=""><dc:format>image/svg+xml</dc:format><dc:type
           rdf:resource="http://purl.org/dc/dcmitype/StillImage" /></cc:Work></rdf:RDF></metadata><sodipodi:namedview
     pagecolor="#ffffff"
     bordercolor="#666666"
     borderopacity="1"
     objecttolerance="10"
     gridtolerance="10"
     guidetolerance="10"
     inkscape:pageopacity="0"
     inkscape:pageshadow="2"
     inkscape:window-width="640"
     inkscape:window-height="480"
     id="namedview40"
     showgrid="false"
     inkscape:zoom="1.7481482"
     inkscape:cx="67.499997"
     inkscape:cy="67.499997"
     inkscape:window-x="0"
     inkscape:window-y="0"
     inkscape:window-maximized="0"
     inkscape:current-layer="svg2" /><defs
     id="defs4"><style
       type="text/css"
       id="style6"><![CDATA[
    .fil1 {fill:#D1D1D1}
    .fil0 {fill:white}
   ]]></style></defs><g
     id="Warstwa_x0020_1"
     transform="matrix(-1,0,0,-1,3809,3979)"><metadata
       id="CorelCorpID_0Corel-Layer" /><polygon
       class="fil0"
       points="2756,3288 1068,3264 1445,1626 2337,1630 "
       id="polygon10"
       style="fill:#ffffff" /><rect
       class="fil0"
       x="798"
       y="3235"
       width="2217"
       height="204"
       id="rect12"
       style="fill:#ffffff" /><rect
       class="fil0"
       x="967"
       y="3382"
       width="1885"
       height="153"
       id="rect14"
       style="fill:#ffffff" /><rect
       class="fil0"
       x="794"
       y="3501"
       width="2217"
       height="204"
       id="rect16"
       style="fill:#ffffff" /><path
       class="fil1"
       d="m 1401,1745 965,0 383,1489 266,0 0,204 -161,0 0,60 157,3 0,204 -316,0 c 0,0 -26,-149 -71,-267 -45,-117 -85,-80 -135,-448 -49,-368 -253,-1117 -253,-1117 l -836,-129 z"
       id="path18"
       inkscape:connector-curvature="0"
       style="fill:#d1d1d1" /><polygon
       class="fil1"
       points="2854,3499 970,3499 970,3436 2854,3436 "
       id="polygon20"
       style="fill:#d1d1d1" /><rect
       class="fil0"
       x="1088"
       y="1526"
       width="1638"
       height="220"
       id="rect22"
       style="fill:#ffffff" /><polygon
       class="fil0"
       points="1446,1058 1406,374 1884,931 1916,1563 1352,1563 949,798 "
       id="polygon24"
       style="fill:#ffffff" /><polygon
       class="fil0"
       points="2321,1058 2361,375 1883,931 1865,1563 2416,1563 2819,799 "
       id="polygon26"
       style="fill:#ffffff" /><circle
       class="fil0"
       cx="949"
       cy="798"
       r="100"
       id="circle28"
       style="fill:#ffffff" /><circle
       class="fil0"
       cx="1406"
       cy="374"
       r="100"
       id="circle30"
       style="fill:#ffffff" /><circle
       class="fil0"
       cx="2361"
       cy="375"
       r="100"
       id="circle32"
       style="fill:#ffffff" /><circle
       class="fil1"
       cx="2819"
       cy="799"
       r="100"
       id="circle34"
       style="fill:#d1d1d1" /><path
       class="fil1"
       d="m 2421,295 -97,173 -240,1058 351,0 337,-639 -42,-42 -409,213 43,-584 c 0,0 182,-32 57,-180 z"
       id="path36"
       inkscape:connector-curvature="0"
       style="fill:#d1d1d1" /><polygon
       class="fil1"
       points="2726,1745 2726,1526 2260,1526 2260,1745 "
       id="polygon38"
       style="fill:#d1d1d1" /></g></svg>