<?xml version="1.0" encoding="UTF-8" standalone="no"?>
<svg
   xmlns:dc="http://purl.org/dc/elements/1.1/"
   xmlns:cc="http://creativecommons.org/ns#"
   xmlns:rdf="http://www.w3.org/1999/02/22-rdf-syntax-ns#"
   xmlns:svg="http://www.w3.org/2000/svg"
   xmlns="http://www.w3.org/2000/svg"
   xmlns:sodipodi="http://sodipodi.sourceforge.net/DTD/sodipodi-0.dtd"
   xmlns:inkscape="http://www.inkscape.org/namespaces/inkscape"
   viewBox="0 0 2048 2048"
   id="svg2"
   version="1.1"
   inkscape:version="0.91 r13725"
   width="100%"
   height="100%"
   sodipodi:docname="bQ.svg">
  <metadata
     id="metadata12">
    <rdf:RDF>
      <cc:Work
         rdf:about="">
        <dc:format>image/svg+xml</dc:format>
        <dc:type
           rdf:resource="http://purl.org/dc/dcmitype/StillImage" />
        <dc:title />
      </cc:Work>
    </rdf:RDF>
  </metadata>
  <defs
     id="defs10" />
  <sodipodi:namedview
     pagecolor="#ffffff"
     bordercolor="#666666"
     borderopacity="1"
     objecttolerance="10"
     gridtolerance="10"
     guidetolerance="10"
     inkscape:pageopacity="0"
     inkscape:pageshadow="2"
     inkscape:window-width="640"
     inkscape:window-height="667"
     id="namedview8"
     showgrid="false"
     inkscape:zoom="0.11523438"
     inkscape:cx="1024"
     inkscape:cy="1024"
     inkscape:window-x="0"
     inkscape:window-y="0"
     inkscape:window-maximized="0"
     inkscape:current-layer="svg2" />
  <g
     transform="matrix(-1,0,0,1,2048,79.358974)"
     id="g4">
    <path
       d="m 590,529 q 4,-72 -15,-158 l 134,86 z m 434,-324 -583,0 Q 555,436 498.5,661.5 442,887 296,1111 q -12,-2 -19,-2 -54,0 -92.5,38.5 -38.5,38.5 -38.5,92.5 0,54 38.5,92.5 38.5,38.5 92.5,38.5 54,0 92.5,-38.5 38.5,-38.5 38.5,-92.5 0,-20 -6,-38 -4,-14 -15,-33 l 196,-139 100,486 q -64,31 -72,103 -5,44 29,91 34,47 88,53 54,5 96,-29 42,-34 48,-88 7,-68 -46,-114 l 198,-412 198,412 q -54,46 -46,114 6,54 48,88 42,34 96,29 54,-6 87.5,-53 33.5,-47 29.5,-91 -9,-72 -72,-103 l 100,-486 196,139 q -12,19 -15,33 -6,18 -6,38 0,54 38.5,92.5 38.5,38.5 92.5,38.5 54,0 92.5,-38.5 38.5,-38.5 38.5,-92.5 0,-54 -38.5,-92.5 -38.5,-38.5 -92.5,-38.5 -7,0 -19,2 Q 1605,887 1549,661.5 1493,436 1607,205 l -583,0 z m 0,450 q 109,0 222,-28.5 113,-28.5 213,-67.5 2,41 11,89 -108,42 -221.5,68 -113.5,26 -224.5,26 -111,0 -225,-26 -114,-26 -221,-68 8,-48 11,-89 99,39 212,67.5 113,28.5 223,28.5 z m 0,-376 478,0 q -15,34 -24,73 l -454,0 -454,0 q -10,-39 -24,-73 l 478,0 z m 434,250 -119,-72 134,-86 q -20,86 -15,158 z m -573,-47 139,-87 139,84 -139,86 z"
       id="path6"
       inkscape:connector-curvature="0"
       style="fill:#101010" />
  </g>
  <path
     style="fill:#ececec;fill-opacity:1;stroke:#101010;stroke-width:0;stroke-linecap:round;stroke-linejoin:miter;stroke-miterlimit:3.79999995;stroke-dasharray:none;stroke-dashoffset:0;stroke-opacity:1"
     d="m 1492.6102,368.77587 c 0,1.6742 -4.2871,15.342 -9.5269,30.3729 l -9.5269,27.3288 -449.5564,0 -449.5564,0 -9.5268,-27.3288 c -5.2399,-15.0309 -9.527,-28.6987 -9.527,-30.3729 0,-1.6742 210.8746,-3.044 468.6102,-3.044 257.7356,0 468.6102,1.3698 468.6102,3.044 z"
     id="path2989"
     inkscape:connector-curvature="0" />
  <path
     style="fill:#ececec;fill-opacity:1;stroke:#101010;stroke-width:0;stroke-linecap:round;stroke-linejoin:miter;stroke-miterlimit:3.79999995;stroke-dasharray:none;stroke-dashoffset:0;stroke-opacity:1"
     d="m 1095.6373,524.92717 58.6203,37.2523 -65.1372,37.2686 -65.1373,37.2687 -60.7373,-36.0834 c -33.4055,-19.8459 -60.6625,-38.8378 -60.5711,-42.2043 0.2311,-8.5096 108.8863,-71.2569 122.911,-70.98 6.2872,0.1242 37.8104,16.9893 70.0516,37.4781 l 0,0 z"
     id="path2991"
     inkscape:connector-curvature="0" />
  <path
     style="fill:#ececec;fill-opacity:1;stroke:#101010;stroke-width:0;stroke-linecap:round;stroke-linejoin:miter;stroke-miterlimit:3.79999995;stroke-dasharray:none;stroke-dashoffset:0;stroke-opacity:1"
     d="m 635.077,494.69137 c 27.1228,17.3706 49.3851,35.4879 49.4716,40.2608 0.086,4.7729 -20.1524,21.5067 -44.9753,37.1863 l -45.1326,28.5082 -5.2025,-67.5591 c -2.8614,-37.1575 -4.8139,-68.1036 -4.339,-68.7691 0.475,-0.6655 23.0549,13.0023 50.1778,30.3729 z"
     id="path2993"
     inkscape:connector-curvature="0" />
  <path
     style="fill:#ececec;fill-opacity:1;stroke:#101010;stroke-width:0;stroke-linecap:round;stroke-linejoin:miter;stroke-miterlimit:3.79999995;stroke-dasharray:none;stroke-dashoffset:0;stroke-opacity:1"
     d="m 1459.2,674.82797 c 0.7159,16.1395 1.6922,33.6413 2.1695,38.8928 2.0952,23.0535 -203.9213,80.7864 -343.7735,96.3372 -72.0237,8.0087 -114.6871,8.0855 -184.0767,0.3314 -140.5733,-15.7087 -348.9687,-73.7829 -346.8888,-96.6686 0.4773,-5.2515 1.4536,-22.7533 2.1695,-38.8928 l 1.3017,-29.3445 101.9661,32.592 c 133.917,42.8047 210.8059,55.7092 331.9322,55.7092 121.1263,0 198.0152,-12.9045 331.9322,-55.7092 l 101.9661,-32.592 1.3017,29.3445 z"
     id="path2995"
     inkscape:connector-curvature="0" />
  <path
     style="fill:#ececec;fill-opacity:1;stroke:#101010;stroke-width:0;stroke-linecap:round;stroke-linejoin:miter;stroke-miterlimit:3.79999995;stroke-dasharray:none;stroke-dashoffset:0;stroke-opacity:1"
     d="m 1460.3493,524.60207 c -2.1111,34.3298 -4.5236,65.41 -5.3611,69.0669 -0.8374,3.657 -24.251,-7.5677 -52.0303,-24.9437 -27.7792,-17.3761 -47.2835,-34.5936 -43.343,-38.2611 3.9406,-3.6676 29.0816,-20.531 55.8688,-37.4742 l 48.704,-30.8059 -3.8384,62.418 z"
     id="path2997"
     inkscape:connector-curvature="0" />
</svg>
