<?xml version="1.0" encoding="UTF-8" standalone="no"?>
<svg
   xmlns:dc="http://purl.org/dc/elements/1.1/"
   xmlns:cc="http://creativecommons.org/ns#"
   xmlns:rdf="http://www.w3.org/1999/02/22-rdf-syntax-ns#"
   xmlns:svg="http://www.w3.org/2000/svg"
   xmlns="http://www.w3.org/2000/svg"
   xmlns:sodipodi="http://sodipodi.sourceforge.net/DTD/sodipodi-0.dtd"
   xmlns:inkscape="http://www.inkscape.org/namespaces/inkscape"
   viewBox="0 0 2048 2048"
   id="svg2"
   version="1.1"
   inkscape:version="0.91 r13725"
   width="100%"
   height="100%"
   sodipodi:docname="bR.svg">
  <metadata
     id="metadata12">
    <rdf:RDF>
      <cc:Work
         rdf:about="">
        <dc:format>image/svg+xml</dc:format>
        <dc:type
           rdf:resource="http://purl.org/dc/dcmitype/StillImage" />
        <dc:title />
      </cc:Work>
    </rdf:RDF>
  </metadata>
  <defs
     id="defs10" />
  <sodipodi:namedview
     pagecolor="#ffffff"
     bordercolor="#666666"
     borderopacity="1"
     objecttolerance="10"
     gridtolerance="10"
     guidetolerance="10"
     inkscape:pageopacity="0"
     inkscape:pageshadow="2"
     inkscape:window-width="944"
     inkscape:window-height="1001"
     id="namedview8"
     showgrid="false"
     inkscape:zoom="0.11523438"
     inkscape:cx="1024"
     inkscape:cy="1024"
     inkscape:window-x="2880"
     inkscape:window-y="0"
     inkscape:window-maximized="0"
     inkscape:current-layer="svg2"
     showguides="true"
     inkscape:guide-bbox="true">
    <sodipodi:guide
       position="-1293.0169,1839.7288"
       orientation="0,1"
       id="guide3336" />
  </sodipodi:namedview>
  <g
     transform="matrix(-1,0,0,1,2048,11)"
     id="g4">
    <path
       d="m 1024,205 -641,0 29,264 159,118 50,659 -149,107 -17,341 289,0 0,-147 137,0 0,147 143,0 143,0 0,-147 137,0 0,147 289,0 -17,-341 -149,-107 50,-659 159,-118 29,-264 -641,0 z m 0,989 333,0 -6,88 -327,0 -327,0 -6,-88 333,0 z m 0,-647 381,0 -6,87 -375,0 -375,0 -6,-87 381,0 z"
       id="path6"
       inkscape:connector-curvature="0"
       style="fill:#101010" />
  </g>
  <path
     style="fill:#ececec;fill-opacity:1;stroke:#101010;stroke-width:0;stroke-linecap:round;stroke-linejoin:miter;stroke-miterlimit:3.79999995;stroke-dasharray:none;stroke-dashoffset:0;stroke-opacity:1"
     d="m 1397.1525,601.9695 0,39.0508 -373.1525,0 -373.1525,0 0,-39.0508 0,-39.0509 373.1525,0 373.1525,0 0,39.0509 z"
     id="path2989"
     inkscape:connector-curvature="0" />
  <path
     style="fill:#ececec;fill-opacity:1;stroke:#101010;stroke-width:0;stroke-linecap:round;stroke-linejoin:miter;stroke-miterlimit:3.79999995;stroke-dasharray:none;stroke-dashoffset:0;stroke-opacity:1"
     d="m 1353.7627,1221.3593 c 0,8.9492 -2.4407,28.4746 -5.4237,43.3899 l -5.4237,27.1186 -318.9153,0 -318.9153,0 -5.4237,-27.1186 c -13.0658,-65.3291 -43.8795,-59.6611 324.339,-59.6611 316.6493,0 329.7627,0.6471 329.7627,16.2712 z"
     id="path2991"
     inkscape:connector-curvature="0" />
</svg>
