<?xml version="1.0" encoding="UTF-8" standalone="no"?>
<!-- Creator: CorelDRAW X5 -->

<svg
   xmlns:dc="http://purl.org/dc/elements/1.1/"
   xmlns:cc="http://creativecommons.org/ns#"
   xmlns:rdf="http://www.w3.org/1999/02/22-rdf-syntax-ns#"
   xmlns:svg="http://www.w3.org/2000/svg"
   xmlns="http://www.w3.org/2000/svg"
   xmlns:sodipodi="http://sodipodi.sourceforge.net/DTD/sodipodi-0.dtd"
   xmlns:inkscape="http://www.inkscape.org/namespaces/inkscape"
   xml:space="preserve"
   width="38.1mm"
   height="38.1mm"
   style="shape-rendering:geometricPrecision; text-rendering:geometricPrecision; image-rendering:optimizeQuality; fill-rule:evenodd; clip-rule:evenodd"
   viewBox="0 0 3810 3810"
   id="svg2"
   version="1.1"
   inkscape:version="0.91 r13725"
   sodipodi:docname="wP.svg"><metadata
     id="metadata36"><rdf:RDF><cc:Work
         rdf:about=""><dc:format>image/svg+xml</dc:format><dc:type
           rdf:resource="http://purl.org/dc/dcmitype/StillImage" /></cc:Work></rdf:RDF></metadata><sodipodi:namedview
     pagecolor="#ffffff"
     bordercolor="#666666"
     borderopacity="1"
     objecttolerance="10"
     gridtolerance="10"
     guidetolerance="10"
     inkscape:pageopacity="0"
     inkscape:pageshadow="2"
     inkscape:window-width="944"
     inkscape:window-height="1001"
     id="namedview34"
     showgrid="false"
     inkscape:zoom="1.7481482"
     inkscape:cx="67.499996"
     inkscape:cy="67.499996"
     inkscape:window-x="1920"
     inkscape:window-y="0"
     inkscape:window-maximized="0"
     inkscape:current-layer="svg2"
     showguides="true"
     inkscape:guide-bbox="true"><sodipodi:guide
       position="209.87287,3713.1354"
       orientation="0,1"
       id="guide3347" /></sodipodi:namedview><defs
     id="defs4"><style
       type="text/css"
       id="style6"><![CDATA[
    .fil1 {fill:#D1D1D1}
    .fil0 {fill:white}
   ]]></style></defs><g
     id="Warstwa_x0020_1"
     transform="matrix(-1,0,0,-1,3810,3810.0008)"><metadata
       id="CorelCorpID_0Corel-Layer" /><rect
       class="fil0"
       x="953"
       y="3239"
       width="1907"
       height="204"
       id="rect10"
       style="fill:#ffffff" /><rect
       class="fil0"
       x="1099"
       y="3386"
       width="1621"
       height="153"
       id="rect12"
       style="fill:#ffffff" /><rect
       class="fil0"
       x="950"
       y="3506"
       width="1907"
       height="204"
       id="rect14"
       style="fill:#ffffff" /><polygon
       class="fil1"
       points="1099,3443 2720,3443 2720,3506 1099,3506 "
       id="polygon16"
       style="fill:#d1d1d1" /><polygon
       class="fil0"
       points="1659,2059 1955,2055 1956,3337 1338,3328 "
       id="polygon18"
       style="fill:#ffffff" /><polygon
       class="fil0"
       points="2140,2059 1876,2055 1876,3337 2493,3328 "
       id="polygon20"
       style="fill:#ffffff" /><rect
       class="fil0"
       x="1355"
       y="1907"
       width="1115"
       height="158"
       id="rect22"
       style="fill:#ffffff" /><ellipse
       class="fil0"
       cx="1890"
       cy="1549"
       rx="414"
       ry="433"
       id="ellipse24"
       style="fill:#ffffff" /><path
       class="fil1"
       d="m 1980,1126 c 0,0 195,147 218,349 36,315 -162,418 -446,351 -143,-34 -244,-110 -231,-82 0,0 21,51 59,90 37,39 82,75 82,75 l 457,0 c 0,0 74,-41 114,-117 40,-77 72,-137 72,-244 0,-107 -41,-199 -68,-237 -27,-38 -56,-71 -105,-114 -48,-44 -152,-71 -152,-71 z"
       id="path26"
       inkscape:connector-curvature="0"
       style="fill:#d1d1d1" /><polygon
       class="fil1"
       points="2074,1907 2143,2065 2469,2065 2469,1907 "
       id="polygon28"
       style="fill:#d1d1d1" /><polygon
       class="fil1"
       points="1558,2065 2143,2065 2489,3307 2234,3307 2066,2212 "
       id="polygon30"
       style="fill:#d1d1d1" /><polygon
       class="fil1"
       points="2720,3506 2720,3443 2860,3443 2860,3239 2466,3239 2536,3710 2857,3710 2857,3506 "
       id="polygon32"
       style="fill:#d1d1d1" /></g></svg>