<svg width="192" height="191.906" viewBox="0 0 50.8 50.775" xmlns="http://www.w3.org/2000/svg"><g fill="#fff"><path d="M28.674 43.854q-.397-.248-1.116-1.041-.124-.124-.248-.224-.124-.124-.248-.273-.199-.124-.397-.124-1.29 0-.967.968.148.223.124.198.173.174 1.19 1.116.472.447.893.645.223.15.447.15.744 0 .744-.745 0-.298-.422-.67zM30.56 31.229l-.447-1.712q-1.96-.545-4.688-.545-2.506 0-4.49.496l-.496 1.711q2.158-.57 4.986-.57 3.026 0 5.134.62zM27.856 33.932l-2.406.993-2.382-.993 2.382-.992z" style="font-feature-settings:normal;font-variant-caps:normal;font-variant-ligatures:normal;font-variant-numeric:normal"/><path d="M30.659 32.643q-2.109-.57-5.16-.57-2.852 0-5.035.52l-.347.967 2.108.472-2.183 1.389-.471-.1-.595 1.786q.52-.545 2.356-.917 1.836-.372 4.242-.372 2.356 0 4.167.372 1.835.372 2.381.893l-.62-1.786-.62.124-2.183-1.39 2.232-.47zM29.84 19.67v-2.778h-2.977v-3.87H24.11v3.87h-3.026v2.778h3.026V25.2h2.753V19.67zM22.126 43.854q-.273.273-.273.62 0 .745.744.745.223 0 .397-.124.422-.224.818-.62.893-.844 1.24-1.142.05-.05.05-.173 0-.968-.967-.968-.174 0-.323.15-.223.222-.545.47-.298.224-.546.521-.223.273-.595.521zM34.751 21.232q.348-1.339-.769-4.985t-3.472-6.102q-.298-.223-.62-.199-.422.025-.794.348-.372.322-.1.769 2.903 1.91 4.341 5.308 1.44 3.373 1.414 4.861z" style="font-feature-settings:normal;font-variant-caps:normal;font-variant-ligatures:normal;font-variant-numeric:normal"/><path d="M25.425 44.772q-1.836 2.654-4.961 2.654-.323 0-.645-.025-.298-.05-.595-.074-.72-.025-2.109-.248-1.389-.248-3.1-1.116-1.513-1.315-3.845-1.315-1.786 0-3.1.843-.373.174-.918.72-.993 1.066-1.613 1.166-.496-.248-.52-.844-.125-1.166 1.71-3.001-.322.05-1.215.298-.744.223-.992.223-.818.124-.868.025-.273-.273.198-1.117.397-.719 1.538-1.265.15-.074.943-.421 2.307-1.216 4.837-1.216 3.696 0 6.672 2.505 1.191.397 2.406.397 3.721 0 3.845-3.075-2.406-.224-4.018-.819-1.588-.595-1.588-1.389l1.985-6.598q-1.737-2.729-2.878-5.556-1.14-2.828-1.14-5.358 0-7.59 8.234-11.658 0-.323.075-.968-.844-.694-.844-1.76 0-2.283 2.307-2.283 2.282 0 2.282 2.282 0 .992-.719 1.662 0 .769.198 1.042.422.595 1.117.62.719-.025 1.19-.645.1-.149.199-.918-.645-.67-.645-1.662 0-2.331 2.331-2.331t2.332 2.331q0 1.315-1.141 2.034-.1.496-.05.794 4.192 4.961 3.647 11.46-.174 1.86-.57 3.671-.398 1.786-1.39 3.373-.372.844-1.166 1.91-.769 1.042-1.34 1.96l1.96 6.598q-.024.794-1.637 1.389-1.612.595-4.068.819.124 3.075 3.87 3.075 1.215 0 2.406-.397 2.952-2.505 6.672-2.505 2.53 0 4.813 1.216.297.148.52.248.224.099.447.173 1.116.57 1.538 1.265.074.224.223.57.149.348-.025.547-.074.099-.868-.025-.248 0-.992-.223-.918-.248-1.24-.298 1.835 1.86 1.736 3.001-.05.57-.546.844-.62-.1-1.612-1.166-.496-.496-.893-.72-1.39-.843-3.1-.843-2.382 0-3.87 1.315-1.712.868-3.1 1.116-1.39.223-2.084.248-.298.025-.62.074-.323.025-.62.025-3.2 0-4.986-2.654z" style="font-feature-settings:normal;font-variant-caps:normal;font-variant-ligatures:normal;font-variant-numeric:normal"/></g><path d="M28.674 43.854q-.397-.248-1.116-1.041-.124-.124-.248-.224-.124-.124-.248-.273-.199-.124-.397-.124-1.29 0-.967.968.148.223.124.198.173.174 1.19 1.116.472.447.893.645.223.15.447.15.744 0 .744-.745 0-.298-.422-.67zM30.56 31.23l-.446-1.712q-1.96-.545-4.688-.545-2.506 0-4.49.496l-.496 1.711q2.158-.57 4.986-.57 3.026 0 5.134.62zm-2.703 2.703l-2.406.993-2.382-.993 2.382-.992zm2.803-1.29q-2.109-.57-5.16-.57-2.852 0-5.035.521l-.347.967 2.108.472-2.183 1.389-.471-.1-.595 1.786q.52-.545 2.356-.917 1.836-.372 4.242-.372 2.356 0 4.167.372 1.835.372 2.381.893l-.62-1.786-.62.124-2.183-1.39 2.232-.47zM29.84 19.67v-2.778h-2.977v-3.87H24.11v3.87h-3.026v2.778h3.026V25.2h2.753V19.67zm-7.714 24.184q-.273.273-.273.62 0 .745.744.745.223 0 .397-.124.422-.224.818-.62.893-.844 1.24-1.142.05-.05.05-.173 0-.968-.967-.968-.174 0-.323.15-.223.222-.545.47-.298.224-.546.521-.223.273-.595.521zM34.75 21.232q.348-1.339-.769-4.985t-3.472-6.102q-.298-.223-.62-.199-.422.025-.794.348-.372.322-.1.769 2.903 1.91 4.341 5.308 1.44 3.373 1.414 4.861zm-9.326 23.54q-1.836 2.654-4.961 2.654-.323 0-.645-.025-.298-.05-.595-.074-.72-.025-2.109-.248-1.389-.248-3.1-1.116-1.513-1.315-3.845-1.315-1.786 0-3.1.843-.373.174-.918.72-.993 1.066-1.613 1.166-.496-.248-.52-.844-.125-1.166 1.71-3.001-.322.05-1.215.298-.744.223-.992.223-.818.124-.868.025-.273-.273.198-1.117.397-.719 1.538-1.265.15-.074.943-.421 2.307-1.216 4.837-1.216 3.696 0 6.672 2.505 1.191.397 2.406.397 3.721 0 3.845-3.075-2.406-.224-4.018-.819-1.588-.595-1.588-1.389l1.985-6.598q-1.737-2.729-2.878-5.556-1.14-2.828-1.14-5.358 0-7.59 8.234-11.658 0-.323.075-.968-.844-.694-.844-1.76 0-2.283 2.307-2.283 2.282 0 2.282 2.282 0 .992-.719 1.662 0 .769.198 1.042.422.595 1.117.62.719-.025 1.19-.645.1-.149.199-.918-.645-.67-.645-1.662 0-2.331 2.331-2.331t2.332 2.331q0 1.315-1.141 2.034-.1.496-.05.794 4.192 4.961 3.647 11.46-.174 1.86-.57 3.671-.398 1.786-1.39 3.373-.372.844-1.166 1.91-.769 1.042-1.34 1.96l1.96 6.598q-.024.794-1.637 1.389-1.612.595-4.068.819.124 3.075 3.87 3.075 1.215 0 2.406-.397 2.952-2.505 6.672-2.505 2.53 0 4.813 1.216.297.148.52.248.224.099.447.173 1.116.57 1.538 1.265.074.224.223.57.149.348-.025.547-.074.099-.868-.025-.248 0-.992-.223-.918-.248-1.24-.298 1.835 1.86 1.736 3.001-.05.57-.546.844-.62-.1-1.612-1.166-.496-.496-.893-.72-1.39-.843-3.1-.843-2.382 0-3.87 1.315-1.712.868-3.1 1.116-1.39.223-2.084.248-.298.025-.62.074-.323.025-.62.025-3.2 0-4.986-2.654z" aria-label="v"/></svg>