<svg width="192" height="191.906" viewBox="0 0 50.8 50.775" xmlns="http://www.w3.org/2000/svg"><g fill="#fff"><path d="M33.065 36.537l2.084 1.613 2.604-.893-2.059-1.613z" style="font-feature-settings:normal;font-variant-caps:normal;font-variant-ligatures:normal;font-variant-numeric:normal"/><path d="M39.192 36.116q.173.52.173.992 0 1.463-1.066 2.257-.1.422-.149.843.918 1.29.918 2.084 0 2.084-4.019 3.572T25.4 47.352q-5.655 0-9.673-1.488-3.994-1.488-3.994-3.572 0-.819.967-2.133-.05-.273-.148-.77-1.092-.793-1.092-2.281 0-.471.149-.968.248-.62-.1-.967-.346-.347-.793-.967-.397-1.24-.397-1.712.025-.223.075-.496.074-.273.074-.645-1.091-1.091-2.282-2.059-1.166-.992-1.836-2.38-.793-1.638-1.463-3.3-.645-1.687-.645-3.299 0-3.05 1.612-5.16 1.613-2.108 4.366-3.298 3.671-.248 3.1-.248 4.317 0 7.839 3.2V6.101h8.458v8.731q3.522-3.224 7.888-3.224-.62 0 3.1.248 2.704 1.19 4.317 3.299 1.637 2.108 1.637 5.16 0 1.611-.67 3.273-.645 1.662-1.414 3.3-.67 1.413-1.86 2.455t-2.257 2.084q-.025.297.024.57.075.273.1.496.024.347-.397 1.712-.447.62-.794.967-.322.347-.1.943z" style="font-feature-settings:normal;font-variant-caps:normal;font-variant-ligatures:normal;font-variant-numeric:normal"/><path d="M35.769 43.235q-.1-.546-.348-1.191-.272-.595-.57-.794-.273-.223-.496-.57-2.505-1.588-8.905-1.414-6.499-.174-8.98 1.414-.297.297-.595.52-.272.224-.47.82-.274.62-.348 1.215-.05.793.694.793.72 0 .695-.769.223-2.48 8.905-2.48 8.756 0 9.004 2.48-.05.77.694.77.72 0 .72-.794zM28.129 28.6q.322 0 .645.05.322.024.62.024-.198-2.257.198-3.696.15-.545.546-.595.57-.1.819.62.198 1.19-.397 3.795.992.174 1.463.174.15-3.82 1.166-6.077.298-.596.992-.596.844 0 .794.819.05.05.05.769 0 1.265-1.414 5.383.72.248 1.24.198.273-.72.546-1.513.297-.819.744-1.736.198-.472.57-.472.422 0 .521.819.025.694-1.463 3.175.62.298 1.24.322.298-.595.546-1.116.273-.52.57-1.34.546-1.587.447-3.026-.199-.868-.968-.868-.372 0-.917.596.124-.794.124-.993 0-1.041-.521-1.96-.496-.942-1.712-1.289-.893.05-1.86 1.091-.968 1.042-1.29 2.456-.273-.868-.72-.992-.446-.124-.595-.124-.297 0-.57.174-.992 1.14-1.216 3.472-.074.521-.099 1.017-.025.496-.1 1.439zM22.597 28.625q-.074-.918-.099-1.414-.025-.496-.074-1.017-.298-2.381-1.216-3.473-.248-.173-.595-.173-.149 0-.62.124-.447.124-.67.967-.347-1.414-1.314-2.456-.943-1.042-1.836-1.091-1.24.372-1.736 1.315-.496.917-.496 1.96 0 .47.124.991-.596-.62-.918-.62-.794 0-.967.893-.125 1.538.446 3.001.273.819.52 1.365.274.52.596 1.116.596-.025 1.24-.323-1.513-2.455-1.463-3.175.025-.818.496-.818.372 0 .595.471.422.893.695 1.712.298.818.595 1.538.596 0 1.24-.199-1.438-4.192-1.438-5.407 0-.67.05-.744 0-.844.793-.844.695 0 1.017.62.992 2.258 1.166 6.078.496-.025 1.439-.174-.596-2.654-.372-3.795.223-.744.793-.645.422.1.546.595.397 1.563.198 3.72.397-.049 1.265-.098zM25.4 14.71q-1.215 0-2.083.867t-.868 2.084q0 1.24.868 2.108.868.844 2.083.844 2.952 0 2.952-2.952T25.4 14.709zM25.698 9.376q-.149-.074-.298-.074-.272 0-.396.099l-1.588-1.612h-.57v.694l1.562 1.563q-.074.149-.074.322 0 .15.074.298l-1.562 1.588v.644h.57l1.563-1.562q.173.074.421.074.199 0 .323-.05l1.563 1.538h.67v-.57l-1.588-1.538q.074-.174.074-.422 0-.223-.099-.396l1.612-1.588v-.595h-.694zM28.7 35.768l-3.35-1.587-3.224 1.587 3.349 1.613zM17.934 36.537l-2.63-.893-2.058 1.613 2.605.893z" style="font-feature-settings:normal;font-variant-caps:normal;font-variant-ligatures:normal;font-variant-numeric:normal"/><path d="M37.207 34.23q1.117-.123 1.117-1.24 0-.719-.645-1.091-2.084-.843-5.308-1.364-3.2-.546-6.995-.546-7.963 0-12.353 1.96-.546.421-.546 1.041 0 1.265 1.265 1.216 4.415-1.662 11.634-1.662 7.317 0 11.831 1.687zM21.01 17.264q-2.877-3.05-6.524-3.05-3.348 0-5.085 2.232-1.116 1.413-1.116 3.844 0 1.91.546 3.647.025.496.62.496t.645-.596q-.199-1.265-.199-2.257 0-2.059.968-3.25 1.389-1.884 4.316-1.884 2.877 0 5.382 2.282.497 0 .497-.918 0-.199-.05-.546zM29.667 17.264q-.05.347-.05.546 0 .918.496.918 2.48-2.282 5.408-2.282 2.877 0 4.29 1.885.968 1.19.968 3.25 0 .991-.198 2.256.025.596.645.596t.62-.496q.546-1.737.546-3.647 0-2.43-1.117-3.844-1.76-2.233-5.085-2.233-3.67 0-6.523 3.051z" style="font-feature-settings:normal;font-variant-caps:normal;font-variant-ligatures:normal;font-variant-numeric:normal"/></g><path d="M33.065 36.537l2.084 1.613 2.604-.893-2.059-1.613zm6.127-.421q.173.52.173.992 0 1.463-1.066 2.257-.1.422-.149.843.918 1.29.918 2.084 0 2.084-4.019 3.572T25.4 47.352q-5.655 0-9.673-1.488-3.994-1.488-3.994-3.572 0-.819.967-2.133-.05-.273-.148-.77-1.092-.793-1.092-2.281 0-.471.149-.968.248-.62-.1-.967-.346-.347-.793-.967-.397-1.24-.397-1.712.025-.223.075-.496.074-.273.074-.645-1.091-1.091-2.282-2.059-1.166-.992-1.836-2.38-.793-1.638-1.463-3.3-.645-1.687-.645-3.299 0-3.05 1.612-5.16 1.613-2.108 4.366-3.298 3.671-.248 3.1-.248 4.317 0 7.839 3.2V6.101h8.458v8.731q3.522-3.224 7.888-3.224-.62 0 3.1.248 2.704 1.19 4.317 3.299 1.637 2.108 1.637 5.16 0 1.611-.67 3.273-.645 1.662-1.414 3.3-.67 1.413-1.86 2.455t-2.257 2.084q-.025.297.024.57.075.273.1.496.024.347-.397 1.712-.447.62-.794.967-.322.347-.1.943zm-3.423 7.119q-.1-.546-.348-1.191-.272-.595-.57-.794-.273-.223-.496-.57-2.505-1.588-8.905-1.414-6.499-.174-8.98 1.414-.297.297-.595.52-.272.224-.47.82-.274.62-.348 1.215-.05.793.694.793.72 0 .695-.769.223-2.48 8.905-2.48 8.756 0 9.004 2.48-.05.77.694.77.72 0 .72-.794zM28.129 28.6q.322 0 .645.05.322.024.62.024-.198-2.257.198-3.696.15-.545.546-.595.57-.1.819.62.198 1.19-.397 3.795.992.174 1.463.174.15-3.82 1.166-6.077.298-.596.992-.596.844 0 .794.819.05.05.05.769 0 1.265-1.414 5.383.72.248 1.24.198.273-.72.546-1.513.297-.819.744-1.736.198-.472.57-.472.422 0 .521.819.025.694-1.463 3.175.62.298 1.24.322.298-.595.546-1.116.273-.52.57-1.34.546-1.587.447-3.026-.199-.868-.968-.868-.372 0-.917.596.124-.794.124-.993 0-1.041-.521-1.96-.496-.942-1.712-1.289-.893.05-1.86 1.091-.968 1.042-1.29 2.456-.273-.868-.72-.992-.446-.124-.595-.124-.297 0-.57.174-.992 1.14-1.216 3.472-.074.521-.099 1.017-.025.496-.1 1.439zm-5.532.025q-.074-.918-.099-1.414-.025-.496-.074-1.017-.298-2.381-1.216-3.473-.248-.173-.595-.173-.149 0-.62.124-.447.124-.67.967-.347-1.414-1.314-2.456-.943-1.042-1.836-1.091-1.24.372-1.736 1.315-.496.917-.496 1.96 0 .47.124.991-.596-.62-.918-.62-.794 0-.967.893-.125 1.538.446 3.001.273.819.52 1.365.274.52.596 1.116.596-.025 1.24-.323-1.513-2.455-1.463-3.175.025-.818.496-.818.372 0 .595.471.422.893.695 1.712.298.818.595 1.538.596 0 1.24-.199-1.438-4.192-1.438-5.407 0-.67.05-.744 0-.844.793-.844.695 0 1.017.62.992 2.258 1.166 6.078.496-.025 1.439-.174-.596-2.654-.372-3.795.223-.744.793-.645.422.1.546.595.397 1.563.198 3.72.397-.049 1.265-.098zM25.4 14.709q-1.215 0-2.083.868t-.868 2.084q0 1.24.868 2.108.868.844 2.083.844 2.952 0 2.952-2.952T25.4 14.709zm.298-5.333q-.149-.074-.298-.074-.272 0-.396.099l-1.588-1.612h-.57v.694l1.562 1.563q-.074.149-.074.322 0 .15.074.298l-1.562 1.588v.644h.57l1.563-1.562q.173.074.421.074.199 0 .323-.05l1.563 1.538h.67v-.57l-1.588-1.538q.074-.174.074-.422 0-.223-.099-.396l1.612-1.588v-.595h-.694zM28.7 35.768l-3.348-1.587-3.225 1.587 3.349 1.613zm-10.765.77l-2.63-.894-2.058 1.613 2.605.893zm19.273-2.307q1.117-.124 1.117-1.24 0-.72-.645-1.092-2.084-.843-5.308-1.364-3.2-.546-6.995-.546-7.963 0-12.353 1.96-.546.421-.546 1.041 0 1.265 1.265 1.216 4.415-1.662 11.634-1.662 7.317 0 11.831 1.687zM21.01 17.264q-2.877-3.05-6.524-3.05-3.348 0-5.085 2.232-1.116 1.413-1.116 3.844 0 1.91.546 3.647.025.496.62.496t.645-.596q-.199-1.265-.199-2.257 0-2.059.968-3.25 1.389-1.884 4.316-1.884 2.877 0 5.382 2.282.497 0 .497-.918 0-.199-.05-.546zm8.657 0q-.05.347-.05.546 0 .918.496.918 2.48-2.282 5.408-2.282 2.877 0 4.29 1.885.968 1.19.968 3.25 0 .991-.198 2.256.025.596.645.596t.62-.496q.546-1.737.546-3.647 0-2.43-1.117-3.844-1.76-2.233-5.085-2.233-3.67 0-6.523 3.051z" aria-label="l"/></svg>