<svg width="192" height="191.906" viewBox="0 0 50.8 50.775" xmlns="http://www.w3.org/2000/svg"><g fill="#fff"><path d="M28.674 30.038q.62-.124 1.39-.273.793-.173 1.686-.471.794-.248.521-.893-.174-.273-.496-.273-1.761.397-3.324.471.595-.223 1.24-.446.645-.248 1.265-.546 1.935-.918 2.555-4.018.124-.72-.471-.819-.52-.05-.819.422-.595 2.208-1.885 2.977-.421.248-.868.446-.446.198-.893.422.496-.521.918-1.265.769-1.29 1.042-4.564-.174-.869-.868-.645-.224.124-.298.223-.447 3.522-1.216 4.638-.272.273-.372.472-.223.173-.421.347l-.348.298q-.421.545-.421 1.24 0 .843.471 1.538.496.694 1.612.72z" style="font-feature-settings:normal;font-variant-caps:normal;font-variant-ligatures:normal;font-variant-numeric:normal"/><path d="M26.913 13.32q6.871 3.373 10.145 8.285 2.01 3.05 2.68 7.242.669 4.192.669 9.401-.124 2.01 1.116 3.523 1.265 1.513 2.828 1.19.471-15.08-5.358-22.994-1.786-2.38-4.986-4.613-3.2-2.233-7.143-3.994 0 .521.024 1.067.025.52.025.893zM12.328 34.081q.273-.446.62-.868.372-.446.67-.992.546-1.116-.546-1.315-.198-.05-.446.05-.72.967-1.563 1.96-.124.099-.57.496-.224.744-.025 1.14.322.745 1.215.1.447-.348.645-.57zM21.06 27.706q.074-.297.173-.595.124-.298.198-.595.224-.968-.545-.968-.273 0-.67.447l-.347.794q-.174.372-.273.694-.075.248-.223.695-.05.372.297.545.521.298 1.067-.47.174-.174.322-.547zM9.476 29.69q.248-.346.57-.694.323-.372.57-.818.497-.918-.47-1.067-.15-.025-.422.025-.596.769-1.39 1.612-.297.224-.496.397-.198.62-.024.918.297.62 1.091.1.397-.299.57-.472zM16.793 18.678q.174 1.066.57 1.215.397.149 1.117.1.967-.075 1.488-.398 1.042-.67 1.835-2.902-.793.248-1.488.248t-1.662.075q-1.364.124-1.86 1.662z" style="font-feature-settings:normal;font-variant-caps:normal;font-variant-ligatures:normal;font-variant-numeric:normal"/><path d="M16.47 33.064q-.347.372-.57.546-.198.149-.347.298-.124.124-1.613 1.637-.57.62-1.364.793-.52.15-1.463-.124-3.1-.818-4.887-3.274-.694-.918-.992-2.207-.273-1.315.273-3.324.546-2.034 3.944-4.639 3.696-2.827 4.34-4.49.546-.967 1.24-2.133.72-1.165 1.688-2.257.595-.421 1.116-.967.545-.57 1.066-1.166v-3.05q1.365.272 2.01.793.297.322.644.595.373.273.67.595.62-1.116.794-1.86.025-.174.174-.694.148-.521.297-1.712.372-.1.645.198 1.141 1.29 2.158 2.878 4.54 1.81 8.285 4.291 3.77 2.48 5.78 5.16 5.68 7.714 5.68 22.72 0 3.15-.323 5.755H11.857q-.323-3.224 3.423-6.846 1.687-1.637 3.497-3.175 1.836-1.538 3.572-3.125 3.225-2.977 3.572-4.763-.124-.297-.471-.397-.868.521-1.737.67-.868.149-1.711.198l-1.091.05q-.521 0-1.24-.248-.968 1.091-1.663 1.885-.67.77-1.538 1.39z" style="font-feature-settings:normal;font-variant-caps:normal;font-variant-ligatures:normal;font-variant-numeric:normal"/></g><path d="M28.674 30.038q.62-.124 1.39-.273.793-.173 1.686-.471.794-.248.521-.893-.174-.273-.496-.273-1.761.397-3.324.471.595-.223 1.24-.446.645-.248 1.265-.546 1.935-.918 2.555-4.018.124-.72-.471-.819-.52-.05-.819.422-.595 2.208-1.885 2.977-.421.248-.868.446-.446.198-.893.422.496-.521.918-1.265.769-1.29 1.042-4.564-.174-.869-.868-.645-.224.124-.298.223-.447 3.522-1.216 4.638-.272.273-.372.472-.223.173-.421.347l-.348.298q-.421.545-.421 1.24 0 .843.471 1.538.496.694 1.612.72zm-1.76-16.718q6.87 3.373 10.144 8.285 2.01 3.05 2.68 7.242.669 4.192.669 9.401-.124 2.01 1.116 3.523 1.265 1.513 2.828 1.19.471-15.08-5.358-22.994-1.786-2.38-4.986-4.613-3.2-2.233-7.143-3.994 0 .521.024 1.067.025.52.025.893zM12.327 34.08q.273-.446.62-.868.372-.446.67-.992.546-1.116-.546-1.315-.198-.05-.446.05-.72.967-1.563 1.96-.124.099-.57.496-.224.744-.025 1.14.322.745 1.215.1.447-.348.645-.57zm8.731-6.375q.075-.297.174-.595.124-.298.198-.595.224-.968-.545-.968-.273 0-.67.447l-.347.794q-.174.372-.273.694-.075.248-.223.695-.05.372.297.545.521.298 1.067-.47.174-.174.322-.547zM9.476 29.691q.248-.347.57-.695.323-.372.57-.818.497-.918-.47-1.067-.15-.025-.422.025-.596.769-1.39 1.612-.297.224-.496.397-.198.62-.024.918.297.62 1.091.1.397-.299.57-.472zm7.317-11.013q.174 1.066.57 1.215.397.149 1.117.1.967-.075 1.488-.398 1.042-.67 1.835-2.902-.793.248-1.488.248t-1.662.075q-1.364.124-1.86 1.662zm-.323 14.386q-.347.372-.57.546-.198.149-.347.298-.124.124-1.613 1.637-.57.62-1.364.793-.52.15-1.463-.124-3.1-.818-4.887-3.274-.694-.918-.992-2.207-.273-1.315.273-3.324.546-2.034 3.944-4.639 3.696-2.827 4.34-4.49.546-.967 1.24-2.133.72-1.165 1.688-2.257.595-.421 1.116-.967.545-.57 1.066-1.166v-3.05q1.365.272 2.01.793.297.322.644.595.373.273.67.595.62-1.116.794-1.86.025-.174.174-.694.148-.521.297-1.712.372-.1.645.198 1.141 1.29 2.158 2.878 4.54 1.81 8.285 4.291 3.77 2.48 5.78 5.16 5.68 7.714 5.68 22.72 0 3.15-.323 5.755H11.857q-.323-3.224 3.423-6.846 1.687-1.637 3.497-3.175 1.836-1.538 3.572-3.125 3.225-2.977 3.572-4.763-.124-.297-.471-.397-.868.521-1.737.67-.868.149-1.711.198l-1.091.05q-.521 0-1.24-.248-.968 1.091-1.663 1.885-.67.77-1.538 1.39z" aria-label="m"/></svg>