<svg width="192" height="191.906" viewBox="0 0 50.8 50.775" xmlns="http://www.w3.org/2000/svg"><path d="M25.4 47.377H11.88q.471-5.333 4.54-9.004.669-.62.743-.67 2.109-1.736 3.597-4.142-3.82-2.505-3.82-7.07 0-2.827 1.712-5.084.57-.72 1.215-1.637.67-.918 1.067-1.786-.596.148-1.811.47-1.19.323-1.761.547 1.711-1.588 3.25-3.77 1.562-2.183 1.835-4.64-1.265-1.289-1.265-3.025t1.215-2.977q1.24-1.24 3.002-1.24 1.711 0 2.951 1.24t1.24 2.977q0 1.76-1.264 3.026.272 2.456 1.835 4.638 1.588 2.183 3.3 3.77-.571-.223-1.812-.545-1.215-.323-1.81-.471.396.868 1.041 1.786.67.917 1.265 1.637 1.712 2.257 1.712 5.085 0 4.564-3.82 7.069 1.414 2.381 3.572 4.142.372.298.744.67 4.093 3.671 4.54 9.004z" aria-label="o"/></svg>