<svg width="192" height="191.906" viewBox="0 0 50.8 50.775" xmlns="http://www.w3.org/2000/svg"><g fill="#fff"><path d="M26.615 9.103l.744 8.037.794 7.987q.025.57.57.57.397-.024.546-.347 2.158-5.209 3.175-8.061 1.042-2.877 1.265-3.547-1.14-1.092-1.14-2.456 0-1.19.842-2.034.869-.868 2.084-.868 1.19 0 2.034.868.868.844.868 2.034 0 2.158-2.232 2.927l-1.811 10.815q-.124.744.52.744.522 0 .795-.273 2.976-2.976 4.266-4.613 1.315-1.638 1.836-2.282-.546-.72-.546-1.737 0-2.902 2.902-2.902 1.19 0 2.034.868.868.844.868 2.034 0 1.216-.868 2.059-.843.843-2.034.843-.372 0-.67-.074-1.984 4.291-3.175 8.78-1.017 3.647-1.265 6.921.15.695.174.72-.074-.298.1.57.098.397.098.77-.149.396-.62.892-.421.471-.62 1.86.918 1.29.918 2.084 0 2.084-4.018 3.572t-9.65 1.488q-5.655 0-9.673-1.488-3.994-1.488-3.994-3.572 0-.819.967-2.133-.297-1.414-.644-1.81-.497-.497-.645-.894 0-.322.074-.744.05-.198.074-.347.025-.174.05-.248.1-.273.198-.77-.248-3.125-1.215-6.87-1.29-4.713-3.2-8.83-.421.123-.868.123-2.902 0-2.902-2.902t2.902-2.902q2.902 0 2.902 2.902 0 .893-.446 1.613 1.463 1.86 2.927 3.472 1.488 1.588 3.274 3.498.223.322.645.322.72 0 .645-.744-.05-.223-.62-3.547l-1.24-7.243q-2.357-.645-2.357-2.952 0-1.19.843-2.034.868-.868 2.06-.868 2.901 0 2.901 2.902 0 1.29-.992 2.357.124.52.62 2.083.496 1.538 1.538 4.068.57 1.39 1.141 2.803.595 1.39 1.19 2.753.15.323.522.323.52-.025.595-.546.05-.297 1.513-15.999-1.761-.942-1.761-2.803 0-1.19.843-2.059.844-.868 2.059-.868 1.19 0 2.034.868.868.869.868 2.06 0 1.686-1.612 2.777z" style="font-feature-settings:normal;font-variant-caps:normal;font-variant-ligatures:normal;font-variant-numeric:normal"/><path d="M19.918 34.702q-1.365 0-1.365 1.438 0 1.464 1.365 1.464 1.389 0 1.389-1.464 0-1.438-1.39-1.438zM12.352 29.493q.298 1.017.521 1.835.248.794.422 1.737.149.074.446.074 2.084-.62 5.11-1.091 3.051-.472 6.549-.472 3.571 0 6.647.496 3.076.472 5.16 1.092.124 0 .372-.1.148-.892.396-1.661.249-.794.546-1.836-2.828-.645-6.176-1.265t-6.945-.62-6.871.62q-3.275.595-6.177 1.19zM37.256 37.306l-1.786-1.711-2.282.918 1.81 1.711zM28.55 35.545l-3.2-1.662-3.076 1.662 3.2 1.687zM17.834 36.537l-2.505-.843-1.985 1.563 2.48.843zM30.857 34.702q-1.39 0-1.39 1.438 0 1.464 1.39 1.464t1.389-1.464q0-1.438-1.39-1.438zM36.289 43.309q-.149-.744-.347-1.24-.298-.645-.596-.844-.297-.223-.545-.57-1.315-.843-3.696-1.439-2.357-.62-5.705-.545-3.424-.075-5.755.545-2.332.596-3.622 1.439-.322.298-.62.546-.297.223-.52.843-.249.744-.348 1.265-.05.843.744.843.744 0 .744-.818.224-2.58 9.327-2.58 9.202 0 9.45 2.58-.05.818.745.818.744 0 .744-.843z" style="font-feature-settings:normal;font-variant-caps:normal;font-variant-ligatures:normal;font-variant-numeric:normal"/></g><path d="M26.615 9.103l.744 8.037.794 7.987q.025.57.57.57.397-.024.546-.347 2.158-5.209 3.175-8.061 1.042-2.877 1.265-3.547-1.14-1.092-1.14-2.456 0-1.19.842-2.034.869-.868 2.084-.868 1.19 0 2.034.868.868.844.868 2.034 0 2.158-2.232 2.927l-1.811 10.815q-.124.744.52.744.522 0 .795-.273 2.976-2.976 4.266-4.613 1.315-1.638 1.836-2.282-.546-.72-.546-1.737 0-2.902 2.902-2.902 1.19 0 2.034.868.868.844.868 2.034 0 1.216-.868 2.059-.843.843-2.034.843-.372 0-.67-.074-1.984 4.291-3.175 8.78-1.017 3.647-1.265 6.921.15.695.174.72-.074-.298.1.57.098.397.098.77-.149.396-.62.892-.421.471-.62 1.86.918 1.29.918 2.084 0 2.084-4.018 3.572t-9.65 1.488q-5.655 0-9.673-1.488-3.994-1.488-3.994-3.572 0-.819.967-2.133-.297-1.414-.644-1.81-.497-.497-.645-.894 0-.322.074-.744.05-.198.074-.347.025-.174.05-.248.1-.273.198-.77-.248-3.125-1.215-6.87-1.29-4.713-3.2-8.83-.421.123-.868.123-2.902 0-2.902-2.902t2.902-2.902q2.902 0 2.902 2.902 0 .893-.446 1.613 1.463 1.86 2.927 3.472 1.488 1.588 3.274 3.498.223.322.645.322.72 0 .645-.744-.05-.223-.62-3.547l-1.24-7.243q-2.357-.645-2.357-2.952 0-1.19.843-2.034.868-.868 2.06-.868 2.901 0 2.901 2.902 0 1.29-.992 2.357.124.52.62 2.083.496 1.538 1.538 4.068.57 1.39 1.141 2.803.595 1.39 1.19 2.753.15.323.522.323.52-.025.595-.546.05-.297 1.513-15.999-1.761-.942-1.761-2.803 0-1.19.843-2.059.844-.868 2.059-.868 1.19 0 2.034.868.868.869.868 2.06 0 1.686-1.612 2.777zm-6.697 25.599q-1.365 0-1.365 1.438 0 1.464 1.365 1.464 1.389 0 1.389-1.464 0-1.438-1.39-1.438zm-7.566-5.21q.298 1.018.521 1.836.248.794.422 1.737.149.074.446.074 2.084-.62 5.11-1.091 3.051-.472 6.549-.472 3.571 0 6.647.496 3.076.472 5.16 1.092.124 0 .372-.1.148-.892.397-1.661.248-.794.545-1.836-2.828-.645-6.176-1.265t-6.945-.62-6.871.62q-3.275.595-6.177 1.19zm24.904 7.814l-1.786-1.711-2.282.918 1.81 1.711zm-8.706-1.76l-3.2-1.663-3.076 1.662 3.2 1.687zm-10.716.991l-2.505-.843-1.985 1.563 2.48.843zm13.023-1.835q-1.39 0-1.39 1.438 0 1.464 1.39 1.464t1.389-1.464q0-1.438-1.39-1.438zm5.432 8.607q-.149-.744-.347-1.24-.298-.645-.596-.844-.297-.223-.545-.57-1.315-.843-3.696-1.439-2.357-.62-5.705-.545-3.424-.075-5.755.545-2.332.596-3.622 1.439-.322.298-.62.546-.297.223-.52.843-.249.744-.348 1.265-.05.843.744.843.744 0 .744-.818.224-2.58 9.327-2.58 9.202 0 9.45 2.58-.05.818.745.818.744 0 .744-.843z" aria-label="w"/></svg>