<svg width="192" height="191.906" viewBox="0 0 50.8 50.775" xmlns="http://www.w3.org/2000/svg"><g fill="#fff"><path d="M25.4 3.398h3.423V6.77h5.134V3.398h5.904v8.855l-3.994 4.614q1.29 1.637.05 3.448-.198.322-.198.595 0 .322.198.62.52.769.496 2.183 0 1.389-.52 2.183-.174.248-.174.52 0 .348.223.646 1.166 1.76-.05 3.472-.173.298-.173.57t.173.571q.546.819.546 2.282 0 1.439-.595 2.133l4.018 2.01v2.133h1.662v7.193H9.252v-7.168h1.687v-2.134l3.993-2.034q-.595-.694-.595-2.133t.546-2.257q.198-.273.198-.57 0-.249-.198-.571-1.216-1.736-.025-3.473.223-.397.223-.645t-.174-.545q-.545-.794-.57-2.183 0-1.414.52-2.183.224-.298.224-.62 0-.273-.198-.57-1.265-1.811.05-3.473l-3.994-4.589V3.423h5.903V6.77l5.11.025V3.423z" style="font-feature-settings:normal;font-variant-caps:normal;font-variant-ligatures:normal;font-variant-numeric:normal"/><path d="M12.7 9.698v2.158l6.325-.297q3.175-.174 6.375-.174 3.125 0 6.3.198 3.2.199 6.4.273V10.79 9.698zM13.766 38.918q-1.066.1-1.066 1.067 0 1.066 1.066 1.066l11.634-.396 11.633.396q1.067 0 1.067-1.066 0-.968-1.067-1.067-2.902-.173-5.829-.297-2.902-.15-5.804-.15t-5.83.15q-2.901.124-5.804.297zM26.665 32.196q.72-.57 2.108-.57 1.414 0 2.158.57.744.595.744 1.786.025 1.19-.744 1.563-.793.421-2.158.421t-2.108-.421q-.794-.372-.769-1.563.025-1.19.769-1.786zM19.868 32.196q.745-.57 2.134-.57 1.389 0 2.133.57.744.595.67 1.786-.05 1.19-.67 1.563-.645.421-2.183.397-1.513-.05-2.084-.397-.595-.323-.67-1.538-.074-1.216.67-1.81z" style="font-feature-settings:normal;font-variant-caps:normal;font-variant-ligatures:normal;font-variant-numeric:normal"/><path d="M25.4 14.312q-2.357 0-5.457.322-3.1.298-3.895.546-.818.298-.744.943.075.645.744.843.67.223 2.655-.05 1.984-.272 2.455.05.447.347.447 1.637 0 1.265-.447 1.736-.471.472-2.555.125-2.058-.348-2.555-.125-.496.224-.396.819.099.57.396.843.298.298.869-.124.595-.421.893.124.297.596.297 1.712t-.297 1.662q-.298.57-.893.149-.57-.447-.869-.15-.322.323-.347.968 0 .62.347.794.323.223 2.481-.1 2.158-.347 2.63.1.446.471.446 1.662 0 1.19-.447 1.711-.471.546-2.654.174-2.158-.397-2.456-.174-.967.794 0 1.687.298.298.869-.124.595-.422.893.124.297.57.297 1.687t-.297 1.662q-.298.595-.893.173-.57-.446-.869-.173-.297.297-.47.893-.174.57.47.793.497.199 3.275-.074t6.077-.273q3.274 0 6.127.223 2.852.199 3.224.124.521-.074.397-.719-.1-.67-.397-.967-.322-.273-.918.173-.57.422-.843-.173-.298-.546-.298-1.662t.298-1.687q.273-.546.868-.124t.893.124q.918-.918 0-1.687-.297-.223-2.555.124-2.257.348-2.58-.124-.322-.446-.371-1.562-.025-1.141.372-1.811.397-.67 2.58-.248 2.207.422 2.554.248.298-.149.298-.794t-.298-.967q-.322-.298-.918.149-.57.421-.843-.15-.298-.545-.298-1.661T32.99 22q.273-.545.843-.124.596.422.918.124.298-.272.323-.843.05-.595-.323-.819-.421-.223-2.58.125-2.157.347-2.554-.125-.397-.47-.397-1.686t.397-1.687q.397-.446 2.43-.05 2.034.397 2.704.05.645-.322.695-.893.074-.595-.695-.893-.818-.248-3.944-.546-3.1-.322-5.407-.322z" style="font-feature-settings:normal;font-variant-caps:normal;font-variant-ligatures:normal;font-variant-numeric:normal"/><path d="M23.341 16.966q.695-.57 2.034-.57 1.364 0 2.084.57.719.595.719 1.687 0 1.091-.72 1.686-.719.596-2.083.596-1.34 0-2.034-.596-.72-.595-.72-1.686 0-1.092.72-1.687zM26.665 22.001q.72-.57 2.108-.57 1.414 0 2.158.57.744.596.744 1.712 0 1.091-.744 1.662-.744.595-2.158.595-1.389 0-2.108-.595-.744-.57-.744-1.662 0-1.116.744-1.712zM19.868 22.001q.745-.57 2.134-.57 1.389 0 2.133.57.744.596.744 1.712 0 1.091-.744 1.662-.744.595-2.133.595-1.39 0-2.134-.595-.744-.57-.744-1.662 0-1.116.744-1.712zM23.341 27.136q.695-.57 2.034-.57 1.364 0 2.084.57.719.595.719 1.711 0 1.092-.72 1.662-.719.596-2.083.596-1.34 0-2.034-.596-.72-.57-.72-1.662 0-1.116.72-1.711zM11.013 42.738v1.687h28.798v-1.687z" style="font-feature-settings:normal;font-variant-caps:normal;font-variant-ligatures:normal;font-variant-numeric:normal"/></g><path d="M25.4 3.398h3.423V6.77h5.134V3.398h5.904v8.855l-3.994 4.614q1.29 1.637.05 3.448-.198.322-.198.595 0 .322.198.62.52.769.496 2.183 0 1.389-.52 2.183-.174.248-.174.52 0 .348.223.646 1.166 1.76-.05 3.472-.173.298-.173.57t.173.571q.546.819.546 2.282 0 1.439-.595 2.133l4.018 2.01v2.133h1.662v7.193H9.252v-7.168h1.687v-2.134l3.993-2.034q-.595-.694-.595-2.133t.546-2.257q.198-.273.198-.57 0-.249-.198-.571-1.216-1.736-.025-3.473.223-.397.223-.645t-.174-.545q-.545-.794-.57-2.183 0-1.414.52-2.183.224-.298.224-.62 0-.273-.198-.57-1.265-1.811.05-3.473l-3.994-4.589V3.423h5.903V6.77l5.11.025V3.423zm-12.7 6.3v2.158l6.325-.297q3.175-.174 6.375-.174 3.125 0 6.3.198 3.2.199 6.4.273V10.79 9.698zm1.066 29.22q-1.066.1-1.066 1.067 0 1.066 1.066 1.066l11.634-.396 11.633.396q1.067 0 1.067-1.066 0-.968-1.067-1.067-2.902-.173-5.829-.297-2.902-.15-5.804-.15t-5.83.15q-2.901.124-5.804.297zm12.899-6.722q.72-.57 2.108-.57 1.414 0 2.158.57.744.595.744 1.786.025 1.19-.744 1.563-.793.421-2.158.421t-2.108-.421q-.794-.372-.769-1.563.025-1.19.769-1.786zm-6.797 0q.745-.57 2.134-.57 1.389 0 2.133.57.744.595.67 1.786-.05 1.19-.67 1.563-.645.421-2.183.397-1.513-.05-2.084-.397-.595-.323-.67-1.538-.074-1.216.67-1.81zM25.4 14.312q-2.357 0-5.457.322-3.1.298-3.895.546-.818.298-.744.943.075.645.744.843.67.223 2.655-.05 1.984-.272 2.455.05.447.347.447 1.637 0 1.265-.447 1.736-.471.472-2.555.125-2.058-.348-2.555-.125-.496.224-.396.819.099.57.396.843.298.298.869-.124.595-.421.893.124.297.596.297 1.712t-.297 1.662q-.298.57-.893.149-.57-.447-.869-.15-.322.323-.347.968 0 .62.347.794.323.223 2.481-.1 2.158-.347 2.63.1.446.471.446 1.662 0 1.19-.447 1.711-.471.546-2.654.174-2.158-.397-2.456-.174-.967.794 0 1.687.298.298.869-.124.595-.422.893.124.297.57.297 1.687t-.297 1.662q-.298.595-.893.173-.57-.446-.869-.173-.297.297-.47.893-.174.57.47.793.497.199 3.275-.074t6.077-.273q3.274 0 6.127.223 2.852.199 3.224.124.521-.074.397-.719-.1-.67-.397-.967-.322-.273-.918.173-.57.422-.843-.173-.298-.546-.298-1.662t.298-1.687q.273-.546.868-.124t.893.124q.918-.918 0-1.687-.297-.223-2.555.124-2.257.348-2.58-.124-.322-.446-.371-1.562-.025-1.141.372-1.811.397-.67 2.58-.248 2.207.422 2.554.248.298-.149.298-.794t-.298-.967q-.322-.298-.918.149-.57.421-.843-.15-.298-.545-.298-1.661T32.99 22q.273-.545.843-.124.596.422.918.124.298-.272.323-.843.05-.595-.323-.819-.421-.223-2.58.125-2.157.347-2.554-.125-.397-.47-.397-1.686t.397-1.687q.397-.446 2.43-.05 2.034.397 2.704.05.645-.322.695-.893.074-.595-.695-.893-.818-.248-3.944-.546-3.1-.322-5.407-.322zm-2.059 2.654q.695-.57 2.034-.57 1.364 0 2.084.57.719.595.719 1.687 0 1.091-.72 1.686-.719.596-2.083.596-1.34 0-2.034-.596-.72-.595-.72-1.686 0-1.092.72-1.687zm3.324 5.035q.72-.57 2.108-.57 1.414 0 2.158.57.744.596.744 1.712 0 1.091-.744 1.662-.744.595-2.158.595-1.389 0-2.108-.595-.744-.57-.744-1.662 0-1.116.744-1.712zm-6.797 0q.745-.57 2.134-.57 1.389 0 2.133.57.744.596.744 1.712 0 1.091-.744 1.662-.744.595-2.133.595-1.39 0-2.134-.595-.744-.57-.744-1.662 0-1.116.744-1.712zm3.473 5.135q.695-.57 2.034-.57 1.364 0 2.084.57.719.595.719 1.711 0 1.092-.72 1.662-.719.596-2.083.596-1.34 0-2.034-.596-.72-.57-.72-1.662 0-1.116.72-1.711zM11.013 42.738v1.687h28.798v-1.687z" aria-label="t"/></svg>