<svg width="192" height="191.906" viewBox="0 0 50.8 50.775" xmlns="http://www.w3.org/2000/svg"><g fill="#fff"><path d="M25.574 35.396q-2.803 0-4.788.496-1.984.496-1.984 1.19t1.984 1.191q1.985.472 4.788.472t4.787-.472q2.01-.496 2.01-1.19t-2.01-1.191q-1.984-.496-4.787-.496zM31.18 4.837q-1.067 0-1.067 1.041 0 1.067 1.066 1.067 1.067 0 1.067-1.067 0-1.041-1.067-1.041zM25.226 4.762q-1.017 0-1.017 1.017t1.017 1.017q1.017 0 1.017-1.017t-1.017-1.017zM29.27 18.876v-1.265h-3.176v-4.242H24.83v4.242h-3.175v1.265h3.175v5.928h1.265v-5.928z" style="font-feature-settings:normal;font-variant-caps:normal;font-variant-ligatures:normal;font-variant-numeric:normal"/><path d="M30.336 19.943h-3.175v5.928h-3.398v-5.928h-3.175v-3.374h3.175v-4.241h3.398v4.241h3.175zM27.856 33.436l-2.406-.992-2.382.992 2.382.993zM35.099 20.116q.272-1.34-.844-4.936-1.091-3.621-3.25-6.003-.322-.198-.57-.173-.372.05-.694.372-.298.322-.075.769 2.63 1.786 4.019 5.134 1.389 3.349 1.414 4.837z" style="font-feature-settings:normal;font-variant-caps:normal;font-variant-ligatures:normal;font-variant-numeric:normal"/><path d="M19.918 29.616q2.381-.793 5.532-.793 3.274 0 5.58.793 3.027-6.102 3.027-9.574 0-5.879-8.508-11.435-8.483 5.556-8.483 11.435 0 3.745 2.852 9.574zM30.56 32.147l-.447-1.563q-2.084-.496-4.688-.496-2.555 0-4.49.446l-.496 1.588q2.059-.546 4.986-.546 3.076 0 5.134.57zM31.452 34.8l-.545-1.76-2.208.47 2.183 1.415zM19.596 34.825l.446.1 2.183-1.414-2.108-.472z" style="font-feature-settings:normal;font-variant-caps:normal;font-variant-ligatures:normal;font-variant-numeric:normal"/><path d="M25.425 44.772q-1.836 2.654-4.961 2.654-.323 0-.645-.025-.298-.05-.595-.074-.72-.025-2.109-.248-1.389-.248-3.1-1.116-1.513-1.315-3.845-1.315-1.786 0-3.1.843-.373.174-.918.72-.993 1.066-1.613 1.166-.496-.248-.52-.844-.125-1.166 1.71-3.001-.322.05-1.215.298-.744.223-.992.223-.818.124-.868.025-.273-.273.198-1.117.397-.719 1.538-1.265.15-.074.943-.421 2.307-1.216 4.837-1.216 3.696 0 6.672 2.506 1.19.396 2.406.396 3.721 0 3.845-3.075-2.406-.224-4.018-.819-1.588-.595-1.588-1.389l1.985-6.598q-1.737-2.729-2.878-5.556-1.14-2.828-1.14-5.358 0-7.59 8.234-11.658 0-.323.075-.968-.844-.694-.844-1.76 0-2.283 2.307-2.283 2.282 0 2.282 2.282 0 .992-.719 1.662 0 .769.198 1.042.422.595 1.117.62.719-.025 1.19-.645.1-.149.199-.918-.645-.67-.645-1.662 0-2.331 2.331-2.331 2.332 0 2.332 2.331 0 1.315-1.14 2.034-.1.496-.05.794 4.191 4.961 3.646 11.46-.174 1.86-.57 3.671-.398 1.786-1.39 3.373-.372.844-1.166 1.91-.769 1.042-1.34 1.96l1.96 6.598q-.024.794-1.637 1.389-1.612.595-4.068.819.124 3.075 3.87 3.075 1.215 0 2.406-.396 2.952-2.506 6.672-2.506 2.53 0 4.813 1.216.297.148.52.248.224.099.447.173 1.116.57 1.538 1.265.074.224.223.57.149.348-.025.547-.074.099-.868-.025-.248 0-.992-.223-.918-.249-1.24-.298 1.835 1.86 1.736 3.001-.05.57-.546.844-.62-.1-1.612-1.166-.496-.496-.893-.72-1.389-.843-3.1-.843-2.382 0-3.87 1.315-1.712.868-3.1 1.116-1.39.223-2.084.248-.298.025-.62.074-.323.025-.62.025-3.2 0-4.986-2.654z" style="font-feature-settings:normal;font-variant-caps:normal;font-variant-ligatures:normal;font-variant-numeric:normal"/><path d="M25.425 42.961q.074 0 1.637 1.513 1.439 1.365 3.522 1.365h1.017q1.067-.075 2.034-.248.967-.199 2.307-.744 2.58-1.786 4.762-1.786.943 0 1.737.223.322.074.372.173.074.075.57.298 1.538.794.77.174-.745-.645-.571-.943.149-.322 1.14-.694 1.018-.372-1.438-.596-1.24-.421-2.58-.421-2.976 0-6.077 2.406-1.091.595-1.86.67-.744.074-1.414.024-1.935-.074-2.604-.52-.645-.472-1.166-1.042-.496-.521-.968-2.01-.248-.793-1.19-.893-.968.1-1.19.893-.447 1.489-.968 2.01-.521.57-1.19 1.041-.646.447-2.556.521-.694.05-1.463-.025-.744-.074-1.811-.67-3.15-2.405-6.077-2.405-1.364 0-2.58.421-2.48.224-1.488.596 1.017.372 1.19.694.15.298-.62.943-.744.62.819-.174.446-.223.52-.298.075-.099.398-.173.769-.223 1.76-.223 2.159 0 4.739 1.786 1.339.545 2.282.744.967.173 2.083.248h1.017q2.059 0 3.522-1.365 1.538-1.513 1.613-1.513z" style="font-feature-settings:normal;font-variant-caps:normal;font-variant-ligatures:normal;font-variant-numeric:normal"/></g><path d="M25.574 35.396q-2.803 0-4.788.496-1.984.496-1.984 1.19t1.984 1.191q1.985.472 4.788.472t4.787-.472q2.01-.496 2.01-1.19t-2.01-1.191q-1.984-.496-4.787-.496zm5.605-30.56q-1.066 0-1.066 1.042 0 1.067 1.066 1.067 1.067 0 1.067-1.067 0-1.041-1.067-1.041zm-5.953-.074q-1.017 0-1.017 1.017t1.017 1.017q1.017 0 1.017-1.017t-1.017-1.017zm4.043 14.114v-1.265h-3.175v-4.242H24.83v4.242h-3.175v1.265h3.175v5.928h1.265v-5.928zm1.067 1.067h-3.175v5.928h-3.398v-5.928h-3.175v-3.374h3.175v-4.241h3.398v4.241h3.175zm-2.48 13.493l-2.406-.992-2.382.992 2.382.993zm7.243-13.32q.272-1.34-.844-4.936-1.091-3.621-3.25-6.003-.322-.198-.57-.173-.372.05-.694.372-.298.322-.075.769 2.63 1.786 4.019 5.134 1.389 3.349 1.414 4.837zm-15.18 9.5q2.38-.793 5.53-.793 3.275 0 5.582.793 3.026-6.102 3.026-9.574 0-5.879-8.508-11.435-8.483 5.556-8.483 11.435 0 3.745 2.852 9.574zm10.64 2.53l-.446-1.562q-2.084-.496-4.688-.496-2.555 0-4.49.446l-.496 1.588q2.059-.546 4.986-.546 3.076 0 5.134.57zm.893 2.655l-.545-1.762-2.208.472 2.183 1.414zm-11.856.024l.446.1 2.183-1.414-2.108-.472zm5.829 9.947q-1.836 2.654-4.961 2.654-.323 0-.645-.025-.298-.05-.595-.074-.72-.025-2.109-.248-1.389-.248-3.1-1.116-1.513-1.315-3.845-1.315-1.786 0-3.1.843-.373.174-.918.72-.993 1.066-1.613 1.166-.496-.248-.52-.844-.125-1.166 1.71-3.001-.322.05-1.215.298-.744.223-.992.223-.818.124-.868.025-.273-.273.198-1.117.397-.719 1.538-1.265.15-.074.943-.421 2.307-1.216 4.837-1.216 3.696 0 6.672 2.506 1.191.396 2.406.396 3.721 0 3.845-3.075-2.406-.224-4.018-.819-1.588-.595-1.588-1.389l1.985-6.598q-1.737-2.729-2.878-5.556-1.14-2.828-1.14-5.358 0-7.59 8.234-11.658 0-.323.075-.968-.844-.694-.844-1.76 0-2.283 2.307-2.283 2.282 0 2.282 2.282 0 .992-.719 1.662 0 .769.198 1.042.422.595 1.117.62.719-.025 1.19-.645.1-.149.199-.918-.645-.67-.645-1.662 0-2.331 2.331-2.331 2.332 0 2.332 2.331 0 1.315-1.14 2.034-.1.496-.05.794 4.191 4.961 3.646 11.46-.174 1.86-.57 3.671-.398 1.786-1.39 3.373-.372.844-1.166 1.91-.769 1.042-1.34 1.96l1.96 6.598q-.024.794-1.637 1.389-1.612.595-4.068.819.124 3.075 3.87 3.075 1.215 0 2.406-.396 2.952-2.506 6.672-2.506 2.53 0 4.813 1.216.297.148.52.248.224.099.447.173 1.116.57 1.538 1.265.074.224.223.57.149.348-.025.547-.074.099-.868-.025-.248 0-.992-.223-.918-.249-1.24-.298 1.835 1.86 1.736 3.001-.05.57-.546.844-.62-.1-1.612-1.166-.496-.496-.893-.72-1.389-.843-3.1-.843-2.382 0-3.87 1.315-1.712.868-3.1 1.116-1.39.223-2.084.248-.298.025-.62.074-.323.025-.62.025-3.2 0-4.986-2.654zm0-1.81q.074 0 1.637 1.512 1.439 1.365 3.522 1.365h1.017q1.067-.075 2.034-.248.967-.199 2.307-.744 2.58-1.786 4.762-1.786.943 0 1.737.223.322.074.372.173.074.075.57.298 1.538.794.77.174-.745-.645-.571-.943.149-.322 1.14-.694 1.018-.372-1.438-.596-1.24-.421-2.58-.421-2.976 0-6.077 2.406-1.091.595-1.86.67-.744.074-1.414.024-1.935-.074-2.604-.52-.645-.472-1.166-1.042-.496-.521-.968-2.01-.248-.793-1.19-.893-.968.1-1.19.893-.447 1.489-.968 2.01-.521.57-1.19 1.041-.646.447-2.556.521-.694.05-1.463-.025-.744-.074-1.811-.67-3.15-2.405-6.077-2.405-1.364 0-2.58.421-2.48.224-1.488.596 1.017.372 1.19.694.15.298-.62.943-.744.62.819-.174.446-.223.52-.298.075-.099.398-.173.769-.223 1.76-.223 2.159 0 4.739 1.786 1.339.545 2.282.744.967.173 2.083.248h1.017q2.059 0 3.522-1.365 1.538-1.513 1.613-1.513z" aria-label="b"/></svg>