<svg width="192" height="191.906" viewBox="0 0 50.8 50.775" xmlns="http://www.w3.org/2000/svg"><g fill="#fff"><path d="M17.736 36.041l-2.406-.793-1.86 1.488 2.356.794z" style="font-feature-settings:normal;font-variant-caps:normal;font-variant-ligatures:normal;font-variant-numeric:normal"/><path d="M39.192 36.116q.173.52.173.992 0 1.463-1.066 2.257-.1.422-.149.843.918 1.29.918 2.084 0 2.084-4.019 3.572-4.018 1.488-9.649 1.488-5.655 0-9.673-1.488-3.994-1.488-3.994-3.572 0-.819.967-2.133-.05-.273-.148-.77-1.092-.793-1.092-2.281 0-.471.149-.968.248-.62-.1-.967-.346-.347-.793-.967-.397-1.24-.397-1.712.025-.223.075-.496.074-.273.074-.645-1.091-1.091-2.282-2.059-1.166-.992-1.836-2.38-.793-1.638-1.463-3.3-.645-1.687-.645-3.299 0-3.05 1.612-5.16 1.613-2.108 4.366-3.298 3.671-.248 3.1-.248 4.317 0 7.839 3.2V6.101h8.458v8.731q3.522-3.224 7.888-3.224-.62 0 3.1.248 2.704 1.19 4.317 3.299 1.637 2.108 1.637 5.16 0 1.611-.67 3.273-.645 1.662-1.414 3.3-.67 1.413-1.86 2.455t-2.257 2.084q-.025.297.024.57.075.273.1.496.024.347-.397 1.712-.447.62-.794.967-.322.347-.1.943z" style="font-feature-settings:normal;font-variant-caps:normal;font-variant-ligatures:normal;font-variant-numeric:normal"/><path d="M25.4 14.61q-2.554 0-2.554 2.555T25.4 19.72t2.555-2.555q0-2.555-2.555-2.555zM24.408 10.12l-1.76-1.711v3.795l1.76-1.414q-.074-.1-.074-.322 0-.15.074-.348zM24.979 11.435l-1.489 1.612h3.82l-1.587-1.587q-.248.05-.323.05-.248 0-.421-.075zM26.393 10.865l1.76 1.339V8.409l-1.785 1.637q.074.198.074.422 0 .148-.05.397zM25.698 9.45l1.612-1.91h-3.82l1.514 1.935q.148-.074.396-.074.1 0 .298.05zM28.402 35.272L25.35 33.81l-2.927 1.463 3.026 1.464zM23.44 28.525q-.024-3.05-.52-6.126-.496-3.1-.992-3.77-3.076-3.399-6.946-3.399-3.323 0-5.06 2.233-1.14 1.463-1.14 3.844 0 4.961 3.695 9.277.422-.198.819-.347l.843-.298q-.223-.496-.446-.942-.224-.447-.472-1.166-.471-1.39-.372-2.63.174-.768.844-.768.297 0 .793.52-.124-.67-.124-.843 0-2.307 1.96-2.852 2.059.099 2.728 3.075.224-.744.62-.843.397-.1.521-.1.298 0 .521.15.844 1.042 1.042 3.026.05.446.05.868.025.422.099 1.19.769-.148 1.538-.099z" style="font-feature-settings:normal;font-variant-caps:normal;font-variant-ligatures:normal;font-variant-numeric:normal"/><path d="M16.024 29.369q-.223-.57-.471-1.265-.223-.695-.595-1.489-.199-.396-.496-.396-.422 0-.447.694-.05.595 1.215 2.729.199-.075.397-.124.224-.075.397-.15zM18.505 28.997q-.1-3.25-.968-5.259-.297-.52-.868-.52-.72 0-.72.719-.024.024-.024.645 0 1.066 1.215 4.663 1.042-.199 1.365-.248zM20.836 28.749q.124-1.91-.198-3.225-.1-.422-.471-.52-.521-.075-.695.57-.198 1.066.347 3.299.496-.124 1.017-.124zM36.463 41.052q-.198-1.786-4.96-2.729-1.489-.297-3.002-.347-1.513-.05-3.1-.124-1.563.149-2.952.223-1.365.075-2.48.298-5.483 1.116-5.607 2.679-.198.297-.198.62 0 1.116 1.786 2.232 0-1.14.397-1.711l.446-.546.496-.595q2.233-1.34 8.161-1.19 5.804-.15 8.086 1.19.546.694.943 1.14.397.621.397 1.712 1.786-1.116 1.786-2.232 0-.323-.199-.62z" style="font-feature-settings:normal;font-variant-caps:normal;font-variant-ligatures:normal;font-variant-numeric:normal"/><path d="M33.586 43.359q0-2.233-8.235-2.233-8.111 0-8.111 2.233.52 2.207 8.21 2.207 7.565 0 8.136-2.207zM33.288 36.041l1.885 1.489 2.382-.794-1.885-1.488zM38.299 30.56q3.547-4.391 3.547-9.253 0-2.381-1.141-3.844-1.761-2.233-5.06-2.233-3.895 0-6.946 3.398-.52.67-1.017 3.77-.496 3.076-.52 6.127.893-.074 1.587.1.025-.77.025-1.191.025-.422.1-.868.173-1.985 1.04-3.026.2-.15.522-.15.124 0 .52.1t.62.843q.646-2.976 2.73-3.075 1.959.545 1.959 2.852 0 .174-.124.844.471-.521.794-.521.645 0 .843.769.074 1.24-.372 2.629-.273.72-.496 1.166-.199.446-.422.893l.893.347q.471.149.918.322z" style="font-feature-settings:normal;font-variant-caps:normal;font-variant-ligatures:normal;font-variant-numeric:normal"/><path d="M34.603 29.369q.149.074.347.149.223.05.447.124 1.24-2.134 1.215-2.729-.05-.694-.446-.694-.323 0-.496.396-.397.794-.645 1.489-.224.694-.422 1.265zM32.122 28.997q.298.05 1.365.248 1.215-3.597 1.215-4.663 0-.62-.025-.645 0-.72-.719-.72-.595 0-.868.521-.893 2.01-.968 5.259zM29.79 28.749q.522 0 1.018.124.52-2.233.347-3.3-.198-.644-.694-.57-.397.1-.472.521-.347 1.315-.198 3.225zM37.207 34.23q1.117-.123 1.117-1.24 0-.719-.645-1.091-2.084-.843-5.308-1.364-3.2-.546-6.995-.546-7.963 0-12.353 1.96-.546.421-.546 1.041 0 1.265 1.265 1.216 4.415-1.662 11.634-1.662 7.317 0 11.831 1.687z" style="font-feature-settings:normal;font-variant-caps:normal;font-variant-ligatures:normal;font-variant-numeric:normal"/></g><path d="M17.736 36.041l-2.406-.793-1.86 1.488 2.356.794zm21.456.075q.173.52.173.992 0 1.463-1.066 2.257-.1.422-.149.843.918 1.29.918 2.084 0 2.084-4.019 3.572-4.018 1.488-9.649 1.488-5.655 0-9.673-1.488-3.994-1.488-3.994-3.572 0-.819.967-2.133-.05-.273-.148-.77-1.092-.793-1.092-2.281 0-.471.149-.968.248-.62-.1-.967-.346-.347-.793-.967-.397-1.24-.397-1.712.025-.223.075-.496.074-.273.074-.645-1.091-1.091-2.282-2.059-1.166-.992-1.836-2.38-.793-1.638-1.463-3.3-.645-1.687-.645-3.299 0-3.05 1.612-5.16 1.613-2.108 4.366-3.298 3.671-.248 3.1-.248 4.317 0 7.839 3.2V6.101h8.458v8.731q3.522-3.224 7.888-3.224-.62 0 3.1.248 2.704 1.19 4.317 3.299 1.637 2.108 1.637 5.16 0 1.611-.67 3.273-.645 1.662-1.414 3.3-.67 1.413-1.86 2.455t-2.257 2.084q-.025.297.024.57.075.273.1.496.024.347-.397 1.712-.447.62-.794.967-.322.347-.1.943zM25.4 14.61q-2.554 0-2.554 2.555T25.4 19.72t2.555-2.555q0-2.555-2.555-2.555zm-.992-4.49l-1.76-1.711v3.795l1.76-1.414q-.074-.1-.074-.322 0-.15.074-.348zm.57 1.315l-1.488 1.612h3.82l-1.587-1.587q-.248.05-.323.05-.248 0-.421-.075zm1.415-.57l1.76 1.339V8.409l-1.785 1.637q.074.198.074.422 0 .148-.05.397zm-.695-1.414l1.612-1.91h-3.82l1.514 1.934q.148-.074.396-.074.1 0 .298.05zm2.704 25.821L25.35 33.81l-2.927 1.463 3.026 1.464zm-4.961-6.747q-.025-3.05-.521-6.126-.496-3.1-.992-3.77-3.076-3.399-6.946-3.399-3.323 0-5.06 2.233-1.14 1.463-1.14 3.844 0 4.961 3.695 9.277.422-.198.819-.347l.843-.298q-.223-.496-.446-.942-.224-.447-.472-1.166-.471-1.39-.372-2.63.174-.768.844-.768.297 0 .793.52-.124-.67-.124-.843 0-2.307 1.96-2.852 2.059.099 2.728 3.075.224-.744.62-.843.397-.1.521-.1.298 0 .521.15.844 1.042 1.042 3.026.05.446.05.868.025.422.099 1.19.769-.148 1.538-.099zm-7.417.844q-.223-.57-.471-1.265-.223-.695-.595-1.489-.199-.396-.496-.396-.422 0-.447.694-.05.595 1.215 2.729.199-.075.397-.124.224-.075.397-.15zm2.48-.372q-.099-3.25-.967-5.259-.297-.52-.868-.52-.72 0-.72.719-.024.024-.024.645 0 1.066 1.215 4.663 1.042-.199 1.365-.248zm2.332-.248q.124-1.91-.198-3.225-.1-.422-.471-.52-.521-.075-.695.57-.198 1.066.347 3.299.496-.124 1.017-.124zm15.627 12.303q-.198-1.786-4.96-2.729-1.489-.297-3.002-.347-1.513-.05-3.1-.124-1.563.149-2.952.223-1.365.075-2.48.298-5.483 1.116-5.607 2.679-.198.297-.198.62 0 1.116 1.786 2.232 0-1.14.397-1.711l.446-.546.496-.595q2.233-1.34 8.161-1.19 5.804-.15 8.086 1.19.546.694.943 1.14.397.621.397 1.712 1.786-1.116 1.786-2.232 0-.323-.199-.62zm-2.877 2.307q0-2.233-8.235-2.233-8.111 0-8.111 2.233.52 2.207 8.21 2.207 7.565 0 8.136-2.207zm-.298-7.318l1.885 1.489 2.382-.794-1.885-1.488zm5.01-5.482q3.548-4.39 3.548-9.252 0-2.381-1.141-3.844-1.761-2.233-5.06-2.233-3.895 0-6.946 3.398-.52.67-1.017 3.77-.496 3.076-.52 6.127.893-.074 1.587.1.025-.77.025-1.191.025-.422.1-.868.173-1.985 1.04-3.026.2-.15.522-.15.124 0 .52.1t.62.843q.646-2.976 2.73-3.075 1.959.545 1.959 2.852 0 .174-.124.844.471-.521.794-.521.645 0 .843.769.074 1.24-.372 2.629-.273.72-.496 1.166-.199.446-.422.893l.893.347q.471.149.918.322zm-3.695-1.19q.149.074.347.149.223.05.447.124 1.24-2.134 1.215-2.729-.05-.694-.446-.694-.323 0-.496.396-.397.794-.645 1.489-.224.694-.422 1.265zm-2.48-.372q.297.05 1.364.248 1.215-3.597 1.215-4.663 0-.62-.025-.645 0-.72-.719-.72-.595 0-.868.521-.893 2.01-.968 5.259zm-2.332-.248q.52 0 1.017.124.52-2.233.347-3.3-.198-.644-.694-.57-.397.1-.472.521-.347 1.315-.198 3.225zm7.416 5.482q1.117-.124 1.117-1.24 0-.72-.645-1.092-2.084-.843-5.308-1.364-3.2-.546-6.995-.546-7.963 0-12.353 1.96-.546.421-.546 1.041 0 1.265 1.265 1.216 4.415-1.662 11.634-1.662 7.317 0 11.831 1.687z" aria-label="k"/></svg>