<svg width="192" height="191.906" viewBox="0 0 50.8 50.775" xmlns="http://www.w3.org/2000/svg"><g fill="#fff"><path d="M9.947 29.69q-.198.249-.52.472-.695.521-.993-.1-.174-.297.025-.917.347-.297.471-.397.769-.917 1.265-1.612.248-.05.372-.025.868.149.447 1.067-.224.446-.546.818-.298.348-.521.695zM17.29 18.678q.495-1.538 1.884-1.662.943-.075 1.637-.075.695 0 1.489-.248-.794 2.233-1.811 2.902-.546.323-1.513.397-.72.05-1.116-.099-.397-.149-.57-1.215z" style="font-feature-settings:normal;font-variant-caps:normal;font-variant-ligatures:normal;font-variant-numeric:normal"/><path d="M15.652 31.874q1.19-.844 1.687-1.761.52-.943 1.414-1.786.024-.298.074-.67t.1-.794q.173-.174.272-.198.72-.224.843.645 0 .248-.05.496-.024.223.026.397.148.173 1.116.372 3.572.124 6.573-2.68 0-.024.149-.223.174-.198.198-.248.745-1.116 1.191-4.638.05-.1.273-.223.645-.224.818.645-.223 3.2-.967 4.564-.397.719-.893 1.265.422-.223.843-.422t.819-.446q1.265-.77 1.81-2.977.274-.471.794-.422.546.1.422.819-.57 3.1-2.43 4.018-.596.298-1.216.546-.595.223-1.166.446 1.464-.074 3.175-.47.322 0 .447.272.223.496-.472.893-3.497.967-4.44.868-.67 2.109-3.274 4.639-1.439 1.389-2.977 2.703-1.537 1.29-3.026 2.58-3.299 2.902-4.018 5.655 5.68.025 9.426.025h13.27q3.2-.025 7.789-.025.347 0 .273-1.24-.05-1.24-.174-2.307-1.34.15-2.53-1.389-1.19-1.562-1.091-3.572.024-5.209-.67-9.376-.67-4.192-2.68-7.267-3.273-4.961-10.392-8.434-.1.62-.223 1.14-.199.795-.745.522-.52-.174-.545-.67.099-.446.124-.67-.025-.074-.05-.173-.025-.124-.025-.223-.248-1.29-1.414-2.927-.198 1.041-.396 1.413-.199.373-.348.645-.273.397-.496.77-.198.371-.471.818-.273-.298-.595-.695-.298-.421-.546-.719-.223-.223-.447-.422-.198-.223-.793-.372.52 1.935-.273 2.654-.397.397-.868 1.067-.472.645-1.067 1.19-.347.373-.868.869-.496.471-.843 1.24-.472 1.439-1.86 2.902-1.365 1.439-3.002 2.902-3.572 3.175-4.043 4.614-.645 1.736.074 3.373.67 1.464 1.836 1.91.694.273 1.711-1.041 1.092-1.315 1.439-1.216.645.174.421.918-.124.422-.793 1.215-.695.77-.72 1.017-.124.298.496.472.77.198 2.878-1.86.248-.249.52-.447.298-.223.596-.496z" style="font-feature-settings:normal;font-variant-caps:normal;font-variant-ligatures:normal;font-variant-numeric:normal"/><path d="M16.47 33.064q-.347.372-.57.546-.198.149-.372.298-.223.198-1.587 1.637-.571.595-1.365.794-.57.148-1.463-.125-3.1-.818-4.887-3.274-.72-.918-1.017-2.207-.273-1.315.298-3.324.546-2.059 3.92-4.639 3.695-2.803 4.365-4.49.545-.967 1.24-2.133.694-1.165 1.662-2.257.595-.421 1.116-.967.546-.57 1.091-1.166v-3.05q1.39.272 1.985.793.297.322.67.595.372.273.67.595.62-1.116.793-1.86.025-.174.149-.694.149-.521.298-1.712.372-.074.644.198 1.166 1.266 2.183 2.878 4.54 1.81 8.285 4.291 3.77 2.48 5.755 5.16 5.705 7.738 5.705 22.72 0 3.15-.323 5.755H11.857q-.323-3.224 3.423-6.846 1.687-1.637 3.497-3.175 1.836-1.538 3.572-3.125 3.225-2.977 3.572-4.763-.124-.297-.471-.397-.868.521-1.736.67-.869.149-1.712.199-.546.024-1.091.05-.521 0-1.24-.249-.968 1.091-1.663 1.885-.67.77-1.537 1.39z" style="font-feature-settings:normal;font-variant-caps:normal;font-variant-ligatures:normal;font-variant-numeric:normal"/></g><path d="M9.947 29.69q-.198.249-.52.472-.695.521-.993-.1-.174-.297.025-.917.347-.297.471-.397.769-.917 1.265-1.612.248-.05.372-.025.868.149.447 1.067-.224.446-.546.818-.298.348-.521.695zm7.342-11.012q.496-1.538 1.885-1.662.943-.075 1.637-.075.695 0 1.489-.248-.794 2.233-1.811 2.902-.546.323-1.513.397-.72.05-1.116-.099-.397-.149-.57-1.215zm-1.637 13.196q1.19-.844 1.687-1.761.52-.943 1.414-1.786.024-.298.074-.67t.1-.794q.173-.174.272-.198.72-.224.843.645 0 .248-.05.496-.024.223.026.397.148.173 1.116.372 3.572.124 6.573-2.68 0-.024.149-.223.174-.198.198-.248.745-1.116 1.191-4.638.05-.1.273-.223.645-.224.818.645-.223 3.2-.967 4.564-.397.719-.893 1.265.422-.223.843-.422t.819-.446q1.265-.77 1.81-2.977.274-.471.794-.422.546.1.422.819-.57 3.1-2.43 4.018-.596.298-1.216.546-.595.223-1.166.446 1.464-.074 3.175-.47.322 0 .447.272.223.496-.472.893-3.497.967-4.44.868-.67 2.109-3.274 4.639-1.439 1.389-2.977 2.703-1.537 1.29-3.026 2.58-3.299 2.902-4.018 5.655 5.68.025 9.426.025h13.27q3.2-.025 7.789-.025.347 0 .273-1.24-.05-1.24-.174-2.307-1.34.15-2.53-1.389-1.19-1.562-1.091-3.572.024-5.209-.67-9.376-.67-4.192-2.68-7.267-3.273-4.961-10.392-8.434-.1.62-.223 1.14-.199.795-.745.522-.52-.174-.545-.67.099-.446.124-.67-.025-.074-.05-.173-.025-.124-.025-.223-.248-1.29-1.414-2.927-.198 1.041-.396 1.413-.199.373-.348.645-.273.397-.496.77-.198.371-.471.818-.273-.298-.595-.695-.298-.421-.546-.719-.223-.223-.447-.422-.198-.223-.793-.372.52 1.935-.273 2.654-.397.397-.868 1.067-.472.645-1.067 1.19-.347.373-.868.869-.496.471-.843 1.24-.472 1.439-1.86 2.902-1.365 1.439-3.002 2.902-3.572 3.175-4.043 4.614-.645 1.736.074 3.373.67 1.464 1.836 1.91.694.273 1.711-1.041 1.092-1.315 1.439-1.216.645.174.421.918-.124.422-.793 1.215-.695.77-.72 1.017-.124.298.496.472.77.198 2.878-1.86.248-.249.52-.447.298-.223.596-.496zm.819 1.19q-.348.372-.57.546-.2.149-.373.298-.223.198-1.587 1.637-.571.595-1.365.794-.57.148-1.463-.125-3.1-.818-4.887-3.274-.72-.918-1.017-2.207-.273-1.315.298-3.324.546-2.059 3.92-4.639 3.695-2.803 4.365-4.49.545-.967 1.24-2.133.694-1.165 1.662-2.257.595-.421 1.116-.967.546-.57 1.091-1.166v-3.05q1.39.272 1.985.793.297.322.67.595.372.273.67.595.62-1.116.793-1.86.025-.174.149-.694.149-.521.298-1.712.372-.074.644.198 1.166 1.266 2.183 2.878 4.54 1.81 8.285 4.291 3.77 2.48 5.755 5.16 5.705 7.738 5.705 22.72 0 3.15-.323 5.755H11.857q-.323-3.224 3.423-6.846 1.687-1.637 3.497-3.175 1.836-1.538 3.572-3.125 3.225-2.977 3.572-4.763-.124-.297-.471-.397-.868.521-1.736.67-.869.149-1.712.199-.546.024-1.091.05-.521 0-1.24-.249-.968 1.091-1.663 1.885-.67.77-1.537 1.39z" aria-label="n"/></svg>