<svg width="192" height="191.906" viewBox="0 0 50.8 50.775" xmlns="http://www.w3.org/2000/svg"><g fill="#fff"><path d="M25.4 45.715h11.46q-.745-2.951-2.853-5.234-.819-.942-1.538-1.562-2.381-1.935-3.894-4.564-1.588.595-3.175.595-1.638 0-3.175-.595-1.613 2.679-3.895 4.564-.744.62-1.538 1.562-2.133 2.283-2.852 5.234zM25.4 33.288q2.802 0 4.787-1.984t1.984-4.812q0-2.307-1.438-4.143-1.662-2.133-2.555-4.514-1.489-.199-2.778-.199-1.365 0-2.779.199-1.017 2.53-2.58 4.514-1.438 1.836-1.438 4.143 0 2.827 1.984 4.812t4.813 1.984zM25.4 10.096q2.53 0 2.53-2.53t-2.53-2.53-2.53 2.53 2.53 2.53zM25.4 15.95q1.885 0 3.348.47-.57-1.04-1.19-2.306-.596-1.29-.77-2.555-.694.199-1.388.199-.745 0-1.414-.199-.199 1.265-.794 2.555-.595 1.265-1.141 2.307 1.96-.471 3.349-.471z" style="font-feature-settings:normal;font-variant-caps:normal;font-variant-ligatures:normal;font-variant-numeric:normal"/><path d="M25.4 47.377H11.88q.471-5.333 4.54-9.004.669-.62.743-.67 2.109-1.736 3.597-4.142-3.82-2.505-3.82-7.07 0-2.827 1.712-5.084.57-.72 1.215-1.637.67-.918 1.067-1.786-.596.148-1.811.47-1.19.323-1.761.547 1.711-1.588 3.25-3.77 1.562-2.183 1.835-4.64-1.265-1.289-1.265-3.025t1.215-2.977q1.24-1.24 3.002-1.24 1.711 0 2.951 1.24t1.24 2.977q0 1.76-1.264 3.026.272 2.456 1.835 4.638 1.588 2.183 3.3 3.77-.571-.223-1.812-.545-1.215-.323-1.81-.471.396.868 1.041 1.786.67.917 1.265 1.637 1.712 2.257 1.712 5.085 0 4.564-3.82 7.069 1.414 2.381 3.572 4.142.372.298.744.67 4.093 3.671 4.54 9.004z" style="font-feature-settings:normal;font-variant-caps:normal;font-variant-ligatures:normal;font-variant-numeric:normal"/></g><path d="M25.4 45.715h11.46q-.745-2.951-2.853-5.234-.819-.942-1.538-1.562-2.381-1.935-3.894-4.564-1.588.595-3.175.595-1.638 0-3.175-.595-1.613 2.679-3.895 4.564-.744.62-1.538 1.562-2.133 2.283-2.852 5.234zm0-12.427q2.802 0 4.787-1.984t1.984-4.812q0-2.307-1.438-4.143-1.662-2.133-2.555-4.514-1.489-.199-2.778-.199-1.365 0-2.779.199-1.017 2.53-2.58 4.514-1.438 1.836-1.438 4.143 0 2.827 1.984 4.812t4.813 1.984zm0-23.192q2.53 0 2.53-2.53t-2.53-2.53-2.53 2.53 2.53 2.53zm0 5.854q1.885 0 3.348.47-.57-1.04-1.19-2.306-.596-1.29-.77-2.555-.694.199-1.388.199-.745 0-1.414-.199-.199 1.265-.794 2.555-.595 1.265-1.141 2.307 1.96-.471 3.349-.471zm0 31.427H11.88q.471-5.333 4.54-9.004.669-.62.743-.67 2.109-1.736 3.597-4.142-3.82-2.505-3.82-7.07 0-2.827 1.712-5.084.57-.72 1.215-1.637.67-.918 1.067-1.786-.596.148-1.811.47-1.19.323-1.761.547 1.711-1.588 3.25-3.77 1.562-2.183 1.835-4.64-1.265-1.289-1.265-3.025t1.215-2.977q1.24-1.24 3.002-1.24 1.711 0 2.951 1.24t1.24 2.977q0 1.76-1.264 3.026.272 2.456 1.835 4.638 1.588 2.183 3.3 3.77-.571-.223-1.812-.545-1.215-.323-1.81-.471.396.868 1.041 1.786.67.917 1.265 1.637 1.712 2.257 1.712 5.085 0 4.564-3.82 7.069 1.414 2.381 3.572 4.142.372.298.744.67 4.093 3.671 4.54 9.004z" aria-label="p"/></svg>