<svg width="192" height="191.906" viewBox="0 0 50.8 50.775" xmlns="http://www.w3.org/2000/svg"><g fill="#fff"><path d="M15.205 27.36q-.695-.596-2.133-2.357-2.506-2.828-2.803-2.828-.248 0-.248.348 0 .446.793 1.81.695 1.96 1.141 3.597 1.117-.223 3.25-.57zM21.059 26.864q-.645-.546-1.24-1.811-.72-1.464-1.737-4.54-.397-1.215-.744-2.058-.347-.844-.496-.819-.075.025-.075.397.025.372.025.595 0 .67.62 3.399.596 2.827.596 4.043.025.744-.15 1.066 1.29-.173 3.2-.272zM27.434 26.79q-.72-.82-.943-2.754-.1-.77-.273-2.208-.149-1.463-.223-3.621-.075-1.563-.248-2.704-.174-1.141-.347-1.19-.199.049-.348 1.19-.124 1.141-.198 2.704-.124 2.158-.298 3.621-.173 1.439-.248 2.208-.223 2.083-.942 2.753.496 0 .992-.074.52-.1 1.042-.1.52 0 1.017.1.52.074 1.017.074zM32.965 27.112q-.174-.372-.174-1.042 0-1.265.62-4.043.596-2.778.596-3.399 0-.793-.025-.818-.347-.075-1.265 2.704-.943 2.877-1.736 4.539-.57 1.19-1.216 1.835 1.166.05 3.2.224zM38.918 27.93q.223-.918.496-1.81.298-.918.595-1.811.794-1.464.794-1.786 0-.348-.248-.348-.397 0-2.803 2.803-.744.869-1.265 1.489-.52.595-.868.942 1.687.223 3.3.521zM6.523 15.205q-1.662 0-1.662 1.662 0 1.687 1.662 1.687 1.687 0 1.687-1.687 0-1.662-1.687-1.662z" style="font-feature-settings:normal;font-variant-caps:normal;font-variant-ligatures:normal;font-variant-numeric:normal"/><path d="M26.615 9.103l.744 8.037.794 7.987q.025.57.57.57.397-.024.546-.347 2.158-5.209 3.175-8.061 1.042-2.877 1.265-3.547-1.14-1.092-1.14-2.456 0-1.19.842-2.034.869-.868 2.084-.868 1.19 0 2.034.868.868.844.868 2.034 0 2.158-2.232 2.927l-1.811 10.815q-.124.744.52.744.522 0 .795-.273 2.976-2.976 4.266-4.613 1.315-1.638 1.836-2.282-.546-.72-.546-1.737 0-2.902 2.902-2.902 1.19 0 2.034.868.868.844.868 2.034 0 1.216-.868 2.059-.843.843-2.034.843-.372 0-.67-.074-1.984 4.291-3.175 8.78-1.017 3.647-1.265 6.921.15.695.174.72-.074-.298.1.57.098.397.098.77-.149.396-.62.892-.421.471-.62 1.86.918 1.29.918 2.084 0 2.084-4.018 3.572-4.019 1.488-9.65 1.488-5.655 0-9.673-1.488-3.994-1.488-3.994-3.572 0-.818.967-2.133-.297-1.414-.644-1.81-.497-.497-.645-.894 0-.322.074-.744.05-.198.074-.347.025-.174.05-.248.1-.273.199-.77-.249-3.125-1.216-6.87-1.29-4.713-3.2-8.83-.421.123-.868.123-2.902 0-2.902-2.902t2.902-2.902 2.902 2.902q0 .893-.446 1.613 1.463 1.86 2.927 3.472 1.488 1.588 3.274 3.498.223.322.645.322.72 0 .645-.744-.05-.223-.62-3.547l-1.24-7.243q-2.357-.645-2.357-2.952 0-1.19.843-2.034.869-.868 2.06-.868 2.901 0 2.901 2.902 0 1.29-.992 2.357.124.52.62 2.083.496 1.538 1.538 4.068.57 1.39 1.141 2.803.595 1.39 1.19 2.753.15.323.522.323.52-.025.595-.546.05-.297 1.513-15.999-1.761-.942-1.761-2.803 0-1.19.843-2.059.844-.868 2.06-.868 1.19 0 2.033.868.868.869.868 2.06 0 1.686-1.612 2.777z" style="font-feature-settings:normal;font-variant-caps:normal;font-variant-ligatures:normal;font-variant-numeric:normal"/><path d="M19.918 34.751q-1.315 0-1.315 1.39t1.315 1.389q1.34 0 1.34-1.39t-1.34-1.389zM12.352 29.79q.298 1.216.521 2.208.248.967.422 2.108.198.1.446.1 4.416-1.662 11.634-1.662 7.317 0 11.832 1.687.248-.05.372-.125.148-1.116.396-2.034.249-.942.546-2.182-2.828-.794-6.176-1.315-3.349-.546-6.945-.546-3.597 0-6.871.521-3.275.521-6.177 1.24zM37.256 37.306l-1.786-1.711-2.282.918 1.81 1.711z" style="font-feature-settings:normal;font-variant-caps:normal;font-variant-ligatures:normal;font-variant-numeric:normal"/><path d="M28.55 35.545l-3.2-1.662-3.076 1.662 3.2 1.687zM17.834 36.537l-2.505-.843-1.985 1.563 2.48.843zM44.127 15.205q-1.687 0-1.687 1.662 0 1.687 1.687 1.687 1.662 0 1.662-1.687 0-1.662-1.662-1.662zM15.155 9.6q-1.662 0-1.662 1.686 0 1.662 1.662 1.662 1.687 0 1.687-1.662 0-1.687-1.687-1.687zM25.325 4.639q-1.662 0-1.662 1.686 0 1.662 1.662 1.662t1.662-1.662q0-1.686-1.662-1.686zM35.495 9.6q-1.687 0-1.687 1.686 0 1.662 1.687 1.662 1.662 0 1.662-1.662 0-1.687-1.662-1.687zM30.857 34.751q-1.315 0-1.315 1.39t1.315 1.389q1.339 0 1.339-1.39t-1.34-1.389zM25.4 39.191q-4.713 0-8.012.72-3.275.72-3.275 2.059 0 1.389 3.275 2.232 3.299.843 8.012.843 4.688 0 8.061-.843 3.398-.843 3.398-2.232 0-1.34-3.398-2.06-3.373-.719-8.061-.719z" style="font-feature-settings:normal;font-variant-caps:normal;font-variant-ligatures:normal;font-variant-numeric:normal"/></g><path d="M15.205 27.36q-.695-.596-2.133-2.357-2.506-2.828-2.803-2.828-.248 0-.248.348 0 .446.793 1.81.695 1.96 1.141 3.597 1.117-.223 3.25-.57zm5.854-.496q-.645-.546-1.24-1.811-.72-1.464-1.737-4.54-.397-1.215-.744-2.058-.347-.844-.496-.819-.075.025-.075.397.025.372.025.595 0 .67.62 3.399.596 2.827.596 4.043.025.744-.15 1.066 1.29-.173 3.2-.272zm6.375-.075q-.72-.818-.943-2.753-.1-.77-.273-2.208-.149-1.463-.223-3.621-.075-1.563-.248-2.704-.174-1.141-.347-1.19-.199.049-.348 1.19-.124 1.141-.198 2.704-.124 2.158-.298 3.621-.173 1.439-.248 2.208-.223 2.083-.942 2.753.496 0 .992-.074.52-.1 1.042-.1.52 0 1.017.1.52.074 1.017.074zm5.53.323q-.173-.372-.173-1.042 0-1.265.62-4.043.596-2.778.596-3.399 0-.793-.025-.818-.347-.075-1.265 2.704-.943 2.877-1.736 4.539-.57 1.19-1.216 1.835 1.166.05 3.2.224zm5.954.818q.223-.918.496-1.81.298-.918.595-1.811.794-1.464.794-1.786 0-.348-.248-.348-.397 0-2.803 2.803-.744.869-1.265 1.489-.52.595-.868.942 1.687.223 3.3.521zM6.523 15.205q-1.662 0-1.662 1.662 0 1.687 1.662 1.687 1.687 0 1.687-1.687 0-1.662-1.687-1.662zm20.092-6.102l.744 8.037.794 7.987q.025.57.57.57.397-.024.546-.347 2.158-5.209 3.175-8.061 1.042-2.877 1.265-3.547-1.14-1.092-1.14-2.456 0-1.19.842-2.034.869-.868 2.084-.868 1.19 0 2.034.868.868.844.868 2.034 0 2.158-2.232 2.927l-1.811 10.815q-.124.744.52.744.522 0 .795-.273 2.976-2.976 4.266-4.613 1.315-1.638 1.836-2.282-.546-.72-.546-1.737 0-2.902 2.902-2.902 1.19 0 2.034.868.868.844.868 2.034 0 1.216-.868 2.059-.843.843-2.034.843-.372 0-.67-.074-1.984 4.291-3.175 8.78-1.017 3.647-1.265 6.921.15.695.174.72-.074-.298.1.57.098.397.098.77-.149.396-.62.892-.421.471-.62 1.86.918 1.29.918 2.084 0 2.084-4.018 3.572-4.019 1.488-9.65 1.488-5.655 0-9.673-1.488-3.994-1.488-3.994-3.572 0-.818.967-2.133-.297-1.414-.644-1.81-.497-.497-.645-.894 0-.322.074-.744.05-.198.074-.347.025-.174.05-.248.1-.273.199-.77-.249-3.125-1.216-6.87-1.29-4.713-3.2-8.83-.421.123-.868.123-2.902 0-2.902-2.902t2.902-2.902 2.902 2.902q0 .893-.446 1.613 1.463 1.86 2.927 3.472 1.488 1.588 3.274 3.498.223.322.645.322.72 0 .645-.744-.05-.223-.62-3.547l-1.24-7.243q-2.357-.645-2.357-2.952 0-1.19.843-2.034.869-.868 2.06-.868 2.901 0 2.901 2.902 0 1.29-.992 2.357.124.52.62 2.083.496 1.538 1.538 4.068.57 1.39 1.141 2.803.595 1.39 1.19 2.753.15.323.522.323.52-.025.595-.546.05-.297 1.513-15.999-1.761-.942-1.761-2.803 0-1.19.843-2.059.844-.868 2.06-.868 1.19 0 2.033.868.868.869.868 2.06 0 1.686-1.612 2.777zm-6.697 25.648q-1.315 0-1.315 1.39t1.315 1.389q1.34 0 1.34-1.39t-1.34-1.389zm-7.566-4.96q.298 1.215.521 2.207.248.967.422 2.108.198.1.446.1 4.416-1.662 11.634-1.662 7.317 0 11.832 1.687.248-.05.372-.125.148-1.116.396-2.034.249-.942.546-2.182-2.828-.794-6.176-1.315-3.349-.546-6.945-.546-3.597 0-6.871.521-3.275.521-6.177 1.24zm24.904 7.515l-1.786-1.711-2.282.918 1.81 1.711zm-8.706-1.76l-3.2-1.663-3.076 1.662 3.2 1.687zm-10.716.991l-2.505-.843-1.985 1.563 2.48.843zm26.293-21.332q-1.687 0-1.687 1.662 0 1.687 1.687 1.687 1.662 0 1.662-1.687 0-1.662-1.662-1.662zM15.155 9.6q-1.662 0-1.662 1.687 0 1.662 1.662 1.662 1.687 0 1.687-1.662 0-1.687-1.687-1.687zm10.17-4.96q-1.662 0-1.662 1.686 0 1.662 1.662 1.662t1.662-1.662q0-1.686-1.662-1.686zm10.17 4.96q-1.687 0-1.687 1.687 0 1.662 1.687 1.662 1.662 0 1.662-1.662 0-1.687-1.662-1.687zm-4.638 25.152q-1.315 0-1.315 1.39t1.315 1.389q1.339 0 1.339-1.39t-1.34-1.389zm-5.457 4.44q-4.713 0-8.012.72-3.275.72-3.275 2.059 0 1.389 3.275 2.232 3.299.843 8.012.843 4.688 0 8.061-.843 3.398-.843 3.398-2.232 0-1.34-3.398-2.06-3.373-.719-8.061-.719z" aria-label="q"/></svg>