<svg width="192" height="191.906" viewBox="0 0 50.8 50.775" xmlns="http://www.w3.org/2000/svg"><g fill="#fff"><path d="M25.4 3.398h3.423V6.77h5.134V3.398h5.904v8.855l-3.994 4.614q1.29 1.637.05 3.448-.198.322-.198.595 0 .322.198.62.52.769.496 2.183 0 1.389-.52 2.183-.174.248-.174.52 0 .348.223.646 1.166 1.76-.05 3.472-.173.298-.173.57t.173.571q.546.819.546 2.282 0 1.439-.595 2.133l4.018 2.01v2.133h1.662v7.193H9.252v-7.168h1.687v-2.134l3.993-2.034q-.595-.694-.595-2.133t.546-2.257q.198-.273.198-.57 0-.249-.198-.571-1.216-1.736-.025-3.473.223-.397.223-.645t-.174-.545q-.545-.794-.57-2.183 0-1.414.52-2.183.224-.298.224-.62 0-.273-.198-.57-1.265-1.811.05-3.473l-3.994-4.59V3.424h5.903V6.77l5.11.025V3.423z" style="font-feature-settings:normal;font-variant-caps:normal;font-variant-ligatures:normal;font-variant-numeric:normal"/><path d="M16.247 15.651q4.242-.67 9.153-.67 4.986 0 9.227.67l1.439-1.81q-5.06-.893-10.666-.893-5.656 0-10.691.893zM11.013 41.944v3.795h28.749v-3.795zM25.4 36.884q-5.16 0-9.352.347L12.7 39.017v1.24h25.4v-1.24l-1.687-.893q-.843-.446-1.662-.893-4.465-.347-9.351-.347zM38.1 5.085h-2.555v3.472h-8.483V5.11h-3.349v3.448h-8.458V5.085H12.7v6.3q3.175-.198 6.325-.372 3.175-.174 6.375-.174 6.027 0 12.7.546zM29.89 16.966q-.819.595-.819 1.687 0 1.091.819 1.686.768.596 2.282.596 1.513 0 2.306-.596.794-.595.794-1.686 0-1.092-.794-1.687-.793-.57-2.306-.57-1.514 0-2.282.57zM23.217 16.966q-.769.595-.769 1.687 0 1.091.769 1.686.744.596 2.158.596 1.439 0 2.208-.596.744-.595.744-1.686 0-1.092-.744-1.687-.77-.57-2.208-.57-1.414 0-2.158.57zM16.321 16.966q-.818.595-.818 1.687 0 1.091.818 1.686.77.596 2.258.596 1.513 0 2.331-.596.794-.595.794-1.686 0-1.092-.794-1.687-.818-.57-2.331-.57-1.489 0-2.258.57zM32.99 22.001q-.298.596-.298 1.712 0 1.091.298 1.662.273.595.868.595t.893-.595q.298-.57.298-1.662 0-1.116-.298-1.712-.297-.545-.893-.545T32.99 22zM26.64 22.001q-.744.596-.744 1.712 0 1.091.744 1.662.744.595 2.133.595 1.414 0 2.158-.595.744-.57.744-1.662 0-1.116-.744-1.712-.744-.57-2.158-.57-1.389 0-2.133.57zM19.868 22.001q-.744.596-.744 1.712 0 1.091.744 1.662.72.595 2.134.595 1.413 0 2.158-.595.719-.57.719-1.662 0-1.116-.72-1.712-.744-.57-2.157-.57-1.414 0-2.134.57zM16.048 22.001q-.297.596-.297 1.712 0 1.091.297 1.662.298.595.869.595.595 0 .893-.595.297-.57.297-1.662 0-1.116-.297-1.712-.298-.545-.893-.545-.57 0-.869.545zM32.99 32.196q-.298.57-.298 1.687 0 1.116.298 1.687.273.57.868.57t.893-.57q.298-.57.298-1.687 0-1.116-.298-1.687-.297-.546-.893-.546t-.868.546zM16.048 32.196q-.297.57-.297 1.687 0 1.116.297 1.687.298.57.869.57.595 0 .893-.57.297-.57.297-1.687 0-1.116-.297-1.687-.298-.546-.893-.546-.57 0-.869.546zM19.868 32.196q-.744.595-.744 1.786 0 1.19.744 1.588.695.396 2.183.396 1.513 0 2.109-.396.57-.397.645-1.588.074-1.19-.645-1.786-.745-.57-2.158-.57-1.414 0-2.134.57zM26.64 32.196q-.744.595-.744 1.786 0 1.19.744 1.588.72.396 2.133.396 1.439 0 2.158-.396.695-.397.72-1.588.024-1.19-.72-1.786-.744-.57-2.158-.57-1.389 0-2.133.57zM29.89 27.136q-.819.595-.819 1.711 0 1.092.819 1.662.768.596 2.282.596 1.513 0 2.306-.596.794-.57.794-1.662 0-1.116-.794-1.711-.793-.57-2.306-.57-1.514 0-2.282.57zM23.217 27.136q-.769.595-.769 1.711 0 1.092.769 1.662.744.596 2.158.596 1.439 0 2.208-.596.744-.57.744-1.662 0-1.116-.744-1.711-.77-.57-2.208-.57-1.414 0-2.158.57zM16.321 27.136q-.818.595-.818 1.711 0 1.092.818 1.662.77.596 2.258.596 1.513 0 2.331-.596.794-.57.794-1.662 0-1.116-.794-1.711-.818-.57-2.331-.57-1.489 0-2.258.57z" style="font-feature-settings:normal;font-variant-caps:normal;font-variant-ligatures:normal;font-variant-numeric:normal"/></g><path d="M25.4 3.398h3.423V6.77h5.134V3.398h5.904v8.855l-3.994 4.614q1.29 1.637.05 3.448-.198.322-.198.595 0 .322.198.62.52.769.496 2.183 0 1.389-.52 2.183-.174.248-.174.52 0 .348.223.646 1.166 1.76-.05 3.472-.173.298-.173.57t.173.571q.546.819.546 2.282 0 1.439-.595 2.133l4.018 2.01v2.133h1.662v7.193H9.252v-7.168h1.687v-2.134l3.993-2.034q-.595-.694-.595-2.133t.546-2.257q.198-.273.198-.57 0-.249-.198-.571-1.216-1.736-.025-3.473.223-.397.223-.645t-.174-.545q-.545-.794-.57-2.183 0-1.414.52-2.183.224-.298.224-.62 0-.273-.198-.57-1.265-1.811.05-3.473l-3.994-4.59V3.424h5.903V6.77l5.11.025V3.423zM16.247 15.65q4.242-.67 9.153-.67 4.986 0 9.227.67l1.439-1.81q-5.06-.893-10.666-.893-5.656 0-10.691.893zm-5.234 26.293v3.795h28.749v-3.795zm14.387-5.06q-5.16 0-9.352.347L12.7 39.017v1.24h25.4v-1.24l-1.687-.893q-.843-.446-1.662-.893-4.465-.347-9.351-.347zm12.7-31.8h-2.555v3.473h-8.483V5.11h-3.349v3.448h-8.458V5.085H12.7v6.3q3.175-.198 6.325-.372 3.175-.174 6.375-.174 6.027 0 12.7.546zm-8.21 11.882q-.819.595-.819 1.687 0 1.091.819 1.686.768.596 2.282.596 1.513 0 2.306-.596.794-.595.794-1.686 0-1.092-.794-1.687-.793-.57-2.306-.57-1.514 0-2.282.57zm-6.673 0q-.769.595-.769 1.687 0 1.091.769 1.686.744.596 2.158.596 1.439 0 2.208-.596.744-.595.744-1.686 0-1.092-.744-1.687-.77-.57-2.208-.57-1.414 0-2.158.57zm-6.896 0q-.818.595-.818 1.687 0 1.091.818 1.686.77.596 2.258.596 1.513 0 2.331-.596.794-.595.794-1.686 0-1.092-.794-1.687-.818-.57-2.331-.57-1.489 0-2.258.57zm16.67 5.035q-.299.596-.299 1.712 0 1.091.298 1.662.273.595.868.595t.893-.595q.298-.57.298-1.662 0-1.116-.298-1.712-.297-.545-.893-.545T32.99 22zm-6.35 0q-.745.596-.745 1.712 0 1.091.744 1.662.744.595 2.133.595 1.414 0 2.158-.595.744-.57.744-1.662 0-1.116-.744-1.712-.744-.57-2.158-.57-1.389 0-2.133.57zm-6.773 0q-.744.596-.744 1.712 0 1.091.744 1.662.72.595 2.134.595 1.413 0 2.158-.595.719-.57.719-1.662 0-1.116-.72-1.712-.744-.57-2.157-.57-1.414 0-2.134.57zm-3.82 0q-.297.596-.297 1.712 0 1.091.297 1.662.298.595.869.595.595 0 .893-.595.297-.57.297-1.662 0-1.116-.297-1.712-.298-.545-.893-.545-.57 0-.869.545zM32.99 32.196q-.298.57-.298 1.687 0 1.116.298 1.687.273.57.868.57t.893-.57q.298-.571.298-1.687t-.298-1.687q-.297-.546-.893-.546t-.868.546zm-16.942 0q-.297.57-.297 1.687 0 1.116.297 1.687.298.57.869.57.595 0 .893-.57.297-.571.297-1.687t-.297-1.687q-.298-.546-.893-.546-.57 0-.869.546zm3.82 0q-.744.595-.744 1.786 0 1.19.744 1.588.695.396 2.183.396 1.513 0 2.109-.396.57-.397.645-1.588.074-1.19-.645-1.786-.745-.57-2.158-.57-1.414 0-2.134.57zm6.772 0q-.744.595-.744 1.786 0 1.19.744 1.588.72.396 2.133.396 1.439 0 2.158-.396.695-.397.72-1.588.024-1.19-.72-1.786-.744-.57-2.158-.57-1.389 0-2.133.57zm3.25-5.06q-.819.595-.819 1.711 0 1.092.819 1.662.768.596 2.282.596 1.513 0 2.306-.596.794-.57.794-1.662 0-1.116-.794-1.711-.793-.57-2.306-.57-1.514 0-2.282.57zm-6.673 0q-.769.595-.769 1.711 0 1.092.769 1.662.744.596 2.158.596 1.439 0 2.208-.596.744-.57.744-1.662 0-1.116-.744-1.711-.77-.57-2.208-.57-1.414 0-2.158.57zm-6.896 0q-.818.595-.818 1.711 0 1.092.818 1.662.77.596 2.258.596 1.513 0 2.331-.596.794-.57.794-1.662 0-1.116-.794-1.711-.818-.57-2.331-.57-1.489 0-2.258.57z" aria-label="r"/></svg>