<?xml version="1.0" encoding="UTF-8" standalone="no"?>
<!-- Created with Inkscape (http://www.inkscape.org/) -->

<svg
   xmlns:dc="http://purl.org/dc/elements/1.1/"
   xmlns:cc="http://creativecommons.org/ns#"
   xmlns:rdf="http://www.w3.org/1999/02/22-rdf-syntax-ns#"
   xmlns:svg="http://www.w3.org/2000/svg"
   xmlns="http://www.w3.org/2000/svg"
   xmlns:xlink="http://www.w3.org/1999/xlink"
   xmlns:sodipodi="http://sodipodi.sourceforge.net/DTD/sodipodi-0.dtd"
   xmlns:inkscape="http://www.inkscape.org/namespaces/inkscape"
   width="450"
   height="450"
   viewBox="0 0 449.99998 449.99998"
   id="svg5366"
   version="1.1"
   inkscape:version="0.91 r13725"
   sodipodi:docname="bking.svg">
  <defs
     id="defs5368">
    <linearGradient
       id="linearGradient4237"
       inkscape:collect="always">
      <stop
         id="stop4239"
         offset="0"
         style="stop-color:#ffffff;stop-opacity:1" />
      <stop
         id="stop4241"
         offset="1"
         style="stop-color:#b3b3b3;stop-opacity:1" />
    </linearGradient>
    <linearGradient
       inkscape:collect="always"
       id="linearGradient4227">
      <stop
         style="stop-color:#ffffff;stop-opacity:1"
         offset="0"
         id="stop4229" />
      <stop
         style="stop-color:#b3b3b3;stop-opacity:1"
         offset="1"
         id="stop4231" />
    </linearGradient>
    <linearGradient
       inkscape:collect="always"
       id="linearGradient4219">
      <stop
         style="stop-color:#ffffff;stop-opacity:1;"
         offset="0"
         id="stop4221" />
      <stop
         style="stop-color:#b3b3b3;stop-opacity:1"
         offset="1"
         id="stop4223" />
    </linearGradient>
    <linearGradient
       inkscape:collect="always"
       id="linearGradient4211">
      <stop
         style="stop-color:#ffffff;stop-opacity:1;"
         offset="0"
         id="stop4213" />
      <stop
         style="stop-color:#b3b3b3;stop-opacity:1"
         offset="1"
         id="stop4215" />
    </linearGradient>
    <linearGradient
       inkscape:collect="always"
       xlink:href="#linearGradient4211"
       id="linearGradient4217"
       x1="17.904936"
       y1="917.57306"
       x2="66.716797"
       y2="958.51056"
       gradientUnits="userSpaceOnUse" />
    <linearGradient
       inkscape:collect="always"
       xlink:href="#linearGradient4219"
       id="linearGradient4225"
       x1="284.99997"
       y1="777.36218"
       x2="333.81186"
       y2="818.29926"
       gradientUnits="userSpaceOnUse" />
    <linearGradient
       inkscape:collect="always"
       xlink:href="#linearGradient4227"
       id="linearGradient4233"
       x1="284.99997"
       y1="927.36212"
       x2="333.81183"
       y2="886.42462"
       gradientUnits="userSpaceOnUse" />
    <linearGradient
       inkscape:collect="always"
       xlink:href="#linearGradient4237"
       id="linearGradient4235"
       x1="284.99997"
       y1="777.36218"
       x2="333.81186"
       y2="818.29926"
       gradientUnits="userSpaceOnUse" />
  </defs>
  <sodipodi:namedview
     id="base"
     pagecolor="#ffffff"
     bordercolor="#666666"
     borderopacity="1.0"
     inkscape:pageopacity="0.0"
     inkscape:pageshadow="2"
     inkscape:zoom="2.0567932"
     inkscape:cx="335.89537"
     inkscape:cy="204.33736"
     inkscape:document-units="px"
     inkscape:current-layer="layer8"
     showgrid="true"
     inkscape:window-width="1680"
     inkscape:window-height="987"
     inkscape:window-x="-8"
     inkscape:window-y="-8"
     inkscape:window-maximized="1"
     units="px"
     showguides="true"
     fit-margin-top="25"
     fit-margin-bottom="25"
     fit-margin-right="25"
     fit-margin-left="25">
    <inkscape:grid
       type="xygrid"
       id="grid3360" />
  </sodipodi:namedview>
  <metadata
     id="metadata5371">
    <rdf:RDF>
      <cc:Work
         rdf:about="">
        <dc:format>image/svg+xml</dc:format>
        <dc:type
           rdf:resource="http://purl.org/dc/dcmitype/StillImage" />
        <dc:title />
      </cc:Work>
    </rdf:RDF>
  </metadata>
  <g
     inkscape:label="Layer 1"
     inkscape:groupmode="layer"
     id="layer1"
     transform="translate(24.999997,-627.36218)" />
  <g
     inkscape:groupmode="layer"
     id="layer8"
     inkscape:label="Layer 2"
     transform="translate(24.999997,-627.36218)">
    <path
       style="fill:#ffffff;fill-opacity:1;fill-rule:evenodd;stroke:#000000;stroke-width:0;stroke-linecap:butt;stroke-linejoin:miter;stroke-miterlimit:4;stroke-dasharray:none;stroke-opacity:1"
       d="m 176.70167,971.00725 23.8235,-42.54194 23.3373,43.02814 z"
       id="path4160"
       inkscape:connector-curvature="0" />
    <path
       style="fill:#ffffff;fill-opacity:1;fill-rule:evenodd;stroke:#000000;stroke-width:0;stroke-linecap:butt;stroke-linejoin:miter;stroke-miterlimit:4;stroke-dasharray:none;stroke-opacity:1"
       d="m 176.01067,732.53387 23.8235,42.54193 23.3373,-43.02813 z"
       id="path4160-3"
       inkscape:connector-curvature="0" />
    <path
       style="opacity:1;fill:#ffffff;fill-opacity:1;stroke:#1a1a1a;stroke-width:14.99999809;stroke-linecap:butt;stroke-miterlimit:4;stroke-dasharray:none;stroke-opacity:1"
       d="m 173.20329,735.90035 c -1.47298,-3.16872 -2.2875,-6.65255 -2.2875,-10.30947 0,-3.65694 0.81452,-7.14079 2.2875,-10.30951 1.47293,-3.1687 3.60431,-6.02233 6.23808,-8.41884 2.63377,-2.39649 5.76993,-4.33587 9.25237,-5.67612 3.48243,-1.34026 7.3112,-2.08138 11.33019,-2.08138 4.019,0 7.84774,0.74112 11.33017,2.08136 3.48246,1.34027 6.61861,3.27965 9.25237,5.67614 2.63377,2.39651 4.76515,5.25012 6.23809,8.41884 1.47297,3.16872 2.28749,6.65257 2.28749,10.30951 0,3.65692 -0.81451,7.14075 -2.28749,10.30947"
       id="path10975-5-2-2"
       inkscape:connector-curvature="0"
       sodipodi:nodetypes="csssssssssc" />
    <path
       style="opacity:1;fill:url(#linearGradient4225);fill-opacity:1;stroke:#000000;stroke-width:14.99999809;stroke-linecap:butt;stroke-miterlimit:4;stroke-dasharray:none;stroke-opacity:1"
       d="m 71.698328,855.0218 c 0,-22.6275 -13.99971,-37.75334 -28.47667,-50.01732 -7.07692,-6.08306 -12.80398,-13.32646 -16.76177,-21.36969 -3.95781,-8.04324 -6.14639,-16.88631 -6.14639,-26.16878 0,-9.28245 2.18858,-18.12554 6.14639,-26.16876 3.9578,-8.04323 9.68485,-15.2866 16.76177,-21.36968 7.07692,-6.08307 15.50372,-11.00584 24.86103,-14.40783 9.35733,-3.402 19.64514,-5.28324 30.44419,-5.28324 10.798972,0 21.086822,1.88124 30.444152,5.28324 9.35731,3.40199 17.78411,8.32476 24.86102,14.40783 7.07692,6.08308 12.80396,13.32646 16.76177,21.36968 3.95782,8.04322 17.66893,26.5901 29.72625,51.70448 13.33761,-25.45752 25.12828,-43.74402 29.0861,-51.78724 3.9578,-8.04321 9.68485,-15.28659 16.76176,-21.36968 7.07692,-6.08307 15.50373,-11.00584 24.86102,-14.40782 9.35734,-3.40201 19.64519,-5.28325 30.44418,-5.28325 10.79903,0 21.08685,1.88124 30.44417,5.28325 9.35733,3.40198 17.78412,8.32475 24.86103,14.40782 7.07692,6.08309 12.80397,13.32646 16.76178,21.36968 3.95781,8.04322 6.14639,16.88631 6.14639,26.16875 0,9.28248 -2.18858,18.12555 -6.14639,26.16879 -3.9578,8.04323 -9.68486,15.28662 -16.76178,21.36968 -14.47695,12.26398 -27.40592,28.59394 -27.40592,51.22144"
       id="path10972-6-7-9-7"
       inkscape:connector-curvature="0"
       sodipodi:nodetypes="ccssssssssscssssssssscc" />
    <path
       style="opacity:1;fill:#1a1a1a;fill-opacity:1;stroke:#1a1a1a;stroke-width:8.40642357;stroke-linecap:butt;stroke-miterlimit:4;stroke-dasharray:none;stroke-opacity:1"
       d="m 91.160697,817.49657 c -6.770429,-9.94368 -12.540961,-19.77625 -28.77807,-30.77178 -4.449238,-3.703 -8.04981,-8.11233 -10.538066,-13.00857 -2.488278,-4.89624 -3.864221,-10.27937 -3.864221,-15.92997 0,-5.6506 1.375943,-11.03376 3.864221,-15.92999 2.488256,-4.89624 6.088828,-9.30557 10.538066,-13.00859 4.449228,-3.70299 9.747133,-6.69969 15.630054,-8.77062 5.88293,-2.07093 12.350866,-3.21609 19.140163,-3.21609 6.789306,0 13.257236,1.14516 19.140156,3.21609 5.88292,2.07093 11.18082,5.06763 15.63006,8.77062 4.44924,3.70302 11.17138,12.29961 14.00613,17.05466 6.80397,9.70903 17.74672,30.2876 17.74672,30.2876 l 17.02634,33.06148"
       id="path10972-6-4-2"
       inkscape:connector-curvature="0"
       sodipodi:nodetypes="ccssssssssccc" />
    <path
       sodipodi:nodetypes="ssssssssscs"
       inkscape:connector-curvature="0"
       id="path3370"
       d="m 191.03856,726.0521 c 0,-1.14995 0.25079,-2.24551 0.70426,-3.24192 0.45351,-0.99646 1.10973,-1.89381 1.92061,-2.64742 0.81091,-0.7536 1.77647,-1.36347 2.84866,-1.78492 1.07218,-0.42144 2.25102,-0.65451 3.48839,-0.65451 1.23736,0 2.41618,0.23307 3.48838,0.65451 1.07218,0.42145 2.03775,1.03132 2.84865,1.78492 0.81088,0.75361 1.46712,1.65096 1.9206,2.64742 0.45349,0.99641 0.70428,2.09197 0.70428,3.24192 0,5.12704 -6.9558,13.45507 -8.96241,17.30964 -2.18377,-3.82074 -8.96142,-12.42365 -8.96142,-17.30964 z"
       style="opacity:1;fill:#1a1a1a;fill-opacity:1;stroke:#1a1a1a;stroke-width:4.72315502;stroke-linecap:butt;stroke-miterlimit:4;stroke-dasharray:none;stroke-opacity:1" />
    <path
       style="fill:#1a1a1a;fill-opacity:1;stroke-width:10;stroke-miterlimit:4;stroke-dasharray:none"
       d="m 72.302216,833.37065 c 87.654324,-23.72352 172.843784,-24.19948 258.774394,0.004 l 0.64194,26.64568 -260.551139,0 z"
       id="rect4582"
       inkscape:connector-curvature="0"
       sodipodi:nodetypes="ccccc" />
    <g
       id="g4481"
       transform="matrix(1,0,0,-1,267.09503,1844.9352)">
      <path
         sodipodi:nodetypes="csssssssssc"
         inkscape:connector-curvature="0"
         id="path10975-5-2-2-1"
         d="m -93.89155,876.11239 c -1.47298,-3.16872 -2.2875,-6.65255 -2.2875,-10.30947 0,-3.65694 0.81452,-7.14079 2.2875,-10.30951 1.47293,-3.1687 3.60431,-6.02233 6.23808,-8.41884 2.63377,-2.39649 5.76993,-4.33587 9.25237,-5.67612 3.48243,-1.34026 7.3112,-2.08138 11.33019,-2.08138 4.019,0 7.84774,0.74112 11.33017,2.08136 3.48246,1.34027 6.61861,3.27965 9.25237,5.67614 2.63377,2.39651 4.76514,5.25012 6.23808,8.41884 1.47297,3.16872 2.28749,6.65257 2.28749,10.30951 0,3.65692 -0.81451,7.14075 -2.28749,10.30947"
         style="opacity:1;fill:#ffffff;fill-opacity:1;stroke:#1a1a1a;stroke-width:14.99999809;stroke-linecap:butt;stroke-miterlimit:4;stroke-dasharray:none;stroke-opacity:1" />
      <path
         sodipodi:nodetypes="ccssssssssscssssssssscc"
         inkscape:connector-curvature="0"
         id="path10972-6-7-9-7-5"
         d="m -195.39639,995.23311 c 0,-22.6275 -13.99971,-37.75334 -28.47667,-50.01732 -7.07692,-6.08306 -12.80398,-13.32646 -16.76177,-21.36969 -3.95781,-8.04323 -6.14639,-16.8863 -6.14639,-26.16877 0,-9.28245 2.18858,-18.12554 6.14639,-26.16876 3.9578,-8.04323 9.68485,-15.2866 16.76177,-21.36968 7.07692,-6.08307 15.50372,-11.00584 24.86103,-14.40782 9.35733,-3.402 19.64514,-5.28324 30.44419,-5.28324 10.79897,0 21.08683,1.88124 30.44416,5.28324 9.35731,3.40198 17.7841,8.32475 24.86101,14.40782 7.07692,6.08308 12.80396,13.32646 16.761766,21.36968 3.95782,8.04322 17.66893,26.59012 29.72625,51.70449 13.33761,-25.45751 25.12827,-43.74403 29.08609,-51.78725 3.9578,-8.04321 9.68485,-15.28659 16.76176,-21.36968 7.07692,-6.08307 15.5037299,-11.00584 24.8610199,-14.40781 9.3573401,-3.40201 19.6451901,-5.28325 30.4441801,-5.28325 10.79902,0 21.08684,1.88124 30.44416,5.28325 9.35733,3.40197 17.78412,8.32474 24.86103,14.40781 7.07692,6.08309 12.803974,13.32646 16.761784,21.36968 3.95781,8.04322 6.14639,16.88631 6.14639,26.16875 0,9.28248 -2.18858,18.12555 -6.14639,26.16878 -3.9578,8.04323 -9.684864,15.28662 -16.761784,21.36968 -14.47695,12.26398 -27.40592,28.59394 -27.40592,51.22144"
         style="opacity:1;fill:url(#linearGradient4217);fill-opacity:1;stroke:#000000;stroke-width:14.99999809;stroke-linecap:butt;stroke-miterlimit:4;stroke-dasharray:none;stroke-opacity:1" />
      <path
         sodipodi:nodetypes="ccccc"
         inkscape:connector-curvature="0"
         id="rect4582-9"
         d="m -194.7925,974.08153 c 87.65432,-23.72352 172.843766,-24.19948 258.774366,0.004 l 0.64194,26.64567 -260.551116,0 z"
         style="fill:#1a1a1a;fill-opacity:1;stroke-width:10;stroke-miterlimit:4;stroke-dasharray:none" />
    </g>
    <path
       style="opacity:1;fill:#ffffff;fill-opacity:1;stroke:#000000;stroke-width:0;stroke-linecap:butt;stroke-miterlimit:4;stroke-dasharray:none;stroke-opacity:1"
       d="m 199.99996,877.36214 -14.99999,-24.99994 14.99999,-25.00002 14.99998,25.00002 z"
       id="path11638-0-60-0-1"
       inkscape:connector-curvature="0" />
    <path
       style="opacity:1;fill:#ffffff;fill-opacity:1;stroke:#000000;stroke-width:0;stroke-linecap:butt;stroke-miterlimit:4;stroke-dasharray:none;stroke-opacity:1"
       d="m 146.99998,872.36214 -12,-19.99995 12,-20.00002 11.99999,20.00002 z"
       id="path11638-0-60-0-0"
       inkscape:connector-curvature="0" />
    <path
       style="opacity:1;fill:#ffffff;fill-opacity:1;stroke:#000000;stroke-width:0;stroke-linecap:butt;stroke-miterlimit:4;stroke-dasharray:none;stroke-opacity:1"
       d="M 102,867.36215 92.999995,852.36219 102,837.36217 l 8.99998,15.00002 z"
       id="path11638-0-60-0-0-1"
       inkscape:connector-curvature="0" />
    <path
       style="opacity:1;fill:#ffffff;fill-opacity:1;stroke:#000000;stroke-width:0;stroke-linecap:butt;stroke-miterlimit:4;stroke-dasharray:none;stroke-opacity:1"
       d="m 252.99994,872.36214 12,-19.99995 -12,-20.00002 -11.99998,20.00002 z"
       id="path11638-0-60-0-0-8"
       inkscape:connector-curvature="0" />
    <path
       style="opacity:1;fill:#ffffff;fill-opacity:1;stroke:#000000;stroke-width:0;stroke-linecap:butt;stroke-miterlimit:4;stroke-dasharray:none;stroke-opacity:1"
       d="m 297.99992,867.36215 9.00001,-14.99996 -9.00001,-15.00002 -8.99999,15.00002 z"
       id="path11638-0-60-0-0-1-5"
       inkscape:connector-curvature="0" />
    <path
       sodipodi:nodetypes="ssssssssscs"
       inkscape:connector-curvature="0"
       id="path3370-3"
       d="m 191.03806,978.67176 c 0,1.1499 0.25079,2.2455 0.70426,3.2419 0.45351,0.9965 1.10973,1.8938 1.92061,2.6474 0.81091,0.7536 1.77647,1.3635 2.84866,1.7849 1.07218,0.4215 2.25102,0.6546 3.48839,0.6546 1.23736,0 2.41618,-0.2331 3.48838,-0.6546 1.07218,-0.4214 2.03775,-1.0313 2.84865,-1.7849 0.81088,-0.7536 1.46712,-1.6509 1.9206,-2.6474 0.45349,-0.9964 0.70428,-2.092 0.70428,-3.2419 0,-5.1271 -6.9553,-13.45502 -8.96191,-17.30962 -2.18377,3.8207 -8.96192,12.42362 -8.96192,17.30962 z"
       style="opacity:1;fill:#1a1a1a;fill-opacity:1;stroke:#1a1a1a;stroke-width:4.72315502;stroke-linecap:butt;stroke-miterlimit:4;stroke-dasharray:none;stroke-opacity:1" />
    <path
       style="fill:none;fill-rule:evenodd;stroke:#1a1a1a;stroke-width:14.99999809;stroke-linecap:butt;stroke-linejoin:miter;stroke-miterlimit:4;stroke-dasharray:none;stroke-opacity:1"
       d="m 199.99998,698.86217 c 0,-58.88885 0,-59.99998 0,-59.99998"
       id="path10995-95-5-6"
       inkscape:connector-curvature="0" />
    <path
       style="fill:none;fill-rule:evenodd;stroke:#1a1a1a;stroke-width:15.89114571;stroke-linecap:butt;stroke-linejoin:miter;stroke-miterlimit:4;stroke-dasharray:none;stroke-opacity:1"
       d="m 177.49998,664.24723 c 43.84611,0 44.99996,0 44.99996,0"
       id="path11539-2-2-3"
       inkscape:connector-curvature="0" />
    <path
       inkscape:connector-curvature="0"
       id="path10995-95-5-6-4"
       d="m 199.99998,1005.8621 c 0,58.8889 0,60 0,60"
       style="fill:none;fill-rule:evenodd;stroke:#1a1a1a;stroke-width:14.99999809;stroke-linecap:butt;stroke-linejoin:miter;stroke-miterlimit:4;stroke-dasharray:none;stroke-opacity:1" />
    <path
       inkscape:connector-curvature="0"
       id="path11539-2-2-3-4"
       d="m 177.49998,1040.4766 c 43.84611,0 44.99997,0 44.99997,0"
       style="fill:none;fill-rule:evenodd;stroke:#1a1a1a;stroke-width:15.89114571;stroke-linecap:butt;stroke-linejoin:miter;stroke-miterlimit:4;stroke-dasharray:none;stroke-opacity:1" />
    <path
       style="opacity:1;fill:#1a1a1a;fill-opacity:1;stroke:#1a1a1a;stroke-width:8.40642357;stroke-linecap:butt;stroke-miterlimit:4;stroke-dasharray:none;stroke-opacity:1"
       d="m 91.160557,885.72732 c -6.77043,9.94368 -12.54096,19.77625 -28.77807,30.77178 -4.44924,3.703 -8.04981,8.11233 -10.53806,13.00857 -2.48828,4.89623 -3.86422,10.27936 -3.86422,15.92996 0,5.6506 1.37594,11.03376 3.86422,15.92999 2.48825,4.89624 6.08882,9.30557 10.53806,13.00859 4.44923,3.70299 9.74713,6.69969 15.63005,8.77062 5.88293,2.07093 12.35087,3.21609 19.14016,3.21609 6.789303,0 13.257233,-1.14516 19.140153,-3.21609 5.88292,-2.07093 11.18082,-5.06763 15.63006,-8.77062 4.44924,-3.70302 11.17137,-12.29961 14.00612,-17.05466 6.80397,-9.70903 17.74672,-30.28759 17.74672,-30.28759 l 17.02634,-33.06148"
       id="path10972-6-4-2-2"
       inkscape:connector-curvature="0"
       sodipodi:nodetypes="ccssssssssccc" />
    <path
       style="opacity:1;fill:#1a1a1a;fill-opacity:1;stroke:#1a1a1a;stroke-width:8.40642357;stroke-linecap:butt;stroke-miterlimit:4;stroke-dasharray:none;stroke-opacity:1"
       d="m 308.8463,817.49624 c 6.77043,-9.94368 12.54096,-19.77625 28.77806,-30.77178 4.44924,-3.703 8.04981,-8.11233 10.53806,-13.00857 2.48828,-4.89623 3.86422,-10.27936 3.86422,-15.92996 0,-5.65059 -1.37594,-11.03375 -3.86422,-15.92998 -2.48825,-4.89624 -6.08882,-9.30557 -10.53806,-13.00859 -4.44923,-3.70299 -9.74713,-6.69969 -15.63004,-8.77062 -5.88293,-2.07093 -12.35087,-3.21609 -19.14016,-3.21609 -6.78931,0 -13.25724,1.14516 -19.14016,3.21609 -5.88292,2.07093 -11.18081,5.06763 -15.63005,8.77062 -4.44924,3.70302 -11.17137,12.29961 -14.00612,17.05466 -6.80397,9.70902 -17.74672,30.28758 -17.74672,30.28758 l -17.02634,33.06148"
       id="path10972-6-4-2-2-0"
       inkscape:connector-curvature="0"
       sodipodi:nodetypes="ccssssssssccc" />
    <path
       style="fill:none;fill-rule:evenodd;stroke:url(#linearGradient4235);stroke-width:14.99999809;stroke-linecap:butt;stroke-linejoin:miter;stroke-miterlimit:4;stroke-dasharray:none;stroke-opacity:1"
       d="m 69.381599,827.43448 c 96.187681,-24.252 193.120111,-24.88139 261.821131,0.6108"
       id="path13242-8"
       inkscape:connector-curvature="0"
       sodipodi:nodetypes="cc" />
    <path
       style="opacity:1;fill:#1a1a1a;fill-opacity:1;stroke:#1a1a1a;stroke-width:8.40642357;stroke-linecap:butt;stroke-miterlimit:4;stroke-dasharray:none;stroke-opacity:1"
       d="m 308.8463,885.72732 c 6.77043,9.94368 12.54096,19.77625 28.77807,30.77178 4.44923,3.703 8.0498,8.11233 10.53806,13.00857 2.48828,4.89623 3.86422,10.27936 3.86422,15.92996 0,5.6506 -1.37594,11.03376 -3.86422,15.92999 -2.48826,4.89624 -6.08883,9.30557 -10.53806,13.00859 -4.44923,3.70299 -9.74714,6.69969 -15.63006,8.77062 -5.88293,2.07093 -12.35086,3.21609 -19.14016,3.21609 -6.7893,0 -13.25723,-1.14516 -19.14015,-3.21609 -5.88292,-2.07093 -11.18082,-5.06763 -15.63006,-8.77062 -4.44924,-3.70302 -11.17138,-12.29961 -14.00613,-17.05466 -6.80396,-9.70903 -17.74671,-30.28759 -17.74671,-30.28759 l -17.02633,-33.06148"
       id="path10972-6-4-2-8"
       inkscape:connector-curvature="0"
       sodipodi:nodetypes="ccssssssssccc" />
    <path
       style="fill:none;fill-rule:evenodd;stroke:url(#linearGradient4233);stroke-width:14.99999809;stroke-linecap:butt;stroke-linejoin:miter;stroke-miterlimit:4;stroke-dasharray:none;stroke-opacity:1"
       d="m 69.381599,877.28941 c 96.187681,24.252 193.120101,24.88139 261.821111,-0.6108"
       id="path13242-8-4"
       inkscape:connector-curvature="0"
       sodipodi:nodetypes="cc" />
    <path
       style="opacity:1;fill:none;fill-opacity:1;stroke:#1a1a1a;stroke-width:14.99999809;stroke-linecap:butt;stroke-miterlimit:4;stroke-dasharray:none;stroke-opacity:1"
       d="m 71.698828,855.0218 c 0,-22.6275 -13.99971,-37.75334 -28.47667,-50.01731 -7.07692,-6.08306 -12.80398,-13.32646 -16.76177,-21.36969 -3.95781,-8.04324 -6.14639,-16.88631 -6.14639,-26.16878 0,-9.28245 2.18858,-18.12554 6.14639,-26.16876 3.9578,-8.04323 9.68485,-15.28659 16.76177,-21.36967 7.07692,-6.08307 15.50372,-11.00584 24.86103,-14.40783 9.35733,-3.402 19.64513,-5.28324 30.44418,-5.28324 10.798972,0 21.086822,1.88124 30.444152,5.28324 9.35731,3.40199 17.78411,8.32476 24.86102,14.40783 7.07692,6.08308 12.80395,13.32645 16.76176,21.36967 3.95782,8.04322 17.66893,26.5901 29.72625,51.70448 13.33761,-25.45752 25.12828,-43.74402 29.0861,-51.78724 3.9578,-8.04321 9.68485,-15.28658 16.76176,-21.36967 7.07691,-6.08307 15.50372,-11.00584 24.86101,-14.40782 9.35734,-3.40201 19.64519,-5.28325 30.44418,-5.28325 10.79903,0 21.08685,1.88124 30.44416,5.28325 9.35733,3.40198 17.78412,8.32475 24.86103,14.40782 7.07692,6.08309 12.80397,13.32645 16.76178,21.36967 3.95781,8.04322 6.14639,16.88631 6.14639,26.16875 0,9.28248 -2.18858,18.12555 -6.14639,26.16879 -3.9578,8.04323 -9.68486,15.28662 -16.76178,21.36968 -14.47695,12.26397 -27.40591,28.59393 -27.40591,51.22143"
       id="path10972-6-7-9-7-56"
       inkscape:connector-curvature="0"
       sodipodi:nodetypes="ccssssssssscssssssssscc" />
    <path
       sodipodi:nodetypes="ccssssssssscssssssssscc"
       inkscape:connector-curvature="0"
       id="path10972-6-7-9-7-5-1"
       d="m 71.699148,849.70213 c 0,22.6275 -13.99971,37.75334 -28.47667,50.01731 -7.07692,6.08307 -12.80398,13.32647 -16.76177,21.3697 -3.95781,8.04323 -6.14639,16.8863 -6.14639,26.16877 0,9.28245 2.18858,18.12554 6.14639,26.16876 3.9578,8.04326 9.68485,15.28656 16.76177,21.36966 7.07692,6.08307 15.50372,11.00587 24.86103,14.40777 9.35733,3.402 19.64514,5.2833 30.44419,5.2833 10.798962,0 21.086832,-1.8813 30.444162,-5.2833 9.35731,-3.4019 17.7841,-8.3247 24.86101,-14.40777 7.07692,-6.0831 12.80395,-13.3265 16.76176,-21.36966 3.95782,-8.04322 17.66893,-26.59012 29.72625,-51.70449 13.33761,25.45751 25.12827,43.74403 29.08609,51.78725 3.9578,8.0432 9.68485,15.2866 16.76176,21.3697 7.07692,6.08297 15.50373,11.00577 24.86102,14.40777 9.35734,3.402 19.64519,5.2832 30.44418,5.2832 10.79902,0 21.08684,-1.8812 30.44415,-5.2832 9.35733,-3.402 17.78413,-8.3248 24.86104,-14.40777 7.07692,-6.0831 12.80397,-13.3265 16.76178,-21.3697 3.95781,-8.04322 6.14639,-16.88631 6.14639,-26.16875 0,-9.28248 -2.18858,-18.12555 -6.14639,-26.16878 -3.9578,-8.04323 -9.68486,-15.28662 -16.76178,-21.36969 -14.47696,-12.26397 -27.40592,-28.59393 -27.40592,-51.22143"
       style="opacity:1;fill:none;fill-opacity:1;stroke:#1a1a1a;stroke-width:14.99999809;stroke-linecap:butt;stroke-miterlimit:4;stroke-dasharray:none;stroke-opacity:1" />
  </g>
</svg>
