<?xml version="1.0" encoding="UTF-8" standalone="no"?>
<svg width="2202px" height="3592px" viewBox="0 0 2202 3592" version="1.1" xmlns="http://www.w3.org/2000/svg" xmlns:xlink="http://www.w3.org/1999/xlink" xmlns:sketch="http://www.bohemiancoding.com/sketch/ns">
    <!-- Generator: Sketch 3.1.1 (8761) - http://www.bohemiancoding.com/sketch -->
    <title>Slice 2</title>
    <desc>Created with Sketch.</desc>
    <defs></defs>
    <g id="Page-1" stroke="none" stroke-width="1" fill="none" fill-rule="evenodd" sketch:type="MSPage">
        <g id="bK" sketch:type="MSLayerGroup" transform="translate(-10.000000, -10.000000)">
            <g id="Group" transform="translate(0.000000, 1533.000000)" fill="#C4A86F" sketch:type="MSShapeGroup">
                <path d="M548,0 L1646,9 L1962,1662 L274,1638 L548,0 Z" id="Shape"></path>
                <path d="M4,1609 L2221,1609 L2221,1813 L4,1813 L4,1609 Z" id="Shape"></path>
                <path d="M173,1756 L2058,1756 L2058,1909 L173,1909 L173,1756 Z" id="Shape"></path>
                <path d="M0,1875 L2217,1875 L2217,2079 L0,2079 L0,1875 Z" id="Shape"></path>
            </g>
            <g id="Group" transform="translate(176.000000, 1651.000000)" fill="#91753C" sketch:type="MSShapeGroup">
                <path d="M431,1 L1492,1 L1780,1490 L2046,1490 L2046,1694 L1885,1691 L1885,1754 L2042,1757 L2042,1961 L1726,1961 C1726,1961 1700,1812 1655,1694 C1610,1577 1570,1614 1520,1246 C1471,878 1370,145 1370,145 L431,0 L431,1 Z" id="Shape"></path>
                <path d="M0,1692 L1884,1692 L1884,1755 L0,1755 L0,1692 Z" id="Shape"></path>
            </g>
            <g id="Group" transform="translate(280.000000, 0.000000)" fill="#C4A86F" sketch:type="MSShapeGroup">
                <path d="M14,1432 L1652,1432 L1652,1652 L14,1652 L14,1432 Z" id="Shape"></path>
                <path d="M204,1512 C204,1512 -37,1184 5,940 C55,655 387,532 880,505 C1028,497 978,1512 978,1512 L204,1512" id="Shape"></path>
                <path d="M1441,1512 C1441,1512 1682,1184 1640,940 C1590,655 1258,532 765,505 C617,497 667,1512 667,1512 L1441,1512" id="Shape"></path>
                <path d="M486,556 C486,556 739,493 712,387 C685,281 826,368 826,368 L836,514 L486,557 L486,556 Z" id="Shape"></path>
                <path d="M1098,548 C1098,548 944,473 940,387 C935,301 826,368 826,368 L816,515 L1098,549 L1098,548 Z" id="Shape"></path>
                <ellipse id="Oval" cx="681" cy="180" rx="91" ry="89"></ellipse>
                <ellipse id="Oval" cx="710" cy="318" rx="64" ry="62"></ellipse>
                <ellipse id="Oval" cx="965" cy="180" rx="91" ry="89"></ellipse>
                <ellipse id="Oval" cx="936" cy="318" rx="64" ry="62"></ellipse>
                <ellipse id="Oval" cx="826" cy="101" rx="97" ry="101"></ellipse>
                <path d="M762,427 L681,180 L826,101 L965,180 L890,431 L762,427 Z" id="Shape"></path>
            </g>
            <g id="Group" transform="translate(1203.000000, 386.000000)" fill="#91753C" sketch:type="MSShapeGroup">
                <path d="M17,1 C17,1 -32,95 35,145 C101,195 266,226 354,284 C443,342 594,404 595,568 C597,732 562,804 456,919 C349,1035 281,1045 281,1045 L569,1045 C569,1045 656,893 679,819 C702,745 731,652 715,552 C699,452 625,327 509,272 C393,216 423,221 339,197 C256,173 245,171 236,169 C227,167 141,142 141,142 C141,142 96,117 71,91 C46,65 16,0 16,0 L17,1 Z" id="Shape"></path>
                <path d="M281,1046 L315,1266 L729,1266 L729,1046 L281,1046 Z" id="Shape"></path>
            </g>
        </g>
    </g>
</svg>