<?xml version="1.0" encoding="UTF-8" standalone="no"?>
<!-- Generator: Adobe Illustrator 16.0.0, SVG Export Plug-In . SVG Version: 6.00 Build 0)  -->

<svg
   xmlns:dc="http://purl.org/dc/elements/1.1/"
   xmlns:cc="http://creativecommons.org/ns#"
   xmlns:rdf="http://www.w3.org/1999/02/22-rdf-syntax-ns#"
   xmlns:svg="http://www.w3.org/2000/svg"
   xmlns="http://www.w3.org/2000/svg"
   xmlns:sodipodi="http://sodipodi.sourceforge.net/DTD/sodipodi-0.dtd"
   xmlns:inkscape="http://www.inkscape.org/namespaces/inkscape"
   version="1.1"
   id="pawn"
   x="0px"
   y="0px"
   width="800px"
   height="800px"
   viewBox="0 0 800 800"
   style="enable-background:new 0 0 800 800;"
   xml:space="preserve"
   inkscape:version="0.91 r13725"
   sodipodi:docname="bP.svg"><metadata
     id="metadata4431"><rdf:RDF><cc:Work
         rdf:about=""><dc:format>image/svg+xml</dc:format><dc:type
           rdf:resource="http://purl.org/dc/dcmitype/StillImage" /><dc:title></dc:title></cc:Work></rdf:RDF></metadata><defs
     id="defs4429" /><sodipodi:namedview
     pagecolor="#ffffff"
     bordercolor="#666666"
     borderopacity="1"
     objecttolerance="10"
     gridtolerance="10"
     guidetolerance="10"
     inkscape:pageopacity="0"
     inkscape:pageshadow="2"
     inkscape:window-width="1920"
     inkscape:window-height="1039"
     id="namedview4427"
     showgrid="false"
     inkscape:zoom="0.295"
     inkscape:cx="400"
     inkscape:cy="400"
     inkscape:window-x="0"
     inkscape:window-y="20"
     inkscape:window-maximized="0"
     inkscape:current-layer="pawn" /><g
     id="black_pawn"
     transform="matrix(1,0,0,-1,0,841)"><path
       id="base"
       d="m 489.3,418.3 0,0 c 0.1,-17 12,-25.1 65.1,-29.9 l 0,-58.4 -90.7,0 c 32,-19.5 52.8,-53.5 52.8,-92.9 0,-61.9 -51.3,-110.4 -116.7,-110.4 -65.4,0 -116.7,48.5 -116.7,110.4 0,39.4 20.7,73.3 52.8,92.9 l -91.4,0 0,58.4 c 53.7,4.8 65.2,12.9 65.2,29.8 0,60.7 -37.6,131.5 -115.5,200.1 l 0.1,64 c 0,18.6 93.2,32 205.3,32 l 0,0 0,0 c 112.1,0 205.4,-13.5 205.4,-32 l 0.1,-64 C 527.2,549.8 489.3,478.9 489.3,418.3 Z"
       inkscape:connector-curvature="0" /><path
       id="middle_9_"
       style="fill:none;stroke:#f2f2f2;stroke-width:19.44000053;stroke-linecap:round;stroke-miterlimit:10"
       d="m 232.1,627.2 c 0,13.7 76,25.7 167.6,25.7 l 0,0 c 91.5,0 167.4,-11 167.4,-24.6"
       inkscape:connector-curvature="0" /><path
       id="top"
       style="fill:none;stroke:#f2f2f2;stroke-width:16.20000076;stroke-linecap:round;stroke-miterlimit:10"
       d="m 400.9,150.3 c -24,-0.2 -47.6,8.6 -66.3,27.3 -26.7,26.8 -32.5,63.2 -20,95.3"
       inkscape:connector-curvature="0" /></g></svg>