<?xml version="1.0" encoding="UTF-8" standalone="no"?>
<!-- Generator: Adobe Illustrator 16.0.0, SVG Export Plug-In . SVG Version: 6.00 Build 0)  -->

<svg
   xmlns:dc="http://purl.org/dc/elements/1.1/"
   xmlns:cc="http://creativecommons.org/ns#"
   xmlns:rdf="http://www.w3.org/1999/02/22-rdf-syntax-ns#"
   xmlns:svg="http://www.w3.org/2000/svg"
   xmlns="http://www.w3.org/2000/svg"
   xmlns:sodipodi="http://sodipodi.sourceforge.net/DTD/sodipodi-0.dtd"
   xmlns:inkscape="http://www.inkscape.org/namespaces/inkscape"
   version="1.1"
   id="Layer_1"
   x="0px"
   y="0px"
   width="800px"
   height="800px"
   viewBox="0 0 800 800"
   style="enable-background:new 0 0 800 800;"
   xml:space="preserve"
   inkscape:version="0.91 r13725"
   sodipodi:docname="bQ.svg"><metadata
     id="metadata4420"><rdf:RDF><cc:Work
         rdf:about=""><dc:format>image/svg+xml</dc:format><dc:type
           rdf:resource="http://purl.org/dc/dcmitype/StillImage" /><dc:title></dc:title></cc:Work></rdf:RDF></metadata><defs
     id="defs4418" /><sodipodi:namedview
     pagecolor="#ffffff"
     bordercolor="#666666"
     borderopacity="1"
     objecttolerance="10"
     gridtolerance="10"
     guidetolerance="10"
     inkscape:pageopacity="0"
     inkscape:pageshadow="2"
     inkscape:window-width="1920"
     inkscape:window-height="1039"
     id="namedview4416"
     showgrid="false"
     inkscape:zoom="0.295"
     inkscape:cx="400"
     inkscape:cy="400"
     inkscape:window-x="0"
     inkscape:window-y="20"
     inkscape:window-maximized="0"
     inkscape:current-layer="Layer_1" /><g
     id="black_queen"
     transform="matrix(1,0,0,-1,0,800.9)"><g
       id="silhouette_6_"><path
         d="m 400,704.4 c -62,0 -120.5,-5.5 -164.8,-15.4 -49.7,-11.1 -74.2,-25.8 -75,-44.8 L 150,587 l 0,-0.9 c 0,-5.4 1.6,-13.2 8.6,-21.4 C 151.1,521.6 134,447.5 114,372.5 95.6,365.6 83.2,348 83.2,327.9 c 0,-26.4 21.4,-47.7 47.7,-47.7 26.3,0 47.7,21.4 47.7,47.7 0,11.1 -3.7,21.5 -10.6,29.9 21.1,67.1 46.9,136.7 64.9,175.2 l 5.3,-1.3 c -0.5,-55.3 -9.1,-164.3 -20.6,-261.6 -18.6,-8 -31,-26.6 -31,-47.1 0,-28.3 23,-51.3 51.3,-51.3 28.3,0 51.3,23 51.3,51.3 0,13.8 -5.4,26.7 -15,36.3 17.9,93.5 47.7,211.6 65.3,258.9 l 5.4,-0.3 c 8.6,-66 19.4,-184.5 24.6,-294.5 -14.9,-9.9 -23.8,-26.5 -23.8,-44.5 0,-29.8 24.2,-54 54,-54 29.8,0 54,24.2 54,54 0,18 -8.9,34.6 -23.5,44.6 5.2,110.1 16,228.5 24.6,294.5 l 5.4,0.3 C 477.8,471 507.6,353 525.5,259.4 c -9.6,-9.6 -15,-22.5 -15,-36.3 0,-28.3 23,-51.3 51.3,-51.3 28.3,0 51.3,23 51.3,51.3 0,20.6 -12.4,39.1 -31,47.1 -11.6,97.3 -20.2,206.3 -20.6,261.6 l 5.3,1.3 c 18,-38.4 43.8,-108.1 64.9,-175.2 -6.9,-8.4 -10.6,-18.9 -10.6,-29.9 0,-26.4 21.4,-47.7 47.7,-47.7 26.3,0 47.7,21.4 47.7,47.7 0,20.1 -12.4,37.7 -30.8,44.6 -19.9,75.1 -37,149.1 -44.6,192.2 5.7,6.7 8.6,13.8 8.6,21.3 l 0,0.9 -10.3,57.7 c -1.2,18.9 -25.7,33.5 -75,44.6 -43.8,9.6 -102.3,15.1 -164.4,15.1 z M 215,632.7 c 10.8,7.2 34.9,14.3 66.2,19.1 34.3,5.4 75.4,8.2 118.8,8.2 98,0 163.9,-13.8 184.2,-26.9 l 3.3,-2.9 c -4.2,-4.2 -17,-11.4 -48.7,-17.7 -35.3,-6.9 -84.7,-10.7 -138.9,-10.7 -50.3,0 -98.2,3.9 -134.6,11 -33.2,6.5 -47.5,13.8 -52.6,17.9 l 2.3,2 z"
         id="path4374"
         inkscape:connector-curvature="0" /><path
         d="m 400,134.5 c 24.4,0 44.3,19.9 44.3,44.3 0,17.1 -9.6,31.9 -23.8,39.2 5.1,114 16.8,242.6 26,309.1 l 20.4,1.3 c 18.1,-44.7 51.4,-176.8 69.4,-272.6 -9.7,-7.6 -15.9,-19.4 -15.9,-32.7 0,-23 18.6,-41.6 41.6,-41.6 23,0 41.6,18.6 41.6,41.6 0,19 -12.7,35 -30.2,40 -12.3,102.1 -21.8,222 -21.5,276.4 l 20.4,4.9 c 20.3,-41.1 49.7,-121.9 70.4,-188.9 -7.2,-6.9 -11.8,-16.6 -11.8,-27.5 0,-21 17,-38 38,-38 21,0 38,17 38,38 0,17.9 -12.4,32.9 -29.1,36.9 -20.8,78 -39.5,158.2 -47,203.1 6,5.7 9.4,11.8 9.4,18.1 l -10.2,57 -0.1,0.1 c 0,28.5 -103,51.6 -230,51.6 -127.1,0 -230,-23.4 -230,-51.5 l 0,0 -10.2,-57.1 c 0,-6.3 3.2,-12.5 9.4,-18.3 -7.5,-44.9 -26.1,-125.2 -47,-203.1 -16.6,-4 -29.1,-19 -29.1,-36.9 0,-21 17,-38 38,-38 21.1,0 38,17 38,38 0,10.8 -4.5,20.6 -11.8,27.5 20.8,67 50.1,147.9 70.4,188.9 l 20.4,-4.9 c 0.3,-54.2 -9.2,-174.3 -21.5,-276.4 -17.4,-5 -30.2,-21 -30.2,-40 0,-23 18.6,-41.6 41.6,-41.6 23,0 41.6,18.6 41.6,41.6 0,13.3 -6.3,25.1 -15.9,32.7 18,95.8 51.2,227.9 69.4,272.6 l 20.4,-1.3 c 9.1,-66.5 20.8,-195 26,-309.1 -14.1,-7.5 -23.8,-22.1 -23.8,-39.2 0.1,-24.3 20,-44.2 44.4,-44.2 m 0,535.3 c 89.4,0 165,-12.1 190.2,-28.8 l 9,-7.9 c 0,-25.6 -89.1,-41 -199,-41 -109.9,0 -199,18.4 -199,41 l 8.1,7.2 c 24,17 100.3,29.5 190.7,29.5 m 0,-554.7 c -35.1,0 -63.7,28.6 -63.7,63.7 0,19.3 8.6,37.3 23.2,49.2 -4.4,92.8 -12.9,190.8 -20.5,257.8 -17,-55.4 -39.6,-148.1 -54.3,-223.5 9.2,-10.9 14.4,-24.7 14.4,-39.3 0,-33.7 -27.3,-61 -61,-61 -33.7,0 -61,27.3 -61,61 0,13.5 4.3,26.4 12.6,37.2 5.2,6.7 11.7,12.3 19.1,16.4 9.1,77.4 16.2,161.5 18.9,219.2 -15.3,-37.6 -33.2,-87.4 -48.6,-136.3 6.2,-9.3 9.6,-20.4 9.6,-31.6 0,-31.6 -25.8,-57.5 -57.5,-57.5 -31.6,0 -57.6,25.7 -57.6,57.3 0,22.5 12.9,42.2 32.3,51.6 18.7,70.8 34.8,140.2 42.4,182.6 -6.5,9.1 -8.1,17.7 -8.1,24 l 0,1.7 0.3,1.7 9.9,55.8 c 0.4,5.7 2.6,13.5 9.7,21.4 4.6,5 10.7,9.4 18.7,13.6 13.1,6.9 31.3,13.1 54.1,18.1 45,10.2 104.3,15.7 167,15.7 62.9,0 122.1,-5.5 167,-15.7 22.8,-5.1 41,-11.2 54.1,-18.3 8,-4.2 14,-8.7 18.7,-13.7 4.1,-4.5 6.6,-9.1 8,-13.2 l 0.3,-0.3 0.3,-1.8 c 0.5,-1.9 0.9,-3.8 1,-5.5 l 10,-56.4 0.3,-1.7 0,-1.3 c 0,-6.2 -1.6,-14.8 -8.1,-23.9 7.6,-42.4 23.8,-111.8 42.4,-182.6 19.4,-9.4 32.3,-29.3 32.3,-51.6 0,-31.6 -25.8,-57.5 -57.5,-57.5 -31.6,0 -57.5,25.8 -57.5,57.5 0,11.3 3.3,22.4 9.6,31.6 -15.4,48.9 -33.4,98.7 -48.6,136.3 2.7,-57.8 9.8,-141.8 18.9,-219.2 7.3,-4.1 13.9,-9.6 19.1,-16.4 8.2,-10.7 12.6,-23.5 12.6,-37.2 0,-33.7 -27.3,-61 -61,-61 -33.7,0 -61,27.3 -61,61 0,14.6 5.1,28.4 14.4,39.3 -14.7,75.4 -37.4,168 -54.3,223.5 -7.7,-67 -16.1,-164.9 -20.5,-257.8 14.5,-11.9 23.1,-29.8 23.1,-49.1 0.2,-35.2 -28.4,-63.8 -63.5,-63.8 l 0,0 z M 234,631 c 8.5,-3 21.6,-6.7 41.3,-10 34.7,-6 78.9,-9.3 124.7,-9.3 48,0 91.2,2.9 125.1,8.4 21.1,3.5 34.3,7.1 42.7,10.4 -9.5,3.6 -25.5,8.1 -51.5,12.1 -33.7,5.2 -73.9,7.9 -116.2,7.9 -42.9,0 -83.4,-2.8 -117.3,-8.1 -24,-3.8 -39.2,-8.1 -48.8,-11.4 l 0,0 z"
         id="path4376"
         inkscape:connector-curvature="0" /></g><g
       id="pearls_1_"><g
         id="g4379"><circle
           cx="400"
           cy="112.9"
           r="25.9"
           id="circle4381" /></g><g
         id="g4383"><circle
           cx="225"
           cy="164.8"
           r="23"
           id="circle4385" /></g><g
         id="g4387"><circle
           cx="113.8"
           cy="273.79999"
           r="22.4"
           id="circle4389" /></g><g
         id="g4391"><circle
           cx="575"
           cy="164.8"
           r="23"
           id="circle4393" /></g><g
         id="g4395"><circle
           cx="687.29999"
           cy="273.79999"
           r="22.4"
           id="circle4397" /></g><g
         id="light"><line
           style="fill:none;stroke:#f2f2f2;stroke-width:17.28000069;stroke-linecap:round;stroke-miterlimit:10"
           x1="117.6"
           y1="287.89999"
           x2="113.1"
           y2="272.89999"
           id="line4400" /><line
           style="fill:none;stroke:#f2f2f2;stroke-width:18.36000061;stroke-linecap:round;stroke-miterlimit:10"
           x1="228.8"
           y1="180.7"
           x2="224.39999"
           y2="162.7"
           id="line4402" /><line
           style="fill:none;stroke:#f2f2f2;stroke-width:17.28000069;stroke-linecap:round;stroke-miterlimit:10"
           x1="682.70001"
           y1="287.89999"
           x2="687.29999"
           y2="272.89999"
           id="line4404" /><line
           style="fill:none;stroke:#f2f2f2;stroke-width:18.36000061;stroke-linecap:round;stroke-miterlimit:10"
           x1="570.40002"
           y1="180.7"
           x2="575"
           y2="162.7"
           id="line4406" /><line
           style="fill:none;stroke:#f2f2f2;stroke-width:20.52000046;stroke-linecap:round;stroke-miterlimit:10"
           x1="399.5"
           y1="108.6"
           x2="399.5"
           y2="127"
           id="line4408" /></g></g><g
       id="light_2_"><path
         id="top_7_"
         style="fill:none;stroke:#f2f2f2;stroke-width:15.11999989;stroke-linecap:round;stroke-linejoin:round;stroke-miterlimit:10"
         d="m 263.7,255.8 c 9.7,-7.6 15.9,-19.4 15.9,-32.7 0,-23 -18.6,-41.6 -41.6,-41.6 -23,0 -41.6,18.6 -41.6,41.6 0,19 12.7,35 30.2,40 12.3,102.1 21.8,215.6 21.5,269.9 l -20.4,4.9"
         inkscape:connector-curvature="0" /><path
         id="top_6_"
         style="fill:none;stroke:#f2f2f2;stroke-width:15.11999989;stroke-linecap:round;stroke-linejoin:round;stroke-miterlimit:10"
         d="m 420.5,218 c 14.1,-7.5 23.8,-22.1 23.8,-39.2 0,-24.4 -19.9,-44.3 -44.3,-44.3 -24.4,0 -44.3,19.9 -44.3,44.3 0,17.1 9.6,31.9 23.8,39.2 -5.1,114 -16.8,236.1 -26,302.6 l -20.4,1.3"
         inkscape:connector-curvature="0" /><path
         id="top_5_"
         style="fill:none;stroke:#f2f2f2;stroke-width:15.11999989;stroke-linecap:round;stroke-linejoin:round;stroke-miterlimit:10"
         d="m 573.3,263 c 17.4,-5 30.2,-21 30.2,-40 0,-23 -18.6,-41.6 -41.6,-41.6 -23,0 -41.6,18.6 -41.6,41.6 0,13.3 6.3,25.1 15.9,32.7 -18,95.8 -51.2,221.4 -69.4,266.1 l -20.4,-1.3"
         inkscape:connector-curvature="0" /><path
         id="top_4_"
         style="fill:none;stroke:#f2f2f2;stroke-width:15.11999989;stroke-linecap:round;stroke-linejoin:round;stroke-miterlimit:10"
         d="m 677.9,364.8 c 16.6,-4 29.1,-19 29.1,-36.9 0,-21 -17,-38 -38,-38 -21,0 -38,17 -38,38 0,10.8 4.5,20.6 11.8,27.5 -20.8,67 -50.1,141.4 -70.4,182.4 L 552,532.9"
         inkscape:connector-curvature="0" /><path
         id="top_2_"
         style="fill:none;stroke:#f2f2f2;stroke-width:15.11999989;stroke-linecap:round;stroke-linejoin:round;stroke-miterlimit:10"
         d="m 157.2,355.4 c 7.2,-6.9 11.8,-16.6 11.8,-27.5 0,-21 -17,-38 -38,-38 -21.1,0 -38,17 -38,38 0,17.9 12.4,32.9 29.1,36.9 20.8,78 39.5,155 47,199.9 -6,5.7 -9.4,11.8 -9.4,18.1 l 10.2,60.3 c 0,-28.5 103,-51.6 230.1,-51.6 127.1,0 230.1,23.1 230.1,51.6 l 10.2,-60.3 c 0,-6.3 -3.2,-12.3 -9.4,-18.1"
         inkscape:connector-curvature="0" /></g></g></svg>