<?xml version="1.0" encoding="UTF-8" standalone="no"?>
<!-- Generator: Adobe Illustrator 16.0.0, SVG Export Plug-In . SVG Version: 6.00 Build 0)  -->

<svg
   xmlns:dc="http://purl.org/dc/elements/1.1/"
   xmlns:cc="http://creativecommons.org/ns#"
   xmlns:rdf="http://www.w3.org/1999/02/22-rdf-syntax-ns#"
   xmlns:svg="http://www.w3.org/2000/svg"
   xmlns="http://www.w3.org/2000/svg"
   xmlns:sodipodi="http://sodipodi.sourceforge.net/DTD/sodipodi-0.dtd"
   xmlns:inkscape="http://www.inkscape.org/namespaces/inkscape"
   version="1.1"
   id="Layer_1"
   x="0px"
   y="0px"
   width="800px"
   height="800px"
   viewBox="0 0 800 800"
   style="enable-background:new 0 0 800 800;"
   xml:space="preserve"
   inkscape:version="0.91 r13725"
   sodipodi:docname="wK.svg"><metadata
     id="metadata4324"><rdf:RDF><cc:Work
         rdf:about=""><dc:format>image/svg+xml</dc:format><dc:type
           rdf:resource="http://purl.org/dc/dcmitype/StillImage" /><dc:title></dc:title></cc:Work></rdf:RDF></metadata><defs
     id="defs4322" /><sodipodi:namedview
     pagecolor="#ffffff"
     bordercolor="#666666"
     borderopacity="1"
     objecttolerance="10"
     gridtolerance="10"
     guidetolerance="10"
     inkscape:pageopacity="0"
     inkscape:pageshadow="2"
     inkscape:window-width="1920"
     inkscape:window-height="1039"
     id="namedview4320"
     showgrid="false"
     inkscape:zoom="0.295"
     inkscape:cx="400"
     inkscape:cy="400"
     inkscape:window-x="0"
     inkscape:window-y="20"
     inkscape:window-maximized="0"
     inkscape:current-layer="Layer_1" /><g
     id="white_king"
     transform="matrix(1,0,0,-1,0,803.9)"><g
       id="silhouette_7_"><path
         style="fill:#ffffff"
         d="m 405.3,700 c -59.8,0 -116.1,-5.3 -158.7,-14.8 -47.4,-10.6 -71.1,-24.6 -72.1,-42.8 l -16.4,-66.4 0,-1.1 c 0,-9.1 5.2,-18 15.2,-26.5 C 167.1,526.5 151.7,502.9 136.7,480 118.3,452 101,425.6 101,402.3 c 0,-25.5 18.4,-41.4 47.8,-41.4 0.4,0 0.9,0 1.3,0 2.2,0 4.5,0.1 7,0.1 6,0.1 12.9,0.2 19.3,0.2 -5.4,-26.7 -3.8,-45.9 5,-59.9 13.3,-21.5 36.9,-24 53.6,-24 14.1,0 29.8,2.1 46.4,4.4 1.8,-16.3 7.5,-28.5 17.2,-36.9 7.8,-6.8 17,-10.3 27,-10.3 21.3,0 42.2,14.9 60.8,28 7,5 13.6,9.7 19,12.5 5.4,-2.9 12.1,-7.6 19,-12.5 18.5,-13.1 39.5,-28 60.7,-28 10.2,0 19.2,3.5 27,10.3 9.6,8.4 15.3,20.5 17.1,36.9 16.6,-2.3 32.3,-4.4 46.4,-4.4 16.6,0 40.3,2.5 53.6,24 8.6,14 10.3,33.3 4.9,60 6.6,0 13.6,-0.1 19.8,-0.2 2.3,0 4.4,-0.1 6.5,-0.1 0.4,0 0.9,0 1.3,0 29.5,0 47.1,15.4 47.1,41.4 0,23.2 -17.6,49.7 -36.3,77.7 -15.2,22.8 -30.8,46.3 -37,68.1 10.7,8.2 16.1,17.3 16.1,26.8 l 0,1.1 -15.8,67.2 c -1.6,17.9 -25.5,31.9 -72.8,42.3 -42.3,9.2 -98.4,14.4 -157.7,14.4 z"
         id="path4295"
         inkscape:connector-curvature="0" /><path
         d="m 325.6,243.8 c 28.2,0 60.4,33.6 79.8,41.5 19.4,-8 51.6,-41.5 79.8,-41.5 7.3,0 14.5,2.3 21.1,8 10.2,8.9 14.3,22.9 14.6,40.4 20,-2.8 38.8,-5.7 55,-5.7 20.2,0 36.4,4.5 45.8,19.7 9.4,15.2 7.9,38 1.2,64.3 2.5,0 5.1,0.1 7.8,0.1 10.3,0 21.7,-0.2 30.1,-0.3 0.4,0 0.8,0 1.2,0 21.4,0 37.9,9.2 37.9,32.2 0,39.1 -60.9,95.7 -73.9,146.7 l 0,3.3 c 10.8,6.9 16.5,14.5 16.5,22.5 l -15.6,66.9 C 625.6,669.1 526.9,691 405.4,691 283.1,691 183.9,668.8 183.9,641.3 L 167.6,575 c 0,-7.9 5.8,-15.6 15.6,-22.5 l 0,-3.6 c -11.9,-51 -72.8,-107.6 -72.8,-146.7 0,-23 17.3,-32.2 38.7,-32.2 0.4,0 0.8,0 1.2,0 8.5,0.1 20.3,0.4 30.6,0.4 2.6,0 5.1,0 7.5,-0.1 -6.7,-26.4 -8.1,-49.1 1.3,-64.3 9.4,-15.1 25.5,-19.7 45.8,-19.7 16.2,0 35,2.9 55,5.7 0.3,-17.5 4.4,-31.6 14.6,-40.4 6,-5.5 13.1,-7.8 20.5,-7.8 m 0,-18.3 0,0 c -12.4,0 -23.5,4.2 -33,12.5 -9.4,8.1 -15.6,19.3 -18.7,33.5 -13.7,-1.8 -26.7,-3.2 -38.9,-3.2 -13.3,0 -24.3,1.7 -33.7,5.4 -11.9,4.6 -21.2,12.3 -27.8,22.9 -8.6,14 -11.3,32 -8.1,55.5 -2.8,0 -5.6,-0.1 -8.2,-0.1 -2.5,0 -4.9,-0.1 -7,-0.1 -0.4,0 -1,0 -1.4,0 -15.2,0 -28.5,3.8 -38.2,11 -8.5,6.4 -18.8,18.4 -18.8,39.4 0,26 18.1,53.6 37.3,82.7 13.4,20.4 27.3,41.4 34,60.5 -9.2,9.2 -13.6,19 -13.6,29.4 l 0,2.3 0.3,2.2 15.8,64.6 c 1.1,12.9 10.2,24 27,32.8 12.6,6.7 30.1,12.5 52.1,17.5 43.1,9.6 100.2,15 160.6,15 60,0 116.7,-5.3 159.7,-14.8 21.8,-4.9 39.4,-10.7 52.1,-17.3 17,-8.9 26.4,-19.8 27.8,-32.5 l 15.1,-65.6 0.3,-2.1 0,-2.2 c 0,-10.8 -4.8,-20.7 -14.4,-29.8 6.8,-19 20.7,-39.9 34.2,-60 19.4,-29.2 37.8,-56.7 37.8,-82.7 0,-21.1 -9.8,-33 -18.1,-39.3 -9.8,-7.5 -22.6,-11.2 -38,-11.2 -0.4,0 -1,0 -1.4,0 -2.1,0 -4.2,0.1 -6.5,0.1 -2.8,0 -5.7,0.1 -8.7,0.1 3.3,-23.5 0.6,-41.6 -8,-55.5 -6.6,-10.6 -15.9,-18.3 -27.8,-22.9 -9.3,-3.7 -20.3,-5.4 -33.6,-5.4 -12.2,0 -25.2,1.4 -38.9,3.2 -3.1,-14.1 -9.3,-25.4 -18.7,-33.5 -9.5,-8.3 -20.6,-12.5 -33,-12.5 -24.2,0 -47.4,16.4 -66.1,29.7 -4.8,3.3 -9.6,6.8 -13.7,9.4 -4.1,-2.6 -9,-6 -13.7,-9.4 -18.7,-13.2 -41.9,-29.6 -66.1,-29.6 l 0,0 z"
         id="path4297"
         inkscape:connector-curvature="0" /></g><g
       id="top_12_"><path
         id="_x31__9_"
         style="fill:none;stroke:#000000;stroke-width:18.36000061;stroke-linecap:round;stroke-miterlimit:10"
         d="m 187.4,370.4 c -11.9,0.3 -25.9,-0.1 -37.5,-0.3 -21.9,-0.3 -39.4,8.7 -39.4,32.2 0,39.1 60.6,95.7 73.3,146.7"
         inkscape:connector-curvature="0" /><path
         id="_x32__7_"
         style="fill:none;stroke:#000000;stroke-width:18.36000061;stroke-linecap:round;stroke-miterlimit:10"
         d="m 289.5,292.4 c -45.6,-6.3 -83.3,-13.8 -100.3,13.7 -27,43.6 35.6,150.7 55.1,222.4"
         inkscape:connector-curvature="0" /><path
         id="_x33__6_"
         style="fill:none;stroke:#000000;stroke-width:18.36000061;stroke-linecap:round;stroke-miterlimit:10"
         d="m 404.3,285.7 c -24.3,-9 -67.9,-61.7 -99.8,-33.9 -43.6,37.9 22.9,173.9 38.1,260.5"
         inkscape:connector-curvature="0" /><path
         id="_x31__3_"
         style="fill:none;stroke:#000000;stroke-width:18.36000061;stroke-linecap:round;stroke-miterlimit:10"
         d="m 623.3,370.4 c 11.9,0.3 25.9,-0.1 37.5,-0.3 21.9,-0.3 39.4,8.7 39.4,32.2 0,39.1 -60.6,95.7 -73.3,146.7"
         inkscape:connector-curvature="0" /><path
         id="_x32__6_"
         style="fill:none;stroke:#000000;stroke-width:18.36000061;stroke-linecap:round;stroke-miterlimit:10"
         d="m 521.3,292.4 c 45.6,-6.3 83.3,-13.8 100.3,13.7 27,43.6 -35.6,150.7 -55.1,222.4"
         inkscape:connector-curvature="0" /><path
         id="_x33__5_"
         style="fill:none;stroke:#000000;stroke-width:18.36000061;stroke-linecap:round;stroke-miterlimit:10"
         d="m 406.5,285.7 c 24.3,-9 67.9,-61.7 99.8,-33.9 43.6,37.9 -22.9,173.9 -38.1,260.5"
         inkscape:connector-curvature="0" /><line
         id="center"
         style="fill:none;stroke:#000000;stroke-width:15.11999989;stroke-linecap:round;stroke-miterlimit:10"
         x1="405.39999"
         y1="271.70001"
         x2="405.39999"
         y2="456.20001" /></g><path
       id="middle_2_"
       style="fill:#ffffff;stroke:#000000;stroke-width:18.36000061;stroke-miterlimit:10"
       d="m 632.9,552.5 27.8,-68.8 c -11.1,14.6 -24.8,16.8 -33.9,14.3 -27,-8 -26.5,-40.6 -24.4,-66.5 -16.4,29.5 -39.3,44.7 -63.9,39.5 -24.9,-5.3 -40,-40.5 -39,-68.6 -17.5,35.6 -49.4,54.1 -94.1,54.1 -44.7,0 -76.6,-18.5 -94.1,-54.1 1.1,28.1 -14,63.3 -39,68.6 -24.6,5.2 -47.4,-10 -63.9,-39.5 1.9,25.9 2.6,58.5 -24.4,66.5 -9.1,2.7 -22.9,0.3 -33.9,-14.3 l 27.8,68.8"
       inkscape:connector-curvature="0" /><g
       id="bottom_4_"><path
         style="fill:none;stroke:#000000;stroke-width:21.60000038;stroke-linecap:round;stroke-miterlimit:10"
         d="m 167.9,574.8 c 0,-34.3 106.3,-61.7 237.4,-61.7 131.1,0 237.4,27.3 237.4,61.7"
         id="path4309"
         inkscape:connector-curvature="0" /><line
         style="fill:none;stroke:#000000;stroke-width:21.60000038;stroke-linecap:round;stroke-miterlimit:10"
         x1="167.7"
         y1="576.70001"
         x2="183.89999"
         y2="641.70001"
         id="line4311" /><line
         style="fill:none;stroke:#000000;stroke-width:21.60000038;stroke-linecap:round;stroke-miterlimit:10"
         x1="643.09998"
         y1="576.70001"
         x2="626.90002"
         y2="641.70001"
         id="line4313" /><ellipse
         style="fill:none;stroke:#000000;stroke-width:21.60000038;stroke-linecap:round;stroke-miterlimit:10"
         cx="405.39999"
         cy="641.09998"
         rx="221.39999"
         ry="49.700001"
         id="ellipse4315" /></g><g
       id="cross_1_"><line
         id="cross_h_2_"
         style="fill:none;stroke:#000000;stroke-width:30.23999977;stroke-miterlimit:10"
         x1="404.29999"
         y1="94.599998"
         x2="404.29999"
         y2="283.60001" /><line
         id="cross_v_1_"
         style="fill:none;stroke:#000000;stroke-width:30.23999977;stroke-miterlimit:10"
         x1="342.79999"
         y1="159.39999"
         x2="468"
         y2="159.39999" /></g></g></svg>