<?xml version="1.0" encoding="UTF-8" standalone="no"?>
<!-- Generator: Adobe Illustrator 16.0.0, SVG Export Plug-In . SVG Version: 6.00 Build 0)  -->

<svg
   xmlns:dc="http://purl.org/dc/elements/1.1/"
   xmlns:cc="http://creativecommons.org/ns#"
   xmlns:rdf="http://www.w3.org/1999/02/22-rdf-syntax-ns#"
   xmlns:svg="http://www.w3.org/2000/svg"
   xmlns="http://www.w3.org/2000/svg"
   xmlns:sodipodi="http://sodipodi.sourceforge.net/DTD/sodipodi-0.dtd"
   xmlns:inkscape="http://www.inkscape.org/namespaces/inkscape"
   version="1.1"
   id="Layer_1"
   x="0px"
   y="0px"
   width="800px"
   height="800px"
   viewBox="0 0 800 800"
   style="enable-background:new 0 0 800 800;"
   xml:space="preserve"
   inkscape:version="0.91 r13725"
   sodipodi:docname="wP.svg"><metadata
     id="metadata4281"><rdf:RDF><cc:Work
         rdf:about=""><dc:format>image/svg+xml</dc:format><dc:type
           rdf:resource="http://purl.org/dc/dcmitype/StillImage" /><dc:title></dc:title></cc:Work></rdf:RDF></metadata><defs
     id="defs4279" /><sodipodi:namedview
     pagecolor="#ffffff"
     bordercolor="#666666"
     borderopacity="1"
     objecttolerance="10"
     gridtolerance="10"
     guidetolerance="10"
     inkscape:pageopacity="0"
     inkscape:pageshadow="2"
     inkscape:window-width="1920"
     inkscape:window-height="1039"
     id="namedview4277"
     showgrid="false"
     inkscape:zoom="0.295"
     inkscape:cx="400"
     inkscape:cy="400"
     inkscape:window-x="0"
     inkscape:window-y="20"
     inkscape:window-maximized="0"
     inkscape:current-layer="Layer_1" /><g
     id="white_pawn"
     transform="matrix(1,0,0,-1,0,846.6)"><path
       id="top_10_"
       style="fill:#ffffff;stroke:#000000;stroke-width:30.23999977;stroke-miterlimit:10"
       d="m 497.9,240 c 0,53.6 -44,93.9 -98.1,93.9 -54.1,0 -98.1,-40.3 -98.1,-93.9 0,-53.6 44,-93.9 98.1,-93.9 54.2,0.1 98.1,40.4 98.1,93.9 z"
       inkscape:connector-curvature="0" /><path
       id="middle_10_"
       style="fill:#ffffff;stroke:#000000;stroke-width:30.23999977;stroke-miterlimit:10"
       d="m 526.4,337.6 0,55.3 c -30.2,3 -42.8,12.1 -42.8,28 0,56.9 36,123.4 109.1,187.9 l 0,60.9 c 0,17.4 -87.5,30.8 -192.7,30.8 l 0,0 0,0 c -105.2,0 -192.7,-13.4 -192.7,-30.8 l -0.1,-60.6 c 73.1,-64.5 108.1,-131.1 108.1,-188 0,-15.9 -13.6,-25.2 -43.8,-28.2 l 0,-55.3 254.9,0 z"
       inkscape:connector-curvature="0" /><path
       id="middle_3_"
       style="fill:none;stroke:#000000;stroke-width:16.20000076;stroke-miterlimit:10"
       d="m 207.2,608 c 0,17.4 87.5,30.3 192.7,30.3 l 0,0 c 105.2,0 192.6,-12.9 192.6,-30.2"
       inkscape:connector-curvature="0" /><line
       id="line_3_"
       style="fill:none;stroke:#000000;stroke-width:14.03999996;stroke-miterlimit:10"
       x1="272.60001"
       y1="386.70001"
       x2="525.29999"
       y2="386.70001" /></g></svg>