<?xml version="1.0" encoding="UTF-8" standalone="no"?>
<!-- Generator: Adobe Illustrator 16.0.0, SVG Export Plug-In . SVG Version: 6.00 Build 0)  -->

<svg
   xmlns:dc="http://purl.org/dc/elements/1.1/"
   xmlns:cc="http://creativecommons.org/ns#"
   xmlns:rdf="http://www.w3.org/1999/02/22-rdf-syntax-ns#"
   xmlns:svg="http://www.w3.org/2000/svg"
   xmlns="http://www.w3.org/2000/svg"
   xmlns:sodipodi="http://sodipodi.sourceforge.net/DTD/sodipodi-0.dtd"
   xmlns:inkscape="http://www.inkscape.org/namespaces/inkscape"
   version="1.1"
   id="Layer_1"
   x="0px"
   y="0px"
   width="800px"
   height="800px"
   viewBox="0 0 800 800"
   style="enable-background:new 0 0 800 800;"
   xml:space="preserve"
   inkscape:version="0.91 r13725"
   sodipodi:docname="wQ.svg"><metadata
     id="metadata4269"><rdf:RDF><cc:Work
         rdf:about=""><dc:format>image/svg+xml</dc:format><dc:type
           rdf:resource="http://purl.org/dc/dcmitype/StillImage" /><dc:title></dc:title></cc:Work></rdf:RDF></metadata><defs
     id="defs4267" /><sodipodi:namedview
     pagecolor="#ffffff"
     bordercolor="#666666"
     borderopacity="1"
     objecttolerance="10"
     gridtolerance="10"
     guidetolerance="10"
     inkscape:pageopacity="0"
     inkscape:pageshadow="2"
     inkscape:window-width="1920"
     inkscape:window-height="1039"
     id="namedview4265"
     showgrid="false"
     inkscape:zoom="0.295"
     inkscape:cx="400"
     inkscape:cy="400"
     inkscape:window-x="0"
     inkscape:window-y="20"
     inkscape:window-maximized="0"
     inkscape:current-layer="Layer_1" /><g
     id="white_queen"
     transform="matrix(1,0,0,-1,0,801.66)"><path
       id="silhouette"
       style="fill:#ffffff;stroke:#000000;stroke-width:20.52000046;stroke-miterlimit:10"
       d="m 401.1,704.4 c -62,0 -120.5,-5.5 -164.8,-15.4 -49.6,-11.1 -74.1,-25.8 -75,-44.7 l -10.2,-54 0,-0.9 c 0,-5.4 1.6,-13.2 8.6,-21.4 -8,-46.5 -25.9,-125.2 -44.6,-195.5 -18.4,-6.9 -30.8,-24.5 -30.8,-44.6 0,-26.4 21.4,-47.7 47.7,-47.7 26.3,0 47.7,21.4 47.7,47.7 0,11.1 -3.7,21.5 -10.6,29.9 21.1,67.1 46.9,136.7 64.9,175.2 l 5.3,-1.3 c -0.5,-55.3 -9.1,-164.3 -20.6,-261.6 -18.6,-8 -31,-26.6 -31,-47.1 0,-28.3 23,-51.3 51.3,-51.3 28.3,0 51.3,23 51.3,51.3 0,13.8 -5.4,26.7 -15,36.3 17.9,93.5 47.7,211.6 65.3,258.9 l 5.4,-0.3 c 8.6,-66 19.4,-184.5 24.6,-294.5 -14.9,-10 -23.8,-26.6 -23.8,-44.6 0,-29.8 24.2,-54 54,-54 29.8,0 54,24.2 54,54 0,18 -8.9,34.6 -23.5,44.6 5.2,110.1 16,228.5 24.6,294.5 l 5.4,0.3 c 17.6,-47.3 47.4,-165.3 65.3,-258.9 -9.6,-9.6 -15,-22.5 -15,-36.3 0,-28.3 23,-51.3 51.3,-51.3 28.3,0 51.3,23 51.3,51.3 0,20.6 -12.4,39.1 -31,47.1 -11.6,97.3 -20.2,206.3 -20.6,261.6 l 5.3,1.3 c 18,-38.4 43.8,-108.1 64.9,-175.2 -6.9,-8.4 -10.6,-18.9 -10.6,-29.9 0,-26.4 21.4,-47.7 47.7,-47.7 26.3,0 47.7,21.4 47.7,47.7 0,20.1 -12.4,37.7 -30.8,44.6 -18.7,70.3 -36.5,148.9 -44.6,195.5 5.7,6.7 8.6,13.8 8.6,21.3 l 0,0.9 -10.3,54.3 c -1.2,18.9 -25.7,33.5 -75,44.6 -43.8,9.8 -102.3,15.3 -164.4,15.3 z M 211.7,613.7 c 1.4,3 13.7,12.4 54.6,20.3 36.5,7 84.2,11 134.6,11 50.3,0 98.2,-3.9 134.6,-11 40.9,-8 53.4,-17.3 54.6,-20.3 -1.4,-3 -13.7,-12.4 -54.6,-20.3 -36.5,-7 -84.2,-11 -134.6,-11 -50.3,0 -98.2,3.9 -134.6,11 -40.8,7.9 -53.1,17.3 -54.6,20.3 z"
       inkscape:connector-curvature="0" /><path
       id="back"
       style="fill:#ffffff;stroke:#000000;stroke-width:16.20000076;stroke-miterlimit:10"
       d="m 592.9,607.6 c -41.8,13.8 -112.3,23.2 -191.8,23.2 -80.4,0 -148.9,-9.5 -190.6,-23.5 -13.5,3.5 -39.5,21.1 -39.5,35.7 0,28.5 103,51.6 230,51.6 127,0 230,-23.1 230,-51.6 0.1,-14.2 -24.4,-31.7 -38.1,-35.4 z"
       inkscape:connector-curvature="0" /><path
       id="front"
       style="fill:#ffffff;stroke:#000000;stroke-width:17.28000069;stroke-miterlimit:10"
       d="m 401.1,591.4 c 127.1,0 230.1,23.1 230.1,51.6 l 10.2,-60.3 c 0,-6.3 -3.2,-12.3 -9.4,-18.1 7.5,-44.9 26.1,-121.9 47,-199.9 16.6,-4 29.1,-19 29.1,-36.9 0,-21 -17,-38 -38,-38 -21.1,0 -38,17 -38,38 0,10.8 4.5,20.6 11.8,27.5 -20.8,67 -50.1,141.4 -70.4,182.4 l -20.4,-4.9 c -0.3,-54.2 9.2,-167.8 21.5,-269.9 17.4,-5 30.2,-21 30.2,-40 0,-23 -18.6,-41.6 -41.6,-41.6 -23,0 -41.7,18.7 -41.7,41.7 0,13.3 6.3,25.1 15.9,32.7 -18,95.8 -51.2,221.4 -69.4,266.1 l -20.4,-1.3 c -9.1,-66.5 -20.8,-188.6 -26,-302.6 14.1,-7.5 23.8,-22.1 23.8,-39.2 0,-24.4 -19.9,-44.3 -44.3,-44.3 -24.4,0 -44.3,19.9 -44.3,44.3 0,17.1 9.6,31.9 23.8,39.2 -5.1,114 -16.8,236.1 -26,302.6 l -20.4,1.3 c -18.1,-44.7 -51.4,-170.3 -69.4,-266.1 9.7,-7.6 15.9,-19.4 15.9,-32.7 0,-23 -18.6,-41.6 -41.6,-41.6 -23,0 -41.8,18.6 -41.8,41.6 0,19 12.7,35 30.2,40 12.3,102 21.8,215.5 21.5,269.8 l -20.4,4.9 c -20.3,-41.1 -49.7,-115.5 -70.4,-182.4 7.2,-6.9 11.8,-16.6 11.8,-27.5 0,-21 -17,-38 -38,-38 -21.1,0 -38,17 -38,38 0,17.9 12.4,32.9 29.1,36.9 20.8,78 39.5,155 47,199.9 -6,5.7 -9.4,11.8 -9.4,18.1 l 10.2,60.3 c 0,-28.5 103.1,-51.6 230.2,-51.6 z"
       inkscape:connector-curvature="0" /><g
       id="pearls_2_"><circle
         cx="401.10001"
         cy="112.9"
         r="25.9"
         id="circle4255" /><circle
         cx="226.10001"
         cy="164.8"
         r="23"
         id="circle4257" /><circle
         cx="114.9"
         cy="273.79999"
         r="22.4"
         id="circle4259" /><circle
         cx="576"
         cy="164.8"
         r="23"
         id="circle4261" /><circle
         cx="688.40002"
         cy="273.79999"
         r="22.4"
         id="circle4263" /></g></g></svg>