<?xml version="1.0" encoding="UTF-8" standalone="no"?>
<!-- Generator: Adobe Illustrator 16.0.0, SVG Export Plug-In . SVG Version: 6.00 Build 0)  -->

<svg
   xmlns:dc="http://purl.org/dc/elements/1.1/"
   xmlns:cc="http://creativecommons.org/ns#"
   xmlns:rdf="http://www.w3.org/1999/02/22-rdf-syntax-ns#"
   xmlns:svg="http://www.w3.org/2000/svg"
   xmlns="http://www.w3.org/2000/svg"
   xmlns:sodipodi="http://sodipodi.sourceforge.net/DTD/sodipodi-0.dtd"
   xmlns:inkscape="http://www.inkscape.org/namespaces/inkscape"
   version="1.1"
   id="Layer_1"
   x="0px"
   y="0px"
   width="800px"
   height="800px"
   viewBox="0 0 800 800"
   style="enable-background:new 0 0 800 800;"
   xml:space="preserve"
   inkscape:version="0.91 r13725"
   sodipodi:docname="wR.svg"><metadata
     id="metadata4247"><rdf:RDF><cc:Work
         rdf:about=""><dc:format>image/svg+xml</dc:format><dc:type
           rdf:resource="http://purl.org/dc/dcmitype/StillImage" /><dc:title></dc:title></cc:Work></rdf:RDF></metadata><defs
     id="defs4245" /><sodipodi:namedview
     pagecolor="#ffffff"
     bordercolor="#666666"
     borderopacity="1"
     objecttolerance="10"
     gridtolerance="10"
     guidetolerance="10"
     inkscape:pageopacity="0"
     inkscape:pageshadow="2"
     inkscape:window-width="1920"
     inkscape:window-height="1039"
     id="namedview4243"
     showgrid="false"
     inkscape:zoom="1.07625"
     inkscape:cx="400"
     inkscape:cy="400"
     inkscape:window-x="0"
     inkscape:window-y="20"
     inkscape:window-maximized="0"
     inkscape:current-layer="Layer_1" /><g
     id="white_rook"
     transform="matrix(1,0,0,-1,0,853.7)"><g
       id="silhouette_3_"><path
         style="fill:#ffffff"
         d="m 400.4,708.3 c -57.1,0 -110.8,-5.8 -151.2,-16.5 -45.5,-12 -68.5,-28.4 -68.5,-48.6 l 0,-61.2 c 0,-28.4 44.1,-46.2 74.7,-55.3 l 8.1,-172.4 c -3.2,-2.6 -5.6,-5.3 -7.3,-8.1 L 256,345.9 231.3,293.1 C 212,283.6 212,274.1 212,270.9 l 0,-125.6 74.5,0 0,50.8 43.2,0 0,-50.3 137.2,0.1 0,50.2 43.1,0 0,-50.8 75.6,0 0,125.4 c 0,7.8 -4.2,14.5 -13,19.9 l -24,55.4 -0.4,0.8 c -2.1,3.1 -5,6 -8.5,8.6 l 7.6,170.9 c 21.1,6 38.8,13.5 51.5,21.6 16.5,10.5 24.8,21.9 24.8,34.1 0,0.8 0,1.6 -0.1,2.5 l -0.1,58.6 c 0,20.2 -23.4,36.6 -69.6,48.6 -40.9,10.7 -95.5,16.6 -153.4,16.6 z"
         id="path4233"
         inkscape:connector-curvature="0" /><path
         d="m 576,155 0,115.7 c 0,4.5 -3.2,9 -10.9,13.1 l -24.9,57.7 c -2.2,3.2 -5.6,6.2 -10.4,9 L 538,534 c 47.2,12.5 76,30.8 76,48.2 0,0.6 0,1.3 -0.1,1.9 l -0.1,59.3 c 0,30.6 -95,55.4 -213.3,55.4 -116.6,0 -210,-24.7 -210,-55.4 l 0,-61.2 0,0 c 0,-17.2 28.2,-35.3 74.4,-47.8 l 8.6,-184.7 c -4.1,-2.6 -7.2,-5.3 -8.9,-8.1 l -26,-55.7 c -10.4,-4.5 -16.8,-9.6 -16.8,-15 l 0,-115.9 55.2,0 0,50.8 62.6,0 0,-50.3 117.7,0.1 0,50.2 62.7,0 0,-50.8 56,0 m 19.5,-19.4 -19,0 -56.2,0 -19.9,0 0,19.5 0,31.2 -23.8,0 0,-30.8 0,-19.4 -19.4,0 -117.5,-0.1 -19.7,0 0,19.4 0,30.9 -23.8,0 0,-31.2 0,-19.5 -19.5,0 -55.2,0 -19.2,0 0,19.5 0,115.6 c 0,15.4 12.5,24.6 21.6,29.5 l 23.1,49.4 0.3,0.8 0.4,0.8 c 1.5,2.6 3.5,5.1 5.8,7.5 l -7.6,160.8 c -18.7,5.9 -34.2,12.9 -46.2,20.5 -8.3,5.3 -14.9,11.1 -19.5,17.1 -6.2,7.9 -9.3,16.2 -9.3,24.9 l 0,61.3 c 0,18.3 13.9,30.8 25.5,38 12.2,7.7 29.1,14.4 50.2,20 41.1,10.9 95.7,16.8 153.7,16.8 58.8,0 114,-5.9 155.8,-16.8 21.4,-5.6 38.6,-12.3 50.9,-19.9 11.9,-7.3 25.9,-19.9 25.9,-38.1 l 0.1,-58.2 c 0.1,-1.1 0.1,-2.1 0.1,-3 0,-8.7 -3.1,-17.3 -9.4,-25.2 -4.8,-6 -11.4,-11.8 -19.9,-17.2 -12.3,-7.8 -28.2,-14.7 -47.3,-20.6 l -7,-159.1 c 2.7,-2.4 5,-5 6.8,-7.8 l 1,-1.4 0.6,-1.6 22.5,-52.1 c 12.3,-8.7 14.9,-18.9 14.9,-26.4 l 0,-115.6 0,-19.5 0.2,0 z"
         id="path4235"
         inkscape:connector-curvature="0" /></g><g
       id="base_2_"><path
         id="bottom"
         style="fill:#ffffff;stroke:#000000;stroke-width:18.36000061;stroke-linecap:round;stroke-miterlimit:10"
         d="m 191,581.6 0,61.6 c 0,30.6 93.1,55.4 209.6,55.4 118.3,0 213.2,-24.8 213.2,-55.4 l -0.3,-61.3"
         inkscape:connector-curvature="0" /><path
         id="top"
         style="fill:#ffffff;stroke:#000000;stroke-width:21.60000038;stroke-miterlimit:10"
         d="m 613.9,582 c 0,30.6 -94.5,55.4 -211.1,55.4 -116.6,0 -211.1,-24.8 -211.1,-55.4 0,-30.6 87.5,-64 211.1,-64 121.6,-0.1 211.1,33.3 211.1,64 z"
         inkscape:connector-curvature="0" /></g><path
       id="middle_7_"
       style="fill:#ffffff;stroke:#000000;stroke-width:15.11999989;stroke-miterlimit:10"
       d="m 275.8,260.9 -10.5,280.6 c 0,19.7 62.1,34.1 136.8,34.1 74.8,0 136.1,-14.4 136.1,-33.9 l -14.9,-280.8 -247.5,0 0,0 z"
       inkscape:connector-curvature="0" /><path
       id="top_bottom_3_"
       style="fill:#ffffff;stroke:#000000;stroke-width:15.11999989;stroke-miterlimit:10"
       d="m 231.3,268.1 33.8,73.1 c 9.5,16.5 61.6,28.5 137.6,28.5 76,0 126.4,-11.7 137.6,-28.5 l 32.8,-73.1"
       inkscape:connector-curvature="0" /><path
       id="top_11_"
       style="fill:#ffffff;stroke:#000000;stroke-width:19.44000053;stroke-linecap:square;stroke-miterlimit:10"
       d="m 522,154 0,50.8 -63.7,0 0,-49.1 -116.6,-0.1 0,49.2 -63.7,0 0,-50.8 -55.1,0 0,116.7 c 0,20.1 83.1,36.4 178.5,36.4 95.5,0 176.8,-16.3 176.8,-36.4 l 0,-116.7 -56.2,0 z"
       inkscape:connector-curvature="0" /></g></svg>