<?xml version="1.0" encoding="utf-8"?>
<!-- Generator: Adobe Illustrator 16.0.3, SVG Export Plug-In . SVG Version: 6.00 Build 0)  -->
<!DOCTYPE svg PUBLIC "-//W3C//DTD SVG 1.1//EN" "http://www.w3.org/Graphics/SVG/1.1/DTD/svg11.dtd">
<svg version="1.1" id="Layer_1" image-rendering="optimizeQuality" shape-rendering="geometricPrecision"
	 xmlns="http://www.w3.org/2000/svg" xmlns:xlink="http://www.w3.org/1999/xlink" x="0px" y="0px" width="177.17px"
	 height="177.17px" viewBox="0 0 177.17 177.17" enable-background="new 0 0 177.17 177.17" xml:space="preserve">
<path fill="#1F1A17" d="M88.606,36.693c0.812-3.331,1.832-5.641,3.001-6.932c1.169-1.289,2.7-2.639,4.649-4.049
	c2.101-1.471,4.588-2.701,7.469-3.721c2.881-1.021,6.06-1.29,9.571-0.752l24.69,3.42c1.021,0.12,1.889,0.12,2.7,0
	c0.779-0.121,1.53-0.182,2.25-0.182c1.229,0,2.788-0.269,4.681-0.839c1.92-0.539,3.391-1.351,4.439-2.399l8.519,13.982
	c-1.049,1.17-1.98,1.98-2.789,2.459c-0.84,0.45-1.8,0.961-2.909,1.471c-3.391,1.591-7.019,2.551-10.889,2.909
	c-1.651,0.12-3.271,0.149-4.829,0.089c-1.591-0.061-3.239,0-4.95,0.181c-3.15-0.539-6.329-1.021-9.511-1.438
	c-3.21-0.45-6.421-0.9-9.631-1.383c-3.512,0-5.882,0.361-7.122,1.049c-0.659,0.361-1.68,1.021-3.09,1.949
	c-1.41,0.929-2.82,2.311-4.231,4.139c3.122,0.33,6.272,0.929,9.511,1.801c3.21,0.84,6.06,1.739,8.519,2.672l-9.149,22.681
	c4.589,2.64,7.771,4.741,9.6,6.36c1.8,1.619,3.238,3.479,4.291,5.581c1.53,2.7,2.52,5.312,2.94,7.832
	c0.45,2.52,0.631,4.769,0.571,6.778c-0.061,3.511-0.868,7.381-2.491,11.64c-1.619,4.23-4.649,8.04-9.089,11.37
	c-3.688,2.821-7.321,5.73-10.832,8.699c-3.512,3.002-6.991,6.48-10.439,10.471c4.32,2.223,6.481,5.762,6.481,10.619
	c0,3.3-1.142,6.092-3.451,8.463c-2.311,2.338-5.159,3.512-8.49,3.512c-3.271,0-6.091-1.17-8.43-3.512
	c-2.339-2.371-3.512-5.159-3.512-8.463c0-4.801,2.161-8.34,6.481-10.619c-3.392-3.99-6.839-7.469-10.322-10.471
	c-3.479-2.969-7.158-5.878-10.949-8.698c-4.379-3.331-7.381-7.122-8.939-11.371c-1.592-4.259-2.459-8.132-2.552-11.64
	c0-2.01,0.181-4.259,0.599-6.778s1.35-5.131,2.82-7.832c1.17-2.102,2.641-3.962,4.44-5.581c1.771-1.619,4.922-3.721,9.45-6.36
	l-9.148-22.681c2.579-0.933,5.488-1.832,8.698-2.672c3.239-0.872,6.332-1.471,9.33-1.801c-1.351-1.832-2.731-3.21-4.139-4.139
	c-1.411-0.932-2.46-1.591-3.179-1.949c-1.229-0.69-3.6-1.049-7.122-1.049c-3.149,0.482-6.332,0.933-9.539,1.383
	c-3.182,0.418-6.389,0.899-9.631,1.438c-1.56-0.181-3.149-0.241-4.77-0.181c-1.619,0.061-3.271,0.028-4.981-0.089
	c-3.749-0.361-7.381-1.321-10.889-2.909c-1.049-0.51-2.01-1.021-2.85-1.471c-0.868-0.479-1.8-1.289-2.849-2.459l8.61-13.982
	c1.049,1.049,2.52,1.86,4.439,2.399c1.889,0.57,3.42,0.839,4.59,0.839c0.779,0,1.559,0.061,2.338,0.182
	c0.779,0.12,1.68,0.12,2.672,0l24.63-3.42c3.512-0.538,6.778-0.301,9.78,0.691c3.029,0.988,5.521,2.311,7.441,3.961
	c1.92,1.592,3.479,2.941,4.62,4.079c1.142,1.141,2.101,3.391,2.849,6.722"/>
<linearGradient id="SVGID_1_" gradientUnits="userSpaceOnUse" x1="-134.5649" y1="368.2529" x2="-77.9828" y2="367.8839" gradientTransform="matrix(-3.5434 0 0 3.5434 -374.5103 -1225.8511)">
	<stop  offset="0" style="stop-color:#FFFFFF"/>
	<stop  offset="1" style="stop-color:#FFFFFF;stop-opacity:0"/>
</linearGradient>
<path fill="url(#SVGID_1_)" d="M91.831,102.087v-7.47c0-2.162-1.081-3.238-3.239-3.238c-2.162,0-3.239,1.08-3.239,3.238v7.562
	h-7.919c-2.041,0-3.09,1.049-3.09,3.179c0,2.101,1.049,3.149,3.09,3.149h7.919v7.92c0,2.161,1.081,3.238,3.239,3.238
	c2.162,0,3.239-1.08,3.239-3.238v-7.92h7.738c2.069,0,3.09-1.049,3.09-3.149c0-2.13-1.021-3.179-3.09-3.179l-7.738-0.089
	 M65.22,53.4l3.689,8.969c5.971,1.289,12.539,1.92,19.68,1.92c7.079,0,13.589-0.631,19.499-1.92l3.688-8.881
	c-7.261,1.829-14.999,2.729-23.191,2.729c-8.1,0-15.871-0.928-23.372-2.82 M72.594,71.517l2.552,6.151v2.37
	C79.585,80.669,84.085,81,88.585,81c4.38,0,8.852-0.33,13.352-0.961l0.089-2.37l2.37-6.151c-4.979,0.872-10.229,1.322-15.811,1.322
	C82.944,72.839,77.636,72.389,72.594,71.517 M75.655,38.277c2.339,1.768,4.709,4.561,7.051,8.369h2.789
	c0-2.881-0.658-5.67-2.009-8.369H75.655 M93.776,38.277c-1.351,2.881-2.041,5.67-2.041,8.369h2.82
	c2.278-3.749,4.648-6.541,7.157-8.369h-7.919"/>
</svg>
