<?xml version="1.0" encoding="utf-8"?>
<!-- Generator: Adobe Illustrator 16.0.3, SVG Export Plug-In . SVG Version: 6.00 Build 0)  -->
<!DOCTYPE svg PUBLIC "-//W3C//DTD SVG 1.1//EN" "http://www.w3.org/Graphics/SVG/1.1/DTD/svg11.dtd">
<svg version="1.1" id="Layer_1" image-rendering="optimizeQuality" shape-rendering="geometricPrecision"
	 xmlns="http://www.w3.org/2000/svg" xmlns:xlink="http://www.w3.org/1999/xlink" x="0px" y="0px" width="177.17px"
	 height="177.17px" viewBox="0 0 177.17 177.17" enable-background="new 0 0 177.17 177.17" xml:space="preserve">
<path fill="#1F1A17" d="M83.259,148.146c-9.209-0.599-17.717-2.969-25.59-7.157c-7.831-4.139-14.521-9.479-20.041-15.991
	c-3.87-4.561-7.502-10.081-10.922-16.53c-3.451-6.42-6.18-13.259-8.221-20.459c-2.338-8.401-3.84-17.189-4.439-26.43
	c-0.631-9.21-0.932-17.753-0.932-25.619V16.817c0,0,4.561,0,13.681,0c9.089,0,20.909,0,35.47,0h58.951
	c0.539,0,0.779,1.438,0.751,4.291c-0.028,2.881-0.209,5.19-0.57,6.959c-0.209,1.41-0.779,3.392-1.651,5.971
	c-0.899,2.579-2.339,5.701-4.411,9.39c-0.929,1.889-3.15,4.621-6.662,8.221c-3.539,3.601-7.562,7.799-12.15,12.541
	c-2.64,2.699-4.681,6.091-6.18,10.201c-1.498,4.078-2.129,7.799-1.888,11.162c2.162-1.772,4.532-3.211,7.123-4.32
	c12.419-4.439,21.438-10.889,26.969-19.318c0.421-0.539,1.739-2.909,3.961-7.158c1.17-2.221,2.19-3.748,3.002-4.56
	c1.108-1.109,2.731-1.74,4.829-1.86c3.271-0.148,5.822,1.41,7.65,4.77c2.459-0.72,4.648-1.021,6.602-0.9
	c3.271,1.229,5.641,2.551,7.122,3.961c3.001,3.002,4.922,5.971,5.85,8.973c0.9,3.001,1.351,6.211,1.351,9.659
	c0,4.922-3.029,11.431-9.148,19.532c-7.158,9.301-10.949,16.409-11.399,21.26c0,2.102-0.21,4.473-0.631,7.123
	c-0.361,1.832-1.081,3.578-2.19,5.279c-0.779,1.169-1.289,1.98-1.53,2.398c-0.269,0.45-0.751,1.109-1.47,1.98
	c-0.511,0.72-0.961,1.262-1.322,1.619c-0.33,0.391-0.779,0.9-1.322,1.56c-0.631,0.751-1.438,1.62-2.459,2.64
	c3.119,8.551,4.38,17.37,3.781,26.431c-11.641-4.139-21.438-10.665-29.34-19.591c-1.949,6.629-5.762,12-11.431,16.079
	c-4.681-3.271-8.401-7.622-11.161-12.989"/>
<linearGradient id="SVGID_1_" gradientUnits="userSpaceOnUse" x1="-134.4663" y1="370.5264" x2="-78.0801" y2="370.6494" gradientTransform="matrix(-3.5434 0 0 3.5434 -375.6744 -1230.4995)">
	<stop  offset="0" style="stop-color:#FFFFFF"/>
	<stop  offset="1" style="stop-color:#FFFFFF;stop-opacity:0"/>
</linearGradient>
<path fill="url(#SVGID_1_)" d="M120.437,118.413c-1.289,0.659-1.92,0.988-1.92,0.988c-1.769,0.691-2.311,1.98-1.68,3.869
	c0.69,1.74,2.041,2.34,4.05,1.74c6.899-2.52,11.672-7.158,14.315-13.891c0.418-1.92-0.27-3.238-2.102-3.961
	c-1.828-0.57-3.062,0.061-3.688,1.949c-0.481,0.988-0.812,1.651-1.049,1.921c-0.659-0.511-1.499-0.868-2.552-1.049
	c-3.579-0.571-5.669,0.988-6.24,4.74c-0.18,1.29,0.121,2.52,0.873,3.688 M135.024,59.007c-0.209,0.539-0.599,1.322-1.141,2.371
	c-0.989,2.459-1.471,3.93-1.471,4.412c0.089,1.619,0.96,2.459,2.551,2.459c1.17,0,2.52-1.68,4.11-5.011
	c0.241-0.481,0.6-0.899,1.049-1.229c1.592-1.651,1.351-3.029-0.69-4.139c-1.889-1.109-3.331-0.751-4.412,1.141 M83.181,91.622
	c-4.109,5.399-6.119,11.398-6.059,18c0.24,1.949,1.35,2.909,3.33,2.909c2.701,0,3.75-0.988,3.183-2.97
	c-0.181-3.238,0.12-5.91,0.96-8.011c1.351-3.331,2.849-5.818,4.469-7.47c0.899-1.771,0.361-3.062-1.591-3.869
	C85.612,89.344,84.173,89.79,83.181,91.622 M106.132,134.532c0.269,2.102,0.209,4.379-0.181,6.838
	c3.511-0.69,6.811-2.338,9.929-4.921c1.86-0.989,2.311-2.37,1.321-4.14c-0.988-1.799-2.37-2.101-4.139-0.871
	c-1.229,0.659-2.37,1.262-3.391,1.801c-1.021,0.57-2.19,0.988-3.54,1.289 M23.747,23.074c0.061,0,0,1.592-0.148,4.77
	c-0.464,11.01-0.336,22.044-0.27,33.061c0.061,7.831,1.109,15.63,3.15,23.433c2.977,11.729,7.526,22.979,14.429,32.94
	c9.333,13.624,24.146,21.366,39.991,24.719c-0.447-2.715-0.117-5.457-0.27-8.189c-5.67-1.92-11.041-4.319-16.08-7.2
	c-15.027-9.05-22.727-25.778-25.502-42.273c-4.507-21.806-1.605-40.951-2.881-61.262h-12.42 M142.583,74.642
	c-1.68,1.201-1.86,2.579-0.511,4.23c1.411,1.35,2.941,1.471,4.648,0.361c3.579-2.339,5.489-5.429,5.73-9.241
	c-0.061-1.921-1.229-2.849-3.451-2.731c-2.102,0.18-3.122,1.261-3.062,3.27c-0.479,1.861-1.592,3.239-3.359,4.111"/>
</svg>
