<?xml version="1.0" encoding="utf-8"?>
<!-- Generator: Adobe Illustrator 16.0.3, SVG Export Plug-In . SVG Version: 6.00 Build 0)  -->
<!DOCTYPE svg PUBLIC "-//W3C//DTD SVG 1.1//EN" "http://www.w3.org/Graphics/SVG/1.1/DTD/svg11.dtd">
<svg version="1.1" id="Layer_1" image-rendering="optimizeQuality" shape-rendering="geometricPrecision"
	 xmlns="http://www.w3.org/2000/svg" xmlns:xlink="http://www.w3.org/1999/xlink" x="0px" y="0px" width="177.17px"
	 height="177.17px" viewBox="0 0 177.17 177.17" enable-background="new 0 0 177.17 177.17" xml:space="preserve">
<path fill="#1F1A17" d="M88.454,24.582h47.46c2.339,5.693,3.512,11.649,3.512,17.871c0,10.538-3.062,20.001-9.209,28.408
	c-6.151,8.381-14.071,14.367-23.73,17.957c4.139,1.869,7.529,4.701,10.141,8.498c2.612,3.797,3.901,8.087,3.901,12.877
	c0,5.986-2.041,11.184-6.15,15.563c-4.083,4.406-9.121,6.966-15.12,7.621c4.77,3.482,7.157,8.087,7.157,13.78
	c0,4.79-1.739,8.904-5.251,12.321c-3.479,3.418-7.71,5.111-12.689,5.111c-4.921,0-9.149-1.693-12.66-5.11
	c-3.512-3.418-5.28-7.532-5.28-12.322c0-5.693,2.37-10.308,7.157-13.78c-5.998-0.673-11.041-3.211-15.119-7.621
	c-4.11-4.38-6.151-9.577-6.151-15.563c0-4.79,1.321-9.08,3.989-12.877s6.06-6.629,10.142-8.498
	c-9.659-3.59-17.579-9.576-23.729-17.957c-6.152-8.407-9.21-17.87-9.21-28.408c0-6.16,1.142-12.119,3.419-17.871h47.461"/>
</svg>
