<?xml version="1.0" encoding="utf-8"?>
<!-- Generator: Adobe Illustrator 16.0.3, SVG Export Plug-In . SVG Version: 6.00 Build 0)  -->
<!DOCTYPE svg PUBLIC "-//W3C//DTD SVG 1.1//EN" "http://www.w3.org/Graphics/SVG/1.1/DTD/svg11.dtd">
<svg version="1.1" id="Layer_1" image-rendering="optimizeQuality" shape-rendering="geometricPrecision"
	 xmlns="http://www.w3.org/2000/svg" xmlns:xlink="http://www.w3.org/1999/xlink" x="0px" y="0px" width="177.17px"
	 height="177.17px" viewBox="0 0 177.17 177.17" enable-background="new 0 0 177.17 177.17" xml:space="preserve">
<g>
	<path fill="#1F1A17" d="M88.588,140.577c3.331,0,6.18,1.17,8.491,3.512c2.31,2.339,3.451,5.191,3.451,8.521
		c0,3.299-1.142,6.12-3.451,8.463c-2.311,2.338-5.16,3.511-8.491,3.511c-3.271,0-6.12-1.169-8.489-3.511
		c-2.371-2.339-3.541-5.159-3.541-8.462c0-3.331,1.17-6.181,3.541-8.522C82.468,141.751,85.318,140.577,88.588,140.577"/>
	<path fill="#1F1A17" d="M34.442,22.972c2.88-2.52,9.329-4.621,19.351-6.328c10.021-1.68,21.568-2.552,34.619-2.552
		c13.291,0,24.98,0.9,35.072,2.64c10.081,1.769,16.441,3.962,19.081,6.602l-5.549,21.09l2.459,13.803l7.739,13.439l7.47,54.661
		l-4.291,1.679l-24.092-40.589l-0.538,48.333l-5.971,1.049L101.43,88.196l-9.84,52.29h-6.091l-9.84-52.113l-18.181,48.421
		l-6.061-1.049l-0.538-48.333l-24.181,40.682l-4.109-1.921l7.289-54.423l7.83-13.44l2.459-13.982l-5.729-21.366"/>
	<path fill="#1F1A17" d="M125.489,136.194c3.359,0,6.212,1.141,8.551,3.451c2.338,2.311,3.512,5.16,3.512,8.49
		c0,3.271-1.17,6.092-3.512,8.43c-2.339,2.339-5.191,3.512-8.551,3.512c-3.271,0-6.091-1.17-8.43-3.512
		c-2.338-2.338-3.512-5.159-3.512-8.43c0-3.33,1.17-6.18,3.512-8.49C119.398,137.335,122.219,136.194,125.489,136.194"/>
	<path fill="#1F1A17" d="M51.699,136.194c3.33,0,6.15,1.142,8.461,3.451c2.311,2.311,3.479,5.16,3.479,8.49
		c0,3.271-1.169,6.092-3.479,8.43c-2.311,2.339-5.131,3.512-8.461,3.512c-3.359,0-6.213-1.169-8.551-3.512
		c-2.339-2.338-3.512-5.159-3.512-8.43c0-3.33,1.17-6.18,3.512-8.49C45.486,137.336,48.339,136.194,51.699,136.194"/>
	<path fill="#1F1A17" d="M157.858,126.507c3.33,0,6.151,1.17,8.461,3.479c2.311,2.311,3.48,5.131,3.48,8.49
		c0,3.271-1.17,6.091-3.48,8.462c-2.31,2.398-5.131,3.578-8.461,3.578c-3.359,0-6.18-1.169-8.551-3.578
		c-2.338-2.371-3.512-5.191-3.512-8.462c0-3.359,1.17-6.18,3.512-8.49C151.679,127.677,154.499,126.507,157.858,126.507"/>
	<path fill="#1F1A17" d="M19.166,126.507c3.332,0,6.18,1.17,8.522,3.479c2.339,2.311,3.512,5.131,3.512,8.49
		c0,3.271-1.169,6.091-3.512,8.462c-2.339,2.398-5.19,3.579-8.522,3.579c-3.299,0-6.119-1.17-8.461-3.579
		c-2.339-2.371-3.512-5.191-3.512-8.462c0-3.359,1.17-6.18,3.512-8.49C13.042,127.677,15.864,126.507,19.166,126.507"/>
</g>
<linearGradient id="SVGID_1_" gradientUnits="userSpaceOnUse" x1="-134.4434" y1="362.0859" x2="-77.9364" y2="361.9459" gradientTransform="matrix(-3.5434 0 0 3.5434 -374.7095 -1233.2573)">
	<stop  offset="0" style="stop-color:#FFFFFF"/>
	<stop  offset="1" style="stop-color:#FFFFFF;stop-opacity:0"/>
</linearGradient>
<path fill="url(#SVGID_1_)" d="M45.178,52.074c10.772,2.97,25.141,4.473,43.052,4.473c18.061,0,32.581-1.531,43.591-4.561
	l-1.322-8.88c-11.069,2.881-25.14,4.319-42.272,4.319c-17.04,0-30.931-1.41-41.642-4.23l-1.41,8.879 M39.023,67.796
	c4.861,1.771,11.701,3.21,20.52,4.352c8.82,1.141,18.539,1.711,29.22,1.711c10.438,0,19.981-0.539,28.666-1.619
	c8.671-1.081,15.51-2.491,20.491-4.26L133.508,60c-4.922,1.438-11.311,2.491-19.17,3.15c-7.831,0.631-16.409,0.96-25.739,0.96
	c-9.33,0-17.94-0.329-25.832-0.96c-7.919-0.659-14.34-1.739-19.262-3.239l-4.468,7.892 M42.907,25.803l2.612,10.379
	c11.43,2.611,25.799,3.93,43.08,3.93c17.1,0,31.412-1.321,42.911-3.93l2.788-10.471c-11.13,3.391-26.37,5.099-45.78,5.099
	c-9.301,0-17.972-0.482-25.92-1.41c-7.979-0.928-14.549-2.129-19.68-3.6"/>
</svg>
