<?xml version="1.0" encoding="utf-8"?>
<!-- Generator: Adobe Illustrator 16.0.3, SVG Export Plug-In . SVG Version: 6.00 Build 0)  -->
<!DOCTYPE svg PUBLIC "-//W3C//DTD SVG 1.1//EN" "http://www.w3.org/Graphics/SVG/1.1/DTD/svg11.dtd">
<svg version="1.1" id="Layer_1" image-rendering="optimizeQuality" shape-rendering="geometricPrecision"
	 xmlns="http://www.w3.org/2000/svg" xmlns:xlink="http://www.w3.org/1999/xlink" x="0px" y="0px" width="177.17px"
	 height="177.17px" viewBox="0 0 177.17 177.17" enable-background="new 0 0 177.17 177.17" xml:space="preserve">
<path fill="#1F1A17" d="M76.505,152.562H61.566v12.029h-24.08v-32.936l19.488-15.035V74.606L42.021,59.65V41.649H28.595V20.64
	h119.976v21.009h-13.444V59.65l-15.045,14.956v42.014l19.517,15.035v32.936h-24.002v-12.029h-15.031v12.029h-24.06V152.562z"/>
<linearGradient id="SVGID_1_" gradientUnits="userSpaceOnUse" x1="-134.5283" y1="370.6143" x2="-77.9783" y2="370.7372" gradientTransform="matrix(-3.5434 0 0 3.5434 -374.5338 -1226.7026)">
	<stop  offset="0" style="stop-color:#FFFFFF"/>
	<stop  offset="1" style="stop-color:#FFFFFF;stop-opacity:0"/>
</linearGradient>
<path fill="url(#SVGID_1_)" d="M88.546,61.07h36.391l4.05-3.78v-5.099H48.105v5.099l4.051,3.78H88.546 M128.986,43.07v-8.973H48.105
	v8.973H128.986 M88.546,139.024h45.002v-4.049l-6.422-4.83H49.874l-6.24,4.83v4.05L88.546,139.024 M88.546,124.175h30.75
	l-5.252-4.139v-5.011h-51v5.011l-5.252,4.139h30.75 M88.542,76.172h25.501v-4.05l5.252-5.1H57.792l5.252,5.1v4.05h25.501"/>
</svg>
