<?xml version="1.0" encoding="utf-8"?>
<!-- Generator: Adobe Illustrator 16.0.3, SVG Export Plug-In . SVG Version: 6.00 Build 0)  -->
<!DOCTYPE svg PUBLIC "-//W3C//DTD SVG 1.1//EN" "http://www.w3.org/Graphics/SVG/1.1/DTD/svg11.dtd">
<svg version="1.1" id="Layer_1" image-rendering="optimizeQuality" shape-rendering="geometricPrecision"
	 xmlns="http://www.w3.org/2000/svg" xmlns:xlink="http://www.w3.org/1999/xlink" x="0px" y="0px" width="177.17px"
	 height="177.17px" viewBox="0 0 177.17 177.17" enable-background="new 0 0 177.17 177.17" xml:space="preserve">
<g>
	<path fill="#1F1A17" d="M85.294,136.622h6.239v11.52h7.321c1.98,0,2.969,0.961,2.969,2.91v0.088c0,1.921-0.988,2.881-2.969,2.881
		h-7.321v7.47c0,2.069-1.049,3.09-3.149,3.09c-2.041,0-3.09-1.021-3.09-3.09v-7.47l-7.562,0.001c-1.92,0-2.881-0.961-2.881-2.881
		v-0.089c0-1.949,0.961-2.909,2.881-2.909l7.502-0.089L85.294,136.622"/>
	<path fill="#1F1A17" d="M137.704,45.472l2.881,16.441c0.061,0,0.148,0.12,0.27,0.361c0.301,0.419,1.141,0.96,2.52,1.62
		c1.35,0.69,2.969,1.828,4.769,3.479c2.58,2.162,4.589,3.93,6.031,5.28c1.438,1.321,2.732,2.788,3.901,4.38
		c3.579,4.922,5.581,10.86,5.971,17.858c0.599,6.723-2.13,13.44-8.16,20.131c-6.092,6.661-14.341,9.812-24.69,9.39
		c-3.87-0.241-8.43-1.169-13.621-2.82c-1.712-0.69-3.451-1.382-5.251-2.041c-1.772-0.69-3.54-1.378-5.313-2.069
		c-0.928-0.479-1.771-0.96-2.459-1.41c0.302,1.229,0.45,2.459,0.45,3.688c0,4.561-1.619,8.462-4.89,11.7
		c-3.238,3.211-7.172,4.861-11.732,4.922c-4.56,0-8.462-1.651-11.701-4.891c-3.21-3.238-4.83-7.157-4.83-11.639
		c0-0.929,0.121-2.162,0.362-3.689c-0.812,0.511-1.62,0.961-2.37,1.318c-2.701,1.169-6.24,2.552-10.666,4.11
		c-5.039,1.712-9.57,2.672-13.621,2.909c-10.35,0.481-18.57-2.672-24.602-9.39c-5.91-6.69-8.671-13.412-8.25-20.131
		c0.451-6.991,2.492-12.929,6.061-17.859c1.169-1.591,2.49-3.061,3.961-4.439c1.438-1.382,3.42-3.122,5.882-5.22
		c1.921-1.651,3.579-2.82,4.922-3.479c1.351-0.659,2.13-1.229,2.37-1.619c0.061-0.121,0.121-0.209,0.182-0.27
		c0.06-0.061,0.088-0.12,0.088-0.181l2.82-16.53l-5.821-21.689c2.94-2.639,9.511-4.801,19.681-6.509
		c10.201-1.712,21.99-2.551,35.341-2.551c13.588,0,25.562,0.899,35.852,2.671c10.318,1.801,16.799,4.051,19.438,6.723l-5.789,21.438
		"/>
</g>
<linearGradient id="SVGID_1_" gradientUnits="userSpaceOnUse" x1="-134.3218" y1="369.1758" x2="-78.0564" y2="369.1758" gradientTransform="matrix(-3.5434 0 0 3.5434 -374.9127 -1232.7222)">
	<stop  offset="0" style="stop-color:#FFFFFF"/>
	<stop  offset="1" style="stop-color:#FFFFFF;stop-opacity:0"/>
</linearGradient>
<path fill="url(#SVGID_1_)" d="M85.383,74.571c-10.081-0.121-19.291-0.719-27.66-1.801c-8.401-1.08-14.971-2.459-19.712-4.078
	c-2.222,1.74-4.649,3.689-7.288,5.851c-2.641,2.13-4.83,4.319-6.602,6.541c-2.789,3.579-4.199,8.281-4.199,14.16
	c0,5.251,1.262,9.659,3.781,13.171c4.5,6.569,11.37,9.84,20.551,9.84c5.521,0,11.162-1.141,16.98-3.419
	c5.099-2.069,8.972-4.352,11.58-6.871c4.922-4.922,8.578-11.25,10.92-18.961c0.813-2.76,1.29-5.279,1.439-7.529
	c0.148-2.25,0.209-4.561,0.209-6.898 M132.332,50.844c-11.13,2.82-25.892,4.23-44.31,4.23c-18.032,0-32.61-1.35-43.68-4.05
	l-2.19,12.93c11.789,3.09,27.182,4.649,46.242,4.649c19.17,0,34.53-1.592,46.135-4.741L132.34,50.84 M42.699,35.21l2.611,10.081
	c11.611,2.58,25.98,3.869,43.081,3.869c17.04,0,31.379-1.289,42.992-3.869l2.788-10.17c-11.189,3.271-26.462,4.922-45.869,4.922
	c-19.291,0-34.47-1.619-45.6-4.829 M40.393,26.933c11.311,4.561,27.209,6.87,47.641,6.87c21.21,0,37.262-2.338,48.183-7.051
	c-10.322-4.078-26.281-6.151-47.91-6.151c-10.321,0-19.712,0.57-28.202,1.712C51.586,23.454,45.045,25.012,40.393,26.933
	 M91.484,74.575c0.028,2.277,0.12,4.561,0.24,6.811c0.121,2.25,0.571,4.769,1.318,7.529c2.399,7.831,6.031,14.16,10.921,18.96
	c2.52,2.46,6.36,4.77,11.58,6.871c5.971,2.339,11.64,3.511,16.979,3.511c9.241,0,16.112-3.299,20.552-9.928
	c2.52-3.512,3.781-7.92,3.781-13.172c0-5.76-1.41-10.47-4.199-14.159c-1.711-2.162-3.869-4.352-6.509-6.51
	c-2.641-2.161-5.1-4.139-7.381-5.882c-10.262,3.688-26.013,5.67-47.28,5.971 M88.398,90.928c-0.422,1.65-0.751,2.788-1.048,3.419
	c-0.6,2.278-1.262,4.23-2.041,5.822c-0.33,0.988-0.84,2.129-1.531,3.451c-0.659,1.321-1.379,2.849-2.162,4.531
	c-0.449,0.989-0.959,2.222-1.47,3.661c-0.538,1.438-1.081,2.849-1.591,4.259c-0.479,1.169-0.72,2.431-0.72,3.781
	c0,2.88,1.049,5.312,3.09,7.32c2.041,2.041,4.532,3.061,7.47,3.061c6.959,0,10.471-3.511,10.471-10.47
	c0-1.351-0.241-2.611-0.72-3.781c-1.29-3.809-2.278-6.448-2.97-7.919c-0.779-1.68-1.47-3.211-2.129-4.532
	c-0.631-1.318-1.201-2.459-1.651-3.451c-0.779-1.949-1.41-3.869-1.949-5.822C89.326,93.929,88.997,92.787,88.398,90.928"/>
</svg>
