<?xml version="1.0" encoding="utf-8"?>
<!-- Generator: Adobe Illustrator 16.0.3, SVG Export Plug-In . SVG Version: 6.00 Build 0)  -->
<!DOCTYPE svg PUBLIC "-//W3C//DTD SVG 1.1//EN" "http://www.w3.org/Graphics/SVG/1.1/DTD/svg11.dtd">
<svg version="1.1" id="Layer_1" image-rendering="optimizeQuality" shape-rendering="geometricPrecision"
	 xmlns="http://www.w3.org/2000/svg" xmlns:xlink="http://www.w3.org/1999/xlink" x="0px" y="0px" width="177.17px"
	 height="177.17px" viewBox="0 0 177.17 177.17" enable-background="new 0 0 177.17 177.17" xml:space="preserve">
<path fill="#1F1A17" d="M88.454,24.588h47.46c2.339,5.694,3.512,11.65,3.512,17.858c0,10.542-3.062,19.999-9.209,28.419
	c-6.151,8.379-14.071,14.364-23.73,17.957c4.139,1.867,7.529,4.702,10.141,8.498c2.612,3.795,3.901,8.089,3.901,12.876
	c0,5.985-2.041,11.184-6.15,15.563c-4.083,4.408-9.121,6.949-15.12,7.622c4.77,3.476,7.157,8.086,7.157,13.78
	c0,4.787-1.739,8.904-5.251,12.32c-3.479,3.416-7.71,5.109-12.689,5.109c-4.921,0-9.149-1.693-12.66-5.109
	c-3.512-3.416-5.28-7.533-5.28-12.32c0-5.694,2.37-10.308,7.157-13.78c-5.998-0.673-11.041-3.21-15.119-7.622
	c-4.11-4.379-6.151-9.577-6.151-15.563c0-4.787,1.321-9.081,3.989-12.876c2.668-3.796,6.06-6.627,10.142-8.498
	c-9.659-3.593-17.579-9.578-23.729-17.957c-6.152-8.409-9.21-17.859-9.21-28.419c0-6.161,1.142-12.118,3.419-17.858h47.461"/>
<linearGradient id="SVGID_1_" gradientUnits="userSpaceOnUse" x1="-134.5449" y1="369.9355" x2="-77.9149" y2="369.8166" gradientTransform="matrix(-3.5434 0 0 3.4486 -374.6627 -1181.1633)">
	<stop  offset="0" style="stop-color:#FFFFFF"/>
	<stop  offset="1" style="stop-color:#FFFFFF;stop-opacity:0"/>
</linearGradient>
<path fill="url(#SVGID_1_)" d="M88.454,30.406H45.313c-1.23,4.089-1.86,8.117-1.86,12.059c0,8.904,2.519,16.962,7.59,24.204
	c5.07,7.243,11.612,12.587,19.56,16.003c5.613,2.196,5.822,2.334,5.822,6.161c0,3.009-1.981,5.227-5.911,6.658
	c-5.429,3.71-8.16,8.614-8.16,14.716c0,4.408,1.53,8.235,4.56,11.563c3.063,3.299,6.751,5.198,11.07,5.723
	c3.539,0.29,5.279,2.218,5.279,5.811c0,1.605-0.631,3.094-1.92,4.468c-3.182,2.396-4.77,5.518-4.77,9.401
	c0,3.182,1.201,5.928,3.539,8.206c2.34,2.279,5.131,3.416,8.342,3.416c3.33,0,6.18-1.137,8.49-3.416
	c2.311-2.278,3.451-5.021,3.451-8.206c0-3.823-1.56-6.948-4.741-9.401c-1.29-1.254-1.921-2.746-1.921-4.468
	c0-3.593,1.712-5.517,5.191-5.811c4.38-0.524,8.1-2.424,11.102-5.723c3.029-3.327,4.531-7.158,4.531-11.563
	c0-6.102-2.728-11.006-8.16-14.716c-3.93-1.46-5.91-3.706-5.91-6.658c0-3.823,0.237-3.962,5.91-6.161
	c7.951-3.416,14.461-8.76,19.499-16.003c5.039-7.242,7.563-15.3,7.563-24.204c0-4.234-0.631-8.235-1.86-12.059H88.458"/>
</svg>
