<?xml version="1.0" encoding="utf-8"?>
<!-- Generator: Adobe Illustrator 16.0.3, SVG Export Plug-In . SVG Version: 6.00 Build 0)  -->
<!DOCTYPE svg PUBLIC "-//W3C//DTD SVG 1.1//EN" "http://www.w3.org/Graphics/SVG/1.1/DTD/svg11.dtd">
<svg version="1.1" id="Layer_1" image-rendering="optimizeQuality" shape-rendering="geometricPrecision"
	 xmlns="http://www.w3.org/2000/svg" xmlns:xlink="http://www.w3.org/1999/xlink" x="0px" y="0px" width="177.17px"
	 height="177.17px" viewBox="0 0 177.17 177.17" enable-background="new 0 0 177.17 177.17" xml:space="preserve">
<path fill="#1F1A17" d="M76.505,152.562H61.566v12.029h-24.08v-32.936l19.488-15.035V74.606L42.021,59.65V41.649H28.595V20.64
	h119.976v21.009h-13.444V59.65l-15.045,14.956v42.014l19.517,15.035v32.936h-24.002v-12.029h-15.031v12.029h-24.06V152.562z"/>
<linearGradient id="SVGID_1_" gradientUnits="userSpaceOnUse" x1="-134.3218" y1="372.3291" x2="-78.056" y2="372.3291" gradientTransform="matrix(-3.5434 0 0 3.5434 -374.5338 -1226.7026)">
	<stop  offset="0" style="stop-color:#FFFFFF"/>
	<stop  offset="1" style="stop-color:#FFFFFF;stop-opacity:0"/>
</linearGradient>
<path fill="url(#SVGID_1_)" d="M59.986,122.591l-11.161,9.061h79.443l-11.251-9.061H59.968 M34.466,35.678H142.59v-9.061H34.466
	V35.678 M48.087,53.572h80.881v-11.94H48.087V53.572 M63.027,116.603h51V74.571h-51V116.603 M43.527,137.604v21.002h12.03v-12.03
	h27.089v12.03h11.849v-12.03h27.001v12.03h12.03v-21.002H43.523 M50.302,59.65l9.028,8.971h58.292l9.209-8.971H50.302"/>
</svg>
