<?xml version="1.0" encoding="UTF-8" standalone="no"?>
<svg
   xmlns:dc="http://purl.org/dc/elements/1.1/"
   xmlns:cc="http://creativecommons.org/ns#"
   xmlns:rdf="http://www.w3.org/1999/02/22-rdf-syntax-ns#"
   xmlns:svg="http://www.w3.org/2000/svg"
   xmlns="http://www.w3.org/2000/svg"
   xmlns:xlink="http://www.w3.org/1999/xlink"
   xmlns:sodipodi="http://sodipodi.sourceforge.net/DTD/sodipodi-0.dtd"
   xmlns:inkscape="http://www.inkscape.org/namespaces/inkscape"
   width="700pt"
   height="700pt"
   viewBox="-20 0 900 900"
   version="1"
   id="svg8156"
   inkscape:version="0.91 r13725"
   sodipodi:docname="bK.svg">
  <metadata
     id="metadata8210">
    <rdf:RDF>
      <cc:Work
         rdf:about="">
        <dc:format>image/svg+xml</dc:format>
        <dc:type
           rdf:resource="http://purl.org/dc/dcmitype/StillImage" />
        <dc:title></dc:title>
      </cc:Work>
    </rdf:RDF>
  </metadata>
  <sodipodi:namedview
     pagecolor="#ffffff"
     bordercolor="#666666"
     borderopacity="1"
     objecttolerance="10"
     gridtolerance="10"
     guidetolerance="10"
     inkscape:pageopacity="0"
     inkscape:pageshadow="2"
     inkscape:window-width="1920"
     inkscape:window-height="1039"
     id="namedview8208"
     showgrid="false"
     inkscape:zoom="0.26971429"
     inkscape:cx="437.5"
     inkscape:cy="437.5"
     inkscape:window-x="0"
     inkscape:window-y="20"
     inkscape:window-maximized="0"
     inkscape:current-layer="svg8156" />
  <defs
     id="defs8158">
    <linearGradient
       id="a">
      <stop
         offset="0"
         id="stop8161" />
      <stop
         offset="1"
         stop-color="#505090"
         id="stop8163" />
    </linearGradient>
    <linearGradient
       xlink:href="#a"
       id="b"
       x1="297.554"
       y1="427.05"
       x2="368.562"
       y2="521.216"
       gradientUnits="userSpaceOnUse" />
    <linearGradient
       xlink:href="#a"
       id="c"
       x1="495.296"
       y1="448.547"
       x2="595.971"
       y2="528.547"
       gradientUnits="userSpaceOnUse" />
    <linearGradient
       xlink:href="#a"
       id="j"
       x1="221.551"
       y1="774.937"
       x2="633.491"
       y2="859.351"
       gradientUnits="userSpaceOnUse" />
    <linearGradient
       xlink:href="#a"
       x1="379.197"
       y1="160.253"
       x2="579.848"
       y2="286.919"
       gradientUnits="userSpaceOnUse"
       id="linearGradient8168" />
    <linearGradient
       xlink:href="#a"
       x1="368.469"
       y1="319.275"
       x2="494.551"
       y2="319.275"
       gradientUnits="userSpaceOnUse"
       id="linearGradient8170" />
    <linearGradient
       xlink:href="#a"
       id="i"
       gradientUnits="userSpaceOnUse"
       x1="129.962"
       y1="428.659"
       x2="812.369"
       y2="836.313" />
    <linearGradient
       xlink:href="#a"
       id="h"
       gradientUnits="userSpaceOnUse"
       x1="129.962"
       y1="428.659"
       x2="812.369"
       y2="836.313" />
    <linearGradient
       xlink:href="#a"
       id="g"
       gradientUnits="userSpaceOnUse"
       x1="129.962"
       y1="428.659"
       x2="812.369"
       y2="836.313" />
    <linearGradient
       xlink:href="#a"
       id="f"
       gradientUnits="userSpaceOnUse"
       x1="129.962"
       y1="428.659"
       x2="812.369"
       y2="836.313" />
    <linearGradient
       xlink:href="#a"
       gradientUnits="userSpaceOnUse"
       x1="379.197"
       y1="160.253"
       x2="579.848"
       y2="286.919"
       id="linearGradient8176" />
    <linearGradient
       xlink:href="#a"
       gradientUnits="userSpaceOnUse"
       x1="368.469"
       y1="319.275"
       x2="494.551"
       y2="319.275"
       id="linearGradient8178" />
    <linearGradient
       xlink:href="#a"
       id="e"
       gradientUnits="userSpaceOnUse"
       x1="368.469"
       y1="319.275"
       x2="494.551"
       y2="319.275" />
    <linearGradient
       xlink:href="#a"
       id="d"
       gradientUnits="userSpaceOnUse"
       x1="379.197"
       y1="160.253"
       x2="579.848"
       y2="286.919" />
  </defs>
  <g
     id="g8182"
     transform="matrix(1,0,0,-1,0,903.96645)"
     style="fill-rule:evenodd">
    <path
       d="m 288.635,612.485 c 23.192,-33.51 -7.05,-125.84 0.018,-168.052 11.473,-68.508 101.49,-114.49 113.505,-74.77 14.253,47.115 -43.612,51.562 -59.712,90.892 -14.788,36.126 -11.624,96.483 17.166,132.81"
       id="path8184"
       style="fill:url(#b);stroke:#808080;stroke-width:16;stroke-linecap:round;stroke-linejoin:round"
       inkscape:connector-curvature="0" />
    <path
       d="m 586.89,617.316 c -23.192,-33.51 7.052,-125.84 -0.018,-168.052 -11.473,-68.508 -101.49,-114.49 -113.505,-74.77 -14.253,47.115 43.612,51.562 59.712,90.892 14.787,36.126 11.623,96.483 -17.167,132.81"
       id="path8186"
       style="fill:url(#c);stroke:#808080;stroke-width:16;stroke-linecap:round;stroke-linejoin:round"
       inkscape:connector-curvature="0" />
    <path
       d="m 401.217,288.115 c 5.257,-15 18.904,-70.925 13.916,-87.4 -22.314,-1.766 -68.935,18.702 -99.152,12.145 -8.51,-15.386 -13.823,-48.494 -1.6,-66.668 27.357,-8.324 87.732,6.27 104.42,8.505 5.916,-16.853 -14.494,-67.638 -10.54,-86.027 18.75,-8.963 65.314,-8.077 79.153,1.034 -0.705,19.314 -28.895,66.225 -29.58,82.264 18.785,-0.963 77.295,-16.875 97.27,-12.99 8.615,16.712 10.485,46.566 -3.415,65.647 -21.295,7.093 -77.675,-8.93 -101.167,-4.27 -9.898,19.967 5.492,71.523 9.28,86.605"
       id="path8188"
       style="fill:url(#d);stroke:#808080;stroke-width:16;stroke-linecap:round;stroke-linejoin:round"
       inkscape:connector-curvature="0" />
    <path
       d="m 408.41,371.832 c -24.735,-21.418 -35.634,-21.596 -30.833,-75.206 4.1,-45.78 106.257,-43.42 108.634,-1.99 2.982,51.946 -14.29,55.836 -26.298,80.988"
       id="path8190"
       style="fill:url(#e);stroke:#808080;stroke-width:16;stroke-linecap:round;stroke-linejoin:round"
       inkscape:connector-curvature="0" />
    <path
       d="M 270.962,830.3 206.987,634.056 678.22,631.989 603.33,836.312 270.962,830.298 Z"
       id="path8192"
       style="fill:url(#f);stroke-width:16"
       inkscape:connector-curvature="0" />
    <path
       d="m 643.456,717.11 c -93.676,-48.015 -307.14,-50.27 -407.606,1.875 14.074,44.473 19.704,93.973 19.704,93.973 91.666,-28.464 277.873,-29.6 367.873,4.143 0,0 9.28,-66.68 20.03,-99.99 z"
       id="path8194"
       style="fill:url(#g);stroke:#808080;stroke-width:16;stroke-linecap:round;stroke-linejoin:round"
       inkscape:connector-curvature="0" />
    <path
       d="m 553.53,574.03 c -36.24,-15.312 -76.703,-58.825 -121.977,-60.22 -43.574,1.01 -78.556,38.563 -103.397,58.41 -115.273,-52.468 -113.895,-152.893 -33.25,-171.314 13.135,-3 52.232,0.464 78.063,-0.72 -8.227,-22.714 -17.193,-38.822 -8.69,-69.06 -18.227,-11.733 -42.487,-20.145 -70.124,-21.782 -8.25,-0.49 -16.63,-0.697 -25.03,-0.594 -81.202,1 -165.452,30.536 -177.407,105.25 -17.45,109.048 79.09,173.315 113.843,288.656 110.307,-62.908 364.664,-58.902 470.343,-4.53 28.048,-89.163 139.85,-193.362 114.844,-284.25 -23.158,-84.17 -135.742,-108.802 -210.03,-104.595 -30.11,1.707 -59.014,11.454 -80.72,24.845 4.202,23.97 -4.315,43.57 -11.375,64.28 34.345,0.016 94.602,-7.97 118.25,5.408 52.23,29.546 56.212,135.896 -53.344,170.218 z"
       id="path8196"
       style="fill:url(#h);stroke:#808080;stroke-width:16;stroke-linecap:round;stroke-linejoin:round"
       inkscape:connector-curvature="0" />
    <path
       d="m 328.488,572.528 c 37.995,-26.678 55.998,-79.66 54.48,-122.435 -2.192,-61.676 -35.18,-72.426 -16.34,-126.414 12.773,-36.608 119.162,-38.49 131.178,1.23 14.253,47.115 -22.343,76.448 -16.638,124.144 6.654,55.64 7.067,92.523 72.294,126.573"
       id="path8198"
       style="fill:url(#i);stroke:#808080;stroke-width:16;stroke-linecap:round;stroke-linejoin:round"
       inkscape:connector-curvature="0" />
    <path
       d="m 275.69,832.678 c 87.866,10.484 228.213,12.205 327.368,2.36 -68.597,-27.98 -256.555,-27.677 -327.367,-2.36 z"
       id="path8200"
       style="fill:url(#j);stroke:#808080;stroke-width:16;stroke-linecap:round;stroke-linejoin:round"
       inkscape:connector-curvature="0" />
    <path
       d="M 453.622,737.035"
       stroke-width="15.456.56"
       id="path8202"
       inkscape:connector-curvature="0"
       style="fill:#ffffff;stroke:#808080;stroke-linecap:round;stroke-linejoin:round" />
    <path
       d="M 815,915"
       transform="matrix(1.063,-0.192,0.129,0.713,-628.072,249.549)"
       id="path8204"
       inkscape:connector-curvature="0"
       style="fill:#ffffff;stroke:#808080;stroke-width:18.08699989;stroke-linecap:round;stroke-linejoin:round" />
    <path
       transform="matrix(1.039,0.169,-0.116,0.715,-188.652,-40.445)"
       d="M 815,915"
       id="path8206"
       inkscape:connector-curvature="0"
       style="fill:#ffffff;stroke:#808080;stroke-width:18.31999969;stroke-linecap:round;stroke-linejoin:round" />
  </g>
</svg>
