<?xml version="1.0" encoding="UTF-8" standalone="no"?>
<svg
   xmlns:dc="http://purl.org/dc/elements/1.1/"
   xmlns:cc="http://creativecommons.org/ns#"
   xmlns:rdf="http://www.w3.org/1999/02/22-rdf-syntax-ns#"
   xmlns:svg="http://www.w3.org/2000/svg"
   xmlns="http://www.w3.org/2000/svg"
   xmlns:xlink="http://www.w3.org/1999/xlink"
   xmlns:sodipodi="http://sodipodi.sourceforge.net/DTD/sodipodi-0.dtd"
   xmlns:inkscape="http://www.inkscape.org/namespaces/inkscape"
   width="700pt"
   height="700pt"
   viewBox="-20 0 900 900"
   version="1"
   id="svg6353"
   inkscape:version="0.91 r13725"
   sodipodi:docname="bR.svg">
  <metadata
     id="metadata6402">
    <rdf:RDF>
      <cc:Work
         rdf:about="">
        <dc:format>image/svg+xml</dc:format>
        <dc:type
           rdf:resource="http://purl.org/dc/dcmitype/StillImage" />
        <dc:title></dc:title>
      </cc:Work>
    </rdf:RDF>
  </metadata>
  <sodipodi:namedview
     pagecolor="#ffffff"
     bordercolor="#666666"
     borderopacity="1"
     objecttolerance="10"
     gridtolerance="10"
     guidetolerance="10"
     inkscape:pageopacity="0"
     inkscape:pageshadow="2"
     inkscape:window-width="1920"
     inkscape:window-height="1039"
     id="namedview6400"
     showgrid="false"
     inkscape:zoom="0.26971429"
     inkscape:cx="437.5"
     inkscape:cy="437.5"
     inkscape:window-x="0"
     inkscape:window-y="20"
     inkscape:window-maximized="0"
     inkscape:current-layer="svg6353" />
  <defs
     id="defs6355">
    <linearGradient
       id="a">
      <stop
         offset="0"
         id="stop6358" />
      <stop
         offset="1"
         stop-color="#505090"
         id="stop6360" />
    </linearGradient>
    <linearGradient
       xlink:href="#a"
       id="b"
       x1="7.338"
       y1="207.665"
       x2="689.745"
       y2="274.331"
       gradientUnits="userSpaceOnUse"
       gradientTransform="matrix(1.045,0,0,1.014,-33.829,-11.835)" />
    <linearGradient
       xlink:href="#a"
       id="d"
       x1="218.502"
       y1="521.53"
       x2="906.095"
       y2="643.197"
       gradientUnits="userSpaceOnUse"
       gradientTransform="matrix(1.045,0,0,1.014,-33.829,-11.835)" />
    <linearGradient
       xlink:href="#a"
       id="e"
       x1="153.414"
       y1="229.068"
       x2="966.586"
       y2="400.734"
       gradientUnits="userSpaceOnUse"
       gradientTransform="matrix(1.045,0,0,1.014,-33.829,-11.835)" />
    <linearGradient
       xlink:href="#a"
       id="c"
       x1="193.15"
       y1="715.406"
       x2="878.595"
       y2="782.072"
       gradientUnits="userSpaceOnUse"
       gradientTransform="matrix(1.045,0,0,1.014,-33.829,-11.835)" />
  </defs>
  <g
     id="g6366"
     transform="matrix(1,0,0,-1,0,933.33464)"
     style="fill-rule:evenodd;stroke:#808080;stroke-width:16;stroke-linejoin:round">
    <path
       d="m 200.303,323.355 c 0,0 3.25,-117.233 17.655,-156.206 30.098,-6.5 89.35,-9.564 126.156,-4.192 0.412,23.842 -5.433,73.99 -1.59,96.915 33.444,-1.585 101.2,2.477 144.315,-2.37 0.96,-27.97 -7.27,-67.572 0.892,-98.75 27.368,-2.057 89.238,-4.232 118.047,8.147 -3.842,39.89 0.562,94.73 0.562,94.73 l 75.532,2.614 -11.247,60 c -94.304,35.348 -411.33,30.1 -470.324,-0.89 z"
       id="path6368"
       style="fill:url(#b);stroke-linecap:round"
       inkscape:connector-curvature="0" />
    <path
       d="m 250.717,702.476 c -23.988,23.953 -74.114,48.056 -109.857,55.622 -5.184,17.112 -10.284,36.898 0.24,58.174 127.397,1.155 463.79,-0.324 585.516,-0.747 6.568,-23.73 11.535,-40.898 4.967,-59.55 -37.48,-7.42 -82.743,-18.624 -116.25,-53.496"
       id="path6370"
       style="fill:url(#c);stroke-linecap:round"
       inkscape:connector-curvature="0" />
    <path
       d="m 198.04,768.623 c 149.46,0.072 311.665,-5.513 471.513,0.58"
       id="path6372"
       inkscape:connector-curvature="0"
       style="fill:none;fill-opacity:0.75;stroke-linecap:round" />
    <path
       d="m 252.743,310.87 c -3.768,44.85 -4.854,357.288 -3.817,394.504 55.177,-4.666 311.612,-4.96 368.162,-0.567 -3.202,-70.03 -2.316,-392.952 -2.316,-392.952"
       id="path6374"
       style="fill:url(#d)"
       inkscape:connector-curvature="0" />
    <path
       d="m 291.38,634.833 c 39.89,-2.94 123.47,-6.252 215.44,-3.295"
       id="path6376"
       inkscape:connector-curvature="0"
       style="fill:none;fill-opacity:0.75;stroke-linecap:round" />
    <path
       d="m 290.023,570.148 c 50.752,-4.886 99.848,-6.495 171.3,-5.752"
       id="path6378"
       inkscape:connector-curvature="0"
       style="fill:none;fill-opacity:0.75;stroke-linecap:round" />
    <path
       d="m 290.558,504.95 c 72.268,-4.997 74.304,-4.466 152.516,-5.594"
       id="path6380"
       inkscape:connector-curvature="0"
       style="fill:none;fill-opacity:0.75;stroke-linecap:round" />
    <path
       d="m 290.558,441.012 c 36.685,-3.033 58.258,-4.61 102.16,-3.55"
       id="path6382"
       inkscape:connector-curvature="0"
       style="fill:none;fill-opacity:0.75;stroke-linecap:round" />
    <path
       d="m 334.76,457.704 c 0.88,29.932 -0.175,-1.336 0.704,24.55"
       id="path6384"
       inkscape:connector-curvature="0"
       style="fill:none;fill-opacity:0.75;stroke-linecap:round" />
    <path
       d="m 390.44,521.25 c 0.88,29.932 -0.175,-1.336 0.704,24.55"
       id="path6386"
       inkscape:connector-curvature="0"
       style="fill:none;fill-opacity:0.75;stroke-linecap:round" />
    <path
       d="m 334.76,585.53 c 0.88,29.93 -0.175,-1.338 0.704,24.55"
       id="path6388"
       inkscape:connector-curvature="0"
       style="fill:none;fill-opacity:0.75;stroke-linecap:round" />
    <path
       d="m 451.554,583.5 c 0.88,29.93 -0.176,0.692 0.703,26.58"
       id="path6390"
       inkscape:connector-curvature="0"
       style="fill:none;fill-opacity:0.75;stroke-linecap:round" />
    <path
       d="m 390.44,652.233 c 0.88,29.932 -0.175,0.693 0.704,26.58"
       id="path6392"
       inkscape:connector-curvature="0"
       style="fill:none;fill-opacity:0.75;stroke-linecap:round" />
    <path
       d="m 291.82,383.204 c 27.856,-3.033 42.05,-4.007 65.775,-3.55"
       id="path6394"
       inkscape:connector-curvature="0"
       style="fill:none;fill-opacity:0.75;stroke-linecap:round" />
    <path
       d="m 131.748,161.278 c 5.156,28.223 9.052,55 14.048,95.54 32.077,22.366 50.033,30.177 53.468,67.657 96.352,-17.36 386.968,-13.36 474.353,-0.352 6.09,-33.782 16.053,-39.555 63.13,-67.91 5.947,-44.36 11.17,-65.75 11.505,-92.273 -14.107,-3.43 -115.468,-33.784 -127.99,-29.424 -4.452,26.393 1.845,49.067 -4.014,73.888 -37.943,1.902 -71.745,0.458 -111.013,-9.763 0.195,-33.177 0.146,-51.372 1.776,-77.05 -16.582,-5.907 -115.207,-6.957 -133.815,-0.866 -3.207,31.978 0.847,49.4 -1.723,77.83 -33.683,9.53 -65.627,7.057 -105.838,9.316 -3.24,-33.805 2.743,-45.667 1.982,-69.396 -16.59,-4.536 -120.204,17.987 -135.868,22.804 z"
       id="path6396"
       style="fill:url(#e);stroke-linecap:round"
       inkscape:connector-curvature="0" />
    <path
       d="m 188.74,262.247 c 148.654,-14.695 368.513,-15.61 496.096,3.544"
       id="path6398"
       inkscape:connector-curvature="0"
       style="fill:none;fill-opacity:0.75;stroke-linecap:round" />
  </g>
</svg>
