<?xml version="1.0" encoding="UTF-8" standalone="no"?>
<svg
   xmlns:dc="http://purl.org/dc/elements/1.1/"
   xmlns:cc="http://creativecommons.org/ns#"
   xmlns:rdf="http://www.w3.org/1999/02/22-rdf-syntax-ns#"
   xmlns:svg="http://www.w3.org/2000/svg"
   xmlns="http://www.w3.org/2000/svg"
   xmlns:xlink="http://www.w3.org/1999/xlink"
   xmlns:sodipodi="http://sodipodi.sourceforge.net/DTD/sodipodi-0.dtd"
   xmlns:inkscape="http://www.inkscape.org/namespaces/inkscape"
   width="700pt"
   height="700pt"
   viewBox="0 0 900 900"
   sodipodi:version=".32"
   version="1"
   sodipodi:docname="wN.svg"
   id="svg5671"
   inkscape:version="0.91 r13725">
  <metadata
     id="metadata5715">
    <rdf:RDF>
      <cc:Work
         rdf:about="">
        <dc:format>image/svg+xml</dc:format>
        <dc:type
           rdf:resource="http://purl.org/dc/dcmitype/StillImage" />
        <dc:title></dc:title>
      </cc:Work>
    </rdf:RDF>
  </metadata>
  <defs
     id="defs5673">
    <linearGradient
       id="a">
      <stop
         offset="0"
         stop-color="#fff"
         id="stop5676" />
      <stop
         offset="1"
         stop-color="#d0b090"
         id="stop5678" />
    </linearGradient>
    <linearGradient
       xlink:href="#a"
       id="f"
       gradientUnits="userSpaceOnUse"
       x1="705.291"
       y1="378.288"
       x2="787.126"
       y2="465.624"
       gradientTransform="translate(0,4)" />
    <linearGradient
       xlink:href="#a"
       id="e"
       gradientUnits="userSpaceOnUse"
       x1="667.033"
       y1="299.327"
       x2="739.154"
       y2="348.42"
       gradientTransform="translate(4,4)" />
    <linearGradient
       xlink:href="#a"
       id="d"
       gradientUnits="userSpaceOnUse"
       x1="598.679"
       y1="209.761"
       x2="705.532"
       y2="232.288"
       gradientTransform="translate(0,4)" />
    <linearGradient
       xlink:href="#a"
       id="c"
       gradientUnits="userSpaceOnUse"
       x1="493.792"
       y1="157.906"
       x2="625.853"
       y2="159.489"
       gradientTransform="translate(4,-2)" />
    <linearGradient
       xlink:href="#a"
       id="b"
       gradientUnits="userSpaceOnUse"
       x1="265.646"
       y1="255.94"
       x2="753.208"
       y2="854.328"
       gradientTransform="translate(0,4)" />
  </defs>
  <sodipodi:namedview
     pagecolor="#ffffff"
     bordercolor="#666666"
     borderopacity="1"
     id="namedview5685"
     showgrid="false"
     inkscape:zoom="0.26971429"
     inkscape:cx="-237.28814"
     inkscape:cy="437.5"
     inkscape:window-width="1920"
     inkscape:window-height="1039"
     inkscape:window-x="0"
     inkscape:window-y="20"
     inkscape:window-maximized="0"
     inkscape:current-layer="svg5671" />
  <g
     id="g5687"
     transform="matrix(1,0,0,-1,0,889.22104)"
     style="fill-rule:evenodd;stroke:#000000;stroke-width:16;stroke-linecap:round;stroke-linejoin:round">
    <path
       d="m 528.59,401.808 c 0.214,76.493 -88.227,142.653 -175.456,109.334 -13.36,-5.102 -134.568,104.803 -153.994,89.766 -15.325,-11.863 16.98,-60.77 14.63,-54.522 -11.18,29.74 -60.547,62.844 -100.19,20.112 -15.503,-16.71 -10.71,-64.776 22.684,-103.933 34.777,-40.78 70.09,-103.577 83.757,-139.796 27.493,-72.85 16.706,-74.44 69.392,-140.507 9.898,-12.41 -16.088,-60.595 -6.643,-92.047 37.306,6.653 51.688,44.162 68.844,59.903 10,-23.152 3.28,-85.362 21.06,-82.463 17.777,2.9 38.227,56.792 67.554,80.462 351.262,108.097 348.39,670.205 250.222,672.026 -121.172,2.248 -266.24,1.74 -388.105,-0.202 -29.528,-0.47 -43.197,-38.672 -37.503,-61.5 27.155,-108.88 141.833,-185.087 198.008,-222.854 57.697,-38.79 68.26,-76.91 65.74,-133.78 z"
       sodipodi:nodetypes="csssssssccscssssc"
       id="path5689"
       style="fill:url(#b)"
       inkscape:connector-curvature="0" />
    <path
       d="m 345.006,294.1 c -29.073,-5.367 -54.564,3.077 -75.617,24.03"
       sodipodi:nodetypes="cs"
       id="path5691"
       inkscape:connector-curvature="0"
       style="fill:none;fill-opacity:0.75" />
    <path
       d="m 298.138,325.803 c 10.443,10.64 23.734,11.084 25.923,-6.997"
       sodipodi:nodetypes="cs"
       id="path5693"
       inkscape:connector-curvature="0"
       style="fill:none;fill-opacity:0.75" />
    <path
       d="m 150.77,518.29 c -13.854,-4.786 -23.877,17.537 -15.037,18.447"
       sodipodi:nodetypes="cs"
       id="path5695"
       inkscape:connector-curvature="0"
       style="fill:none;fill-opacity:0.75" />
    <path
       d="m 316.876,474.304 9.488,11.79"
       sodipodi:nodetypes="cc"
       id="path5697"
       inkscape:connector-curvature="0"
       style="fill:none;fill-opacity:0.75" />
    <path
       d="m 528.753,369.236 0.29,-24.918"
       sodipodi:nodetypes="cc"
       id="path5699"
       inkscape:connector-curvature="0"
       style="fill:none;fill-opacity:0.75" />
    <path
       d="m 325.88,162.65 -10.114,5.28"
       sodipodi:nodetypes="cs"
       id="path5701"
       inkscape:connector-curvature="0"
       style="fill:none;fill-opacity:0.75" />
    <path
       d="m 379.27,108.874 c 30.152,42.12 41.04,50.64 5.187,44.597"
       sodipodi:nodetypes="cs"
       id="path5703"
       inkscape:connector-curvature="0"
       style="fill:none;fill-opacity:0.75" />
    <path
       d="m 454.444,131.126 c 86.572,25.384 71.97,7.062 90.23,36.796 10.228,16.658 24.402,-5.678 58.145,-3.565 18.222,1.14 -50.002,-27.22 -58.9,-38.563 -12.353,-15.745 -102.178,1.608 -89.476,5.332 z"
       sodipodi:nodetypes="cssss"
       id="path5705"
       style="fill:url(#c)"
       inkscape:connector-curvature="0" />
    <path
       d="m 579.55,199.723 c 27.193,20.672 47.11,-0.325 46.037,35.545 -0.738,24.63 32.506,8.174 48.65,18.448 14.873,9.464 29.79,-28.716 20.33,-28.716 -14.232,0 -38.4,6.678 -34.027,-9.394 9.598,-35.278 -88.8,-21.82 -80.99,-15.883 z"
       sodipodi:nodetypes="csssss"
       id="path5707"
       style="fill:url(#d)"
       inkscape:connector-curvature="0" />
    <path
       d="m 659.532,277.716 c 5.292,1.85 34.12,21.37 32.785,30.65 -6.884,47.874 28.416,44.77 43.608,49.83 21.288,7.093 -0.992,-18.322 -11.734,-31.39 -10.74,-13.067 7.34,-18.917 6.075,-27.206 -4.453,-29.156 -73.497,-22.85 -70.733,-21.884 z"
       sodipodi:nodetypes="csssss"
       id="path5709"
       style="fill:url(#e)"
       inkscape:connector-curvature="0" />
    <path
       d="m 710.39,378.647 c 5.058,8.82 16.918,18.81 20.677,32.645 3.76,13.836 5.175,26.17 12.694,41.032 7.52,14.86 37.774,12.923 50.82,8.562 17.577,-5.877 -42.497,-24.127 -28.96,-51.952 8.566,-17.61 -57.96,-35.047 -55.23,-30.287 z"
       sodipodi:nodetypes="csssss"
       id="path5711"
       style="fill:url(#f)"
       inkscape:connector-curvature="0" />
    <path
       d="m 438.147,729.5 -25.78,61.493"
       id="path5713"
       inkscape:connector-curvature="0"
       style="fill:none;fill-opacity:0.75" />
  </g>
</svg>
