<?xml version="1.0" encoding="UTF-8" standalone="no"?>
<svg
   width="80"
   height="80"
   viewBox="0 0 80 80"
   xml:space="preserve"
   version="1.1"
   id="svg2"
   sodipodi:docname="blichess.svg"
   inkscape:version="1.3.2 (091e20ef0f, 2023-11-25)"
   xmlns:inkscape="http://www.inkscape.org/namespaces/inkscape"
   xmlns:sodipodi="http://sodipodi.sourceforge.net/DTD/sodipodi-0.dtd"
   xmlns="http://www.w3.org/2000/svg"
   xmlns:svg="http://www.w3.org/2000/svg"><defs
   id="defs2" /><sodipodi:namedview
   id="namedview2"
   pagecolor="#505050"
   bordercolor="#eeeeee"
   borderopacity="1"
   inkscape:showpageshadow="0"
   inkscape:pageopacity="0"
   inkscape:pagecheckerboard="0"
   inkscape:deskcolor="#505050"
   inkscape:zoom="10.0625"
   inkscape:cx="40.049689"
   inkscape:cy="40"
   inkscape:window-width="1920"
   inkscape:window-height="1011"
   inkscape:window-x="0"
   inkscape:window-y="0"
   inkscape:window-maximized="1"
   inkscape:current-layer="svg2" />
    <g
   id="g1"
   transform="matrix(1.4766857,0,0,1.4766857,-8.2922198,-19.221871)"><path
     sodipodi:type="star"
     style="fill:none;fill-opacity:1;stroke:#000000;stroke-width:40.5332;stroke-linecap:round;stroke-linejoin:round;stroke-miterlimit:4;stroke-dasharray:none;stroke-opacity:1"
     id="path5436"
     inkscape:flatsided="true"
     sodipodi:sides="3"
     sodipodi:cx="490"
     sodipodi:cy="430"
     sodipodi:r1="72.111023"
     sodipodi:r2="36.055511"
     sodipodi:arg1="2.1587989"
     sodipodi:arg2="3.2059965"
     inkscape:rounded="0"
     inkscape:randomized="0.167428"
     d="m 459.94076,497.45932 3.57237,-142.05959 87.23126,73.37386 z"
     transform="matrix(0.06268639,0,0,0.05644154,-7.4486598,13.727301)"
     inkscape:transform-center-x="-0.25427272"
     inkscape:transform-center-y="-0.028966254" /><path
     sodipodi:type="star"
     style="fill:none;fill-opacity:1;stroke:#000000;stroke-width:40.5332;stroke-linecap:round;stroke-linejoin:round;stroke-miterlimit:4;stroke-dasharray:none;stroke-opacity:1"
     id="path5436-7"
     inkscape:flatsided="true"
     sodipodi:sides="3"
     sodipodi:cx="490"
     sodipodi:cy="430"
     sodipodi:r1="72.111023"
     sodipodi:r2="36.055511"
     sodipodi:arg1="2.1587989"
     sodipodi:arg2="3.2059965"
     inkscape:rounded="0"
     inkscape:randomized="0.167428"
     transform="matrix(0.06268639,0,0,0.05644154,-7.6613778,21.630448)"
     inkscape:transform-center-x="-0.25427209"
     inkscape:transform-center-y="-0.02896365"
     d="m 459.94076,497.45932 3.57237,-142.05959 87.23126,73.37386 z" /><path
     style="fill:none;fill-opacity:1;stroke:#000000;stroke-width:2.411;stroke-linecap:round;stroke-linejoin:miter;stroke-miterlimit:4;stroke-dasharray:none;stroke-opacity:1"
     d="m 22.341399,41.152347 -6.627747,4.836616"
     id="path5739" /><path
     style="fill:none;fill-opacity:1;stroke:#000000;stroke-width:2.411;stroke-linecap:round;stroke-linejoin:miter;stroke-miterlimit:4;stroke-dasharray:none;stroke-opacity:1"
     d="m 15.713652,37.927943 8.521396,5.911412"
     id="path5739-0"
     sodipodi:nodetypes="cc" /></g>
    <path
   d="m37.656 74.009c-4.8354-0.36436-9.6886-1.699-13.955-3.8378-3.4383-1.7236-6.4517-3.92-9.0933-6.628-7.0896-7.2676-10.055-17.334-8.1548-27.684 1.5646-8.5227 6.1202-15.614 12.927-20.122 6.4164-4.2497 14.836-6.2637 24.632-5.8922l2.1764 0.082493 0.71448-0.46162c2.8371-1.8331 5.781-2.7675 10.74-3.409 1.3469-0.17424 1.5334-0.18309 1.7288-0.082031 0.24019 0.1242 0.31608 0.26074 0.31608 0.56864 0 0.11136-0.4595 2.1736-1.0211 4.5828-1.0078 4.3233-1.0194 4.3838-0.89332 4.6483 0.07031 0.14737 0.50749 0.95627 0.97159 1.7975 0.4641 0.84128 0.96793 1.7581 1.1196 2.0374 0.15171 0.2793 1.5664 2.8457 3.1439 5.7031 1.5774 2.8574 3.8363 6.9531 5.0198 9.1016 3.237 5.8763 4.9952 9.0631 5.4255 9.8339 0.50792 0.90969 0.63287 1.4871 0.62769 2.9005-0.0037 0.91614-0.03691 1.2203-0.20664 1.8732-0.86524 3.328-3.915 6.1562-8.8068 8.167-1.1079 0.45544-2.3332 0.85827-2.6106 0.85827-0.25397 0-0.38898-0.15415-1.129-1.2891-1.3352-2.0478-3.9112-4.9986-6.541-7.4929-1.5045-1.427-2.0154-1.8499-5.6466-4.6744-4.6142-3.5891-6.2759-5.0009-8.48-7.2045-3.9949-3.9941-5.887-7.2765-6.1716-10.706-0.08995-1.0838 0.18839-2.7981 0.50585-3.1155 0.41619-0.41619 1.1662-0.01476 1.064 0.56953-0.02694 0.15422-0.06902 0.65348-0.09347 1.1095-0.03663 0.68284-0.01606 0.94126 0.11629 1.4648 0.63768 2.5217 3.041 5.405 7.3949 8.8718 2.0126 1.6025 3.381 2.5855 7.6172 5.4717 5.194 3.5387 5.6984 3.9377 8.1641 6.4574 2.308 2.3586 3.494 3.8269 4.3474 5.3817 0.22404 0.4082 0.4147 0.75294 0.42366 0.7661 0.03949 0.05785 1.0174-0.24498 1.6091-0.49822 2.5156-1.0767 4.1441-3.2328 4.6375-6.1402l0.12817-0.75512-2.3219-3.8933c-1.2771-2.1413-2.9627-4.9656-3.7459-6.2761-2.1258-3.5573-10.258-17.183-10.81-18.114-0.26416-0.44496-0.4989-0.88442-0.52166-0.97656-0.0251-0.10167 0.35524-1.304 0.96742-3.0582 1.1589-3.3208 1.1586-3.0658 0.0028-2.7713-1.7885 0.45585-3.5267 1.2861-7.057 3.3706-0.71397 0.4216-1.2524 0.68973-1.385 0.68973-0.11934 0-0.6484-0.06957-1.1757-0.15451-2.4739-0.39872-5.0621-0.55615-7.5603-0.45987-5.5228 0.21286-10.604 1.8776-14.844 4.8634-4.762 3.3535-8.8329 8.8527-10.751 14.524-2.991 8.8413-0.68144 19.066 6.03 26.696 4.991 5.6739 11.828 9.2927 19.487 10.315 1.578 0.21053 4.5386 0.28823 6.1195 0.16059 7.0509-0.56924 13.253-3.3262 18.267-8.1207 0.79159-0.75686 0.94438-0.87009 1.174-0.87009 0.61003 0 0.83436 0.48111 0.49462 1.0608-0.76303 1.302-2.9045 3.6393-4.5382 4.9532-4.0237 3.236-9.0858 5.1841-14.924 5.7434-1.1092 0.10625-4.5728 0.1453-5.655 0.06376z"
   stroke-width=".92274"
   id="path2"
   style="fill:#000000;fill-opacity:1" />
</svg>
