<?xml version="1.0" encoding="UTF-8" standalone="no"?>
<!-- Generator: Adobe Illustrator 16.0.0, SVG Export Plug-In . SVG Version: 6.00 Build 0)  -->

<svg
   xmlns:dc="http://purl.org/dc/elements/1.1/"
   xmlns:cc="http://creativecommons.org/ns#"
   xmlns:rdf="http://www.w3.org/1999/02/22-rdf-syntax-ns#"
   xmlns:svg="http://www.w3.org/2000/svg"
   xmlns="http://www.w3.org/2000/svg"
   xmlns:sodipodi="http://sodipodi.sourceforge.net/DTD/sodipodi-0.dtd"
   xmlns:inkscape="http://www.inkscape.org/namespaces/inkscape"
   version="1.1"
   id="Layer_1"
   x="0px"
   y="0px"
   width="800px"
   height="800px"
   viewBox="0 0 800 800"
   style="enable-background:new 0 0 800 800;"
   xml:space="preserve"
   inkscape:version="0.91 r13725"
   sodipodi:docname="bB.svg"><metadata
     id="metadata4497"><rdf:RDF><cc:Work
         rdf:about=""><dc:format>image/svg+xml</dc:format><dc:type
           rdf:resource="http://purl.org/dc/dcmitype/StillImage" /><dc:title></dc:title></cc:Work></rdf:RDF></metadata><defs
     id="defs4495" /><sodipodi:namedview
     pagecolor="#ffffff"
     bordercolor="#666666"
     borderopacity="1"
     objecttolerance="10"
     gridtolerance="10"
     guidetolerance="10"
     inkscape:pageopacity="0"
     inkscape:pageshadow="2"
     inkscape:window-width="1920"
     inkscape:window-height="1039"
     id="namedview4493"
     showgrid="false"
     inkscape:zoom="0.295"
     inkscape:cx="-216.94915"
     inkscape:cy="400"
     inkscape:window-x="0"
     inkscape:window-y="20"
     inkscape:window-maximized="0"
     inkscape:current-layer="Layer_1" /><g
     id="black_bishop"
     transform="matrix(1,0,0,-1,0,795)"><g
       id="silhouette_5_"><path
         d="m 237.8,702.4 c -42,0 -77.3,-14.9 -102.2,-43 -23,-25.9 -35.6,-62.3 -35.6,-102.5 0,-59.2 41.5,-73.3 77.5,-79.1 l 16.4,-2.6 -5,15.8 c -6.5,20.5 -10.2,42.9 -10.2,61.2 0,54 24.4,87.6 63.6,87.6 29.2,0 56.6,-23.8 70.7,-60.2 -11.8,-2.4 -21.5,-5.2 -29.1,-8.4 -13.4,-5.6 -20.1,-13 -20.5,-21.8 l -7,-55.7 0,-0.6 c 0,-9.1 5.6,-15.6 12.9,-20.5 -1.6,-4.3 -3.3,-8.9 -5.1,-13.5 -16.6,-44.9 -37.3,-100.9 -37.3,-143.7 0,-50.4 22.1,-95.4 62.4,-126.9 10.9,-15.3 27.2,-32 48.5,-49.7 17.8,-14.8 38,-29.3 56.9,-40.9 l 5.4,-3.2 5.4,3.2 c 36.1,22.1 82.4,58.6 105.4,90.7 40.3,31.5 62.5,76.4 62.5,126.5 0,43.1 -20.7,99.5 -37.5,144.7 -1.6,4.4 -2.9,8.6 -4.4,12.7 7.2,5 13.3,11.4 13.3,20.5 l 0,0.6 -7.6,55.6 c -0.6,13.7 -17.1,23.7 -50,30.3 14.1,36.4 41.5,60.2 70.6,60.2 39.2,0 63.5,-33.6 63.5,-87.6 0,-18.4 -3.7,-40.7 -10.2,-61.2 l -5,-15.8 16.3,2.6 c 25.3,4 42.8,10.9 55.2,21.7 15,13.2 22.4,32 22.4,57.3 0,40.2 -12.6,76.6 -35.6,102.5 -24.8,28.1 -60.3,43 -102.2,43 -65.6,0 -118.8,-45.1 -137.8,-115.7 -8,0.3 -16.2,0.5 -24.4,0.5 -8.2,0 -16.4,-0.2 -24.4,-0.5 -18.9,70.7 -72.3,115.9 -137.8,115.9 z"
         id="path4474"
         inkscape:connector-curvature="0" /><path
         d="m 400,106.5 c 33.5,20.5 80.6,56.7 103.2,89.2 35.9,27.5 59.8,68.3 59.8,119.3 0,48.3 -28.5,117.6 -44.4,161.9 l 0,0 c 9.7,5.4 15.2,10.2 15.2,16.2 l -7.2,55.4 c 0,9.5 -21,17.9 -53.1,23.1 13.2,44.7 45.9,78.4 84.2,78.4 45.7,0 73.9,-38.9 73.9,-97.8 0,-20 -4,-43.3 -10.7,-64.3 41.5,6.6 68.9,21.9 68.9,68.9 0,75 -45.6,135.2 -127.5,135.2 -62,0 -113.6,-43.6 -129.9,-116.1 -10.4,0.6 -21.2,1 -32.4,1 -11.2,0 -22,-0.3 -32.4,-1 -16.3,72.5 -68,116.1 -130,116.1 -82,0 -127.5,-60.3 -127.5,-135.2 0,-47 27.4,-62.4 68.9,-68.9 -6.6,21 -10.7,44.4 -10.7,64.3 0,59 28.1,97.8 73.9,97.8 38.3,0 71.1,-33.7 84.2,-78.4 -32.2,-5.2 -53.1,-13.5 -53.1,-23 L 266,493 c 0,-5.9 5.5,-10.8 15.2,-16.2 l 0,0 c -15.8,-44.3 -44.4,-113.3 -44.4,-161.6 0,-51 23.9,-92.2 59.7,-119.7 22.9,-32.4 70,-68.4 103.5,-89 m 0,-24 -10.7,6.5 c -34,20.8 -82,57.1 -107.6,92.1 -42.1,33.5 -65.2,80.9 -65.2,134 0,44.7 21.1,101.6 37.9,147.3 0.9,2.2 1.6,4.3 2.4,6.5 -6,5.7 -11.2,13.5 -11.2,24.1 l 0,1.3 0.2,1.3 7.1,54.8 c 0.3,5.7 2.7,13.4 10.6,20.4 4.2,3.8 9.5,6.9 16.4,9.8 5.3,2.3 11.6,4.3 18.6,6.2 -5.2,10.2 -11.6,19 -18.9,26 -8,7.7 -21,16.7 -37.4,16.7 -15.8,0 -28.4,-6.3 -37.6,-18.6 -10.3,-13.8 -15.7,-34.1 -15.7,-58.8 0,-17.4 3.6,-38.6 9.7,-58.1 l 9.9,-31.6 -32.7,5.2 c -37,5.8 -86.2,21.5 -86.2,89.2 0,21.1 3.2,41 9.5,59.4 6.5,19 16.2,35.7 28.7,49.9 26.9,30.3 64.9,46.4 109.8,46.4 67.9,0 123.4,-44.7 145.5,-115.5 5.5,0.1 11.1,0.2 16.8,0.2 5.6,0 11.2,-0.1 16.8,-0.2 21.9,70.7 77.5,115.5 145.5,115.5 45,0 82.9,-16.1 109.8,-46.4 12.5,-14.1 22.1,-30.9 28.7,-49.9 6.3,-18.4 9.5,-38.3 9.5,-59.4 0,-67.7 -49.1,-83.4 -86.2,-89.2 l -32.7,-5.2 9.9,31.6 c 6.2,19.5 9.7,40.7 9.7,58.1 0,24.6 -5.4,44.9 -15.7,58.8 -9.2,12.3 -21.8,18.6 -37.6,18.6 -16.4,0 -29.4,-9.1 -37.4,-16.7 -7.2,-7 -13.7,-15.9 -18.9,-26 7.1,-1.8 13.3,-3.9 18.7,-6.2 6.8,-2.9 12.2,-6.2 16.4,-9.9 7.9,-7.1 10.2,-14.7 10.6,-20.4 l 7.1,-54.5 0.1,-1.3 0,-1.4 c 0,-10.6 -5.2,-18.4 -11.1,-24 0.6,-1.9 1.4,-3.9 2.2,-5.8 17,-46 38,-103.4 38,-148.3 0,-52.9 -23.1,-100.2 -65.2,-133.6 C 507,165.7 490.4,148.8 469,131 450.7,115.8 430.1,101 410.9,89.1 l -10.9,-6.6 0,0 z"
         id="path4476"
         inkscape:connector-curvature="0" /></g><g
       id="bottom_1_"><path
         style="fill:none;stroke:#f2f2f2;stroke-width:15.11999989;stroke-linecap:round;stroke-miterlimit:10"
         d="m 526.7,548.5 7.2,-55.7 c 0,-19.7 -58.9,-35.2 -133.9,-35.2 -75.1,0 -133.9,15.7 -133.9,35.2 l 7.2,55.7"
         id="path4479"
         inkscape:connector-curvature="0" /><path
         style="fill:none;stroke:#f2f2f2;stroke-width:15.11999989;stroke-linecap:round;stroke-miterlimit:10"
         d="m 273.4,548.5 c 0,-15.7 56.7,-28.4 126.7,-28.4 70,0 126.7,12.7 126.7,28.4"
         id="path4481"
         inkscape:connector-curvature="0" /></g><g
       id="lappets"><path
         id="left_3_"
         style="fill:none;stroke:#f2f2f2;stroke-width:15.11999989;stroke-linecap:round;stroke-miterlimit:10"
         d="m 169.8,491.2 c -35.2,6.3 -58.5,21.1 -58.5,66.2 0,72 38.8,126.7 108.3,126.7 63.3,0 113.9,-59.6 114.8,-156.2"
         inkscape:connector-curvature="0" /><path
         id="right_3_"
         style="display:none;fill:none;stroke:#f2f2f2;stroke-width:15.11999989;stroke-linecap:round;stroke-miterlimit:10"
         d="m 426.3,526.3 c 0,80.4 50.4,154.4 113.1,154.4 52.3,0 93.3,-43.2 93.3,-116.9 0,-24.9 -5.1,-54.1 -13.3,-80.4"
         inkscape:connector-curvature="0" /><path
         id="right_2_3_"
         style="fill:none;stroke:#f2f2f2;stroke-width:15.11999989;stroke-linecap:round;stroke-miterlimit:10"
         d="m 630.1,491.2 c 35.2,6.3 58.5,21.1 58.5,66.2 0,72 -38.8,126.7 -108.3,126.7 -63.3,0 -113.9,-59.6 -114.8,-156.2"
         inkscape:connector-curvature="0" /></g><path
       id="top_1_"
       style="fill:none;stroke:#f2f2f2;stroke-width:15.11999989;stroke-miterlimit:10"
       d="m 518.7,476.2 c 15.8,-44.7 44.4,-113.3 44.4,-161.6 0,-51 -23.9,-92.1 -59.7,-119.7 -22.7,-32.4 -69.9,-69 -103.2,-89.5 -33.5,20.5 -80.6,57.1 -103.2,89.5 -35.9,27.4 -59.7,68.6 -59.7,119.7 0,48.3 28.6,116.9 44.4,161.6"
       inkscape:connector-curvature="0" /><g
       id="cross_3_"><line
         style="fill:none;stroke:#f2f2f2;stroke-width:17.28000069;stroke-miterlimit:10"
         x1="398.89999"
         y1="211.2"
         x2="398.89999"
         y2="395.89999"
         id="line4489" /><line
         style="fill:none;stroke:#f2f2f2;stroke-width:17.28000069;stroke-miterlimit:10"
         x1="329.79999"
         y1="301.89999"
         x2="470.20001"
         y2="301.89999"
         id="line4491" /></g></g></svg>