<?xml version="1.0" encoding="UTF-8" standalone="no"?>
<!-- Generator: Adobe Illustrator 16.0.0, SVG Export Plug-In . SVG Version: 6.00 Build 0)  -->

<svg
   xmlns:dc="http://purl.org/dc/elements/1.1/"
   xmlns:cc="http://creativecommons.org/ns#"
   xmlns:rdf="http://www.w3.org/1999/02/22-rdf-syntax-ns#"
   xmlns:svg="http://www.w3.org/2000/svg"
   xmlns="http://www.w3.org/2000/svg"
   xmlns:sodipodi="http://sodipodi.sourceforge.net/DTD/sodipodi-0.dtd"
   xmlns:inkscape="http://www.inkscape.org/namespaces/inkscape"
   version="1.1"
   id="Layer_1"
   x="0px"
   y="0px"
   width="800px"
   height="800px"
   viewBox="0 0 800 800"
   style="enable-background:new 0 0 800 800;"
   xml:space="preserve"
   inkscape:version="0.91 r13725"
   sodipodi:docname="bK.svg"><metadata
     id="metadata4469"><rdf:RDF><cc:Work
         rdf:about=""><dc:format>image/svg+xml</dc:format><dc:type
           rdf:resource="http://purl.org/dc/dcmitype/StillImage" /><dc:title></dc:title></cc:Work></rdf:RDF></metadata><defs
     id="defs4467" /><sodipodi:namedview
     pagecolor="#ffffff"
     bordercolor="#666666"
     borderopacity="1"
     objecttolerance="10"
     gridtolerance="10"
     guidetolerance="10"
     inkscape:pageopacity="0"
     inkscape:pageshadow="2"
     inkscape:window-width="1920"
     inkscape:window-height="1039"
     id="namedview4465"
     showgrid="false"
     inkscape:zoom="0.295"
     inkscape:cx="400"
     inkscape:cy="400"
     inkscape:window-x="0"
     inkscape:window-y="20"
     inkscape:window-maximized="0"
     inkscape:current-layer="Layer_1" /><g
     id="black_king"
     transform="matrix(1,0,0,-1,0,803.9)"><path
       id="silhouette"
       d="m 694.7,363.2 c -9.7,-7.5 -22.6,-11.2 -38,-11.2 -0.4,0 -1,0 -1.4,0 -2.1,0 -4.2,0.1 -6.5,0.1 -2.7,0 -5.6,0.1 -8.5,0.1 3.3,-23.7 0.6,-41.6 -8,-55.5 -6.6,-10.6 -15.9,-18.3 -27.8,-22.9 -9.3,-3.7 -20.3,-5.4 -33.6,-5.4 -12.2,0 -25.2,1.4 -38.8,3.2 -3,-14.1 -9.3,-25.4 -18.7,-33.5 -9.5,-8.3 -20.6,-12.5 -33,-12.5 -24.1,0 -47.2,16.3 -65.9,29.6 l 0,-80.7 49.7,0 0,-30.2 -49.7,0 0,-49.7 -30.2,0 0,49.7 -46.4,0 0,30.2 46.4,0 0,78.9 c -18.3,-13 -40.4,-28 -63.5,-28 -12.4,0 -23.5,4.2 -33,12.5 -9.4,8.1 -15.6,19.3 -18.7,33.5 -13.7,-1.8 -26.7,-3.2 -38.9,-3.2 -13.3,0 -24.3,1.7 -33.7,5.4 -11.9,4.6 -21.2,12.3 -27.8,22.9 -8.6,14 -11.3,32 -8.1,55.5 -2.8,0 -5.6,-0.1 -8.2,-0.1 -2.5,0 -4.9,-0.1 -7,-0.1 -0.4,0 -1,0 -1.4,0 -15.2,0 -28.4,3.9 -38.2,11.1 -8.5,6.4 -18.6,18.3 -18.6,39.4 0,26.1 18.3,53.8 37.5,83.2 1.9,2.9 3.8,5.8 5.7,8.7 l 25.6,53.9 c -7.6,8.3 -11.3,17.3 -11.3,26.8 l 0,2.2 0.4,2.2 15.7,64.6 c 1.1,12.9 10.2,24 27,32.9 12.6,6.7 30.1,12.5 52.1,17.5 43.1,9.7 100.1,15 160.6,15 60,0 116.7,-5.3 159.7,-14.8 21.8,-4.9 39.3,-10.7 52.1,-17.3 17.1,-8.9 26.5,-19.9 27.9,-32.6 l 14.7,-65.7 0.6,-1.9 0,-2.1 c 0,-9.4 -4,-18.1 -11.6,-26.1 l 23.8,-52.6 c 2.5,-3.7 4.9,-7.5 7.3,-11 19.4,-29.2 37.8,-56.7 37.8,-82.7 0,-21.1 -9.9,-33 -18.1,-39.3 z"
       inkscape:connector-curvature="0" /><g
       id="top_3_"><path
         id="_x31__5_"
         style="fill:none;stroke:#f2f2f2;stroke-width:15.11999989;stroke-linecap:round;stroke-miterlimit:10"
         d="m 182,371.5 c -11.9,0.3 -25.9,-0.1 -37.5,-0.3 -21.9,-0.3 -39.4,8.7 -39.4,32.2 0,39.1 60.6,95.7 73.3,146.7"
         inkscape:connector-curvature="0" /><path
         id="_x32__5_"
         style="fill:none;stroke:#f2f2f2;stroke-width:15.11999989;stroke-linecap:round;stroke-miterlimit:10"
         d="m 284.1,293.5 c -45.6,-6.3 -83.3,-13.8 -100.3,13.7 -27,43.6 35.6,150.7 55.1,222.4"
         inkscape:connector-curvature="0" /><path
         id="_x33__3_"
         style="fill:none;stroke:#f2f2f2;stroke-width:15.11999989;stroke-linecap:round;stroke-miterlimit:10"
         d="m 398.9,286.8 c -24.3,-9 -67.9,-61.7 -99.8,-33.9 -43.6,37.9 22.9,173.9 38.1,260.5"
         inkscape:connector-curvature="0" /><path
         id="_x31__4_"
         style="fill:none;stroke:#f2f2f2;stroke-width:15.11999989;stroke-linecap:round;stroke-miterlimit:10"
         d="m 617.9,371.5 c 11.9,0.3 25.9,-0.1 37.5,-0.3 21.9,-0.3 39.4,8.7 39.4,32.2 0,39.1 -60.6,95.7 -73.3,146.7"
         inkscape:connector-curvature="0" /><path
         id="_x32__3_"
         style="fill:none;stroke:#f2f2f2;stroke-width:15.11999989;stroke-linecap:round;stroke-miterlimit:10"
         d="m 515.9,293.5 c 45.6,-6.3 83.3,-13.8 100.3,13.7 27,43.6 -35.6,150.7 -55.1,222.4"
         inkscape:connector-curvature="0" /><path
         id="_x33__2_"
         style="fill:none;stroke:#f2f2f2;stroke-width:15.11999989;stroke-linecap:round;stroke-miterlimit:10"
         d="m 401.1,286.8 c 24.3,-9 67.9,-61.7 99.8,-33.9 43.6,37.9 -22.9,173.9 -38.1,260.5"
         inkscape:connector-curvature="0" /></g><path
       id="middle_4_"
       style="stroke:#f2f2f2;stroke-width:12.96000004;stroke-linecap:round;stroke-miterlimit:10"
       d="m 177.9,554 c 34,-23.3 120.6,-39.6 222,-39.6 102.5,0 190.3,16.3 223.6,40 l 31.8,-78.1 c -11.8,13.1 -23.7,18.5 -33.9,15.3 -26.9,-8.4 -26.5,-40.6 -24.4,-66.5 -16.4,29.5 -39.3,44.7 -63.9,39.5 -24.9,-5.3 -40,-40.5 -39,-68.6 -17.5,35.6 -49.4,54.1 -94.1,54.1 -44.7,0 -76.6,-18.6 -94.1,-54.2 1.1,28.1 -14,63.3 -39,68.6 -24.6,5.2 -47.4,-10 -63.9,-39.5 1.9,25.9 2.6,58.5 -24.4,66.5 -9.1,2.7 -22.1,-3.8 -33.9,-15.3 l 33.2,77.8 z"
       inkscape:connector-curvature="0" /><g
       id="bottom_5_"><path
         style="display:none;fill:none;stroke:#f2f2f2;stroke-width:15.11999989;stroke-linecap:round;stroke-miterlimit:10"
         d="m 621.4,642.2 c 0,27.4 -99.1,49.7 -221.4,49.7 -122.3,0 -221.4,-22.2 -221.4,-49.7"
         id="path4454"
         inkscape:connector-curvature="0" /><path
         style="fill:none;stroke:#f2f2f2;stroke-width:12.96000004;stroke-linecap:round;stroke-miterlimit:10"
         d="m 162.5,575.9 c 0,-34.3 106.3,-61.7 237.4,-61.7 131.1,0 237.4,27.3 237.4,61.7"
         id="path4456"
         inkscape:connector-curvature="0" /><line
         style="fill:none;stroke:#f2f2f2;stroke-width:12.96000004;stroke-linecap:round;stroke-miterlimit:10"
         x1="162.3"
         y1="577.70001"
         x2="178.5"
         y2="642.79999"
         id="line4458" /><line
         style="fill:none;stroke:#f2f2f2;stroke-width:12.96000004;stroke-linecap:round;stroke-miterlimit:10"
         x1="637.70001"
         y1="577.70001"
         x2="621.5"
         y2="642.79999"
         id="line4460" /><path
         style="fill:none;stroke:#f2f2f2;stroke-width:15.11999989;stroke-linecap:round;stroke-miterlimit:10"
         d="m 178.6,642.2 c 0,-27.4 99.1,-49.7 221.4,-49.7 122.3,0 221.4,22.2 221.4,49.7"
         id="path4462"
         inkscape:connector-curvature="0" /></g><line
       id="line_2_"
       style="fill:none;stroke:#f2f2f2;stroke-width:6.48000002;stroke-linecap:round;stroke-miterlimit:10"
       x1="400"
       y1="286.79999"
       x2="400"
       y2="447.70001" /></g></svg>