<?xml version="1.0" encoding="UTF-8" standalone="no"?>
<!-- Generator: Adobe Illustrator 16.0.0, SVG Export Plug-In . SVG Version: 6.00 Build 0)  -->

<svg
   xmlns:dc="http://purl.org/dc/elements/1.1/"
   xmlns:cc="http://creativecommons.org/ns#"
   xmlns:rdf="http://www.w3.org/1999/02/22-rdf-syntax-ns#"
   xmlns:svg="http://www.w3.org/2000/svg"
   xmlns="http://www.w3.org/2000/svg"
   xmlns:sodipodi="http://sodipodi.sourceforge.net/DTD/sodipodi-0.dtd"
   xmlns:inkscape="http://www.inkscape.org/namespaces/inkscape"
   version="1.1"
   id="Layer_1"
   x="0px"
   y="0px"
   width="800px"
   height="800px"
   viewBox="0 0 800 800"
   style="enable-background:new 0 0 800 800;"
   xml:space="preserve"
   inkscape:version="0.91 r13725"
   sodipodi:docname="bR.svg"><metadata
     id="metadata4369"><rdf:RDF><cc:Work
         rdf:about=""><dc:format>image/svg+xml</dc:format><dc:type
           rdf:resource="http://purl.org/dc/dcmitype/StillImage" /><dc:title></dc:title></cc:Work></rdf:RDF></metadata><defs
     id="defs4367" /><sodipodi:namedview
     pagecolor="#ffffff"
     bordercolor="#666666"
     borderopacity="1"
     objecttolerance="10"
     gridtolerance="10"
     guidetolerance="10"
     inkscape:pageopacity="0"
     inkscape:pageshadow="2"
     inkscape:window-width="1920"
     inkscape:window-height="1039"
     id="namedview4365"
     showgrid="false"
     inkscape:zoom="0.295"
     inkscape:cx="400"
     inkscape:cy="400"
     inkscape:window-x="0"
     inkscape:window-y="20"
     inkscape:window-maximized="0"
     inkscape:current-layer="Layer_1" /><g
     id="black_rook"
     transform="matrix(1,0,0,-1,0,853.5)"><g
       id="silhouette_4_"><path
         d="m 398.3,708.2 c -56.2,0 -108.6,-5.8 -148.3,-16.5 -44.6,-12.1 -67.1,-28.4 -67.1,-48.5 l 0,-61.2 c 0,-28.3 43.1,-46.1 73.2,-55.2 L 264,354.3 c -3.2,-2.6 -5.6,-5.3 -7.2,-8.2 l -0.2,-0.3 -24.3,-52.8 c -7,-3.5 -19,-10.7 -19,-22.2 l 0,-125.5 73.4,0 0,50.8 42.1,0 0,-50.2 135,0.1 0,50.1 42.1,0 0,-50.8 74.5,0 0,125.4 c 0,7.7 -4.1,14.4 -12.7,19.8 l -23.6,55.5 -0.4,0.8 c -2.1,3.1 -4.9,6 -8.4,8.7 l 7.5,171.1 c 20.6,6 38,13.5 50.5,21.6 16.2,10.5 24.3,21.8 24.3,34 0,0.8 0,1.6 -0.1,2.5 l -0.1,58.8 c 0,20.2 -23,36.5 -68.4,48.5 -40.4,10.3 -93.8,16.2 -150.7,16.2 z"
         id="path4357"
         inkscape:connector-curvature="0" /><path
         d="m 570.6,155 0,115.7 c 0,4.5 -3.1,9 -10.7,13.1 l -24.5,57.7 c -2.1,3.2 -5.5,6.2 -10.2,9 l 8,183.5 c 46.3,12.5 74.6,30.8 74.6,48.2 0,0.6 0,1.3 -0.1,1.9 l -0.1,59.3 c 0,30.6 -93.1,55.4 -209.2,55.4 -114.5,0 -205.8,-24.7 -205.8,-55.4 l 0,-61.2 0,0 c 0,-17.2 27.4,-35.3 72.8,-47.8 l 8.4,-184.7 c -4,-2.6 -7.1,-5.3 -8.7,-8.1 l -25.6,-55.7 c -10.2,-4.5 -16.6,-9.6 -16.6,-15 l 0,-115.9 54,0 0,50.8 61.6,0 0,-50.3 115.6,0.1 0,50.2 61.6,0 0,-50.8 54.9,0 m 19.5,-19.4 -18.9,0 -55.2,0 -18.8,0 0,19.5 0,31.2 -23.8,0 0,-30.8 0,-19.2 -19.3,0 -115,-0.1 -19.1,0 0,19.3 0,30.8 -23.8,0 0,-31.2 0,-19.5 -19.4,0 -54.1,0 -19.2,0 0,19.5 0,115.6 c 0,15.3 12.4,24.4 21.3,29.3 l 22.8,49.5 0.3,0.8 0.4,0.8 c 1.5,2.7 3.5,5.2 5.7,7.5 l -7.3,161.1 c -18.4,5.9 -33.5,12.9 -45.4,20.6 -12.9,8.4 -28.1,22.6 -28.1,41.8 l 0,61.2 c 0,18 13.5,30.6 24.8,37.8 12,7.7 28.5,14.4 49.4,20 40.4,10.9 94,16.8 151,16.8 57.7,0 112.1,-6 153.1,-16.8 21.1,-5.6 37.9,-12.3 50.1,-20 11.6,-7.2 25.4,-19.8 25.4,-37.9 l 0.1,-58.2 c 0.1,-1.1 0.1,-2.1 0.1,-3 0,-8.6 -3.1,-17.1 -9.2,-24.9 -4.6,-6 -11.2,-11.9 -19.5,-17.2 -12.1,-7.8 -27.6,-14.8 -46.4,-20.7 l -6.9,-159.5 c 2.7,-2.5 4.9,-5.1 6.7,-7.8 l 1,-1.4 0.6,-1.5 22.1,-52.1 c 12.1,-8.6 14.7,-18.8 14.7,-26.1 l 0,-115.8 0,-19.4 -0.2,0 z"
         id="path4359"
         inkscape:connector-curvature="0" /></g><path
       id="bottom_7_"
       style="fill:none;stroke:#f2f2f2;stroke-width:16.05069923;stroke-linecap:round;stroke-linejoin:round;stroke-miterlimit:10"
       d="m 606.1,586.6 c -8.9,28.4 -96.9,50.8 -205.4,50.8 -114.5,0 -208.3,-25.1 -208.3,-55.6"
       inkscape:connector-curvature="0" /><path
       id="middle_5_"
       style="fill:none;stroke:#f2f2f2;stroke-width:12.96000004;stroke-linecap:round;stroke-miterlimit:10"
       d="m 534.3,541.2 c 0,19.7 -60.9,33.9 -134.4,33.9 l 0.1,0 c -73.4,0 -134.4,-14.3 -134.4,-33.9 l 6.5,-190.7"
       inkscape:connector-curvature="0" /><path
       id="top_bottom_2_"
       style="fill:none;stroke:#f2f2f2;stroke-width:10.80000019;stroke-linecap:round;stroke-miterlimit:10"
       d="M 534.6,341.3 C 525.2,357.9 472.9,370 400,370 l 0.1,0 c -72.9,0 -125.3,-12.1 -134.7,-28.6 l -24.5,-54.5"
       inkscape:connector-curvature="0" /><path
       id="top_13_"
       style="fill:none;stroke:#f2f2f2;stroke-width:15.11999989;stroke-linecap:round;stroke-miterlimit:10"
       d="m 572.8,270.6 0,-116.6 -57.2,0 0,50.8 -61.6,0 0,-49.1 -115.6,-0.1 0,49.2 -61.6,0 0,-50.8 -52.8,0 0,116.6 0,0 c 0,20.1 81.5,36.4 175.3,36.4 93.7,0 173.5,-16.2 173.5,-36.4 l 0,0 z"
       inkscape:connector-curvature="0" /></g></svg>