<?xml version="1.0" encoding="UTF-8" standalone="no"?>
<svg
   xmlns:dc="http://purl.org/dc/elements/1.1/"
   xmlns:cc="http://creativecommons.org/ns#"
   xmlns:rdf="http://www.w3.org/1999/02/22-rdf-syntax-ns#"
   xmlns:svg="http://www.w3.org/2000/svg"
   xmlns="http://www.w3.org/2000/svg"
   xmlns:xlink="http://www.w3.org/1999/xlink"
   xmlns:sodipodi="http://sodipodi.sourceforge.net/DTD/sodipodi-0.dtd"
   xmlns:inkscape="http://www.inkscape.org/namespaces/inkscape"
   width="700pt"
   height="700pt"
   viewBox="-20 0 900 900"
   sodipodi:version=".32"
   version="1"
   sodipodi:docname="wP.svg"
   id="svg5105"
   inkscape:version="0.91 r13725">
  <metadata
     id="metadata5129">
    <rdf:RDF>
      <cc:Work
         rdf:about="">
        <dc:format>image/svg+xml</dc:format>
        <dc:type
           rdf:resource="http://purl.org/dc/dcmitype/StillImage" />
        <dc:title></dc:title>
      </cc:Work>
    </rdf:RDF>
  </metadata>
  <defs
     id="defs5107">
    <linearGradient
       id="a">
      <stop
         offset="0"
         stop-color="#fff"
         id="stop5110" />
      <stop
         offset="1"
         stop-color="#d0b090"
         id="stop5112" />
    </linearGradient>
    <linearGradient
       xlink:href="#a"
       id="b"
       x1="586.526"
       y1="328.043"
       x2="1126.022"
       y2="534.203"
       gradientUnits="userSpaceOnUse" />
    <linearGradient
       xlink:href="#a"
       id="d"
       x1="275.244"
       y1="458.656"
       x2="862.652"
       y2="560.747"
       gradientUnits="userSpaceOnUse" />
    <linearGradient
       xlink:href="#a"
       id="c"
       x1="300.273"
       y1="623.782"
       x2="774.046"
       y2="764.899"
       gradientUnits="userSpaceOnUse" />
  </defs>
  <sodipodi:namedview
     pagecolor="#ffffff"
     bordercolor="#666666"
     borderopacity="1"
     id="namedview5117"
     showgrid="false"
     inkscape:zoom="0.26971429"
     inkscape:cx="-237.28814"
     inkscape:cy="437.5"
     inkscape:window-width="1920"
     inkscape:window-height="1039"
     inkscape:window-x="0"
     inkscape:window-y="20"
     inkscape:window-maximized="0"
     inkscape:current-layer="svg5105" />
  <g
     id="g5119"
     transform="matrix(1,0,0,-1,3.5974146e-7,930.95375)"
     style="fill-rule:evenodd;stroke:#000000;stroke-linecap:round;stroke-linejoin:round">
    <ellipse
       transform="matrix(0.734,0,0,0.736,-120.66,30.436)"
       id="path5121"
       style="fill:url(#b);stroke-width:21.76199913"
       cx="760"
       cy="373.33301"
       rx="166.66701"
       ry="150" />
    <path
       d="m 397.417,467.01 c 1.47,170.175 -86.733,221.098 -127.967,250.246 -34.192,24.17 -25.463,82.342 19.906,85.31 28.113,1.84 276.613,2.362 305.65,-0.842 51.382,-5.67 52.847,-66.7 19.69,-87.31 -52.61,-32.704 -136.192,-69.54 -138.5,-247.09 -0.44,-33.313 -79.04,-30.01 -78.78,-0.313 z"
       sodipodi:nodetypes="cssssss"
       id="path5123"
       style="fill:url(#c);stroke-width:16"
       inkscape:connector-curvature="0" />
    <path
       d="m 340.353,432.735 c -74.195,19.066 -100.11,66.02 -100.11,66.02 l 408.847,0 c 0,0 -43.432,-51.836 -110.025,-66.685 -85.24,-19.007 -129.173,-17.204 -198.712,0.665 z"
       sodipodi:nodetypes="cccss"
       id="path5125"
       style="fill:url(#d);stroke-width:16"
       inkscape:connector-curvature="0" />
    <path
       d="m 339.12,713.675 187.904,0"
       sodipodi:nodetypes="cc"
       id="path5127"
       inkscape:connector-curvature="0"
       style="fill:none;fill-opacity:0.75;stroke-width:16" />
  </g>
</svg>
