<?xml version="1.0" encoding="UTF-8" standalone="no"?>
<svg
   xmlns:dc="http://purl.org/dc/elements/1.1/"
   xmlns:cc="http://creativecommons.org/ns#"
   xmlns:rdf="http://www.w3.org/1999/02/22-rdf-syntax-ns#"
   xmlns:svg="http://www.w3.org/2000/svg"
   xmlns="http://www.w3.org/2000/svg"
   xmlns:xlink="http://www.w3.org/1999/xlink"
   xmlns:sodipodi="http://sodipodi.sourceforge.net/DTD/sodipodi-0.dtd"
   xmlns:inkscape="http://www.inkscape.org/namespaces/inkscape"
   width="700pt"
   height="700pt"
   viewBox="-20 0 900 900"
   sodipodi:version=".32"
   version="1"
   sodipodi:docname="wQ.svg"
   id="svg4507"
   inkscape:version="0.91 r13725">
  <metadata
     id="metadata4563">
    <rdf:RDF>
      <cc:Work
         rdf:about="">
        <dc:format>image/svg+xml</dc:format>
        <dc:type
           rdf:resource="http://purl.org/dc/dcmitype/StillImage" />
        <dc:title></dc:title>
      </cc:Work>
    </rdf:RDF>
  </metadata>
  <defs
     id="defs4509">
    <linearGradient
       id="a">
      <stop
         offset="0"
         stop-color="#fff"
         id="stop4512" />
      <stop
         offset="1"
         stop-color="#d0b090"
         id="stop4514" />
    </linearGradient>
    <linearGradient
       xlink:href="#a"
       id="g"
       x1="785.141"
       y1="294.759"
       x2="840.911"
       y2="363.089"
       gradientUnits="userSpaceOnUse" />
    <linearGradient
       xlink:href="#a"
       id="e"
       x1="649.863"
       y1="171.18"
       x2="711.117"
       y2="227.749"
       gradientUnits="userSpaceOnUse" />
    <linearGradient
       xlink:href="#a"
       id="c"
       x1="406.012"
       y1="103.532"
       x2="470.835"
       y2="132.994"
       gradientUnits="userSpaceOnUse" />
    <linearGradient
       xlink:href="#a"
       id="i"
       x1="167.872"
       y1="174.997"
       x2="234.62"
       y2="174.997"
       gradientUnits="userSpaceOnUse" />
    <linearGradient
       xlink:href="#a"
       id="k"
       x1="23.458"
       y1="337.855"
       x2="87.371"
       y2="315.463"
       gradientUnits="userSpaceOnUse" />
    <linearGradient
       xlink:href="#a"
       id="j"
       x1="339.471"
       y1="530.606"
       x2="514.54"
       y2="571.593"
       gradientUnits="userSpaceOnUse" />
    <linearGradient
       xlink:href="#a"
       id="d"
       x1="339.471"
       y1="530.606"
       x2="495.022"
       y2="584.758"
       gradientUnits="userSpaceOnUse" />
    <linearGradient
       xlink:href="#a"
       id="f"
       x1="339.471"
       y1="530.606"
       x2="487.215"
       y2="584.758"
       gradientUnits="userSpaceOnUse" />
    <linearGradient
       xlink:href="#a"
       id="h"
       x1="339.471"
       y1="530.606"
       x2="498.926"
       y2="584.758"
       gradientUnits="userSpaceOnUse" />
    <linearGradient
       xlink:href="#a"
       id="l"
       x1="339.471"
       y1="530.606"
       x2="510.637"
       y2="584.758"
       gradientUnits="userSpaceOnUse" />
    <linearGradient
       xlink:href="#a"
       id="b"
       x1="153.604"
       y1="380.54"
       x2="761.364"
       y2="682.207"
       gradientUnits="userSpaceOnUse" />
    <linearGradient
       inkscape:collect="always"
       xlink:href="#a"
       id="linearGradient10974"
       gradientUnits="userSpaceOnUse"
       x1="153.604"
       y1="380.54"
       x2="761.364"
       y2="682.207" />
    <linearGradient
       inkscape:collect="always"
       xlink:href="#a"
       id="linearGradient10976"
       gradientUnits="userSpaceOnUse"
       x1="153.604"
       y1="380.54"
       x2="761.364"
       y2="682.207" />
    <linearGradient
       inkscape:collect="always"
       xlink:href="#a"
       id="linearGradient10978"
       gradientUnits="userSpaceOnUse"
       x1="153.604"
       y1="380.54"
       x2="761.364"
       y2="682.207" />
    <linearGradient
       inkscape:collect="always"
       xlink:href="#a"
       id="linearGradient10980"
       gradientUnits="userSpaceOnUse"
       x1="153.604"
       y1="380.54"
       x2="761.364"
       y2="682.207" />
    <linearGradient
       inkscape:collect="always"
       xlink:href="#a"
       id="linearGradient10982"
       gradientUnits="userSpaceOnUse"
       x1="153.604"
       y1="380.54"
       x2="761.364"
       y2="682.207" />
  </defs>
  <sodipodi:namedview
     pagecolor="#ffffff"
     bordercolor="#666666"
     borderopacity="1"
     id="namedview4527"
     showgrid="false"
     inkscape:zoom="0.26971429"
     inkscape:cx="-237.28814"
     inkscape:cy="437.5"
     inkscape:window-width="1920"
     inkscape:window-height="1039"
     inkscape:window-x="0"
     inkscape:window-y="20"
     inkscape:window-maximized="0"
     inkscape:current-layer="svg4507" />
  <g
     id="g4529"
     transform="matrix(1,0,0,-1,0,918.02231)"
     style="fill-rule:evenodd">
    <g
       id="g4531"
       style="fill:url(#b);stroke-width:16">
      <path
         sodipodi:nodetypes="ccccc"
         d="m 243.935,824.89 -50.378,-166.212 433.768,1.318 -49.52,169.68 -333.87,-4.786 z"
         id="path4533"
         style="fill:url(#linearGradient10974)"
         inkscape:connector-curvature="0" />
      <path
         sodipodi:nodetypes="ccccc"
         d="m 612.713,716.28 c -122.2,-43.67 -283.406,-43.923 -402.394,-0.104 12.584,30.53 15.918,92.998 15.918,92.998 100.72,-28.173 271.954,-27.317 371.885,4.188 0,0 2.31,-66.707 14.59,-97.082 z"
         id="path4535"
         style="fill:url(#linearGradient10976);stroke:#000000;stroke-linecap:round;stroke-linejoin:round"
         inkscape:connector-curvature="0" />
      <path
         sodipodi:nodetypes="cccccccccccc"
         d="m 195.104,697.915 c 121.85,-52.686 312.58,-53.52 435.577,0.41 12.127,-105.036 50.35,-234.696 122.684,-327.7 -54.848,21.463 -134.48,158.864 -180.775,184.76 -36.305,-76.264 35.543,-274.205 63.477,-316.13 -46.9,28.22 -146.147,203.016 -175.47,284.785 -42.265,-94.445 -32.372,-271.082 -33.383,-345.108 -31.796,69.553 -73.518,229.373 -77.788,342.314 -81.193,-60.864 -109.846,-225.27 -131.5,-290.406 -11.925,93.798 8.883,257.173 22.622,323.227 -52.792,-35.593 -114.44,-113.92 -165.61,-180.305 65.058,155.574 88.607,202.693 120.166,324.153 z"
         id="path4537"
         style="fill:url(#linearGradient10978);stroke:#000000;stroke-linecap:round;stroke-linejoin:round"
         inkscape:connector-curvature="0" />
      <path
         sodipodi:nodetypes="ccscscscs"
         d="m 407.763,699.782 c -18.998,-0.098 -8.585,14.635 -12.318,21.115 -8.538,4.95 -36.246,-3.832 -27.327,14.34 6.32,12.874 15.766,6.813 26.377,10.96 5.276,7.268 -3.643,29.367 15.037,28.904 15.427,-0.382 7.018,-22.43 10.316,-28.37 9.326,-6.095 21.562,2.164 27.734,-13.453 4.686,-11.856 -18.512,-7.458 -27.673,-12.564 -3.838,-5.73 7.62,-20.828 -12.147,-20.93 z"
         id="path4539"
         style="fill:url(#linearGradient10980);stroke:#000000;stroke-linecap:round;stroke-linejoin:round"
         inkscape:connector-curvature="0" />
      <path
         sodipodi:nodetypes="ccc"
         d="m 244.573,825.273 c 88.823,10.6 232.722,14.36 332.958,4.407 -56.567,-25.28 -259.89,-25.068 -332.957,-4.407 z"
         id="path4541"
         style="fill:url(#linearGradient10982);stroke:#000000;stroke-linecap:round;stroke-linejoin:round"
         inkscape:connector-curvature="0" />
    </g>
    <path
       d="m 474.62,82.518 c -8.56,0.188 -34.943,4.62 -50.798,12.528 -4.81,12.11 -2.312,47.606 0.13,76.64 15.186,-24.37 48.738,-66.254 50.668,-89.168 z"
       sodipodi:nodetypes="cccc"
       id="path4543"
       style="fill:url(#c);stroke:#000000;stroke-width:16;stroke-linecap:round;stroke-linejoin:round"
       inkscape:connector-curvature="0" />
    <ellipse
       transform="matrix(0.854,0,0,0.854,87.235,-271.506)"
       id="path4545"
       style="fill:url(#d);stroke:#000000;stroke-width:18.73699951;stroke-linecap:round;stroke-linejoin:round"
       cx="394.80099"
       cy="530.60602"
       rx="45.962002"
       ry="44.783001" />
    <path
       sodipodi:nodetypes="cccc"
       d="m 714.902,206.005 c -4.717,-5.653 -1.71,-16 -40.003,-37.055 l -48.857,61.03 c 27.41,-8.55 70.764,-21.46 88.86,-23.975 z"
       id="path4547"
       style="fill:url(#e);stroke:#000000;stroke-width:16;stroke-linecap:round;stroke-linejoin:round"
       inkscape:connector-curvature="0" />
    <ellipse
       transform="matrix(0.854,0,0,0.854,295.235,-211.506)"
       id="path4549"
       style="fill:url(#f);stroke:#000000;stroke-width:18.73699951;stroke-linecap:round;stroke-linejoin:round"
       cx="394.80099"
       cy="530.60602"
       rx="45.962002"
       ry="44.783001" />
    <path
       d="m 845.56,351.89 c 2.674,-13.826 -12.17,-18.267 -26.41,-37.323 -19.837,8.122 -42.818,17.81 -59.007,40.522 40.867,-8.43 59.444,4.057 85.417,-3.2 z"
       sodipodi:nodetypes="cccc"
       id="path4551"
       style="fill:url(#g);stroke:#000000;stroke-width:16;stroke-linecap:round;stroke-linejoin:round"
       inkscape:connector-curvature="0" />
    <ellipse
       transform="matrix(0.854,0,0,0.854,417.85,-85.749)"
       id="path4553"
       style="fill:url(#h);stroke:#000000;stroke-width:18.73699951;stroke-linecap:round;stroke-linejoin:round"
       cx="394.80099"
       cy="530.60602"
       rx="45.962002"
       ry="44.783001" />
    <path
       sodipodi:nodetypes="cccc"
       d="m 226.62,154.518 c -10.56,-11.812 -22.893,-10.117 -50.748,-14.208 0.972,33.726 21.104,43.135 33.08,69.375 15.186,-24.37 12.738,-25.253 17.668,-55.167 z"
       id="path4555"
       style="fill:url(#i);stroke:#000000;stroke-width:16;stroke-linecap:round;stroke-linejoin:round"
       inkscape:connector-curvature="0" />
    <ellipse
       transform="matrix(0.854,0,0,0.854,-123.765,-219.506)"
       id="path4557"
       style="fill:url(#j);stroke:#000000;stroke-width:18.73699951;stroke-linecap:round;stroke-linejoin:round"
       cx="394.80099"
       cy="530.60602"
       rx="45.962002"
       ry="44.783001" />
    <path
       d="m 50.263,289.782 c -13.447,2.8 -14.585,30.312 -18.805,44.426 15.057,16.595 30.367,26.05 43.52,51.72 14.065,-25.033 -8.76,-76.936 -24.715,-96.146 z"
       sodipodi:nodetypes="cccc"
       id="path4559"
       style="fill:url(#k);stroke:#000000;stroke-width:16;stroke-linecap:round;stroke-linejoin:round"
       inkscape:connector-curvature="0" />
    <ellipse
       transform="matrix(0.854,0,0,0.854,-249.108,-68.921)"
       id="path4561"
       style="fill:url(#l);stroke:#000000;stroke-width:18.73699951;stroke-linecap:round;stroke-linejoin:round"
       cx="394.80099"
       cy="530.60602"
       rx="45.962002"
       ry="44.783001" />
  </g>
</svg>
