<svg xmlns="http://www.w3.org/2000/svg" viewBox="0 0 2048 2048"><path fill="#101010" d="M1024 1843H383l29-264 159-118 50-659-149-107-17-341h289v147h137V354h286v147h137V354h289l-17 341-149 107 50 659 159 118 29 264h-641zm0-989h333l-6-88H697l-6 88h333zm0 647h381l-6-87H649l-6 87h381z"/><path d="M650.847 1457.03v-39.05H1397.152v78.101H650.847v-39.05zM694.237 837.64c0-8.948 2.441-28.474 5.424-43.39l5.424-27.118h637.83l5.424 27.119c13.066 65.329 43.88 59.66-324.339 59.66-316.65 0-329.763-.646-329.763-16.27z" fill="#ececec"/></svg>