<svg xmlns="http://www.w3.org/2000/svg" width="144" height="144" viewBox="0 0 3810 3810" shape-rendering="geometricPrecision" text-rendering="geometricPrecision" image-rendering="optimizeQuality" fill-rule="evenodd" clip-rule="evenodd"><defs><style>.fil1{fill:#111}.fil0{fill:#383838}</style></defs><g id="Warstwa_x0020_1"><path class="fil0" d="M1259 1694l1283 4 209 1590-1688-22z"/><path class="fil0" d="M1002 1747h1802l217-1151-524 31v282h-307V636h-549v273h-320l-3-272-521-41zM793 3235h2217v204H793z"/><path class="fil0" d="M962 3382h1885v153H962z"/><path class="fil0" d="M789 3502h2217v204H789z"/><path class="fil1" d="M2852 606s-146 919-168 986-94 155-94 155h213l217-1151-169 10zM1386 1747h1162l195 1488h266v204l-161-3v63l157 3v204h-316s-24-171-67-269c-42-99-90-78-139-445-49-368-153-1020-153-1020l-945-223z"/><path class="fil1" d="M964 3436h1885v63H964z"/></g></svg>