<svg xmlns="http://www.w3.org/2000/svg" width="144" height="144" viewBox="0 0 3810 3810" shape-rendering="geometricPrecision" text-rendering="geometricPrecision" image-rendering="optimizeQuality" fill-rule="evenodd" clip-rule="evenodd"><defs><style>.fil1{fill:#d1d1d1}.fil0{fill:#fff}</style></defs><g id="Warstwa_x0020_1"><path class="fil0" d="M1870 482s621 269 458 883-570 260-570 260l113-1142zM798 3238h2217v204H798z"/><path class="fil0" d="M967 3385h1885v153H967z"/><path class="fil0" d="M794 3505h2217v204H794zM1580 1553h598l501 1704H1124z"/><path class="fil0" d="M1286 1511h1200v152H1286z"/><path class="fil0" d="M1885 483s-623 269-459 883 572 260 572 260L1885 484z"/><ellipse class="fil0" cx="1880" cy="448" rx="174" ry="143"/><path class="fil1" d="M1970 325s38 51 38 113c0 61-14 118-14 118s162-115-24-231zM967 3442h1885v63H967zM1994 556s221 144 300 333 66 259 50 397-68 224-68 224h209v152h-321l-17-152s-2-42-12-77c-10-36 93-85 104-240 10-155 1-253-53-368-53-116-194-269-194-269z"/><path class="fil1" d="M1541 1663h669l465 1575h341v204h-164v63h160v204h-481v-267l-84-204-312-1429z"/></g></svg>