<svg xmlns="http://www.w3.org/2000/svg" width="144" height="144" viewBox="0 0 3810 3810" shape-rendering="geometricPrecision" text-rendering="geometricPrecision" image-rendering="optimizeQuality" fill-rule="evenodd" clip-rule="evenodd"><defs><style>.fil2{fill:#d1d1d1}.fil1{fill:#fff}</style></defs><g id="Warstwa_x0020_1"><path fill="#fefefe" d="M1342 1632l1098 9 316 1653-1688-24z"/><path class="fil1" d="M798 3241h2217v204H798z"/><path class="fil1" d="M967 3387h1885v153H967z"/><path class="fil1" d="M794 3507h2217v204H794z"/><path class="fil2" d="M1401 1751h1061l288 1489h266v204l-161-3v63l157 3v204h-316s-26-149-71-267c-45-117-85-80-135-448-49-368-150-1101-150-1101l-939-145z"/><path class="fil2" d="M970 3442h1884v63H970z"/><path class="fil1" d="M1088 1531h1638v220H1088z"/><path class="fil1" d="M1278 1611s-241-328-199-572c50-285 382-408 875-435 148-8 98 1007 98 1007h-774z"/><path class="fil1" d="M2515 1611s241-328 199-572c-50-285-382-408-875-435-148-8-98 1007-98 1007h774z"/><path class="fil1" d="M1560 655s253-63 226-169 114-19 114-19l10 146-350 43z"/><path class="fil1" d="M2172 647s-154-75-159-161-114-19-114-19l-10 147 282 34z"/><ellipse class="fil1" cx="1755" cy="279" rx="91" ry="89"/><ellipse class="fil1" cx="1784" cy="417" rx="64" ry="62"/><ellipse class="fil1" cx="2039" cy="279" rx="91" ry="89"/><ellipse class="fil1" cx="2010" cy="417" rx="64" ry="62"/><ellipse class="fil1" cx="1900" cy="200" rx="97" ry="101"/><path class="fil1" d="M1836 526l-81-247 145-79 139 79-75 251z"/><path class="fil2" d="M2014 486s-49 94 18 144c66 50 231 81 319 139 89 58 240 120 241 284 2 164-33 236-139 351-107 116-175 126-175 126h288s87-152 110-226 52-167 36-267-90-225-206-280c-116-56-86-51-170-75-83-24-94-26-103-28s-95-27-95-27-45-25-70-51-55-91-55-91zM2278 1531l34 220h414v-220z"/></g></svg>