<svg xmlns="http://www.w3.org/2000/svg" width="144" height="144" viewBox="0 0 3810 3810" shape-rendering="geometricPrecision" text-rendering="geometricPrecision" image-rendering="optimizeQuality" fill-rule="evenodd" clip-rule="evenodd"><defs><style>.fil1{fill:#d1d1d1}.fil0{fill:#fff}</style></defs><g id="Warstwa_x0020_1"><path class="fil0" d="M1445 1626l892 4 419 1658-1688-24z"/><path class="fil0" d="M798 3235h2217v204H798z"/><path class="fil0" d="M967 3382h1885v153H967z"/><path class="fil0" d="M794 3501h2217v204H794z"/><path class="fil1" d="M1401 1745h965l383 1489h266v204h-161v60l157 3v204h-316s-26-149-71-267c-45-117-85-80-135-448-49-368-253-1117-253-1117l-836-129z"/><path class="fil1" d="M970 3436h1884v63H970z"/><path class="fil0" d="M1088 1526h1638v220H1088z"/><path class="fil0" d="M1352 1563L949 798l497 260-40-684 478 557 32 632z"/><path class="fil0" d="M2416 1563l403-764-498 259 40-683-478 556-18 632z"/><circle class="fil0" cx="949" cy="798" r="100"/><circle class="fil0" cx="1406" cy="374" r="100"/><circle class="fil0" cx="2361" cy="375" r="100"/><circle class="fil1" cx="2819" cy="799" r="100"/><path class="fil1" d="M2421 295l-97 173-240 1058h351l337-639-42-42-409 213 43-584s182-32 57-180zM2260 1526v219h466v-219z"/></g></svg>