<?xml version="1.0" encoding="UTF-8" standalone="no"?>
<svg
   xmlns:dc="http://purl.org/dc/elements/1.1/"
   xmlns:cc="http://creativecommons.org/ns#"
   xmlns:rdf="http://www.w3.org/1999/02/22-rdf-syntax-ns#"
   xmlns:svg="http://www.w3.org/2000/svg"
   xmlns="http://www.w3.org/2000/svg"
   xmlns:sodipodi="http://sodipodi.sourceforge.net/DTD/sodipodi-0.dtd"
   xmlns:inkscape="http://www.inkscape.org/namespaces/inkscape"
   width="68"
   height="68"
   id="svg4509"
   version="1.1"
   inkscape:version="0.91 r13725"
   sodipodi:docname="bP.svg">
  <metadata
     id="metadata4525">
    <rdf:RDF>
      <cc:Work
         rdf:about="">
        <dc:format>image/svg+xml</dc:format>
        <dc:type
           rdf:resource="http://purl.org/dc/dcmitype/StillImage" />
        <dc:title></dc:title>
      </cc:Work>
    </rdf:RDF>
  </metadata>
  <defs
     id="defs4523" />
  <sodipodi:namedview
     pagecolor="#ffffff"
     bordercolor="#666666"
     borderopacity="1"
     objecttolerance="10"
     gridtolerance="10"
     guidetolerance="10"
     inkscape:pageopacity="0"
     inkscape:pageshadow="2"
     inkscape:window-width="1920"
     inkscape:window-height="1039"
     id="namedview4521"
     showgrid="false"
     inkscape:zoom="3.4705882"
     inkscape:cx="34"
     inkscape:cy="34"
     inkscape:window-x="0"
     inkscape:window-y="20"
     inkscape:window-maximized="0"
     inkscape:current-layer="svg4509" />
  <g
     id="g4511"
     transform="matrix(1,0,0,-1,0,68)">
    <g
       id="g4513">
      <g
         style="font-size:64px;line-height:125%;font-family:Chess-7;-inkscape-font-specification:Chess-7;letter-spacing:0;word-spacing:0"
         font-size="64"
         letter-spacing="0"
         word-spacing="0"
         id="g4515">
        <path
           d="m 27.792,29.328 q 0,-1.088 0.768,-1.664 0.448,-0.192 1.856,-1.792 -2.24,-1.024 -3.712,-3.072 -1.408,-2.112 -1.408,-4.8 0,-3.584 2.56,-6.08 2.624,-2.56 6.08,-2.56 3.52,0 6.016,2.56 2.56,2.496 2.56,6.08 0,2.688 -1.472,4.8 -1.408,2.048 -3.584,3.072 1.344,1.6 1.856,1.792 0.64,0.576 0.64,1.664 0,1.088 -0.64,1.728 l -0.768,0.768 q 1.152,2.816 2.176,5.504 1.024,2.688 1.984,4.8 0.768,1.92 2.112,2.496 l 1.408,0.576 2.752,1.664 q 2.752,1.664 3.264,3.008 0.448,1.28 0.576,3.712 0.192,2.368 0.32,5.056 l -38.272,0 q 0,-2.688 0.128,-5.056 0.128,-2.432 0.64,-3.712 0.384,-1.344 3.2,-3.008 l 2.816,-1.664 1.344,-0.576 q 1.344,-0.576 2.176,-2.496 0.896,-2.112 1.984,-4.8 1.088,-2.688 2.176,-5.504 L 28.56,31.056 q -0.768,-0.64 -0.768,-1.728 z m 5.952,-3.008 q -2.688,2.88 -2.88,3.072 0.192,0.256 1.472,1.6 1.344,1.28 1.6,1.6 0.192,-0.32 1.472,-1.6 1.344,-1.344 1.728,-1.6 Q 36.752,29.2 35.28,27.792 33.872,26.32 33.744,26.32 Z"
           id="path4517"
           inkscape:connector-curvature="0" />
      </g>
      <path
         d="m 32.418,30.932 -1.435,-1.516 1.264,-1.396 c 0.695,-0.768 1.35,-1.425 1.452,-1.46 0.103,-0.034 0.884,0.615 1.735,1.443 l 1.548,1.506 -1.565,1.468 -1.564,1.47 -1.436,-1.516 z"
         id="path4519"
         inkscape:connector-curvature="0"
         style="fill:#ffffff;fill-rule:evenodd" />
    </g>
  </g>
</svg>
