<?xml version="1.0" encoding="UTF-8" standalone="no"?>
<svg
   xmlns:dc="http://purl.org/dc/elements/1.1/"
   xmlns:cc="http://creativecommons.org/ns#"
   xmlns:rdf="http://www.w3.org/1999/02/22-rdf-syntax-ns#"
   xmlns:svg="http://www.w3.org/2000/svg"
   xmlns="http://www.w3.org/2000/svg"
   xmlns:sodipodi="http://sodipodi.sourceforge.net/DTD/sodipodi-0.dtd"
   xmlns:inkscape="http://www.inkscape.org/namespaces/inkscape"
   width="68"
   height="68"
   id="svg4389"
   version="1.1"
   inkscape:version="0.91 r13725"
   sodipodi:docname="wK.svg">
  <metadata
     id="metadata4423">
    <rdf:RDF>
      <cc:Work
         rdf:about="">
        <dc:format>image/svg+xml</dc:format>
        <dc:type
           rdf:resource="http://purl.org/dc/dcmitype/StillImage" />
        <dc:title></dc:title>
      </cc:Work>
    </rdf:RDF>
  </metadata>
  <defs
     id="defs4421" />
  <sodipodi:namedview
     pagecolor="#ffffff"
     bordercolor="#666666"
     borderopacity="1"
     objecttolerance="10"
     gridtolerance="10"
     guidetolerance="10"
     inkscape:pageopacity="0"
     inkscape:pageshadow="2"
     inkscape:window-width="1920"
     inkscape:window-height="1039"
     id="namedview4419"
     showgrid="false"
     inkscape:zoom="3.4705882"
     inkscape:cx="34"
     inkscape:cy="34"
     inkscape:window-x="0"
     inkscape:window-y="20"
     inkscape:window-maximized="0"
     inkscape:current-layer="svg4389" />
  <g
     id="g4391"
     transform="matrix(1,0,0,-1,0,68)">
    <g
       id="g4393">
      <g
         style="font-size:64px;line-height:125%;font-family:Chess-7;-inkscape-font-specification:Chess-7;letter-spacing:0;word-spacing:0"
         font-size="64"
         letter-spacing="0"
         word-spacing="0"
         id="g4395">
        <path
           d="m 39.595,57.136 q -3.52,3.52 -3.84,3.712 -1.6,1.472 -3.392,0 -0.384,-0.192 -3.84,-3.84 l -4.48,0.256 -3.968,4.352 27.84,0 -4.032,-4.16 -4.288,-0.32 z M 45.611,52.08 Q 44.651,51.504 43.756,51.056 42.86,50.608 42.22,50.224 40.94,49.648 38.123,49.456 35.371,49.264 34.347,49.2 q -0.96,0.064 -3.392,0.384 -2.368,0.32 -5.376,1.216 -3.137,1.152 -3.84,1.536 l 2.047,2.048 4.736,-0.32 3.84,-4.032 q 1.728,-1.6 3.392,0 l 4.032,4.032 3.904,0.32 1.92,-2.304 z m -25.407,2.88 -0.32,2.496 1.728,-1.408 -1.407,-1.088 z m 0,-5.184 q 0.704,-0.384 1.728,-0.768 1.025,-0.448 2.753,-0.96 2.304,-0.768 4.352,-1.152 2.112,-0.384 3.648,-0.512 L 32.557,34.992 q -1.152,-5.952 -2.56,-11.2 -1.408,-5.248 -3.904,-6.016 -2.88,-0.768 -6.72,-0.448 -3.775,0.32 -4.99,0.896 -1.345,0.704 -3.393,2.624 -1.984,1.856 -2.752,4.16 -0.832,2.432 -1.088,4.352 -0.192,1.92 -0.32,3.136 0,2.496 1.088,7.104 0.64,2.304 1.728,3.968 1.152,1.664 3.328,3.392 1.92,1.664 3.713,2.176 1.792,0.448 3.52,0.64 z m 13.888,-21.44 q 0.577,-2.688 1.217,-5.12 0.704,-2.496 1.664,-4.416 0,-0.64 -0.575,-1.792 -0.512,-0.96 -1.152,-1.792 -0.576,-0.832 -1.024,-1.792 -1.6,2.176 -2.305,3.584 -0.576,1.024 -0.704,1.472 -0.063,0.448 -0.063,0.832 1.728,3.52 2.944,9.024 z m 16.257,24.192 1.28,12.16 -35.586,0 1.408,-12.16 q -1.535,-0.32 -3.07,-0.96 -1.537,-0.704 -3.393,-2.112 -2.56,-2.112 -3.904,-4.16 -1.344,-2.048 -2.112,-4.928 -1.215,-4.736 -1.215,-8 0.064,-1.344 0.32,-3.52 0.32,-2.176 1.408,-4.928 0.896,-2.88 3.456,-5.248 2.56,-2.368 4.223,-3.072 1.472,-0.768 5.952,-1.216 4.48,-0.448 7.744,0.448 1.535,0.64 1.983,1.216 0.768,-1.344 1.792,-2.816 1.088,-1.536 2.048,-2.88 l 0,-1.088 -2.943,0 0,-3.072 2.943,0 0,-2.88 2.944,0 0,2.88 2.752,0 0,3.072 -2.753,0 0,1.088 q 0.896,1.344 1.856,2.816 1.024,1.408 1.792,2.752 0.448,-0.32 0.896,-0.576 0.513,-0.256 0.96,-0.512 3.33,-0.896 7.745,-0.448 4.48,0.448 6.144,1.216 1.47,0.704 4.03,3.072 2.56,2.368 3.65,5.248 0.895,2.752 1.215,4.928 0.32,2.176 0.32,3.52 0.128,3.2 -1.216,8 -0.77,2.88 -2.113,4.928 -1.28,2.048 -3.904,4.16 -1.92,1.536 -3.52,2.24 -1.6,0.64 -3.136,0.832 z m -16.128,-0.32 -3.2,3.264 3.2,3.2 3.07,-3.2 -3.07,-3.264 z m 13.247,2.304 -1.536,1.216 1.857,1.728 -0.32,-2.944 z M 35.436,46.384 q 1.6,0 4.16,0.256 2.56,0.256 3.84,0.832 l 2.048,1.024 q 1.152,0.576 2.304,1.28 1.728,-0.128 3.456,-0.576 1.792,-0.512 3.904,-2.24 3.904,-3.264 4.928,-7.36 1.216,-4.544 1.088,-7.104 0,-1.216 -0.256,-3.136 -0.256,-1.92 -1.152,-4.352 -0.832,-2.304 -2.88,-4.16 -2.048,-1.92 -3.264,-2.624 -1.343,-0.576 -4.99,-0.896 -3.65,-0.32 -6.53,0.448 -2.56,0.768 -3.967,6.016 -1.344,5.248 -2.496,11.2 l -0.192,11.392 z"
           id="path4397"
           inkscape:connector-curvature="0" />
      </g>
      <path
         d="m 22.03,59.555 c 1.036,-1.125 1.952,-2.096 2.036,-2.158 0.084,-0.06 1.107,-0.156 2.273,-0.21 l 2.12,-0.1 2,1.958 c 1.1,1.077 2.2,2.093 2.45,2.257 0.42,0.28 0.025,0.298 -6.158,0.298 l -6.606,0 1.884,-2.045 z"
         id="path4399"
         inkscape:connector-curvature="0"
         style="fill:#ffffff;fill-rule:evenodd" />
      <path
         d="m 20.064,56.588 c 0.065,-0.394 0.12,-0.904 0.12,-1.134 l 0.002,-0.418 0.64,0.487 c 0.706,0.54 0.674,0.673 -0.335,1.39 l -0.544,0.39 0.118,-0.715 z"
         id="path4401"
         inkscape:connector-curvature="0"
         style="fill:#ffffff;fill-rule:evenodd" />
      <path
         d="m 32.59,57.005 -1.495,-1.503 1.59,-1.582 1.592,-1.58 1.487,1.6 1.487,1.603 -1.49,1.483 c -0.82,0.816 -1.53,1.483 -1.582,1.483 -0.05,0 -0.764,-0.678 -1.587,-1.505 z"
         id="path4403"
         inkscape:connector-curvature="0"
         style="fill:#ffffff;fill-rule:evenodd" />
      <path
         d="m 35.39,61.208 c 0.288,-0.216 1.346,-1.2 2.35,-2.187 l 1.827,-1.795 2.082,0.123 2.082,0.123 1.788,1.747 c 0.983,0.96 1.866,1.89 1.96,2.065 0.164,0.3 -0.186,0.318 -6.22,0.318 l -6.395,0 0.524,-0.392 z"
         id="path4405"
         inkscape:connector-curvature="0"
         style="fill:#ffffff;fill-rule:evenodd" />
      <path
         d="m 46.776,56.46 -0.75,-0.77 0.7,-0.5 0.704,-0.502 0.127,1.192 c 0.07,0.655 0.092,1.227 0.05,1.27 -0.044,0.043 -0.418,-0.267 -0.83,-0.69 z"
         id="path4407"
         inkscape:connector-curvature="0"
         style="fill:#ffffff;fill-rule:evenodd" />
      <path
         d="m 41.138,54.152 -1.32,-0.12 -2.36,-2.335 -2.358,-2.333 2.134,0.122 c 2.925,0.168 4.31,0.497 6.176,1.468 0.877,0.456 1.71,0.903 1.85,0.993 0.204,0.13 0.073,0.39 -0.636,1.262 -0.993,1.22 -0.86,1.184 -3.486,0.942 z"
         id="path4409"
         inkscape:connector-curvature="0"
         style="fill:#ffffff;fill-rule:evenodd" />
      <path
         d="m 22.755,53.35 -0.964,-0.976 1.335,-0.55 c 1.715,-0.708 2.675,-1.027 4.5,-1.493 1.26,-0.32 4.607,-0.907 5.2,-0.91 0.102,0 -0.84,1.03 -2.09,2.293 l -2.276,2.295 -1.82,0.152 c -2.973,0.248 -2.807,0.282 -3.885,-0.81 z"
         id="path4411"
         inkscape:connector-curvature="0"
         style="fill:#ffffff;fill-rule:evenodd" />
      <path
         d="m 18.186,49.396 c -0.95,-0.2 -2.136,-0.55 -2.636,-0.78 -1.94,-0.893 -5.003,-3.69 -6.164,-5.63 -1.14,-1.905 -2.18,-5.88 -2.406,-9.204 -0.19,-2.775 0.704,-7.742 1.775,-9.877 0.88,-1.75 3.235,-4.17 5.184,-5.325 2.02,-1.197 8.74,-1.635 11.962,-0.78 1.13,0.3 2.445,1.757 3.18,3.524 0.664,1.594 1.823,6.038 2.816,10.796 l 0.652,3.125 0,11.065 -0.682,0.105 c -4.102,0.63 -8.748,1.89 -10.812,2.933 -0.472,0.24 -0.922,0.428 -1,0.42 -0.078,-0.006 -0.92,-0.174 -1.87,-0.372 z"
         id="path4413"
         inkscape:connector-curvature="0"
         style="fill:#ffffff;fill-rule:evenodd" />
      <path
         d="m 46.004,48.754 c -2.915,-1.646 -4.44,-2.06 -8.58,-2.34 l -1.947,-0.13 0.102,-5.66 0.1,-5.66 0.713,-3.36 c 1.957,-9.237 3.092,-12.292 4.962,-13.358 0.903,-0.514 1.252,-0.598 3.41,-0.823 1.87,-0.195 5.16,0.014 7.325,0.465 1.616,0.337 2.747,1.086 4.917,3.255 1.844,1.844 2.49,2.965 3.253,5.66 1.222,4.308 1.042,8.942 -0.532,13.65 -0.637,1.904 -1.784,3.69 -3.393,5.28 -2.168,2.145 -3.755,3.12 -5.83,3.578 -2.434,0.54 -2.596,0.52 -4.5,-0.556 z"
         id="path4415"
         inkscape:connector-curvature="0"
         style="fill:#ffffff;fill-rule:evenodd" />
      <path
         d="m 33.93,27.418 c -0.343,-1.59 -1.283,-4.614 -1.95,-6.273 -0.53,-1.317 -0.71,-1.994 -0.65,-2.46 0.09,-0.693 1.22,-2.828 2.243,-4.236 l 0.638,-0.88 0.59,0.97 1.15,1.878 c 1.045,1.706 1.075,2.038 0.35,3.857 -0.59,1.478 -1.344,4.037 -1.975,6.69 l -0.26,1.09 -0.136,-0.637 z"
         id="path4417"
         inkscape:connector-curvature="0"
         style="fill:#ffffff;fill-rule:evenodd" />
    </g>
  </g>
</svg>
