<?xml version="1.0" encoding="UTF-8" standalone="no"?>
<svg
   xmlns:dc="http://purl.org/dc/elements/1.1/"
   xmlns:cc="http://creativecommons.org/ns#"
   xmlns:rdf="http://www.w3.org/1999/02/22-rdf-syntax-ns#"
   xmlns:svg="http://www.w3.org/2000/svg"
   xmlns="http://www.w3.org/2000/svg"
   xmlns:sodipodi="http://sodipodi.sourceforge.net/DTD/sodipodi-0.dtd"
   xmlns:inkscape="http://www.inkscape.org/namespaces/inkscape"
   width="68"
   height="68"
   id="svg4365"
   version="1.1"
   inkscape:version="0.91 r13725"
   sodipodi:docname="wN.svg">
  <metadata
     id="metadata4387">
    <rdf:RDF>
      <cc:Work
         rdf:about="">
        <dc:format>image/svg+xml</dc:format>
        <dc:type
           rdf:resource="http://purl.org/dc/dcmitype/StillImage" />
        <dc:title></dc:title>
      </cc:Work>
    </rdf:RDF>
  </metadata>
  <defs
     id="defs4385" />
  <sodipodi:namedview
     pagecolor="#ffffff"
     bordercolor="#666666"
     borderopacity="1"
     objecttolerance="10"
     gridtolerance="10"
     guidetolerance="10"
     inkscape:pageopacity="0"
     inkscape:pageshadow="2"
     inkscape:window-width="1920"
     inkscape:window-height="1039"
     id="namedview4383"
     showgrid="false"
     inkscape:zoom="3.4705882"
     inkscape:cx="34"
     inkscape:cy="34"
     inkscape:window-x="0"
     inkscape:window-y="20"
     inkscape:window-maximized="0"
     inkscape:current-layer="svg4365" />
  <g
     id="g4367"
     transform="matrix(1,0,0,-1,0,68)">
    <g
       id="g4369">
      <g
         style="font-size:64px;line-height:125%;font-family:Chess-7;-inkscape-font-specification:Chess-7;letter-spacing:0;word-spacing:0"
         font-size="64"
         letter-spacing="0"
         word-spacing="0"
         id="g4371">
        <path
           d="m 24.848,39.728 q -0.384,0.704 0.192,1.28 0.576,0.576 -0.192,1.472 -0.704,1.024 -2.624,2.752 -1.856,1.728 -3.2,2.304 -2.176,1.28 -4.48,0.192 -1.152,-0.576 -2.88,-2.24 Q 10,43.824 9.36,42.8 8.592,41.776 8.784,41.072 8.976,40.368 8.848,39.408 8.848,38.64 8.464,38.32 8.08,37.936 8.848,35.824 q 0.768,-1.92 3.264,-6.336 2.496,-4.416 3.2,-6.528 0.704,-1.92 -0.256,-1.728 -0.896,0.128 -0.512,-0.896 0.384,-1.152 1.408,-3.072 1.024,-1.984 1.856,-2.944 0.896,-0.896 1.856,-0.704 1.024,0.128 1.792,-1.152 0.704,-1.216 1.344,-3.776 0.704,-2.56 1.472,-4.672 0.96,1.984 2.048,3.776 1.088,1.792 2.24,2.24 2.88,-1.088 6.912,-0.512 5.76,0.768 8.512,2.304 2.752,1.472 6.592,6.208 1.472,1.856 2.368,3.968 0.896,2.048 1.6,4.48 0.704,2.432 1.088,5.568 0.448,3.136 0.64,5.632 0,2.688 -0.192,4.992 -0.128,2.24 0,4.544 l 0,3.776 q 0,1.408 0.512,3.776 0.32,1.984 1.28,4.416 0.96,2.432 1.792,4.8 l -40.192,0 q -0.832,-1.664 -0.576,-3.648 0,-1.28 0.32,-3.136 0.32,-1.856 1.024,-3.52 0.576,-1.472 1.536,-2.816 0.96,-1.408 2.048,-2.688 2.048,-3.2 3.84,-5.12 1.536,-1.728 3.264,-3.2 1.792,-1.472 3.328,-3.392 1.344,-2.112 1.664,-3.712 0.192,-0.96 -0.064,-2.624 -0.192,-1.728 -0.512,-1.664 -0.256,0.128 -1.024,2.368 -0.768,2.24 -1.472,3.008 -0.704,1.088 -1.536,1.536 -0.768,0.384 -1.344,0.768 -0.768,0.384 -1.216,0.384 -0.384,0 -0.96,0.384 -0.704,0.512 -1.664,1.344 -0.896,0.768 -1.28,1.472 z m 2.624,7.488 -3.84,5.248 8.448,0.64 3.84,-4.032 q 1.92,-1.92 3.904,0 l 4.096,4.16 9.408,-0.64 q 0,-3.264 0.256,-7.744 0.32,-4.544 0.192,-6.976 -0.128,-2.496 -0.512,-5.44 -0.32,-3.008 -1.024,-5.184 -1.28,-4.288 -3.648,-7.424 -1.408,-1.536 -2.624,-2.752 -1.152,-1.216 -2.944,-2.624 -2.112,-0.896 -3.968,-1.6 -1.792,-0.704 -3.904,-0.832 -3.904,-0.448 -6.592,0.576 -2.112,-0.768 -2.688,-1.664 -0.512,-0.896 -0.832,-1.856 0,2.752 -1.408,4.48 -0.704,0.832 -1.984,1.216 -1.216,0.32 -1.984,1.216 -0.832,0.96 -1.664,2.496 -0.768,1.472 -1.152,2.432 -0.192,1.088 0.64,1.088 0.832,-0.064 0.128,1.856 -0.704,1.984 -3.264,6.528 -2.496,4.48 -3.2,6.4 -0.768,1.984 -0.32,1.92 0.512,-0.064 0.512,0.512 0,0.576 -0.32,1.088 -0.256,0.448 0.32,1.088 0.576,0.832 2.112,2.304 1.536,1.408 2.368,1.856 0.768,0.448 0.96,0.448 0.192,-0.064 1.152,-0.64 0.768,-0.384 2.56,-1.92 1.792,-1.536 2.368,-2.368 0.704,-0.896 0.064,-1.28 -0.576,-0.448 -0.192,-1.152 0.384,-0.768 1.6,-1.92 1.216,-1.216 1.92,-1.792 0.768,-0.576 1.28,-0.512 0.576,0 1.152,-0.384 0.576,-0.384 1.088,-0.512 0.512,-0.192 1.088,-0.896 0.448,-0.64 1.088,-1.984 0.704,-1.408 1.088,-2.496 0.192,-0.896 0.448,-1.664 0.32,-0.832 0,-1.536 -0.512,-0.768 -2.112,-1.664 -1.6,-0.896 -1.408,-1.28 0.064,-0.32 1.792,-0.32 1.728,0 2.816,0.768 0.768,0.768 1.792,2.496 1.024,1.728 1.408,3.072 1.088,3.2 0.512,5.376 -0.512,2.304 -2.368,4.48 -1.28,1.984 -3.008,3.584 -1.728,1.6 -3.456,3.328 -1.408,1.408 -1.984,2.432 z m -5.056,8.512 q -0.384,1.344 -0.64,3.008 -0.256,1.664 0.32,2.816 l 33.216,0 -1.664,-5.696 -9.728,0.64 -4.096,4.096 q -1.984,1.728 -3.904,0 l -3.968,-4.288 -9.536,-0.576 z m 15.552,-4.352 -3.392,3.392 3.392,3.52 3.392,-3.52 -3.392,-3.392 z M 22.736,23.088 q 0.64,0.256 1.024,0.32 0.448,0.064 0.32,0.768 0,0.256 -0.576,0.448 -0.512,0.128 -0.96,0.32 -0.448,0.256 -1.088,0.448 -0.576,0.192 -0.768,0.32 -1.088,0.32 -1.536,-0.192 -0.256,-0.256 -0.256,-1.216 0.064,-0.32 0.448,-0.832 0.448,-0.512 0.896,-0.512 1.728,0 2.496,0.128 z M 12.432,37.36 q 0.576,0 1.344,0.192 0.768,0.192 0.96,0.576 0,0.512 -0.832,1.472 -0.832,0.896 -1.216,0.704 0,-0.192 0.128,-0.576 0.128,-0.384 0.064,-0.768 0,-0.96 -0.448,-1.6 z"
           id="path4373"
           inkscape:connector-curvature="0" />
      </g>
      <path
         d="m 21.995,61.134 c -0.262,-0.69 -0.217,-2.157 0.12,-3.85 l 0.297,-1.5 1.203,0.095 c 1.914,0.15 6.953,0.447 7.654,0.45 0.585,0.002 0.813,0.194 2.73,2.297 1.36,1.493 2.344,2.41 2.817,2.63 0.72,0.332 0.655,0.335 -6.96,0.34 l -7.685,0.003 -0.177,-0.466 z"
         id="path4375"
         inkscape:connector-curvature="0"
         style="fill:#ffffff;fill-rule:evenodd" />
      <path
         d="m 38.908,61.285 c 0.35,-0.17 1.66,-1.3 2.91,-2.517 l 2.272,-2.21 4.707,-0.303 c 2.59,-0.166 4.737,-0.272 4.773,-0.236 0.06,0.06 0.6,1.84 1.406,4.625 l 0.276,0.955 -8.49,-0.004 c -8.096,-0.004 -8.46,-0.018 -7.854,-0.31 z"
         id="path4377"
         inkscape:connector-curvature="0"
         style="fill:#ffffff;fill-rule:evenodd" />
      <path
         d="m 36.272,56.51 -1.63,-1.64 1.677,-1.678 1.677,-1.678 1.63,1.622 1.63,1.623 -1.506,1.636 c -0.828,0.9 -1.582,1.663 -1.676,1.694 -0.094,0.032 -0.905,-0.68 -1.802,-1.58 z"
         id="path4379"
         inkscape:connector-curvature="0"
         style="fill:#ffffff;fill-rule:evenodd" />
      <path
         d="m 41.89,51.137 c -2.684,-2.874 -3.76,-3.444 -5.147,-2.727 -0.282,0.145 -1.445,1.257 -2.586,2.47 l -2.075,2.206 -4.087,-0.312 c -2.248,-0.172 -4.113,-0.335 -4.145,-0.362 -0.032,-0.028 0.94,-1.428 2.163,-3.113 1.755,-2.422 2.93,-3.787 5.61,-6.518 5.593,-5.7 7.127,-8.3 6.868,-11.637 -0.226,-2.915 -2.305,-7.42 -4.033,-8.737 -0.717,-0.546 -2.377,-0.878 -3.573,-0.714 -1.34,0.185 -1.19,0.576 0.706,1.843 2.03,1.356 2.202,1.68 1.764,3.313 -0.414,1.542 -1.37,3.834 -2.134,5.114 -0.5,0.836 -0.805,1.11 -1.864,1.676 -0.696,0.372 -1.47,0.68 -1.72,0.682 -0.615,0.01 -1.31,0.466 -2.806,1.844 -1.285,1.185 -2.285,2.534 -2.285,3.084 0,0.168 0.122,0.407 0.272,0.532 0.716,0.594 0,1.657 -2.548,3.784 -0.934,0.78 -2.11,1.64 -2.613,1.914 l -0.916,0.498 -0.688,-0.354 c -0.954,-0.492 -3.326,-2.563 -4.22,-3.685 -0.78,-0.98 -0.86,-1.28 -0.555,-2.08 0.22,-0.58 0.075,-1.17 -0.29,-1.17 -0.143,0 -0.26,-0.12 -0.26,-0.268 0,-0.794 1.646,-4.285 4.375,-9.277 1.726,-3.157 2.74,-5.475 2.776,-6.348 0.027,-0.626 -0.028,-0.732 -0.424,-0.828 -0.72,-0.176 -0.668,-0.862 0.194,-2.58 1.493,-2.978 2.406,-3.986 4.177,-4.61 0.432,-0.153 1.052,-0.48 1.378,-0.73 0.712,-0.543 1.64,-2.388 1.81,-3.59 l 0.12,-0.867 0.36,0.686 c 0.53,1 1.008,1.455 2.056,1.95 0.927,0.44 0.94,0.44 2.01,0.134 0.808,-0.23 1.73,-0.303 3.712,-0.288 3.114,0.024 4.19,0.244 7.44,1.526 1.982,0.783 2.482,1.07 3.747,2.148 2.84,2.424 5.344,5.58 6.47,8.158 2.344,5.36 3.116,11.526 2.62,20.907 -0.152,2.882 -0.277,5.788 -0.277,6.46 l 0,1.218 -0.592,0.093 c -0.324,0.05 -2.022,0.178 -3.772,0.282 -1.75,0.104 -3.6,0.234 -4.11,0.29 l -0.93,0.098 -1.98,-2.12 z M 13.975,39.513 c 0.937,-1.016 0.967,-1.478 0.12,-1.83 -0.347,-0.146 -0.88,-0.265 -1.188,-0.265 -0.52,0 -0.543,0.027 -0.34,0.406 0.12,0.223 0.212,0.878 0.207,1.454 -0.013,1.297 0.187,1.336 1.2,0.235 z M 22.18,25.188 c 1.71,-0.69 1.91,-0.817 1.91,-1.224 0,-0.6 -0.943,-0.916 -2.875,-0.964 -1.357,-0.035 -1.447,-0.012 -1.866,0.474 -0.593,0.685 -0.61,1.805 -0.038,2.207 0.568,0.398 0.727,0.37 2.87,-0.492 z"
         id="path4381"
         inkscape:connector-curvature="0"
         style="fill:#ffffff;fill-rule:evenodd" />
    </g>
  </g>
</svg>
