<?xml version="1.0" encoding="UTF-8" standalone="no"?>
<svg
   xmlns:dc="http://purl.org/dc/elements/1.1/"
   xmlns:cc="http://creativecommons.org/ns#"
   xmlns:rdf="http://www.w3.org/1999/02/22-rdf-syntax-ns#"
   xmlns:svg="http://www.w3.org/2000/svg"
   xmlns="http://www.w3.org/2000/svg"
   xmlns:sodipodi="http://sodipodi.sourceforge.net/DTD/sodipodi-0.dtd"
   xmlns:inkscape="http://www.inkscape.org/namespaces/inkscape"
   width="68"
   height="68"
   id="svg4343"
   version="1.1"
   inkscape:version="0.91 r13725"
   sodipodi:docname="wP.svg">
  <metadata
     id="metadata4363">
    <rdf:RDF>
      <cc:Work
         rdf:about="">
        <dc:format>image/svg+xml</dc:format>
        <dc:type
           rdf:resource="http://purl.org/dc/dcmitype/StillImage" />
        <dc:title></dc:title>
      </cc:Work>
    </rdf:RDF>
  </metadata>
  <defs
     id="defs4361" />
  <sodipodi:namedview
     pagecolor="#ffffff"
     bordercolor="#666666"
     borderopacity="1"
     objecttolerance="10"
     gridtolerance="10"
     guidetolerance="10"
     inkscape:pageopacity="0"
     inkscape:pageshadow="2"
     inkscape:window-width="1920"
     inkscape:window-height="1039"
     id="namedview4359"
     showgrid="false"
     inkscape:zoom="3.4705882"
     inkscape:cx="34"
     inkscape:cy="34"
     inkscape:window-x="0"
     inkscape:window-y="20"
     inkscape:window-maximized="0"
     inkscape:current-layer="svg4343" />
  <g
     id="g4345"
     transform="matrix(1,0,0,-1,0,68)">
    <g
       id="g4347">
      <g
         style="font-size:64px;line-height:125%;font-family:Chess-7;-inkscape-font-specification:Chess-7;letter-spacing:0;word-spacing:0"
         font-size="64"
         letter-spacing="0"
         word-spacing="0"
         id="g4349">
        <path
           d="m 22.992,44.752 q 1.344,-0.64 2.176,-2.496 0.896,-2.176 1.984,-4.864 1.088,-2.752 2.176,-5.632 -0.256,-0.192 -0.512,-0.32 -0.192,-0.128 -0.256,-0.256 -1.792,-1.984 0,-3.392 l 0.704,-0.704 1.152,-1.152 q -2.24,-1.024 -3.712,-3.136 -1.408,-2.176 -1.408,-4.736 0,-3.52 2.56,-6.144 2.624,-2.624 6.08,-2.624 3.52,0 6.016,2.624 2.56,2.624 2.56,6.144 0,2.56 -1.472,4.736 -1.408,2.112 -3.584,3.136 0.576,0.576 1.088,1.152 0.512,0.512 0.768,0.704 1.6,1.408 0,3.392 -0.128,0.128 -0.384,0.256 -0.192,0.128 -0.384,0.32 1.152,2.88 2.176,5.632 1.024,2.688 1.984,4.864 0.768,1.856 2.112,2.496 1.408,0.576 4.16,2.24 2.752,1.6 3.264,2.944 0.448,1.28 0.576,3.712 0.192,2.432 0.32,5.056 l -38.272,0 q 0,-2.624 0.128,-5.056 0.128,-2.432 0.64,-3.712 0.384,-1.344 3.2,-2.944 2.816,-1.664 4.16,-2.24 z M 33.744,26.256 q 0,0.128 -1.344,1.536 l -1.536,1.536 q 0.192,0.384 1.472,1.728 1.344,1.28 1.6,1.472 l 1.472,-1.472 1.728,-1.728 Q 36.752,29.136 35.28,27.792 l -1.536,-1.536 z m 5.696,-8.32 q 0,-2.304 -1.6,-3.904 -1.6,-1.664 -3.904,-1.664 -2.24,0 -3.904,1.728 -1.664,1.664 -1.664,3.968 0,2.112 1.344,3.648 1.344,1.536 3.264,1.728 0.896,0.576 1.856,0 1.92,-0.192 3.264,-1.728 1.344,-1.536 1.344,-3.776 z M 18.384,50.832 q -0.448,1.984 -0.448,4.8 l 32,0 q 0,-2.304 -0.448,-4.8 -0.384,-0.768 -2.368,-1.664 -1.984,-0.96 -4.032,-1.92 -1.984,-1.024 -3.136,-3.904 -0.96,-1.92 -1.92,-4.288 -0.896,-2.368 -1.792,-4.8 -0.256,0.128 -0.384,0.32 -0.128,0.128 -0.256,0.128 -1.664,2.048 -3.392,0 -0.128,0 -0.256,-0.128 -0.128,-0.192 -0.32,-0.32 -0.96,2.432 -1.92,4.8 -0.896,2.368 -1.792,4.288 -1.152,2.88 -3.2,3.904 -2.048,0.96 -4.032,1.92 -1.984,0.896 -2.304,1.664 z"
           id="path4351"
           inkscape:connector-curvature="0" />
      </g>
      <path
         d="m 17.944,55.137 c 0,-1.018 0.405,-4.002 0.59,-4.35 0.31,-0.585 0.59,-0.755 3.89,-2.385 2.488,-1.228 3.274,-1.708 3.887,-2.373 0.918,-0.996 2.148,-3.535 4.015,-8.29 l 1.337,-3.404 0.46,0.422 c 1.368,1.256 1.978,1.313 3.206,0.298 l 0.877,-0.725 0.222,0.59 c 1.246,3.3 2.8,7.07 3.533,8.565 1.304,2.663 1.83,3.132 5.53,4.934 1.7,0.828 3.277,1.706 3.506,1.95 0.43,0.463 0.625,1.358 0.853,3.91 l 0.116,1.32 -32.022,0 0,-0.463 z"
         id="path4353"
         inkscape:connector-curvature="0"
         style="fill:#ffffff;fill-rule:evenodd" />
      <path
         d="m 32.37,30.94 c -0.734,-0.765 -1.335,-1.483 -1.335,-1.597 0,-0.114 0.606,-0.81 1.346,-1.544 1.554,-1.544 1.28,-1.574 3.338,0.368 l 1.278,1.206 -1.484,1.476 c -0.816,0.812 -1.557,1.476 -1.646,1.476 -0.09,0 -0.762,-0.624 -1.496,-1.387 z"
         id="path4355"
         inkscape:connector-curvature="0"
         style="fill:#ffffff;fill-rule:evenodd" />
      <path
         d="m 32.146,23.204 c -3.73,-1.157 -4.89,-5.878 -2.2,-8.942 1.006,-1.147 2.022,-1.623 3.662,-1.718 1.758,-0.102 2.774,0.235 3.933,1.303 2.06,1.898 2.42,4.974 0.858,7.332 -0.704,1.062 -1.76,1.77 -3.224,2.16 -1.217,0.324 -1.603,0.307 -3.028,-0.136 z"
         id="path4357"
         inkscape:connector-curvature="0"
         style="fill:#ffffff;fill-rule:evenodd" />
    </g>
  </g>
</svg>
