<svg xmlns="http://www.w3.org/2000/svg" width="800" height="800"><g stroke="#000" stroke-miterlimit="10"><path d="M497.9 240c0 53.6-44 93.9-98.1 93.9-54.1 0-98.1-40.3-98.1-93.9 0-53.6 44-93.9 98.1-93.9 54.2.1 98.1 40.4 98.1 93.9zM526.4 337.6v55.3c-30.2 3-42.8 12.1-42.8 28 0 56.9 36 123.4 109.1 187.9v60.9c0 17.4-87.5 30.8-192.7 30.8h0c-105.2 0-192.7-13.4-192.7-30.8l-.1-60.6c73.1-64.5 108.1-131.1 108.1-188 0-15.9-13.6-25.2-43.8-28.2v-55.3h254.9z" fill="#fff" stroke-width="30.24"/><path d="M207.2 608c0 17.4 87.5 30.3 192.7 30.3h0c105.2 0 192.6-12.9 192.6-30.2" fill="none" stroke-width="16.2"/><path fill="none" stroke-width="14.04" d="M272.6 386.7h252.7"/></g></svg>