<?xml version="1.0" encoding="UTF-8" standalone="no"?>
<svg
   xmlns:dc="http://purl.org/dc/elements/1.1/"
   xmlns:cc="http://creativecommons.org/ns#"
   xmlns:rdf="http://www.w3.org/1999/02/22-rdf-syntax-ns#"
   xmlns:svg="http://www.w3.org/2000/svg"
   xmlns="http://www.w3.org/2000/svg"
   xmlns:sodipodi="http://sodipodi.sourceforge.net/DTD/sodipodi-0.dtd"
   xmlns:inkscape="http://www.inkscape.org/namespaces/inkscape"
   width="1"
   height="1"
   viewBox="-48.35 -10 220 220"
   enable-background="new 0 0 123.3 195.6"
   id="svg4681"
   version="1.1"
   inkscape:version="0.91 r13725"
   sodipodi:docname="bB.svg">
  <metadata
     id="metadata4709">
    <rdf:RDF>
      <cc:Work
         rdf:about="">
        <dc:format>image/svg+xml</dc:format>
        <dc:type
           rdf:resource="http://purl.org/dc/dcmitype/StillImage" />
        <dc:title></dc:title>
      </cc:Work>
    </rdf:RDF>
  </metadata>
  <defs
     id="defs4707" />
  <sodipodi:namedview
     pagecolor="#ffffff"
     bordercolor="#666666"
     borderopacity="1"
     objecttolerance="10"
     gridtolerance="10"
     guidetolerance="10"
     inkscape:pageopacity="0"
     inkscape:pageshadow="2"
     inkscape:window-width="1920"
     inkscape:window-height="1039"
     id="namedview4705"
     showgrid="false"
     inkscape:zoom="236"
     inkscape:cx="-0.27118644"
     inkscape:cy="0.5"
     inkscape:window-x="0"
     inkscape:window-y="20"
     inkscape:window-maximized="0"
     inkscape:current-layer="svg4681" />
  <switch
     id="switch4683"
     transform="matrix(1,0,0,-1,0,195.5)">
    <g
       id="g4685">
      <g
         id="g4687">
        <path
           d="M 30.4,168.7 C 16.6,159.3 6.7,142.9 4.1,126.3 1.3,108.5 6.6,90.5 15,75 19.6,66.5 25.1,58.5 31.1,51 L 53.8,82 69.8,65.7 46.1,34.2 c 5,-5.2 10.3,-10.1 15.6,-15 l -0.1,0 c 109.6,98.2 31.3,149.5 31.3,149.5"
           id="path4689"
           inkscape:connector-curvature="0" />
        <path
           stroke-miterlimit="10"
           d="M 30.4,168.7 C 16.6,159.3 6.7,142.9 4.1,126.3 1.3,108.5 6.6,90.5 15,75 19.6,66.5 25.1,58.5 31.1,51 L 53.8,82 69.8,65.7 46.1,34.2 c 5,-5.2 10.3,-10.1 15.6,-15 l -0.1,0 c 109.6,98.2 31.3,149.5 31.3,149.5"
           id="path4691"
           inkscape:connector-curvature="0"
           style="fill:none;stroke:#000000;stroke-width:6;stroke-miterlimit:10" />
        <path
           d="m 69.5,11.2 c 0,4.4 -3.5,8 -7.9,8 -4.4,0 -7.9,-3.6 -7.9,-8 0,-4.4 3.5,-8 7.9,-8 4.4,0 7.9,3.6 7.9,8"
           id="path4693"
           inkscape:connector-curvature="0" />
        <ellipse
           stroke-miterlimit="10"
           cx="61.599998"
           cy="11.2"
           rx="7.9000001"
           ry="8"
           id="ellipse4695"
           style="fill:none;stroke:#000000;stroke-width:6;stroke-miterlimit:10" />
        <path
           d="m 15.4,176.6 0,-7.9 92.6,0 0,7.9"
           id="path4697"
           inkscape:connector-curvature="0"
           style="fill:#ffffff" />
        <path
           stroke-miterlimit="10"
           d="m 15.4,176.6 0,-7.9 92.6,0 0,7.9"
           id="path4699"
           inkscape:connector-curvature="0"
           style="fill:none;stroke:#000000;stroke-width:6;stroke-miterlimit:10" />
        <path
           d="m 61.7,176.6 -46.3,0 0,15.7 92.6,0 0,-15.7 -46.3,0"
           id="path4701"
           inkscape:connector-curvature="0" />
        <path
           stroke-miterlimit="10"
           d="m 61.7,176.6 -46.3,0 0,15.7 92.6,0 0,-15.7 -46.3,0"
           id="path4703"
           inkscape:connector-curvature="0"
           style="fill:none;stroke:#000000;stroke-width:6;stroke-miterlimit:10" />
      </g>
    </g>
  </switch>
</svg>
