<?xml version="1.0" encoding="UTF-8" standalone="no"?>
<svg
   xmlns:dc="http://purl.org/dc/elements/1.1/"
   xmlns:cc="http://creativecommons.org/ns#"
   xmlns:rdf="http://www.w3.org/1999/02/22-rdf-syntax-ns#"
   xmlns:svg="http://www.w3.org/2000/svg"
   xmlns="http://www.w3.org/2000/svg"
   xmlns:sodipodi="http://sodipodi.sourceforge.net/DTD/sodipodi-0.dtd"
   xmlns:inkscape="http://www.inkscape.org/namespaces/inkscape"
   width="1"
   height="1"
   viewBox="-14.10 -10 220 220"
   enable-background="new 0 0 191.8 195"
   id="svg4273"
   version="1.1"
   inkscape:version="0.91 r13725"
   sodipodi:docname="wQ.svg">
  <metadata
     id="metadata4319">
    <rdf:RDF>
      <cc:Work
         rdf:about="">
        <dc:format>image/svg+xml</dc:format>
        <dc:type
           rdf:resource="http://purl.org/dc/dcmitype/StillImage" />
        <dc:title></dc:title>
      </cc:Work>
    </rdf:RDF>
  </metadata>
  <defs
     id="defs4317" />
  <sodipodi:namedview
     pagecolor="#ffffff"
     bordercolor="#666666"
     borderopacity="1"
     objecttolerance="10"
     gridtolerance="10"
     guidetolerance="10"
     inkscape:pageopacity="0"
     inkscape:pageshadow="2"
     inkscape:window-width="1920"
     inkscape:window-height="1039"
     id="namedview4315"
     showgrid="false"
     inkscape:zoom="236"
     inkscape:cx="0.5"
     inkscape:cy="0.5"
     inkscape:window-x="0"
     inkscape:window-y="20"
     inkscape:window-maximized="0"
     inkscape:current-layer="svg4273" />
  <switch
     id="switch4275"
     transform="matrix(1,0,0,-1,0,194.79323)">
    <g
       id="g4277">
      <g
         id="g4279">
        <path
           d="m 142.1,167.3 c 0,0 0.6,-7.3 -3.6,-8.2 -23.8,-4.6 36.9,-96.4 36.9,-96.4 0,0 -55.2,62.1 -51.8,-45.5 l -0.8,-0.5 c -27.8,98.1 -53.7,0 -53.7,0 l -1,0.6 c 3.4,107.6 -51.8,45.5 -51.8,45.5 0,0 60.7,91.8 36.9,96.4 -4.2,0.8 -3.6,8.2 -3.6,8.2"
           id="path4281"
           inkscape:connector-curvature="0"
           style="fill:#ffffff" />
        <path
           stroke-miterlimit="10"
           d="m 142.1,167.3 c 0,0 0.6,-7.3 -3.6,-8.2 -23.8,-4.6 36.9,-96.4 36.9,-96.4 0,0 -55.2,62.1 -51.8,-45.5 l -0.8,-0.5 c -27.8,98.1 -53.7,0 -53.7,0 l -1,0.6 c 3.4,107.6 -51.8,45.5 -51.8,45.5 0,0 60.7,91.8 36.9,96.4 -4.2,0.8 -3.6,8.2 -3.6,8.2"
           id="path4283"
           inkscape:connector-curvature="0"
           style="fill:none;stroke:#000000;stroke-width:6;stroke-miterlimit:10" />
        <path
           d="m 49.5,176.3 0,-7.9 92.6,0 0,7.9"
           id="path4285"
           inkscape:connector-curvature="0"
           style="fill:#ffffff" />
        <path
           stroke-miterlimit="10"
           d="m 49.5,176.3 0,-7.9 92.6,0 0,7.9"
           id="path4287"
           inkscape:connector-curvature="0"
           style="fill:none;stroke:#000000;stroke-width:6;stroke-miterlimit:10" />
        <path
           d="m 74.3,9.8 c 0.9,5.4 -3.7,10 -9,9.1 -3.2,-0.5 -5.8,-3.2 -6.3,-6.5 -0.9,-5.4 3.7,-10 9,-9.1 3.1,0.6 5.7,3.2 6.3,6.5"
           id="path4289"
           inkscape:connector-curvature="0"
           style="fill:#ffffff" />
        <path
           stroke-miterlimit="10"
           d="m 74.3,9.8 c 0.9,5.4 -3.7,10 -9,9.1 -3.2,-0.5 -5.8,-3.2 -6.3,-6.5 -0.9,-5.4 3.7,-10 9,-9.1 3.1,0.6 5.7,3.2 6.3,6.5 z"
           id="path4291"
           inkscape:connector-curvature="0"
           style="fill:none;stroke:#000000;stroke-width:6;stroke-miterlimit:10" />
        <path
           d="m 18.6,56.3 c 0.9,5.4 -3.7,10 -9,9.1 -3.2,-0.5 -5.8,-3.2 -6.3,-6.5 -0.9,-5.4 3.6,-10 9,-9.1 3.2,0.6 5.8,3.2 6.3,6.5"
           id="path4293"
           inkscape:connector-curvature="0"
           style="fill:#ffffff" />
        <path
           stroke-miterlimit="10"
           d="m 18.6,56.3 c 0.9,5.4 -3.7,10 -9,9.1 -3.2,-0.5 -5.8,-3.2 -6.3,-6.5 -0.9,-5.4 3.6,-10 9,-9.1 3.2,0.6 5.8,3.2 6.3,6.5 z"
           id="path4295"
           inkscape:connector-curvature="0"
           style="fill:none;stroke:#000000;stroke-width:6;stroke-miterlimit:10" />
        <path
           stroke-miterlimit="10"
           d="m 58,156.9 75.6,0"
           id="path4297"
           inkscape:connector-curvature="0"
           style="fill:none;stroke:#000000;stroke-width:5;stroke-miterlimit:10" />
        <path
           d="m 117.4,9.7 c -0.9,5.4 3.7,10 9,9.1 3.2,-0.5 5.8,-3.2 6.3,-6.5 0.9,-5.4 -3.6,-10 -9,-9.1 -3.2,0.6 -5.8,3.2 -6.3,6.5"
           id="path4299"
           inkscape:connector-curvature="0"
           style="fill:#ffffff" />
        <path
           stroke-miterlimit="10"
           d="m 117.4,9.7 c -0.9,5.4 3.7,10 9,9.1 3.2,-0.5 5.8,-3.2 6.3,-6.5 0.9,-5.4 -3.6,-10 -9,-9.1 -3.2,0.6 -5.8,3.2 -6.3,6.5 z"
           id="path4301"
           inkscape:connector-curvature="0"
           style="fill:none;stroke:#000000;stroke-width:6;stroke-miterlimit:10" />
        <path
           d="m 173,56.2 c -0.9,5.4 3.7,10 9,9.1 3.2,-0.5 5.8,-3.2 6.3,-6.5 0.9,-5.4 -3.7,-10 -9,-9.1 -3.2,0.6 -5.8,3.2 -6.3,6.5"
           id="path4303"
           inkscape:connector-curvature="0"
           style="fill:#ffffff" />
        <path
           stroke-miterlimit="10"
           d="m 173,56.2 c -0.9,5.4 3.7,10 9,9.1 3.2,-0.5 5.8,-3.2 6.3,-6.5 0.9,-5.4 -3.7,-10 -9,-9.1 -3.2,0.6 -5.8,3.2 -6.3,6.5 z"
           id="path4305"
           inkscape:connector-curvature="0"
           style="fill:none;stroke:#000000;stroke-width:6;stroke-miterlimit:10" />
        <path
           d="m 95.8,176 -46.3,0 0,15.7 92.6,0 0,-15.7 -46.3,0"
           id="path4307"
           inkscape:connector-curvature="0"
           style="fill:#ffffff" />
        <path
           stroke-miterlimit="10"
           d="m 95.8,176 -46.3,0 0,15.7 92.6,0 0,-15.7 -46.3,0"
           id="path4309"
           inkscape:connector-curvature="0"
           style="fill:none;stroke:#000000;stroke-width:6;stroke-miterlimit:10" />
        <path
           stroke-miterlimit="10"
           d="m 164.6,76.4 -67.5,78.9 c -0.4,0.5 -1.3,0.2 -1.3,-0.5 L 70.6,30.8"
           id="path4311"
           inkscape:connector-curvature="0"
           style="fill:none;stroke:#000000;stroke-width:4;stroke-miterlimit:10" />
        <path
           stroke-miterlimit="10"
           d="M 120.7,30.8 96.6,153.3 c -0.3,1.4 -2.1,1.9 -3,0.8 L 26.9,76.5"
           id="path4313"
           inkscape:connector-curvature="0"
           style="fill:none;stroke:#000000;stroke-width:4;stroke-miterlimit:10" />
      </g>
    </g>
  </switch>
</svg>
