<?xml version="1.0" encoding="UTF-8" standalone="no"?>
<svg
   xmlns:dc="http://purl.org/dc/elements/1.1/"
   xmlns:cc="http://creativecommons.org/ns#"
   xmlns:rdf="http://www.w3.org/1999/02/22-rdf-syntax-ns#"
   xmlns:svg="http://www.w3.org/2000/svg"
   xmlns="http://www.w3.org/2000/svg"
   xmlns:sodipodi="http://sodipodi.sourceforge.net/DTD/sodipodi-0.dtd"
   xmlns:inkscape="http://www.inkscape.org/namespaces/inkscape"
   width="1"
   height="1"
   viewBox="-60.2 -10 220 220"
   enable-background="new 0 0 99.6 196"
   id="svg4243"
   version="1.1"
   inkscape:version="0.91 r13725"
   sodipodi:docname="wR.svg">
  <metadata
     id="metadata4271">
    <rdf:RDF>
      <cc:Work
         rdf:about="">
        <dc:format>image/svg+xml</dc:format>
        <dc:type
           rdf:resource="http://purl.org/dc/dcmitype/StillImage" />
        <dc:title></dc:title>
      </cc:Work>
    </rdf:RDF>
  </metadata>
  <defs
     id="defs4269" />
  <sodipodi:namedview
     pagecolor="#ffffff"
     bordercolor="#666666"
     borderopacity="1"
     objecttolerance="10"
     gridtolerance="10"
     guidetolerance="10"
     inkscape:pageopacity="0"
     inkscape:pageshadow="2"
     inkscape:window-width="1920"
     inkscape:window-height="1039"
     id="namedview4267"
     showgrid="false"
     inkscape:zoom="256"
     inkscape:cx="0.5"
     inkscape:cy="0.5"
     inkscape:window-x="0"
     inkscape:window-y="20"
     inkscape:window-maximized="0"
     inkscape:current-layer="svg4243" />
  <switch
     id="switch4245"
     transform="matrix(1,0,0,-1,0,196)">
    <g
       id="g4247">
      <g
         id="g4249">
        <path
           d="M 96.1,168.9 C 96,110 80.9,67 80.9,67 l 15.2,-8.3 0,-55.1 -23.2,0 0,15.7 -11.5,0 0,-15.7 -23.2,0 0,15.7 -11.5,0 0,-15.7 -23.1,0 0,55.1 15.2,8.3 c 0,0 -15.1,43 -15.2,101.9"
           id="path4251"
           inkscape:connector-curvature="0"
           style="fill:#ffffff" />
        <path
           stroke-miterlimit="10"
           d="M 96.1,168.9 C 96,110 80.9,67 80.9,67 l 15.2,-8.3 0,-55.1 -23.2,0 0,15.7 -11.5,0 0,-15.7 -23.2,0 0,15.7 -11.5,0 0,-15.7 -23.1,0 0,55.1 15.2,8.3 c 0,0 -15.1,43 -15.2,101.9"
           id="path4253"
           inkscape:connector-curvature="0"
           style="fill:none;stroke:#000000;stroke-width:6;stroke-miterlimit:10" />
        <path
           d="m 3.6,176.7 0,-7.8 92.5,0 0,7.8"
           id="path4255"
           inkscape:connector-curvature="0"
           style="fill:#ffffff" />
        <path
           stroke-miterlimit="10"
           d="m 3.6,176.7 0,-7.8 92.5,0 0,7.8"
           id="path4257"
           inkscape:connector-curvature="0"
           style="fill:none;stroke:#000000;stroke-width:6;stroke-miterlimit:10" />
        <path
           d="m 49.8,176.7 -46.2,0 0,15.7 92.5,0 0,-15.7 -46.3,0"
           id="path4259"
           inkscape:connector-curvature="0"
           style="fill:#ffffff" />
        <path
           stroke-miterlimit="10"
           d="m 49.8,176.7 -46.2,0 0,15.7 92.5,0 0,-15.7 -46.3,0"
           id="path4261"
           inkscape:connector-curvature="0"
           style="fill:none;stroke:#000000;stroke-width:6;stroke-miterlimit:10" />
        <path
           stroke-miterlimit="10"
           d="m 18.8,67 62.1,0"
           id="path4263"
           inkscape:connector-curvature="0"
           style="fill:none;stroke:#000000;stroke-width:4;stroke-miterlimit:10" />
        <path
           stroke-miterlimit="10"
           d="m 3.6,57.8 92.5,0"
           id="path4265"
           inkscape:connector-curvature="0"
           style="fill:none;stroke:#000000;stroke-width:4;stroke-miterlimit:10" />
      </g>
    </g>
  </switch>
</svg>
