<svg width="50mm" height="50mm" clip-rule="evenodd" fill-rule="evenodd" image-rendering="optimizeQuality" shape-rendering="geometricPrecision" text-rendering="geometricPrecision" viewBox="0 0 50 50" xmlns="http://www.w3.org/2000/svg" xmlns:xlink="http://www.w3.org/1999/xlink"><defs><linearGradient id="b"><stop stop-color="#edebea" offset="0"/><stop stop-color="#edebea" stop-opacity="0" offset="1"/></linearGradient><linearGradient id="a"><stop stop-color="#fff" offset="0"/><stop stop-color="#fff" stop-opacity="0" offset="1"/></linearGradient><linearGradient id="c" x1="490.24" x2="511.24" y1="-382.24" y2="-382.24" gradientTransform="translate(-906.01 261.29)" gradientUnits="userSpaceOnUse" xlink:href="#a"/><linearGradient id="d" x1="491.59" x2="499.17" y1="-377.43" y2="-377.43" gradientTransform="translate(-906.01 261.29)" gradientUnits="userSpaceOnUse" xlink:href="#a"/><linearGradient id="e" x1="563.37" x2="575.09" y1="-261.47" y2="-257.21" gradientTransform="matrix(1.1146 0 0 1 -224.87 -76.89)" gradientUnits="userSpaceOnUse" xlink:href="#b"/><linearGradient id="f" x1="422.39" x2="423.02" y1="-437.94" y2="-437.94" gradientTransform="matrix(1.1146 0 0 1 -59.405 84.556)" gradientUnits="userSpaceOnUse" xlink:href="#b"/><linearGradient id="g" x1="417.93" x2="422.16" y1="-441.6" y2="-441.6" gradientTransform="matrix(1.1146 0 0 1 -59.405 84.556)" gradientUnits="userSpaceOnUse" xlink:href="#a"/><linearGradient id="h" x1="422.03" x2="425.95" y1="-445.5" y2="-445.5" gradientTransform="matrix(1.1146 0 0 1 -59.405 84.556)" gradientUnits="userSpaceOnUse" xlink:href="#a"/></defs><g transform="translate(430.27 160.86)"><path d="M-415.05-121.83l-1.27.788v3.129l1.27.788h19.564l1.27-.788v-3.13l-1.27-.787h-9.782z" fill="#514b46" stroke="#000" stroke-linejoin="round" stroke-width="1.2"/><path d="M-394.77-120.68l-20.994.009.884-.542 19.247-.015z" fill="url(#c)" opacity=".5"/><path d="M-394.77-120.68l-.008 2.404-.866.523-8.44-.01s2.95-.628 1.94-2.894c-.001-.004 5.277-.02 7.374-.023z" opacity=".2"/><path d="M-415.05-117.13v1.96h19.564v-1.96z" fill="#514b46" stroke="#000" stroke-linecap="round" stroke-linejoin="round" stroke-width="1.2"/><rect x="-414.42" y="-116.49" width="7.576" height=".709" ry="0" fill="url(#d)" opacity=".5" paint-order="markers fill stroke"/><path d="M-414.58-121.83c.57-6.697-6.698-15.67-6.698-15.67s4.201-5.968 16.008-5.968c11.807 0 16.008 5.968 16.008 5.968s-7.27 8.973-6.699 15.67h-9.31z" fill="#514b46" stroke="#000" stroke-linejoin="round" stroke-width="1.2"/><path d="M-402.13-142.69c8.656.89 10.117 5.094 10.044 5.205 0 0-7.176 8.349-6.606 15.046h2.073c-.178-6.58 6.57-15.01 6.57-15.01-.41-1.345-6.44-5.15-12.081-5.241z" fill="#020202" fill-opacity=".902" fill-rule="nonzero" opacity=".2"/><path d="M406.3-338.98c1.878 3 5.263 8.793 5.107 13.822l1.412.004c1.201-11.109-10.072-15.69 9.81-17.465 3.737-.634 1.183-1.732-.228-1.902-5.276-.667-10.953.158-15.39 3.22-1.253.85-1.017 1.588-.711 2.321z" fill="url(#e)" fill-rule="nonzero" opacity=".5" transform="translate(-824.44 202.67)"/><g transform="translate(-819.294 207.721)"><path d="M411-363.73v4.529h-4.718v4.825h4.415v3.181h6.651v-3.18h4.414v-4.826h-4.717v-4.529h-3.022z" fill="#514b46" stroke="#000" stroke-linejoin="round" stroke-width="1.2"/><path d="M411.4-351.79v-3.192h.71v2.597c0 .016-.71.595-.71.595z" fill="url(#f)" opacity=".5"/><path d="M406.97-354.98v-3.605h4.71v.521h-4.056v2.265z" fill="url(#g)" opacity=".5"/><path d="M411.68-358.58l.006-4.52h3.79v.549h-3.112v3.02z" fill="url(#h)" opacity=".5"/><path d="M415.76-351.78l.99-.018.007-3.171 4.346.006v-3.63h-.944v2.775h-4.387z" fill-opacity=".902" opacity=".2"/><rect x="415.57" y="-363.09" width=".873" height="4.413" ry="0" fill-opacity=".902" opacity=".2" paint-order="markers fill stroke"/></g></g></svg>