<svg width="50mm" height="50mm" clip-rule="evenodd" fill-rule="evenodd" image-rendering="optimizeQuality" shape-rendering="geometricPrecision" text-rendering="geometricPrecision" viewBox="0 0 50 50" xmlns="http://www.w3.org/2000/svg" xmlns:xlink="http://www.w3.org/1999/xlink"><defs><linearGradient id="a"><stop stop-color="#fff" offset="0"/><stop stop-color="#fff" stop-opacity="0" offset="1"/></linearGradient><linearGradient id="b" x1="2197" x2="2212.6" y1="-1410.1" y2="-1410.1" gradientUnits="userSpaceOnUse" xlink:href="#a"/><linearGradient id="c" x1="2213.6" x2="2220.4" y1="-1411.9" y2="-1411.9" gradientUnits="userSpaceOnUse" xlink:href="#a"/><linearGradient id="d" x1="2201.3" x2="2204.8" y1="-1392.2" y2="-1391.4" gradientTransform="translate(.479)" gradientUnits="userSpaceOnUse" xlink:href="#a"/><linearGradient id="e" x1="490.24" x2="511.24" y1="-382.24" y2="-382.24" gradientUnits="userSpaceOnUse" xlink:href="#a"/><linearGradient id="f" x1="491.59" x2="499.17" y1="-377.43" y2="-377.43" gradientUnits="userSpaceOnUse" xlink:href="#a"/></defs><path d="M366.35-375.17s-3.488-9.303 1.268-17.927l-1.418-8.664s-3.768-.79-6.352-1.385c-.908 1.052-1.713 1.945-1.713 1.945l-12.65 1.653s-1.928.22-1.613 5.243c1.905-.19 2.707-.245 2.882.916l-2.48.311s.124 2.527 1.722 2.551c2.616-.145 6.416-2.123 8.814 2.752-1.826 3.008-7.556 5.75-6.163 12.606z" fill="#514b46" stroke="#000" stroke-linejoin="round" stroke-width="1.086" transform="matrix(1.1051 0 0 1.1045 -370.071 454.039)"/><path d="M27.953 18.347c-4.454 7.13-5.789 1.128-16.74 2.854 0 0 .01 1.031 1.254 1.141 1.326-.034 6.92-2.423 9.59 2.465 3.145 2.057 5.816-5.142 5.897-6.46z" fill-opacity=".902" opacity=".2"/><path d="M360.97-400.57c.086-.122.411-.857.411-.857l7.06-.029c-.173 3.601-5.418 4.298-5.418 4.298" fill="#514b46" stroke="#000" stroke-linecap="round" stroke-linejoin="round" stroke-width="1.086" transform="matrix(1.1051 0 0 1.1045 -370.071 454.039)"/><g stroke-width="1.046"><path d="M11.962 14.78c-.602.451-.637.909-.607 1.322.628.216 1.828-.481 1.766-1.533l-1.159.21z"/><path d="M35.5 16.988c-6.83 1.811-4.474 13.41-5.072 22.296l3.859-.011c-.692.058-3.768-11.733 1.305-19.575l-.489-2.59z" opacity=".2"/><path d="M2197-1408.2s.181-1.902 1.135-2.251l12.532-1.552 1.972-.064-14.465 2.156s-.584.35-1.174 1.711z" fill="url(#b)" opacity=".5" transform="matrix(1.1051 0 0 1.1045 -2417.269 1571.13)"/><path d="M2213.7-1411.3l.551-.986 6.075-.048-5.81.42z" fill="url(#c)" opacity=".5" transform="matrix(1.1051 0 0 1.1045 -2417.269 1571.13)"/><path d="M2202.1-1387.2c-.613-6.495 3.668-7.712 5.86-11.277-1.846 3.608-5.9 6.422-1.98 11.306z" fill="url(#d)" opacity=".5" transform="matrix(1.1051 0 0 1.1045 -2417.269 1571.13)"/><path d="M27.102 12.902l-.271.57-1.017.112c.068.103.07.152.08.268-.148 1.317-2.315 1.2-2.443.194a.573.573 0 0 1 .03-.264l-.608-.2-.947-.313c.085 0 5.176-.367 5.176-.367z"/></g><g transform="translate(-475.74 422.154)"><path d="M490.96-383.12l-1.27.788v3.129l1.27.788h19.564l1.27-.788v-3.13l-1.27-.787h-9.782z" fill="#514b46" stroke="#000" stroke-linejoin="round" stroke-width="1.2"/><path d="M511.24-381.97l-20.994.009.884-.542 19.247-.015z" fill="url(#e)" opacity=".5"/><path d="M511.24-381.97l-.008 2.404-.866.523-8.44-.01s2.95-.628 1.94-2.894c-.001-.004 5.277-.02 7.374-.023z" opacity=".2"/><path d="M490.96-378.42v1.96h19.564v-1.96z" fill="#514b46" stroke="#000" stroke-linecap="round" stroke-linejoin="round" stroke-width="1.2"/><rect x="491.59" y="-377.79" width="7.576" height=".709" ry="0" fill="url(#f)" opacity=".5" paint-order="markers fill stroke"/></g></svg>