<svg width="50mm" height="50mm" clip-rule="evenodd" fill-rule="evenodd" image-rendering="optimizeQuality" shape-rendering="geometricPrecision" text-rendering="geometricPrecision" viewBox="0 0 50 50" xmlns="http://www.w3.org/2000/svg" xmlns:xlink="http://www.w3.org/1999/xlink"><defs><linearGradient id="b" x1="1603.1" x2="1608.3" y1="-390.27" y2="-390.27" gradientUnits="userSpaceOnUse" xlink:href="#a"/><linearGradient id="a"><stop stop-color="#fff" offset="0"/><stop stop-color="#fff" stop-opacity="0" offset="1"/></linearGradient><linearGradient id="c" x1="1632.5" x2="1637.6" y1="-392.63" y2="-392.63" gradientUnits="userSpaceOnUse" xlink:href="#a"/><linearGradient id="d" x1="1656.6" x2="1665.2" y1="-391.34" y2="-391.75" gradientUnits="userSpaceOnUse" xlink:href="#a"/><linearGradient id="e" x1="1679.6" x2="1691.8" y1="-382.86" y2="-382.86" gradientUnits="userSpaceOnUse" xlink:href="#a"/><linearGradient id="f" x1="391.15" x2="395.21" y1="-332.31" y2="-332.31" gradientUnits="userSpaceOnUse" xlink:href="#a"/><linearGradient id="g" x1="490.24" x2="511.24" y1="-382.24" y2="-382.24" gradientUnits="userSpaceOnUse" xlink:href="#a"/><linearGradient id="h" x1="491.59" x2="499.17" y1="-377.43" y2="-377.43" gradientUnits="userSpaceOnUse" xlink:href="#a"/><linearGradient id="i" x1="1609.3" x2="1624.2" y1="-310.48" y2="-279.45" gradientTransform="matrix(.21285 0 0 .21284 114.26 -321.28)" gradientUnits="userSpaceOnUse" xlink:href="#a"/></defs><g stroke-width="1.054"><g transform="matrix(.2644 0 0 .26425 -408.036 125.22)" stroke-width="1.11"><path d="M1637.8-451.4c-3.467.026-6.265 2.833-6.265 6.286 0 3.232 2.46 5.936 5.687 6.256l-7.106 67.183c-2.958.14-5.876.364-8.728.664l-20.683-63.315a6.29 6.29 0 0 0 4.595-6.048c0-3.471-2.826-6.286-6.312-6.286-3.485 0-6.311 2.815-6.311 6.286 0 3.472 2.826 6.287 6.311 6.287.297 0 .594-.021.888-.062l3.31 66.417a74.941 74.941 0 0 0-5.043 1.558l-31.28-56.64a6.286 6.286 0 0 0 3.763-5.75c0-3.473-2.826-6.287-6.312-6.287s-6.311 2.814-6.312 6.286c0 3.472 2.826 6.287 6.312 6.287.482 0 .963-.056 1.432-.165l17.01 73.509c2.936 10.1 10.961 19.11 24.552 22.752h60.985c13.591-3.642 21.616-12.651 24.553-22.752l17.01-73.51c.468.11.95.165 1.431.166 3.486 0 6.312-2.815 6.312-6.287s-2.826-6.286-6.312-6.286c-3.485 0-6.311 2.814-6.311 6.286a6.286 6.286 0 0 0 3.763 5.752l-31.281 56.639a74.88 74.88 0 0 0-5.043-1.558l3.31-66.417c.294.041.591.062.888.062 3.485 0 6.311-2.815 6.312-6.287 0-3.471-2.827-6.286-6.312-6.286-3.486 0-6.311 2.815-6.312 6.286a6.29 6.29 0 0 0 4.595 6.048l-20.683 63.315c-2.851-.3-5.77-.523-8.728-.664l-7.106-67.183c3.228-.32 5.685-3.024 5.685-6.256 0-3.453-2.796-6.26-6.263-6.286z" fill="#514b46" stroke="#000" stroke-linecap="round" stroke-linejoin="round" stroke-width="4.54" paint-order="markers fill stroke"/><path d="M1605.7-367.96l2.61.131-5.198-48.888z" fill="url(#b)" opacity=".5"/><path d="M1632.5-371.73l5.081-47.365-2.51 48.918z" fill="url(#c)" opacity=".5"/><path d="M1656.6-370.29l15.57-47.552c-5.98 19.434-8.41 29.224-13.462 49.002z" fill="url(#d)" opacity=".5"/><path d="M1679.6-365.3l23.017-40.51-21.476 41.904z" fill="url(#e)" opacity=".5"/><g fill="#fefefe"><ellipse cx="1562.1" cy="-429.79" rx="2.024" ry="1.924" opacity=".5" paint-order="markers fill stroke"/><ellipse cx="1596.5" cy="-441.61" rx="1.945" ry="1.865" opacity=".5" paint-order="markers fill stroke"/><ellipse cx="1636.2" cy="-447.06" rx="1.885" ry="2.025" opacity=".5" paint-order="markers fill stroke"/><ellipse cx="1674.8" cy="-442.51" rx="1.491" ry="1.566" opacity=".5" paint-order="markers fill stroke"/></g><ellipse cx="1709.9" cy="-430.59" rx="1.464" ry="1.51" fill="#fff" opacity=".5" paint-order="markers fill stroke"/></g><g stroke-width="1.232"><path d="M44.43 10.32c2.497 2.317-2.366 2.22-.674 3.182-4.218 10.147-2.03 26.905-22.787 25.534h12.093c3.594-.962 5.716-3.343 6.492-6.012l4.497-19.425a1.664 1.664 0 0 0 2.047-1.617c0-.918-.746-1.662-1.668-1.662z" opacity=".2" paint-order="markers fill stroke"/><path d="M34.171 28.051l-2.141-.05 2.675-10.234zM27.033 26.889l-1.67.57.51-11.126zM20.66 27.18l-1.385.234-2.662-12.343zM14.527 28.474l-.982.674-5.242-11.675z" opacity=".2"/></g><g stroke-width="1.232"><path d="M35.278 7.267s2.691 1.255.069 2.94c.03-.008.957-1.782-.069-2.94zM25.038 6.222s2.692 1.255.07 2.94c.029-.008.956-1.782-.07-2.94zM14.69 7.249s2.692 1.255.07 2.94c.03-.008.956-1.782-.07-2.94zM5.713 10.555s2.691 1.255.069 2.94c.03-.008.957-1.782-.069-2.94z" opacity=".2"/></g></g><path d="M394.01-327.17l1.195.02-4.055-11.366z" fill="url(#f)" opacity=".5" transform="translate(-383.47 356.738)"/><g transform="translate(-475.293 422.159)"><path d="M490.96-383.12l-1.27.788v3.129l1.27.788h19.564l1.27-.788v-3.13l-1.27-.787h-9.782z" fill="#514b46" stroke="#000" stroke-linejoin="round" stroke-width="1.2"/><path d="M511.24-381.97l-20.994.009.884-.542 19.247-.015z" fill="url(#g)" opacity=".5"/><path d="M511.24-381.97l-.008 2.404-.866.523-8.44-.01s2.95-.628 1.94-2.894c-.001-.004 5.277-.02 7.374-.023z" opacity=".2"/><path d="M490.96-378.42v1.96h19.564v-1.96z" fill="#514b46" stroke="#000" stroke-linecap="round" stroke-linejoin="round" stroke-width="1.2"/><rect x="491.59" y="-377.79" width="7.576" height=".709" ry="0" fill="url(#h)" opacity=".5" paint-order="markers fill stroke"/></g><path d="M461.41-384.6c-5.05.015-8.319 1.434-8.319 1.434-1.689.594-3.045 1.233-3.201 2.29-.147.992.69 1.931 1.123 2.498 1.291 1.69 2.337 2.41 3.32 2.836 1.44.459.983-1.009.522-1.874-2.59-4.469 6.83-6.09 10.958-5.871 3.209.251 6.433.767 8.86 1.398-1.813-1.167-7.063-2.268-12.267-2.676-.327-.025-.66-.036-.996-.035z" fill="url(#i)" opacity=".5" transform="translate(-438.1 412.49)"/></svg>