<svg width="50mm" height="50mm" clip-rule="evenodd" fill-rule="evenodd" image-rendering="optimizeQuality" shape-rendering="geometricPrecision" text-rendering="geometricPrecision" viewBox="0 0 50 50" xmlns="http://www.w3.org/2000/svg" xmlns:xlink="http://www.w3.org/1999/xlink"><defs><linearGradient id="b" x1="284.57" x2="288.14" y1="-399.25" y2="-399.25" gradientTransform="matrix(1.013 0 0 1.0128 -6.496 54.052)" gradientUnits="userSpaceOnUse" xlink:href="#a"/><linearGradient id="a"><stop stop-color="#fff" offset="0"/><stop stop-color="#fff" stop-opacity="0" offset="1"/></linearGradient><linearGradient id="c" x1="293.02" x2="296.47" y1="-400.76" y2="-400.76" gradientTransform="matrix(1.013 0 0 1.0128 -6.496 54.052)" gradientUnits="userSpaceOnUse" xlink:href="#a"/><linearGradient id="d" x1="301.35" x2="304.9" y1="-400.73" y2="-400.73" gradientTransform="matrix(1.013 0 0 1.0128 -6.496 54.052)" gradientUnits="userSpaceOnUse" xlink:href="#a"/><linearGradient id="e" x1="285.93" x2="292.3" y1="-383.26" y2="-383.26" gradientTransform="matrix(1.013 0 0 1.0128 -5.973 54.052)" gradientUnits="userSpaceOnUse" xlink:href="#a"/><linearGradient id="f" x1="490.24" x2="511.24" y1="-382.24" y2="-382.24" gradientUnits="userSpaceOnUse" xlink:href="#a"/><linearGradient id="g" x1="491.59" x2="499.17" y1="-377.43" y2="-377.43" gradientUnits="userSpaceOnUse" xlink:href="#a"/></defs><g stroke="#1a1a1a" stroke-width="1.2"><path d="M14.08 9.23v7.587l4.103 3.105L15.39 39.03H34.61l-2.791-19.108 4.103-3.105V9.23h-4.85v3.33H27.37V9.23h-4.738v3.33H18.93V9.23z" fill="#e7cd97" stroke-linejoin="round"/><path d="M18.18 19.92h13.635M35.92 16.81H14.079" fill="#514b46" fill-opacity=".902"/></g><path d="M281.79-347.11v-6.36h3.612v.483h-3.023v4.776z" fill="url(#b)" transform="translate(-267.09 363.29)"/><path d="M290.34-350.16v-3.31h3.494v.523h-2.957v2.277z" fill="url(#c)" transform="translate(-267.09 363.29)"/><path d="M298.79-350.13v-3.31h3.6v.432h-3.168v2.276z" fill="url(#d)" transform="translate(-267.09 363.29)"/><path d="M286.34-342.22l-2.651 17.305h6.428s1.112-16.545-3.777-17.305z" fill="url(#e)" transform="translate(-267.09 363.29)"/><path d="M33.91 38.38l-2.623-18.36H19.569s12.24.523 14.342 18.36z" fill-opacity=".902" opacity=".15"/><g transform="translate(-475.75 422.149)"><path d="M490.96-383.12l-1.27.788v3.129l1.27.788h19.564l1.27-.788v-3.13l-1.27-.787h-9.782z" fill="#e7cd97" stroke="#1a1a1a" stroke-linejoin="round" stroke-width="1.2"/><path d="M511.24-381.97l-20.994.009.884-.542 19.247-.015z" fill="url(#f)"/><path d="M511.24-381.97l-.008 2.404-.866.523-8.44-.01s2.95-.628 1.94-2.894c-.001-.004 5.277-.02 7.374-.023z" opacity=".15"/><path d="M490.96-378.42v1.96h19.564v-1.96z" fill="#e7cd97" stroke="#1a1a1a" stroke-linecap="round" stroke-linejoin="round" stroke-width="1.2"/><rect x="491.59" y="-377.79" width="7.576" height=".709" ry="0" fill="url(#g)" paint-order="markers fill stroke"/></g></svg>