<svg width="50mm" height="50mm" clip-rule="evenodd" fill-rule="evenodd" image-rendering="optimizeQuality" shape-rendering="geometricPrecision" text-rendering="geometricPrecision" viewBox="0 0 50 50" xmlns="http://www.w3.org/2000/svg"><g stroke-width="1.026"><path d="M3475.9-2129.1a4.37 4.37 0 00-4.373 4.367c0 1.98 1.34 3.71 3.258 4.216v11.158l-5.362-7.492c.485-.72.746-1.568.746-2.435a4.37 4.37 0 00-4.375-4.367 4.37 4.37 0 00-4.373 4.367c.065 2.14 1.935 3.816 4.328 4.365l.88 4.236 1.76 8.474 2.765 5.191 1.12 6.47c0 .801 4.318 1.45 9.647 1.45 5.329 0 9.648-.649 9.648-1.45l1.12-6.47 2.765-5.19 1.76-8.475.879-4.236c2.393-.55 4.264-2.225 4.328-4.365a4.37 4.37 0 00-4.373-4.367 4.37 4.37 0 00-4.374 4.367c0 .867.26 1.715.745 2.435l-5.361 7.493v-11.16a4.368 4.368 0 003.257-4.215 4.37 4.37 0 00-4.373-4.367 4.37 4.37 0 00-4.374 4.367c0 1.425.702 2.759 1.873 3.573l-3.52 10.364-3.52-10.364a4.358 4.358 0 001.874-3.573 4.37 4.37 0 00-4.374-4.367z" fill="#545454" stroke="#1e1e1e" stroke-width="1.538" transform="matrix(.98735 0 0 .96296 -3412.8 2056)"/><path d="M41.345 10.673c.939.95 3.257 5.124-2.05 8.41L34.168 32.04c-6.874 1.209-14.508 1.495-20.063-.405l1.882 3.01c6.509 2.21 17.58.47 17.58.47-1.06 3.437-2.546 6.593-5.594 9.075 0 0 4.463.116 6.529-1.325l1.55-6.545 2.73-4.998 1.739-8.16.867-4.08c2.362-.529 4.21-2.142 4.273-4.203 0-2.322-1.932-4.205-4.317-4.206z" opacity=".25"/><g fill="#010101"><path d="M19.13 5.762c-.262 0-.517.027-.766.07 2.991 1.786 2.38 5.778 1.585 7.101l5.126 8.338-.767-1.734-2.71-6.129a4.167 4.167 0 001.851-3.441c0-2.322-1.933-4.205-4.319-4.205zM30.978 5.762c-.262 0-.517.027-.767.07 4.505 1.27 1.755 6.323.647 6.73l1.222 10.094v-8.629c1.892-.487 3.213-2.153 3.215-4.06 0-2.322-1.932-4.204-4.317-4.205zM9.059 10.962c-.262 0-.518.026-.767.07 3.244 1.2 3.022 4.3 2.349 6.4l7.295 7.295-5.294-7.215c.48-.694.736-1.51.736-2.345 0-2.323-1.934-4.205-4.32-4.205z" opacity=".25"/></g><g fill="#fff"><path d="M6.887 12.406s-3.273 2.607.121 5.31c-.22-.55-.906-3.764-.121-5.31zM17.353 6.917c-.36-.155-3.303 2.198-1.152 5.149.099-.478-.836-3.765 1.152-5.149zM29.497 6.821c-.359-.155-3.504 2.177-1.308 5.201-.168-.554-.718-4.233 1.308-5.2zM9.75 18.858l2.653 12.572 2.754 5.045 1.087 6.177.702.226-1.085-6.452-2.804-4.972zM39.47 12.117c-.36-.155-3.474 2.267-1.293 5.246-.21-.984-1.033-4.354 1.292-5.246z" opacity=".25"/></g></g></svg>