<svg width="50mm" height="50mm" clip-rule="evenodd" fill-rule="evenodd" image-rendering="optimizeQuality" shape-rendering="geometricPrecision" text-rendering="geometricPrecision" viewBox="0 0 50 50" xmlns="http://www.w3.org/2000/svg"><g stroke-width="1.079"><path d="M3329.1-2128.5l-.643 2.608-3.389.194-.589-2.593-4.87 1.003v7.87c.846 2.112 1.968 2.466 3.027 3.027h2.162l-3.148 17.25c-4.314 2.456-5.284 3.57-5.284 8.502h31.034c0-4.933-.97-6.046-5.283-8.502l-3.148-17.25h2.161c1.06-.56 2.182-.915 3.027-3.027v-7.87l-4.87-1.003-.589 2.592-3.388-.194-.643-2.608h-2.784z" fill="#545454" stroke-width="1.619" stroke="#1e1e1e" transform="matrix(.91877 0 0 .93482 -3036.3 1998.5)"/><path d="M34.046 9.39c3.833 11.628-12.927 9.552-19.599 9.154 0 0 .078 1.496 2.064 1.5h2.018-.033l-.084.47c12.726-.977 10.408 2.85 12.654 14.544l-15.36.54-.101.573-.966.573c4.993.556 21.958-2.9 20.449 7.375h4.174c.24-4.761-1.623-6.251-4.854-7.948l-2.722-16.388c.276-.181.882 0 1.766-.15 1.176-.2 2.41-1.386 2.83-2.569v-7.062z" opacity=".25"/><g fill="#fff"><path d="M14.384 10.418l2.172-.444c-1.21.475-1.62 3.045-2.105 6.36-.145.994-.068-5.916-.068-5.916zM22.928 9.483l-.572 2.4 1.947-2.407zM32.3 9.764l-.5 2.303 1.411-2.109zM19.07 20.608l-2.738 15.027L19.819 20.7zM11.444 43.23c-.013-.043-.031-1.011.152-1.914.209-1.022.696-2.007 1.488-2.64 1.462-1.168 2.688-1.829 2.826-1.833-2.104 1.629-4.051 3.62-4.466 6.387z" opacity=".25"/></g></g></svg>