<svg width="50mm" height="50mm" clip-rule="evenodd" fill-rule="evenodd" image-rendering="optimizeQuality" shape-rendering="geometricPrecision" text-rendering="geometricPrecision" viewBox="0 0 50 50" xmlns="http://www.w3.org/2000/svg"><g stroke-width="1.04"><path d="M3281.9-2090.7c6.361 0 11.51-.56 11.51-1.249l1.342-6.525c11.336-7.821 6.689-19.658-3.35-19.615-2.083.01-4.893.53-6.264 1.338l-.876-4.1h3.895c1.17.13 1.77-1.6 1.77-2.668 0-1.067-.592-2.667-1.77-2.667h-3.388v-3.092c0-.97-1.804-1.455-2.89-1.455s-2.892.485-2.892 1.455v3.092h-3.388c-1.18 0-1.77 1.6-1.77 2.667 0 1.068.6 2.799 1.77 2.668h3.895l-.876 4.1c-1.37-.807-4.18-1.328-6.264-1.338-10.038-.043-14.685 11.794-3.35 19.615l1.342 6.525c0 .689 5.15 1.246 11.51 1.249h.023z" fill="#e9e9e9" stroke="#2a2a2a" stroke-width="1.559" transform="matrix(.96234 0 0 .9617 -3133.3 2054.9)"/><path d="M30.585 9.941c-.53-.01-.932.093-.949.178.71.723 3.616 4.178-3.597 3.647-.868.487.144 7.048.858 8.894 0 0 1.174-.525 1.973-.94 14.207-4.09 12.227 11.899 3.755 14.714-5.057.765-12.62 1.076-17.605.336l.398 2.44c6.49.581 6.347.447 14.543.569 4.041 2.733-11.5 3.813-16.072 3.266.09.253 22.162 1.178 22.19.035l1.291-6.309c10.908-7.522 6.438-18.905-3.221-18.864-.843 0-1.807.1-2.742.26l-3.283 1.025-.843-3.942h3.748c.988.283 1.677-1.52 1.703-2.566.146-2.165-1.376-2.6-2.144-2.743z" opacity=".2"/><path d="M25.966 6.671c-.906-.243-2.475-.187-3.05.53-.043.053-.033.206-.032.284l.027 3.439h-3.324c-.284 0-.757-.016-.933.084-.357.2-.69.905-.722 1.721-.026.663.482 1.825.845 1.856.228.02.554-.026 1.137-.01-1.813-.67-1.345-3.367-.192-3.317l3.492-.027-.044-3.023c-.013-.932.626-1.415 1.672-1.415.41 0 1.374.04 1.851.184-.499-.29-.728-.304-.728-.304zM23.079 16.865l-.74 3.521c-1.32-.776-3.956-1.698-5.961-1.707-9.06-.724-13.872 10.247-3.118 17.685l1.298 6.366.104.015-.434-6.46C4.113 28.84 7.622 19.459 17.282 19.5c2.005.01 4.094.941 5.413 1.717l.874-6.607z" fill="#fff"/></g></svg>