<?xml version="1.0" encoding="UTF-8" standalone="no"?>
<svg
   xmlns:dc="http://purl.org/dc/elements/1.1/"
   xmlns:cc="http://creativecommons.org/ns#"
   xmlns:rdf="http://www.w3.org/1999/02/22-rdf-syntax-ns#"
   xmlns:svg="http://www.w3.org/2000/svg"
   xmlns="http://www.w3.org/2000/svg"
   xmlns:sodipodi="http://sodipodi.sourceforge.net/DTD/sodipodi-0.dtd"
   xmlns:inkscape="http://www.inkscape.org/namespaces/inkscape"
   viewBox="0 0 2048 2048"
   id="svg2"
   version="1.1"
   inkscape:version="0.91 r13725"
   width="100%"
   height="100%"
   sodipodi:docname="bB.svg">
  <metadata
     id="metadata12">
    <rdf:RDF>
      <cc:Work
         rdf:about="">
        <dc:format>image/svg+xml</dc:format>
        <dc:type
           rdf:resource="http://purl.org/dc/dcmitype/StillImage" />
        <dc:title></dc:title>
      </cc:Work>
    </rdf:RDF>
  </metadata>
  <defs
     id="defs10" />
  <sodipodi:namedview
     pagecolor="#ffffff"
     bordercolor="#666666"
     borderopacity="1"
     objecttolerance="10"
     gridtolerance="10"
     guidetolerance="10"
     inkscape:pageopacity="0"
     inkscape:pageshadow="2"
     inkscape:window-width="640"
     inkscape:window-height="700"
     id="namedview8"
     showgrid="false"
     inkscape:zoom="0.11523438"
     inkscape:cx="1024"
     inkscape:cy="1024"
     inkscape:window-x="2306"
     inkscape:window-y="172"
     inkscape:window-maximized="0"
     inkscape:current-layer="svg2" />
  <g
     transform="translate(0,-47)"
     id="g4">
    <path
       d="m 768,683 q -5,-39 -26,-82 l 564,0 q -18,36 -26,82 l -512,0 z m 495,73 46,73 q -142,49 -285,47 -144,2 -285,-47 l 46,-73 q 118,40 239,38 120,2 239,-38 z M 831,529 624,529 q 67,116 72,229 -114,119 -162,223.5 -48,104.5 -6,223.5 33,96 118,189.5 85,93.5 312,246.5 -17,11 -46,36 -29,25 -29,79 0,58 41,96 41,38 100,38 58,0 99.5,-38 41.5,-38 41.5,-96 0,-54 -29.5,-79 -29.5,-25 -45.5,-36 226,-153 311,-246.5 85,-93.5 119,-189.5 42,-119 -6,-223.5 Q 1466,877 1352,758 q 4,-113 72,-229 l -207,0 q -2,4 10,-16 33,-53 70,-60 37,-7 89,-7 l 250,0 q 76,0 141.5,-62 65.5,-62 65.5,-179 l -495,0 q -123,0 -223.5,84.5 Q 1024,374 1024,488 1024,374 923,289.5 822,205 700,205 l -495,0 q 0,117 65,179 65,62 142,62 l 250,0 q 51,0 88,7 37,7 71,60 12,20 10,16 z m 146,701 -95,0 0,-89 95,0 0,-165 94,0 0,165 95,0 0,89 -95,0 0,104 -94,0 0,-104 z"
       id="path6"
       inkscape:connector-curvature="0"
       style="fill:#101010" />
  </g>
  <path
     style="fill:#ececec;fill-opacity:1;stroke:#101010;stroke-width:0;stroke-linecap:round;stroke-linejoin:miter;stroke-miterlimit:3.79999995;stroke-dasharray:none;stroke-dashoffset:0;stroke-opacity:1"
     d="m 761.54028,594.3017 12.85605,39.0508 249.60367,0 249.6037,0 12.856,-39.0508 12.8561,-39.0509 -275.3158,0 -275.31577,0 12.85605,39.0509 z"
     id="path2989"
     inkscape:connector-curvature="0" />
  <path
     style="fill:#ececec;fill-opacity:1;stroke:#101010;stroke-width:0;stroke-linecap:round;stroke-linejoin:miter;stroke-miterlimit:3.79999995;stroke-dasharray:none;stroke-dashoffset:0;stroke-opacity:1"
     d="m 765.07813,750.0521 -17.65316,29.9199 44.99938,13.0677 c 84.66507,24.5867 172.41074,33.5953 274.96545,28.2302 54.8882,-2.8715 113.4644,-8.9793 130.1695,-13.5729 16.7051,-4.5936 46.7792,-12.6064 66.8314,-17.8062 l 36.4585,-9.4541 -17.7902,-30.1522 c -20.3271,-34.4518 -23.3108,-34.9921 -91.5848,-16.5858 -68.72,18.5267 -266.2284,18.5267 -334.94845,0 -68.23049,-18.3946 -71.26607,-17.8518 -91.44762,16.3534 z"
     id="path2991"
     inkscape:connector-curvature="0" />
  <path
     style="fill:#ececec;fill-opacity:1;stroke:#101010;stroke-width:0;stroke-linecap:round;stroke-linejoin:miter;stroke-miterlimit:3.79999995;stroke-dasharray:none;stroke-dashoffset:0;stroke-opacity:1"
     d="m 980.61017,1019.522 0,82.4407 -47.72881,0 -47.72882,0 0,39.0509 0,39.0508 47.72882,0 47.72881,0 0,52.0678 0,52.0678 43.38983,0 43.3898,0 0,-52.0678 0,-52.0678 47.7288,0 47.7289,0 0,-39.0508 0,-39.0509 -47.7289,0 -47.7288,0 0,-82.4407 0,-82.4406 -43.3898,0 -43.38983,0 0,82.4406 z"
     id="path2993"
     inkscape:connector-curvature="0" />
</svg>
