<?xml version="1.0" encoding="UTF-8" standalone="no"?>
<svg
   xmlns:dc="http://purl.org/dc/elements/1.1/"
   xmlns:cc="http://creativecommons.org/ns#"
   xmlns:rdf="http://www.w3.org/1999/02/22-rdf-syntax-ns#"
   xmlns:svg="http://www.w3.org/2000/svg"
   xmlns="http://www.w3.org/2000/svg"
   xmlns:sodipodi="http://sodipodi.sourceforge.net/DTD/sodipodi-0.dtd"
   xmlns:inkscape="http://www.inkscape.org/namespaces/inkscape"
   viewBox="0 0 2048 2048"
   id="svg2"
   version="1.1"
   inkscape:version="0.91 r13725"
   width="100%"
   height="100%"
   sodipodi:docname="bK.svg">
  <metadata
     id="metadata12">
    <rdf:RDF>
      <cc:Work
         rdf:about="">
        <dc:format>image/svg+xml</dc:format>
        <dc:type
           rdf:resource="http://purl.org/dc/dcmitype/StillImage" />
        <dc:title />
      </cc:Work>
    </rdf:RDF>
  </metadata>
  <defs
     id="defs10" />
  <sodipodi:namedview
     pagecolor="#ffffff"
     bordercolor="#666666"
     borderopacity="1"
     objecttolerance="10"
     gridtolerance="10"
     guidetolerance="10"
     inkscape:pageopacity="0"
     inkscape:pageshadow="2"
     inkscape:window-width="640"
     inkscape:window-height="673"
     id="namedview8"
     showgrid="false"
     inkscape:zoom="0.11523438"
     inkscape:cx="1024"
     inkscape:cy="1024"
     inkscape:window-x="2265"
     inkscape:window-y="211"
     inkscape:window-maximized="0"
     inkscape:current-layer="svg2" />
  <g
     transform="matrix(-1,0,0,1,2047.9921,-2)"
     id="g4">
    <path
       d="m 1024,279 489,0 -12,73 -477,0 -477,0 -12,-73 489,0 z m 0,921 q -25,60 -62,111 31,48 62,65 30,-17 62,-65 -38,-51 -62,-111 z M 927,746 Q 773,735 624,688 501,796 424,901.5 347,1007 347,1103 q 0,89 73.5,159 73.5,70 148.5,70 67,0 134.5,-62.5 Q 771,1207 806,1139 836,1085 881,964 926,843 927,746 Z M 577,529 551,373 696,457 Z m 447,907 q -47,0 -136,-121 -31,36 -50,55 93,140 186,140 92,0 186,-140 -20,-19 -50,-55 -90,121 -136,121 z m 0,-775 q -1,126 -42,267.5 -41,141.5 -84,226.5 -8,14 -14,27 -6,13 -12,23 -28,43 -48,69 -51,63 -120,105 -69,42 -134,42 -103,0 -208,-93 Q 257,1235 257,1099 257,979 356,844.5 455,710 605,585 q 201,74 419,76 z m 0,-456 -576,0 61,365 q -325,280 -326,535 -1,159 125,274.5 126,115.5 267,115.5 78,0 158.5,-47 80.5,-47 142.5,-119 61,-74 98.5,-164.5 37.5,-90.5 49.5,-150.5 12,60 49,150.5 37,90.5 99,164.5 61,72 142,119 81,47 159,47 140,0 266,-115.5 126,-115.5 126,-274.5 -2,-255 -326,-535 l 61,-365 -576,0 z m 97,541 q 0,97 45,218 45,121 76,175 34,68 101.5,130.5 67.5,62.5 135.5,62.5 74,0 147.5,-70 73.5,-70 74.5,-159 0,-96 -77,-201.5 Q 1547,796 1424,688 q -150,47 -303,58 z m 350,-217 -119,-72 145,-84 z m -447,132 q 217,-2 419,-76 150,125 249,259.5 99,134.5 99,254.5 0,136 -105.5,229 -105.5,93 -207.5,93 -66,0 -135,-42 -69,-42 -119,-105 -21,-26 -48,-69 -6,-10 -12.5,-23 L 1150,1155 Q 1106,1070 1065,928.5 1024,787 1024,661 Z m -139,-159 139,-86 139,84 -139,86 z m 92,1248 0,95 94,0 0,-95 107,0 0,-95 -107,0 0,-153 q -48,16 -94,0 l 0,153 -107,0 0,95 107,0 z"
       id="path6"
       inkscape:connector-curvature="0"
       style="fill:#101010" />
  </g>
  <path
     style="fill:#ececec;fill-opacity:1;stroke:#101010;stroke-width:0;stroke-linecap:round;stroke-linejoin:miter;stroke-miterlimit:3.79999995;stroke-dasharray:none;stroke-dashoffset:0;stroke-opacity:1"
     d="m 646.50063,600.9782 c 78.8657,27.9719 280.8492,63.4896 361.05497,63.4896 13.5729,0 8.3701,92.9378 -9.93167,177.4108 -46.5412,214.814 -134.473,397.6588 -231.4791,481.3361 -104.2876,89.9584 -202.4256,110.2926 -301.8815,62.55 -101.7059,-48.8227 -168.8559,-126.4754 -192.6106,-222.736 -11.9521,-48.4335 -12.5067,-65.8348 -3.6329,-113.9946 20.0474,-108.801 81.3793,-205.3589 221.2364,-348.3037 109.9971,-112.4256 114.1265,-115.0451 157.2444,-99.7522 z m -122.8177,179.6594 c -134.7609,141.4644 -175.4829,214.4621 -176.1913,315.8377 -0.4683,67.0367 13.4333,101.8353 61.5242,154.0078 143.4095,155.5809 315.1045,83.4522 434.3981,-182.4899 42.6209,-95.0149 76.4874,-206.0972 82.5156,-270.651 5.7063,-61.108 10.2312,-57.4923 -84.8046,-67.7654 -26.5972,-2.875 -83.221,-14.3756 -125.8305,-25.5568 -42.6095,-11.1812 -81.9736,-20.7494 -87.4759,-21.2628 -5.5022,-0.5134 -52.3632,43.5328 -104.1356,97.8804 l 0,0 z"
     id="path2989"
     inkscape:connector-curvature="0" />
  <path
     style="fill:#ececec;fill-opacity:1;stroke:#101010;stroke-width:0;stroke-linecap:round;stroke-linejoin:miter;stroke-miterlimit:3.79999995;stroke-dasharray:none;stroke-dashoffset:0;stroke-opacity:1"
     d="m 1525.2986,667.2381 c 239.8392,230.9325 308.1096,402.656 225.6895,567.6863 -10.7043,21.4334 -41.0032,58.6706 -67.3309,82.7494 -103.3865,94.5554 -209.1715,117.5745 -308.9909,67.2373 -104.9401,-52.9195 -177.349,-137.2275 -237.9262,-277.025 -58.528,-135.0684 -104.07,-310.1565 -104.07,-400.1011 l 0,-41.9358 58.5763,-5.339 c 104.0056,-9.4797 214.7809,-29.5868 283.8638,-51.5246 l 67.4453,-21.4179 82.7431,79.6704 z m -186.3825,35.874 c -46.7268,11.7086 -106.4358,23.6599 -132.6867,26.5583 -95.0231,10.4919 -89.9144,6.2064 -83.9201,70.3974 6.6169,70.8594 56.4566,218.8281 106.4531,316.0484 88.352,171.8038 210.0674,249.0146 320.0838,203.0468 44.1598,-18.4511 116.4371,-87.4945 135.7522,-129.6782 19.0511,-41.6071 20.9871,-132.1847 3.8518,-180.2076 -22.6552,-63.4927 -71.0759,-130.9368 -164.1489,-228.6396 -51.7724,-54.3476 -95.5481,-98.8139 -97.2794,-98.8139 -1.7314,0 -41.379,9.5798 -88.1058,21.2884 z"
     id="path2991"
     inkscape:connector-curvature="0" />
  <path
     style="fill:#ececec;fill-opacity:1;stroke:#101010;stroke-width:0;stroke-linecap:round;stroke-linejoin:miter;stroke-miterlimit:3.79999995;stroke-dasharray:none;stroke-dashoffset:0;stroke-opacity:1"
     d="m 1044.6177,1096.2594 c 16.5225,50.557 72.0538,164.1967 97.3145,199.1449 13.3518,18.4722 11.9013,21.1211 -41.5787,75.9322 -38.004,38.95 -61.9944,56.7923 -76.3614,56.7923 -14.367,0 -38.35737,-17.8423 -76.36137,-56.7923 -53.717,-55.054 -54.9805,-57.3781 -41.2802,-75.9322 24.0218,-32.5321 99.74427,-191.1288 105.47077,-220.9026 2.9834,-15.5119 7.9186,-28.1751 10.9671,-28.1406 3.0485,0.035 12.8717,22.4888 21.8293,49.8983 l 0,0 z m -56.66677,157.6802 -31.7022,59.8185 28.5336,31.1515 c 15.69347,17.1333 33.33787,31.1514 39.20977,31.1514 5.8719,0 23.5163,-14.0181 39.2098,-31.1514 l 28.5336,-31.1515 -31.7022,-59.8185 c -17.4362,-32.9001 -33.6548,-59.8184 -36.0412,-59.8184 -2.3864,0 -18.605,26.9183 -36.04117,59.8184 z"
     id="path2993"
     inkscape:connector-curvature="0" />
  <path
     style="fill:#ececec;fill-opacity:1;stroke:#101010;stroke-width:0;stroke-linecap:round;stroke-linejoin:miter;stroke-miterlimit:3.79999995;stroke-dasharray:none;stroke-dashoffset:0;stroke-opacity:1"
     d="m 1086.9074,458.4442 c 32.2169,20.136 58.5428,38.6067 58.5019,41.046 -0.041,2.4394 -27.0666,21.0865 -60.0572,41.4381 l -59.983,37.003 -61.43427,-36.958 c -33.7888,-20.3268 -61.4342,-39.4619 -61.4342,-42.5224 0,-4.9152 115.84427,-77.2345 123.00867,-76.7918 1.552,0.096 29.1811,16.6492 61.3981,36.7851 z"
     id="path2995"
     inkscape:connector-curvature="0" />
  <path
     style="fill:#ececec;fill-opacity:1;stroke:#101010;stroke-width:0;stroke-linecap:round;stroke-linejoin:miter;stroke-miterlimit:3.79999995;stroke-dasharray:none;stroke-dashoffset:0;stroke-opacity:1"
     d="m 1489.2155,393.6812 c -2.3664,8.1326 -6.9634,34.312 -10.2155,58.1764 -8.9942,66.0007 -11.0401,67.1917 -62.3299,36.2864 -25.0576,-15.0988 -45.5593,-29.9113 -45.5593,-32.9166 0,-3.0053 27.5416,-21.4096 61.2036,-40.8985 45.1167,-26.1206 60.0727,-31.5477 56.9011,-20.6477 z"
     id="path2997"
     inkscape:connector-curvature="0" />
  <path
     style="fill:#ececec;fill-opacity:1;stroke:#101010;stroke-width:0;stroke-linecap:round;stroke-linejoin:miter;stroke-miterlimit:3.79999995;stroke-dasharray:none;stroke-dashoffset:0;stroke-opacity:1"
     d="m 616.12773,414.2777 c 31.0237,18.3043 57.3928,36.2297 58.5979,39.8342 2.4479,7.3215 -86.9459,63.409 -92.3885,57.9665 -3.4172,-3.4172 -26.4635,-128.9748 -23.9283,-130.3629 0.7217,-0.3952 26.6952,14.2578 57.7189,32.5622 z"
     id="path2999"
     inkscape:connector-curvature="0" />
  <path
     style="fill:#ececec;fill-opacity:1;stroke:#101010;stroke-width:0;stroke-linecap:round;stroke-linejoin:miter;stroke-miterlimit:3.79999995;stroke-dasharray:none;stroke-dashoffset:0;stroke-opacity:1"
     d="m 1502.9273,313.0102 -3.5459,30.3729 -475.3893,0 -475.38927,0 -3.5458,-30.3729 -3.5459,-30.3729 482.48097,0 482.481,0 -3.5458,30.3729 z"
     id="path3001"
     inkscape:connector-curvature="0" />
</svg>
