<?xml version="1.0" encoding="UTF-8" standalone="no"?>
<!-- Created with Inkscape (http://www.inkscape.org/) -->

<svg
   xmlns:dc="http://purl.org/dc/elements/1.1/"
   xmlns:cc="http://creativecommons.org/ns#"
   xmlns:rdf="http://www.w3.org/1999/02/22-rdf-syntax-ns#"
   xmlns:svg="http://www.w3.org/2000/svg"
   xmlns="http://www.w3.org/2000/svg"
   xmlns:sodipodi="http://sodipodi.sourceforge.net/DTD/sodipodi-0.dtd"
   xmlns:inkscape="http://www.inkscape.org/namespaces/inkscape"
   width="210mm"
   height="297mm"
   viewBox="0 0 744.09448819 1052.3622047"
   id="svg3376"
   version="1.1"
   inkscape:version="0.91 r13725"
   sodipodi:docname="bK.svg">
  <defs
     id="defs3378" />
  <sodipodi:namedview
     id="base"
     pagecolor="#ffffff"
     bordercolor="#666666"
     borderopacity="1.0"
     inkscape:pageopacity="0.0"
     inkscape:pageshadow="2"
     inkscape:zoom="0.35"
     inkscape:cx="375"
     inkscape:cy="520"
     inkscape:document-units="px"
     inkscape:current-layer="layer1"
     showgrid="false"
     inkscape:window-width="1920"
     inkscape:window-height="1017"
     inkscape:window-x="-8"
     inkscape:window-y="-8"
     inkscape:window-maximized="1" />
  <metadata
     id="metadata3381">
    <rdf:RDF>
      <cc:Work
         rdf:about="">
        <dc:format>image/svg+xml</dc:format>
        <dc:type
           rdf:resource="http://purl.org/dc/dcmitype/StillImage" />
        <dc:title></dc:title>
      </cc:Work>
    </rdf:RDF>
  </metadata>
  <g
     inkscape:label="Layer 1"
     inkscape:groupmode="layer"
     id="layer1">
    <g
       id="g3397"
       transform="matrix(1,0,0,-1,-1258.2818,1123.9336)">
      <g
         id="g4"
         transform="matrix(1,0,0,-1,0,2048)">
        <path
           id="path6"
           d="m 1024,279 489,0 -12,73 -477,0 -477,0 -12,-73 489,0 z m 0,921 q -25,60 -62,111 31,48 62,65 30,-17 62,-65 -38,-51 -62,-111 z M 927,746 Q 773,735 624,688 501,796 424,901.5 347,1007 347,1103 q 0,89 73.5,159 73.5,70 148.5,70 67,0 134.5,-62.5 Q 771,1207 806,1139 836,1085 881,964 926,843 927,746 Z M 577,529 551,373 696,457 Z m 447,907 q -47,0 -136,-121 -31,36 -50,55 93,140 186,140 92,0 186,-140 -20,-19 -50,-55 -90,121 -136,121 z m 0,-775 q -1,126 -42,267.5 -41,141.5 -84,226.5 -8,14 -14,27 -6,13 -12,23 -28,43 -48,69 -51,63 -120,105 -69,42 -134,42 -103,0 -208,-93 Q 257,1235 257,1099 257,979 356,844.5 455,710 605,585 q 201,74 419,76 z m 0,-456 -576,0 61,365 q -325,280 -326,535 -1,159 125,274.5 126,115.5 267,115.5 78,0 158.5,-47 80.5,-47 142.5,-119 61,-74 98.5,-164.5 37.5,-90.5 49.5,-150.5 12,60 49,150.5 37,90.5 99,164.5 61,72 142,119 81,47 159,47 140,0 266,-115.5 126,-115.5 126,-274.5 -2,-255 -326,-535 l 61,-365 -576,0 z m 97,541 q 0,97 45,218 45,121 76,175 34,68 101.5,130.5 67.5,62.5 135.5,62.5 74,0 147.5,-70 73.5,-70 74.5,-159 0,-96 -77,-201.5 Q 1547,796 1424,688 q -150,47 -303,58 z m 350,-217 -119,-72 145,-84 z m -447,132 q 217,-2 419,-76 150,125 249,259.5 99,134.5 99,254.5 0,136 -105.5,229 -105.5,93 -207.5,93 -66,0 -135,-42 -69,-42 -119,-105 -21,-26 -48,-69 -6,-10 -12.5,-23 L 1150,1155 Q 1106,1070 1065,928.5 1024,787 1024,661 Z m -139,-159 139,-86 139,84 -139,86 z m 92,1248 0,95 94,0 0,-95 107,0 0,-95 -107,0 0,-153 q -48,16 -94,0 l 0,153 -107,0 0,95 107,0 z"
           inkscape:connector-curvature="0"
           style="fill:#101010" />
      </g>
      <path
         inkscape:connector-curvature="0"
         id="path2989"
         d="m 1401.4915,1445.0218 c -78.8657,-27.9719 -280.8492,-63.4896 -361.055,-63.4896 -13.5729,0 -8.3701,-92.9378 9.9317,-177.4108 46.5412,-214.81404 134.473,-397.65875 231.4791,-481.3361 104.2876,-89.95837 202.4256,-110.29259 301.8815,-62.54996 101.7059,48.82269 168.8559,126.47534 192.6106,222.736 11.9521,48.43347 12.5067,65.83472 3.6329,113.99457 -20.0474,108.80099 -81.3793,205.35889 -221.2364,348.30369 -109.9971,112.4256 -114.1265,115.0451 -157.2444,99.7522 z m 122.8177,-179.6594 c 134.7609,-141.4644 175.4829,-214.4621 176.1913,-315.83774 0.4683,-67.03663 -13.4333,-101.83522 -61.5242,-154.00777 -143.4095,-155.58091 -315.1045,-83.45215 -434.3981,182.48989 -42.6209,95.01492 -76.4874,206.09722 -82.5156,270.65102 -5.7063,61.108 -10.2312,57.4923 84.8046,67.7654 26.5972,2.875 83.221,14.3756 125.8305,25.5568 42.6095,11.1812 81.9736,20.7494 87.4759,21.2628 5.5022,0.5134 52.3632,-43.5328 104.1356,-97.8804 l 0,0 z"
         style="fill:#ececec;fill-opacity:1;stroke:#101010;stroke-width:0;stroke-linecap:round;stroke-linejoin:miter;stroke-miterlimit:3.79999995;stroke-dasharray:none;stroke-dashoffset:0;stroke-opacity:1" />
      <path
         inkscape:connector-curvature="0"
         id="path2991"
         d="M 522.69348,1378.7619 C 282.85431,1147.8294 214.58388,976.10591 297.00399,811.07562 307.70836,789.64221 338.00727,752.40497 364.33493,728.3262 467.72145,633.77083 573.50641,610.75174 673.3258,661.08895 778.26588,714.00843 850.6748,798.31641 911.25199,938.11388 969.78,1073.1823 1015.322,1248.2704 1015.322,1338.215 l 0,41.9358 -58.57624,5.339 c -104.0056,9.4797 -214.78092,29.5868 -283.86381,51.5246 l -67.44533,21.4179 -82.74314,-79.6704 z m 186.38255,-35.874 c 46.72683,-11.7086 106.43583,-23.6599 132.68668,-26.5583 95.0231,-10.4919 89.91439,-6.2064 83.92014,-70.3974 -6.61695,-70.8594 -56.45658,-218.8281 -106.45317,-316.0484 -88.352,-171.80383 -210.06736,-249.01461 -320.08376,-203.04682 -44.15978,18.45113 -116.43706,87.49453 -135.7522,129.67827 -19.05108,41.60706 -20.9871,132.18468 -3.85178,180.20755 22.6552,63.4927 71.07585,130.9368 164.1489,228.6396 51.77234,54.3476 95.54808,98.8139 97.27942,98.8139 1.73135,0 41.37895,-9.5798 88.10577,-21.2884 z"
         style="fill:#ececec;fill-opacity:1;stroke:#101010;stroke-width:0;stroke-linecap:round;stroke-linejoin:miter;stroke-miterlimit:3.79999995;stroke-dasharray:none;stroke-dashoffset:0;stroke-opacity:1" />
      <path
         inkscape:connector-curvature="0"
         id="path2993"
         d="M 1003.3744,949.74058 C 986.85194,899.18356 931.32063,785.54395 906.05991,750.5957 c -13.35176,-18.4722 -11.90128,-21.12111 41.57869,-75.93221 38.00403,-38.94995 61.9944,-56.7923 76.3614,-56.7923 14.367,0 38.3574,17.84235 76.3614,56.7923 53.717,55.05403 54.9805,57.37814 41.2802,75.93221 -24.0218,32.53209 -99.7443,191.12876 -105.4708,220.90261 -2.9834,15.51186 -7.9186,28.17512 -10.9671,28.14057 -3.0485,-0.0347 -12.8717,-22.48878 -21.8293,-49.8983 l 0,0 z m 56.6668,-157.68022 31.7022,-59.81846 -28.5336,-31.15146 c -15.6935,-17.1333 -33.3379,-31.15146 -39.2098,-31.15146 -5.8719,0 -23.5163,14.01816 -39.20978,31.15146 l -28.53362,31.15146 31.70221,59.81846 c 17.43619,32.90016 33.65479,59.81847 36.04119,59.81847 2.3864,0 18.605,-26.91831 36.0412,-59.81847 z"
         style="fill:#ececec;fill-opacity:1;stroke:#101010;stroke-width:0;stroke-linecap:round;stroke-linejoin:miter;stroke-miterlimit:3.79999995;stroke-dasharray:none;stroke-dashoffset:0;stroke-opacity:1" />
      <path
         inkscape:connector-curvature="0"
         id="path2995"
         d="m 961.08475,1587.5558 c -32.21695,-20.136 -58.54284,-38.6067 -58.50197,-41.046 0.0409,-2.4394 27.06664,-21.0865 60.05728,-41.4381 l 59.98294,-37.003 61.4343,36.958 c 33.7888,20.3268 61.4342,39.4619 61.4342,42.5224 0,4.9152 -115.8443,77.2345 -123.0087,76.7918 -1.552,-0.096 -29.18111,-16.6492 -61.39805,-36.7851 z"
         style="fill:#ececec;fill-opacity:1;stroke:#101010;stroke-width:0;stroke-linecap:round;stroke-linejoin:miter;stroke-miterlimit:3.79999995;stroke-dasharray:none;stroke-dashoffset:0;stroke-opacity:1" />
      <path
         inkscape:connector-curvature="0"
         id="path2997"
         d="m 558.77664,1652.3188 c 2.3664,-8.1326 6.96336,-34.312 10.21546,-58.1764 8.99418,-66.0007 11.04011,-67.1917 62.32993,-36.2864 25.05763,15.0988 45.55933,29.9113 45.55933,32.9166 0,3.0053 -27.54164,21.4096 -61.20364,40.8985 -45.11665,26.1206 -60.07274,31.5477 -56.90108,20.6477 z"
         style="fill:#ececec;fill-opacity:1;stroke:#101010;stroke-width:0;stroke-linecap:round;stroke-linejoin:miter;stroke-miterlimit:3.79999995;stroke-dasharray:none;stroke-dashoffset:0;stroke-opacity:1" />
      <path
         inkscape:connector-curvature="0"
         id="path2999"
         d="m 1431.8644,1631.7223 c -31.0237,-18.3043 -57.3928,-36.2297 -58.5979,-39.8342 -2.4479,-7.3215 86.9459,-63.409 92.3885,-57.9665 3.4172,3.4172 26.4635,128.9748 23.9283,130.3629 -0.7217,0.3952 -26.6952,-14.2578 -57.7189,-32.5622 z"
         style="fill:#ececec;fill-opacity:1;stroke:#101010;stroke-width:0;stroke-linecap:round;stroke-linejoin:miter;stroke-miterlimit:3.79999995;stroke-dasharray:none;stroke-dashoffset:0;stroke-opacity:1" />
      <path
         inkscape:connector-curvature="0"
         id="path3001"
         d="m 545.06485,1732.9898 3.54586,-30.3729 475.38929,0 475.3893,0 3.5458,30.3729 3.5459,30.3729 -482.481,0 -482.48102,0 3.54587,-30.3729 z"
         style="fill:#ececec;fill-opacity:1;stroke:#101010;stroke-width:0;stroke-linecap:round;stroke-linejoin:miter;stroke-miterlimit:3.79999995;stroke-dasharray:none;stroke-dashoffset:0;stroke-opacity:1" />
    </g>
  </g>
</svg>
