<?xml version="1.0" encoding="UTF-8" standalone="no"?>
<!-- Created with Inkscape (http://www.inkscape.org/) -->

<svg
   xmlns:dc="http://purl.org/dc/elements/1.1/"
   xmlns:cc="http://creativecommons.org/ns#"
   xmlns:rdf="http://www.w3.org/1999/02/22-rdf-syntax-ns#"
   xmlns:svg="http://www.w3.org/2000/svg"
   xmlns="http://www.w3.org/2000/svg"
   xmlns:sodipodi="http://sodipodi.sourceforge.net/DTD/sodipodi-0.dtd"
   xmlns:inkscape="http://www.inkscape.org/namespaces/inkscape"
   width="210mm"
   height="297mm"
   viewBox="0 0 744.09448819 1052.3622047"
   id="svg3470"
   version="1.1"
   inkscape:version="0.91 r13725"
   sodipodi:docname="bN.svg">
  <defs
     id="defs3472" />
  <sodipodi:namedview
     id="base"
     pagecolor="#ffffff"
     bordercolor="#666666"
     borderopacity="1.0"
     inkscape:pageopacity="0.0"
     inkscape:pageshadow="2"
     inkscape:zoom="0.35"
     inkscape:cx="375"
     inkscape:cy="520"
     inkscape:document-units="px"
     inkscape:current-layer="layer1"
     showgrid="false"
     inkscape:window-width="1920"
     inkscape:window-height="1017"
     inkscape:window-x="-8"
     inkscape:window-y="-8"
     inkscape:window-maximized="1" />
  <metadata
     id="metadata3475">
    <rdf:RDF>
      <cc:Work
         rdf:about="">
        <dc:format>image/svg+xml</dc:format>
        <dc:type
           rdf:resource="http://purl.org/dc/dcmitype/StillImage" />
        <dc:title></dc:title>
      </cc:Work>
    </rdf:RDF>
  </metadata>
  <g
     inkscape:label="Layer 1"
     inkscape:groupmode="layer"
     id="layer1">
    <g
       id="g3487"
       transform="matrix(1,0,0,-1,-1292.2143,1194.2907)">
      <g
         id="g4"
         transform="matrix(1,0,0,-1,0,2048)">
        <path
           id="path6"
           d="m 502,1180 -52,-1 -26,-64 69,-21 46,55 z m 536,187 q 34,-1 -16,68 -50,69 -80,42 L 826,1368 Z m -338,98 q 6,39 115.5,107.5 Q 925,1641 1036,1716 l 115,154 96,-217 Q 1589,1481 1679.5,1235.5 1770,990 1727,632 1709,504 1731.5,396 1754,288 1789,206 L 547,205 q -9,178 39,301.5 48,123.5 183,237.5 50,11 82.5,39.5 Q 884,812 905,842 l 62.5,1 q 0,0 138,29 138,29 139,97 1,68 66.5,207 0,17 -8.5,34 -8.5,17 -11.5,37 Q 1229,1019 1130,958.5 1031,898 939,900 703,942 647,840 L 591,738 374,859 489,941 438,991 316,905 304,1202 Z M 1681,273 q -102,130 -85,308.5 17,178.5 27,362.5 10,184 -50,351.5 -60,167.5 -316,275.5 220,-164 252.5,-342 Q 1542,1051 1526,878.5 1510,706 1514,549.5 1518,393 1681,273 Z"
           inkscape:connector-curvature="0"
           style="fill:#101010" />
      </g>
      <path
         inkscape:connector-curvature="0"
         id="path2989"
         d="m 1601.3052,1693.0403 c -81.081,-89.747 -91.5841,-156.5414 -74.2276,-472.0505 20.3789,-370.45059 -8.7512,-495.11834 -150.5575,-644.33895 -28.3483,-29.83051 -47.8136,-54.23729 -43.2562,-54.23729 17.0173,0 100.1093,58.43477 144.6504,101.72598 57.0521,55.45106 86.1396,107.89196 109.6386,197.66385 34.9938,133.6852 37.5437,201.94031 17.3275,463.81811 -19.9909,258.9589 -17.5419,312.6196 18.0578,395.6705 9.6985,22.6255 16.1305,42.6404 14.2935,44.4774 -1.8371,1.8371 -18.004,-12.891 -35.9265,-32.7291 l 0,0 z"
         style="fill:#ececec;fill-opacity:1;stroke:#101010;stroke-width:0;stroke-linecap:round;stroke-linejoin:miter;stroke-miterlimit:3.79999995;stroke-dasharray:none;stroke-dashoffset:0;stroke-opacity:1" />
      <path
         inkscape:connector-curvature="0"
         id="path2991"
         d="m 896.70344,621.33017 c 55.68259,-53.26842 60.42184,-55.96132 78.1017,-44.37838 26.06806,17.07847 76.40326,84.06615 70.43026,93.73076 -2.6971,4.36392 -50.55804,7.80453 -106.35772,7.6458 l -101.45395,-0.2886 59.27971,-56.70958 z"
         style="fill:#ececec;fill-opacity:1;stroke:#101010;stroke-width:0;stroke-linecap:round;stroke-linejoin:miter;stroke-miterlimit:3.79999995;stroke-dasharray:none;stroke-dashoffset:0;stroke-opacity:1" />
      <path
         inkscape:connector-curvature="0"
         id="path2993"
         d="m 464.27119,941.44594 c -27.44127,-6.6005 -31.26949,-14.68402 -20.9599,-44.25815 7.68249,-22.038 14.48333,-27.65559 33.48079,-27.65559 13.112,0 30.36269,7.20749 38.33486,16.01664 13.59229,15.01931 13.36664,17.45094 -3.62386,39.05085 -9.96529,12.66881 -20.76409,22.58121 -23.99733,22.02755 -3.23325,-0.55366 -13.6888,-2.88525 -23.23456,-5.1813 z"
         style="fill:#ececec;fill-opacity:1;stroke:#101010;stroke-width:0;stroke-linecap:round;stroke-linejoin:miter;stroke-miterlimit:3.79999995;stroke-dasharray:none;stroke-dashoffset:0;stroke-opacity:1" />
    </g>
  </g>
</svg>
