<?xml version="1.0" encoding="UTF-8" standalone="no"?>
<svg
   xmlns:dc="http://purl.org/dc/elements/1.1/"
   xmlns:cc="http://creativecommons.org/ns#"
   xmlns:rdf="http://www.w3.org/1999/02/22-rdf-syntax-ns#"
   xmlns:svg="http://www.w3.org/2000/svg"
   xmlns="http://www.w3.org/2000/svg"
   xmlns:sodipodi="http://sodipodi.sourceforge.net/DTD/sodipodi-0.dtd"
   xmlns:inkscape="http://www.inkscape.org/namespaces/inkscape"
   viewBox="0 0 2048 2048"
   id="svg2"
   version="1.1"
   inkscape:version="0.91 r13725"
   width="100%"
   height="100%"
   sodipodi:docname="bN.svg">
  <metadata
     id="metadata12">
    <rdf:RDF>
      <cc:Work
         rdf:about="">
        <dc:format>image/svg+xml</dc:format>
        <dc:type
           rdf:resource="http://purl.org/dc/dcmitype/StillImage" />
        <dc:title />
      </cc:Work>
    </rdf:RDF>
  </metadata>
  <defs
     id="defs10" />
  <sodipodi:namedview
     pagecolor="#ffffff"
     bordercolor="#666666"
     borderopacity="1"
     objecttolerance="10"
     gridtolerance="10"
     guidetolerance="10"
     inkscape:pageopacity="0"
     inkscape:pageshadow="2"
     inkscape:window-width="640"
     inkscape:window-height="678"
     id="namedview8"
     showgrid="false"
     inkscape:zoom="0.11523438"
     inkscape:cx="1024"
     inkscape:cy="1024"
     inkscape:window-x="2253"
     inkscape:window-y="304"
     inkscape:window-maximized="0"
     inkscape:current-layer="svg2" />
  <g
     transform="matrix(-1,0,0,1,2093,-27)"
     id="g4">
    <path
       d="m 502,1180 -52,-1 -26,-64 69,-21 46,55 z m 536,187 q 34,-1 -16,68 -50,69 -80,42 L 826,1368 Z m -338,98 q 6,39 115.5,107.5 Q 925,1641 1036,1716 l 115,154 96,-217 Q 1589,1481 1679.5,1235.5 1770,990 1727,632 1709,504 1731.5,396 1754,288 1789,206 L 547,205 q -9,178 39,301.5 48,123.5 183,237.5 50,11 82.5,39.5 Q 884,812 905,842 l 62.5,1 q 0,0 138,29 138,29 139,97 1,68 66.5,207 0,17 -8.5,34 -8.5,17 -11.5,37 Q 1229,1019 1130,958.5 1031,898 939,900 703,942 647,840 L 591,738 374,859 489,941 438,991 316,905 304,1202 Z M 1681,273 q -102,130 -85,308.5 17,178.5 27,362.5 10,184 -50,351.5 -60,167.5 -316,275.5 220,-164 252.5,-342 Q 1542,1051 1526,878.5 1510,706 1514,549.5 1518,393 1681,273 Z"
       id="path6"
       inkscape:connector-curvature="0"
       style="fill:#101010" />
  </g>
  <path
     style="fill:#ececec;fill-opacity:1;stroke:#101010;stroke-width:0;stroke-linecap:round;stroke-linejoin:miter;stroke-miterlimit:3.79999995;stroke-dasharray:none;stroke-dashoffset:0;stroke-opacity:1"
     d="m 491.6948,327.9597 c 81.081,89.747 91.5841,156.5414 74.2276,472.0505 -20.3789,370.4506 8.7512,495.1183 150.5575,644.339 28.3483,29.8305 47.8136,54.2372 43.2562,54.2372 -17.0173,0 -100.1093,-58.4347 -144.6504,-101.7259 -57.0521,-55.4511 -86.1396,-107.892 -109.6386,-197.6639 -34.9938,-133.6852 -37.5437,-201.9403 -17.3275,-463.8181 19.9909,-258.9589 17.5419,-312.6196 -18.0578,-395.6705 -9.6985,-22.6255 -16.1305,-42.6404 -14.2935,-44.4774 1.8371,-1.8371 18.004,12.891 35.9265,32.7291 l 0,0 z"
     id="path2989"
     inkscape:connector-curvature="0" />
  <path
     style="fill:#ececec;fill-opacity:1;stroke:#101010;stroke-width:0;stroke-linecap:round;stroke-linejoin:miter;stroke-miterlimit:3.79999995;stroke-dasharray:none;stroke-dashoffset:0;stroke-opacity:1"
     d="m 1196.2966,1399.6698 c -55.6826,53.2685 -60.4219,55.9614 -78.1017,44.3784 -26.0681,-17.0785 -76.4033,-84.0661 -70.4303,-93.7307 2.6971,-4.364 50.558,-7.8046 106.3577,-7.6458 l 101.454,0.2886 -59.2797,56.7095 z"
     id="path2991"
     inkscape:connector-curvature="0" />
  <path
     style="fill:#ececec;fill-opacity:1;stroke:#101010;stroke-width:0;stroke-linecap:round;stroke-linejoin:miter;stroke-miterlimit:3.79999995;stroke-dasharray:none;stroke-dashoffset:0;stroke-opacity:1"
     d="m 1628.7288,1079.5541 c 27.4413,6.6005 31.2695,14.684 20.9599,44.2581 -7.6825,22.038 -14.4833,27.6556 -33.4808,27.6556 -13.112,0 -30.3627,-7.2075 -38.3348,-16.0166 -13.5923,-15.0193 -13.3667,-17.451 3.6238,-39.0509 9.9653,-12.6688 20.7641,-22.5812 23.9974,-22.0275 3.2332,0.5536 13.6888,2.8852 23.2345,5.1813 z"
     id="path2993"
     inkscape:connector-curvature="0" />
</svg>
