<?xml version="1.0" encoding="UTF-8" standalone="no"?>
<svg
   xmlns:dc="http://purl.org/dc/elements/1.1/"
   xmlns:cc="http://creativecommons.org/ns#"
   xmlns:rdf="http://www.w3.org/1999/02/22-rdf-syntax-ns#"
   xmlns:svg="http://www.w3.org/2000/svg"
   xmlns="http://www.w3.org/2000/svg"
   xmlns:sodipodi="http://sodipodi.sourceforge.net/DTD/sodipodi-0.dtd"
   xmlns:inkscape="http://www.inkscape.org/namespaces/inkscape"
   viewBox="0 0 2048 2048"
   id="svg3044"
   version="1.1"
   inkscape:version="0.91 r13725"
   width="100%"
   height="100%"
   sodipodi:docname="bP.svg">
  <metadata
     id="metadata3054">
    <rdf:RDF>
      <cc:Work
         rdf:about="">
        <dc:format>image/svg+xml</dc:format>
        <dc:type
           rdf:resource="http://purl.org/dc/dcmitype/StillImage" />
        <dc:title></dc:title>
      </cc:Work>
    </rdf:RDF>
  </metadata>
  <defs
     id="defs3052" />
  <sodipodi:namedview
     pagecolor="#ffffff"
     bordercolor="#666666"
     borderopacity="1"
     objecttolerance="10"
     gridtolerance="10"
     guidetolerance="10"
     inkscape:pageopacity="0"
     inkscape:pageshadow="2"
     inkscape:window-width="2880"
     inkscape:window-height="1080"
     id="namedview3050"
     showgrid="false"
     inkscape:zoom="0.13292779"
     inkscape:cx="6532.9615"
     inkscape:cy="-674.36315"
     inkscape:window-x="0"
     inkscape:window-y="0"
     inkscape:window-maximized="0"
     inkscape:current-layer="svg3044" />
  <g
     transform="translate(0,156)"
     id="g3046">
    <path
       d="m 1024,205 -578,0 0,74 q -4,80 41.5,137 Q 533,473 613,524 730,615 784.5,741.5 839,868 863,1009 l -287,0 284,239 q -86,74 -86,188 0,103 73,177 73,74 177,74 103,0 176.5,-74 73.5,-74 73.5,-177 0,-114 -86,-188 l 284,-239 -287,0 q 23,-141 78,-267.5 55,-126.5 172,-217.5 79,-51 124.5,-108 45.5,-57 42.5,-137 l 0,-74 -578,0 z"
       id="path3048"
       inkscape:connector-curvature="0"
       style="fill:#101010" />
  </g>
</svg>
