<?xml version="1.0" encoding="UTF-8" standalone="no"?>
<svg
   xmlns:dc="http://purl.org/dc/elements/1.1/"
   xmlns:cc="http://creativecommons.org/ns#"
   xmlns:rdf="http://www.w3.org/1999/02/22-rdf-syntax-ns#"
   xmlns:svg="http://www.w3.org/2000/svg"
   xmlns="http://www.w3.org/2000/svg"
   xmlns:sodipodi="http://sodipodi.sourceforge.net/DTD/sodipodi-0.dtd"
   xmlns:inkscape="http://www.inkscape.org/namespaces/inkscape"
   viewBox="0 0 2048 2048"
   id="svg2"
   version="1.1"
   inkscape:version="0.91 r13725"
   width="100%"
   height="100%"
   sodipodi:docname="wB.svg">
  <metadata
     id="metadata12">
    <rdf:RDF>
      <cc:Work
         rdf:about="">
        <dc:format>image/svg+xml</dc:format>
        <dc:type
           rdf:resource="http://purl.org/dc/dcmitype/StillImage" />
        <dc:title />
      </cc:Work>
    </rdf:RDF>
  </metadata>
  <defs
     id="defs10" />
  <sodipodi:namedview
     pagecolor="#ffffff"
     bordercolor="#666666"
     borderopacity="1"
     objecttolerance="10"
     gridtolerance="10"
     guidetolerance="10"
     inkscape:pageopacity="0"
     inkscape:pageshadow="2"
     inkscape:window-width="1280"
     inkscape:window-height="800"
     id="namedview8"
     showgrid="false"
     inkscape:zoom="0.11523438"
     inkscape:cx="216.51838"
     inkscape:cy="1025.6257"
     inkscape:window-x="0"
     inkscape:window-y="0"
     inkscape:window-maximized="0"
     inkscape:current-layer="svg2" />
  <g
     transform="matrix(-1,0,0,1,2048,-47)"
     id="g4">
    <path
       d="m 1024,1692 q 66,0 64,66 1,55 -64,55 -66,0 -64,-55 -3,-66 64,-66 z m 0,-1204 Q 1024,374 923,289.5 822,205 700,205 l -495,0 q 0,117 65,179 65,62 142,62 l 250,0 q 51,0 88,7 37,7 71,60 12,20 10,16 l 76,0 Q 900,508 904,516 859,411 795,391.5 731,372 649,372 l -240,0 q -52,0 -86,-40 -34,-40 -34,-53 l 424,0 q 66,0 158.5,65 92.5,65 93.5,185 l -341,0 q 67,116 72,229 -114,119 -162,223.5 -48,104.5 -6,223.5 33,96 118,189.5 85,93.5 312,246.5 -17,11 -46,36 -29,25 -29,79 0,58 41,96 41,38 100,38 58,0 99.5,-38 41.5,-38 41.5,-96 0,-54 -29.5,-79 -29.5,-25 -45.5,-36 226,-153 311,-246.5 85,-93.5 119,-189.5 42,-119 -6,-223.5 Q 1466,877 1352,758 q 4,-113 72,-229 l -341,0 q 0,-120 93,-185 93,-65 159,-65 l 424,0 q 0,13 -34.5,53 -34.5,40 -85.5,40 l -240,0 q -83,0 -146.5,19.5 Q 1189,411 1144,516 q 4,-8 -3,13 l 76,0 q -2,4 10,-16 33,-53 70,-60 37,-7 89,-7 l 250,0 q 76,0 141.5,-62 65.5,-62 65.5,-179 l -495,0 q -123,0 -223.5,84.5 Q 1024,374 1024,488 Z m 0,114 283,0 q -28,84 -29,154 -120,41 -254,38 -135,3 -254,-38 -2,-70 -29,-154 l 283,0 z m 0,267 q 159,1 285,-42 189,180 142,346 -60,193 -427,431 -368,-238 -427,-431 -48,-166 142,-346 125,43 285,42 z m -47,361 0,104 94,0 0,-104 95,0 0,-89 -95,0 0,-165 -94,0 0,165 -95,0 0,89 95,0 z"
       id="path6"
       inkscape:connector-curvature="0"
       style="fill:#101010" />
  </g>
  <path
     style="fill:#f9f9f9;fill-opacity:1;stroke:#101010;stroke-width:0;stroke-linecap:round;stroke-linejoin:miter;stroke-miterlimit:3.79999995;stroke-dasharray:none;stroke-dashoffset:0;stroke-opacity:1"
     d="m 1067.8206,1667.6562 c 22.1894,22.1894 22.1894,55.9123 0,78.1017 -35.8385,35.8385 -104.1356,10.2271 -104.1356,-39.0508 0,-29.4568 29.0231,-56.4068 60.7458,-56.4068 14.4632,0 33.7476,7.7137 43.3898,17.3559 z"
     id="path3009"
     inkscape:connector-curvature="0" />
  <path
     style="fill:#f9f9f9;fill-opacity:1;stroke:#101010;stroke-width:0;stroke-linecap:round;stroke-linejoin:miter;stroke-miterlimit:3.79999995;stroke-dasharray:none;stroke-dashoffset:0;stroke-opacity:1"
     d="m 1356.4427,838.0765 c 86.0161,103.3034 118.4296,217.5146 85.2046,300.2238 -23.4607,58.4022 -87.6251,145.4817 -152.8541,207.4428 -66.6567,63.3173 -193.8367,161.7144 -243.7891,188.6156 l -27.3378,14.7223 -90.7941,-66.1673 C 696.5628,1315.0729 579.6465,1159.4704 593.703,1039.5027 c 6.8093,-58.1146 46.0402,-138.164 98.7159,-201.4262 l 44.0489,-52.9018 63.7103,17.4616 c 53.1663,14.5718 90.2799,17.4616 224.2527,17.4616 133.9727,0 171.0863,-2.8898 224.2526,-17.4616 l 63.7104,-17.4616 44.0489,52.9018 0,0 z m -384.0797,165.7153 0,82.4407 -47.7288,0 -47.7289,0 0,52.0678 0,52.0678 47.7289,0 47.7288,0 0,52.0678 0,52.0678 52.0678,0 52.0678,0 0,-52.0678 0,-52.0678 47.7288,0 47.7288,0 0,-52.0678 0,-52.0678 -47.7288,0 -47.7288,0 0,-82.4407 0,-82.4407 -52.0678,0 -52.0678,0 0,82.4407 z"
     id="path3011"
     inkscape:connector-curvature="0" />
  <path
     style="fill:#f9f9f9;fill-opacity:1;stroke:#101010;stroke-width:0;stroke-linecap:round;stroke-linejoin:miter;stroke-miterlimit:3.79999995;stroke-dasharray:none;stroke-dashoffset:0;stroke-opacity:1"
     d="m 1302.0227,559.046 c -0.057,1.1933 -5.8679,23.6475 -12.914,49.8984 -7.046,26.2508 -12.8573,58.3587 -12.9139,71.3508 -0.092,21.1571 -5.3096,25.2319 -50.0013,39.0508 -70.8876,21.9189 -331.58,22.2614 -401.7101,0.5277 l -48.083,-14.9011 -10.2233,-59.6178 c -5.6228,-32.7898 -12.7152,-66.1114 -15.7607,-74.048 -5.0923,-13.2704 16.858,-14.4302 273.0859,-14.4302 153.2429,0 278.577,0.9762 278.5204,2.1694 z"
     id="path3013"
     inkscape:connector-curvature="0" />
  <path
     style="fill:#f9f9f9;fill-opacity:1;stroke:#101010;stroke-width:0;stroke-linecap:round;stroke-linejoin:miter;stroke-miterlimit:3.79999995;stroke-dasharray:none;stroke-dashoffset:0;stroke-opacity:1"
     d="m 1735.7742,262.1765 c -38.2027,53.6508 -46.2246,55.5747 -255.3318,61.2369 -105.2666,2.8505 -205.3268,9.687 -222.4415,15.1983 -38.6319,12.4402 -87.3075,60.1409 -107.845,105.6851 -12.7941,28.3722 -19.8861,34.4781 -40.0465,34.4781 -22.9195,0 -24.1643,-1.8183 -19.3072,-28.2034 15.6168,-84.8357 58.8612,-136.7166 153.9132,-184.6515 l 59.7422,-30.1282 225.0521,0 225.0521,0 -18.7876,26.3847 z"
     id="path3015"
     inkscape:connector-curvature="0" />
  <path
     style="fill:#f9f9f9;fill-opacity:1;stroke:#101010;stroke-width:0;stroke-linecap:round;stroke-linejoin:miter;stroke-miterlimit:3.79999995;stroke-dasharray:none;stroke-dashoffset:0;stroke-opacity:1"
     d="m 804.1462,265.92 c 95.5906,48.2066 135.0941,94.0027 150.0248,173.9229 7.1192,38.1075 6.7916,38.9265 -15.4708,38.6739 C 920.2604,478.3076 910.53,468.8644 887.2839,428.6185 833.4293,335.3802 794.6724,322.8267 560.1596,322.661 376.4486,322.5312 355.1635,317.4452 314.6399,263.9952 l -21.3826,-28.2034 225.5733,0 225.5734,0 59.7422,30.1282 z"
     id="path3017"
     inkscape:connector-curvature="0" />
</svg>
