<?xml version="1.0" encoding="UTF-8" standalone="no"?>
<svg
   xmlns:dc="http://purl.org/dc/elements/1.1/"
   xmlns:cc="http://creativecommons.org/ns#"
   xmlns:rdf="http://www.w3.org/1999/02/22-rdf-syntax-ns#"
   xmlns:svg="http://www.w3.org/2000/svg"
   xmlns="http://www.w3.org/2000/svg"
   xmlns:sodipodi="http://sodipodi.sourceforge.net/DTD/sodipodi-0.dtd"
   xmlns:inkscape="http://www.inkscape.org/namespaces/inkscape"
   viewBox="0 0 2048 2048"
   id="svg2"
   version="1.1"
   inkscape:version="0.91 r13725"
   width="100%"
   height="100%"
   sodipodi:docname="wK.svg">
  <metadata
     id="metadata12">
    <rdf:RDF>
      <cc:Work
         rdf:about="">
        <dc:format>image/svg+xml</dc:format>
        <dc:type
           rdf:resource="http://purl.org/dc/dcmitype/StillImage" />
        <dc:title></dc:title>
      </cc:Work>
    </rdf:RDF>
  </metadata>
  <defs
     id="defs10" />
  <sodipodi:namedview
     pagecolor="#ffffff"
     bordercolor="#666666"
     borderopacity="1"
     objecttolerance="10"
     gridtolerance="10"
     guidetolerance="10"
     inkscape:pageopacity="0"
     inkscape:pageshadow="2"
     inkscape:window-width="1280"
     inkscape:window-height="800"
     id="namedview8"
     showgrid="false"
     inkscape:zoom="0.11523438"
     inkscape:cx="1024"
     inkscape:cy="1024"
     inkscape:window-x="0"
     inkscape:window-y="0"
     inkscape:window-maximized="0"
     inkscape:current-layer="svg2" />
  <g
     transform="translate(0,-2)"
     id="g4">
    <path
       d="m 977,1750 0,95 94,0 0,-95 107,0 0,-95 -107,0 0,-153 q -48,16 -94,0 l 0,153 -107,0 0,95 107,0 z m 47,-314 q -47,0 -136,-121 -31,36 -50,55 93,140 186,140 92,0 186,-140 -20,-19 -50,-55 -90,121 -136,121 z M 577,529 551,373 696,457 Z M 987,735 Q 986,882 950.5,1009.5 915,1137 870,1203 825,1291 738.5,1356 652,1421 570,1421 467,1421 362,1328 257,1235 257,1099 257,990 343.5,863 430,736 546,640 q 212,88 441,95 z m 37,-530 -576,0 61,365 q -325,280 -326,535 -1,159 125,274.5 126,115.5 267,115.5 78,0 158.5,-47 80.5,-47 142.5,-119 61,-74 98.5,-164.5 37.5,-90.5 49.5,-150.5 12,60 49,150.5 37,90.5 99,164.5 61,72 142,119 81,47 159,47 140,0 266,-115.5 126,-115.5 126,-274.5 -2,-255 -326,-535 l 61,-365 -576,0 z m 0,74 489,0 -50,298 q -216,84 -439,84 -223,0 -439,-84 l -50,-298 489,0 z m 447,250 26,-156 -145,84 z m -410,206 q 229,-7 441,-95 115,96 202,223 87,127 87,236 0,136 -105.5,229 -105.5,93 -207.5,93 -83,0 -169.5,-65 -86.5,-65 -130.5,-153 -46,-66 -81.5,-193.5 Q 1061,882 1061,735 Z m -176,-233 141,84 137,-86 -141,-84 z"
       id="path6"
       inkscape:connector-curvature="0"
       style="fill:#101010" />
  </g>
  <path
     style="fill:#f9f9f9;fill-opacity:1;stroke:#101010;stroke-width:0;stroke-linecap:round;stroke-linejoin:miter;stroke-miterlimit:3.79999995;stroke-dasharray:none;stroke-dashoffset:0;stroke-opacity:1"
     d="m 467.47323,721.2625 c -134.72998,139.3717 -200.42785,259.642 -201.72726,369.2934 -1.04822,88.4556 19.99312,141.2751 83.19197,208.8349 138.71652,148.2884 296.80148,148.9599 437.61257,1.8588 62.50377,-65.2958 107.30272,-142.8525 142.49303,-246.6862 27.82923,-82.1139 51.47467,-207.4872 51.53174,-273.2326 0.0382,-44.3756 -8.35911,-50.5259 -69.38884,-50.8197 -55.25238,-0.266 -185.21977,-26.9779 -277.69491,-57.0741 l -91.11865,-29.6546 -74.89965,77.4801 0,0 z"
     id="path2989"
     inkscape:connector-curvature="0" />
  <path
     style="fill:#f9f9f9;fill-opacity:1;stroke:#101010;stroke-width:0;stroke-linecap:round;stroke-linejoin:miter;stroke-miterlimit:3.79999995;stroke-dasharray:none;stroke-dashoffset:0;stroke-opacity:1"
     d="m 1012.2531,1069.0191 c -8.8869,44.4348 -58.19029,154.8442 -89.41745,200.2405 l -29.69189,43.1644 32.0635,39.1293 c 78.29714,95.5513 119.28834,95.5513 197.58544,0 l 32.0635,-39.1293 -29.6919,-43.1644 c -31.2271,-45.3963 -80.5305,-155.8057 -89.4174,-200.2405 -6.6965,-33.4826 -16.7973,-33.4826 -23.4938,0 l 0,0 z"
     id="path2991"
     inkscape:connector-curvature="0" />
  <path
     style="fill:#f9f9f9;fill-opacity:1;stroke:#101010;stroke-width:0;stroke-linecap:round;stroke-linejoin:miter;stroke-miterlimit:3.79999995;stroke-dasharray:none;stroke-dashoffset:0;stroke-opacity:1"
     d="m 470.3763,720.321 c -144.20054,160.8804 -192.66127,246.864 -199.53954,354.0421 -5.0514,78.7116 8.73779,131.7876 47.39619,182.4329 15.88713,20.8133 28.88569,41.7136 28.88569,46.4452 0,4.7316 4.36583,8.6029 9.70184,8.6029 5.33601,0 23.70697,12.2966 40.82435,27.3259 77.14612,67.7352 174.22726,86.4885 259.19185,50.0684 155.9496,-66.8478 266.02969,-245.1996 309.82248,-501.9744 23.7739,-139.396 17.61893,-156.8437 -55.32919,-156.8437 -58.31962,0 -162.08793,-20.9778 -264.79492,-53.5311 -47.74343,-15.1324 -91.74801,-28.4672 -97.78795,-29.6328 -6.03994,-1.1657 -41.30681,31.7134 -78.3708,73.0646 l 0,0 z"
     id="path2993"
     inkscape:connector-curvature="0" />
  <path
     style="fill:#f9f9f9;fill-opacity:1;stroke:#101010;stroke-width:0;stroke-linecap:round;stroke-linejoin:miter;stroke-miterlimit:3.79999995;stroke-dasharray:none;stroke-dashoffset:0;stroke-opacity:1"
     d="m 1410.1082,674.6851 c -88.6963,28.9855 -218.809,55.5637 -273.2946,55.826 -62.5971,0.3014 -69.4238,5.8269 -69.4238,56.1914 0,67.3583 23.4492,189.8778 52.0209,271.8038 35.0343,100.4567 80.949,178.9247 142.0388,242.7433 140.8111,147.1011 298.896,146.4296 437.6126,-1.8588 63.3065,-67.6749 84.2961,-120.4434 83.0674,-208.8349 -1.0173,-73.1884 -26.1616,-140.4933 -85.5622,-229.0284 -41.9743,-62.5617 -160.4813,-195.5854 -185.3629,-208.0693 -9.1713,-4.6015 -45.226,2.9688 -101.0962,21.2269 z"
     id="path2995"
     inkscape:connector-curvature="0" />
  <path
     style="fill:#f9f9f9;fill-opacity:1;stroke:#101010;stroke-width:0;stroke-linecap:round;stroke-linejoin:miter;stroke-miterlimit:3.79999995;stroke-dasharray:none;stroke-dashoffset:0;stroke-opacity:1"
     d="m 544.12562,311.7085 c 7.75901,50.4938 14.7909,58.425 90.5362,102.1148 l 70.88665,40.8874 -46.87593,28.476 c -72.08497,43.7898 -77.93204,49.5973 -71.92846,71.4418 5.9995,21.8297 81.41767,49.3715 212.71574,77.6812 102.10326,22.0149 346.97708,22.0149 449.08038,0 131.298,-28.3097 206.7162,-55.8515 212.7157,-77.6812 6.0036,-21.8445 0.1562,-27.652 -71.9285,-71.4418 l -46.8759,-28.476 70.8867,-40.8874 c 75.7452,-43.6898 82.7772,-51.621 90.5361,-102.1148 l 5.0006,-32.5424 -484.8749,0 -484.87492,0 5.00054,32.5424 z m 550.11788,138.7706 c 37.7604,22.6289 67.4226,44.8412 65.9161,49.3607 -1.5065,4.5195 -32.2339,26.7081 -68.2832,49.3082 l -65.5442,41.091 -67.72574,-40.6391 c -37.24916,-22.3515 -68.87195,-44.5056 -70.27288,-49.2314 -2.02651,-6.836 121.99362,-91.0329 134.08942,-91.0329 1.741,0 34.0602,18.5146 71.8205,41.1435 z"
     id="path2997"
     inkscape:connector-curvature="0" />
</svg>
