<?xml version="1.0" encoding="UTF-8" standalone="no"?>
<!-- Created with Inkscape (http://www.inkscape.org/) -->

<svg
   xmlns:dc="http://purl.org/dc/elements/1.1/"
   xmlns:cc="http://creativecommons.org/ns#"
   xmlns:rdf="http://www.w3.org/1999/02/22-rdf-syntax-ns#"
   xmlns:svg="http://www.w3.org/2000/svg"
   xmlns="http://www.w3.org/2000/svg"
   xmlns:sodipodi="http://sodipodi.sourceforge.net/DTD/sodipodi-0.dtd"
   xmlns:inkscape="http://www.inkscape.org/namespaces/inkscape"
   width="210mm"
   height="297mm"
   viewBox="0 0 744.09448819 1052.3622047"
   id="svg2"
   version="1.1"
   inkscape:version="0.91 r13725"
   sodipodi:docname="wN.svg">
  <defs
     id="defs4" />
  <sodipodi:namedview
     id="base"
     pagecolor="#ffffff"
     bordercolor="#666666"
     borderopacity="1.0"
     inkscape:pageopacity="0.0"
     inkscape:pageshadow="2"
     inkscape:zoom="0.35"
     inkscape:cx="375"
     inkscape:cy="520"
     inkscape:document-units="px"
     inkscape:current-layer="layer1"
     showgrid="false"
     inkscape:window-width="1920"
     inkscape:window-height="1017"
     inkscape:window-x="1912"
     inkscape:window-y="-8"
     inkscape:window-maximized="1" />
  <metadata
     id="metadata7">
    <rdf:RDF>
      <cc:Work
         rdf:about="">
        <dc:format>image/svg+xml</dc:format>
        <dc:type
           rdf:resource="http://purl.org/dc/dcmitype/StillImage" />
        <dc:title></dc:title>
      </cc:Work>
    </rdf:RDF>
  </metadata>
  <g
     inkscape:label="Layer 1"
     inkscape:groupmode="layer"
     id="layer1">
    <g
       id="g3343"
       transform="matrix(1,0,0,-1,-1857.9286,1320.0051)">
      <g
         id="g4"
         transform="matrix(1,0,0,-1,0,2048)">
        <path
           id="path6"
           d="m 1004,956 q 31,-17 54,-42 21,15 36.5,13.5 15.5,-1.5 33.5,1.5 78,11 128.5,85 50.5,74 52.5,165 l -19,67 q -55,-239 -188,-257 -21,-3 -45,-5.5 -24,-2.5 -53,-27.5 z m -258,449 -46,60 q 6,39 115.5,107.5 Q 925,1641 1036,1716 l 115,154 96,-217 Q 1589,1481 1679.5,1235.5 1770,990 1727,632 1709,504 1731.5,395.5 1754,287 1789,205 l -1242,0 q -9,178 39,301.5 48,123.5 183,237.5 78,16 115,71 37,55 55,85 -236,42 -292,-60 l -56,-102 -217,121 115,82 -51,50 -122,-86 -12,297 396,263 q 12,-18 23,-31 11,-13 23,-29 l -366,-241 4,-125 64,41 138,-144 -78,-65 47,-28 38.5,45 q 0,0 108.5,73 54,18 165,27 111,9 191,-74 Q 1002,851 967,781.5 932,712 815,679 723,600 669,502.5 615,405 621,279 l 1019,0 q -35,133 -32,234.5 3,101.5 12.5,199 9.5,97.5 9,205 -0.5,107.5 -40.5,252.5 -51,126 -134,234 -83,108 -262,188 l -59,133 -49,-69 Q 986,1594 877,1525 768,1456 746,1405 Z m 292,-30 -212,2 116,100 q 30,25 80,-38.5 50,-63.5 16,-63.5 z m -536,-195 37,-31 -46,-55 -57,26 33,56 z"
           inkscape:connector-curvature="0"
           style="fill:#101010" />
      </g>
      <path
         inkscape:connector-curvature="0"
         id="path2989"
         d="m 627.94675,1706.3058 c 7.06477,-76.0141 30.65854,-139.6867 76.01495,-205.1418 55.61304,-80.2568 94.33498,-116.147 155.13953,-143.7941 71.30471,-32.4214 79.38595,-39.881 134.58287,-124.2309 62.2113,-95.069 76.3891,-108.4351 115.2641,-108.6652 42.3073,-0.2503 94.9112,-25.321 129.387,-61.665 56.14,-59.1822 85.6492,-169.9964 63.3011,-237.71158 l -10.9068,-33.04807 -23.6455,70.4737 c -34.1306,101.7234 -65.494,146.50215 -123.4163,176.20645 -17.7081,9.0812 -42.2403,16.5114 -54.516,16.5114 -12.2756,0 -36.5459,5.9442 -53.9338,13.2094 -28.5895,11.9454 -35.74753,11.8366 -74.80822,-1.1373 -46.5853,-15.4731 -144.07746,-12.3776 -222.56074,7.0666 -42.82118,10.609 -159.71938,84.4839 -168.05388,106.2032 -6.11517,15.9359 -24.21245,17.5831 -38.30872,3.4868 -7.57303,-7.573 -1.33934,-17.7211 25.53583,-41.5707 l 35.55458,-31.5519 -69.61056,-73.3512 -69.61057,-73.35119 -30.33446,14.46549 -30.33446,14.4655 -5.4281,-39.60228 c -2.98545,-21.78127 -5.42809,-45.01882 -5.42809,-51.63902 0,-6.62021 82.03122,-66.3334 182.29158,-132.69599 100.26037,-66.36259 193.00614,-133.62137 206.1017,-149.46394 36.25706,-43.86259 48.44826,-52.97765 190.70679,-142.58678 95.76842,-60.32485 137.51892,-91.89433 151.54642,-114.59143 l 19.3617,-31.32777 29.5568,66.0844 c 26.0196,58.1756 33.8226,68.00372 65.1997,82.12184 190.4367,85.68688 333.5154,273.36872 379.393,497.66455 19.5517,95.58832 19.8215,149.10612 2.6248,520.67792 -4.224,91.2702 -2.2995,132.2161 8.7113,185.335 7.7733,37.5004 14.1333,71.6699 14.1333,75.9322 0,4.4589 -214.2648,7.7498 -504.5682,7.7498 l -504.56814,0 5.62549,-60.5281 0,0 z M 527.79793,884.36193 c -27.18858,-28.94093 -55.87775,-25.88372 -76.63881,8.16688 -22.55949,37.00026 -22.12421,39.11271 10.94257,53.10436 26.93341,11.39641 29.47134,10.73671 56.36148,-14.65047 l 28.15808,-26.58428 -18.82332,-20.03649 0,0 z M 1051.3699,651.91165 c -4.6583,-26.6179 -52.53065,-82.08726 -75.90862,-87.95476 -24.65611,-6.18829 -41.7762,4.14044 -107.66467,64.9553 l -47.72881,44.05354 117.15254,-1.94728 c 111.40656,-1.85175 117.00526,-2.7889 114.14956,-19.1068 z"
         style="fill:#f9f9f9;fill-opacity:1;stroke:#101010;stroke-width:0;stroke-linecap:round;stroke-linejoin:miter;stroke-miterlimit:3.79999995;stroke-dasharray:none;stroke-dashoffset:0;stroke-opacity:1" />
    </g>
  </g>
</svg>
