<?xml version="1.0" encoding="UTF-8" standalone="no"?>
<svg
   xmlns:dc="http://purl.org/dc/elements/1.1/"
   xmlns:cc="http://creativecommons.org/ns#"
   xmlns:rdf="http://www.w3.org/1999/02/22-rdf-syntax-ns#"
   xmlns:svg="http://www.w3.org/2000/svg"
   xmlns="http://www.w3.org/2000/svg"
   xmlns:sodipodi="http://sodipodi.sourceforge.net/DTD/sodipodi-0.dtd"
   xmlns:inkscape="http://www.inkscape.org/namespaces/inkscape"
   viewBox="0 0 2048 2048"
   id="svg2"
   version="1.1"
   inkscape:version="0.91 r13725"
   width="100%"
   height="100%"
   sodipodi:docname="wN.svg">
  <metadata
     id="metadata12">
    <rdf:RDF>
      <cc:Work
         rdf:about="">
        <dc:format>image/svg+xml</dc:format>
        <dc:type
           rdf:resource="http://purl.org/dc/dcmitype/StillImage" />
        <dc:title />
      </cc:Work>
    </rdf:RDF>
  </metadata>
  <defs
     id="defs10" />
  <sodipodi:namedview
     pagecolor="#ffffff"
     bordercolor="#666666"
     borderopacity="1"
     objecttolerance="10"
     gridtolerance="10"
     guidetolerance="10"
     inkscape:pageopacity="0"
     inkscape:pageshadow="2"
     inkscape:window-width="1280"
     inkscape:window-height="800"
     id="namedview8"
     showgrid="false"
     inkscape:zoom="0.11523438"
     inkscape:cx="1024"
     inkscape:cy="1024"
     inkscape:window-x="0"
     inkscape:window-y="0"
     inkscape:window-maximized="0"
     inkscape:current-layer="svg2" />
  <g
     transform="matrix(-1,0,0,1,2093,-27)"
     id="g4">
    <path
       d="m 1004,956 q 31,-17 54,-42 21,15 36.5,13.5 15.5,-1.5 33.5,1.5 78,11 128.5,85 50.5,74 52.5,165 l -19,67 q -55,-239 -188,-257 -21,-3 -45,-5.5 -24,-2.5 -53,-27.5 z m -258,449 -46,60 q 6,39 115.5,107.5 Q 925,1641 1036,1716 l 115,154 96,-217 Q 1589,1481 1679.5,1235.5 1770,990 1727,632 1709,504 1731.5,395.5 1754,287 1789,205 l -1242,0 q -9,178 39,301.5 48,123.5 183,237.5 78,16 115,71 37,55 55,85 -236,42 -292,-60 l -56,-102 -217,121 115,82 -51,50 -122,-86 -12,297 396,263 q 12,-18 23,-31 11,-13 23,-29 l -366,-241 4,-125 64,41 138,-144 -78,-65 47,-28 38.5,45 q 0,0 108.5,73 54,18 165,27 111,9 191,-74 Q 1002,851 967,781.5 932,712 815,679 723,600 669,502.5 615,405 621,279 l 1019,0 q -35,133 -32,234.5 3,101.5 12.5,199 9.5,97.5 9,205 -0.5,107.5 -40.5,252.5 -51,126 -134,234 -83,108 -262,188 l -59,133 -49,-69 Q 986,1594 877,1525 768,1456 746,1405 Z m 292,-30 -212,2 116,100 q 30,25 80,-38.5 50,-63.5 16,-63.5 z m -536,-195 37,-31 -46,-55 -57,26 33,56 z"
       id="path6"
       inkscape:connector-curvature="0"
       style="fill:#101010" />
  </g>
  <path
     style="fill:#f9f9f9;fill-opacity:1;stroke:#101010;stroke-width:0;stroke-linecap:round;stroke-linejoin:miter;stroke-miterlimit:3.79999995;stroke-dasharray:none;stroke-dashoffset:0;stroke-opacity:1"
     d="m 1465.0533,314.6942 c -7.0648,76.0141 -30.6586,139.6867 -76.015,205.1418 -55.613,80.2568 -94.335,116.147 -155.1395,143.7941 -71.3047,32.4214 -79.386,39.881 -134.5829,124.2309 -62.2113,95.069 -76.3891,108.4351 -115.2641,108.6652 -42.3073,0.2503 -94.9112,25.321 -129.387,61.665 -56.14,59.1822 -85.6492,169.9964 -63.3011,237.7116 l 10.9068,33.048 23.6455,-70.4737 c 34.1306,-101.7234 65.494,-146.5021 123.4163,-176.2064 17.7081,-9.0812 42.2403,-16.5114 54.516,-16.5114 12.2756,0 36.5459,-5.9442 53.9338,-13.2094 28.5895,-11.9454 35.7475,-11.8366 74.8082,1.1373 46.5853,15.4731 144.0775,12.3776 222.5608,-7.0666 42.8211,-10.609 159.7193,-84.4839 168.0538,-106.2032 6.1152,-15.9359 24.2125,-17.5831 38.3088,-3.4868 7.573,7.573 1.3393,17.7211 -25.5359,41.5707 l -35.5545,31.5519 69.6105,73.3512 69.6106,73.3512 30.3344,-14.4655 30.3345,-14.4655 5.4281,39.6023 c 2.9855,21.7812 5.4281,45.0188 5.4281,51.639 0,6.6202 -82.0312,66.3334 -182.2916,132.696 -100.2604,66.3626 -193.0061,133.6214 -206.1017,149.4639 -36.257,43.8626 -48.4482,52.9777 -190.7068,142.5868 -95.7684,60.3249 -137.5189,91.8943 -151.5464,114.5914 l -19.3617,31.3278 -29.5568,-66.0844 c -26.0196,-58.1756 -33.8226,-68.0037 -65.1997,-82.1218 -190.4367,-85.6869 -333.5154,-273.3688 -379.393,-497.6646 -19.5517,-95.5883 -19.8215,-149.1061 -2.6248,-520.6779 4.224,-91.2702 2.2995,-132.2161 -8.7113,-185.335 -7.7733,-37.5004 -14.1333,-71.6699 -14.1333,-75.9322 0,-4.4589 214.2648,-7.7498 504.5682,-7.7498 l 504.5681,0 -5.6254,60.5281 0,0 z m 100.1488,821.9439 c 27.1886,28.9409 55.8777,25.8837 76.6388,-8.1669 22.5595,-37.0003 22.1242,-39.1127 -10.9426,-53.1044 -26.9334,-11.3964 -29.4713,-10.7367 -56.3615,14.6505 l -28.158,26.5843 18.8233,20.0365 0,0 z m -523.572,232.4503 c 4.6583,26.6179 52.5307,82.0872 75.9086,87.9547 24.6561,6.1883 41.7762,-4.1404 107.6647,-64.9553 l 47.7288,-44.0535 -117.1525,1.9473 c -111.4066,1.8517 -117.0053,2.7889 -114.1496,19.1068 z"
     id="path2989"
     inkscape:connector-curvature="0" />
</svg>
