<?xml version="1.0" encoding="UTF-8" standalone="no"?>
<svg
   xmlns:dc="http://purl.org/dc/elements/1.1/"
   xmlns:cc="http://creativecommons.org/ns#"
   xmlns:rdf="http://www.w3.org/1999/02/22-rdf-syntax-ns#"
   xmlns:svg="http://www.w3.org/2000/svg"
   xmlns="http://www.w3.org/2000/svg"
   xmlns:sodipodi="http://sodipodi.sourceforge.net/DTD/sodipodi-0.dtd"
   xmlns:inkscape="http://www.inkscape.org/namespaces/inkscape"
   viewBox="0 0 2048 2048"
   id="svg2"
   version="1.1"
   inkscape:version="0.91 r13725"
   width="100%"
   height="100%"
   sodipodi:docname="wP.svg">
  <metadata
     id="metadata12">
    <rdf:RDF>
      <cc:Work
         rdf:about="">
        <dc:format>image/svg+xml</dc:format>
        <dc:type
           rdf:resource="http://purl.org/dc/dcmitype/StillImage" />
        <dc:title />
      </cc:Work>
    </rdf:RDF>
  </metadata>
  <defs
     id="defs10" />
  <sodipodi:namedview
     pagecolor="#ffffff"
     bordercolor="#666666"
     borderopacity="1"
     objecttolerance="10"
     gridtolerance="10"
     guidetolerance="10"
     inkscape:pageopacity="0"
     inkscape:pageshadow="2"
     inkscape:window-width="1280"
     inkscape:window-height="800"
     id="namedview8"
     showgrid="false"
     inkscape:zoom="0.11523438"
     inkscape:cx="1024"
     inkscape:cy="1024"
     inkscape:window-x="0"
     inkscape:window-y="0"
     inkscape:window-maximized="0"
     inkscape:current-layer="svg2" />
  <g
     transform="matrix(-1,0,0,1,2047.8623,156)"
     id="g4">
    <path
       d="m 520,279 1008,0 q 8,97 -132,182 Q 1264,562 1199.5,700.5 1135,839 1120,1009 l -192,0 Q 913,839 848.5,700.5 784,562 652,461 511,376 520,279 Z m 504,-74 -578,0 0,74 q -4,80 41.5,137 Q 533,473 613,524 730,615 784.5,741.5 839,868 863,1009 l -287,0 284,239 q -86,74 -86,188 0,103 73,177 73,74 177,74 103,0 176.5,-74 73.5,-74 73.5,-177 0,-114 -86,-188 l 284,-239 -287,0 q 23,-141 78,-267.5 55,-126.5 172,-217.5 79,-51 124.5,-108 45.5,-57 42.5,-137 l 0,-74 -578,0 z m -268,869 536,0 -225,191 q 134,31 134,171 0,76 -52.5,126.5 -52.5,50.5 -124.5,50.5 -73,0 -125,-50.5 -52,-50.5 -52,-126.5 0,-140 134,-171 z"
       id="path6"
       inkscape:connector-curvature="0"
       style="fill:#101010" />
  </g>
  <path
     style="fill:#f9f9f9;fill-opacity:1;stroke:#101010;stroke-width:0;stroke-linecap:round;stroke-linejoin:miter;stroke-miterlimit:3.79999995;stroke-dasharray:none;stroke-dashoffset:0;stroke-opacity:1"
     d="m 1174.4055,1322.6525 c -56.5479,47.9125 -103.9017,90.2253 -105.2306,94.0284 -1.3289,3.8032 13.5599,14.1191 33.0864,22.9243 152.2519,68.6561 108.093,302.5367 -60.9009,322.5515 -35.5357,4.2087 -51.15927,1.0432 -90.95897,-18.4289 -129.2782,-63.2499 -132.257,-246.7097 -4.938,-304.1226 19.5264,-8.8052 34.4153,-19.1211 33.0863,-22.9243 -1.3289,-3.8031 -48.6827,-46.1159 -105.2306,-94.0284 l -102.8144,-87.1135 253.35757,0 253.3577,0 -102.8145,87.1135 z"
     id="path2989"
     inkscape:connector-curvature="0" />
  <path
     style="fill:#f9f9f9;fill-opacity:1;stroke:#101010;stroke-width:0;stroke-linecap:round;stroke-linejoin:miter;stroke-miterlimit:3.79999995;stroke-dasharray:none;stroke-dashoffset:0;stroke-opacity:1"
     d="m 1266.8454,1242.1295 c 0,3.6248 -7.0289,10.9801 -15.6197,16.3452 -21.1964,13.2373 -178.9316,152.0704 -182.4205,160.5602 -1.5323,3.7286 7.2541,9.2991 19.5254,12.379 12.2713,3.0799 22.3114,8.4217 22.3114,11.8706 0,3.449 9.7237,11.4748 21.6082,17.8352 49.5788,26.5338 72.3522,127.53 44.0372,195.2974 -5.9835,14.3204 -11.4862,28.966 -12.2283,32.5456 -2.2116,10.6677 -35.3723,41.2204 -44.7391,41.2204 -4.7729,0 -8.678,3.2343 -8.678,7.1875 0,13.2009 -81.9468,26.7865 -115.68077,19.1783 -50.7342,-11.4424 -116.7925,-62.13 -126.209,-96.842 -19.7356,-72.7519 -19.4317,-102.6398 1.4539,-142.9747 15.9546,-30.8121 66.0164,-77.4031 92.0462,-85.6647 10.5465,-3.3473 17.9843,-8.9494 16.5284,-12.449 -3.4189,-8.2176 -161.7573,-147.3261 -182.2817,-160.1438 -8.5909,-5.3651 -15.6198,-12.7204 -15.6198,-16.3452 0,-3.6248 109.3424,-6.5905 242.98307,-6.5905 133.6407,0 242.9831,2.9657 242.9831,6.5905 z"
     id="path2991"
     inkscape:connector-curvature="0" />
  <path
     style="fill:#f9f9f9;fill-opacity:1;stroke:#101010;stroke-width:0;stroke-linecap:round;stroke-linejoin:miter;stroke-miterlimit:3.79999995;stroke-dasharray:none;stroke-dashoffset:0;stroke-opacity:1"
     d="m 1527.1844,446.1228 c 0,15.8511 -26.2361,72.3348 -41.5513,89.4559 -8.1705,9.1339 -50.1071,45.0242 -93.1924,79.7562 -152.9415,123.2894 -233.5888,266.5147 -265.9791,472.3641 l -10.9732,69.7383 -91.6261,0 -91.62597,0 -10.9733,-69.7383 C 890.22293,890.4298 807.58233,738.1694 673.15613,630.5765 558.11523,538.4993 539.31623,516.8501 525.93183,461.0305 l -5.7222,-23.8644 503.48737,0 c 340.3183,0 503.4874,2.9027 503.4874,8.9567 z"
     id="path2993"
     inkscape:connector-curvature="0" />
</svg>
