<?xml version="1.0" encoding="UTF-8" standalone="no"?>
<svg
   xmlns:dc="http://purl.org/dc/elements/1.1/"
   xmlns:cc="http://creativecommons.org/ns#"
   xmlns:rdf="http://www.w3.org/1999/02/22-rdf-syntax-ns#"
   xmlns:svg="http://www.w3.org/2000/svg"
   xmlns="http://www.w3.org/2000/svg"
   xmlns:sodipodi="http://sodipodi.sourceforge.net/DTD/sodipodi-0.dtd"
   xmlns:inkscape="http://www.inkscape.org/namespaces/inkscape"
   viewBox="0 0 2048 2048"
   id="svg2"
   version="1.1"
   inkscape:version="0.91 r13725"
   width="100%"
   height="100%"
   sodipodi:docname="wP.svg">
  <metadata
     id="metadata12">
    <rdf:RDF>
      <cc:Work
         rdf:about="">
        <dc:format>image/svg+xml</dc:format>
        <dc:type
           rdf:resource="http://purl.org/dc/dcmitype/StillImage" />
        <dc:title></dc:title>
      </cc:Work>
    </rdf:RDF>
  </metadata>
  <defs
     id="defs10" />
  <sodipodi:namedview
     pagecolor="#ffffff"
     bordercolor="#666666"
     borderopacity="1"
     objecttolerance="10"
     gridtolerance="10"
     guidetolerance="10"
     inkscape:pageopacity="0"
     inkscape:pageshadow="2"
     inkscape:window-width="1280"
     inkscape:window-height="800"
     id="namedview8"
     showgrid="false"
     inkscape:zoom="0.11523438"
     inkscape:cx="1024"
     inkscape:cy="1024"
     inkscape:window-x="0"
     inkscape:window-y="0"
     inkscape:window-maximized="0"
     inkscape:current-layer="svg2" />
  <g
     transform="translate(0,156)"
     id="g4">
    <path
       d="m 520,279 1008,0 q 8,97 -132,182 Q 1264,562 1199.5,700.5 1135,839 1120,1009 l -192,0 Q 913,839 848.5,700.5 784,562 652,461 511,376 520,279 Z m 504,-74 -578,0 0,74 q -4,80 41.5,137 Q 533,473 613,524 730,615 784.5,741.5 839,868 863,1009 l -287,0 284,239 q -86,74 -86,188 0,103 73,177 73,74 177,74 103,0 176.5,-74 73.5,-74 73.5,-177 0,-114 -86,-188 l 284,-239 -287,0 q 23,-141 78,-267.5 55,-126.5 172,-217.5 79,-51 124.5,-108 45.5,-57 42.5,-137 l 0,-74 -578,0 z m -268,869 536,0 -225,191 q 134,31 134,171 0,76 -52.5,126.5 -52.5,50.5 -124.5,50.5 -73,0 -125,-50.5 -52,-50.5 -52,-126.5 0,-140 134,-171 z"
       id="path6"
       inkscape:connector-curvature="0"
       style="fill:#101010" />
  </g>
  <path
     style="fill:#f9f9f9;fill-opacity:1;stroke:#101010;stroke-width:0;stroke-linecap:round;stroke-linejoin:miter;stroke-miterlimit:3.79999995;stroke-dasharray:none;stroke-dashoffset:0;stroke-opacity:1"
     d="m 873.45679,1322.6525 c 56.54792,47.9125 103.90171,90.2253 105.23064,94.0284 1.32893,3.8032 -13.55992,14.1191 -33.08635,22.9243 -152.25192,68.6561 -108.09303,302.5367 60.90082,322.5515 35.5357,4.2087 51.1593,1.0432 90.959,-18.4289 129.2782,-63.2499 132.257,-246.7097 4.938,-304.1226 -19.5264,-8.8052 -34.4153,-19.1211 -33.0863,-22.9243 1.3289,-3.8031 48.6827,-46.1159 105.2306,-94.0284 l 102.8144,-87.1135 -253.3576,0 -253.35762,0 102.81441,87.1135 z"
     id="path2989"
     inkscape:connector-curvature="0" />
  <path
     style="fill:#f9f9f9;fill-opacity:1;stroke:#101010;stroke-width:0;stroke-linecap:round;stroke-linejoin:miter;stroke-miterlimit:3.79999995;stroke-dasharray:none;stroke-dashoffset:0;stroke-opacity:1"
     d="m 781.01695,1242.1295 c 0,3.6248 7.02888,10.9801 15.61972,16.3452 21.19634,13.2373 178.93156,152.0704 182.42048,160.5602 1.53229,3.7286 -7.25415,9.2991 -19.52542,12.379 -12.27126,3.0799 -22.31139,8.4217 -22.31139,11.8706 0,3.449 -9.72369,11.4748 -21.60819,17.8352 -49.5788,26.5338 -72.35222,127.53 -44.03719,195.2974 5.98347,14.3204 11.4862,28.966 12.22831,32.5456 2.21152,10.6677 35.37231,41.2204 44.7391,41.2204 4.77288,0 8.67797,3.2343 8.67797,7.1875 0,13.2009 81.94676,26.7865 115.68076,19.1783 50.7342,-11.4424 116.7925,-62.13 126.209,-96.842 19.7356,-72.7519 19.4317,-102.6398 -1.4539,-142.9747 -15.9546,-30.8121 -66.0164,-77.4031 -92.0462,-85.6647 -10.5465,-3.3473 -17.9843,-8.9494 -16.5284,-12.449 3.4189,-8.2176 161.7573,-147.3261 182.2817,-160.1438 8.5909,-5.3651 15.6198,-12.7204 15.6198,-16.3452 0,-3.6248 -109.3424,-6.5905 -242.9831,-6.5905 -133.64068,0 -242.98305,2.9657 -242.98305,6.5905 z"
     id="path2991"
     inkscape:connector-curvature="0" />
  <path
     style="fill:#f9f9f9;fill-opacity:1;stroke:#101010;stroke-width:0;stroke-linecap:round;stroke-linejoin:miter;stroke-miterlimit:3.79999995;stroke-dasharray:none;stroke-dashoffset:0;stroke-opacity:1"
     d="m 520.67797,446.1228 c 0,15.8511 26.23604,72.3348 41.5513,89.4559 8.17051,9.1339 50.1071,45.0242 93.19241,79.7562 152.94141,123.2894 233.58879,266.5147 265.97904,472.3641 l 10.97326,69.7383 91.62602,0 91.626,0 10.9733,-69.7383 c 31.0401,-197.2692 113.6807,-349.5296 248.1069,-457.1225 115.0409,-92.0772 133.8399,-113.7264 147.2243,-169.546 l 5.7222,-23.8644 -503.4874,0 c -340.31829,0 -503.48733,2.9027 -503.48733,8.9567 z"
     id="path2993"
     inkscape:connector-curvature="0" />
</svg>
