<?xml version="1.0" encoding="UTF-8" standalone="no"?>
<!-- Created with Inkscape (http://www.inkscape.org/) -->

<svg
   xmlns:dc="http://purl.org/dc/elements/1.1/"
   xmlns:cc="http://creativecommons.org/ns#"
   xmlns:rdf="http://www.w3.org/1999/02/22-rdf-syntax-ns#"
   xmlns:svg="http://www.w3.org/2000/svg"
   xmlns="http://www.w3.org/2000/svg"
   xmlns:sodipodi="http://sodipodi.sourceforge.net/DTD/sodipodi-0.dtd"
   xmlns:inkscape="http://www.inkscape.org/namespaces/inkscape"
   width="210mm"
   height="297mm"
   viewBox="0 0 744.09448819 1052.3622047"
   id="svg3348"
   version="1.1"
   inkscape:version="0.91 r13725"
   sodipodi:docname="wP.svg">
  <defs
     id="defs3350" />
  <sodipodi:namedview
     id="base"
     pagecolor="#ffffff"
     bordercolor="#666666"
     borderopacity="1.0"
     inkscape:pageopacity="0.0"
     inkscape:pageshadow="2"
     inkscape:zoom="0.35"
     inkscape:cx="375"
     inkscape:cy="520"
     inkscape:document-units="px"
     inkscape:current-layer="layer1"
     showgrid="false"
     inkscape:window-width="1920"
     inkscape:window-height="1017"
     inkscape:window-x="1912"
     inkscape:window-y="-8"
     inkscape:window-maximized="1" />
  <metadata
     id="metadata3353">
    <rdf:RDF>
      <cc:Work
         rdf:about="">
        <dc:format>image/svg+xml</dc:format>
        <dc:type
           rdf:resource="http://purl.org/dc/dcmitype/StillImage" />
        <dc:title></dc:title>
      </cc:Work>
    </rdf:RDF>
  </metadata>
  <g
     inkscape:label="Layer 1"
     inkscape:groupmode="layer"
     id="layer1">
    <g
       id="g3365"
       transform="matrix(1,0,0,-1,-1806.7883,1428.6479)">
      <g
         id="g4"
         transform="matrix(1,0,0,-1,0,2048)">
        <path
           id="path6"
           d="m 520,279 1008,0 q 8,97 -132,182 Q 1264,562 1199.5,700.5 1135,839 1120,1009 l -192,0 Q 913,839 848.5,700.5 784,562 652,461 511,376 520,279 Z m 504,-74 -578,0 0,74 q -4,80 41.5,137 Q 533,473 613,524 730,615 784.5,741.5 839,868 863,1009 l -287,0 284,239 q -86,74 -86,188 0,103 73,177 73,74 177,74 103,0 176.5,-74 73.5,-74 73.5,-177 0,-114 -86,-188 l 284,-239 -287,0 q 23,-141 78,-267.5 55,-126.5 172,-217.5 79,-51 124.5,-108 45.5,-57 42.5,-137 l 0,-74 -578,0 z m -268,869 536,0 -225,191 q 134,31 134,171 0,76 -52.5,126.5 -52.5,50.5 -124.5,50.5 -73,0 -125,-50.5 -52,-50.5 -52,-126.5 0,-140 134,-171 z"
           inkscape:connector-curvature="0"
           style="fill:#101010" />
      </g>
      <path
         inkscape:connector-curvature="0"
         id="path2989"
         d="m 873.45679,881.34746 c 56.54792,-47.91245 103.90171,-90.22523 105.23064,-94.02839 1.32893,-3.80316 -13.55992,-14.11909 -33.08635,-22.92429 -152.25192,-68.65605 -108.09303,-302.53668 60.90082,-322.55149 35.5357,-4.20869 51.1593,-1.04323 90.959,18.42896 129.2782,63.2499 132.257,246.70967 4.938,304.12253 -19.5264,8.8052 -34.4153,19.12113 -33.0863,22.92429 1.3289,3.80316 48.6827,46.11594 105.2306,94.02839 l 102.8144,87.11356 -253.3576,0 -253.35762,0 102.81441,-87.11356 z"
         style="fill:#f9f9f9;fill-opacity:1;stroke:#101010;stroke-width:0;stroke-linecap:round;stroke-linejoin:miter;stroke-miterlimit:3.79999995;stroke-dasharray:none;stroke-dashoffset:0;stroke-opacity:1" />
      <path
         inkscape:connector-curvature="0"
         id="path2991"
         d="m 781.01695,961.87051 c 0,-3.62478 7.02888,-10.98012 15.61972,-16.34519 21.19634,-13.23734 178.93156,-152.07042 182.42048,-160.5602 1.53229,-3.72858 -7.25415,-9.29915 -19.52542,-12.37904 -12.27126,-3.0799 -22.31139,-8.42167 -22.31139,-11.87061 0,-3.44894 -9.72369,-11.47476 -21.60819,-17.83515 -49.5788,-26.53377 -72.35222,-127.53 -44.03719,-195.29739 5.98347,-14.32044 11.4862,-28.96598 12.22831,-32.54564 2.21152,-10.66768 35.37231,-41.22034 44.7391,-41.22034 4.77288,0 8.67797,-3.23439 8.67797,-7.18754 0,-13.20088 81.94676,-26.78655 115.68076,-19.1783 50.7342,11.44242 116.7925,62.12995 126.209,96.84198 19.7356,72.75196 19.4317,102.63983 -1.4539,142.97469 -15.9546,30.81208 -66.0164,77.40317 -92.0462,85.66469 -10.5465,3.34735 -17.9843,8.9494 -16.5284,12.44899 3.4189,8.21767 161.7573,147.32615 182.2817,160.14386 8.5909,5.36507 15.6198,12.72041 15.6198,16.34519 0,3.62478 -109.3424,6.59051 -242.9831,6.59051 -133.64068,0 -242.98305,-2.96573 -242.98305,-6.59051 z"
         style="fill:#f9f9f9;fill-opacity:1;stroke:#101010;stroke-width:0;stroke-linecap:round;stroke-linejoin:miter;stroke-miterlimit:3.79999995;stroke-dasharray:none;stroke-dashoffset:0;stroke-opacity:1" />
      <path
         inkscape:connector-curvature="0"
         id="path2993"
         d="m 520.67797,1757.8772 c 0,-15.8511 26.23604,-72.3348 41.5513,-89.4559 8.17051,-9.1339 50.1071,-45.0242 93.19241,-79.7562 152.94141,-123.2894 233.58879,-266.5147 265.97904,-472.3641 l 10.97326,-69.7383 91.62602,0 91.626,0 10.9733,69.7383 c 31.0401,197.2692 113.6807,349.5296 248.1069,457.1225 115.0409,92.0772 133.8399,113.7264 147.2243,169.546 l 5.7222,23.8644 -503.4874,0 c -340.31829,0 -503.48733,-2.9027 -503.48733,-8.9567 z"
         style="fill:#f9f9f9;fill-opacity:1;stroke:#101010;stroke-width:0;stroke-linecap:round;stroke-linejoin:miter;stroke-miterlimit:3.79999995;stroke-dasharray:none;stroke-dashoffset:0;stroke-opacity:1" />
    </g>
  </g>
</svg>
