<?xml version="1.0" encoding="UTF-8" standalone="no"?>
<svg
   xmlns:dc="http://purl.org/dc/elements/1.1/"
   xmlns:cc="http://creativecommons.org/ns#"
   xmlns:rdf="http://www.w3.org/1999/02/22-rdf-syntax-ns#"
   xmlns:svg="http://www.w3.org/2000/svg"
   xmlns="http://www.w3.org/2000/svg"
   xmlns:sodipodi="http://sodipodi.sourceforge.net/DTD/sodipodi-0.dtd"
   xmlns:inkscape="http://www.inkscape.org/namespaces/inkscape"
   viewBox="0 0 2048 2048"
   id="svg2"
   version="1.1"
   inkscape:version="0.91 r13725"
   width="100%"
   height="100%"
   sodipodi:docname="wQ.svg">
  <metadata
     id="metadata12">
    <rdf:RDF>
      <cc:Work
         rdf:about="">
        <dc:format>image/svg+xml</dc:format>
        <dc:type
           rdf:resource="http://purl.org/dc/dcmitype/StillImage" />
        <dc:title />
      </cc:Work>
    </rdf:RDF>
  </metadata>
  <defs
     id="defs10" />
  <sodipodi:namedview
     pagecolor="#ffffff"
     bordercolor="#666666"
     borderopacity="1"
     objecttolerance="10"
     gridtolerance="10"
     guidetolerance="10"
     inkscape:pageopacity="0"
     inkscape:pageshadow="2"
     inkscape:window-width="1280"
     inkscape:window-height="800"
     id="namedview8"
     showgrid="false"
     inkscape:zoom="0.11523438"
     inkscape:cx="1024"
     inkscape:cy="1024"
     inkscape:window-x="0"
     inkscape:window-y="0"
     inkscape:window-maximized="0"
     inkscape:current-layer="svg2" />
  <g
     transform="matrix(-1,0,0,1,2048,79.358974)"
     id="g4">
    <path
       d="m 1024,279 478,0 q -53,130 -43,280 -100,39 -213,67.5 Q 1133,655 1024,655 914,655 801,626.5 688,598 589,559 598,409 546,279 l 478,0 z m 0,450 q 111,0 223.5,-26.5 Q 1360,676 1468,635 l 0,0 0,0 q 17,105 60.5,212.5 Q 1572,955 1634,1060 L 1414,905 1291,1506 1024,951 757,1506 634,905 414,1060 Q 475,955 518.5,847.5 562,740 580,635 l 0,0 0,0 Q 688,676 800.5,702.5 913,729 1024,729 Z m 0,-524 -583,0 Q 555,436 498.5,661.5 442,887 296,1111 q -12,-2 -19,-2 -54,0 -92.5,38.5 -38.5,38.5 -38.5,92.5 0,54 38.5,92.5 38.5,38.5 92.5,38.5 54,0 92.5,-38.5 38.5,-38.5 38.5,-92.5 0,-20 -6,-38 -4,-14 -15,-33 l 196,-139 100,486 q -64,31 -72,103 -5,44 29,91 34,47 88,53 54,5 96,-29 42,-34 48,-88 7,-68 -46,-114 l 198,-412 198,412 q -54,46 -46,114 6,54 48,88 42,34 96,29 54,-6 87.5,-53 33.5,-47 29.5,-91 -9,-72 -72,-103 l 100,-486 196,139 q -12,19 -15,33 -6,18 -6,38 0,54 38.5,92.5 38.5,38.5 92.5,38.5 54,0 92.5,-38.5 38.5,-38.5 38.5,-92.5 0,-54 -38.5,-92.5 -38.5,-38.5 -92.5,-38.5 -7,0 -19,2 Q 1605,887 1549,661.5 1493,436 1607,205 l -583,0 z M 276,1302 q -62,0 -62,-62 0,-62 62,-62 63,0 63,62 0,62 -63,62 z m 466,394 q -62,0 -62,-62 0,-62 62,-62 62,0 62,62 0,62 -62,62 z M 590,529 709,457 575,371 q 19,86 15,158 z m 1182,773 q -63,0 -63,-62 0,-62 63,-62 62,0 62,62 0,62 -62,62 z m -466,394 q -62,0 -62,-62 0,-62 62,-62 62,0 62,62 0,62 -62,62 z m 152,-1167 -119,-72 134,-86 q -20,86 -15,158 z m -573,-47 139,83 139,-86 -139,-84 z"
       id="path6"
       inkscape:connector-curvature="0"
       style="fill:#101010" />
  </g>
  <path
     style="fill:#f9f9f9;fill-opacity:1;stroke:#101010;stroke-width:0;stroke-linecap:round;stroke-linejoin:miter;stroke-miterlimit:3.79999995;stroke-dasharray:none;stroke-dashoffset:0;stroke-opacity:1"
     d="m 1471.2263,753.20307 c 14.267,66.7404 52.3275,173.441 91.813,257.39303 23.3701,49.6882 40.8344,91.9988 38.8097,94.0235 -2.0248,2.0248 -45.8298,-26.1756 -97.3444,-62.6676 l -93.6629,-66.34913 -58.4466,284.73233 c -32.1456,156.6027 -59.6325,290.3035 -61.0819,297.1128 -1.4494,6.8093 -60.9447,-109.367 -132.2117,-258.1695 -71.2671,-148.8025 -132.0628,-270.55 -135.1015,-270.55 -3.0387,0 -63.8344,121.7475 -135.1015,270.55 -71.267,148.8025 -130.7623,264.9788 -132.2117,258.1695 -1.4494,-6.8093 -28.9362,-140.5101 -61.0819,-297.1128 L 637.1583,975.60287 543.4954,1041.952 c -51.5146,36.492 -95.5423,64.4697 -97.8394,62.1726 -2.2971,-2.297 11.9565,-36.2633 31.6746,-75.4805 38.4742,-76.52133 78.3166,-184.40413 95.3142,-258.08513 5.7805,-25.0576 13.0494,-45.4903 16.1529,-45.406 3.1036,0.084 41.6602,11.521 85.6812,25.4149 142.535,44.987 212.9873,56.3442 349.5211,56.3442 136.5338,0 206.9861,-11.3572 349.5211,-56.3442 44.021,-13.8939 82.6568,-25.3306 85.8572,-25.4149 3.2004,-0.084 8.532,12.5382 11.848,28.0501 z"
     id="path2989"
     inkscape:connector-curvature="0" />
  <path
     style="fill:#f9f9f9;fill-opacity:1;stroke:#101010;stroke-width:0;stroke-linecap:round;stroke-linejoin:miter;stroke-miterlimit:3.79999995;stroke-dasharray:none;stroke-dashoffset:0;stroke-opacity:1"
     d="m 1489.0744,380.05047 c -3.058,10.739 -7.7714,29.5882 -10.4743,41.8871 -3.5737,16.2617 -23.6029,34.0159 -73.4243,65.0847 -37.6805,23.4977 -68.5683,45.2039 -68.6395,48.236 -0.071,3.032 27.2061,22.0292 60.6162,42.216 33.4102,20.1867 60.7458,41.3391 60.7458,47.0052 0,12.7684 -141.3204,59.8118 -251.3576,83.6731 -110.9638,24.0623 -254.1175,24.0623 -365.0814,0 -110.0372,-23.8613 -251.3576,-70.9047 -251.3576,-83.6731 0,-5.6661 27.3356,-26.8185 60.7458,-47.0052 33.4101,-20.1868 60.6595,-39.184 60.554,-42.216 -0.1054,-3.0321 -29.4291,-23.9012 -65.1637,-46.3759 -62.8415,-39.5231 -73.8042,-52.9529 -87.3805,-107.0451 l -5.349,-21.3122 470.5631,0 470.563,0 -5.56,19.5254 z m -538.5293,132.9889 c -35.9659,21.8354 -65.3727,42.3371 -65.3485,45.5593 0.054,7.1432 127.7143,88.2993 138.897,88.2993 14.7283,0 139.6256,-79.8268 137.0056,-87.5658 -3.4017,-10.0482 -120.9958,-84.6546 -134.6219,-85.4096 -5.7968,-0.3212 -39.9663,17.2814 -75.9322,39.1168 l 0,0 z"
     id="path2991"
     inkscape:connector-curvature="0" />
  <path
     style="fill:#f9f9f9;fill-opacity:1;stroke:#101010;stroke-width:0;stroke-linecap:round;stroke-linejoin:miter;stroke-miterlimit:3.79999995;stroke-dasharray:none;stroke-dashoffset:0;stroke-opacity:1"
     d="m 309.805,1269.9199 c 27.9239,17.7502 27.8529,81.3285 -0.1106,99.1092 -35.3356,22.4684 -92.7452,-8.2273 -92.7452,-49.5888 0,-41.4307 57.4137,-72.0497 92.8558,-49.5204 z"
     id="path2993"
     inkscape:connector-curvature="0" />
  <path
     style="fill:#f9f9f9;fill-opacity:1;stroke:#101010;stroke-width:0;stroke-linecap:round;stroke-linejoin:miter;stroke-miterlimit:3.79999995;stroke-dasharray:none;stroke-dashoffset:0;stroke-opacity:1"
     d="m 763.661,1659.3839 c 34.2763,12.7252 46.6934,67.7166 21.0751,93.3349 -17.5761,17.5761 -67.9639,17.5761 -85.54,0 -16.3618,-16.3619 -17.8172,-55.6751 -2.7893,-75.3483 12.1478,-15.9029 47.4418,-25.342 67.2542,-17.9866 z"
     id="path2995"
     inkscape:connector-curvature="0" />
  <path
     style="fill:#f9f9f9;fill-opacity:1;stroke:#101010;stroke-width:0;stroke-linecap:round;stroke-linejoin:miter;stroke-miterlimit:3.79999995;stroke-dasharray:none;stroke-dashoffset:0;stroke-opacity:1"
     d="m 1327.7288,1659.3839 c 34.2763,12.7252 46.6934,67.7166 21.0751,93.3349 -17.5761,17.5761 -67.9639,17.5761 -85.54,0 -16.3618,-16.3619 -17.8172,-55.6751 -2.7893,-75.3483 12.1478,-15.9029 47.4419,-25.342 67.2542,-17.9866 z"
     id="path2997"
     inkscape:connector-curvature="0" />
  <path
     style="fill:#f9f9f9;fill-opacity:1;stroke:#101010;stroke-width:0;stroke-linecap:round;stroke-linejoin:miter;stroke-miterlimit:3.79999995;stroke-dasharray:none;stroke-dashoffset:0;stroke-opacity:1"
     d="m 1813.6949,1280.3895 c 22.1894,22.1894 22.1894,55.9123 0,78.1017 -17.4414,17.4413 -56.0991,22.802 -75.4999,10.4696 -27.9239,-17.7503 -27.8529,-81.3285 0.1106,-99.1093 19.2987,-12.2712 57.9882,-6.8631 75.3893,10.538 z"
     id="path2999"
     inkscape:connector-curvature="0" />
</svg>
