<?xml version="1.0" encoding="UTF-8" standalone="no"?>
<svg
   xmlns:dc="http://purl.org/dc/elements/1.1/"
   xmlns:cc="http://creativecommons.org/ns#"
   xmlns:rdf="http://www.w3.org/1999/02/22-rdf-syntax-ns#"
   xmlns:svg="http://www.w3.org/2000/svg"
   xmlns="http://www.w3.org/2000/svg"
   xmlns:sodipodi="http://sodipodi.sourceforge.net/DTD/sodipodi-0.dtd"
   xmlns:inkscape="http://www.inkscape.org/namespaces/inkscape"
   viewBox="0 0 2048 2048"
   id="svg2"
   version="1.1"
   inkscape:version="0.91 r13725"
   width="100%"
   height="100%"
   sodipodi:docname="wR.svg">
  <metadata
     id="metadata12">
    <rdf:RDF>
      <cc:Work
         rdf:about="">
        <dc:format>image/svg+xml</dc:format>
        <dc:type
           rdf:resource="http://purl.org/dc/dcmitype/StillImage" />
        <dc:title />
      </cc:Work>
    </rdf:RDF>
  </metadata>
  <defs
     id="defs10" />
  <sodipodi:namedview
     pagecolor="#ffffff"
     bordercolor="#666666"
     borderopacity="1"
     objecttolerance="10"
     gridtolerance="10"
     guidetolerance="10"
     inkscape:pageopacity="0"
     inkscape:pageshadow="2"
     inkscape:window-width="1280"
     inkscape:window-height="800"
     id="namedview8"
     showgrid="false"
     inkscape:zoom="0.11523438"
     inkscape:cx="1024"
     inkscape:cy="1024"
     inkscape:window-x="0"
     inkscape:window-y="0"
     inkscape:window-maximized="0"
     inkscape:current-layer="svg2" />
  <g
     transform="matrix(-1,0,0,1,2048,149)"
     id="g4">
    <path
       d="m 1024,547 -381,0 5,74 376,0 376,0 5,-74 -381,0 z m 0,661 -332,0 5,74 327,0 327,0 5,-74 -332,0 z m 0,-1003 -641,0 29,264 159,118 50,659 -149,107 -17,341 289,0 0,-147 137,0 0,147 143,0 143,0 0,-147 137,0 0,147 289,0 -17,-341 -149,-107 50,-659 159,-118 29,-264 -641,0 z m 0,74 557,0 -15,149 -161,119 -54,735 152,109 13,230 -138,0 0,-148 -285,0 0,148 -69,0 -69,0 0,-148 -285,0 0,148 -138,0 13,-230 152,-109 -54,-735 -161,-119 -15,-149 557,0 z"
       id="path6"
       inkscape:connector-curvature="0"
       style="fill:#101010" />
  </g>
  <path
     style="fill:#f9f9f9;fill-opacity:1;stroke:#101010;stroke-width:0;stroke-linecap:round;stroke-linejoin:miter;stroke-miterlimit:3.79999995;stroke-dasharray:none;stroke-dashoffset:0;stroke-opacity:1"
     d="m 1392.1678,818.5051 c -5.0226,49.6842 -38.4051,500.5674 -38.4051,518.7218 0,11.0615 -44.8678,12.8036 -329.7627,12.8036 -284.8949,0 -329.7627,-1.7421 -329.7627,-12.8036 0,-18.1544 -33.3825,-469.0376 -38.4051,-518.7218 l -4.167,-41.2204 372.3348,0 372.3348,0 -4.167,41.2204 z"
     id="path2989"
     inkscape:connector-curvature="0" />
  <path
     style="fill:#f9f9f9;fill-opacity:1;stroke:#101010;stroke-width:0;stroke-linecap:round;stroke-linejoin:miter;stroke-miterlimit:3.79999995;stroke-dasharray:none;stroke-dashoffset:0;stroke-opacity:1"
     d="m 1423.2157,1489.3529 73.7335,52.5427 5.6471,71.1183 c 3.106,39.1151 6.0348,89.6675 6.5085,112.3386 l 0.8613,41.2204 -65.0847,0 -65.0848,0 0,-73.7627 0,-73.7627 -147.5254,0 -147.5254,0 0,73.7627 0,73.7627 -60.7458,0 -60.7458,0 0,-73.7627 0,-73.7627 -147.5254,0 -147.5254,0 0,73.7627 0,73.7627 -65.0848,0 -65.0847,0 0.8609,-41.2204 c 0.4738,-22.6711 3.4025,-73.2235 6.5084,-112.3386 l 5.6476,-71.1183 73.7335,-52.5427 73.7335,-52.5427 325.4822,0 325.4822,0 73.7335,52.5427 z"
     id="path2991"
     inkscape:connector-curvature="0" />
  <path
     style="fill:#f9f9f9;fill-opacity:1;stroke:#101010;stroke-width:0;stroke-linecap:round;stroke-linejoin:miter;stroke-miterlimit:3.79999995;stroke-dasharray:none;stroke-dashoffset:0;stroke-opacity:1"
     d="m 1576.3333,445.3525 c -2.3244,8.3526 -6.7515,41.0601 -9.8379,72.6835 l -5.6118,57.497 -79.3346,57.486 -79.3346,57.4861 -378.2144,0 -378.2144,0 -79.3346,-57.4861 -79.3346,-57.486 -5.6117,-57.497 c -3.0865,-31.6234 -7.5136,-64.3309 -9.838,-72.6835 -3.9931,-14.3493 26.4521,-15.1864 552.3333,-15.1864 525.8812,0 556.3265,0.8371 552.3333,15.1864 z"
     id="path2993"
     inkscape:connector-curvature="0" />
</svg>
