<?xml version="1.0" encoding="UTF-8" standalone="no"?>
<!-- Created with Inkscape (http://www.inkscape.org/) -->

<svg
   xmlns:dc="http://purl.org/dc/elements/1.1/"
   xmlns:cc="http://creativecommons.org/ns#"
   xmlns:rdf="http://www.w3.org/1999/02/22-rdf-syntax-ns#"
   xmlns:svg="http://www.w3.org/2000/svg"
   xmlns="http://www.w3.org/2000/svg"
   xmlns:sodipodi="http://sodipodi.sourceforge.net/DTD/sodipodi-0.dtd"
   xmlns:inkscape="http://www.inkscape.org/namespaces/inkscape"
   width="210mm"
   height="297mm"
   viewBox="0 0 744.09448819 1052.3622047"
   id="svg3402"
   version="1.1"
   inkscape:version="0.91 r13725"
   sodipodi:docname="wR.svg">
  <defs
     id="defs3404" />
  <sodipodi:namedview
     id="base"
     pagecolor="#ffffff"
     bordercolor="#666666"
     borderopacity="1.0"
     inkscape:pageopacity="0.0"
     inkscape:pageshadow="2"
     inkscape:zoom="0.35"
     inkscape:cx="375"
     inkscape:cy="520"
     inkscape:document-units="px"
     inkscape:current-layer="layer1"
     showgrid="false"
     inkscape:window-width="1920"
     inkscape:window-height="1017"
     inkscape:window-x="1912"
     inkscape:window-y="-8"
     inkscape:window-maximized="1" />
  <metadata
     id="metadata3407">
    <rdf:RDF>
      <cc:Work
         rdf:about="">
        <dc:format>image/svg+xml</dc:format>
        <dc:type
           rdf:resource="http://purl.org/dc/dcmitype/StillImage" />
        <dc:title></dc:title>
      </cc:Work>
    </rdf:RDF>
  </metadata>
  <g
     inkscape:label="Layer 1"
     inkscape:groupmode="layer"
     id="layer1">
    <g
       id="g3419"
       transform="matrix(1,0,0,-1,-804,1690.8622)">
      <g
         id="g4"
         transform="matrix(1,0,0,-1,0,2048)">
        <path
           id="path6"
           d="m 1024,547 -381,0 5,74 376,0 376,0 5,-74 -381,0 z m 0,661 -332,0 5,74 327,0 327,0 5,-74 -332,0 z m 0,-1003 -641,0 29,264 159,118 50,659 -149,107 -17,341 289,0 0,-147 137,0 0,147 143,0 143,0 0,-147 137,0 0,147 289,0 -17,-341 -149,-107 50,-659 159,-118 29,-264 -641,0 z m 0,74 557,0 -15,149 -161,119 -54,735 152,109 13,230 -138,0 0,-148 -285,0 0,148 -69,0 -69,0 0,-148 -285,0 0,148 -138,0 13,-230 152,-109 -54,-735 -161,-119 -15,-149 557,0 z"
           inkscape:connector-curvature="0"
           style="fill:#101010" />
      </g>
      <path
         inkscape:connector-curvature="0"
         id="path2989"
         d="m 655.83219,1378.4949 c 5.02264,-49.6842 38.4051,-500.56736 38.4051,-518.72181 0,-11.06153 44.86783,-12.8036 329.76271,-12.8036 284.8949,0 329.7627,1.74207 329.7627,12.8036 0,18.15445 33.3825,469.03761 38.4051,518.72181 l 4.167,41.2204 -372.3348,0 -372.33482,0 4.16701,-41.2204 z"
         style="fill:#f9f9f9;fill-opacity:1;stroke:#101010;stroke-width:0;stroke-linecap:round;stroke-linejoin:miter;stroke-miterlimit:3.79999995;stroke-dasharray:none;stroke-dashoffset:0;stroke-opacity:1" />
      <path
         inkscape:connector-curvature="0"
         id="path2991"
         d="m 624.78434,707.64711 -73.73349,-52.54273 -5.64719,-71.11829 c -3.10595,-39.11507 -6.03477,-89.66745 -6.50847,-112.33863 l -0.86129,-41.22034 65.08474,0 65.08475,0 0,73.76271 0,73.76271 147.52542,0 147.52543,0 0,-73.76271 0,-73.76271 60.74576,0 60.7458,0 0,73.76271 0,73.76271 147.5254,0 147.5254,0 0,-73.76271 0,-73.76271 65.0848,0 65.0847,0 -0.8609,41.22034 c -0.4738,22.67118 -3.4025,73.22356 -6.5084,112.33863 l -5.6476,71.11829 -73.7335,52.54273 -73.7335,52.54272 -325.4822,0 -325.48217,0 -73.73349,-52.54272 z"
         style="fill:#f9f9f9;fill-opacity:1;stroke:#101010;stroke-width:0;stroke-linecap:round;stroke-linejoin:miter;stroke-miterlimit:3.79999995;stroke-dasharray:none;stroke-dashoffset:0;stroke-opacity:1" />
      <path
         inkscape:connector-curvature="0"
         id="path2993"
         d="m 471.66675,1751.6475 c 2.32439,-8.3526 6.75144,-41.0601 9.83789,-72.6835 l 5.61173,-57.497 79.33462,-57.486 79.33463,-57.4861 378.21438,0 378.2144,0 79.3346,57.4861 79.3346,57.486 5.6117,57.497 c 3.0865,31.6234 7.5136,64.3309 9.838,72.6835 3.9931,14.3493 -26.4521,15.1864 -552.3333,15.1864 -525.88123,0 -556.32646,-0.8371 -552.33325,-15.1864 z"
         style="fill:#f9f9f9;fill-opacity:1;stroke:#101010;stroke-width:0;stroke-linecap:round;stroke-linejoin:miter;stroke-miterlimit:3.79999995;stroke-dasharray:none;stroke-dashoffset:0;stroke-opacity:1" />
    </g>
  </g>
</svg>
