<svg xmlns="http://www.w3.org/2000/svg" width="177.17" height="177.17" shape-rendering="geometricPrecision" image-rendering="optimizeQuality" fill-rule="evenodd" clip-rule="evenodd" viewBox="0 0 50 50"><defs><linearGradient id="a" x1="21.09" y1="37.1" x2="77.67" y2="37.469" gradientUnits="userSpaceOnUse"><stop stop-color="#fff"/><stop offset="1" stop-color="#fff" stop-opacity="0"/></linearGradient></defs><path d="M25 42.16c-.229.94-.517 1.592-.847 1.956-.33.364-.762.745-1.312 1.143-.593.415-1.295.762-2.108 1.05-.813.288-1.71.364-2.701.212l-6.968-.965a2.85 2.85 0 00-.762 0c-.22.034-.432.051-.635.051-.347 0-.787.076-1.321.237-.542.152-.957.381-1.253.677l-2.404-3.946c.296-.33.559-.559.787-.694.237-.127.508-.271.821-.415a9.158 9.158 0 013.073-.821 12.27 12.27 0 011.363-.025c.449.017.914 0 1.397-.051.889.152 1.786.288 2.684.406.906.127 1.812.254 2.718.39.991 0 1.66-.102 2.01-.296.186-.102.474-.288.872-.55.398-.262.796-.652 1.194-1.168a17.272 17.272 0 01-2.684-.508 23.912 23.912 0 01-2.404-.754l2.582-6.401c-1.295-.745-2.193-1.338-2.709-1.795a5.306 5.306 0 01-1.211-1.575c-.432-.762-.711-1.499-.83-2.21a9.338 9.338 0 01-.161-1.913c.017-.991.245-2.083.703-3.285.457-1.194 1.312-2.269 2.565-3.209a80.007 80.007 0 003.057-2.455 27.681 27.681 0 002.946-2.955c-1.219-.627-1.829-1.626-1.829-2.997 0-.931.322-1.719.974-2.388.652-.66 1.456-.991 2.396-.991.923 0 1.719.33 2.379.991.66.669.991 1.456.991 2.388 0 1.355-.61 2.354-1.829 2.997a26.783 26.783 0 002.913 2.955 59.26 59.26 0 003.09 2.455c1.236.94 2.083 2.01 2.523 3.209.449 1.202.694 2.295.72 3.285a11.7 11.7 0 01-.169 1.913c-.118.711-.381 1.448-.796 2.21a6.07 6.07 0 01-1.253 1.575c-.5.457-1.389 1.05-2.667 1.795l2.582 6.401a28.46 28.46 0 01-2.455.754c-.914.246-1.787.415-2.633.508.381.517.771.906 1.168 1.168.398.263.694.449.897.55.347.195 1.016.296 2.01.296.889-.136 1.787-.263 2.692-.39a80.91 80.91 0 002.718-.406c.44.051.889.068 1.346.051.457-.017.923-.008 1.406.025a9.651 9.651 0 013.073.821c.296.144.567.288.804.415.245.135.508.364.804.694l-2.43 3.946c-.296-.296-.711-.525-1.253-.677-.533-.161-.965-.237-1.295-.237-.22 0-.44-.017-.66-.051a2.79 2.79 0 00-.754 0l-6.951.965c-.991.152-1.913.085-2.76-.195-.855-.279-1.558-.652-2.1-1.118-.542-.449-.982-.83-1.304-1.151-.322-.322-.593-.957-.804-1.897" fill="#1f1a17"/><path d="M24.09 23.705v2.108c0 .61.305.914.914.914.61 0 .914-.305.914-.914v-2.134h2.235c.576 0 .872-.296.872-.897 0-.593-.296-.889-.872-.889h-2.235v-2.235c0-.61-.305-.914-.914-.914-.61 0-.914.305-.914.914v2.235h-2.184c-.584 0-.872.296-.872.889 0 .601.288.897.872.897l2.184.025m7.51 13.741l-1.041-2.531c-1.685-.364-3.539-.542-5.554-.542-1.998 0-3.835.178-5.503.542l-1.041 2.506c2.049-.516 4.233-.77 6.545-.77 2.286 0 4.479.262 6.596.796m-2.083-5.114l-.72-1.736v-.669a26.998 26.998 0 00-3.793-.271c-1.236 0-2.498.093-3.768.271l-.025.669-.669 1.736a25.805 25.805 0 014.462-.373c1.592 0 3.09.127 4.513.373m-.864 9.381c-.66-.499-1.329-1.287-1.99-2.362h-.787c0 .813.186 1.6.567 2.362h2.21m-5.114 0c.381-.813.576-1.6.576-2.362h-.796c-.643 1.058-1.312 1.846-2.02 2.362h2.235" fill="url(#a)"/></svg>