<svg xmlns="http://www.w3.org/2000/svg" width="177.17" height="177.17" shape-rendering="geometricPrecision" image-rendering="optimizeQuality" fill-rule="evenodd" clip-rule="evenodd" viewBox="0 0 50 50"><defs><linearGradient id="a" x1="21.13" y1="37.22" x2="77.76" y2="37.469" gradientUnits="userSpaceOnUse"><stop stop-color="#fff"/><stop offset="1" stop-color="#fff" stop-opacity="0"/></linearGradient></defs><g fill="#1f1a17"><path d="M25.821 12.02H24.06V8.769h-2.066c-.559 0-.838-.271-.838-.821v-.025c0-.542.279-.813.838-.813h2.066V5.002c0-.584.296-.872.889-.872.576 0 .872.288.872.872V7.11h2.134c.542 0 .813.271.813.813v.025c0 .55-.271.821-.813.821l-2.117.025-.017 3.226M11.03 37.744l-.813-4.64c-.017 0-.042-.034-.076-.102-.085-.118-.322-.271-.711-.457-.381-.195-.838-.516-1.346-.982a42.85 42.85 0 01-1.702-1.49 8.532 8.532 0 01-1.101-1.236c-1.01-1.389-1.575-3.065-1.685-5.04-.169-1.897.601-3.793 2.303-5.681 1.719-1.88 4.047-2.769 6.968-2.65 1.092.068 2.379.33 3.844.796.483.195.974.39 1.482.576l1.499.584c.262.135.5.271.694.398a4.36 4.36 0 01-.127-1.041c0-1.287.457-2.388 1.38-3.302a4.638 4.638 0 013.311-1.389c1.287 0 2.388.466 3.302 1.38.906.914 1.363 2.02 1.363 3.285 0 .262-.034.61-.102 1.041.229-.144.457-.271.669-.372.762-.33 1.761-.72 3.01-1.16 1.422-.483 2.701-.754 3.844-.821 2.921-.136 5.241.754 6.943 2.65 1.668 1.888 2.447 3.785 2.328 5.681-.127 1.973-.703 3.649-1.71 5.04-.33.449-.703.864-1.118 1.253-.406.39-.965.881-1.66 1.473-.542.466-1.01.796-1.389.982-.381.186-.601.347-.669.457a.293.293 0 01-.051.076c-.017.017-.025.034-.025.051l-.796 4.665 1.643 6.121c-.83.745-2.684 1.355-5.554 1.837-2.879.483-6.206.72-9.974.72-3.835 0-7.214-.254-10.118-.754-2.912-.508-4.741-1.143-5.486-1.897l1.634-6.05"/></g><path fill="url(#a)" d="M24.949 20.675a2.266 2.266 0 00-.127-.423 5.777 5.777 0 00-.245-.72c-.051-.11-.119-.254-.195-.432a8.924 8.924 0 01-.254-.559c-.051-.119-.11-.271-.186-.457-.068-.195-.136-.373-.186-.533a1.745 1.745 0 01-.068-.474c0-.872.415-1.312 1.262-1.312.881 0 1.312.432 1.312 1.287 0 .22-.034.373-.093.474-.237.627-.356.965-.372 1.016-.254.5-.406.821-.474.965a2.596 2.596 0 00-.22.72 1.177 1.177 0 00-.102.262 1.788 1.788 0 01-.051.186m-2.777 8.56c-2.066.034-3.954.135-5.673.322-1.71.178-3.03.44-3.979.77a18.919 18.919 0 00-1.719-1.854 32.885 32.885 0 01-1.727-1.744c-.83-.847-1.236-1.77-1.236-2.777 0-1.245.203-2.151.618-2.726.44-.669 1.135-1.16 2.057-1.482a8.48 8.48 0 012.803-.483c1.194 0 2.328.262 3.42.796 1.075.559 1.787 1.01 2.134 1.338 1.126 1.143 2.01 2.379 2.633 3.717.212.5.372 1.194.483 2.074.11.889.169 1.566.186 2.049m2.777-4.318c.119-.466.212-.787.296-.965.169-.643.356-1.194.576-1.643a6.82 6.82 0 01.432-.974c.186-.373.389-.804.61-1.279a13 13 0 00.415-1.033c.152-.406.305-.804.449-1.202.135-.33.203-.686.203-1.067 0-.813-.296-1.499-.872-2.066-.576-.576-1.279-.864-2.108-.864-1.964 0-2.955.991-2.955 2.955 0 .381.068.737.203 1.067.364 1.075.643 1.82.838 2.235.22.474.415.906.601 1.279.178.372.339.694.466.974.22.55.398 1.092.55 1.643.034.093.127.415.296.94m-.889 6.223c0-.66-.017-1.575-.051-2.735-.034-1.168-.161-2.142-.372-2.921-.677-2.21-1.702-3.996-3.082-5.351-.711-.694-1.795-1.346-3.268-1.939-1.685-.66-3.285-.991-4.792-.991-2.608 0-4.547.931-5.8 2.803-.711.991-1.067 2.235-1.067 3.717 0 1.626.398 2.955 1.185 3.996.415.593 1.211 1.329 2.388 2.21 1.168.872 2.168 1.685 2.972 2.43a59.423 59.423 0 014.877-.821c1.812-.229 4.149-.364 7.01-.398m13.784 11.735l-.737-2.929c-3.226-.737-7.281-1.109-12.158-1.109-4.826 0-8.865.373-12.11 1.109l-.787 2.955c3.141-.957 7.442-1.439 12.92-1.439 2.625 0 5.072.136 7.315.398 2.252.262 4.106.601 5.554 1.016m-.643-7.417c-3.04-.838-7.095-1.262-12.15-1.262-5.097 0-9.195.432-12.302 1.287l.373 2.506c3.124-.813 7.095-1.219 11.93-1.219 4.809 0 8.729.398 11.752 1.194l.398-2.506m-11.362-4.293c2.845.051 5.182.195 7 .423 1.812.229 3.454.508 4.911.821a26.828 26.828 0 013.02-2.557c1.109-.813 1.888-1.507 2.337-2.083.787-1.075 1.185-2.413 1.185-4.02 0-1.465-.356-2.701-1.067-3.692-1.27-1.871-3.217-2.803-5.825-2.803-1.524 0-3.107.33-4.767.991-1.507.593-2.591 1.236-3.277 1.93-1.405 1.363-2.43 3.15-3.073 5.359-.245.762-.381 1.727-.406 2.904a144.547 144.547 0 00-.042 2.726m1.812-1.93c0-.483.059-1.16.161-2.049.11-.881.279-1.575.508-2.074.618-1.338 1.49-2.574 2.633-3.717.33-.33 1.041-.779 2.134-1.338a7.66 7.66 0 013.446-.796c.931 0 1.846.161 2.769.483.914.322 1.609.813 2.066 1.482.415.559.627 1.465.627 2.726 0 .991-.406 1.913-1.219 2.777a40.826 40.826 0 01-1.71 1.651c-.61.55-1.202 1.202-1.761 1.947-.957-.33-2.294-.593-4-.77-1.71-.186-3.59-.288-5.647-.322"/></svg>