<svg xmlns="http://www.w3.org/2000/svg" width="177.17" height="177.17" shape-rendering="geometricPrecision" image-rendering="optimizeQuality" fill-rule="evenodd" clip-rule="evenodd" viewBox="0 0 50 50"><defs><linearGradient id="a" x1="21.253" y1="37.592" x2="77.64" y2="37.469" gradientUnits="userSpaceOnUse"><stop stop-color="#fff"/><stop offset="1" stop-color="#fff" stop-opacity="0"/></linearGradient></defs><path fill="#1f1a17" d="M26.18 9.395c2.599.169 5 .838 7.222 2.02 2.21 1.168 4.098 2.675 5.656 4.513 1.092 1.287 2.117 2.845 3.082 4.665a28.682 28.682 0 012.32 5.774 36.517 36.517 0 011.253 7.459c.178 2.599.263 5.01.263 7.23v5.402H15.468c-.152 0-.22-.406-.212-1.211.008-.813.059-1.465.161-1.964.059-.398.22-.957.466-1.685.254-.728.66-1.609 1.245-2.65.262-.533.889-1.304 1.88-2.32.999-1.016 2.134-2.201 3.429-3.539.745-.762 1.321-1.719 1.744-2.879.423-1.151.601-2.201.533-3.15-.61.5-1.279.906-2.01 1.219-3.505 1.253-6.05 3.073-7.611 5.452-.119.152-.491.821-1.118 2.02-.33.627-.618 1.058-.847 1.287-.313.313-.771.491-1.363.525-.923.042-1.643-.398-2.159-1.346-.694.203-1.312.288-1.863.254-.923-.347-1.592-.72-2.01-1.118-.847-.847-1.389-1.685-1.651-2.532a9.433 9.433 0 01-.381-2.726c0-1.389.855-3.226 2.582-5.512 2.02-2.625 3.09-4.631 3.217-6 0-.593.059-1.262.178-2.01.102-.517.305-1.01.618-1.49.22-.33.364-.559.432-.677.076-.127.212-.313.415-.559a3.57 3.57 0 01.373-.457c.093-.11.22-.254.373-.44.178-.212.406-.457.694-.745a18.072 18.072 0 01-1.067-7.459c3.285 1.168 6.05 3.01 8.28 5.529.55-1.871 1.626-3.387 3.226-4.538 1.321.923 2.371 2.151 3.15 3.666"/><path fill="url(#a)" d="M15.688 17.786c.364-.186.542-.279.542-.279.499-.195.652-.559.474-1.092-.195-.491-.576-.66-1.143-.491-1.947.711-3.294 2.02-4.04 3.92-.118.542.076.914.593 1.118.516.161.864-.017 1.041-.55.136-.279.229-.466.296-.542.186.144.423.245.72.296 1.01.161 1.6-.279 1.761-1.338a1.495 1.495 0 00-.246-1.041m-4.115 16.764c.059-.152.169-.373.322-.669.279-.694.415-1.109.415-1.245-.025-.457-.271-.694-.72-.694-.33 0-.711.474-1.16 1.414a.966.966 0 01-.296.347c-.449.466-.381.855.195 1.168.533.313.94.212 1.245-.322m14.63-9.203c1.16-1.524 1.727-3.217 1.71-5.08-.068-.55-.381-.821-.94-.821-.762 0-1.058.279-.898.838.051.914-.034 1.668-.271 2.261-.381.94-.804 1.642-1.261 2.108-.254.5-.102.864.449 1.092.525.245.931.119 1.211-.398m-6.477-12.11a6.803 6.803 0 01.051-1.93c-.991.195-1.922.66-2.802 1.389-.525.279-.652.669-.373 1.168.279.508.669.593 1.168.246.347-.186.669-.356.957-.508.288-.161.618-.279.999-.364m23.25 31.454c-.017 0 0-.449.042-1.346.131-3.107.095-6.221.076-9.33a26.839 26.839 0 00-.889-6.613c-.84-3.31-2.124-6.485-4.072-9.296-2.634-3.845-6.814-6.03-11.286-6.976.126.766.033 1.54.076 2.311 1.6.542 3.116 1.219 4.538 2.032 4.241 2.554 6.414 7.275 7.197 11.93 1.272 6.154.453 11.557.813 17.289h3.505M9.438 30.139c.474-.339.525-.728.144-1.194-.398-.381-.83-.415-1.312-.102-1.01.66-1.549 1.532-1.617 2.608.017.542.347.804.974.771.593-.051.881-.356.864-.923.135-.525.449-.914.948-1.16"/></svg>