<svg xmlns="http://www.w3.org/2000/svg" width="177.17" height="177.17" shape-rendering="geometricPrecision" image-rendering="optimizeQuality" fill-rule="evenodd" clip-rule="evenodd" viewBox="0 0 50 50"><path d="M25 46.45H11.606a13.147 13.147 0 01-.991-5.043c0-2.975.864-5.645 2.599-8.018 1.736-2.365 3.971-4.054 6.697-5.068a6.828 6.828 0 01-2.862-2.398c-.737-1.071-1.101-2.282-1.101-3.634 0-1.69.576-3.156 1.736-4.392 1.152-1.244 2.574-1.966 4.267-2.15-1.346-.984-2.02-2.283-2.02-3.89 0-1.352.491-2.513 1.482-3.477.982-.965 2.176-1.443 3.581-1.443 1.389 0 2.582.478 3.573 1.443.991.964 1.49 2.125 1.49 3.477 0 1.607-.669 2.91-2.02 3.89 1.693.189 3.116.905 4.267 2.15 1.16 1.236 1.736 2.703 1.736 4.392 0 1.352-.373 2.563-1.126 3.634a7.028 7.028 0 01-2.862 2.398c2.726 1.014 4.961 2.703 6.697 5.068 1.736 2.373 2.599 5.043 2.599 8.018 0 1.738-.322 3.42-.965 5.043H24.989" fill="#1f1a17"/></svg>