<svg xmlns="http://www.w3.org/2000/svg" width="177.17" height="177.17" shape-rendering="geometricPrecision" image-rendering="optimizeQuality" fill-rule="evenodd" clip-rule="evenodd" viewBox="0 0 50 50"><defs><linearGradient id="a" x1="21.13" y1="37.592" x2="77.64" y2="37.469" gradientUnits="userSpaceOnUse"><stop stop-color="#fff"/><stop offset="1" stop-color="#fff" stop-opacity="0"/></linearGradient></defs><path fill="#1f1a17" d="M25.447 42.01c-.229.94-.517 1.592-.847 1.956-.33.364-.762.745-1.312 1.143-.593.415-1.295.762-2.108 1.05-.813.288-1.71.364-2.701.212l-6.968-.965a2.85 2.85 0 00-.762 0c-.22.034-.432.051-.635.051-.347 0-.787.076-1.321.237-.542.152-.957.381-1.253.677l-2.405-3.946c.296-.33.559-.559.787-.694.237-.127.508-.271.821-.415a9.158 9.158 0 013.073-.821 12.27 12.27 0 011.363-.025c.449.017.914 0 1.397-.051.889.152 1.786.288 2.684.406.906.127 1.812.254 2.718.389.991 0 1.66-.102 2.01-.296.186-.102.474-.288.872-.55.398-.262.796-.652 1.194-1.168a17.272 17.272 0 01-2.684-.508 23.912 23.912 0 01-2.404-.754l2.582-6.401c-1.295-.745-2.193-1.338-2.709-1.795a5.306 5.306 0 01-1.211-1.575c-.432-.762-.711-1.499-.83-2.21a9.338 9.338 0 01-.161-1.913c.017-.991.245-2.083.703-3.285.457-1.194 1.312-2.269 2.565-3.209a80.007 80.007 0 003.057-2.455 27.681 27.681 0 002.946-2.955c-1.219-.627-1.829-1.626-1.829-2.997 0-.931.322-1.719.974-2.388.652-.66 1.456-.991 2.396-.991.923 0 1.719.33 2.379.991.66.669.991 1.456.991 2.388 0 1.355-.61 2.354-1.829 2.997a26.783 26.783 0 002.913 2.955c.982.838 2.02 1.66 3.09 2.455 1.236.94 2.083 2.02 2.523 3.209.449 1.202.694 2.294.72 3.285a11.7 11.7 0 01-.169 1.913c-.118.711-.381 1.448-.796 2.21a6.07 6.07 0 01-1.253 1.575c-.5.457-1.389 1.05-2.667 1.795l2.582 6.401a28.46 28.46 0 01-2.455.754c-.914.246-1.787.415-2.633.508.381.517.77.906 1.168 1.168.398.263.694.449.898.55.347.195 1.016.296 2.01.296.889-.136 1.786-.263 2.692-.389a80.91 80.91 0 002.718-.406c.44.051.889.068 1.346.051.457-.017.923-.008 1.405.025a9.651 9.651 0 013.073.821c.296.144.567.288.804.415.245.135.508.364.804.694l-2.43 3.946c-.296-.296-.711-.525-1.253-.677-.533-.161-.965-.237-1.295-.237-.22 0-.44-.017-.66-.051a2.79 2.79 0 00-.754 0l-6.951.965c-.991.152-1.913.085-2.76-.195-.855-.279-1.558-.652-2.1-1.118-.542-.449-.982-.83-1.304-1.151-.322-.322-.593-.957-.804-1.897"/><path fill="url(#a)" d="M26.32 39.2c0 1.092.245 2.024.753 2.794.5.77 1.041 1.372 1.626 1.795.906.669 2.235.999 3.988.999.432 0 1.279-.093 2.532-.279a77.514 77.514 0 012.481-.356c.627-.076 1.05-.135 1.27-.186a6.507 6.507 0 011.981.051c.262.068.559.127.88.186.322.059.593.186.804.381l1.194-1.93a7.373 7.373 0 00-2.159-.72c-1.253-.22-2.354-.263-3.302-.152a8.044 8.044 0 00-1.101.245c-.457.136-1.067.263-1.846.373-1.676.271-2.557.398-2.659.398-.644 0-1.202-.076-1.685-.246a10.22 10.22 0 01-1.287-.542c-.881-.398-1.77-1.338-2.684-2.811h-.787m-1.761 0h-.796c-.931 1.49-1.812 2.43-2.659 2.811-.398.195-.83.373-1.312.542-.483.169-1.033.246-1.66.246-.119 0-.999-.127-2.659-.398-.787-.11-1.422-.237-1.88-.373-.466-.127-.83-.212-1.092-.245-.948-.11-2.04-.068-3.302.152a7.068 7.068 0 00-2.134.72l1.194 1.93c.195-.195.457-.322.779-.381s.618-.118.88-.186a6.507 6.507 0 011.981-.051c.22.051.643.11 1.27.186s1.465.195 2.506.356c1.236.186 2.083.279 2.532.279 1.736 0 3.065-.33 3.988-.999.567-.423 1.101-1.025 1.6-1.795.508-.77.762-1.702.762-2.794m.889-9.347c1.6 0 3.141.127 4.614.373 1.617-.576 2.794-1.482 3.522-2.701.627-1.058.94-2.227.94-3.497 0-.762-.186-1.6-.567-2.523-.381-.914-.999-1.744-1.863-2.489-.974-.813-2.04-1.702-3.2-2.667-1.151-.965-2.303-2.1-3.446-3.387-1.16 1.287-2.311 2.422-3.471 3.387-1.16.965-2.218 1.854-3.175 2.667-.881.745-1.499 1.575-1.871 2.489-.372.923-.559 1.761-.559 2.523 0 1.27.305 2.438.914 3.497.711 1.219 1.897 2.125 3.548 2.701a27.7 27.7 0 014.614-.373m0 4.513c1.939 0 3.793.195 5.579.576l-1.185-3.057a28.018 28.018 0 00-8.805 0l-1.194 3.057a26.597 26.597 0 015.605-.576m0-23.537c1.126 0 1.685-.559 1.685-1.685s-.559-1.693-1.685-1.693-1.685.567-1.685 1.693c0 1.126.559 1.685 1.685 1.685m0 27.01a19.07 19.07 0 003.285-.279c1.067-.195 2.1-.423 3.09-.686-1.939-.508-4.064-.77-6.375-.77-2.345 0-4.47.263-6.375.77.957.263 1.973.491 3.048.686 1.075.186 2.184.279 3.327.279m-.889-14.334l-2.066-.025c-.559 0-.838-.279-.838-.847 0-.559.279-.838.838-.838h2.066v-2.134c0-.576.296-.872.889-.872.576 0 .872.296.872.872v2.134h2.134c.542 0 .813.279.813.838 0 .567-.271.847-.813.847h-2.134v2.032c0 .601-.296.898-.872.898-.593 0-.889-.296-.889-.898v-2.01"/></svg>