<?xml version="1.0" encoding="UTF-8" standalone="no"?>
<svg
   xmlns:dc="http://purl.org/dc/elements/1.1/"
   xmlns:cc="http://creativecommons.org/ns#"
   xmlns:rdf="http://www.w3.org/1999/02/22-rdf-syntax-ns#"
   xmlns:svg="http://www.w3.org/2000/svg"
   xmlns="http://www.w3.org/2000/svg"
   xmlns:sodipodi="http://sodipodi.sourceforge.net/DTD/sodipodi-0.dtd"
   xmlns:inkscape="http://www.inkscape.org/namespaces/inkscape"
   viewBox="0 0 45 45"
   id="svg2"
   version="1.1"
   inkscape:version="0.91 r13725"
   sodipodi:docname="P.svg">
  <metadata
     id="metadata10">
    <rdf:RDF>
      <cc:Work
         rdf:about="">
        <dc:format>image/svg+xml</dc:format>
        <dc:type
           rdf:resource="http://purl.org/dc/dcmitype/StillImage" />
      </cc:Work>
    </rdf:RDF>
  </metadata>
  <defs
     id="defs8" />
  <sodipodi:namedview
     pagecolor="#ffffff"
     bordercolor="#666666"
     borderopacity="1"
     objecttolerance="10"
     gridtolerance="10"
     guidetolerance="10"
     inkscape:pageopacity="0"
     inkscape:pageshadow="2"
     inkscape:window-width="640"
     inkscape:window-height="480"
     id="namedview6"
     showgrid="false"
     inkscape:zoom="5.2444444"
     inkscape:cx="22.5"
     inkscape:cy="22.5"
     inkscape:window-x="0"
     inkscape:window-y="0"
     inkscape:window-maximized="0"
     inkscape:current-layer="svg2" />
  <path
     d="m 22,39.5 c 2.21,0 4,-1.79 4,-4 0,-0.89 -0.29,-1.71 -0.78,-2.38 1.95,-1.12 3.28,-3.21 3.28,-5.62 0,-2.03 -0.94,-3.84 -2.41,-5.03 3,-1.06 7.41,-5.55 7.41,-13.47 l -23,0 c 0,7.92 4.41,12.41 7.41,13.47 -1.47,1.19 -2.41,3 -2.41,5.03 0,2.41 1.33,4.5 3.28,5.62 -0.49,0.67 -0.78,1.49 -0.78,2.38 0,2.21 1.79,4 4,4 z"
     id="path4"
     inkscape:connector-curvature="0"
     style="fill:#888888;stroke:#888888;stroke-width:1.5;stroke-linecap:round" />
</svg>
