<?xml version="1.0" encoding="UTF-8" standalone="no"?>
<svg
   xmlns:dc="http://purl.org/dc/elements/1.1/"
   xmlns:cc="http://creativecommons.org/ns#"
   xmlns:rdf="http://www.w3.org/1999/02/22-rdf-syntax-ns#"
   xmlns:svg="http://www.w3.org/2000/svg"
   xmlns="http://www.w3.org/2000/svg"
   xmlns:sodipodi="http://sodipodi.sourceforge.net/DTD/sodipodi-0.dtd"
   xmlns:inkscape="http://www.inkscape.org/namespaces/inkscape"
   viewBox="0 0 45 45"
   id="svg2"
   version="1.1"
   inkscape:version="0.91 r13725"
   sodipodi:docname="R.svg">
  <metadata
     id="metadata22">
    <rdf:RDF>
      <cc:Work
         rdf:about="">
        <dc:format>image/svg+xml</dc:format>
        <dc:type
           rdf:resource="http://purl.org/dc/dcmitype/StillImage" />
      </cc:Work>
    </rdf:RDF>
  </metadata>
  <defs
     id="defs20" />
  <sodipodi:namedview
     pagecolor="#ffffff"
     bordercolor="#666666"
     borderopacity="1"
     objecttolerance="10"
     gridtolerance="10"
     guidetolerance="10"
     inkscape:pageopacity="0"
     inkscape:pageshadow="2"
     inkscape:window-width="640"
     inkscape:window-height="480"
     id="namedview18"
     showgrid="false"
     inkscape:zoom="5.2444444"
     inkscape:cx="22.5"
     inkscape:cy="22.5"
     inkscape:window-x="0"
     inkscape:window-y="0"
     inkscape:window-maximized="0"
     inkscape:current-layer="svg2" />
  <g
     id="g4"
     transform="matrix(-1,0,0,-1,45,48)"
     style="fill:#888888;fill-rule:evenodd;stroke:#888888;stroke-width:1.5;stroke-linecap:butt;stroke-linejoin:round">
    <path
       d="m 9,39 27,0 0,-3 -27,0 0,3 z"
       id="path6"
       inkscape:connector-curvature="0" />
    <path
       d="m 12.5,32 1.5,-2.5 17,0 1.5,2.5 -20,0 z"
       id="path8"
       inkscape:connector-curvature="0" />
    <path
       d="m 12,36 0,-4 21,0 0,4 -21,0 z"
       id="path10"
       inkscape:connector-curvature="0" />
    <path
       d="m 14,29.5 0,-13 17,0 0,13 -17,0 z"
       id="path12"
       inkscape:connector-curvature="0"
       style="stroke-linejoin:miter" />
    <path
       d="m 14,16.5 -3,-2.5 23,0 -3,2.5 -17,0 z"
       id="path14"
       inkscape:connector-curvature="0" />
    <path
       d="m 11,14 0,-5 4,0 0,2 5,0 0,-2 5,0 0,2 5,0 0,-2 4,0 0,5 -23,0 z"
       id="path16"
       inkscape:connector-curvature="0" />
  </g>
</svg>
