<?xml version="1.0" encoding="UTF-8" standalone="no"?>
<svg
   xmlns:dc="http://purl.org/dc/elements/1.1/"
   xmlns:cc="http://creativecommons.org/ns#"
   xmlns:rdf="http://www.w3.org/1999/02/22-rdf-syntax-ns#"
   xmlns:svg="http://www.w3.org/2000/svg"
   xmlns="http://www.w3.org/2000/svg"
   xmlns:sodipodi="http://sodipodi.sourceforge.net/DTD/sodipodi-0.dtd"
   xmlns:inkscape="http://www.inkscape.org/namespaces/inkscape"
   width="1"
   height="1"
   viewBox="-14.05 -10 220 220"
   enable-background="new 0 0 191.9 195.3"
   id="svg4641"
   version="1.1"
   inkscape:version="0.91 r13725"
   sodipodi:docname="bK.svg">
  <metadata
     id="metadata4679">
    <rdf:RDF>
      <cc:Work
         rdf:about="">
        <dc:format>image/svg+xml</dc:format>
        <dc:type
           rdf:resource="http://purl.org/dc/dcmitype/StillImage" />
        <dc:title></dc:title>
      </cc:Work>
    </rdf:RDF>
  </metadata>
  <defs
     id="defs4677" />
  <sodipodi:namedview
     pagecolor="#ffffff"
     bordercolor="#666666"
     borderopacity="1"
     objecttolerance="10"
     gridtolerance="10"
     guidetolerance="10"
     inkscape:pageopacity="0"
     inkscape:pageshadow="2"
     inkscape:window-width="1920"
     inkscape:window-height="1039"
     id="namedview4675"
     showgrid="false"
     inkscape:zoom="236"
     inkscape:cx="0.5"
     inkscape:cy="0.5"
     inkscape:window-x="0"
     inkscape:window-y="20"
     inkscape:window-maximized="0"
     inkscape:current-layer="svg4641" />
  <switch
     id="switch4643"
     transform="matrix(1,0,0,-1,0,195.2)">
    <g
       id="g4645">
      <g
         id="g4647">
        <path
           d="m 96.1,176.3 -46.3,0 0,15.8 92.5,0 0,-15.8 -46.2,0"
           id="path4649"
           inkscape:connector-curvature="0" />
        <path
           stroke-miterlimit="10"
           d="m 96.1,176.3 -46.3,0 0,15.8 92.5,0 0,-15.8 -46.2,0"
           id="path4651"
           inkscape:connector-curvature="0"
           style="fill:none;stroke:#000000;stroke-width:6;stroke-miterlimit:10" />
        <path
           d="m 49.8,168.5 0,7.8 92.5,0 0,-7.8"
           id="path4653"
           inkscape:connector-curvature="0"
           style="fill:#ffffff" />
        <path
           stroke-miterlimit="10"
           d="m 49.8,168.5 0,7.8 92.5,0 0,-7.8"
           id="path4655"
           inkscape:connector-curvature="0"
           style="fill:none;stroke:#000000;stroke-width:6;stroke-miterlimit:10" />
        <path
           d="m 103.7,68.4 0,-25.9 23.2,0 0,-15.8 -23.2,0 0.1,-23.6 -15.5,0 0,23.6 -23.1,0 0,15.8 23.1,0 0,25.9"
           id="path4657"
           inkscape:connector-curvature="0" />
        <path
           stroke-miterlimit="10"
           d="m 103.7,68.4 0,-25.9 23.2,0 0,-15.8 -23.2,0 0.1,-23.6 -15.5,0 0,23.6 -23.1,0 0,15.8 23.1,0 0,25.9"
           id="path4659"
           inkscape:connector-curvature="0"
           style="fill:none;stroke:#000000;stroke-width:6;stroke-miterlimit:10" />
        <path
           d="M 187.3,75.7 C 180.1,47 152.8,44 152.8,44 114.3,38.6 96.4,80.8 96,81.8 95.6,80.8 77.7,38.5 39.2,43.9 c 0,0 -27.4,3 -34.5,31.7 0,0 -13.8,51.8 45,92.8 l 92.5,0 C 201,127.5 187.3,75.7 187.3,75.7"
           id="path4661"
           inkscape:connector-curvature="0" />
        <path
           stroke-miterlimit="10"
           d="M 187.3,75.7 C 180.1,47 152.8,44 152.8,44 114.3,38.6 96.4,80.8 96,81.8 95.6,80.8 77.7,38.5 39.2,43.9 c 0,0 -27.4,3 -34.5,31.7 0,0 -13.8,51.8 45,92.8 l 92.5,0 C 201,127.5 187.3,75.7 187.3,75.7 Z"
           id="path4663"
           inkscape:connector-curvature="0"
           style="fill:none;stroke:#000000;stroke-width:6;stroke-miterlimit:10" />
        <path
           stroke-miterlimit="10"
           d="m 88.3,68.4 15.4,0"
           id="path4665"
           inkscape:connector-curvature="0"
           style="fill:none;stroke:#000000;stroke-width:6;stroke-miterlimit:10" />
        <path
           stroke-miterlimit="10"
           d="m 147.5,67.2 c -25.1,-2.2 -43.6,50.9 -43.6,50.9 l 0,32.8 c 0,0 26.2,-0.6 46.6,-21.8 20.4,-21.4 22.1,-59.8 -3,-61.9 z"
           id="path4667"
           inkscape:connector-curvature="0"
           style="fill:none;stroke:#ffffff;stroke-width:6;stroke-miterlimit:10" />
        <path
           stroke-miterlimit="10"
           d="m 44.5,67.2 c -25.1,2.2 -23.4,40.6 -3,61.9 20.4,21.3 46.8,21.8 46.8,21.8 l 0,-32.8 c 0,0 -18.7,-53.1 -43.8,-50.9 z"
           id="path4669"
           inkscape:connector-curvature="0"
           style="fill:none;stroke:#ffffff;stroke-width:6;stroke-miterlimit:10" />
        <path
           stroke-miterlimit="10"
           d="m 96,18.8 0,39.4"
           id="path4671"
           inkscape:connector-curvature="0"
           style="fill:none;stroke:#ffffff;stroke-width:4;stroke-miterlimit:10" />
        <path
           stroke-miterlimit="10"
           d="m 80.6,34.6 30.9,0"
           id="path4673"
           inkscape:connector-curvature="0"
           style="fill:none;stroke:#ffffff;stroke-width:4;stroke-miterlimit:10" />
      </g>
    </g>
  </switch>
</svg>
