<?xml version="1.0" encoding="UTF-8" standalone="no"?>
<svg
   xmlns:dc="http://purl.org/dc/elements/1.1/"
   xmlns:cc="http://creativecommons.org/ns#"
   xmlns:rdf="http://www.w3.org/1999/02/22-rdf-syntax-ns#"
   xmlns:svg="http://www.w3.org/2000/svg"
   xmlns="http://www.w3.org/2000/svg"
   xmlns:sodipodi="http://sodipodi.sourceforge.net/DTD/sodipodi-0.dtd"
   xmlns:inkscape="http://www.inkscape.org/namespaces/inkscape"
   width="1"
   height="1"
   viewBox="-32.45 -10 220 220"
   enable-background="new 0 0 155.1 195.5"
   id="svg4591"
   version="1.1"
   inkscape:version="0.91 r13725"
   sodipodi:docname="bN.svg">
  <metadata
     id="metadata4639">
    <rdf:RDF>
      <cc:Work
         rdf:about="">
        <dc:format>image/svg+xml</dc:format>
        <dc:type
           rdf:resource="http://purl.org/dc/dcmitype/StillImage" />
        <dc:title></dc:title>
      </cc:Work>
    </rdf:RDF>
  </metadata>
  <defs
     id="defs4637" />
  <sodipodi:namedview
     pagecolor="#ffffff"
     bordercolor="#666666"
     borderopacity="1"
     objecttolerance="10"
     gridtolerance="10"
     guidetolerance="10"
     inkscape:pageopacity="0"
     inkscape:pageshadow="2"
     inkscape:window-width="1920"
     inkscape:window-height="1039"
     id="namedview4635"
     showgrid="false"
     inkscape:zoom="236"
     inkscape:cx="0.5"
     inkscape:cy="0.5"
     inkscape:window-x="0"
     inkscape:window-y="20"
     inkscape:window-maximized="0"
     inkscape:current-layer="svg4591" />
  <switch
     id="switch4593"
     transform="matrix(1,0,0,-1,0,195.42469)">
    <g
       id="g4595">
      <g
         id="g4597">
        <path
           d="m 97.8,170.5 c 9.7,0 9.7,-15 0,-15 -9.7,0 -9.7,15 0,15"
           id="path4599"
           inkscape:connector-curvature="0" />
        <path
           d="m 39,30.6 c -2,-3 -4.5,-4.4 -7.8,-5.7 -3.5,-1.3 -6.5,-3.4 -10,-4.7 -6.7,-2.5 -18.4,-5.4 -19,5.5 -0.2,3.1 1.2,5.8 2.3,8.7 1.5,3.7 3,7.6 5.8,10.6 2.6,2.9 5.6,4.5 9.2,5.9 1.9,0.8 4.7,0.8 6.7,0.3 1.1,-0.2 2.1,-0.6 3.1,-1.1 1.6,-0.8 1.8,-0.9 0.6,-0.4 2.9,-1.2 5.9,-3.7 5.5,-7.2 C 34.8,37 31,33.4 25.9,31.8 19.1,29.7 12.6,39.5 18.6,44.3 24.4,49 34.8,59 41.4,49.6 46.3,42.7 40.2,32 36.2,26.3 c -2.8,3.7 -5.6,7.3 -8.5,11 3.7,0.7 7,3.1 10.8,3.8 5.6,0.9 11.1,-1.1 13.6,-6.5 1.9,-4.1 0.7,-10 -4.5,-11 -2.7,-0.5 -5,-0.3 -7.7,-0.3 -9.7,0.1 -9.7,15 0,15 7.6,0 14.9,-0.7 21.1,-5.5 2.6,-2 6.7,-1.8 9.8,-2.6 4.8,-1.3 8.1,-2.6 13,-1.2 6.4,1.8 11.4,6.1 18.4,4.6 3.6,-0.8 6.3,-4.2 7.1,-7.6 0.5,-2.1 0.1,-4 -0.2,-6 -0.7,1.8 -0.6,2.1 0.2,1 0.9,-0.6 0.8,-0.7 -0.4,-0.2 -1.3,-0.3 -2.5,-0.7 -3.8,-1 1.2,0.6 2.4,4.6 3.5,6.2 2.1,3.1 4.3,6 6.2,9.2 l 0.9,1.8 -0.1,-0.1 c 0.5,2.7 1.5,1.1 2.9,-4.6 -2,0.8 -4.2,1.1 -6.2,1.9 1.3,-0.5 1.9,3.2 0.2,-0.6 -0.4,-1 -0.7,-2.1 -1,-3.2 -0.6,-2.5 2.2,-0.1 -1.7,2.1 -1.3,0.3 -2.5,0.7 -3.8,1 -3.9,0.5 -1.8,-5 -0.8,-5.8 -1.7,1.2 -3.5,2.4 -5.2,3.5 -3.4,2.2 -7,4.1 -10.5,6.1 -7.4,4.3 -14.4,9.3 -21.6,13.9 -6.9,4.4 -13.1,9.3 -21.2,11 -3.9,0.9 -7.7,-0.5 -11.4,-1.7 -3.9,-1.3 -8.2,-1.8 -11.6,-4.1 -1.3,4.7 -2.5,9.3 -3.8,14 9.4,1.2 16.3,-1.1 23.7,-7.1 3.5,-2.9 6.2,-6.2 6.5,-10.9 0.2,-2.1 -0.2,-4.1 -0.8,-6.1 -0.2,-0.5 -0.4,-1 -0.6,-1.6 -0.1,-0.3 -0.2,-0.6 -0.2,-0.9 0.1,1.6 -0.5,2.9 -1.9,3.9 -1.3,0.3 -2.5,0.7 -3.8,1 2.5,-0.1 1.6,-0.9 -2.8,-2.4 -0.4,-2.2 -0.6,-2.6 -0.5,-1.2 0,0.9 -0.1,1 -0.4,2.4 -0.6,2.7 -1.6,5.4 -2.3,8.1 -2.1,7.2 1.4,16 10.4,13.7 3.4,-0.9 6.2,-4.3 8.2,-6.9 3.1,-3.9 4.8,-8.6 5.1,-13.5 0.1,-2 0,-4 -0.1,-6 l 0,-4.2 c 0,-0.6 0.1,-1.3 0.1,-1.9 0,0.1 0,0.3 -0.1,0.4 0.6,-2 -0.3,-1.1 -2.7,2.8 -1.3,0.3 -2.5,0.7 -3.8,1 l 0.4,0 c -1.3,-0.3 -2.5,-0.7 -3.8,-1 0.9,0.4 3.8,3.5 3.9,5.7 0.2,2.4 -0.8,5.2 -1.1,7.6 -0.3,3.3 0.9,6.8 2.6,9.5 3.7,6 11.3,4 13.7,-1.8 3.2,-7.8 3.9,-16.2 3.3,-24.5 -0.1,-0.9 -0.1,-1.7 0,-2.6 -4.5,2 -5.5,3.2 -2.7,3.5 0.4,0.1 0.9,0.2 1.3,0.4 1.8,1.2 1.5,0.1 -0.9,-3.2 -0.5,2.4 -2.1,4.9 -3,7.2 -2.8,7.5 3.5,15.2 11.4,11.4 3.4,-1.6 5.8,-4.6 8.1,-7.6 1.2,-1.6 2,-3.4 2.7,-5.2 0.4,-0.8 0.7,-1.7 1,-2.5 1,-2.7 2.1,-3.1 -1,-0.8 -1.3,0.3 -2.5,0.7 -3.8,1 -2.3,0.2 -1.6,-0.5 -0.1,0.7 1.2,1 2.4,1.9 3.8,2.8 3.1,2.1 6.4,1.3 9.7,0.5 l -9.2,-9.2 c -0.7,4.9 -1.8,9.6 -1.8,14.6 -0.1,3.8 -3.2,6.2 -5.6,8.8 -2.9,3.1 -5.5,6.7 -7.8,10.3 -0.8,1.3 -1.5,2.7 -2.1,4.2 -0.3,0.6 -0.5,1.2 -0.8,1.8 -1.3,2.7 -1.6,0.7 1.2,0.1 l 4,0 c 2.6,3.1 3.4,3.5 2.6,1.2 -0.4,-1.5 -1,-2.8 -1.8,-4.1 -0.8,-1.3 -2,-2.4 -3.3,-3.2 -2.4,-1.6 -1.2,-1.9 0,1.3 l 0,4 c 0.1,-0.3 0.2,-0.5 0.3,-0.8 1.3,-3.9 -1.4,-8.2 -5.2,-9.2 -1.2,-0.3 -2.5,-0.4 -3.7,-0.9 0.6,4.6 1.2,9.1 1.8,13.7 5.3,-3 11.1,-5 16.3,-8 -3.8,-2.2 -7.5,-4.3 -11.3,-6.5 0.3,2.9 -1.4,6.3 -2.5,8.9 -0.9,2.1 -1.7,4.1 -2.1,6.3 -0.2,1 -0.3,2.1 -0.2,3.1 0.2,-0.6 0.4,-1.1 0.6,-1.7 L 67,79.2 c -5.4,8 7.6,15.5 13,7.6 1.2,-1.8 2.2,-3.1 2.9,-5.2 0.4,-1.3 0,-2.5 0.3,-3.8 0.3,-1.5 1.1,-3 1.7,-4.5 1.6,-4.1 3.8,-8.7 3.2,-13.2 -0.7,-5.4 -5.9,-9.6 -11.3,-6.5 -5.3,3.1 -11,5.1 -16.3,8 -6.1,3.4 -4,11.6 1.8,13.7 1.2,0.5 2.5,0.5 3.7,0.9 -1.7,-3.1 -3.5,-6.2 -5.2,-9.2 -1.2,3.6 0.1,6.8 2.6,9.5 l 2.4,1.8 c 1.3,0.9 1.2,0.8 -0.1,-0.5 0.6,1.8 1.1,3.5 2.2,5.1 5.3,7.7 13.9,4 17.5,-2.9 1.6,-2.9 2.8,-5.8 4.7,-8.6 2.2,-3.2 5.1,-5.9 7.7,-8.9 6.5,-7.3 6.1,-16.5 7.3,-25.7 0.8,-5.7 -3.1,-10.6 -9.2,-9.2 -2.5,0.6 2.7,1.7 0.2,-0.2 -1.4,-1.1 -2.8,-2.2 -4.4,-3.1 -2.9,-1.7 -6.8,-1.8 -9.5,0.2 -3.3,2.4 -4.1,5.7 -5.3,9.4 -0.5,1.5 -1.3,2.8 -2.2,4.2 -0.7,1.1 -2.9,1.7 -1.4,1.5 1.9,0.3 3.9,0.5 5.8,0.8 l 2.3,2.2 c 0.3,1.3 0.7,2.5 1,3.8 0.1,1.9 0,0.3 0.2,-0.5 0.3,-0.8 0.4,-0.9 0.9,-2 1.2,-2.6 2.7,-5.4 2.7,-8.3 -0.1,-7.6 -6.7,-12 -13.7,-13 -8.7,-1.2 -13.7,4.2 -14,12.6 -0.1,3 0.5,5.9 0.3,8.9 -0.3,4.5 -1.3,8.8 -3,13 L 69.5,55.3 C 68,52.9 69.9,48.5 70,45.7 70.2,42.2 68.9,38.6 67,35.7 64,31.3 57,22.3 50.7,27 c -5.2,3.9 -4.9,10 -4.8,15.9 0,1.7 0.3,4.2 0.1,5.6 -0.2,1.6 -0.7,3.3 -1.7,4.5 -0.8,1 -3.7,2.7 -1.4,2.1 1.9,0.3 3.9,0.5 5.8,0.8 l -0.6,-0.3 3.4,4.5 c 0.3,0.7 -0.6,2.6 -0.1,0.4 0.3,-1.1 0.6,-2.2 0.9,-3.2 0.8,-2.5 1.5,-4.9 2,-7.5 1.2,-6.6 -0.2,-13.5 -7.3,-15.7 -9.6,-2.9 -14.3,7 -12.4,14.7 0.2,0.5 0.3,1.1 0.5,1.6 0.4,1.8 0.6,1.9 0.5,0.4 -1.2,1.4 -3.1,2.7 -4.6,3.7 -3.4,2.4 -7.1,1.5 -10.8,1 -8.1,-1 -9.2,10.2 -3.8,14 5.3,3.7 12.5,4.8 18.6,6.8 7.5,2.4 15.6,1.3 22.9,-1.3 6.4,-2.3 12.2,-7 17.9,-10.6 6.7,-4.2 13.2,-8.8 20.1,-12.9 9.4,-5.7 29,-12.7 21,-26.9 -3.1,-5.4 -9.7,-7.4 -15.1,-4.3 -5.4,3.1 -5.3,10.1 -4.1,15.4 1.1,4.6 3.8,9.5 7.7,12.3 5.2,3.8 13.1,0.8 18.5,-1.4 12.2,-5.1 5.4,-17.3 0,-24.9 -5.3,-7.4 -9.6,-20.3 -21.3,-13.8 -5.5,3.1 -9.1,9.1 -7.9,15.4 0.7,3.7 7.2,-3.1 3.4,-4.3 -1,-0.3 -2,-0.9 -3,-1.4 C 91.8,16 88.3,14.8 84.7,14 c -8.4,-1.9 -15.9,2.2 -24,3.3 -3.7,0.5 -6.2,2.4 -9.2,4.5 -3.2,2.2 -7.7,1.8 -11.3,1.8 l 0,15 c 1.1,0 2.6,-0.5 3.7,-0.2 -1.5,-3.7 -3,-7.3 -4.5,-11 -1.3,2.8 0.4,-0.8 2.4,-0.5 -1.1,-0.2 -2.2,-0.6 -3.2,-1 -2.2,-0.9 -4.3,-2.1 -6.7,-2.6 -5.8,-1.1 -12.6,5.1 -8.5,11 1,1.4 2.5,2.7 3.1,4.2 0.4,1 0.8,2 1.1,3 0.7,2.1 -0.1,2.7 1.1,1 l 4.5,-3.4 c -0.2,0.1 -0.5,0.1 -0.7,0.2 l 4,0 c -2.6,-0.6 -5,-3.4 -7,-5.1 -2.4,4.2 -4.9,8.4 -7.3,12.5 0.4,0.1 0.2,0 -0.5,-0.4 -0.3,-1.3 -0.7,-2.5 -1,-3.8 l 0,0.4 c 1.8,-2.4 3.7,-4.8 5.5,-7.2 -0.7,0.3 -3.1,1.1 -2.4,1.2 -1.4,-0.3 -2.3,-1.7 -2.9,-2.7 -1.2,-1.9 -3.4,-6.8 -3.3,-8 -0.3,1.3 -0.7,2.5 -1,3.8 0.1,-0.2 0.2,-0.3 0.3,-0.5 L 12,32.4 c -2.6,1.1 0.8,1 2,1.3 2.1,0.5 3.7,1.5 5.6,2.5 1.8,1 3.6,1.8 5.5,2.5 2.4,0.9 2.4,1.6 0.9,-0.5 5.4,7.9 18.4,0.4 13,-7.6"
           id="path4601"
           inkscape:connector-curvature="0" />
        <path
           d="m 101.8,54 c 3.4,1.3 6.2,3.8 10.1,3.8 2.2,0 4.4,-0.3 6.5,-0.8 0.8,-0.2 1.7,-0.4 2.5,-0.4 -2.1,-1.1 -2.5,-1 -1.2,0.1 1.8,1.8 2.7,5.2 3.7,7.5 0.4,1 0.9,1.9 1.3,2.8 -1.6,-4.2 5.2,-5.8 0.3,-4.1 -3.3,1.1 -6.5,1.8 -9.7,3.2 -3.8,1.6 -7.4,3.8 -11,5.9 -3.5,2 -7,4.1 -10.7,5.5 -1.9,0.8 -4,1.2 -6,1.7 0.8,-0.1 0.6,-0.1 -0.5,0 -2.1,-0.2 -1.5,0.4 1.7,1.6 0.3,1.9 0.5,3.9 0.8,5.8 0.6,-2.6 4.5,-6.2 6.5,-8.5 3.5,-4 5.3,-8.4 7.6,-13.2 1.9,-3.9 4,-1 7.6,0.3 1.4,0.5 2.9,1 4.3,1.5 0.4,0.2 0.9,0.3 1.3,0.5 1.9,0.8 1.8,1.9 0.3,-0.6 -0.3,-1.3 -0.7,-2.5 -1,-3.8 0.2,-1.5 0.8,-2.7 1.8,-3.5 -0.8,0.5 -0.7,0.4 -1.6,0.7 -1.9,0.7 -3.8,1.1 -5.7,1.5 -5.3,1.2 -10.1,3.2 -15,5.4 3,3.9 6.1,7.9 9.1,11.8 1,-1.1 2,-2.3 3,-3.5 0.7,-0.8 1.4,-1.5 2.1,-2.3 1.3,-1 1.6,-1.3 0.8,-0.9 -1.9,-0.3 -3.9,-0.5 -5.8,-0.8 -2.5,-1.2 -2.3,-2.5 -0.6,0.1 0.8,1.3 1.8,2.3 2.9,3.3 2.3,2.1 5,3.2 7.8,4.4 4.6,1.9 9.9,1.3 12.8,5.9 1.4,2.3 2.5,4.8 3.8,7.2 0.7,1.2 1.4,2.4 1.9,3.7 0.1,0.5 0.3,1 0.4,1.5 0,2.2 1.1,1.7 3.4,-1.3 -1.6,0.1 -3.4,-0.6 -5,-0.8 -4.1,-0.6 -8.2,-0.3 -12.2,-0.8 1.8,4.3 3.5,8.5 5.3,12.8 1.3,-1.2 3.2,-1.9 4.6,-3 2.6,-2 4.7,-4.6 5.8,-7.7 2,-5.5 -0.4,-10.4 -3.9,-14.6 -6,-7.2 -22.1,-11.3 -24.8,1.4 -1.9,8.8 4.1,15 8.4,21.9 2.2,3.6 2.7,8.3 4.1,12.3 1.9,5 4.9,9.1 9.5,11.9 2.1,1.3 5.5,1.5 7.6,0 5.9,-4.4 8.3,-10.4 8.9,-17.6 0.7,-8.6 -8.4,-13.3 -15.3,-9.1 -4.6,2.8 -5.2,10.4 0,13 1.4,0.7 2.6,1.3 4.1,1.5 1.1,0.2 2.2,0.3 3.2,0.3 -2.6,-2.3 -3.3,-2.6 -2.1,-0.8 1.4,2.6 1.4,7.4 1.7,10.3 0.2,1.9 0.4,3.8 0.6,5.6 0.2,0.8 0.3,1.7 0.3,2.5 3.6,-2.3 4.1,-3.3 1.6,-3 -4,0 -7.7,0 -11.7,0.6 -5.6,0.9 -14,2.5 -15.7,8.8 -2.5,8.9 6.4,11.4 12.6,13.9 -1.1,-4.2 -2.2,-8.4 -3.3,-12.5 -2.4,2.4 -4.4,5.1 -6.4,7.8 -0.8,1.2 -1.8,2.3 -2.8,3.3 l 1.5,-0.3 c -0.7,-0.3 -1.5,-0.6 -2.3,-0.8 -9.3,-3 -12.9,11.1 -4,14.5 4.1,1.5 10.4,4.2 14.7,-0.6 4.8,-5.3 0.6,-11.6 -0.7,-17.3 -2.1,-8.9 13.6,-11.6 19,-13.5 6.4,-2.2 7.1,-9.9 1.8,-13.7 -3.4,-2.4 -8,-2.2 -12,-2.1 -1.8,0 -11,-0.6 -11.5,-1.7 -2.5,-6 -2.3,-13 -2.9,-19.3 -0.5,-5.5 -0.9,-13.2 -4.1,-17.9 -3.9,-5.9 -14.3,-4.1 -14,3.8 0.2,6.4 4,12.9 6.8,18.6 1.5,3 3.5,5.7 5.6,8.4 1,1.3 4.6,4.7 4.5,6.1 0.3,-1.3 0.7,-2.5 1,-3.8 1,-0.7 0.9,-0.7 -0.4,0.1 l -2.1,1.2 c -2.1,1.2 -4.1,2.9 -6,4.5 -4.4,3.7 -6.2,8.4 -6.9,13.9 -0.6,5 -0.6,10.6 0.4,15.5 0.6,2.8 -0.8,6.5 -3,8.8 -6.7,7 3.9,17.6 10.6,10.6 4.8,-5 8.8,-13.4 7.5,-20.4 -0.8,-4.3 -0.8,-8.4 -0.7,-12.8 0.1,-4 3.4,-5.9 6.6,-7.8 3.3,-1.9 6.5,-3.9 7.6,-7.8 1.2,-4.4 -1,-8.6 -3.5,-12.1 -2.5,-3.6 -5.4,-6.6 -7.6,-10.4 -1.9,-3.2 -5.5,-8.7 -5.6,-12.5 -4.7,1.3 -9.3,2.5 -14,3.8 1.3,2 1.1,5 1.5,7.3 0.6,3.3 0.8,6.6 1,10 0.5,6.6 1.2,14.5 4.8,20.3 3.2,5.2 9.5,6.8 15.1,7.7 2.9,0.5 6,0.9 9,0.9 1.2,0 4.4,0 4.4,0.1 0.6,-4.6 1.2,-9.1 1.8,-13.7 -9.4,3.2 -20.2,5.7 -26.2,14.3 -3.2,4.6 -4.4,10.4 -3.5,16 0.4,2.7 1.2,5.1 2.2,7.6 1.8,4.2 10.3,-3.6 6,-5 -1.2,-0.4 -2.3,-1 -3.5,-1.4 -1.3,4.8 -2.7,9.6 -4,14.5 5.3,1.7 9.7,2 14.2,-1.8 4.1,-3.5 6.4,-8.4 10.3,-12.1 4.5,-4.3 1.7,-10.5 -3.3,-12.5 -0.6,-0.3 -1.2,-0.5 -1.9,-0.7 l -1.2,-0.3 c -1.7,-0.6 -1.6,-0.5 0.2,0.5 0.3,1.3 0.7,2.5 1,3.8 l 0,-0.7 c -0.3,1.3 -0.7,2.5 -1,3.8 -0.9,1.4 -3,2 -0.9,1.6 0.8,-0.2 1.5,-0.3 2.3,-0.5 3.4,-0.9 6.3,-1.6 9.9,-1.4 7.5,0.3 14.6,-1.9 15.7,-10.5 0.4,-3.1 -0.4,-6.3 -0.7,-9.5 -0.4,-4.1 -1.1,-8.1 -1.8,-12.1 -0.5,-2.9 -1.9,-7.3 -4.4,-9.2 -1.3,-1.1 -2.4,-2.1 -4.1,-2.6 -0.9,-0.3 -4.5,-0.5 -4.1,-0.4 l 0,13 c 0.4,-0.2 0.8,-0.5 1.2,-0.7 -1.3,0.3 -2.5,0.7 -3.8,1 0.3,0 0.7,-0.1 1,-0.1 -1.3,-0.3 -2.5,-0.7 -3.8,-1 -2.9,-1.4 -1.4,-4.8 -2.2,-1.3 -0.2,0.7 -0.8,2.6 -1.2,2.9 l 7.6,0 c -3.6,-2.2 -4.1,-7.7 -5.2,-11.5 -1.4,-4.8 -3.8,-8.5 -6.6,-12.5 -1.1,-1.5 -2.3,-3.1 -3,-4.8 -0.6,-1.4 -0.1,-0.9 -0.8,0.7 -1.4,3.3 -5.4,0.1 -2.1,2.1 0.9,0.5 1.6,1.4 2.3,2.2 0.9,0.9 -0.4,0.3 0.2,-0.7 -1,1.7 -5.2,3.3 -6.7,4.7 -5.2,5 -0.8,12.1 5.3,12.8 4.4,0.5 8.7,0.4 13.1,1.1 4.7,0.8 9.1,0.4 12.7,-3.1 8.3,-8.2 -0.7,-22.3 -5.1,-30.1 -2.3,-4 -5.7,-7.4 -9.9,-9.2 -4.4,-1.9 -9.4,-2.1 -13.6,-4.5 -1.3,-0.7 -1.9,-2.9 -2.9,-3.9 -2,-2 -5.1,-2.9 -7.8,-2.2 -5.4,1.5 -8.9,6.5 -12.5,10.5 -5.9,6.7 1.4,15.2 9.1,11.8 4.1,-1.8 8,-3.2 12.3,-4.1 3.7,-0.8 7.5,-1.9 10.7,-4 4.1,-2.7 6.7,-8.2 3.9,-12.8 C 128,55 123,53.5 118.8,52 c -4,-1.4 -8.1,-4.2 -12.4,-4.2 -6.7,0 -12.2,3.9 -15.5,9.6 -1.2,2.2 -2,4.6 -3.1,6.9 -1.3,2.6 -3.4,4.6 -5.3,6.8 -3.3,3.7 -8.8,10.1 -7.3,15.5 3.5,12.7 20.8,6.4 28.6,2.8 5.2,-2.4 10,-5.6 15,-8.3 4.8,-2.6 10,-3.3 14.9,-5.6 10.9,-5.1 3.9,-17.5 -0.3,-25.1 -2.5,-4.5 -6.3,-8.1 -11.6,-8.7 -2.9,-0.4 -5.6,0.7 -8.4,1 -2.2,0.3 -5.6,-2.4 -7.7,-3.2 -3.8,-1.5 -8.2,1.6 -9.2,5.2 -1.1,4.4 1.5,7.9 5.3,9.3"
           id="path4603"
           inkscape:connector-curvature="0" />
        <path
           d="M 75.5,81.3 C 70,82.2 64.8,87.8 60.4,91 c -5.8,4.2 -10.5,9.3 -14.5,15.2 -4,5.7 -6.7,12.1 -9.3,18.6 -2.9,7.1 -5.6,14.1 -6.5,21.7 -0.4,3.2 0.1,6.6 -0.8,9.6 -0.8,2.8 -1.1,5.9 0.4,8.5 4.5,7.7 12.3,3.2 18.7,2.8 14.7,-0.8 29.5,3.9 44.1,1.4 15.9,-2.8 15.5,-21.3 17.5,-33.6 2.2,-13.6 7.3,-30.1 0.8,-43.3 C 102.9,75.8 85,89 75,95.1 63.2,102.3 52.6,113.3 46.8,126 c -3.9,8.5 -10.7,19.8 -3.1,28.1 5.5,6 14.3,7.2 21.9,8.2 9.6,1.2 22.8,3 31.2,-2.7 8.9,-6.1 13.7,-18.6 15.2,-28.8 1.4,-9.9 1.5,-21.6 -2,-31.1 -1.9,-5.3 -5.3,-8.9 -10.5,-11 -5.8,-2.3 -12.1,2.3 -16.5,5.4 -9.7,6.8 -14,19 -21.7,27.7 -4.3,4.8 -9,9.3 -13.6,13.8 -3.9,3.8 -7,8.4 -10.3,12.2 -5,5.9 -0.2,13.9 7.3,12.5 7.3,-1.3 13.6,-5 20.5,-7.6 7.4,-2.8 14.1,-1.1 21.6,-0.1 14.9,2 17.5,-14.9 18.5,-25.8 0.7,-7.2 1.7,-16.1 -0.7,-23 -2.5,-7.5 -10.8,-8.1 -16.3,-3.4 -4.4,3.8 -7.5,9.2 -10.5,14.1 -2.1,3.4 -4.2,6.8 -6.8,9.8 -2.1,2.5 -6.2,4 -8.8,6.1 -3.9,3.1 -2.3,9.5 1.5,11.8 3.6,2.2 8,1.8 12.1,2 5.3,0.3 10.3,-0.5 14.8,-3.3 7.4,-4.5 6.9,-16.7 3.3,-23.6 -4.4,-8.6 -17.4,-1 -13,7.6 -0.6,-1.2 0,1.8 0,2 0,0.8 0.1,1.6 0.2,2.4 0,1.8 0.2,1.6 0.6,-0.6 -1.7,1 -4.3,0.6 -6.1,0.5 -0.7,0 -5.3,-0.5 -4.5,0 0.5,3.9 1,7.9 1.5,11.8 2.8,-2.3 6.1,-3.5 8.8,-6 2.9,-2.8 5.1,-6.6 7.3,-9.9 2.2,-3.4 4.3,-6.9 6.6,-10.2 0.6,-0.9 3.1,-3.1 2.3,-2.9 l -4,0 c -1.1,-1 -2.2,-2.1 -3.3,-3.1 0.1,1 0.2,2 0.2,3.1 0.1,1.9 0.1,3.7 0.1,5.6 0,4.3 -0.4,8.7 -0.9,13 -0.2,1.9 -0.7,4.1 -1.3,6.2 -0.3,1 -0.5,1.2 -1.1,2.1 0.4,-0.6 1,-0.9 1.7,-0.8 -1,-0.2 -2,-0.5 -2.9,-0.7 -7.7,-1.9 -15.7,-1.4 -23.4,0.5 -7.7,1.9 -14.2,6.6 -22.2,8.1 2.4,4.2 4.9,8.4 7.3,12.5 1.8,-2.1 3.8,-3.6 5.2,-6.2 1.5,-2.8 4,-5 6.2,-7.2 5.5,-5.5 11.1,-10.9 16.1,-16.9 4.3,-5.1 7.5,-11.1 11.3,-16.6 1.7,-2.5 3.8,-4.6 6.3,-6.3 1.1,-0.8 2.3,-1.7 3.6,-2.1 -2.1,0.8 -1.7,-1 -0.7,1.7 1.8,5 1.8,10.7 1.8,15.9 0,6.7 -1,13.4 -4.3,19.3 -1.2,2.1 -2.4,4.3 -4,6.1 -1.7,2 -3.7,1.9 -6.1,2 -5.6,0.3 -13.4,-0.2 -17.6,-0.8 -3.5,-0.5 -7.4,-1.1 -10.4,-2.8 -1.3,-0.7 -0.3,-0.4 -0.4,0.6 0.6,-3.4 2.9,-6.8 4.2,-10 5.1,-13.2 15.6,-22.6 27.4,-29.6 3.1,-1.8 6.3,-3.7 9.5,-5.4 0.5,-0.3 1.1,-0.6 1.6,-0.8 1.6,-0.4 1.5,-0.8 -0.4,-1 0.6,0.8 0.7,2.2 0.9,3.1 1.7,7.3 -0.2,14.9 -1.4,22.1 -1.3,7.6 -2.5,15.3 -3.7,22.9 -0.3,1.8 -0.2,4.9 -1.5,6.3 -2.1,2.3 -6.1,1.7 -8.8,1.6 -7.8,-0.4 -15.5,-1.1 -23.3,-1.7 -3.7,-0.3 -7.5,-0.3 -11.2,-0.2 -1.8,0 -3.5,0.3 -5.2,0.6 -1,0.3 -1.9,0.5 -2.9,0.9 -3.2,0.5 -2.2,1.8 2.9,4.1 l 0,4 c 0.5,-2.9 1.3,-5.6 1.5,-8.6 0.2,-3.5 0.3,-6.6 1.1,-10 1.7,-7.2 4.9,-14.3 8,-21 2.7,-5.7 6.2,-10.9 10.6,-15.4 2.4,-2.5 5.3,-4.4 8.1,-6.3 1.9,-1.3 4.7,-4.6 6.9,-4.9 9.9,-1.7 5.8,-16.2 -3.6,-14.6"
           id="path4605"
           inkscape:connector-curvature="0" />
        <path
           d="m 30.3,176.5 0,-7.8 92.6,0 0,7.8"
           id="path4607"
           inkscape:connector-curvature="0"
           style="fill:#ffffff" />
        <path
           stroke-miterlimit="10"
           d="m 30.3,176.5 0,-7.8 92.6,0 0,7.8"
           id="path4609"
           inkscape:connector-curvature="0"
           style="fill:none;stroke:#000000;stroke-width:6;stroke-miterlimit:10" />
        <path
           d="m 44,182.5 c -0.1,-0.3 -0.1,-0.6 -0.2,-0.9 -0.6,2.4 -1.3,4.9 -1.9,7.3 l 0.6,-0.6 -10.7,0 c 4.5,5 10.8,4.5 16.9,3.7 7.4,-1 15.3,-1.1 22.7,-0.4 7.9,0.7 15.6,-0.3 23.4,-0.1 4.1,0.1 8,0.5 12.1,0.3 2.9,-0.1 6.2,-1.5 8.9,-0.5 9.1,3.3 13,-11.2 4,-14.5 -5.7,-2 -12.2,0.1 -18.1,0.1 -3.5,0 -7,-0.4 -10.5,-0.4 -4.2,0 -8.4,0.6 -12.6,0.6 -7.5,0.1 -14.6,-1.2 -22.1,-0.6 -3.2,0.2 -6.4,0.2 -9.6,0.7 -0.9,0.1 -1.9,0.3 -2.8,0.4 -0.8,0.1 -1.6,0.1 -2.4,0.1 -0.4,-0.2 -0.3,-0.1 0.5,0.1 -2.7,-3 -7.9,-2.9 -10.6,0 -2.5,2.6 -3.2,5.2 -2.3,8.8 2.5,9.3 17,5.3 14.7,-4.1"
           id="path4611"
           inkscape:connector-curvature="0" />
        <path
           stroke-miterlimit="10"
           d="m 76.6,176.5 -46.3,0 0,15.8 92.6,0 0,-15.8 -46.3,0"
           id="path4613"
           inkscape:connector-curvature="0"
           style="fill:none;stroke:#000000;stroke-width:6;stroke-miterlimit:10" />
        <path
           stroke-miterlimit="10"
           d="M 81.6,84.3 C 27.9,92.8 30.3,168.6 30.3,168.6"
           id="path4615"
           inkscape:connector-curvature="0"
           style="fill:none;stroke:#000000;stroke-width:6;stroke-miterlimit:10" />
        <path
           stroke-miterlimit="10"
           d="M 113.3,48.8 C 126.8,46.2 130.4,36.6 130.4,36.6 122.6,15.1 107.3,4 107.3,4 c 0,0 -11,10.2 -11.2,15.1 0,0 -14.3,-9.4 -32.6,-1.4 0,0 -20,10.4 -36.9,4.3 0,0 -21.2,-8.5 -22.6,-2.7 0,0 -3.3,10.5 2.5,20.5 0,0 5.8,9.3 8.4,9.3 0,0 21.6,2.5 18.5,3.5 0,0 -1.4,4.6 -16.2,3.8 0,0 -5.3,-0.1 -4.3,5 1.1,5.4 4.8,10.6 15.1,12.5 0,0 9.7,2.9 26,0.5 16.3,-2.4 13,14.4 13,14.4"
           id="path4617"
           inkscape:connector-curvature="0"
           style="fill:none;stroke:#000000;stroke-width:6;stroke-miterlimit:10" />
        <path
           stroke-miterlimit="10"
           d="m 120.3,74.3 c 13.5,0.7 19.9,-6.3 19.9,-6.3 0,0 -3.4,-14.2 -14,-25.7"
           id="path4619"
           inkscape:connector-curvature="0"
           style="fill:none;stroke:#000000;stroke-width:6;stroke-miterlimit:10" />
        <path
           d="m 79.9,34.8 c 0,2 -1.6,3.6 -3.5,3.6 -1.9,0 -3.5,-1.6 -3.5,-3.6 0,-2 1.6,-3.6 3.5,-3.6 2,0.1 3.5,1.7 3.5,3.6"
           id="path4621"
           inkscape:connector-curvature="0"
           style="fill:#ffffff" />
        <ellipse
           stroke-miterlimit="10"
           cx="76.400002"
           cy="34.799999"
           rx="3.5"
           ry="3.5999999"
           id="ellipse4623"
           style="fill:none;stroke:#ffffff;stroke-width:4;stroke-miterlimit:10" />
        <path
           stroke-miterlimit="10"
           d="m 76.1,31.3 c 0,0 -3.8,-0.1 -7.6,3.7"
           id="path4625"
           inkscape:connector-curvature="0"
           style="fill:none;stroke:#ffffff;stroke-width:4;stroke-miterlimit:10" />
        <path
           stroke-miterlimit="10"
           d="m 136.6,71.2 c 11.6,15.7 13.2,32.9 13.2,32.9 0,0 -9.7,6.7 -27,2.9"
           id="path4627"
           inkscape:connector-curvature="0"
           style="fill:none;stroke:#000000;stroke-width:6;stroke-miterlimit:10" />
        <path
           stroke-miterlimit="10"
           d="m 122.6,143.2 c 17.1,7.3 28.7,1.7 28.7,1.7 0,0 2.4,-19.4 -5.7,-38.8"
           id="path4629"
           inkscape:connector-curvature="0"
           style="fill:none;stroke:#000000;stroke-width:6;stroke-miterlimit:10" />
        <path
           stroke-miterlimit="10"
           d="m 122.9,168.7 c 0,0 2.2,-19.6 22,-22.1"
           id="path4631"
           inkscape:connector-curvature="0"
           style="fill:none;stroke:#000000;stroke-width:6;stroke-miterlimit:10" />
        <path
           d="m 103.6,115.2 c -1.1,0.8 -0.8,0.7 0.7,-0.4 1.3,-0.9 2.8,-1.6 4.2,-2.3 3,-1.5 6.2,-2.5 9.3,-3.8 5.3,-2.3 11,-5.9 16.8,-6 7.4,-0.1 10.4,-10.2 3.8,-14 -6.1,-3.5 -12.8,-4.8 -19.4,-6.9 -7.5,-2.3 -13.8,-6.2 -20.6,-10 -8.4,-4.8 -16,8.1 -7.6,13 6.8,3.9 13.4,7.9 20.8,10.5 6.3,2.2 13.3,3.1 19.1,6.5 1.3,-4.7 2.5,-9.3 3.8,-14 -8.5,0.2 -15.1,4.1 -22.8,7.3 -6.6,2.8 -17.8,5.4 -21.2,12.5 -3.9,8.7 9,16.3 13.1,7.6"
           id="path4633"
           inkscape:connector-curvature="0" />
      </g>
    </g>
  </switch>
</svg>
