<?xml version="1.0" encoding="UTF-8" standalone="no"?>
<svg
   xmlns:dc="http://purl.org/dc/elements/1.1/"
   xmlns:cc="http://creativecommons.org/ns#"
   xmlns:rdf="http://www.w3.org/1999/02/22-rdf-syntax-ns#"
   xmlns:svg="http://www.w3.org/2000/svg"
   xmlns="http://www.w3.org/2000/svg"
   xmlns:sodipodi="http://sodipodi.sourceforge.net/DTD/sodipodi-0.dtd"
   xmlns:inkscape="http://www.inkscape.org/namespaces/inkscape"
   width="1"
   height="1"
   viewBox="-57.10 -10 220 220"
   enable-background="new 0 0 105.8 195.4"
   id="svg4553"
   version="1.1"
   inkscape:version="0.91 r13725"
   sodipodi:docname="bP.svg">
  <metadata
     id="metadata4589">
    <rdf:RDF>
      <cc:Work
         rdf:about="">
        <dc:format>image/svg+xml</dc:format>
        <dc:type
           rdf:resource="http://purl.org/dc/dcmitype/StillImage" />
        <dc:title></dc:title>
      </cc:Work>
    </rdf:RDF>
  </metadata>
  <defs
     id="defs4587" />
  <sodipodi:namedview
     pagecolor="#ffffff"
     bordercolor="#666666"
     borderopacity="1"
     objecttolerance="10"
     gridtolerance="10"
     guidetolerance="10"
     inkscape:pageopacity="0"
     inkscape:pageshadow="2"
     inkscape:window-width="1920"
     inkscape:window-height="1039"
     id="namedview4585"
     showgrid="false"
     inkscape:zoom="236"
     inkscape:cx="0.5"
     inkscape:cy="0.5"
     inkscape:window-x="0"
     inkscape:window-y="20"
     inkscape:window-maximized="0"
     inkscape:current-layer="svg4553" />
  <switch
     id="switch4555"
     transform="matrix(1,0,0,-1,0,195.1)">
    <g
       id="g4557">
      <g
         id="g4559">
        <path
           d="m 52.8,176.3 -46.3,0 0,15.7 92.6,0 0,-15.7 -92.6,0 0,-7.9 C 35.9,131.7 33.7,106.3 28.5,92.9 25.7,85.6 22,81.9 22,81.9 l 61.4,0 c 0,0 -29.7,29.9 15.6,86.5 l 0,7.9"
           id="path4561"
           inkscape:connector-curvature="0" />
        <path
           stroke-miterlimit="10"
           d="m 52.8,176.3 -46.3,0 0,15.7 92.6,0 0,-15.7 -92.6,0 0,-7.9 C 35.9,131.7 33.7,106.3 28.5,92.9 25.7,85.6 22,81.9 22,81.9 l 61.4,0 c 0,0 -29.7,29.9 15.6,86.5 l 0,7.9"
           id="path4563"
           inkscape:connector-curvature="0"
           style="fill:none;stroke:#000000;stroke-width:6;stroke-miterlimit:10" />
        <path
           d="m 83.5,34.5 c 0,17.3 -13.8,31.4 -30.8,31.4 -17,0 -30.8,-14 -30.8,-31.4 C 22,17.2 35.7,3.2 52.7,3.2 c 17,0 30.8,14 30.8,31.3"
           id="path4565"
           inkscape:connector-curvature="0" />
        <ellipse
           stroke-miterlimit="10"
           cx="52.700001"
           cy="34.5"
           rx="30.799999"
           ry="31.4"
           id="ellipse4567"
           style="fill:none;stroke:#000000;stroke-width:6;stroke-miterlimit:10" />
        <path
           d="m 52.8,65.9 c 0,0 33,0.1 46.2,16 l -92.4,0 C 19.8,66 52.8,65.9 52.8,65.9"
           id="path4569"
           inkscape:connector-curvature="0" />
        <path
           stroke-miterlimit="10"
           d="m 52.8,65.9 c 0,0 33,0.1 46.2,16 l -92.4,0 C 19.8,66 52.8,65.9 52.8,65.9"
           id="path4571"
           inkscape:connector-curvature="0"
           style="fill:none;stroke:#000000;stroke-width:6;stroke-miterlimit:10" />
        <path
           d="m 30.1,97.7 45.4,0"
           id="path4573"
           inkscape:connector-curvature="0"
           style="fill:#ffffff" />
        <path
           stroke-miterlimit="10"
           d="m 30.1,97.7 45.4,0"
           id="path4575"
           inkscape:connector-curvature="0"
           style="fill:none;stroke:#ffffff;stroke-width:4;stroke-miterlimit:10" />
        <path
           d="m 6.5,168.4 92.6,0"
           id="path4577"
           inkscape:connector-curvature="0"
           style="fill:#ffffff" />
        <path
           stroke-miterlimit="10"
           d="m 6.5,168.4 92.6,0"
           id="path4579"
           inkscape:connector-curvature="0"
           style="fill:none;stroke:#000000;stroke-width:6;stroke-miterlimit:10" />
        <path
           d="m 9.1,172.3 87.4,0"
           id="path4581"
           inkscape:connector-curvature="0"
           style="fill:#ffffff" />
        <path
           stroke-miterlimit="10"
           d="m 9.1,172.3 87.4,0"
           id="path4583"
           inkscape:connector-curvature="0"
           style="fill:none;stroke:#ffffff;stroke-width:2;stroke-miterlimit:10" />
      </g>
    </g>
  </switch>
</svg>
