<?xml version="1.0" encoding="UTF-8" standalone="no"?>
<svg
   xmlns:dc="http://purl.org/dc/elements/1.1/"
   xmlns:cc="http://creativecommons.org/ns#"
   xmlns:rdf="http://www.w3.org/1999/02/22-rdf-syntax-ns#"
   xmlns:svg="http://www.w3.org/2000/svg"
   xmlns="http://www.w3.org/2000/svg"
   xmlns:sodipodi="http://sodipodi.sourceforge.net/DTD/sodipodi-0.dtd"
   xmlns:inkscape="http://www.inkscape.org/namespaces/inkscape"
   width="1"
   height="1"
   viewBox="-63.35 -10 220 220"
   enable-background="new 0 0 99.3 195.4"
   id="svg4475"
   version="1.1"
   inkscape:version="0.91 r13725"
   sodipodi:docname="bR.svg">
  <metadata
     id="metadata4503">
    <rdf:RDF>
      <cc:Work
         rdf:about="">
        <dc:format>image/svg+xml</dc:format>
        <dc:type
           rdf:resource="http://purl.org/dc/dcmitype/StillImage" />
        <dc:title></dc:title>
      </cc:Work>
    </rdf:RDF>
  </metadata>
  <defs
     id="defs4501" />
  <sodipodi:namedview
     pagecolor="#ffffff"
     bordercolor="#666666"
     borderopacity="1"
     objecttolerance="10"
     gridtolerance="10"
     guidetolerance="10"
     inkscape:pageopacity="0"
     inkscape:pageshadow="2"
     inkscape:window-width="1920"
     inkscape:window-height="1039"
     id="namedview4499"
     showgrid="false"
     inkscape:zoom="236"
     inkscape:cx="0.5"
     inkscape:cy="0.5"
     inkscape:window-x="0"
     inkscape:window-y="20"
     inkscape:window-maximized="0"
     inkscape:current-layer="svg4475" />
  <switch
     id="switch4477"
     transform="matrix(1,0,0,-1,0,195.4)">
    <g
       id="g4479">
      <g
         id="g4481">
        <path
           d="M 96,168.5 C 95.8,109.7 80.8,66.6 80.8,66.6 L 96,58.4 96,3.3 l -23.2,0 0,15.7 -11.5,0 0,-15.7 -23.2,0 0,15.7 -11.5,0 0,-15.7 -23.2,0 0,55.1 15.2,8.3 c 0,0 -15.1,43 -15.2,101.9"
           id="path4483"
           inkscape:connector-curvature="0" />
        <path
           stroke-miterlimit="10"
           d="M 96,168.5 C 95.8,109.7 80.8,66.6 80.8,66.6 L 96,58.4 96,3.3 l -23.2,0 0,15.7 -11.5,0 0,-15.7 -23.2,0 0,15.7 -11.5,0 0,-15.7 -23.2,0 0,55.1 15.2,8.3 c 0,0 -15.1,43 -15.2,101.9"
           id="path4485"
           inkscape:connector-curvature="0"
           style="fill:none;stroke:#000000;stroke-width:6;stroke-miterlimit:10" />
        <path
           d="m 3.4,176.4 0,-7.9 92.6,0 0,7.9"
           id="path4487"
           inkscape:connector-curvature="0"
           style="fill:#ffffff" />
        <path
           stroke-miterlimit="10"
           d="m 3.4,176.4 0,-7.9 92.6,0 0,7.9"
           id="path4489"
           inkscape:connector-curvature="0"
           style="fill:none;stroke:#000000;stroke-width:6;stroke-miterlimit:10" />
        <path
           d="m 49.7,176.4 -46.3,0 0,15.7 92.6,0 0,-15.7 -46.3,0"
           id="path4491"
           inkscape:connector-curvature="0" />
        <path
           stroke-miterlimit="10"
           d="m 49.7,176.4 -46.3,0 0,15.7 92.6,0 0,-15.7 -46.3,0"
           id="path4493"
           inkscape:connector-curvature="0"
           style="fill:none;stroke:#000000;stroke-width:6;stroke-miterlimit:10" />
        <path
           stroke-miterlimit="10"
           d="m 18.6,66.6 62.2,0"
           id="path4495"
           inkscape:connector-curvature="0"
           style="fill:none;stroke:#ffffff;stroke-width:4;stroke-miterlimit:10" />
        <path
           stroke-miterlimit="10"
           d="m 3.4,57.5 92.6,0"
           id="path4497"
           inkscape:connector-curvature="0"
           style="fill:none;stroke:#ffffff;stroke-width:4;stroke-miterlimit:10" />
      </g>
    </g>
  </switch>
</svg>
