<?xml version="1.0" encoding="UTF-8" standalone="no"?>
<svg
   xmlns:dc="http://purl.org/dc/elements/1.1/"
   xmlns:cc="http://creativecommons.org/ns#"
   xmlns:rdf="http://www.w3.org/1999/02/22-rdf-syntax-ns#"
   xmlns:svg="http://www.w3.org/2000/svg"
   xmlns="http://www.w3.org/2000/svg"
   xmlns:sodipodi="http://sodipodi.sourceforge.net/DTD/sodipodi-0.dtd"
   xmlns:inkscape="http://www.inkscape.org/namespaces/inkscape"
   width="1"
   height="1"
   viewBox="-47.85 -10 220 220"
   enable-background="new 0 0 124.3 196.1"
   id="svg4445"
   version="1.1"
   inkscape:version="0.91 r13725"
   sodipodi:docname="wB.svg">
  <metadata
     id="metadata4473">
    <rdf:RDF>
      <cc:Work
         rdf:about="">
        <dc:format>image/svg+xml</dc:format>
        <dc:type
           rdf:resource="http://purl.org/dc/dcmitype/StillImage" />
        <dc:title></dc:title>
      </cc:Work>
    </rdf:RDF>
  </metadata>
  <defs
     id="defs4471" />
  <sodipodi:namedview
     pagecolor="#ffffff"
     bordercolor="#666666"
     borderopacity="1"
     objecttolerance="10"
     gridtolerance="10"
     guidetolerance="10"
     inkscape:pageopacity="0"
     inkscape:pageshadow="2"
     inkscape:window-width="1920"
     inkscape:window-height="1039"
     id="namedview4469"
     showgrid="false"
     inkscape:zoom="236"
     inkscape:cx="0.5"
     inkscape:cy="0.5"
     inkscape:window-x="0"
     inkscape:window-y="20"
     inkscape:window-maximized="0"
     inkscape:current-layer="svg4445" />
  <switch
     id="switch4447"
     transform="matrix(1,0,0,-1,0,195.8)">
    <g
       id="g4449">
      <g
         id="g4451">
        <path
           d="M 30.8,168.8 C 17,159.5 7.1,143 4.5,126.4 1.6,108.6 7,90.7 15.3,75.1 19.9,66.6 25.4,58.6 31.4,51.1 l 22.7,31 16,-16.3 -23.7,-31.5 c 5,-5.2 10.3,-10.1 15.6,-15 109.6,98.2 31.3,149.5 31.3,149.5"
           id="path4453"
           inkscape:connector-curvature="0"
           style="fill:#ffffff" />
        <path
           stroke-miterlimit="10"
           d="M 30.8,168.8 C 17,159.5 7.1,143 4.5,126.4 1.6,108.6 7,90.7 15.3,75.1 19.9,66.6 25.4,58.6 31.4,51.1 l 22.7,31 16,-16.3 -23.7,-31.5 c 5,-5.2 10.3,-10.1 15.6,-15 109.6,98.2 31.3,149.5 31.3,149.5"
           id="path4455"
           inkscape:connector-curvature="0"
           style="fill:none;stroke:#000000;stroke-width:6;stroke-miterlimit:10" />
        <path
           d="m 69.9,11.4 c 0,4.4 -3.5,8 -7.9,8 -4.3,0 -7.9,-3.6 -7.9,-8 0,-4.4 3.5,-8 7.9,-8 4.3,-0.1 7.9,3.5 7.9,8"
           id="path4457"
           inkscape:connector-curvature="0"
           style="fill:#ffffff" />
        <ellipse
           stroke-miterlimit="10"
           cx="62"
           cy="11.4"
           rx="7.9000001"
           ry="8"
           id="ellipse4459"
           style="fill:none;stroke:#000000;stroke-width:6;stroke-miterlimit:10" />
        <path
           d="m 15.8,176.7 0,-7.9 92.5,0 0,7.9"
           id="path4461"
           inkscape:connector-curvature="0"
           style="fill:#ffffff" />
        <path
           stroke-miterlimit="10"
           d="m 15.8,176.7 0,-7.9 92.5,0 0,7.9"
           id="path4463"
           inkscape:connector-curvature="0"
           style="fill:none;stroke:#000000;stroke-width:6;stroke-miterlimit:10" />
        <path
           d="m 62.1,176.7 -46.3,0 0,15.7 92.5,0 0,-15.7 -46.2,0"
           id="path4465"
           inkscape:connector-curvature="0"
           style="fill:#ffffff" />
        <path
           stroke-miterlimit="10"
           d="m 62.1,176.7 -46.3,0 0,15.7 92.5,0 0,-15.7 -46.2,0"
           id="path4467"
           inkscape:connector-curvature="0"
           style="fill:none;stroke:#000000;stroke-width:6;stroke-miterlimit:10" />
      </g>
    </g>
  </switch>
</svg>
