<?xml version="1.0" encoding="UTF-8" standalone="no"?>
<svg
   xmlns:dc="http://purl.org/dc/elements/1.1/"
   xmlns:cc="http://creativecommons.org/ns#"
   xmlns:rdf="http://www.w3.org/1999/02/22-rdf-syntax-ns#"
   xmlns:svg="http://www.w3.org/2000/svg"
   xmlns="http://www.w3.org/2000/svg"
   xmlns:sodipodi="http://sodipodi.sourceforge.net/DTD/sodipodi-0.dtd"
   xmlns:inkscape="http://www.inkscape.org/namespaces/inkscape"
   width="1"
   height="1"
   viewBox="-14.15 -10 220 220"
   enable-background="new 0 0 191.7 195.5"
   id="svg4405"
   version="1.1"
   inkscape:version="0.91 r13725"
   sodipodi:docname="wK.svg">
  <metadata
     id="metadata4443">
    <rdf:RDF>
      <cc:Work
         rdf:about="">
        <dc:format>image/svg+xml</dc:format>
        <dc:type
           rdf:resource="http://purl.org/dc/dcmitype/StillImage" />
        <dc:title></dc:title>
      </cc:Work>
    </rdf:RDF>
  </metadata>
  <defs
     id="defs4441" />
  <sodipodi:namedview
     pagecolor="#ffffff"
     bordercolor="#666666"
     borderopacity="1"
     objecttolerance="10"
     gridtolerance="10"
     guidetolerance="10"
     inkscape:pageopacity="0"
     inkscape:pageshadow="2"
     inkscape:window-width="1920"
     inkscape:window-height="1039"
     id="namedview4439"
     showgrid="false"
     inkscape:zoom="236"
     inkscape:cx="0.5"
     inkscape:cy="0.5"
     inkscape:window-x="0"
     inkscape:window-y="20"
     inkscape:window-maximized="0"
     inkscape:current-layer="svg4405" />
  <switch
     id="switch4407"
     transform="matrix(1,0,0,-1,0,195.7)">
    <g
       id="g4409">
      <g
         id="g4411">
        <path
           d="m 95.9,176.6 -46.3,0 0,15.7 92.5,0 0,-15.7 -46.2,0"
           id="path4413"
           inkscape:connector-curvature="0"
           style="fill:#ffffff" />
        <path
           stroke-miterlimit="10"
           d="m 95.9,176.6 -46.3,0 0,15.7 92.5,0 0,-15.7 -46.2,0"
           id="path4415"
           inkscape:connector-curvature="0"
           style="fill:none;stroke:#000000;stroke-width:6;stroke-miterlimit:10" />
        <path
           d="m 49.6,168.7 0,7.9 92.5,0 0,-7.9"
           id="path4417"
           inkscape:connector-curvature="0"
           style="fill:#ffffff" />
        <path
           stroke-miterlimit="10"
           d="m 49.6,168.7 0,7.9 92.5,0 0,-7.9"
           id="path4419"
           inkscape:connector-curvature="0"
           style="fill:none;stroke:#000000;stroke-width:6;stroke-miterlimit:10" />
        <path
           d="m 103.5,68.7 0,-25.9 23.2,0 0,-15.8 -23.2,0 0.1,-23.6 -15.5,0 0,23.6 -23.1,0 0,15.7 23.1,0 0,26"
           id="path4421"
           inkscape:connector-curvature="0"
           style="fill:#ffffff" />
        <path
           stroke-miterlimit="10"
           d="m 103.5,68.7 0,-25.9 23.2,0 0,-15.8 -23.2,0 0.1,-23.6 -15.5,0 0,23.6 -23.1,0 0,15.7 23.1,0 0,26"
           id="path4423"
           inkscape:connector-curvature="0"
           style="fill:none;stroke:#000000;stroke-width:6;stroke-miterlimit:10" />
        <path
           d="M 187.1,75.9 C 180,47.2 152.6,44.2 152.6,44.2 114.1,38.8 96.3,81 95.8,82.1 95.4,81.1 77.5,38.8 39,44.2 c 0,0 -27.4,3 -34.5,31.7 0,0 -13.8,51.8 45,92.8 l 92.5,0 c 58.9,-40.9 45.1,-92.8 45.1,-92.8"
           id="path4425"
           inkscape:connector-curvature="0"
           style="fill:#ffffff" />
        <path
           stroke-miterlimit="10"
           d="M 187.1,75.9 C 180,47.2 152.6,44.2 152.6,44.2 114.1,38.8 96.3,81 95.8,82.1 95.4,81.1 77.5,38.8 39,44.2 c 0,0 -27.4,3 -34.5,31.7 0,0 -13.8,51.8 45,92.8 l 92.5,0 c 58.9,-40.9 45.1,-92.8 45.1,-92.8 z"
           id="path4427"
           inkscape:connector-curvature="0"
           style="fill:none;stroke:#000000;stroke-width:6;stroke-miterlimit:10" />
        <path
           stroke-miterlimit="10"
           d="m 147.3,67.4 c -25.1,-2.2 -43.6,50.9 -43.6,50.9 l 0,32.8 c 0,0 26.2,-0.6 46.6,-21.8 20.4,-21.3 22.1,-59.7 -3,-61.9 z"
           id="path4429"
           inkscape:connector-curvature="0"
           style="fill:none;stroke:#000000;stroke-width:6;stroke-miterlimit:10" />
        <path
           stroke-miterlimit="10"
           d="m 44.3,67.4 c -25.1,2.2 -23.4,40.6 -3,61.9 20.4,21.3 46.8,21.8 46.8,21.8 l 0,-32.8 c 0,0 -18.7,-53 -43.8,-50.9 z"
           id="path4431"
           inkscape:connector-curvature="0"
           style="fill:none;stroke:#000000;stroke-width:6;stroke-miterlimit:10" />
        <path
           stroke-miterlimit="10"
           d="m 95.8,19.1 0,39.4"
           id="path4433"
           inkscape:connector-curvature="0"
           style="fill:none;stroke:#000000;stroke-width:4;stroke-miterlimit:10" />
        <path
           stroke-miterlimit="10"
           d="m 80.4,34.9 30.9,0"
           id="path4435"
           inkscape:connector-curvature="0"
           style="fill:none;stroke:#000000;stroke-width:4;stroke-miterlimit:10" />
        <path
           stroke-miterlimit="10"
           d="m 88.1,68.7 15.4,0"
           id="path4437"
           inkscape:connector-curvature="0"
           style="fill:none;stroke:#000000;stroke-width:6;stroke-miterlimit:10" />
      </g>
    </g>
  </switch>
</svg>
