<?xml version="1.0" encoding="UTF-8" standalone="no"?>
<svg
   xmlns:dc="http://purl.org/dc/elements/1.1/"
   xmlns:cc="http://creativecommons.org/ns#"
   xmlns:rdf="http://www.w3.org/1999/02/22-rdf-syntax-ns#"
   xmlns:svg="http://www.w3.org/2000/svg"
   xmlns="http://www.w3.org/2000/svg"
   xmlns:sodipodi="http://sodipodi.sourceforge.net/DTD/sodipodi-0.dtd"
   xmlns:inkscape="http://www.inkscape.org/namespaces/inkscape"
   width="1"
   height="1"
   viewBox="-56.9 -10 220 220"
   enable-background="new 0 0 106.2 195.9"
   id="svg4321"
   version="1.1"
   inkscape:version="0.91 r13725"
   sodipodi:docname="wP.svg">
  <metadata
     id="metadata4353">
    <rdf:RDF>
      <cc:Work
         rdf:about="">
        <dc:format>image/svg+xml</dc:format>
        <dc:type
           rdf:resource="http://purl.org/dc/dcmitype/StillImage" />
        <dc:title></dc:title>
      </cc:Work>
    </rdf:RDF>
  </metadata>
  <defs
     id="defs4351" />
  <sodipodi:namedview
     pagecolor="#ffffff"
     bordercolor="#666666"
     borderopacity="1"
     objecttolerance="10"
     gridtolerance="10"
     guidetolerance="10"
     inkscape:pageopacity="0"
     inkscape:pageshadow="2"
     inkscape:window-width="1920"
     inkscape:window-height="1039"
     id="namedview4349"
     showgrid="false"
     inkscape:zoom="236"
     inkscape:cx="0.5"
     inkscape:cy="0.5"
     inkscape:window-x="0"
     inkscape:window-y="20"
     inkscape:window-maximized="0"
     inkscape:current-layer="svg4321" />
  <switch
     id="switch4323"
     transform="matrix(1,0,0,-1,0,195.7)">
    <g
       id="g4325">
      <g
         id="g4327">
        <path
           d="m 53,176.6 -46.3,0 0,15.7 92.6,0 0,-15.7 -92.6,0 0,-7.9 c 29.4,-36.7 27.2,-62.1 22,-75.5 -2.8,-7.3 -6.5,-11 -6.5,-11 l 61.4,0 c 0,0 -29.7,29.9 15.6,86.5 l 0,7.9"
           id="path4329"
           inkscape:connector-curvature="0"
           style="fill:#ffffff" />
        <path
           stroke-miterlimit="10"
           d="m 53,176.6 -46.3,0 0,15.7 92.6,0 0,-15.7 -92.6,0 0,-7.9 c 29.4,-36.7 27.2,-62.1 22,-75.5 -2.8,-7.3 -6.5,-11 -6.5,-11 l 61.4,0 c 0,0 -29.7,29.9 15.6,86.5 l 0,7.9"
           id="path4331"
           inkscape:connector-curvature="0"
           style="fill:none;stroke:#000000;stroke-width:6;stroke-miterlimit:10" />
        <path
           d="m 83.7,34.8 c 0,17.3 -13.8,31.4 -30.8,31.4 -17,0 -30.7,-14 -30.7,-31.4 0,-17.3 13.8,-31.4 30.7,-31.4 17,0.1 30.8,14.1 30.8,31.4"
           id="path4333"
           inkscape:connector-curvature="0"
           style="fill:#ffffff" />
        <ellipse
           stroke-miterlimit="10"
           cx="52.900002"
           cy="34.799999"
           rx="30.799999"
           ry="31.4"
           id="ellipse4335"
           style="fill:none;stroke:#000000;stroke-width:6;stroke-miterlimit:10" />
        <path
           d="m 53,66.2 c 0,0 33,0.1 46.2,16 l -92.4,0 C 20,66.3 53,66.2 53,66.2"
           id="path4337"
           inkscape:connector-curvature="0"
           style="fill:#ffffff" />
        <path
           stroke-miterlimit="10"
           d="m 53,66.2 c 0,0 33,0.1 46.2,16 l -92.4,0 C 20,66.3 53,66.2 53,66.2"
           id="path4339"
           inkscape:connector-curvature="0"
           style="fill:none;stroke:#000000;stroke-width:6;stroke-miterlimit:10" />
        <path
           d="m 30.3,98 45.4,0"
           id="path4341"
           inkscape:connector-curvature="0"
           style="fill:#ffffff" />
        <path
           stroke-miterlimit="10"
           d="m 30.3,98 45.4,0"
           id="path4343"
           inkscape:connector-curvature="0"
           style="fill:none;stroke:#000000;stroke-width:4;stroke-miterlimit:10" />
        <path
           d="m 6.7,168.7 92.6,0"
           id="path4345"
           inkscape:connector-curvature="0"
           style="fill:#ffffff" />
        <path
           stroke-miterlimit="10"
           d="m 6.7,168.7 92.6,0"
           id="path4347"
           inkscape:connector-curvature="0"
           style="fill:none;stroke:#000000;stroke-width:6;stroke-miterlimit:10" />
      </g>
    </g>
  </switch>
</svg>
