<svg xmlns="http://www.w3.org/2000/svg" xmlns:xlink="http://www.w3.org/1999/xlink" width="200" height="200"><defs><linearGradient xlink:href="#a" id="c" gradientUnits="userSpaceOnUse" x1="130.983" y1="444.835" x2="720.017" y2="623.168" gradientTransform="translate(602.286 .914) scale(.22857)"/><linearGradient id="a"><stop offset="0"/><stop offset="1" stop-color="#505070"/></linearGradient><linearGradient xlink:href="#b" id="d" x1="632.225" y1="174.586" x2="699.485" y2="174.586" gradientUnits="userSpaceOnUse"/><linearGradient id="b"><stop offset="0" stop-color="gray"/><stop offset="1" stop-color="gray"/></linearGradient><linearGradient xlink:href="#a" id="e" gradientUnits="userSpaceOnUse" x1="130.983" y1="444.835" x2="720.017" y2="623.168" gradientTransform="translate(598.171 .914) scale(.22857)"/><linearGradient xlink:href="#b" id="f" x1="699.297" y1="174.586" x2="766.556" y2="174.586" gradientUnits="userSpaceOnUse"/><linearGradient xlink:href="#a" id="g" gradientUnits="userSpaceOnUse" x1="130.983" y1="444.835" x2="720.017" y2="623.168" gradientTransform="translate(600 .914) scale(.22857)"/><linearGradient xlink:href="#b" id="h" x1="656.233" y1="150.817" x2="737.672" y2="150.817" gradientUnits="userSpaceOnUse"/><linearGradient xlink:href="#a" id="i" gradientUnits="userSpaceOnUse" x1="130.983" y1="444.835" x2="720.017" y2="623.168" gradientTransform="translate(600 .914) scale(.22857)"/><linearGradient xlink:href="#b" id="j" x1="644.227" y1="93.364" x2="754.015" y2="93.364" gradientUnits="userSpaceOnUse"/><linearGradient y2="209.835" x2="501.102" y1="156.502" x1="322.65" gradientTransform="translate(600 3.581) scale(.22857)" gradientUnits="userSpaceOnUse" id="k" xlink:href="#a"/><linearGradient y2="32.301" x2="717.966" y1="32.301" x1="681.691" gradientUnits="userSpaceOnUse" id="l" xlink:href="#b"/></defs><path fill="none" d="M0 0h200v200H0z"/><path d="M697.656 158.073c-1.223 2.447-63.603 33.025-63.603 33.025l51.545-6.524 12.058-26.5z" fill="url(#c)" fill-rule="evenodd" stroke="url(#d)" stroke-width="3.657" stroke-linecap="round" stroke-linejoin="round" transform="translate(-600)"/><path d="M701.125 158.073c1.223 2.447 63.603 33.025 63.603 33.025l-54.593-6.524-9.01-26.5z" fill="url(#e)" fill-rule="evenodd" stroke="url(#f)" stroke-width="3.657" stroke-linecap="round" stroke-linejoin="round" transform="translate(-600)"/><path d="M675.033 142.223c-1.375 2.75-16.971 19.317-16.971 19.317l77.782 5.353-19.825-32.153-40.986 7.483z" fill="url(#g)" fill-rule="evenodd" stroke="url(#h)" stroke-width="3.657" stroke-linecap="round" stroke-linejoin="round" transform="translate(-600)"/><path d="M698.72 35.633c-1.376 2.75-52.664 115.462-52.664 115.462l106.13-9.348L698.72 35.633zm10.322 35.745l8.105 17.76-41.81 41.41s32.33-56.419 33.705-59.17z" fill="url(#i)" fill-rule="evenodd" stroke="url(#j)" stroke-width="3.657" stroke-linecap="round" stroke-linejoin="round" transform="translate(-600)"/><path d="M699.18 16.75c-1.376 2.752-15.66 26.071-15.66 26.071l32.618 5.03-16.958-31.1z" fill="url(#k)" fill-rule="evenodd" stroke="url(#l)" stroke-width="3.657" stroke-linecap="round" stroke-linejoin="round" transform="translate(-600)"/></svg>