<svg xmlns="http://www.w3.org/2000/svg" xmlns:xlink="http://www.w3.org/1999/xlink" width="200" height="200"><defs><linearGradient xlink:href="#a" id="c" x1="375.068" y1="176.416" x2="535.576" y2="308.934" gradientUnits="userSpaceOnUse" gradientTransform="scale(.22857)"/><linearGradient id="a"><stop offset="0"/><stop offset="1" stop-color="#505070"/></linearGradient><linearGradient xlink:href="#b" id="d" x1="72.323" y1="53.731" x2="129.866" y2="53.731" gradientUnits="userSpaceOnUse"/><linearGradient id="b"><stop offset="0" stop-color="gray"/><stop offset="1" stop-color="gray"/></linearGradient><linearGradient xlink:href="#a" id="e" gradientUnits="userSpaceOnUse" x1="150.079" y1="255.254" x2="694.007" y2="740.063" gradientTransform="scale(.22857)"/><linearGradient xlink:href="#b" id="f" x1="19.407" y1="119.723" x2="182.465" y2="119.723" gradientUnits="userSpaceOnUse"/><linearGradient y2="778.811" x2="702.697" y1="776.638" x1="163.113" gradientTransform="scale(.22857)" gradientUnits="userSpaceOnUse" id="g" xlink:href="#a"/><linearGradient y2="180.952" x2="156.876" y1="180.952" x1="43.505" gradientUnits="userSpaceOnUse" id="h" xlink:href="#b"/></defs><path fill="none" d="M0 0h200v200H0z"/><path d="M92.116 25.145v13.628H74.15v15.55h17.965v27.993h14.342V54.323h21.579v-15.55h-21.579V25.145H92.116z" fill="url(#c)" fill-rule="evenodd" stroke="url(#d)" stroke-width="3.657" stroke-linecap="round" stroke-linejoin="round"/><path d="M116.769 105.41c45.654-24.418 31.024 22.102 8.367 36.483-14.598 9.265-22.23-25.695-14.486-51.95l-19.564.236c7.214 23.234 2.814 58.938-13.057 51.714-28.272-12.867-38.782-60.21 6.356-36.46C58.3 52.111 17.674 72.5 21.485 99.6c4.142 29.438 37.74 55.927 37.058 67.729h84.307c-1.35-13.674 36.551-41.793 37.764-68.529 1.165-26.159-43.982-46.419-63.846 6.61z" fill="url(#e)" fill-rule="evenodd" stroke="url(#f)" stroke-width="3.657" stroke-linecap="round" stroke-linejoin="round"/><path fill="url(#g)" fill-rule="evenodd" stroke="url(#h)" stroke-width="3.657" stroke-linecap="round" stroke-linejoin="round" d="M45.333 173.333h109.714v15.238H45.333z"/></svg>