<svg xmlns="http://www.w3.org/2000/svg" xmlns:xlink="http://www.w3.org/1999/xlink" width="200" height="200"><defs><linearGradient xlink:href="#a" id="c" x1="285.639" y1="287.12" x2="466.667" y2="587.12" gradientUnits="userSpaceOnUse" gradientTransform="translate(200) scale(.22857)"/><linearGradient id="a"><stop offset="0"/><stop offset="1" stop-color="#505070"/></linearGradient><linearGradient xlink:href="#b" id="d" x1="252.337" y1="96.104" x2="353.143" y2="96.104" gradientUnits="userSpaceOnUse"/><linearGradient id="b"><stop offset="0" stop-color="gray"/><stop offset="1" stop-color="gray"/></linearGradient><linearGradient xlink:href="#a" id="e" x1="166.781" y1="239.891" x2="718.885" y2="746.557" gradientUnits="userSpaceOnUse" gradientTransform="translate(200) scale(.22857)"/><linearGradient xlink:href="#b" id="f" x1="218.312" y1="95.213" x2="382.983" y2="95.213" gradientUnits="userSpaceOnUse"/><linearGradient y2="789.833" x2="661.667" y1="789.833" x1="199" gradientTransform="translate(200) scale(.22857)" gradientUnits="userSpaceOnUse" id="g" xlink:href="#a"/><linearGradient y2="180.533" x2="351.238" y1="180.533" x1="245.486" gradientUnits="userSpaceOnUse" id="h" xlink:href="#b"/></defs><path fill="none" d="M0 0h200v200H0z"/><path d="M351.314 34.264c-47.858 143.4-55.253 143.666-97.143.679-.257 58.271 7.492 99.26 18.722 123h54.414c12.307-23.851 21.84-65.093 24.007-123.679z" fill="url(#c)" fill-rule="evenodd" stroke="url(#d)" stroke-width="3.657" stroke-linecap="round" stroke-linejoin="round" transform="translate(-200)"/><path d="M302.548 24.48c-17.368 94.112-8.847 194.983-82.408 42.587 2.518 46.593 13.445 79.606 32.822 98.878h91.9c19.744-19.032 31.71-51.533 36.293-97.65-70.249 152.429-64.15 50.384-78.607-43.814z" fill="url(#e)" fill-rule="evenodd" stroke="url(#f)" stroke-width="3.657" stroke-linecap="round" stroke-linejoin="round" transform="translate(-200)"/><path fill="url(#g)" fill-rule="evenodd" stroke="url(#h)" stroke-width="3.657" stroke-linecap="round" stroke-linejoin="round" d="M247.314 173.105h102.095v14.857H247.314z" transform="translate(-200)"/></svg>