<svg xmlns="http://www.w3.org/2000/svg" xmlns:xlink="http://www.w3.org/1999/xlink" width="200" height="200"><defs><linearGradient xlink:href="#a" id="c" gradientUnits="userSpaceOnUse" x1="88.716" y1="286.248" x2="772.142" y2="750.581" gradientTransform="translate(400) scale(.22857)"/><linearGradient id="a"><stop offset="0"/><stop offset="1" stop-color="#505070"/></linearGradient><linearGradient xlink:href="#b" id="d" x1="452.267" y1="125.41" x2="550.4" y2="125.41" gradientUnits="userSpaceOnUse"/><linearGradient id="b"><stop offset="0" stop-color="gray"/><stop offset="1" stop-color="gray"/></linearGradient><linearGradient xlink:href="#a" id="e" gradientUnits="userSpaceOnUse" x1="88.716" y1="286.248" x2="772.142" y2="750.581" gradientTransform="translate(400) scale(.22857)"/><linearGradient xlink:href="#b" id="f" x1="426.743" y1="58.552" x2="466.21" y2="58.552" gradientUnits="userSpaceOnUse"/><linearGradient xlink:href="#a" id="g" gradientUnits="userSpaceOnUse" x1="88.716" y1="286.248" x2="772.142" y2="750.581" gradientTransform="translate(400) scale(.22857)"/><linearGradient xlink:href="#b" id="h" x1="481.219" y1="55.886" x2="518.019" y2="55.886" gradientUnits="userSpaceOnUse"/><linearGradient xlink:href="#a" id="i" gradientUnits="userSpaceOnUse" x1="88.716" y1="286.248" x2="772.142" y2="750.581" gradientTransform="translate(400) scale(.22857)"/><linearGradient xlink:href="#b" id="j" x1="540.648" y1="59.124" x2="573.257" y2="59.124" gradientUnits="userSpaceOnUse"/><linearGradient xlink:href="#a" id="k" gradientUnits="userSpaceOnUse" x1="88.716" y1="286.248" x2="772.142" y2="750.581" gradientTransform="translate(400) scale(.22857)"/><linearGradient xlink:href="#b" id="l" x1="435.505" y1="178.819" x2="530.971" y2="178.819" gradientUnits="userSpaceOnUse"/><linearGradient y2="750.581" x2="772.142" y1="286.248" x1="88.716" gradientTransform="translate(400) scale(.22857)" gradientUnits="userSpaceOnUse" id="m" xlink:href="#a"/><linearGradient y2="171.962" x2="564.876" y1="171.962" x1="539.124" gradientUnits="userSpaceOnUse" id="n" xlink:href="#b"/></defs><path fill="none" d="M0 0h200v200H0z"/><path fill="url(#c)" fill-rule="evenodd" stroke="url(#d)" stroke-width="3.657" stroke-linecap="round" stroke-linejoin="round" d="M454.095 70.552h94.476v109.714h-94.476z" transform="translate(-400)"/><path fill="url(#e)" fill-rule="evenodd" stroke="url(#f)" stroke-width="3.657" stroke-linecap="round" stroke-linejoin="round" d="M428.571 40.076h35.81v36.952h-35.81z" transform="translate(-400)"/><path fill="url(#g)" fill-rule="evenodd" stroke="url(#h)" stroke-width="3.657" stroke-linecap="round" stroke-linejoin="round" d="M483.048 48.076h33.143v15.619h-33.143z" transform="translate(-400)"/><path fill="url(#i)" fill-rule="evenodd" stroke="url(#j)" stroke-width="3.657" stroke-linecap="round" stroke-linejoin="round" d="M542.476 31.314h28.952v55.619h-28.952z" transform="translate(-400)"/><path fill="url(#k)" fill-rule="evenodd" stroke="url(#l)" stroke-width="3.657" stroke-linecap="round" stroke-linejoin="round" d="M437.333 171.2h91.81v15.238h-91.81z" transform="translate(-400)"/><path fill="url(#m)" fill-rule="evenodd" stroke="url(#n)" stroke-width="3.657" stroke-linecap="round" stroke-linejoin="round" d="M540.952 157.105h22.095v29.714h-22.095z" transform="translate(-400)"/></svg>