<?xml version="1.0" encoding="UTF-8" standalone="no"?>
<svg
   xmlns:dc="http://purl.org/dc/elements/1.1/"
   xmlns:cc="http://creativecommons.org/ns#"
   xmlns:rdf="http://www.w3.org/1999/02/22-rdf-syntax-ns#"
   xmlns:svg="http://www.w3.org/2000/svg"
   xmlns="http://www.w3.org/2000/svg"
   xmlns:sodipodi="http://sodipodi.sourceforge.net/DTD/sodipodi-0.dtd"
   xmlns:inkscape="http://www.inkscape.org/namespaces/inkscape"
   viewBox="0 0 45 45"
   id="svg2"
   version="1.1"
   inkscape:version="0.91 r13725"
   sodipodi:docname="K.svg">
  <metadata
     id="metadata20">
    <rdf:RDF>
      <cc:Work
         rdf:about="">
        <dc:format>image/svg+xml</dc:format>
        <dc:type
           rdf:resource="http://purl.org/dc/dcmitype/StillImage" />
      </cc:Work>
    </rdf:RDF>
  </metadata>
  <defs
     id="defs18" />
  <sodipodi:namedview
     pagecolor="#ffffff"
     bordercolor="#666666"
     borderopacity="1"
     objecttolerance="10"
     gridtolerance="10"
     guidetolerance="10"
     inkscape:pageopacity="0"
     inkscape:pageshadow="2"
     inkscape:window-width="640"
     inkscape:window-height="480"
     id="namedview16"
     showgrid="false"
     inkscape:zoom="5.2444444"
     inkscape:cx="22.5"
     inkscape:cy="22.5"
     inkscape:window-x="0"
     inkscape:window-y="0"
     inkscape:window-maximized="0"
     inkscape:current-layer="svg2" />
  <g
     id="g4"
     transform="matrix(-1,0,0,-1,44.937186,45.614318)"
     style="fill:none;fill-rule:evenodd;stroke:#888888;stroke-width:1.5;stroke-linecap:round;stroke-linejoin:round">
    <g
       id="g6"
       style="stroke-linejoin:miter">
      <path
         d="M 22.5,11.63 22.5,6"
         id="path8"
         inkscape:connector-curvature="0" />
      <path
         d="m 22.5,25 c 0,0 4.5,-7.5 3,-10.5 0,0 -1,-2.5 -3,-2.5 -2,0 -3,2.5 -3,2.5 -1.5,3 3,10.5 3,10.5"
         id="path10"
         inkscape:connector-curvature="0"
         style="fill:#888888;stroke-linecap:butt" />
    </g>
    <path
       d="m 11.5,37 c 5.5,3.5 15.5,3.5 21,0 l 0,-7 c 0,0 9,-4.5 6,-10.5 -4,-6.5 -13.5,-3.5 -16,4 l 0,3.5 0,-3.5 C 19,16 9.5,13 6.5,19.5 c -3,6 5,10 5,10 l 0,7.5 z"
       id="path12"
       inkscape:connector-curvature="0"
       style="fill:#888888" />
    <path
       d="m 20,8 5,0"
       id="path14"
       inkscape:connector-curvature="0"
       style="stroke-linejoin:miter" />
  </g>
</svg>
