<?xml version="1.0" encoding="UTF-8" standalone="no"?>
<svg
   xmlns:dc="http://purl.org/dc/elements/1.1/"
   xmlns:cc="http://creativecommons.org/ns#"
   xmlns:rdf="http://www.w3.org/1999/02/22-rdf-syntax-ns#"
   xmlns:svg="http://www.w3.org/2000/svg"
   xmlns="http://www.w3.org/2000/svg"
   xmlns:sodipodi="http://sodipodi.sourceforge.net/DTD/sodipodi-0.dtd"
   xmlns:inkscape="http://www.inkscape.org/namespaces/inkscape"
   viewBox="0 0 45 45"
   id="svg2"
   version="1.1"
   inkscape:version="0.91 r13725"
   sodipodi:docname="Q.svg">
  <metadata
     id="metadata30">
    <rdf:RDF>
      <cc:Work
         rdf:about="">
        <dc:format>image/svg+xml</dc:format>
        <dc:type
           rdf:resource="http://purl.org/dc/dcmitype/StillImage" />
      </cc:Work>
    </rdf:RDF>
  </metadata>
  <defs
     id="defs28" />
  <sodipodi:namedview
     pagecolor="#ffffff"
     bordercolor="#666666"
     borderopacity="1"
     objecttolerance="10"
     gridtolerance="10"
     guidetolerance="10"
     inkscape:pageopacity="0"
     inkscape:pageshadow="2"
     inkscape:window-width="640"
     inkscape:window-height="480"
     id="namedview26"
     showgrid="false"
     inkscape:zoom="5.2444444"
     inkscape:cx="22.5"
     inkscape:cy="22.5"
     inkscape:window-x="0"
     inkscape:window-y="0"
     inkscape:window-maximized="0"
     inkscape:current-layer="svg2" />
  <g
     id="g4"
     transform="matrix(-1,0,0,-1,45,46.443197)"
     style="fill:#888888;fill-rule:evenodd;stroke:#888888;stroke-width:1.5;stroke-linecap:round;stroke-linejoin:round">
    <g
       id="g6"
       style="stroke:none">
      <circle
         cx="6"
         cy="12"
         r="2.75"
         id="circle8" />
      <circle
         cx="14"
         cy="9"
         r="2.75"
         id="circle10" />
      <circle
         cx="22.5"
         cy="8"
         r="2.75"
         id="circle12" />
      <circle
         cx="31"
         cy="9"
         r="2.75"
         id="circle14" />
      <circle
         cx="39"
         cy="12"
         r="2.75"
         id="circle16" />
    </g>
    <g
       id="g18"
       style="stroke-linecap:butt">
      <path
         d="m 9,26 c 8.5,-1.5 21,-1.5 27,0 L 38.5,13.5 31,25 30.7,10.9 25.5,24.5 22.5,10 19.5,24.5 14.3,10.9 14,25 6.5,13.5 9,26 Z"
         id="path20"
         inkscape:connector-curvature="0" />
      <path
         d="m 9,26 c 0,2 1.5,2 2.5,4 1,1.5 1,1 0.5,3.5 -1.5,1 -1.5,2.5 -1.5,2.5 -1.5,1.5 0.5,2.5 0.5,2.5 6.5,1 16.5,1 23,0 0,0 1.5,-1 0,-2.5 0,0 0.5,-1.5 -1,-2.5 -0.5,-2.5 -0.5,-2 0.5,-3.5 1,-2 2.5,-2 2.5,-4 -8.5,-1.5 -18.5,-1.5 -27,0 z"
         id="path22"
         inkscape:connector-curvature="0" />
      <path
         d="m 11,38.5 a 35,35 1 0 0 23,0"
         id="path24"
         inkscape:connector-curvature="0"
         style="fill:none" />
    </g>
  </g>
</svg>
