<svg xmlns="http://www.w3.org/2000/svg" viewBox="0 0 48 48"><path fill="#949494" d="M0 0h12v12H0z"/><path fill="none" d="M12 0h12v12H12z"/><path fill="#949494" d="M24 0h12v12H24z"/><path fill="none" d="M36 0h12v12H36zM0 12h12v12H0z"/><path fill="#949494" d="M12 12h12v12H12z"/><path fill="none" d="M24 12h12v12H24z"/><path fill="#949494" d="M36 12h12v12H36zM0 24h12v12H0z"/><path fill="none" d="M12 24h12v12H12z"/><path fill="#949494" d="M24 24h12v12H24z"/><path fill="none" d="M36 24h12v12H36zM0 36h12v12H0z"/><path fill="#949494" d="M12 36h12v12H12z"/><path fill="none" d="M24 36h12v12H24z"/><path fill="#949494" d="M36 36h12v12H36z"/></svg>