<?xml version="1.0" encoding="UTF-8" standalone="no"?>
<!-- Generator: Adobe Illustrator 18.1.1, SVG Export Plug-In . SVG Version: 6.00 Build 0)  -->

<svg
   xmlns:svg="http://www.w3.org/2000/svg"
   xmlns="http://www.w3.org/2000/svg"
   version="1.1"
   id="Calque_1"
   x="0px"
   y="0px"
   viewBox="0 0 48 48"
   enable-background="new 0 0 48 48"
   xml:space="preserve"
   ><rect
     x="12"
     y="0"
     width="12"
     height="12"
     id="rect3"
     style="fill:#836839" /><rect
     x="36"
     y="0"
     width="12"
     height="12"
     id="rect5"
     style="fill:#836839" /><rect
     y="12"
     width="12"
     height="12"
     id="rect7"
     x="0"
     style="fill:#836839" /><rect
     x="24"
     y="12"
     width="12"
     height="12"
     id="rect9"
     style="fill:#836839" /><rect
     x="12"
     y="24"
     width="12"
     height="12"
     id="rect11"
     style="fill:#836839" /><rect
     x="36"
     y="24"
     width="12"
     height="12"
     id="rect13"
     style="fill:#836839" /><rect
     y="36"
     width="12"
     height="12"
     id="rect15"
     x="0"
     style="fill:#836839" /><rect
     x="24"
     y="36"
     width="12"
     height="12"
     id="rect17"
     style="fill:#836839" /><rect
     y="0"
     width="12"
     height="12"
     id="rect19"
     x="0"
     style="fill:#94794c" /><rect
     x="24"
     y="0"
     width="12"
     height="12"
     id="rect21"
     style="fill:#94794c" /><rect
     x="12"
     y="12"
     width="12"
     height="12"
     id="rect23"
     style="fill:#94794c" /><rect
     x="36"
     y="12"
     width="12"
     height="12"
     id="rect25"
     style="fill:#94794c" /><rect
     y="24"
     width="12"
     height="12"
     id="rect27"
     x="0"
     style="fill:#94794c" /><rect
     x="24"
     y="24"
     width="12"
     height="12"
     id="rect29"
     style="fill:#94794c" /><rect
     x="12"
     y="36"
     width="12"
     height="12"
     id="rect31"
     style="fill:#94794c" /><rect
     x="36"
     y="36"
     width="12"
     height="12"
     id="rect33"
     style="fill:#94794c" /></svg>