<?xml version="1.0" encoding="UTF-8" standalone="no"?>
<!-- Generator: Adobe Illustrator 18.1.1, SVG Export Plug-In . SVG Version: 6.00 Build 0)  -->

<svg
   xmlns="http://www.w3.org/2000/svg"
   version="1.1"
   id="Calque_1"
   x="0px"
   y="0px"
   viewBox="0 0 48 48"
   enable-background="new 0 0 48 48"
   xml:space="preserve">
   <rect
     style="fill:#86a666"
     id="rect5"
     height="12.000001"
     width="12"
     y="4.7683716e-007"
     x="12" /><rect
     style="fill:#86a666"
     id="rect7"
     height="12.000001"
     width="12"
     y="4.7683716e-007"
     x="36" /><rect
     style="fill:#86a666"
     x="0"
     id="rect9"
     height="12.000001"
     width="12"
     y="11.999999" /><rect
     style="fill:#86a666"
     id="rect11"
     height="12.000001"
     width="12"
     y="11.999999"
     x="24" /><rect
     style="fill:#86a666"
     id="rect13"
     height="12.000001"
     width="12"
     y="24"
     x="12" /><rect
     style="fill:#86a666"
     id="rect15"
     height="12.000001"
     width="12"
     y="24"
     x="36" /><rect
     style="fill:#86a666"
     x="0"
     id="rect17"
     height="12.000001"
     width="12"
     y="36" /><rect
     style="fill:#86a666"
     id="rect19"
     height="12.000001"
     width="12"
     y="36"
     x="24" /><rect
     style="fill:#ffffdd"
     x="0"
     id="rect23"
     height="12.000001"
     width="12"
     y="4.7683716e-007" /><rect
     style="fill:#ffffdd"
     id="rect25"
     height="12.000001"
     width="12"
     y="4.7683716e-007"
     x="24" /><rect
     style="fill:#ffffdd"
     id="rect27"
     height="12.000001"
     width="12"
     y="11.999999"
     x="12" /><rect
     style="fill:#ffffdd"
     id="rect29"
     height="12.000001"
     width="12"
     y="11.999999"
     x="36" /><rect
     style="fill:#ffffdd"
     x="0"
     id="rect31"
     height="12.000001"
     width="12"
     y="24" /><rect
     style="fill:#ffffdd"
     id="rect33"
     height="12.000001"
     width="12"
     y="24"
     x="24" /><rect
     style="fill:#ffffdd"
     id="rect35"
     height="12.000001"
     width="12"
     y="36"
     x="12" /><rect
     style="fill:#ffffdd"
     id="rect37"
     height="12.000001"
     width="12"
     y="36"
     x="36" /></svg>