<svg viewBox="0 0 64 64" xmlns="http://www.w3.org/2000/svg"><g fill="#fff"><path d="M21.47 58.149h6.42a828645.458 828645.458 0 0127.215 0H20.922h10.263H7.762h10.994a2212.158 2212.158 0 012.714 0z"/><path d="M21.47 58.149h6.42a828645.458 828645.458 0 0127.215 0H20.922h10.263H7.762h10.994a2212.158 2212.158 0 012.714 0zM23.667 58.149h16.077a1559186.26 1559186.26 0 004.181 0h4.108a1284649.256 1284649.256 0 003.013 0h-1.504a145930756.18 145930756.18 0 001.936 0h2.725a1919442.377 1919442.377 0 00-.176 0H21.976h11.986a754881.935 754881.935 0 01-17.914 0h.052a2628791.017 2628791.017 0 00-5.569 0H18.654a260047.03 260047.03 0 007.38 0h-2.367zM19.828 58.149zM19.828 58.149zM22.012 58.149h5.696-5.696zM12.64 58.15zM12.64 58.15z"/><path d="M25.14 8.7c1.263-2.2 4.93-1.866 5.764.542.712 1.59-.59 3.014-1.15 4.415.815.774 1.634 1.547 2.456 2.32.866-.894 1.729-1.794 2.589-2.697-.362-1.403-1.526-2.954-.616-4.38 1.053-2.117 4.475-2.294 5.642-.187 1.078 1.441-.033 3.103-.452 4.556 2.559 3.426 4.968 7.093 6.059 11.279 1.431 5.218.535 10.778-1.245 15.795-1.301 3.125-.785 6.589-1.388 9.86 4.517-.569 9.693-1.567 13.762 1.083 2.252 1.506 2.014 4.438 1.959 6.801h-.91c-6.154-1.792-12.601-1.35-18.92-1.192-3.196-4.126-10.023-4.089-13.233 0-6.304-.15-12.745-.607-18.88 1.192h-1.13c.165-2.355-.103-5.295 2.143-6.797 4.067-2.65 9.243-1.659 13.76-1.088a53.769 53.769 0 01-.545-7.648c-2.351-4.264-4.44-9.134-3.493-14.103 1.168-5.659 4.844-10.32 8.327-14.762-.382-1.593-1.602-3.417-.498-4.99z" stroke="#000" stroke-miterlimit="10" stroke-width=".08"/></g><path d="M25.14 8.7c1.263-2.2 4.93-1.866 5.764.542.712 1.59-.59 3.014-1.15 4.415.815.774 1.634 1.547 2.456 2.32.866-.894 1.729-1.794 2.589-2.697-.362-1.403-1.526-2.954-.616-4.38 1.053-2.117 4.475-2.294 5.642-.187 1.078 1.441-.033 3.103-.452 4.556 2.559 3.426 4.968 7.093 6.059 11.279 1.431 5.218.535 10.778-1.245 15.795-1.301 3.125-.785 6.589-1.388 9.86 4.517-.569 9.693-1.567 13.762 1.083 2.252 1.506 2.014 4.438 1.959 6.801h-.91c-6.154-1.792-12.601-1.35-18.92-1.192-3.196-4.126-10.023-4.089-13.233 0-6.304-.15-12.745-.607-18.88 1.192h-1.13c.165-2.355-.103-5.295 2.143-6.797 4.067-2.65 9.243-1.659 13.76-1.088a53.769 53.769 0 01-.545-7.648c-2.351-4.264-4.44-9.134-3.493-14.103 1.168-5.659 4.844-10.32 8.327-14.762-.382-1.593-1.602-3.417-.498-4.99z"/><g fill="#fff"><path d="M26.607 9.475c.864-.77 2.566-.755 2.45.741.063 2.25-3.36 1.295-2.45-.741z" stroke="#fff" stroke-miterlimit="10" stroke-width=".08"/><path d="M26.607 9.475c.864-.77 2.566-.755 2.45.741.063 2.25-3.36 1.295-2.45-.741z"/><path d="M35.855 9.679c1.34-1.938 2.892.186 2.436 1.79-1.27.129-2.915-.133-2.436-1.79z" stroke="#fff" stroke-miterlimit="10" stroke-width=".08"/><path d="M35.855 9.679c1.34-1.938 2.892.186 2.436 1.79-1.27.129-2.915-.133-2.436-1.79z"/><path d="M33.31 17.793a434.055 434.055 0 003.808-4.027c2.804 4.02 5.658 8.236 6.557 13.152.664 3.33.205 6.748-.64 10-.805-7.353-4.567-13.948-9.725-19.126z" stroke="#fff" stroke-miterlimit="10" stroke-width=".08"/><path d="M33.31 17.793a434.055 434.055 0 003.808-4.027c2.804 4.02 5.658 8.236 6.557 13.152.664 3.33.205 6.748-.64 10-.805-7.353-4.567-13.948-9.725-19.126z"/><path d="M27.731 14.43c5.166 5.063 9.924 10.837 12.496 17.677.988 2.449.917 5.139.216 7.65-5.768-2.17-12.29-2.093-18.09-.072-2.38-2.88-3.992-6.676-2.983-10.446 1.418-5.533 4.184-10.853 8.36-14.809z" stroke="#fff" stroke-miterlimit="10" stroke-width=".08"/><path d="M27.731 14.43c5.166 5.063 9.924 10.837 12.496 17.677.988 2.449.917 5.139.216 7.65-5.768-2.17-12.29-2.093-18.09-.072-2.38-2.88-3.992-6.676-2.983-10.446 1.418-5.533 4.184-10.853 8.36-14.809z"/><path d="M23.037 42.009c4.02-2.105 8.788-1.695 13.167-1.438 1.726.358 4.214.248 4.988 2.19l-1.365 1.736c.728 1.053 1.109 2.27 1.448 3.493a52.158 52.158 0 00-18.402 0c.33-1.212.71-2.417 1.433-3.46a4.483 4.483 0 01-1.27-2.521z" stroke="#fff" stroke-miterlimit="10" stroke-width=".08"/><path d="M23.037 42.009c4.02-2.105 8.788-1.695 13.167-1.438 1.726.358 4.214.248 4.988 2.19l-1.365 1.736c.728 1.053 1.109 2.27 1.448 3.493a52.158 52.158 0 00-18.402 0c.33-1.212.71-2.417 1.433-3.46a4.483 4.483 0 01-1.27-2.521z"/><path d="M30.711 43.135c1.269-.483 3.176-.436 3.531 1.173-1.292.825-2.901.802-4.248.128l.717-1.301z" stroke="#000" stroke-miterlimit="10" stroke-width=".08"/></g><path d="M30.711 43.135c1.269-.483 3.176-.436 3.531 1.173-1.292.825-2.901.802-4.248.128l.717-1.301z"/><g fill="#fff"><path d="M23.838 50.124c5.244-1.734 11.225-1.736 16.468.003-2.24 2.049-5.433 1.638-8.225 1.762-2.8-.123-6.003.291-8.243-1.765z" stroke="#fff" stroke-miterlimit="10" stroke-width=".08"/><path d="M23.838 50.124c5.244-1.734 11.225-1.736 16.468.003-2.24 2.049-5.433 1.638-8.225 1.762-2.8-.123-6.003.291-8.243-1.765z"/><path d="M6.878 55.331c.638-1.976 2.218-3.42 4.327-3.542 5.592-.676 11.268.3 16.693 1.652-6.714 2.377-14.024 1.563-21.02 1.89z" stroke="#fff" stroke-miterlimit="10" stroke-width=".08"/><path d="M6.878 55.331c.638-1.976 2.218-3.42 4.327-3.542 5.592-.676 11.268.3 16.693 1.652-6.714 2.377-14.024 1.563-21.02 1.89z"/><path d="M36.255 53.428c5.655-1.339 11.597-2.482 17.397-1.493 1.888.2 2.956 1.77 3.623 3.395-6.994-.336-14.318.51-21.02-1.902z" stroke="#fff" stroke-miterlimit="10" stroke-width=".08"/><path d="M36.255 53.428c5.655-1.339 11.597-2.482 17.397-1.493 1.888.2 2.956 1.77 3.623 3.395-6.994-.336-14.318.51-21.02-1.902z"/></g></svg>