<?xml version="1.0" encoding="utf-8"?>
<!-- Generator: Adobe Illustrator 18.1.1, SVG Export Plug-In . SVG Version: 6.00 Build 0)  -->
<svg version="1.1" id="Calque_1" xmlns="http://www.w3.org/2000/svg" xmlns:xlink="http://www.w3.org/1999/xlink" x="0px" y="0px"
	 viewBox="0 0 612 792" enable-background="new 0 0 612 792" xml:space="preserve">
<g>
	<rect x="153" y="90" fill="#7D4A8D" width="153" height="153"/>
	<rect x="459" y="90" fill="#7D4A8D" width="153" height="153"/>
	<rect y="243" fill="#7D4A8D" width="153" height="153"/>
	<rect x="306" y="243" fill="#7D4A8D" width="153" height="153"/>
	<rect x="153" y="396" fill="#7D4A8D" width="153" height="153"/>
	<rect x="459" y="396" fill="#7D4A8D" width="153" height="153"/>
	<rect y="549" fill="#7D4A8D" width="153" height="153"/>
	<rect x="306" y="549" fill="#7D4A8D" width="153" height="153"/>
</g>
<g>
	<rect y="90" fill="#9F90B0" width="153" height="153"/>
	<rect x="306" y="90" fill="#9F90B0" width="153" height="153"/>
	<rect x="153" y="243" fill="#9F90B0" width="153" height="153"/>
	<rect x="459" y="243" fill="#9F90B0" width="153" height="153"/>
	<rect y="396" fill="#9F90B0" width="153" height="153"/>
	<rect x="306" y="396" fill="#9F90B0" width="153" height="153"/>
	<rect x="153" y="549" fill="#9F90B0" width="153" height="153"/>
	<rect x="459" y="549" fill="#9F90B0" width="153" height="153"/>
</g>
</svg>
